<?xml version="1.0" standalone="no"?>
<!DOCTYPE svg PUBLIC "-//W3C//DTD SVG 1.1//EN" "http://www.w3.org/Graphics/SVG/1.1/DTD/svg11.dtd" >
<svg xmlns="http://www.w3.org/2000/svg" xmlns:xlink="http://www.w3.org/1999/xlink" version="1.1">
<metadata>
Created by FontForge 20201107 at Tue May  7 20:17:21 2024
 By 
Copyright (c) 2016 by Juri Zaech. All rights reserved.
</metadata>
<defs>
<font id="FrontageCondensed-3D" horiz-adv-x="1146" >
  <font-face 
    font-family="Frontage Condensed 3D"
    font-weight="900"
    font-stretch="normal"
    units-per-em="2048"
    panose-1="0 0 10 0 0 0 0 0 0 0"
    ascent="1638"
    descent="-410"
    x-height="1556"
    cap-height="1556"
    bbox="-1475 -512 3441 1927"
    underline-thickness="102"
    underline-position="-204"
    unicode-range="U+0020-FB02"
  />
<missing-glyph horiz-adv-x="999" 
d="M819 1874v-1997h-633v1997h633zM666 1741h-330v-66h129v-76h-131v-65h332v65h-134v76h134v66zM532 1483h-198v-207h332v67h-134v140zM465 1415v-72h-66v72h66zM666 1221h-332v-66h131v-74h-131v-65h198v139h134v66zM666 1102h-66v-133h-266v-68h332v201zM666 858h-201
v-113h67v48h68v-95h-201v160h-65v-225h332v225zM666 512h-332v-225h332v225zM600 446v-94h-201v94h201zM666 240h-332v-66h139l-139 -94v-66h332v66h-205l139 94h66v66z" />
    <glyph glyph-name="fi" unicode="fi" horiz-adv-x="1863" 
d="M205 -123v1557l123 122h635v-229l-123 -123h-267v-311h308v-229l-123 -123h-185v-541l-122 -123h-246zM1290 -123v1557l123 122h246v-1556l-123 -123h-246zM369 41h163v664h308v147h-308v516h390v148h-553v-1475zM1454 41h164v1475h-164v-1475z" />
    <glyph glyph-name="fl" unicode="fl" horiz-adv-x="2088" 
d="M205 -123v1557l123 122h635v-229l-123 -123h-267v-311h308v-229l-123 -123h-185v-541l-122 -123h-246zM1290 -123v1557l123 122h246v-1327h348v-229l-123 -123h-594zM369 41h163v664h308v147h-308v516h390v148h-553v-1475zM1454 41h512v147h-348v1328h-164v-1475z" />
    <glyph glyph-name=".notdef" horiz-adv-x="999" 
d="M819 1874v-1997h-633v1997h633zM666 1741h-330v-66h129v-76h-131v-65h332v65h-134v76h134v66zM532 1483h-198v-207h332v67h-134v140zM465 1415v-72h-66v72h66zM666 1221h-332v-66h131v-74h-131v-65h198v139h134v66zM666 1102h-66v-133h-266v-68h332v201zM666 858h-201
v-113h67v48h68v-95h-201v160h-65v-225h332v225zM666 512h-332v-225h332v225zM600 446v-94h-201v94h201zM666 240h-332v-66h139l-139 -94v-66h332v66h-205l139 94h66v66z" />
    <glyph glyph-name=".null" horiz-adv-x="0" 
 />
    <glyph glyph-name="nonmarkingreturn" horiz-adv-x="682" 
 />
    <glyph glyph-name="space" unicode=" " horiz-adv-x="614" 
 />
    <glyph glyph-name="exclam" unicode="!" horiz-adv-x="786" 
d="M221 369l-37 1065l123 122h295l-37 -1064l-123 -123h-221zM383 532h143l33 984h-209zM209 -123v246l123 123h246v-246l-123 -123h-246zM373 41h164v164h-164v-164z" />
    <glyph glyph-name="quotedbl" unicode="&#x22;" horiz-adv-x="962" 
d="M584 1556h245v-409l-122 -123h-246v82l-82 -82h-246v410l123 122h246v-81zM297 1188h164v328h-164v-328zM625 1188h163v328h-163v-328z" />
    <glyph glyph-name="numbersign" unicode="#" horiz-adv-x="1329" 
d="M238 -123l47 389h-162v226l123 122h82l26 205h-164v225l123 123h82l33 267l123 122h227l-12 -102l96 102h228l-48 -389h164v-225l-123 -123h-84l-26 -205h166v-225l-123 -123h-84l-33 -266l-123 -123h-227l10 94l-94 -94h-227zM408 41h143l49 389h166l-49 -389h145
l47 389h189v143h-170l49 410h188v143h-170l47 390h-143l-49 -390h-166l49 390h-145l-47 -390h-187v-143h168l-49 -410h-186v-143h168zM616 573l52 410h166l-52 -410h-166z" />
    <glyph glyph-name="dollar" unicode="$" 
d="M389 -246v111q-100 32 -157.5 116.5t-57.5 202.5v185l123 123h205q-24 25 -67.5 65.5t-74.5 69.5t-68.5 73t-61.5 85.5t-40 99t-16 119.5v122q0 154 92 246l123 123v61l123 123h246v-110q100 -32 157.5 -117t57.5 -203v-184l-123 -123h-207q24 -25 68.5 -65.5t75.5 -69
t68.5 -73t61 -86t40 -99t16.5 -119.5v-123q0 -154 -92 -246l-123 -120v-64l-123 -123h-246zM553 -82h164v100q99 25 157 101.5t58 187.5v121q0 73 -23.5 138t-61.5 113.5t-84 93t-92 86.5t-84 84t-61.5 94t-23.5 110v119q0 60 36.5 96.5t96.5 36.5t96.5 -36.5t36.5 -96.5
v-160h164v143q0 111 -58 187.5t-157 101.5v100h-164v-100q-99 -25 -157 -101.5t-58 -187.5v-121q0 -73 23.5 -138t61.5 -113.5t84 -93t92 -86t84 -83.5t61.5 -94t23.5 -110v-119q0 -60 -36.5 -96.5t-96.5 -36.5t-96.5 36.5t-36.5 96.5v160h-164v-144q0 -111 58 -187.5
t157 -101.5v-100zM604 987v156q0 68 -61 88v-84q0 -83 61 -160zM604 203v84q0 82 -61 159v-155q0 -68 61 -88z" />
    <glyph glyph-name="percent" unicode="%" horiz-adv-x="1060" 
d="M668 -133q-66 0 -108 41t-42 106v238l-72 -252l-122 -123h-156l315 1096l-104 -105q-44 -41 -107 -41q-66 0 -107.5 41.5t-41.5 106.5v321q0 63 41 107l123 123q41 41 108 41q65 0 106.5 -41.5t41.5 -106.5v-237l71 252l123 122h156l-315 -1097l106 106q41 41 107 41
q65 0 106 -41t41 -106v-322q0 -65 -41 -106l-123 -123q-41 -41 -106 -41zM395 983q51 0 83 31.5t32 83.5v321q0 51 -32 83t-83 32q-52 0 -84 -32t-32 -83v-321q0 -52 31.5 -83.5t84.5 -31.5zM334 31h88l428 1495h-86zM395 1067q-15 0 -24 8.5t-9 22.5v321q0 14 9 22.5
t24 8.5q13 0 22 -9t9 -22v-321q0 -14 -9 -22.5t-22 -8.5zM791 23q51 0 82.5 31t31.5 83v322q0 51 -31.5 82.5t-82.5 31.5q-52 0 -84.5 -31.5t-32.5 -82.5v-322q0 -52 32 -83t85 -31zM791 106q-15 0 -24 8.5t-9 22.5v322q0 14 9 22t24 8q13 0 21.5 -8.5t8.5 -21.5v-322
q0 -14 -8.5 -22.5t-21.5 -8.5z" />
    <glyph glyph-name="ampersand" unicode="&#x26;" horiz-adv-x="1116" 
d="M481 -154q-152 0 -245 93t-93 245v226q0 150 95 245q-95 95 -95 246v225q0 153 93 246l122 123q92 92 246 92q152 0 245 -93t93 -245v-92l-123 -123h-246v109q0 68 -61 88v-246q0 -34 17 -57t44 -31l129 129h240v-133h123v-229l-123 -123v-234q0 -154 -92 -246l-123 -122
q-93 -93 -246 -93zM604 10q134 0 215.5 82t81.5 215v398h123v147h-123v133h-164v-133h-133q-60 0 -96.5 36.5t-36.5 96.5v281q0 60 36.5 96.5t96.5 36.5t96.5 -36.5t36.5 -96.5v-68h164v51q0 133 -81.5 215t-215.5 82t-215.5 -82t-81.5 -215v-225q0 -166 119 -246
q-119 -80 -119 -246v-225q0 -133 81.5 -215t215.5 -82zM604 158q-60 0 -96.5 36.5t-36.5 96.5v280q0 60 36.5 97t96.5 37h133v-414q0 -60 -36.5 -96.5t-96.5 -36.5zM573 203v338h-61v-250q0 -68 61 -88z" />
    <glyph glyph-name="quotesingle" unicode="'" horiz-adv-x="634" 
d="M133 1024v410l123 122h246v-409l-123 -123h-246zM297 1188h164v328h-164v-328z" />
    <glyph glyph-name="parenleft" unicode="(" horiz-adv-x="839" 
d="M522 -154q-152 0 -245 93t-93 245v942q0 154 92 246l123 123q92 92 246 92h92v-229l-123 -123h-61v-944q0 -41 25.5 -66.5t66.5 -25.5h92v-230l-123 -123h-92zM645 10h51v148h-51q-60 0 -96.5 36.5t-36.5 96.5v975q0 60 36.5 96.5t96.5 36.5h51v147h-51q-133 0 -215 -82
t-82 -215v-942q0 -133 82 -215t215 -82z" />
    <glyph glyph-name="parenright" unicode=")" horiz-adv-x="839" 
d="M102 -154v230l123 123h62v944q0 41 -25.5 66.5t-66.5 25.5h-93v229l123 123h92q152 0 245 -93t93 -245v-942q0 -154 -92 -246l-123 -122q-93 -93 -245 -93h-93zM266 10h51q133 0 215 82t82 215v942q0 133 -82 215t-215 82h-51v-147h51q60 0 97 -36.5t37 -96.5v-975
q0 -60 -37 -96.5t-97 -36.5h-51v-148z" />
    <glyph glyph-name="asterisk" unicode="*" horiz-adv-x="1075" 
d="M340 684l-174 127l149 190l-233 68l68 205l122 123l99 -35l-4 72l122 122h218l-9 -241l228 82l67 -205l-123 -123l-55 -16l94 -119l-123 -123l-176 -127l-114 172l-33 -49zM455 864l143 213l145 -213l109 80l-160 203l248 70l-41 129l-242 -89l9 259h-136l11 -259
l-242 89l-43 -129l248 -70l-158 -203z" />
    <glyph glyph-name="plus" unicode="+" 
d="M1044 897h-286v291h-246l-123 -123v-168h-164l-123 -123v-237h287v-291h246l123 123v168h164l122 122v238zM1004 856v-156h-287v-290h-164v290h-287v156h287v291h164v-291h287z" />
    <glyph glyph-name="comma" unicode="," horiz-adv-x="634" 
d="M502 246h-246l-123 -123v-410h172l123 123l74 199v211zM461 41l-62 -164h-102v328h164v-164z" />
    <glyph glyph-name="hyphen" unicode="-" horiz-adv-x="901" 
d="M102 541v229l123 123h574v-229l-123 -123h-574zM266 705h492v147h-492v-147z" />
    <glyph glyph-name="period" unicode="." horiz-adv-x="634" 
d="M502 0v246h-246l-123 -123v-246h246zM461 205v-164h-164v164h164z" />
    <glyph glyph-name="slash" unicode="/" horiz-adv-x="897" 
d="M51 -123l418 1557l123 122h254l-418 -1556l-123 -123h-254zM227 41h170l396 1475h-170z" />
    <glyph glyph-name="zero" unicode="0" horiz-adv-x="1167" 
d="M522 -154q-152 0 -245 93t-93 245v942q0 154 92 246l123 123q92 92 246 92q152 0 245 -93t93 -245v-942q0 -154 -92 -246l-123 -122q-93 -93 -246 -93zM645 10q133 0 215 82t82 215v942q0 133 -82 215t-215 82t-215 -82t-82 -215v-942q0 -133 82 -215t215 -82zM645 158
q-60 0 -96.5 36.5t-36.5 96.5v975q0 60 36.5 96.5t96.5 36.5t96.5 -36.5t36.5 -96.5v-975q0 -60 -36.5 -96.5t-96.5 -36.5zM614 203v940q0 68 -61 88v-940q0 -68 61 -88z" />
    <glyph glyph-name="one" unicode="1" horiz-adv-x="839" 
d="M266 -123v1327h-205l91 230l122 122h361v-1556l-123 -123h-246zM430 41h164v1475h-291l-59 -148h186v-1327z" />
    <glyph glyph-name="two" unicode="2" horiz-adv-x="1085" 
d="M143 -123v123q0 95 23.5 183t61.5 157t84 135t92 128.5t84 125.5t61.5 139t23.5 156v119q0 68 -61 88v-166l-123 -123h-246v184q0 153 93 246l122 123q92 92 246 92q152 0 245 -93t93 -245v-123q0 -85 -18 -162.5t-48.5 -139.5t-68 -120t-79 -114.5t-78.5 -110.5
t-69 -119t-49 -131h410v-229l-123 -123h-676zM307 41h594v147h-422q17 102 67.5 199t109 174t114.5 158.5t93.5 186t37.5 222.5v121q0 133 -81.5 215t-215.5 82t-215.5 -82t-81.5 -215v-143h164v160q0 60 36.5 96.5t96.5 36.5t96.5 -36.5t36.5 -96.5v-119
q0 -85 -23.5 -164.5t-61.5 -144t-84 -127.5t-92 -127.5t-84 -131.5t-61.5 -152.5t-23.5 -178.5v-80z" />
    <glyph glyph-name="three" unicode="3" 
d="M973 1249v-225q0 -152 -94 -246q94 -94 94 -246v-225q0 -154 -92 -246l-123 -122q-93 -93 -246 -93q-152 0 -245 93t-93 245v185l123 123h246v-201q0 -68 61 -88v246q0 41 -25.5 66.5t-66.5 25.5h-111v229l123 123h80v250q0 68 -61 88v-166l-123 -123h-246v184
q0 154 92 246l123 123q92 92 246 92q152 0 245 -93t93 -245zM932 1024v225q0 133 -82 215t-215 82t-215 -82t-82 -215v-143h164v160q0 60 36.5 96.5t96.5 36.5t96.5 -36.5t36.5 -96.5v-281q0 -60 -36.5 -96.5t-96.5 -36.5h-70v-147h70q60 0 96.5 -37t36.5 -97v-280
q0 -60 -36.5 -96.5t-96.5 -36.5t-96.5 36.5t-36.5 96.5v160h-164v-144q0 -133 82 -215t215 -82t215 82t82 215v225q0 166 -119 246q119 80 119 246z" />
    <glyph glyph-name="four" unicode="4" 
d="M492 -123v336h-451v182l512 1039l123 122h184v-991h144v-229l-123 -123h-21v-213l-123 -123h-245zM655 41h164v336h144v147h-144v992h-119l-495 -1008v-131h450v-336zM395 524l260 527v-527h-260zM461 565h31v62z" />
    <glyph glyph-name="five" unicode="5" 
d="M512 -154q-152 0 -245 93t-93 245v185l123 123h246v-201q0 -68 61 -88v340q0 41 -25.5 66.5t-66.5 25.5q-15 0 -31 -4l-55 -56l-250 39l29 820l123 122h624v-229l-123 -123h-268l-8 -219q36 8 82 8q152 0 245 -93t93 -245v-348q0 -154 -92 -246l-123 -122
q-93 -93 -246 -93zM635 10q133 0 215 82t82 215v348q0 133 -82 215t-215 82q-67 0 -125 -22l14 438h387v148h-544l-27 -744l184 -27q38 54 111 54q60 0 96.5 -36.5t36.5 -96.5v-375q0 -60 -36.5 -96.5t-96.5 -36.5t-96.5 36.5t-36.5 96.5v160h-164v-144q0 -133 82 -215
t215 -82z" />
    <glyph glyph-name="six" unicode="6" horiz-adv-x="1167" 
d="M522 -154q-152 0 -245 93t-93 245v942q0 154 92 246l123 123q92 92 246 92q152 0 245 -93t93 -245v-184l-123 -123h-88q99 -34 155 -117.5t56 -199.5v-318q0 -154 -92 -246l-123 -122q-93 -93 -246 -93zM645 10q133 0 215 82t82 215v318q0 133 -82 215t-215 82
q-76 0 -133 -31v375q0 60 36.5 96.5t96.5 36.5t96.5 -36.5t36.5 -96.5v-160h164v143q0 133 -82 215t-215 82t-215 -82t-82 -215v-942q0 -133 82 -215t215 -82zM553 952q41 9 61 9v182q0 68 -61 88v-279zM645 158q-60 0 -96.5 36.5t-36.5 96.5v350q0 60 36.5 96.5t96.5 36.5
t96.5 -36.5t36.5 -96.5v-350q0 -60 -36.5 -96.5t-96.5 -36.5zM614 203v315q0 68 -61 88v-315q0 -68 61 -88z" />
    <glyph glyph-name="seven" unicode="7" horiz-adv-x="1064" 
d="M983 1556h-758l-123 -122v-230h498l-383 -1327h256l123 123l387 1352v204zM942 1516v-158l-377 -1317h-172l385 1327h-512v148h676z" />
    <glyph glyph-name="eight" unicode="8" 
d="M512 -154q-152 0 -245 93t-93 245v246q0 152 94 246q-94 94 -94 246v204q0 154 92 246l125 123q92 92 244 92t245 -93t93 -245v-205q0 -151 -94 -245q94 -94 94 -246v-246q0 -154 -92 -246l-123 -122q-93 -93 -246 -93zM635 10q133 0 215 82t82 215v246q0 166 -119 246
q119 80 119 245v205q0 133 -82 215t-215 82t-215 -82t-82 -215v-205q0 -165 119 -245q-119 -80 -119 -246v-246q0 -133 82 -215t215 -82zM635 872q-60 0 -96.5 37t-36.5 97v260q0 60 36.5 96.5t96.5 36.5t96.5 -36.5t36.5 -96.5v-260q0 -60 -36.5 -97t-96.5 -37zM604 918
v225q0 68 -61 88v-225q0 -68 61 -88zM635 158q-60 0 -96.5 36.5t-36.5 96.5v301q0 60 36.5 96.5t96.5 36.5t96.5 -36.5t36.5 -96.5v-301q0 -60 -36.5 -96.5t-96.5 -36.5zM604 203v266q0 68 -61 88v-266q0 -68 61 -88z" />
    <glyph glyph-name="nine" unicode="9" horiz-adv-x="1167" 
d="M522 -154q-152 0 -245 93t-93 245v185l123 123h88q-99 34 -155 117.5t-56 199.5v317q0 154 92 246l125 123q92 92 244 92t245 -93t93 -245v-942q0 -154 -92 -246l-123 -122q-93 -93 -246 -93zM645 10q133 0 215 82t82 215v942q0 133 -82 215t-215 82t-215 -82t-82 -215
v-317q0 -134 82 -215.5t215 -81.5q76 0 133 31v-375q0 -60 -36.5 -96.5t-96.5 -36.5t-96.5 36.5t-36.5 96.5v160h-164v-144q0 -133 82 -215t215 -82zM645 782q-60 0 -96.5 36.5t-36.5 96.5v351q0 60 36.5 96.5t96.5 36.5t96.5 -36.5t36.5 -96.5v-351q0 -60 -36.5 -96.5
t-96.5 -36.5zM614 827v316q0 68 -61 88v-316q0 -68 61 -88zM614 203v278q-36 -8 -61 -8v-182q0 -68 61 -88z" />
    <glyph glyph-name="colon" unicode=":" horiz-adv-x="634" 
d="M502 655v246h-246l-123 -123v-246h246zM461 860v-164h-164v164h164zM502 0v246h-246l-123 -123v-246h246zM461 205v-164h-164v164h164z" />
    <glyph glyph-name="semicolon" unicode=";" horiz-adv-x="634" 
d="M502 655v246h-246l-123 -123v-246h246zM461 860v-164h-164v164h164zM502 246h-246l-123 -123v-410h172l123 123l74 199v211zM461 41l-62 -164h-102v328h164v-164z" />
    <glyph glyph-name="less" unicode="&#x3c;" 
d="M922 154l-820 399v205l123 123l819 399v-272l-122 -123l-281 -137l403 -197v-275zM1004 342v182l-521 254l521 254v182l-738 -358v-154z" />
    <glyph glyph-name="equal" unicode="=" 
d="M1044 1057v-230l-98 -98h98v-229l-122 -123h-820v229l99 99h-99v229l123 123h819zM1004 868v148h-738v-148h738zM1004 541v147h-738v-147h738z" />
    <glyph glyph-name="greater" unicode="&#x3e;" 
d="M102 154v274l123 123l281 135l-404 199v272l123 123l819 -399v-205l-122 -123zM266 342l738 360v154l-738 358v-182l520 -254l-520 -254v-182z" />
    <glyph glyph-name="question" unicode="?" horiz-adv-x="1085" 
d="M358 369v393l123 123h92v258q0 68 -61 88v-166l-123 -123h-246v184q0 153 93 246l122 123q92 92 246 92q152 0 245 -93t93 -245v-256q0 -153 -92 -245l-123 -121v-135l-123 -123h-246zM522 532h164v173q100 25 157.5 101t57.5 187v256q0 133 -81.5 215t-215.5 82
t-215.5 -82t-81.5 -215v-143h164v160q0 60 36.5 96.5t96.5 36.5t96.5 -36.5t36.5 -96.5v-289q0 -60 -36.5 -96.5t-96.5 -36.5h-82v-312zM358 -123v246l123 123h246v-246l-123 -123h-246zM522 41h164v164h-164v-164z" />
    <glyph glyph-name="at" unicode="@" horiz-adv-x="1505" 
d="M692 -154q-229 0 -368.5 139.5t-139.5 368.5v561q0 227 140 367l122 123q139 139 369 139q227 0 366.5 -139.5t139.5 -366.5v-280q0 -154 -92 -246l-123 -123q-16 -16 -35 -27l213 -94q-34 -92 -102 -159l-123 -123q-140 -140 -367 -140zM815 10q208 0 338 127
q50 53 78 111l-154 67q-17 -32 -45 -57q-81 -84 -217 -84q-137 0 -220 83t-83 220v561q0 135 83.5 218t219.5 83q135 0 218 -83t83 -218v-10q-66 27 -133 27q-133 0 -215 -81.5t-82 -215.5q0 -135 81.5 -216t215.5 -81t215.5 81t81.5 216v280q0 209 -128 337t-337 128
q-211 0 -339 -128t-128 -337v-561q0 -211 128 -339t339 -128zM553 788q25 55 61 91l123 122q61 64 154 84q-29 43 -81 67t-118 24q-60 0 -117 -23q-22 -52 -22 -115v-250zM983 625q-60 0 -96.5 36.5t-36.5 96.5t36.5 96.5t96.5 36.5t96.5 -36.5t36.5 -96.5t-36.5 -96.5
t-96.5 -36.5zM946 672q-11 33 -49 49q13 -36 49 -49zM815 215q57 0 115 23q1 1 2 4t2 4l80 82q-70 -31 -154 -31q-108 0 -188 48t-119 134v-2q0 -119 71.5 -190.5t190.5 -71.5z" />
    <glyph glyph-name="A" unicode="A" horiz-adv-x="1069" 
d="M82 -123l217 1557l123 122h348l217 -1556l-123 -123h-248l-41 350h-96l-26 -227l-123 -123h-248zM252 41h164l45 350h270l45 -350h164l-207 1475h-274zM479 539l107 829h20l107 -829h-234zM522 580h6l-2 34z" />
    <glyph glyph-name="B" unicode="B" horiz-adv-x="1177" 
d="M205 -123v1557l123 122h338q152 0 245 -92.5t93 -244.5v-195q0 -151 -95 -246q95 -95 95 -246v-194q0 -153 -93 -246l-123 -123q-92 -92 -245 -92h-338zM369 41h297q134 0 215.5 81.5t81.5 215.5v194q0 166 -119 246q119 80 119 246v195q0 133 -81.5 215t-215.5 82h-297
v-1475zM532 852v516h134q60 0 96.5 -36.5t36.5 -96.5v-250q0 -60 -36.5 -96.5t-96.5 -36.5h-134zM573 893h62v219q0 68 -62 88v-307zM532 188v517h134q60 0 96.5 -37t36.5 -97v-249q0 -60 -36.5 -97t-96.5 -37h-134zM573 229h62v220q0 68 -62 88v-308z" />
    <glyph glyph-name="C" unicode="C" horiz-adv-x="1126" 
d="M522 -154q-152 0 -245 93t-93 245v942q0 154 92 246l123 123q92 92 246 92q152 0 245 -93t93 -245v-184l-123 -123h-246v201q0 68 -61 88v-940q0 -68 61 -88v166l123 123h246v-185q0 -154 -92 -246l-123 -122q-93 -93 -246 -93zM645 10q133 0 215 82t82 215v144h-164
v-160q0 -60 -36.5 -96.5t-96.5 -36.5t-96.5 36.5t-36.5 96.5v975q0 60 36.5 96.5t96.5 36.5t96.5 -36.5t36.5 -96.5v-160h164v143q0 133 -82 215t-215 82t-215 -82t-82 -215v-942q0 -133 82 -215t215 -82z" />
    <glyph glyph-name="D" unicode="D" horiz-adv-x="1187" 
d="M205 -123v1557l123 122h338q152 0 245 -92.5t93 -244.5v-881q0 -153 -93 -246l-123 -123q-92 -92 -245 -92h-338zM369 41h297q134 0 215.5 81.5t81.5 215.5v881q0 133 -81.5 215t-215.5 82h-297v-1475zM532 188v1180h134q60 0 96.5 -36.5t36.5 -96.5v-913
q0 -60 -36.5 -97t-96.5 -37h-134zM573 229h62v883q0 68 -62 88v-971z" />
    <glyph glyph-name="E" unicode="E" horiz-adv-x="1095" 
d="M205 -123v1557l123 122h635v-229l-123 -123h-267v-311h308v-229l-123 -123h-185v-312h390v-229l-123 -123h-635zM369 41h553v147h-390v517h308v147h-308v516h390v148h-553v-1475z" />
    <glyph glyph-name="F" unicode="F" horiz-adv-x="1085" 
d="M205 -123v1557l123 122h635v-229l-123 -123h-267v-311h308v-229l-123 -123h-185v-541l-122 -123h-246zM369 41h163v664h308v147h-308v516h390v148h-553v-1475z" />
    <glyph glyph-name="G" unicode="G" horiz-adv-x="1167" 
d="M522 -154q-152 0 -245 93t-93 245v942q0 154 92 246l123 123q92 92 246 92q152 0 245 -93t93 -245v-184l-123 -123h-246v201q0 68 -61 88v-514l82 82h348v-492q0 -154 -92 -246l-123 -122q-93 -93 -246 -93zM645 10q133 0 215 82t82 215v451h-266v-148h102v-319
q0 -60 -36.5 -96.5t-96.5 -36.5t-96.5 36.5t-36.5 96.5v975q0 60 36.5 96.5t96.5 36.5t96.5 -36.5t36.5 -96.5v-160h164v143q0 133 -82 215t-215 82t-215 -82t-82 -215v-942q0 -133 82 -215t215 -82zM614 203v243h-61v-155q0 -68 61 -88z" />
    <glyph glyph-name="H" unicode="H" horiz-adv-x="1208" 
d="M205 -123v1557l123 122h245v-663h62v541l123 122h246v-1556l-123 -123h-246v664h-62v-541l-122 -123h-246zM369 41h163v664h267v-664h164v1475h-164v-664h-267v664h-163v-1475z" />
    <glyph glyph-name="I" unicode="I" horiz-adv-x="778" 
d="M205 -123v1557l123 122h245v-1556l-122 -123h-246zM369 41h163v1475h-163v-1475z" />
    <glyph glyph-name="J" unicode="J" horiz-adv-x="1105" 
d="M911 1556v-1249q0 -154 -92 -246l-123 -122q-93 -93 -245 -93t-245 93t-93 245v185l123 123h245v-201q0 -68 62 -88v1231l123 122h245zM573 10q133 0 215 82t82 215v1209h-163v-1225q0 -60 -37 -96.5t-97 -36.5t-96.5 36.5t-36.5 96.5v160h-164v-144q0 -133 82 -215
t215 -82z" />
    <glyph glyph-name="K" unicode="K" horiz-adv-x="1130" 
d="M205 -123v1557l123 122h245v-317l89 195l122 122h271l-273 -600l287 -956l-123 -123h-258l-115 387v-264l-122 -123h-246zM369 41h163v461l105 229l205 -690h172l-275 917l252 558h-180l-279 -617v617h-163v-1475z" />
    <glyph glyph-name="L" unicode="L" horiz-adv-x="1003" 
d="M205 -123v1557l123 122h245v-1327h349v-229l-123 -123h-594zM369 41h512v147h-349v1328h-163v-1475z" />
    <glyph glyph-name="M" unicode="M" horiz-adv-x="1388" 
d="M205 -123v1557l123 122h202l187 -526l141 404l123 122h203v-1556l-123 -123h-246v531l-27 -76l-122 -123h-66l-27 76v-285l-122 -123h-246zM369 41h163v944l218 -612h12l217 612v-944h164v1475h-133l-254 -713l-254 713h-133v-1475z" />
    <glyph glyph-name="N" unicode="N" horiz-adv-x="1249" 
d="M205 -123v1557l123 122h202l146 -413v291l123 122h245v-1556l-122 -123h-205l-144 408v-285l-122 -123h-246zM369 41h163v944l336 -944h136v1475h-164v-949l-338 949h-133v-1475z" />
    <glyph glyph-name="O" unicode="O" horiz-adv-x="1167" 
d="M522 -154q-152 0 -245 93t-93 245v942q0 154 92 246l123 123q92 92 246 92q152 0 245 -93t93 -245v-942q0 -154 -92 -246l-123 -122q-93 -93 -246 -93zM645 10q133 0 215 82t82 215v942q0 133 -82 215t-215 82t-215 -82t-82 -215v-942q0 -133 82 -215t215 -82zM645 158
q-60 0 -96.5 36.5t-36.5 96.5v975q0 60 36.5 96.5t96.5 36.5t96.5 -36.5t36.5 -96.5v-975q0 -60 -36.5 -96.5t-96.5 -36.5zM614 203v940q0 68 -61 88v-940q0 -68 61 -88z" />
    <glyph glyph-name="P" unicode="P" 
d="M205 -123v1557l123 122h338q152 0 245 -92.5t93 -244.5v-308q0 -152 -93 -245l-123 -123q-81 -81 -215 -90v-453l-122 -123h-246zM369 41h163v573h134q134 0 215.5 82t81.5 215v308q0 133 -81.5 215t-215.5 82h-297v-1475zM532 762v606h134q60 0 96.5 -36.5t36.5 -96.5
v-340q0 -60 -36.5 -96.5t-96.5 -36.5h-134zM573 803h62v309q0 68 -62 88v-397z" />
    <glyph glyph-name="Q" unicode="Q" horiz-adv-x="1173" 
d="M645 -348l-94 194h-29q-152 0 -245 93t-93 245v942q0 154 92 246l123 123q92 92 246 92q152 0 245 -93t93 -245v-942q0 -145 -86 -237l92 -187l-123 -123zM786 -170l148 72l-86 178q94 81 94 227v942q0 133 -82 215t-215 82t-215 -82t-82 -215v-942q0 -133 82 -215
t215 -82q19 0 51 4zM645 158q-60 0 -96.5 36.5t-36.5 96.5v975q0 60 36.5 96.5t96.5 36.5t96.5 -36.5t36.5 -96.5v-975q0 -60 -36.5 -96.5t-96.5 -36.5zM614 203v940q0 68 -61 88v-940q0 -68 61 -88z" />
    <glyph glyph-name="R" unicode="R" horiz-adv-x="1198" 
d="M854 623l190 -623l-122 -123h-256l-93 299v-176l-122 -123h-246v1557l123 122h338q152 0 245 -92.5t93 -244.5v-308q0 -97 -39.5 -171.5t-110.5 -116.5zM817 41h172l-184 602q74 34 116 104t42 164v308q0 133 -81.5 215t-215.5 82h-297v-1475h163v573h111zM666 1368
q60 0 96.5 -36.5t36.5 -96.5v-340q0 -60 -36.5 -96.5t-96.5 -36.5h-134v606h134zM635 803v309q0 68 -62 88v-397h62z" />
    <glyph glyph-name="S" unicode="S" 
d="M973 1065l-123 -123h-205q24 -25 67.5 -65.5t74.5 -69.5t68.5 -73t61.5 -85.5t40 -99t16 -119.5v-123q0 -154 -92 -246l-123 -122q-93 -93 -246 -93q-152 0 -245 93t-93 245v185l123 123h205q-24 25 -67.5 65.5t-74.5 69.5t-68.5 73t-61.5 85.5t-40 99t-16 119.5v122
q0 154 92 246l123 123q92 92 246 92q152 0 245 -93t93 -245v-184zM635 1399q60 0 96.5 -36.5t36.5 -96.5v-160h164v143q0 133 -82 215t-215 82t-215 -82t-82 -215v-121q0 -73 23.5 -138t61.5 -113.5t84 -93t92 -86t84 -83.5t61.5 -94t23.5 -110v-119q0 -60 -36.5 -96.5
t-96.5 -36.5t-96.5 36.5t-36.5 96.5v160h-164v-144q0 -133 82 -215t215 -82t215 82t82 215v121q0 73 -23.5 138t-61.5 113.5t-84 93t-92 86.5t-84 84t-61.5 94t-23.5 110v119q0 60 36.5 96.5t96.5 36.5zM604 1143q0 68 -61 88v-84q0 -83 61 -160v156zM543 291q0 -68 61 -88
v84q0 82 -61 159v-155z" />
    <glyph glyph-name="T" unicode="T" horiz-adv-x="1105" 
d="M369 -123v1327h-277v230l123 122h799v-229l-123 -123h-154v-1204l-123 -123h-245zM532 41h164v1327h277v148h-717v-148h276v-1327z" />
    <glyph glyph-name="U" unicode="U" horiz-adv-x="1187" 
d="M532 -154q-152 0 -244.5 93t-92.5 245v1250l122 122h246v-1265q0 -68 62 -88v1231l123 122h245v-1249q0 -154 -92 -246l-123 -122q-93 -93 -246 -93zM655 10q133 0 215 82t82 215v1209h-164v-1225q0 -60 -36.5 -96.5t-96.5 -36.5t-96.5 36.5t-36.5 96.5v1225h-164v-1209
q0 -133 82 -215t215 -82z" />
    <glyph glyph-name="V" unicode="V" horiz-adv-x="1069" 
d="M299 -123l-217 1557l123 122h248l90 -731l73 609l123 122h248l-217 -1556l-123 -123h-348zM459 41h274l207 1475h-164l-170 -1311h-20l-170 1311h-164z" />
    <glyph glyph-name="W" unicode="W" horiz-adv-x="1519" 
d="M1262 0l176 1556h-246l-123 -122l-41 -463l-84 585h-246l-123 -122l-67 -484l-55 606h-248l-123 -122l176 -1557h328l123 123l43 348l59 -471h328zM672 41h-254l-166 1475h164l129 -1311l190 1311h172l191 -1311l129 1311h164l-164 -1475h-256l-150 1145z" />
    <glyph glyph-name="X" unicode="X" horiz-adv-x="1130" 
d="M61 -123l312 819l-281 738l123 122h262l111 -294l65 172l123 122h262l-280 -737l311 -819l-123 -123h-262l-141 375l-97 -252l-122 -123h-263zM244 41h174l209 549l209 -549h174l-295 778l264 697h-174l-178 -469l-178 469h-175l265 -697z" />
    <glyph glyph-name="Y" unicode="Y" horiz-adv-x="1089" 
d="M360 -123v707l-309 850l123 122h262l131 -360l86 238l123 122h262l-309 -849v-707l-123 -123h-246zM524 41h164v674l291 801h-174l-199 -547l-198 547h-175l291 -801v-674z" />
    <glyph glyph-name="Z" unicode="Z" horiz-adv-x="1105" 
d="M143 -123v143l408 1184h-387v230l123 122h676v-143l-408 -1184h387v-229l-123 -123h-676zM307 41h594v147h-403l424 1231v97h-594v-148h403l-424 -1231v-96z" />
    <glyph glyph-name="bracketleft" unicode="[" horiz-adv-x="860" 
d="M205 -287v1884l123 123h409v-229l-123 -123h-41v-1302h164v-230l-123 -123h-409zM369 -123h327v148h-164v1507h164v147h-327v-1802z" />
    <glyph glyph-name="backslash" unicode="\" horiz-adv-x="897" 
d="M469 -123l-418 1557l123 122h254l418 -1556l-123 -123h-254zM623 41h170l-396 1475h-170z" />
    <glyph glyph-name="bracketright" unicode="]" horiz-adv-x="860" 
d="M123 -287v230l123 123h41v1302h-164v229l123 123h409v-1884l-123 -123h-409zM287 -123h327v1802h-327v-147h164v-1507h-164v-148z" />
    <glyph glyph-name="asciicircum" unicode="^" horiz-adv-x="1130" 
d="M82 778l319 656l123 122h205l320 -655l-123 -123h-273l-118 238l-56 -115l-123 -123h-274zM270 942h183l174 356l174 -356h182l-278 574h-154z" />
    <glyph glyph-name="underscore" unicode="_" horiz-adv-x="1024" 
d="M41 -360v229l123 123h819v-230l-123 -122h-819zM205 -197h737v148h-737v-148z" />
    <glyph glyph-name="grave" unicode="`" horiz-adv-x="804" 
d="M330 1178l-166 256l123 122h239l115 -256l-123 -122h-188zM475 1341h105l-78 175h-140z" />
    <glyph glyph-name="a" unicode="a" horiz-adv-x="1069" 
d="M82 -123l217 1557l123 122h348l217 -1556l-123 -123h-248l-41 350h-96l-26 -227l-123 -123h-248zM252 41h164l45 350h270l45 -350h164l-207 1475h-274zM479 539l107 829h20l107 -829h-234zM522 580h6l-2 34z" />
    <glyph glyph-name="b" unicode="b" horiz-adv-x="1177" 
d="M205 -123v1557l123 122h338q152 0 245 -92.5t93 -244.5v-195q0 -151 -95 -246q95 -95 95 -246v-194q0 -153 -93 -246l-123 -123q-92 -92 -245 -92h-338zM369 41h297q134 0 215.5 81.5t81.5 215.5v194q0 166 -119 246q119 80 119 246v195q0 133 -81.5 215t-215.5 82h-297
v-1475zM532 852v516h134q60 0 96.5 -36.5t36.5 -96.5v-250q0 -60 -36.5 -96.5t-96.5 -36.5h-134zM573 893h62v219q0 68 -62 88v-307zM532 188v517h134q60 0 96.5 -37t36.5 -97v-249q0 -60 -36.5 -97t-96.5 -37h-134zM573 229h62v220q0 68 -62 88v-308z" />
    <glyph glyph-name="c" unicode="c" horiz-adv-x="1126" 
d="M522 -154q-152 0 -245 93t-93 245v942q0 154 92 246l123 123q92 92 246 92q152 0 245 -93t93 -245v-184l-123 -123h-246v201q0 68 -61 88v-940q0 -68 61 -88v166l123 123h246v-185q0 -154 -92 -246l-123 -122q-93 -93 -246 -93zM645 10q133 0 215 82t82 215v144h-164
v-160q0 -60 -36.5 -96.5t-96.5 -36.5t-96.5 36.5t-36.5 96.5v975q0 60 36.5 96.5t96.5 36.5t96.5 -36.5t36.5 -96.5v-160h164v143q0 133 -82 215t-215 82t-215 -82t-82 -215v-942q0 -133 82 -215t215 -82z" />
    <glyph glyph-name="d" unicode="d" horiz-adv-x="1187" 
d="M205 -123v1557l123 122h338q152 0 245 -92.5t93 -244.5v-881q0 -153 -93 -246l-123 -123q-92 -92 -245 -92h-338zM369 41h297q134 0 215.5 81.5t81.5 215.5v881q0 133 -81.5 215t-215.5 82h-297v-1475zM532 188v1180h134q60 0 96.5 -36.5t36.5 -96.5v-913
q0 -60 -36.5 -97t-96.5 -37h-134zM573 229h62v883q0 68 -62 88v-971z" />
    <glyph glyph-name="e" unicode="e" horiz-adv-x="1095" 
d="M205 -123v1557l123 122h635v-229l-123 -123h-267v-311h308v-229l-123 -123h-185v-312h390v-229l-123 -123h-635zM369 41h553v147h-390v517h308v147h-308v516h390v148h-553v-1475z" />
    <glyph glyph-name="f" unicode="f" horiz-adv-x="1085" 
d="M205 -123v1557l123 122h635v-229l-123 -123h-267v-311h308v-229l-123 -123h-185v-541l-122 -123h-246zM369 41h163v664h308v147h-308v516h390v148h-553v-1475z" />
    <glyph glyph-name="g" unicode="g" horiz-adv-x="1167" 
d="M522 -154q-152 0 -245 93t-93 245v942q0 154 92 246l123 123q92 92 246 92q152 0 245 -93t93 -245v-184l-123 -123h-246v201q0 68 -61 88v-514l82 82h348v-492q0 -154 -92 -246l-123 -122q-93 -93 -246 -93zM645 10q133 0 215 82t82 215v451h-266v-148h102v-319
q0 -60 -36.5 -96.5t-96.5 -36.5t-96.5 36.5t-36.5 96.5v975q0 60 36.5 96.5t96.5 36.5t96.5 -36.5t36.5 -96.5v-160h164v143q0 133 -82 215t-215 82t-215 -82t-82 -215v-942q0 -133 82 -215t215 -82zM614 203v243h-61v-155q0 -68 61 -88z" />
    <glyph glyph-name="h" unicode="h" horiz-adv-x="1208" 
d="M205 -123v1557l123 122h245v-663h62v541l123 122h246v-1556l-123 -123h-246v664h-62v-541l-122 -123h-246zM369 41h163v664h267v-664h164v1475h-164v-664h-267v664h-163v-1475z" />
    <glyph glyph-name="i" unicode="i" horiz-adv-x="778" 
d="M205 -123v1557l123 122h245v-1556l-122 -123h-246zM369 41h163v1475h-163v-1475z" />
    <glyph glyph-name="j" unicode="j" horiz-adv-x="1105" 
d="M911 1556v-1249q0 -154 -92 -246l-123 -122q-93 -93 -245 -93t-245 93t-93 245v185l123 123h245v-201q0 -68 62 -88v1231l123 122h245zM573 10q133 0 215 82t82 215v1209h-163v-1225q0 -60 -37 -96.5t-97 -36.5t-96.5 36.5t-36.5 96.5v160h-164v-144q0 -133 82 -215
t215 -82z" />
    <glyph glyph-name="k" unicode="k" horiz-adv-x="1130" 
d="M205 -123v1557l123 122h245v-317l89 195l122 122h271l-273 -600l287 -956l-123 -123h-258l-115 387v-264l-122 -123h-246zM369 41h163v461l105 229l205 -690h172l-275 917l252 558h-180l-279 -617v617h-163v-1475z" />
    <glyph glyph-name="l" unicode="l" horiz-adv-x="1003" 
d="M205 -123v1557l123 122h245v-1327h349v-229l-123 -123h-594zM369 41h512v147h-349v1328h-163v-1475z" />
    <glyph glyph-name="m" unicode="m" horiz-adv-x="1388" 
d="M205 -123v1557l123 122h202l187 -526l141 404l123 122h203v-1556l-123 -123h-246v531l-27 -76l-122 -123h-66l-27 76v-285l-122 -123h-246zM369 41h163v944l218 -612h12l217 612v-944h164v1475h-133l-254 -713l-254 713h-133v-1475z" />
    <glyph glyph-name="n" unicode="n" horiz-adv-x="1249" 
d="M205 -123v1557l123 122h202l146 -413v291l123 122h245v-1556l-122 -123h-205l-144 408v-285l-122 -123h-246zM369 41h163v944l336 -944h136v1475h-164v-949l-338 949h-133v-1475z" />
    <glyph glyph-name="o" unicode="o" horiz-adv-x="1167" 
d="M522 -154q-152 0 -245 93t-93 245v942q0 154 92 246l123 123q92 92 246 92q152 0 245 -93t93 -245v-942q0 -154 -92 -246l-123 -122q-93 -93 -246 -93zM645 10q133 0 215 82t82 215v942q0 133 -82 215t-215 82t-215 -82t-82 -215v-942q0 -133 82 -215t215 -82zM645 158
q-60 0 -96.5 36.5t-36.5 96.5v975q0 60 36.5 96.5t96.5 36.5t96.5 -36.5t36.5 -96.5v-975q0 -60 -36.5 -96.5t-96.5 -36.5zM614 203v940q0 68 -61 88v-940q0 -68 61 -88z" />
    <glyph glyph-name="p" unicode="p" 
d="M205 -123v1557l123 122h338q152 0 245 -92.5t93 -244.5v-308q0 -152 -93 -245l-123 -123q-81 -81 -215 -90v-453l-122 -123h-246zM369 41h163v573h134q134 0 215.5 82t81.5 215v308q0 133 -81.5 215t-215.5 82h-297v-1475zM532 762v606h134q60 0 96.5 -36.5t36.5 -96.5
v-340q0 -60 -36.5 -96.5t-96.5 -36.5h-134zM573 803h62v309q0 68 -62 88v-397z" />
    <glyph glyph-name="q" unicode="q" horiz-adv-x="1173" 
d="M645 -348l-94 194h-29q-152 0 -245 93t-93 245v942q0 154 92 246l123 123q92 92 246 92q152 0 245 -93t93 -245v-942q0 -145 -86 -237l92 -187l-123 -123zM786 -170l148 72l-86 178q94 81 94 227v942q0 133 -82 215t-215 82t-215 -82t-82 -215v-942q0 -133 82 -215
t215 -82q19 0 51 4zM645 158q-60 0 -96.5 36.5t-36.5 96.5v975q0 60 36.5 96.5t96.5 36.5t96.5 -36.5t36.5 -96.5v-975q0 -60 -36.5 -96.5t-96.5 -36.5zM614 203v940q0 68 -61 88v-940q0 -68 61 -88z" />
    <glyph glyph-name="r" unicode="r" horiz-adv-x="1198" 
d="M854 623l190 -623l-122 -123h-256l-93 299v-176l-122 -123h-246v1557l123 122h338q152 0 245 -92.5t93 -244.5v-308q0 -97 -39.5 -171.5t-110.5 -116.5zM817 41h172l-184 602q74 34 116 104t42 164v308q0 133 -81.5 215t-215.5 82h-297v-1475h163v573h111zM666 1368
q60 0 96.5 -36.5t36.5 -96.5v-340q0 -60 -36.5 -96.5t-96.5 -36.5h-134v606h134zM635 803v309q0 68 -62 88v-397h62z" />
    <glyph glyph-name="s" unicode="s" 
d="M973 1065l-123 -123h-205q24 -25 67.5 -65.5t74.5 -69.5t68.5 -73t61.5 -85.5t40 -99t16 -119.5v-123q0 -154 -92 -246l-123 -122q-93 -93 -246 -93q-152 0 -245 93t-93 245v185l123 123h205q-24 25 -67.5 65.5t-74.5 69.5t-68.5 73t-61.5 85.5t-40 99t-16 119.5v122
q0 154 92 246l123 123q92 92 246 92q152 0 245 -93t93 -245v-184zM635 1399q60 0 96.5 -36.5t36.5 -96.5v-160h164v143q0 133 -82 215t-215 82t-215 -82t-82 -215v-121q0 -73 23.5 -138t61.5 -113.5t84 -93t92 -86t84 -83.5t61.5 -94t23.5 -110v-119q0 -60 -36.5 -96.5
t-96.5 -36.5t-96.5 36.5t-36.5 96.5v160h-164v-144q0 -133 82 -215t215 -82t215 82t82 215v121q0 73 -23.5 138t-61.5 113.5t-84 93t-92 86.5t-84 84t-61.5 94t-23.5 110v119q0 60 36.5 96.5t96.5 36.5zM604 1143q0 68 -61 88v-84q0 -83 61 -160v156zM543 291q0 -68 61 -88
v84q0 82 -61 159v-155z" />
    <glyph glyph-name="t" unicode="t" horiz-adv-x="1105" 
d="M369 -123v1327h-277v230l123 122h799v-229l-123 -123h-154v-1204l-123 -123h-245zM532 41h164v1327h277v148h-717v-148h276v-1327z" />
    <glyph glyph-name="u" unicode="u" horiz-adv-x="1187" 
d="M532 -154q-152 0 -244.5 93t-92.5 245v1250l122 122h246v-1265q0 -68 62 -88v1231l123 122h245v-1249q0 -154 -92 -246l-123 -122q-93 -93 -246 -93zM655 10q133 0 215 82t82 215v1209h-164v-1225q0 -60 -36.5 -96.5t-96.5 -36.5t-96.5 36.5t-36.5 96.5v1225h-164v-1209
q0 -133 82 -215t215 -82z" />
    <glyph glyph-name="v" unicode="v" horiz-adv-x="1069" 
d="M299 -123l-217 1557l123 122h248l90 -731l73 609l123 122h248l-217 -1556l-123 -123h-348zM459 41h274l207 1475h-164l-170 -1311h-20l-170 1311h-164z" />
    <glyph glyph-name="w" unicode="w" horiz-adv-x="1519" 
d="M1262 0l176 1556h-246l-123 -122l-41 -463l-84 585h-246l-123 -122l-67 -484l-55 606h-248l-123 -122l176 -1557h328l123 123l43 348l59 -471h328zM672 41h-254l-166 1475h164l129 -1311l190 1311h172l191 -1311l129 1311h164l-164 -1475h-256l-150 1145z" />
    <glyph glyph-name="x" unicode="x" horiz-adv-x="1130" 
d="M61 -123l312 819l-281 738l123 122h262l111 -294l65 172l123 122h262l-280 -737l311 -819l-123 -123h-262l-141 375l-97 -252l-122 -123h-263zM244 41h174l209 549l209 -549h174l-295 778l264 697h-174l-178 -469l-178 469h-175l265 -697z" />
    <glyph glyph-name="y" unicode="y" horiz-adv-x="1089" 
d="M360 -123v707l-309 850l123 122h262l131 -360l86 238l123 122h262l-309 -849v-707l-123 -123h-246zM524 41h164v674l291 801h-174l-199 -547l-198 547h-175l291 -801v-674z" />
    <glyph glyph-name="z" unicode="z" horiz-adv-x="1105" 
d="M143 -123v143l408 1184h-387v230l123 122h676v-143l-408 -1184h387v-229l-123 -123h-676zM307 41h594v147h-403l424 1231v97h-594v-148h403l-424 -1231v-96z" />
    <glyph glyph-name="braceleft" unicode="{" horiz-adv-x="890" 
d="M573 -287q-152 0 -244.5 93t-92.5 245v410q0 41 -26 66.5t-67 25.5h-41v205l123 123h11v379q0 153 92 245l123 123q92 92 245 92h92v-229l-122 -123h-62v-395q0 -115 -53 -195q53 -80 53 -194v-426q0 -41 25.5 -66.5t66.5 -25.5h92v-230l-122 -123h-93zM696 -123h52v148
h-52q-60 0 -96.5 36.5t-36.5 96.5v426q0 119 -63 194q63 78 63 195v426q0 60 36.5 96.5t96.5 36.5h52v147h-52q-134 0 -215.5 -81.5t-81.5 -215.5v-409q0 -60 -36.5 -96.5t-96.5 -36.5v-123q60 0 96.5 -36.5t36.5 -96.5v-410q0 -134 81.5 -215.5t215.5 -81.5z" />
    <glyph glyph-name="bar" unicode="|" horiz-adv-x="778" 
d="M205 -287v1884l123 123h245v-1884l-122 -123h-246zM369 -123h163v1802h-163v-1802z" />
    <glyph glyph-name="braceright" unicode="}" horiz-adv-x="890" 
d="M102 -287v230l123 123h62v395q0 114 53 194q-53 80 -53 195v426q0 41 -25.5 66.5t-66.5 25.5h-93v229l123 123h92q152 0 245 -93t93 -245v-409q0 -41 26 -66.5t67 -25.5h40v-205l-122 -123h-11v-379q0 -154 -92 -246l-123 -123q-92 -92 -245 -92h-93zM266 -123h51
q133 0 215 81.5t82 215.5v410q0 60 37 96.5t97 36.5v123q-60 0 -97 36.5t-37 96.5v409q0 134 -82 215.5t-215 81.5h-51v-147h51q60 0 97 -36.5t37 -96.5v-426q0 -117 63 -195q-63 -75 -63 -194v-426q0 -60 -37 -96.5t-97 -36.5h-51v-148z" />
    <glyph glyph-name="asciitilde" unicode="~" 
d="M721 489q-75 0 -208.5 43t-209.5 43q-108 0 -201 -69v246l123 122q94 70 201 70q75 0 208.5 -43t209.5 -43q109 0 200 70v-246l-122 -123q-91 -70 -201 -70zM844 653q43 0 87 14t73 35v152q-73 -37 -160 -37q-80 0 -215.5 43t-202.5 43q-86 0 -160 -49v-152q73 37 160 37
q82 0 214 -43t204 -43z" />
    <glyph glyph-name="exclamdown" unicode="&#xa1;" horiz-adv-x="786" 
d="M209 1188v246l123 122h246v-245l-123 -123h-246zM373 1352h164v164h-164v-164zM184 -123l37 1065l123 123h221l37 -1065l-123 -123h-295zM350 41h209l-33 983h-143z" />
    <glyph glyph-name="cent" unicode="&#xa2;" horiz-adv-x="1126" 
d="M399 -246v111q-100 32 -157.5 116.5t-57.5 202.5v942q0 154 92 246l123 123v61l123 123h246v-110q100 -32 157.5 -117t57.5 -203v-184l-123 -123h-246v201q0 68 -61 88v-940q0 -68 61 -88v166l123 123h246v-185q0 -154 -92 -246l-123 -120v-64l-123 -123h-246zM563 -82
h164v100q99 25 157 101.5t58 187.5v144h-164v-160q0 -60 -36.5 -96.5t-96.5 -36.5t-96.5 36.5t-36.5 96.5v975q0 60 36.5 96.5t96.5 36.5t96.5 -36.5t36.5 -96.5v-160h164v143q0 111 -58 187.5t-157 101.5v100h-164v-100q-99 -25 -157 -101.5t-58 -187.5v-942
q0 -111 58 -187.5t157 -101.5v-100z" />
    <glyph glyph-name="sterling" unicode="&#xa3;" horiz-adv-x="1167" 
d="M164 -123v229l92 93v342h-92v229l92 92v295q0 139 84 223l123 123q84 84 223 84q138 0 222.5 -84.5t84.5 -222.5v-184l-123 -123h-245v-80h174v-229l-123 -123h-51v-260q0 -20 -4 -52h403v-229l-123 -123h-737zM328 41h655v147h-414q15 44 15 93v424h174v147h-174v444
q0 46 28 74.5t74 28.5t74 -28.5t28 -74.5v-159h164v143q0 120 -73 193t-193 73t-193 -73t-73 -193v-428h-92v-147h92v-424q0 -41 -25.5 -67t-66.5 -26v-147z" />
    <glyph glyph-name="currency" unicode="&#xa4;" horiz-adv-x="1228" 
d="M242 184l-160 160l98 98q-47 92 -47 213q0 122 47 211l-98 101l283 282l98 -100q96 49 213 49q123 0 211 -49l100 100l160 -159l-100 -101q49 -88 49 -211q0 -117 -49 -213l100 -98l-283 -283l-100 99q-89 -47 -211 -47q-121 0 -213 47zM365 365l92 94q91 -60 219 -60
q126 0 217 60l94 -94l100 102l-92 92q60 91 60 219q0 125 -60 219l92 93l-100 100l-92 -92q-92 59 -219 59q-130 0 -219 -59l-92 92l-103 -100l94 -95q-59 -89 -59 -217q0 -130 59 -219l-94 -92zM676 532q-110 0 -178 68t-68 178t68 178t178 68t178 -68t68 -178t-68 -178
t-178 -68zM676 573q30 0 72 11q10 38 10 71q0 92 -56.5 148.5t-148.5 56.5q-34 0 -72 -10q-10 -38 -10 -72q0 -92 56.5 -148.5t148.5 -56.5z" />
    <glyph glyph-name="yen" unicode="&#xa5;" horiz-adv-x="1191" 
d="M412 -123v461h-215v225l82 82h-82v225l82 82l-177 482l123 122h262l131 -360l87 238l122 122h263l-205 -563h110v-225l-82 -82h82v-225l-123 -123h-92v-338l-123 -123h-245zM575 41h164v461h215v143h-215v70l35 94h180v143h-129l205 564h-174l-199 -547l-198 547h-174
l204 -564h-129v-143h181l34 -94v-70h-215v-143h215v-461z" />
    <glyph glyph-name="brokenbar" unicode="&#xa6;" horiz-adv-x="778" 
d="M205 799v798l123 123h245v-798l-122 -123h-246zM369 963h163v716h-163v-716zM205 -287v799l123 123h245v-799l-122 -123h-246zM369 -123h163v717h-163v-717z" />
    <glyph glyph-name="section" unicode="&#xa7;" 
d="M512 -154q-138 0 -227.5 93.5t-89.5 244.5v62l122 123h37q-88 61 -139 136.5t-51 190.5v21q0 150 96 246q-65 78 -65 184v31q0 121 90 204l123 123q92 82 227 82q138 0 227.5 -93.5t89.5 -244.5v-61l-123 -123h-36q88 -61 139 -137t51 -191v-20q0 -150 -96 -246
q65 -78 65 -184v-31q0 -121 -90 -205l-123 -123q-92 -82 -227 -82zM635 10q118 0 197 71.5t79 174.5v29q0 110 -82 192q53 39 83 101t30 139v18q0 69 -23 126.5t-60 96.5t-82 71.5t-90 59.5t-82 53.5t-60 61t-23 74.5q0 56 30.5 88.5t82.5 32.5t82.5 -36.5t30.5 -96.5v-37
h163v20q0 132 -78 214.5t-198 82.5q-118 0 -197.5 -71.5t-79.5 -174.5v-28q0 -111 82 -193q-112 -82 -112 -239v-19q0 -69 23 -126.5t60 -96t82 -71t90 -59.5t82 -54t60 -61t23 -74q0 -56 -30.5 -88.5t-82.5 -32.5t-82.5 36.5t-30.5 96.5v37h-164v-21q0 -132 78.5 -214.5
t198.5 -82.5zM684 588q-47 30 -73 50t-58 51.5t-46.5 68.5t-14.5 82q0 51 26 85.5t68 43.5q47 -30 73 -50t58 -51.5t46.5 -68.5t14.5 -82q0 -51 -26 -85.5t-68 -43.5z" />
    <glyph glyph-name="dieresis" unicode="&#xa8;" horiz-adv-x="1003" 
d="M276 1225q-51 0 -81.5 30.5t-30.5 81.5q0 48 31 82l122 123q31 31 82 31t82 -31t31 -82t-31 -82l-123 -123q-33 -30 -82 -30zM604 1225q-51 0 -81.5 30.5t-30.5 81.5q0 49 30 82l123 123q31 31 82 31t82 -31t31 -82t-31 -82l-123 -123q-33 -30 -82 -30zM399 1389
q32 0 52 19.5t20 51.5t-20 52t-52 20t-51.5 -20t-19.5 -52t19.5 -51.5t51.5 -19.5zM727 1389q32 0 52 19.5t20 51.5t-20 52t-52 20t-52 -20t-20 -52t20 -51.5t52 -19.5z" />
    <glyph glyph-name="copyright" unicode="&#xa9;" horiz-adv-x="931" 
d="M467 963q-141 0 -227 86t-86 227q0 140 86 225.5t227 85.5q139 0 225 -85.5t86 -225.5q0 -141 -85.5 -227t-225.5 -86zM467 1004q122 0 196 74.5t74 197.5q0 122 -74.5 196t-195.5 74q-123 0 -197.5 -74t-74.5 -196q0 -123 74.5 -197.5t197.5 -74.5zM465 1104
q-44 0 -71 26.5t-27 69.5v150q0 44 27 70t71 26t71 -26t27 -70v-41h-71v41q0 26 -27 26t-27 -26v-150q0 -11 7.5 -18.5t19.5 -7.5t19.5 7.5t7.5 18.5v41h71v-41q0 -43 -27 -69.5t-71 -26.5z" />
    <glyph glyph-name="ordfeminine" unicode="&#xaa;" horiz-adv-x="628" 
d="M82 840l84 594l123 122h174l84 -593l-123 -123h-152l-4 34l-35 -34h-151zM242 995h84l14 121h70l14 -121h84l-74 529h-119zM350 1192l25 207l24 -207h-49z" />
    <glyph glyph-name="guillemotleft" unicode="&#xab;" horiz-adv-x="954" 
d="M221 266l-149 389l149 389l123 123h242l-27 -71l72 71h241l-149 -389l149 -389l-122 -123h-242l-12 33l-33 -33h-242zM373 430h153l-133 348l133 348h-153l-135 -348zM659 430h154l-133 348l133 348h-154l-135 -348z" />
    <glyph glyph-name="logicalnot" unicode="&#xac;" 
d="M676 377v164h-574v229l123 123h819v-393l-122 -123h-246zM840 541h164v311h-738v-147h574v-164z" />
    <glyph glyph-name="registered" unicode="&#xae;" horiz-adv-x="931" 
d="M467 963q-141 0 -227 86t-86 227q0 140 86 225.5t227 85.5q139 0 225 -85.5t86 -225.5q0 -141 -85.5 -227t-225.5 -86zM467 1004q122 0 196 74.5t74 197.5q0 122 -74.5 196t-195.5 74q-123 0 -197.5 -74t-74.5 -196q0 -123 74.5 -197.5t197.5 -74.5zM375 1112v326h98
q44 0 71 -27t27 -70v-26q0 -57 -39 -80l46 -123h-78l-35 102h-19v-102h-71zM446 1286h27q12 0 19.5 8.5t7.5 20.5v26q0 11 -7.5 19t-19.5 8h-27v-82z" />
    <glyph glyph-name="macron" unicode="&#xaf;" horiz-adv-x="901" 
d="M164 1241v193l123 122h450v-192l-123 -123h-450zM328 1405h368v111h-368v-111z" />
    <glyph glyph-name="degree" unicode="&#xb0;" horiz-adv-x="1024" 
d="M451 850q-128 0 -218 90t-90 217t90 217l123 123q90 90 217 90q128 0 218 -90t90 -217t-90 -217l-123 -123q-90 -90 -217 -90zM573 1014q110 0 188.5 78t78.5 188t-78.5 188t-188.5 78t-188 -78t-78 -188t78 -188t188 -78zM573 1137q-60 0 -101.5 41.5t-41.5 101.5
t41.5 101.5t101.5 41.5t102 -41.5t42 -101.5t-42 -101.5t-102 -41.5z" />
    <glyph glyph-name="plusminus" unicode="&#xb1;" 
d="M102 213v238l123 122h164v189h-287v237l123 123h164v127l123 123h246v-250h286v-237l-122 -123h-164v-127l-62 -62h348v-237l-122 -123h-820zM553 676h164v250h287v155h-287v250h-164v-250h-287v-155h287v-250zM266 377h738v155h-738v-155z" />
    <glyph glyph-name="acute" unicode="&#xb4;" horiz-adv-x="804" 
d="M164 1178l115 256l122 122h240l-166 -256l-123 -122h-188zM350 1341h103l114 175h-139z" />
    <glyph glyph-name="uni00B5" unicode="&#xb5;" horiz-adv-x="1208" 
d="M205 -246v1147l123 123h245v-610q0 -33 17 -56.5t45 -31.5v575l123 123h246v-594q0 -153 -93 -246l-123 -123q-83 -83 -215 -92v-92l-122 -123h-246zM369 -82h163v242q58 -27 134 -27q134 0 215.5 81.5t81.5 215.5v553h-164v-569q0 -60 -36.5 -96.5t-96.5 -36.5t-97 36.5
t-37 96.5v569h-163v-1065z" />
    <glyph glyph-name="paragraph" unicode="&#xb6;" horiz-adv-x="1351" 
d="M901 1556h246v-1720l-123 -123h-246v92l-92 -92h-246v1045q-152 0 -245 93t-93 245q0 149 93 245l122 123q92 92 246 92h246v-92zM768 -123v1639h-205q-133 0 -215 -82t-82 -215t82 -215t215 -82h41v-1045h164zM1106 -123v1639h-164v-1639h164z" />
    <glyph glyph-name="periodcentered" unicode="&#xb7;" horiz-adv-x="675" 
d="M276 512q-64 0 -103.5 39t-39.5 104q0 66 39 105l123 123q39 39 104 39t104.5 -40t39.5 -104q0 -65 -39 -104l-123 -123q-39 -39 -105 -39zM399 676q46 0 74.5 28t28.5 74t-28.5 74.5t-74.5 28.5t-74 -28.5t-28 -74.5t28 -74t74 -28z" />
    <glyph glyph-name="cedilla" unicode="&#xb8;" horiz-adv-x="724" 
d="M164 -379v193l82 82v73l123 123h192v-252q0 -41 -29 -67l-122 -123q-26 -29 -68 -29h-178zM328 -215h137q23 0 39 16t16 39v211h-110v-155h-82v-111z" />
    <glyph glyph-name="ordmasculine" unicode="&#xba;" horiz-adv-x="624" 
d="M252 827q-66 0 -108 41.5t-42 106.5v321q0 63 41 107l123 123q41 41 109 41q64 0 105.5 -41.5t41.5 -106.5v-321q0 -66 -41 -107l-123 -123q-41 -41 -106 -41zM375 983q51 0 82.5 31.5t31.5 83.5v321q0 51 -31.5 83t-82.5 32q-52 0 -84.5 -32t-32.5 -83v-321
q0 -52 32 -83.5t85 -31.5zM375 1063q-15 0 -24 8.5t-9 22.5v329q0 14 9 22.5t24 8.5q13 0 22 -9t9 -22v-329q0 -14 -9 -22.5t-22 -8.5z" />
    <glyph glyph-name="guillemotright" unicode="&#xbb;" horiz-adv-x="954" 
d="M82 266l149 389l-149 389l123 123h244l12 -32l31 32h241l150 -389l-150 -389l-123 -123h-241l28 72l-71 -72h-244zM264 430h156l133 348l-133 348h-156l133 -348zM551 430h156l133 348l-133 348h-156l133 -348z" />
    <glyph glyph-name="onequarter" unicode="&#xbc;" horiz-adv-x="856" 
d="M322 -123v117h-152v104l186 375l109 109h-352v147l123 123h59v436h-84l53 146l123 122h180v-595l-108 -109h284v-147l-122 -123h-27v-322h49v-143l-49 -49v-68l-123 -123h-149zM451 993h84v531h-123l-31 -80h70v-451zM268 737h443v82h-443v-82zM477 33h84v117h49v77h-49
v336h-61l-174 -354v-59h151v-117zM428 227l49 103v-103h-49z" />
    <glyph glyph-name="onehalf" unicode="&#xbd;" horiz-adv-x="856" 
d="M219 -123v76q0 61 26.5 115t62 101.5t44.5 70.5h-133v96q0 65 41 106l123 123q8 8 20 17h-290v147l123 123h59v436h-84l53 146l123 122h180v-595l-108 -109h284v-147l-122 -123h-43q61 -45 61 -123v-43q0 -43 -15 -87t-32.5 -71.5t-42.5 -63t-33 -49.5h123v-145
l-123 -123h-297zM451 993h84v531h-123l-31 -80h70v-451zM268 737h443v82h-443v-82zM375 33h231v80h-139q11 40 47 89t64 101t28 113v43q0 51 -32.5 82.5t-84.5 31.5q-51 0 -82.5 -31.5t-31.5 -82.5v-64h84v68q0 14 8.5 22.5t21.5 8.5q15 0 24 -8.5t9 -22.5v-39
q0 -45 -23 -89t-50.5 -75.5t-50.5 -80.5t-23 -103v-43z" />
    <glyph glyph-name="threequarters" unicode="&#xbe;" horiz-adv-x="856" 
d="M322 -123v117h-152v104l186 375l109 109h-352v147l123 123h43q-60 44 -60 123v96l76 76v53h-76v96q0 63 41 107l123 123q41 41 106 41t106.5 -41.5t41.5 -106.5v-78q0 -43 -23 -84q23 -38 23 -81v-78q0 -66 -41 -107l-123 -123q-12 -12 -20 -16h290v-147l-122 -123h-27
v-322h49v-143l-49 -49v-68l-123 -123h-149zM489 983q51 0 83 31.5t32 83.5v78q0 48 -33 81q33 33 33 84v78q0 51 -32 83t-83 32q-52 0 -83 -32t-31 -83v-63h82v67q0 13 9 22t23 9q13 0 22 -9t9 -22v-94q0 -13 -9 -22t-22 -9h-38v-79h38q13 0 22 -8.5t9 -22.5v-94
q0 -14 -9 -22.5t-22 -8.5q-14 0 -23 9t-9 22v67h-82v-63q0 -53 31 -84t83 -31zM268 737h443v82h-443v-82zM477 33h84v117h49v77h-49v336h-61l-174 -354v-59h151v-117zM428 227l49 103v-103h-49z" />
    <glyph glyph-name="questiondown" unicode="&#xbf;" horiz-adv-x="1085" 
d="M358 1188v246l123 122h246v-245l-123 -123h-246zM522 1352h164v164h-164v-164zM481 -154q-152 0 -245 93t-93 245v256q0 153 93 246l122 121v135l123 123h246v-393l-123 -123h-92v-258q0 -68 61 -88v166l123 123h246v-185q0 -154 -92 -246l-123 -122q-93 -93 -246 -93z
M604 10q134 0 215.5 82t81.5 215v144h-164v-160q0 -60 -36.5 -96.5t-96.5 -36.5t-96.5 36.5t-36.5 96.5v289q0 60 36.5 96.5t96.5 36.5h82v311h-164v-172q-99 -25 -157 -101.5t-58 -187.5v-256q0 -133 81.5 -215t215.5 -82z" />
    <glyph glyph-name="Agrave" unicode="&#xc0;" horiz-adv-x="1069" 
d="M82 -123l217 1557l109 108l-136 209l123 123h242l113 -256l-62 -62h82l217 -1556l-123 -123h-248l-41 350h-96l-26 -227l-123 -123h-248zM584 1659h104l-78 174h-139zM252 41h164l45 350h270l45 -350h164l-207 1475h-274zM479 539l107 829h20l107 -829h-234zM522 580h6
l-2 34z" />
    <glyph glyph-name="Aacute" unicode="&#xc1;" horiz-adv-x="1069" 
d="M82 -123l219 1557l61 61h-30l114 256l123 123h242l-166 -256l-61 -62h186l217 -1556l-123 -123h-246l-43 350h-96l-26 -227l-123 -123h-248zM518 1659h105l112 174h-139zM252 41h164l45 350h272l43 -350h164l-205 1475h-276zM477 539l109 829h22l107 -829h-238zM520 580
h6l-2 34z" />
    <glyph glyph-name="Acircumflex" unicode="&#xc2;" horiz-adv-x="1069" 
d="M82 -123l217 1557l61 61h-120l131 256l123 123h204l131 -256l-61 -62h2l217 -1556l-123 -123h-248l-41 350h-96l-26 -227l-123 -123h-248zM430 1659h92l76 102l72 -102h92l-94 174h-144zM252 41h164l45 350h270l45 -350h164l-207 1475h-274zM479 539l107 829h20l107 -829
h-234zM522 580h6l-2 34z" />
    <glyph glyph-name="Atilde" unicode="&#xc3;" horiz-adv-x="1069" 
d="M82 -123l217 1557l111 110q-32 4 -54 4q-66 0 -129 -45v176l123 123q62 51 129 51q45 0 123.5 -24.5t110.5 -24.5q66 0 129 45v-174l-119 -119h47l217 -1556l-123 -123h-248l-41 350h-96l-26 -227l-123 -123h-248zM713 1665q45 0 88 29v90q-41 -21 -88 -21
q-45 0 -120.5 24.5t-113.5 24.5q-46 0 -88 -28v-92q39 20 88 20q46 0 120 -23.5t114 -23.5zM252 41h164l45 350h270l45 -350h164l-207 1475h-274zM479 539l107 829h20l107 -829h-234zM522 580h6l-2 34z" />
    <glyph glyph-name="Adieresis" unicode="&#xc4;" horiz-adv-x="1069" 
d="M82 -123l217 1557l123 122h121q-19 28 -19 68q0 49 31 80l123 123q33 33 82 33q51 0 81.5 -31t30.5 -82q0 -55 -30 -82l-109 -109h37l217 -1556l-123 -123h-248l-41 350h-96l-26 -227l-123 -123h-248zM309 1511q-51 0 -81.5 31t-30.5 82q0 50 30 80l123 123q33 33 82 33
q51 0 82 -31t31 -82q0 -54 -31 -82l-123 -123q-31 -31 -82 -31zM432 1675q33 0 52.5 19.5t19.5 52.5q0 32 -20 52t-52 20t-52 -20t-20 -52t20 -52t52 -20zM760 1675q32 0 51.5 19.5t19.5 52.5q0 32 -19.5 52t-51.5 20t-52 -20t-20 -52t20 -52t52 -20zM252 41h164l45 350h270
l45 -350h164l-207 1475h-274zM479 539l107 829h20l107 -829h-234zM522 580h6l-2 34z" />
    <glyph glyph-name="Aring" unicode="&#xc5;" horiz-adv-x="1069" 
d="M82 -123l217 1557l86 86q-66 43 -66 131q0 67 43 110l123 123q43 43 111 43q69 0 111.5 -42t42.5 -111q0 -73 -43 -113l-105 -105h168l217 -1556l-123 -123h-248l-41 350h-96l-26 -227l-123 -123h-248zM596 1651q56 0 89.5 33t33.5 90q0 55 -33.5 88.5t-89.5 33.5
t-89.5 -33.5t-33.5 -88.5q0 -56 33.5 -89.5t89.5 -33.5zM596 1720q-23 0 -37 14.5t-14 37.5t14 37t37 14q24 0 37.5 -13.5t13.5 -37.5q0 -23 -14 -37.5t-37 -14.5zM252 41h164l45 350h270l45 -350h164l-207 1475h-274zM479 539l107 829h20l107 -829h-234zM522 580h6l-2 34z
" />
    <glyph glyph-name="AE" unicode="&#xc6;" horiz-adv-x="1488" 
d="M82 -123l217 1557l123 122h913v-229l-123 -123h-266v-311h307v-229l-123 -123h-184v-312h389v-229l-123 -123h-634v350h-99l-26 -227l-123 -123h-248zM252 41h164l45 350h280v-350h553v147h-389v517h307v147h-307v516h389v148h-835zM481 539l105 829h155v-829h-260z
M524 580h54v462z" />
    <glyph glyph-name="Ccedilla" unicode="&#xc7;" horiz-adv-x="1126" 
d="M375 -379v193l45 45q-110 29 -173 115t-63 210v942q0 154 92 246l123 123q92 92 246 92q152 0 245 -93t93 -245v-184l-123 -123h-246v201q0 68 -61 88v-940q0 -68 61 -88v166l123 123h246v-185q0 -154 -92 -246l-119 -116v-105q0 -41 -29 -67l-122 -123q-26 -29 -68 -29
h-178zM539 -215h137q23 0 39 16t16 39v180q97 25 154 101.5t57 185.5v144h-164v-160q0 -60 -36.5 -96.5t-96.5 -36.5t-96.5 36.5t-36.5 96.5v975q0 60 36.5 96.5t96.5 36.5t96.5 -36.5t36.5 -96.5v-160h164v143q0 133 -82 215t-215 82t-215 -82t-82 -215v-942
q0 -127 75 -208t198 -89v-114h-82v-111z" />
    <glyph glyph-name="Egrave" unicode="&#xc8;" horiz-adv-x="1095" 
d="M205 -123v1557l123 122h88l-127 195l123 123h241l115 -256l-61 -62h256v-229l-123 -123h-267v-311h308v-229l-123 -123h-185v-312h390v-229l-123 -123h-635zM600 1659h105l-78 174h-140zM369 41h553v147h-390v517h308v147h-308v516h390v148h-553v-1475z" />
    <glyph glyph-name="Eacute" unicode="&#xc9;" horiz-adv-x="1095" 
d="M205 -123v1557l123 122h80l86 195l122 123h242l-168 -256l-61 -62h334v-229l-123 -123h-267v-311h308v-229l-123 -123h-185v-312h390v-229l-123 -123h-635zM565 1659h105l112 174h-139zM369 41h553v147h-390v517h308v147h-308v516h390v148h-553v-1475z" />
    <glyph glyph-name="Ecircumflex" unicode="&#xca;" horiz-adv-x="1095" 
d="M205 -123v1557l108 108l107 209l123 123h205l131 -256l-62 -62h146v-229l-123 -123h-267v-311h308v-229l-123 -123h-185v-312h390v-229l-123 -123h-635zM479 1659h92l76 102l72 -102h92l-94 174h-144zM369 41h553v147h-390v517h308v147h-308v516h390v148h-553v-1475z" />
    <glyph glyph-name="Edieresis" unicode="&#xcb;" horiz-adv-x="1095" 
d="M205 -123v1557l92 92q-51 28 -51 98q0 50 30 80l123 123q33 33 82 33q51 0 82 -31t31 -82q0 -54 -31 -82l-108 -109h137q-19 28 -19 68q0 49 31 80l123 123q33 33 82 33q51 0 82 -31t31 -82q0 -54 -31 -82l-109 -109h181v-229l-123 -123h-267v-311h308v-229l-123 -123
h-185v-312h390v-229l-123 -123h-635zM481 1675q33 0 52.5 19.5t19.5 52.5q0 32 -20 52t-52 20t-51.5 -20t-19.5 -52t19.5 -52t51.5 -20zM809 1675q33 0 52.5 19.5t19.5 52.5q0 32 -20 52t-52 20t-52 -20t-20 -52t20 -52t52 -20zM369 41h553v147h-390v517h308v147h-308v516
h390v148h-553v-1475z" />
    <glyph glyph-name="Igrave" unicode="&#xcc;" horiz-adv-x="778" 
d="M205 -123v1557l71 73l-157 244l123 123h239l115 -256l-61 -62h38v-1556l-122 -123h-246zM430 1659h105l-78 174h-140zM369 41h163v1475h-163v-1475z" />
    <glyph glyph-name="Iacute" unicode="&#xcd;" horiz-adv-x="778" 
d="M205 -123v1557l61 61h-76l115 256l123 123h242l-166 -256l-62 -62h131v-1556l-122 -123h-246zM377 1659h104l113 174h-139zM369 41h163v1475h-163v-1475z" />
    <glyph glyph-name="Icircumflex" unicode="&#xce;" horiz-adv-x="778" 
d="M205 -123v1557l61 61h-172l131 256l123 123h203l131 -256l-109 -111v-1507l-122 -123h-246zM285 1659h90l76 102l73 -102h90l-94 174h-141zM369 41h163v1475h-163v-1475z" />
    <glyph glyph-name="Idieresis" unicode="&#xcf;" horiz-adv-x="778" 
d="M164 1511q-51 0 -82 31t-31 82q0 49 31 80l121 123q33 33 84 33t81.5 -31t30.5 -82q0 -55 -30 -82l-123 -123q-31 -31 -82 -31zM205 -123v1557l123 122h69q-18 27 -18 68q0 49 31 80l120 123q33 33 84 33t82 -31t31 -82q0 -54 -31 -82l-123 -123v-1542l-122 -123h-246z
M287 1675q33 0 52 19.5t19 52.5q0 32 -19.5 52t-51.5 20t-52 -20t-20 -52t20 -52t52 -20zM614 1675q33 0 52.5 19.5t19.5 52.5q0 32 -20 52t-52 20t-51.5 -20t-19.5 -52t19.5 -52t51.5 -20zM369 41h163v1475h-163v-1475z" />
    <glyph glyph-name="Eth" unicode="&#xd0;" horiz-adv-x="1228" 
d="M246 -123v664h-133v229l123 123h10v541l123 122h338q152 0 244.5 -92.5t92.5 -244.5v-881q0 -154 -92 -246l-123 -123q-92 -92 -245 -92h-338zM410 41h297q133 0 215 81.5t82 215.5v881q0 133 -82 215t-215 82h-297v-664h-134v-147h134v-664zM573 188v517h134v147h-134
v516h134q60 0 96.5 -36.5t36.5 -96.5v-913q0 -60 -36.5 -97t-96.5 -37h-134zM614 893h62v219q0 68 -62 88v-307zM614 229h62v363l-51 -51h-11v-312z" />
    <glyph glyph-name="Ntilde" unicode="&#xd1;" horiz-adv-x="1249" 
d="M205 -123v1557l102 102v143l123 123q62 51 129 51q45 0 123.5 -24.5t110.5 -24.5q66 0 129 45v-174l-119 -119h241v-1556l-122 -123h-205l-144 408v-285l-122 -123h-246zM793 1665q44 0 88 29v90q-41 -21 -88 -21q-45 0 -120.5 24.5t-113.5 24.5q-46 0 -88 -28v-92
q39 20 88 20q46 0 120 -23.5t114 -23.5zM676 1143v291l108 108q-59 -41 -114 -41q-54 0 -129 27zM369 41h163v944l336 -944h136v1475h-164v-949l-338 949h-133v-1475z" />
    <glyph glyph-name="Ograve" unicode="&#xd2;" horiz-adv-x="1167" 
d="M522 -154q-152 0 -245 93t-93 245v942q0 154 92 246l123 123q39 35 70 51l-135 205l123 123h241l115 -256l-47 -49q100 -31 158.5 -115.5t58.5 -204.5v-942q0 -154 -92 -246l-123 -122q-93 -93 -246 -93zM647 1659h103l-78 174h-140zM645 10q133 0 215 82t82 215v942
q0 133 -82 215t-215 82t-215 -82t-82 -215v-942q0 -133 82 -215t215 -82zM645 158q-60 0 -96.5 36.5t-36.5 96.5v975q0 60 36.5 96.5t96.5 36.5t96.5 -36.5t36.5 -96.5v-975q0 -60 -36.5 -96.5t-96.5 -36.5zM614 203v940q0 68 -61 88v-940q0 -68 61 -88z" />
    <glyph glyph-name="Oacute" unicode="&#xd3;" horiz-adv-x="1167" 
d="M522 -154q-152 0 -245 93t-93 245v942q0 154 92 246l125 123h-47l115 256l123 123h242l-168 -256l-31 -31h10q152 0 245 -93t93 -245v-942q0 -154 -92 -246l-123 -122q-93 -93 -246 -93zM541 1659h102l115 174h-140zM645 10q133 0 215 82t82 215v942q0 133 -82 215
t-215 82t-215 -82t-82 -215v-942q0 -133 82 -215t215 -82zM645 158q-60 0 -96.5 36.5t-36.5 96.5v975q0 60 36.5 96.5t96.5 36.5t96.5 -36.5t36.5 -96.5v-975q0 -60 -36.5 -96.5t-96.5 -36.5zM614 203v940q0 68 -61 88v-940q0 -68 61 -88z" />
    <glyph glyph-name="Ocircumflex" unicode="&#xd4;" horiz-adv-x="1167" 
d="M522 -154q-152 0 -245 93t-93 245v942q0 154 92 246l115 113h-102l131 256l123 123h205l131 -256l-62 -60q79 -42 122.5 -119.5t43.5 -179.5v-942q0 -154 -92 -246l-123 -122q-93 -93 -246 -93zM479 1649h92l76 102l72 -102h92l-94 174h-144zM645 10q133 0 215 82t82 215
v942q0 133 -82 215t-215 82t-215 -82t-82 -215v-942q0 -133 82 -215t215 -82zM645 158q-60 0 -96.5 36.5t-36.5 96.5v975q0 60 36.5 96.5t96.5 36.5t96.5 -36.5t36.5 -96.5v-975q0 -60 -36.5 -96.5t-96.5 -36.5zM614 203v940q0 68 -61 88v-940q0 -68 61 -88z" />
    <glyph glyph-name="Otilde" unicode="&#xd5;" horiz-adv-x="1167" 
d="M522 -154q-152 0 -245 93t-93 245v942q0 154 92 246l125 123q19 19 37 31q-10 2 -32 2q-67 0 -130 -45v176l123 123q62 51 129 51q45 0 123.5 -24.5t110.5 -24.5q66 0 129 45v-174l-96 -96q88 -37 138 -118.5t50 -191.5v-942q0 -154 -92 -246l-123 -122q-93 -93 -246 -93
zM762 1645q46 0 88 28v90q-39 -20 -88 -20q-45 0 -120.5 24.5t-113.5 24.5q-44 0 -88 -29v-92q40 21 88 21q46 0 120 -23.5t114 -23.5zM645 10q133 0 215 82t82 215v942q0 133 -82 215t-215 82t-215 -82t-82 -215v-942q0 -133 82 -215t215 -82zM645 158q-60 0 -96.5 36.5
t-36.5 96.5v975q0 60 36.5 96.5t96.5 36.5t96.5 -36.5t36.5 -96.5v-975q0 -60 -36.5 -96.5t-96.5 -36.5zM614 203v940q0 68 -61 88v-940q0 -68 61 -88z" />
    <glyph glyph-name="Odieresis" unicode="&#xd6;" horiz-adv-x="1167" 
d="M522 -154q-152 0 -245 93t-93 245v942q0 154 92 246l113 111q-10 -2 -31 -2q-51 0 -81.5 30.5t-30.5 81.5q0 50 30 80l123 123q33 33 82 33q51 0 82 -31t31 -82q0 -54 -31 -82l-82 -82q45 21 92 29v12q0 49 31 80l123 123q33 33 82 33q51 0 82 -31t31 -82q0 -54 -31 -82
l-82 -82q82 -40 128 -119t46 -184v-942q0 -154 -92 -246l-123 -122q-93 -93 -246 -93zM481 1645q33 0 52.5 19t19.5 52q0 32 -20 52t-52 20t-51.5 -20t-19.5 -52t19.5 -51.5t51.5 -19.5zM809 1645q33 0 52.5 19t19.5 52q0 32 -20 52t-52 20t-52 -20t-20 -52t20 -51.5
t52 -19.5zM645 10q133 0 215 82t82 215v942q0 133 -82 215t-215 82t-215 -82t-82 -215v-942q0 -133 82 -215t215 -82zM645 158q-60 0 -96.5 36.5t-36.5 96.5v975q0 60 36.5 96.5t96.5 36.5t96.5 -36.5t36.5 -96.5v-975q0 -60 -36.5 -96.5t-96.5 -36.5zM614 203v940
q0 68 -61 88v-940q0 -68 61 -88z" />
    <glyph glyph-name="multiply" unicode="&#xd7;" 
d="M1012 575l-203 203l203 203l-174 174l-203 -203l-203 203l-297 -297l203 -203l-203 -202l174 -174l203 202l203 -202zM838 1096l114 -115l-202 -203l202 -203l-114 -116l-203 203l-203 -203l-117 116l203 203l-203 203l117 115l203 -203z" />
    <glyph glyph-name="Oslash" unicode="&#xd8;" horiz-adv-x="1167" 
d="M522 -154q-112 0 -200 56l-15 -15h-160l62 158q-25 67 -25 139v942q0 154 92 246l125 123q92 92 244 92q116 0 201 -57l14 16h160l-62 -157q25 -67 25 -140v-942q0 -151 -92 -246l-123 -122q-93 -93 -246 -93zM645 10q133 0 215 82t82 215v942q0 66 -22 127l51 137h-88
l-21 -51q-81 84 -217 84q-133 0 -215 -82t-82 -215v-942q0 -63 23 -127l-54 -137h91l20 51q81 -84 217 -84zM512 549v717q0 60 36.5 96.5t96.5 36.5t96.5 -36.5t36.5 -96.5v-25zM553 944l61 160v39q0 68 -61 88v-287zM645 158q-60 0 -96.5 36.5t-36.5 96.5v24l266 695v-719
q0 -60 -36.5 -96.5t-96.5 -36.5zM614 203v286l-61 -159v-39q0 -69 61 -88z" />
    <glyph glyph-name="Ugrave" unicode="&#xd9;" horiz-adv-x="1187" 
d="M532 -154q-152 0 -244.5 93t-92.5 245v1250l122 122h146l-127 195l123 123h241l115 -256l-61 -62h239v-1249q0 -154 -92 -246l-123 -122q-93 -93 -246 -93zM647 1659h105l-78 174h-139zM655 10q133 0 215 82t82 215v1209h-164v-1225q0 -60 -36.5 -96.5t-96.5 -36.5
t-96.5 36.5t-36.5 96.5v1225h-164v-1209q0 -133 82 -215t215 -82zM625 203v1231l61 61h-123v-1204q0 -68 62 -88z" />
    <glyph glyph-name="Uacute" unicode="&#xda;" horiz-adv-x="1187" 
d="M532 -154q-152 0 -244.5 93t-92.5 245v1250l122 122h97l86 195l123 123h241l-168 -256l-123 -123h-10v-1204q0 -68 62 -88v1231l123 122h245v-1249q0 -154 -92 -246l-123 -122q-93 -93 -246 -93zM571 1659h105l112 174h-139zM655 10q133 0 215 82t82 215v1209h-164v-1225
q0 -60 -36.5 -96.5t-96.5 -36.5t-96.5 36.5t-36.5 96.5v1225h-164v-1209q0 -133 82 -215t215 -82z" />
    <glyph glyph-name="Ucircumflex" unicode="&#xdb;" horiz-adv-x="1187" 
d="M532 -154q-152 0 -244.5 93t-92.5 245v1250l122 122h15l98 195l123 123h205l131 -256l-62 -62h166v-1249q0 -154 -92 -246l-123 -122q-93 -93 -246 -93zM489 1659h93l75 102l72 -102h92l-94 174h-143zM625 203v1231l61 61h-98l-25 37v-1241q0 -68 62 -88zM655 10
q133 0 215 82t82 215v1209h-164v-1225q0 -60 -36.5 -96.5t-96.5 -36.5t-96.5 36.5t-36.5 96.5v1225h-164v-1209q0 -133 82 -215t215 -82z" />
    <glyph glyph-name="Udieresis" unicode="&#xdc;" horiz-adv-x="1187" 
d="M532 -154q-152 0 -244.5 93t-92.5 245v1250l100 100q-39 31 -39 90q0 49 31 80l123 123q33 33 82 33q51 0 81.5 -31t30.5 -82q0 -54 -31 -82l-108 -109h98v-1265q0 -68 62 -88v1231l75 77h-4q-51 0 -81.5 31t-30.5 82q0 50 30 80l123 123q33 33 82 33q51 0 82 -31t31 -82
q0 -54 -31 -82l-108 -109h200v-1249q0 -154 -92 -246l-123 -122q-93 -93 -246 -93zM492 1675q32 0 51.5 19.5t19.5 52.5q0 32 -19.5 52t-51.5 20t-52 -20t-20 -52t20 -52t52 -20zM819 1675q33 0 52.5 19.5t19.5 52.5q0 32 -20 52t-52 20t-51.5 -20t-19.5 -52t19.5 -52
t51.5 -20zM655 10q133 0 215 82t82 215v1209h-164v-1225q0 -60 -36.5 -96.5t-96.5 -36.5t-96.5 36.5t-36.5 96.5v1225h-164v-1209q0 -133 82 -215t215 -82z" />
    <glyph glyph-name="Yacute" unicode="&#xdd;" horiz-adv-x="1089" 
d="M360 -123v707l-309 850l123 122h215l86 195l123 123h242l-168 -256l-123 -123h-90l108 -299l86 238l123 122h262l-309 -849v-707l-123 -123h-246zM547 1659h104l113 174h-139zM524 41h164v674l291 801h-174l-199 -547l-198 547h-175l291 -801v-674z" />
    <glyph glyph-name="Thorn" unicode="&#xde;" 
d="M205 -123v1557l123 122h245v-286h93q152 0 245 -93t93 -245v-307q0 -153 -93 -246l-123 -123q-81 -81 -215 -90v-166l-122 -123h-246zM369 41h163v287h134q134 0 215.5 82t81.5 215v307q0 134 -81.5 215.5t-215.5 81.5h-134v287h-163v-1475zM532 475v606h134
q60 0 96.5 -36.5t36.5 -96.5v-340q0 -60 -36.5 -96.5t-96.5 -36.5h-134zM573 516h62v309q0 68 -62 88v-397z" />
    <glyph glyph-name="germandbls" unicode="&#xdf;" horiz-adv-x="1228" 
d="M195 -123v1249q0 154 92 246l123 123q92 92 245 92h338v-178l-110 -514q80 -40 126 -119t46 -182v-256q0 -152 -94 -246l-123 -123q-89 -92 -244 -92h-92v62l-62 -62h-245zM358 41h164v1225q0 60 36.5 96.5t96.5 36.5h123l-110 -535v-121h49q60 0 96.5 -36.5t36.5 -96.5
v-288q0 -60 -36.5 -97t-96.5 -37h-51v-147h51q133 0 215 81.5t82 215.5v256q0 100 -46.5 172.5t-129.5 103.5l114 539v137h-297q-133 0 -215 -82t-82 -215v-1208zM563 1018l43 217h-43v-217zM563 168l62 61h61v258q0 41 -25.5 67t-66.5 26h-31v-412z" />
    <glyph glyph-name="agrave" unicode="&#xe0;" horiz-adv-x="1069" 
d="M82 -123l217 1557l109 108l-136 209l123 123h242l113 -256l-62 -62h82l217 -1556l-123 -123h-248l-41 350h-96l-26 -227l-123 -123h-248zM584 1659h104l-78 174h-139zM252 41h164l45 350h270l45 -350h164l-207 1475h-274zM479 539l107 829h20l107 -829h-234zM522 580h6
l-2 34z" />
    <glyph glyph-name="aacute" unicode="&#xe1;" horiz-adv-x="1069" 
d="M82 -123l219 1557l61 61h-30l114 256l123 123h242l-166 -256l-61 -62h186l217 -1556l-123 -123h-246l-43 350h-96l-26 -227l-123 -123h-248zM518 1659h105l112 174h-139zM252 41h164l45 350h272l43 -350h164l-205 1475h-276zM477 539l109 829h22l107 -829h-238zM520 580
h6l-2 34z" />
    <glyph glyph-name="acircumflex" unicode="&#xe2;" horiz-adv-x="1069" 
d="M82 -123l217 1557l61 61h-120l131 256l123 123h204l131 -256l-61 -62h2l217 -1556l-123 -123h-248l-41 350h-96l-26 -227l-123 -123h-248zM430 1659h92l76 102l72 -102h92l-94 174h-144zM252 41h164l45 350h270l45 -350h164l-207 1475h-274zM479 539l107 829h20l107 -829
h-234zM522 580h6l-2 34z" />
    <glyph glyph-name="atilde" unicode="&#xe3;" horiz-adv-x="1069" 
d="M82 -123l217 1557l111 110q-32 4 -54 4q-66 0 -129 -45v176l123 123q62 51 129 51q45 0 123.5 -24.5t110.5 -24.5q66 0 129 45v-174l-119 -119h47l217 -1556l-123 -123h-248l-41 350h-96l-26 -227l-123 -123h-248zM713 1665q45 0 88 29v90q-41 -21 -88 -21
q-45 0 -120.5 24.5t-113.5 24.5q-46 0 -88 -28v-92q39 20 88 20q46 0 120 -23.5t114 -23.5zM252 41h164l45 350h270l45 -350h164l-207 1475h-274zM479 539l107 829h20l107 -829h-234zM522 580h6l-2 34z" />
    <glyph glyph-name="adieresis" unicode="&#xe4;" horiz-adv-x="1069" 
d="M82 -123l217 1557l123 122h121q-19 28 -19 68q0 49 31 80l123 123q33 33 82 33q51 0 81.5 -31t30.5 -82q0 -55 -30 -82l-109 -109h37l217 -1556l-123 -123h-248l-41 350h-96l-26 -227l-123 -123h-248zM309 1511q-51 0 -81.5 31t-30.5 82q0 50 30 80l123 123q33 33 82 33
q51 0 82 -31t31 -82q0 -54 -31 -82l-123 -123q-31 -31 -82 -31zM432 1675q33 0 52.5 19.5t19.5 52.5q0 32 -20 52t-52 20t-52 -20t-20 -52t20 -52t52 -20zM760 1675q32 0 51.5 19.5t19.5 52.5q0 32 -19.5 52t-51.5 20t-52 -20t-20 -52t20 -52t52 -20zM252 41h164l45 350h270
l45 -350h164l-207 1475h-274zM479 539l107 829h20l107 -829h-234zM522 580h6l-2 34z" />
    <glyph glyph-name="aring" unicode="&#xe5;" horiz-adv-x="1069" 
d="M82 -123l217 1557l86 86q-66 43 -66 131q0 67 43 110l123 123q43 43 111 43q69 0 111.5 -42t42.5 -111q0 -73 -43 -113l-105 -105h168l217 -1556l-123 -123h-248l-41 350h-96l-26 -227l-123 -123h-248zM596 1651q56 0 89.5 33t33.5 90q0 55 -33.5 88.5t-89.5 33.5
t-89.5 -33.5t-33.5 -88.5q0 -56 33.5 -89.5t89.5 -33.5zM596 1720q-23 0 -37 14.5t-14 37.5t14 37t37 14q24 0 37.5 -13.5t13.5 -37.5q0 -23 -14 -37.5t-37 -14.5zM252 41h164l45 350h270l45 -350h164l-207 1475h-274zM479 539l107 829h20l107 -829h-234zM522 580h6l-2 34z
" />
    <glyph glyph-name="ae" unicode="&#xe6;" horiz-adv-x="1488" 
d="M82 -123l217 1557l123 122h913v-229l-123 -123h-266v-311h307v-229l-123 -123h-184v-312h389v-229l-123 -123h-634v350h-99l-26 -227l-123 -123h-248zM252 41h164l45 350h280v-350h553v147h-389v517h307v147h-307v516h389v148h-835zM481 539l105 829h155v-829h-260z
M524 580h54v462z" />
    <glyph glyph-name="ccedilla" unicode="&#xe7;" horiz-adv-x="1126" 
d="M375 -379v193l45 45q-110 29 -173 115t-63 210v942q0 154 92 246l123 123q92 92 246 92q152 0 245 -93t93 -245v-184l-123 -123h-246v201q0 68 -61 88v-940q0 -68 61 -88v166l123 123h246v-185q0 -154 -92 -246l-119 -116v-105q0 -41 -29 -67l-122 -123q-26 -29 -68 -29
h-178zM539 -215h137q23 0 39 16t16 39v180q97 25 154 101.5t57 185.5v144h-164v-160q0 -60 -36.5 -96.5t-96.5 -36.5t-96.5 36.5t-36.5 96.5v975q0 60 36.5 96.5t96.5 36.5t96.5 -36.5t36.5 -96.5v-160h164v143q0 133 -82 215t-215 82t-215 -82t-82 -215v-942
q0 -127 75 -208t198 -89v-114h-82v-111z" />
    <glyph glyph-name="egrave" unicode="&#xe8;" horiz-adv-x="1095" 
d="M205 -123v1557l123 122h88l-127 195l123 123h241l115 -256l-61 -62h256v-229l-123 -123h-267v-311h308v-229l-123 -123h-185v-312h390v-229l-123 -123h-635zM600 1659h105l-78 174h-140zM369 41h553v147h-390v517h308v147h-308v516h390v148h-553v-1475z" />
    <glyph glyph-name="eacute" unicode="&#xe9;" horiz-adv-x="1095" 
d="M205 -123v1557l123 122h80l86 195l122 123h242l-168 -256l-61 -62h334v-229l-123 -123h-267v-311h308v-229l-123 -123h-185v-312h390v-229l-123 -123h-635zM565 1659h105l112 174h-139zM369 41h553v147h-390v517h308v147h-308v516h390v148h-553v-1475z" />
    <glyph glyph-name="ecircumflex" unicode="&#xea;" horiz-adv-x="1095" 
d="M205 -123v1557l108 108l107 209l123 123h205l131 -256l-62 -62h146v-229l-123 -123h-267v-311h308v-229l-123 -123h-185v-312h390v-229l-123 -123h-635zM479 1659h92l76 102l72 -102h92l-94 174h-144zM369 41h553v147h-390v517h308v147h-308v516h390v148h-553v-1475z" />
    <glyph glyph-name="edieresis" unicode="&#xeb;" horiz-adv-x="1095" 
d="M205 -123v1557l92 92q-51 28 -51 98q0 50 30 80l123 123q33 33 82 33q51 0 82 -31t31 -82q0 -54 -31 -82l-108 -109h137q-19 28 -19 68q0 49 31 80l123 123q33 33 82 33q51 0 82 -31t31 -82q0 -54 -31 -82l-109 -109h181v-229l-123 -123h-267v-311h308v-229l-123 -123
h-185v-312h390v-229l-123 -123h-635zM481 1675q33 0 52.5 19.5t19.5 52.5q0 32 -20 52t-52 20t-51.5 -20t-19.5 -52t19.5 -52t51.5 -20zM809 1675q33 0 52.5 19.5t19.5 52.5q0 32 -20 52t-52 20t-52 -20t-20 -52t20 -52t52 -20zM369 41h553v147h-390v517h308v147h-308v516
h390v148h-553v-1475z" />
    <glyph glyph-name="igrave" unicode="&#xec;" horiz-adv-x="778" 
d="M205 -123v1557l71 73l-157 244l123 123h239l115 -256l-61 -62h38v-1556l-122 -123h-246zM430 1659h105l-78 174h-140zM369 41h163v1475h-163v-1475z" />
    <glyph glyph-name="iacute" unicode="&#xed;" horiz-adv-x="778" 
d="M205 -123v1557l61 61h-76l115 256l123 123h242l-166 -256l-62 -62h131v-1556l-122 -123h-246zM377 1659h104l113 174h-139zM369 41h163v1475h-163v-1475z" />
    <glyph glyph-name="icircumflex" unicode="&#xee;" horiz-adv-x="778" 
d="M205 -123v1557l61 61h-172l131 256l123 123h203l131 -256l-109 -111v-1507l-122 -123h-246zM285 1659h90l76 102l73 -102h90l-94 174h-141zM369 41h163v1475h-163v-1475z" />
    <glyph glyph-name="idieresis" unicode="&#xef;" horiz-adv-x="778" 
d="M164 1511q-51 0 -82 31t-31 82q0 49 31 80l121 123q33 33 84 33t81.5 -31t30.5 -82q0 -55 -30 -82l-123 -123q-31 -31 -82 -31zM205 -123v1557l123 122h69q-18 27 -18 68q0 49 31 80l120 123q33 33 84 33t82 -31t31 -82q0 -54 -31 -82l-123 -123v-1542l-122 -123h-246z
M287 1675q33 0 52 19.5t19 52.5q0 32 -19.5 52t-51.5 20t-52 -20t-20 -52t20 -52t52 -20zM614 1675q33 0 52.5 19.5t19.5 52.5q0 32 -20 52t-52 20t-51.5 -20t-19.5 -52t19.5 -52t51.5 -20zM369 41h163v1475h-163v-1475z" />
    <glyph glyph-name="eth" unicode="&#xf0;" horiz-adv-x="1228" 
d="M246 -123v664h-133v229l123 123h10v541l123 122h338q152 0 244.5 -92.5t92.5 -244.5v-881q0 -154 -92 -246l-123 -123q-92 -92 -245 -92h-338zM410 41h297q133 0 215 81.5t82 215.5v881q0 133 -82 215t-215 82h-297v-664h-134v-147h134v-664zM573 188v517h134v147h-134
v516h134q60 0 96.5 -36.5t36.5 -96.5v-913q0 -60 -36.5 -97t-96.5 -37h-134zM614 893h62v219q0 68 -62 88v-307zM614 229h62v363l-51 -51h-11v-312z" />
    <glyph glyph-name="ntilde" unicode="&#xf1;" horiz-adv-x="1249" 
d="M205 -123v1557l102 102v143l123 123q62 51 129 51q45 0 123.5 -24.5t110.5 -24.5q66 0 129 45v-174l-119 -119h241v-1556l-122 -123h-205l-144 408v-285l-122 -123h-246zM793 1665q44 0 88 29v90q-41 -21 -88 -21q-45 0 -120.5 24.5t-113.5 24.5q-46 0 -88 -28v-92
q39 20 88 20q46 0 120 -23.5t114 -23.5zM676 1143v291l108 108q-59 -41 -114 -41q-54 0 -129 27zM369 41h163v944l336 -944h136v1475h-164v-949l-338 949h-133v-1475z" />
    <glyph glyph-name="ograve" unicode="&#xf2;" horiz-adv-x="1167" 
d="M522 -154q-152 0 -245 93t-93 245v942q0 154 92 246l123 123q39 35 70 51l-135 205l123 123h241l115 -256l-47 -49q100 -31 158.5 -115.5t58.5 -204.5v-942q0 -154 -92 -246l-123 -122q-93 -93 -246 -93zM647 1659h103l-78 174h-140zM645 10q133 0 215 82t82 215v942
q0 133 -82 215t-215 82t-215 -82t-82 -215v-942q0 -133 82 -215t215 -82zM645 158q-60 0 -96.5 36.5t-36.5 96.5v975q0 60 36.5 96.5t96.5 36.5t96.5 -36.5t36.5 -96.5v-975q0 -60 -36.5 -96.5t-96.5 -36.5zM614 203v940q0 68 -61 88v-940q0 -68 61 -88z" />
    <glyph glyph-name="oacute" unicode="&#xf3;" horiz-adv-x="1167" 
d="M522 -154q-152 0 -245 93t-93 245v942q0 154 92 246l125 123h-47l115 256l123 123h242l-168 -256l-31 -31h10q152 0 245 -93t93 -245v-942q0 -154 -92 -246l-123 -122q-93 -93 -246 -93zM541 1659h102l115 174h-140zM645 10q133 0 215 82t82 215v942q0 133 -82 215
t-215 82t-215 -82t-82 -215v-942q0 -133 82 -215t215 -82zM645 158q-60 0 -96.5 36.5t-36.5 96.5v975q0 60 36.5 96.5t96.5 36.5t96.5 -36.5t36.5 -96.5v-975q0 -60 -36.5 -96.5t-96.5 -36.5zM614 203v940q0 68 -61 88v-940q0 -68 61 -88z" />
    <glyph glyph-name="ocircumflex" unicode="&#xf4;" horiz-adv-x="1167" 
d="M522 -154q-152 0 -245 93t-93 245v942q0 154 92 246l115 113h-102l131 256l123 123h205l131 -256l-62 -60q79 -42 122.5 -119.5t43.5 -179.5v-942q0 -154 -92 -246l-123 -122q-93 -93 -246 -93zM479 1649h92l76 102l72 -102h92l-94 174h-144zM645 10q133 0 215 82t82 215
v942q0 133 -82 215t-215 82t-215 -82t-82 -215v-942q0 -133 82 -215t215 -82zM645 158q-60 0 -96.5 36.5t-36.5 96.5v975q0 60 36.5 96.5t96.5 36.5t96.5 -36.5t36.5 -96.5v-975q0 -60 -36.5 -96.5t-96.5 -36.5zM614 203v940q0 68 -61 88v-940q0 -68 61 -88z" />
    <glyph glyph-name="otilde" unicode="&#xf5;" horiz-adv-x="1167" 
d="M522 -154q-152 0 -245 93t-93 245v942q0 154 92 246l125 123q19 19 37 31q-10 2 -32 2q-67 0 -130 -45v176l123 123q62 51 129 51q45 0 123.5 -24.5t110.5 -24.5q66 0 129 45v-174l-96 -96q88 -37 138 -118.5t50 -191.5v-942q0 -154 -92 -246l-123 -122q-93 -93 -246 -93
zM762 1645q46 0 88 28v90q-39 -20 -88 -20q-45 0 -120.5 24.5t-113.5 24.5q-44 0 -88 -29v-92q40 21 88 21q46 0 120 -23.5t114 -23.5zM645 10q133 0 215 82t82 215v942q0 133 -82 215t-215 82t-215 -82t-82 -215v-942q0 -133 82 -215t215 -82zM645 158q-60 0 -96.5 36.5
t-36.5 96.5v975q0 60 36.5 96.5t96.5 36.5t96.5 -36.5t36.5 -96.5v-975q0 -60 -36.5 -96.5t-96.5 -36.5zM614 203v940q0 68 -61 88v-940q0 -68 61 -88z" />
    <glyph glyph-name="odieresis" unicode="&#xf6;" horiz-adv-x="1167" 
d="M522 -154q-152 0 -245 93t-93 245v942q0 154 92 246l113 111q-10 -2 -31 -2q-51 0 -81.5 30.5t-30.5 81.5q0 50 30 80l123 123q33 33 82 33q51 0 82 -31t31 -82q0 -54 -31 -82l-82 -82q45 21 92 29v12q0 49 31 80l123 123q33 33 82 33q51 0 82 -31t31 -82q0 -54 -31 -82
l-82 -82q82 -40 128 -119t46 -184v-942q0 -154 -92 -246l-123 -122q-93 -93 -246 -93zM481 1645q33 0 52.5 19t19.5 52q0 32 -20 52t-52 20t-51.5 -20t-19.5 -52t19.5 -51.5t51.5 -19.5zM809 1645q33 0 52.5 19t19.5 52q0 32 -20 52t-52 20t-52 -20t-20 -52t20 -51.5
t52 -19.5zM645 10q133 0 215 82t82 215v942q0 133 -82 215t-215 82t-215 -82t-82 -215v-942q0 -133 82 -215t215 -82zM645 158q-60 0 -96.5 36.5t-36.5 96.5v975q0 60 36.5 96.5t96.5 36.5t96.5 -36.5t36.5 -96.5v-975q0 -60 -36.5 -96.5t-96.5 -36.5zM614 203v940
q0 68 -61 88v-940q0 -68 61 -88z" />
    <glyph glyph-name="divide" unicode="&#xf7;" 
d="M512 193q-64 0 -103.5 39.5t-39.5 103.5q0 65 39 104l100 101h-406v229l123 123h166q-22 36 -22 82q0 65 39 104l122 123q39 39 105 39q65 0 104 -39.5t39 -103.5q0 -66 -39 -105l-100 -100h405v-229l-122 -123h-166q22 -36 22 -82q0 -66 -39 -105l-123 -123
q-38 -38 -104 -38zM635 995q46 0 74 28.5t28 74.5t-28 74t-74 28t-74.5 -28t-28.5 -74t28.5 -74.5t74.5 -28.5zM266 705h738v147h-738v-147zM635 356q46 0 74 28.5t28 74.5t-28 74t-74 28t-74.5 -28t-28.5 -74t28.5 -74.5t74.5 -28.5z" />
    <glyph glyph-name="oslash" unicode="&#xf8;" horiz-adv-x="1167" 
d="M522 -154q-112 0 -200 56l-15 -15h-160l62 158q-25 67 -25 139v942q0 154 92 246l125 123q92 92 244 92q116 0 201 -57l14 16h160l-62 -157q25 -67 25 -140v-942q0 -151 -92 -246l-123 -122q-93 -93 -246 -93zM645 10q133 0 215 82t82 215v942q0 66 -22 127l51 137h-88
l-21 -51q-81 84 -217 84q-133 0 -215 -82t-82 -215v-942q0 -63 23 -127l-54 -137h91l20 51q81 -84 217 -84zM512 549v717q0 60 36.5 96.5t96.5 36.5t96.5 -36.5t36.5 -96.5v-25zM553 944l61 160v39q0 68 -61 88v-287zM645 158q-60 0 -96.5 36.5t-36.5 96.5v24l266 695v-719
q0 -60 -36.5 -96.5t-96.5 -36.5zM614 203v286l-61 -159v-39q0 -69 61 -88z" />
    <glyph glyph-name="ugrave" unicode="&#xf9;" horiz-adv-x="1187" 
d="M532 -154q-152 0 -244.5 93t-92.5 245v1250l122 122h146l-127 195l123 123h241l115 -256l-61 -62h239v-1249q0 -154 -92 -246l-123 -122q-93 -93 -246 -93zM647 1659h105l-78 174h-139zM655 10q133 0 215 82t82 215v1209h-164v-1225q0 -60 -36.5 -96.5t-96.5 -36.5
t-96.5 36.5t-36.5 96.5v1225h-164v-1209q0 -133 82 -215t215 -82zM625 203v1231l61 61h-123v-1204q0 -68 62 -88z" />
    <glyph glyph-name="uacute" unicode="&#xfa;" horiz-adv-x="1187" 
d="M532 -154q-152 0 -244.5 93t-92.5 245v1250l122 122h97l86 195l123 123h241l-168 -256l-123 -123h-10v-1204q0 -68 62 -88v1231l123 122h245v-1249q0 -154 -92 -246l-123 -122q-93 -93 -246 -93zM571 1659h105l112 174h-139zM655 10q133 0 215 82t82 215v1209h-164v-1225
q0 -60 -36.5 -96.5t-96.5 -36.5t-96.5 36.5t-36.5 96.5v1225h-164v-1209q0 -133 82 -215t215 -82z" />
    <glyph glyph-name="ucircumflex" unicode="&#xfb;" horiz-adv-x="1187" 
d="M532 -154q-152 0 -244.5 93t-92.5 245v1250l122 122h15l98 195l123 123h205l131 -256l-62 -62h166v-1249q0 -154 -92 -246l-123 -122q-93 -93 -246 -93zM489 1659h93l75 102l72 -102h92l-94 174h-143zM625 203v1231l61 61h-98l-25 37v-1241q0 -68 62 -88zM655 10
q133 0 215 82t82 215v1209h-164v-1225q0 -60 -36.5 -96.5t-96.5 -36.5t-96.5 36.5t-36.5 96.5v1225h-164v-1209q0 -133 82 -215t215 -82z" />
    <glyph glyph-name="udieresis" unicode="&#xfc;" horiz-adv-x="1187" 
d="M532 -154q-152 0 -244.5 93t-92.5 245v1250l100 100q-39 31 -39 90q0 49 31 80l123 123q33 33 82 33q51 0 81.5 -31t30.5 -82q0 -54 -31 -82l-108 -109h98v-1265q0 -68 62 -88v1231l75 77h-4q-51 0 -81.5 31t-30.5 82q0 50 30 80l123 123q33 33 82 33q51 0 82 -31t31 -82
q0 -54 -31 -82l-108 -109h200v-1249q0 -154 -92 -246l-123 -122q-93 -93 -246 -93zM492 1675q32 0 51.5 19.5t19.5 52.5q0 32 -19.5 52t-51.5 20t-52 -20t-20 -52t20 -52t52 -20zM819 1675q33 0 52.5 19.5t19.5 52.5q0 32 -20 52t-52 20t-51.5 -20t-19.5 -52t19.5 -52
t51.5 -20zM655 10q133 0 215 82t82 215v1209h-164v-1225q0 -60 -36.5 -96.5t-96.5 -36.5t-96.5 36.5t-36.5 96.5v1225h-164v-1209q0 -133 82 -215t215 -82z" />
    <glyph glyph-name="yacute" unicode="&#xfd;" horiz-adv-x="1089" 
d="M360 -123v707l-309 850l123 122h215l86 195l123 123h242l-168 -256l-123 -123h-90l108 -299l86 238l123 122h262l-309 -849v-707l-123 -123h-246zM547 1659h104l113 174h-139zM524 41h164v674l291 801h-174l-199 -547l-198 547h-175l291 -801v-674z" />
    <glyph glyph-name="thorn" unicode="&#xfe;" 
d="M205 -123v1557l123 122h245v-286h93q152 0 245 -93t93 -245v-307q0 -153 -93 -246l-123 -123q-81 -81 -215 -90v-166l-122 -123h-246zM369 41h163v287h134q134 0 215.5 82t81.5 215v307q0 134 -81.5 215.5t-215.5 81.5h-134v287h-163v-1475zM532 475v606h134
q60 0 96.5 -36.5t36.5 -96.5v-340q0 -60 -36.5 -96.5t-96.5 -36.5h-134zM573 516h62v309q0 68 -62 88v-397z" />
    <glyph glyph-name="ydieresis" unicode="&#xff;" horiz-adv-x="1089" 
d="M360 -123v707l-309 850l123 122h51q-18 27 -18 68q0 49 31 80l120 123q33 33 84 33t82 -31t31 -82q0 -54 -31 -82l-108 -109h20l131 -360l86 238l123 122h262l-309 -849v-707l-123 -123h-246zM647 1511q-51 0 -81.5 31t-30.5 82q0 50 30 80l121 123q33 33 84 33t82 -31
t31 -82q0 -54 -31 -82l-123 -123q-31 -31 -82 -31zM442 1675q33 0 52.5 19.5t19.5 52.5q0 32 -20 52t-52 20t-51.5 -20t-19.5 -52t19.5 -52t51.5 -20zM770 1675q33 0 52.5 19.5t19.5 52.5q0 32 -20 52t-52 20t-52 -20t-20 -52t20 -52t52 -20zM524 41h164v674l291 801h-174
l-199 -547l-198 547h-175l291 -801v-674z" />
    <glyph glyph-name="Amacron" unicode="&#x100;" horiz-adv-x="1069" 
d="M82 -123l217 1557l94 94h-145v192l123 123h450v-192l-94 -95h43l217 -1556l-123 -123h-248l-41 350h-96l-26 -227l-123 -123h-248zM412 1692h368v110h-368v-110zM252 41h164l45 350h270l45 -350h164l-207 1475h-274zM479 539l107 829h20l107 -829h-234zM522 580h6l-2 34z
" />
    <glyph glyph-name="amacron" unicode="&#x101;" horiz-adv-x="1069" 
d="M82 -123l217 1557l94 94h-145v192l123 123h450v-192l-94 -95h43l217 -1556l-123 -123h-248l-41 350h-96l-26 -227l-123 -123h-248zM412 1692h368v110h-368v-110zM252 41h164l45 350h270l45 -350h164l-207 1475h-274zM479 539l107 829h20l107 -829h-234zM522 580h6l-2 34z
" />
    <glyph glyph-name="Abreve" unicode="&#x102;" horiz-adv-x="1069" 
d="M82 -123l217 1557l82 82q-53 25 -85 78t-36 126l123 123h174q9 -39 31 -45l47 45h174q-6 -101 -66 -164l-122 -123h149l217 -1556l-123 -123h-248l-41 350h-96l-26 -227l-123 -123h-248zM596 1659q63 0 107 38.5t59 104.5h-98q-23 -47 -68 -47t-68 47h-98
q15 -66 59 -104.5t107 -38.5zM252 41h164l45 350h270l45 -350h164l-207 1475h-274zM479 539l107 829h20l107 -829h-234zM522 580h6l-2 34z" />
    <glyph glyph-name="abreve" unicode="&#x103;" horiz-adv-x="1069" 
d="M82 -123l217 1557l82 82q-53 25 -85 78t-36 126l123 123h174q9 -39 31 -45l47 45h174q-6 -101 -66 -164l-122 -123h149l217 -1556l-123 -123h-248l-41 350h-96l-26 -227l-123 -123h-248zM596 1659q63 0 107 38.5t59 104.5h-98q-23 -47 -68 -47t-68 47h-98
q15 -66 59 -104.5t107 -38.5zM252 41h164l45 350h270l45 -350h164l-207 1475h-274zM479 539l107 829h20l107 -829h-234zM522 580h6l-2 34z" />
    <glyph glyph-name="Aogonek" unicode="&#x104;" horiz-adv-x="1069" 
d="M680 -383q-57 0 -86 28.5t-29 73.5q0 20 6 41l41 158l-37 309h-96l-26 -227l-123 -123h-248l217 1557l123 122h348l217 -1556l-67 -68h61v-192l-123 -123h-178zM799 -219h141v110h-86l37 150h49l-207 1475h-274l-207 -1475h164l45 350h270l45 -350l-41 -166
q-4 -24 -4 -33q0 -61 68 -61zM479 539l107 829h20l107 -829h-234zM522 580h6l-2 32z" />
    <glyph glyph-name="aogonek" unicode="&#x105;" horiz-adv-x="1069" 
d="M680 -383q-57 0 -86 28.5t-29 73.5q0 20 6 41l41 158l-37 309h-96l-26 -227l-123 -123h-248l217 1557l123 122h348l217 -1556l-67 -68h61v-192l-123 -123h-178zM799 -219h141v110h-86l37 150h49l-207 1475h-274l-207 -1475h164l45 350h270l45 -350l-41 -166
q-4 -24 -4 -33q0 -61 68 -61zM479 539l107 829h20l107 -829h-234zM522 580h6l-2 32z" />
    <glyph glyph-name="Cacute" unicode="&#x106;" horiz-adv-x="1126" 
d="M522 -154q-152 0 -245 93t-93 245v942q0 154 92 246l123 123h-45l115 256l123 123h242l-168 -256l-31 -31h10q152 0 245 -93t93 -245v-184l-123 -123h-246v201q0 68 -61 88v-940q0 -68 61 -88v166l123 123h246v-185q0 -154 -92 -246l-123 -122q-93 -93 -246 -93z
M541 1659h102l115 174h-140zM645 10q133 0 215 82t82 215v144h-164v-160q0 -60 -36.5 -96.5t-96.5 -36.5t-96.5 36.5t-36.5 96.5v975q0 60 36.5 96.5t96.5 36.5t96.5 -36.5t36.5 -96.5v-160h164v143q0 133 -82 215t-215 82t-215 -82t-82 -215v-942q0 -133 82 -215t215 -82z
" />
    <glyph glyph-name="cacute" unicode="&#x107;" horiz-adv-x="1126" 
d="M522 -154q-152 0 -245 93t-93 245v942q0 154 92 246l123 123h-45l115 256l123 123h242l-168 -256l-31 -31h10q152 0 245 -93t93 -245v-184l-123 -123h-246v201q0 68 -61 88v-940q0 -68 61 -88v166l123 123h246v-185q0 -154 -92 -246l-123 -122q-93 -93 -246 -93z
M541 1659h102l115 174h-140zM645 10q133 0 215 82t82 215v144h-164v-160q0 -60 -36.5 -96.5t-96.5 -36.5t-96.5 36.5t-36.5 96.5v975q0 60 36.5 96.5t96.5 36.5t96.5 -36.5t36.5 -96.5v-160h164v143q0 133 -82 215t-215 82t-215 -82t-82 -215v-942q0 -133 82 -215t215 -82z
" />
    <glyph glyph-name="Cdotaccent" unicode="&#x10a;" horiz-adv-x="1126" 
d="M522 -154q-152 0 -245 93t-93 245v942q0 154 92 246l123 123q12 11 50 39q-39 31 -39 90q0 50 30 80l121 123q33 33 84 33t82 -31t31 -82t-31 -82l-78 -78q151 -1 242.5 -94t91.5 -244v-184l-123 -123h-246v201q0 68 -61 88v-940q0 -68 61 -88v166l123 123h246v-185
q0 -154 -92 -246l-123 -122q-93 -93 -246 -93zM645 1675q33 0 52.5 19.5t19.5 52.5q0 32 -20 52t-52 20t-52 -20t-20 -52t20 -52t52 -20zM645 10q133 0 215 82t82 215v144h-164v-160q0 -60 -36.5 -96.5t-96.5 -36.5t-96.5 36.5t-36.5 96.5v975q0 60 36.5 96.5t96.5 36.5
t96.5 -36.5t36.5 -96.5v-160h164v143q0 133 -82 215t-215 82t-215 -82t-82 -215v-942q0 -133 82 -215t215 -82z" />
    <glyph glyph-name="cdotaccent" unicode="&#x10b;" horiz-adv-x="1126" 
d="M522 -154q-152 0 -245 93t-93 245v942q0 154 92 246l123 123q12 11 50 39q-39 31 -39 90q0 50 30 80l121 123q33 33 84 33t82 -31t31 -82t-31 -82l-78 -78q151 -1 242.5 -94t91.5 -244v-184l-123 -123h-246v201q0 68 -61 88v-940q0 -68 61 -88v166l123 123h246v-185
q0 -154 -92 -246l-123 -122q-93 -93 -246 -93zM645 1675q33 0 52.5 19.5t19.5 52.5q0 32 -20 52t-52 20t-52 -20t-20 -52t20 -52t52 -20zM645 10q133 0 215 82t82 215v144h-164v-160q0 -60 -36.5 -96.5t-96.5 -36.5t-96.5 36.5t-36.5 96.5v975q0 60 36.5 96.5t96.5 36.5
t96.5 -36.5t36.5 -96.5v-160h164v143q0 133 -82 215t-215 82t-215 -82t-82 -215v-942q0 -133 82 -215t215 -82z" />
    <glyph glyph-name="Ccaron" unicode="&#x10c;" horiz-adv-x="1126" 
d="M522 -154q-152 0 -245 93t-93 245v942q0 154 92 246l123 123l15 12l-125 244l123 123h176l47 -68l65 68h177l-132 -256l-34 -35q125 -20 198.5 -110t73.5 -224v-184l-123 -123h-246v201q0 68 -61 88v-940q0 -68 61 -88v166l123 123h246v-185q0 -154 -92 -246l-123 -122
q-93 -93 -246 -93zM573 1659h142l94 174h-90l-76 -102l-74 102h-90zM645 10q133 0 215 82t82 215v144h-164v-160q0 -60 -36.5 -96.5t-96.5 -36.5t-96.5 36.5t-36.5 96.5v975q0 60 36.5 96.5t96.5 36.5t96.5 -36.5t36.5 -96.5v-160h164v143q0 133 -82 215t-215 82t-215 -82
t-82 -215v-942q0 -133 82 -215t215 -82z" />
    <glyph glyph-name="ccaron" unicode="&#x10d;" horiz-adv-x="1126" 
d="M522 -154q-152 0 -245 93t-93 245v942q0 154 92 246l123 123l15 12l-125 244l123 123h176l47 -68l65 68h177l-132 -256l-34 -35q125 -20 198.5 -110t73.5 -224v-184l-123 -123h-246v201q0 68 -61 88v-940q0 -68 61 -88v166l123 123h246v-185q0 -154 -92 -246l-123 -122
q-93 -93 -246 -93zM573 1659h142l94 174h-90l-76 -102l-74 102h-90zM645 10q133 0 215 82t82 215v144h-164v-160q0 -60 -36.5 -96.5t-96.5 -36.5t-96.5 36.5t-36.5 96.5v975q0 60 36.5 96.5t96.5 36.5t96.5 -36.5t36.5 -96.5v-160h164v143q0 133 -82 215t-215 82t-215 -82
t-82 -215v-942q0 -133 82 -215t215 -82z" />
    <glyph glyph-name="Dcaron" unicode="&#x10e;" horiz-adv-x="1187" 
d="M205 -123v1557l123 122h82l-101 195l123 123h178l45 -66l66 66h178l-131 -256l-63 -64q136 -12 217.5 -102.5t81.5 -232.5v-881q0 -153 -93 -246l-123 -123q-92 -92 -245 -92h-338zM594 1659h143l94 174h-92l-71 -102l-76 102h-92zM369 41h297q134 0 215.5 81.5
t81.5 215.5v881q0 133 -81.5 215t-215.5 82h-297v-1475zM532 188v1180h134q60 0 96.5 -36.5t36.5 -96.5v-913q0 -60 -36.5 -97t-96.5 -37h-134zM573 229h62v883q0 68 -62 88v-971z" />
    <glyph glyph-name="dcaron" unicode="&#x10f;" horiz-adv-x="1187" 
d="M205 -123v1557l123 122h82l-101 195l123 123h178l45 -66l66 66h178l-131 -256l-63 -64q136 -12 217.5 -102.5t81.5 -232.5v-881q0 -153 -93 -246l-123 -123q-92 -92 -245 -92h-338zM594 1659h143l94 174h-92l-71 -102l-76 102h-92zM369 41h297q134 0 215.5 81.5
t81.5 215.5v881q0 133 -81.5 215t-215.5 82h-297v-1475zM532 188v1180h134q60 0 96.5 -36.5t36.5 -96.5v-913q0 -60 -36.5 -97t-96.5 -37h-134zM573 229h62v883q0 68 -62 88v-971z" />
    <glyph glyph-name="Dcroat" unicode="&#x110;" horiz-adv-x="1228" 
d="M246 -123v664h-133v229l123 123h10v541l123 122h338q152 0 244.5 -92.5t92.5 -244.5v-881q0 -154 -92 -246l-123 -123q-92 -92 -245 -92h-338zM410 41h297q133 0 215 81.5t82 215.5v881q0 133 -82 215t-215 82h-297v-664h-134v-147h134v-664zM573 188v517h134v147h-134
v516h134q60 0 96.5 -36.5t36.5 -96.5v-913q0 -60 -36.5 -97t-96.5 -37h-134zM614 893h62v219q0 68 -62 88v-307zM614 229h62v363l-51 -51h-11v-312z" />
    <glyph glyph-name="dcroat" unicode="&#x111;" horiz-adv-x="1228" 
d="M246 -123v664h-133v229l123 123h10v541l123 122h338q152 0 244.5 -92.5t92.5 -244.5v-881q0 -154 -92 -246l-123 -123q-92 -92 -245 -92h-338zM410 41h297q133 0 215 81.5t82 215.5v881q0 133 -82 215t-215 82h-297v-664h-134v-147h134v-664zM573 188v517h134v147h-134
v516h134q60 0 96.5 -36.5t36.5 -96.5v-913q0 -60 -36.5 -97t-96.5 -37h-134zM614 893h62v219q0 68 -62 88v-307zM614 229h62v363l-51 -51h-11v-312z" />
    <glyph glyph-name="Emacron" unicode="&#x112;" horiz-adv-x="1095" 
d="M205 -123v1557l94 94h-2v192l123 123h450v-192l-92 -95h185v-229l-123 -123h-267v-311h308v-229l-123 -123h-185v-312h390v-229l-123 -123h-635zM461 1692h368v110h-368v-110zM369 41h553v147h-390v517h308v147h-308v516h390v148h-553v-1475z" />
    <glyph glyph-name="emacron" unicode="&#x113;" horiz-adv-x="1095" 
d="M205 -123v1557l94 94h-2v192l123 123h450v-192l-92 -95h185v-229l-123 -123h-267v-311h308v-229l-123 -123h-185v-312h390v-229l-123 -123h-635zM461 1692h368v110h-368v-110zM369 41h553v147h-390v517h308v147h-308v516h390v148h-553v-1475z" />
    <glyph glyph-name="Edotaccent" unicode="&#x116;" horiz-adv-x="1095" 
d="M205 -123v1557l123 122h100q-18 27 -18 68q0 50 30 80l121 123q33 33 84 33t82 -31t31 -82q0 -54 -31 -82l-109 -109h345v-229l-123 -123h-267v-311h308v-229l-123 -123h-185v-312h390v-229l-123 -123h-635zM645 1675q33 0 52.5 19.5t19.5 52.5q0 32 -20 52t-52 20
t-52 -20t-20 -52t20 -52t52 -20zM369 41h553v147h-390v517h308v147h-308v516h390v148h-553v-1475z" />
    <glyph glyph-name="edotaccent" unicode="&#x117;" horiz-adv-x="1095" 
d="M205 -123v1557l123 122h100q-18 27 -18 68q0 50 30 80l121 123q33 33 84 33t82 -31t31 -82q0 -54 -31 -82l-109 -109h345v-229l-123 -123h-267v-311h308v-229l-123 -123h-185v-312h390v-229l-123 -123h-635zM645 1675q33 0 52.5 19.5t19.5 52.5q0 32 -20 52t-52 20
t-52 -20t-20 -52t20 -52t52 -20zM369 41h553v147h-390v517h308v147h-308v516h390v148h-553v-1475z" />
    <glyph glyph-name="Eogonek" unicode="&#x118;" horiz-adv-x="1095" 
d="M662 -379q-57 0 -86 28.5t-29 74.5q0 19 6 40l29 113h-377v1557l123 122h635v-229l-123 -123h-267v-311h308v-229l-123 -123h-185v-312h390v-229l-64 -63h64v-193l-123 -123h-178zM780 -215h142v111h-86l36 145h50v147h-390v517h308v147h-308v516h390v148h-553v-1475h387
l-39 -162q-4 -24 -4 -33q0 -61 67 -61z" />
    <glyph glyph-name="eogonek" unicode="&#x119;" horiz-adv-x="1095" 
d="M662 -379q-57 0 -86 28.5t-29 74.5q0 19 6 40l29 113h-377v1557l123 122h635v-229l-123 -123h-267v-311h308v-229l-123 -123h-185v-312h390v-229l-64 -63h64v-193l-123 -123h-178zM780 -215h142v111h-86l36 145h50v147h-390v517h308v147h-308v516h390v148h-553v-1475h387
l-39 -162q-4 -24 -4 -33q0 -61 67 -61z" />
    <glyph glyph-name="Ecaron" unicode="&#x11a;" horiz-adv-x="1095" 
d="M205 -123v1557l123 122h61l-100 195l123 123h178l45 -66l65 66h179l-131 -256l-62 -62h277v-229l-123 -123h-267v-311h308v-229l-123 -123h-185v-312h390v-229l-123 -123h-635zM573 1659h144l94 174h-92l-72 -102l-76 102h-92zM369 41h553v147h-390v517h308v147h-308v516
h390v148h-553v-1475z" />
    <glyph glyph-name="ecaron" unicode="&#x11b;" horiz-adv-x="1095" 
d="M205 -123v1557l123 122h61l-100 195l123 123h178l45 -66l65 66h179l-131 -256l-62 -62h277v-229l-123 -123h-267v-311h308v-229l-123 -123h-185v-312h390v-229l-123 -123h-635zM573 1659h144l94 174h-92l-72 -102l-76 102h-92zM369 41h553v147h-390v517h308v147h-308v516
h390v148h-553v-1475z" />
    <glyph glyph-name="Gbreve" unicode="&#x11e;" horiz-adv-x="1167" 
d="M522 -154q-152 0 -245 93t-93 245v942q0 154 92 246l123 121q19 19 27 25q-108 56 -117 202l123 123h174q9 -36 29 -45l49 45h174q-6 -102 -63 -162l-90 -98q122 -16 200 -104.5t78 -229.5v-184l-123 -123h-246v201q0 68 -61 88v-514l82 82h348v-492q0 -154 -92 -246
l-123 -122q-93 -93 -246 -93zM645 1659q63 0 107 38.5t59 104.5h-98q-23 -47 -68 -47q-44 0 -67 47h-99q15 -66 59 -104.5t107 -38.5zM645 10q133 0 215 82t82 215v451h-266v-148h102v-319q0 -60 -36.5 -96.5t-96.5 -36.5t-96.5 36.5t-36.5 96.5v975q0 60 36.5 96.5
t96.5 36.5t96.5 -36.5t36.5 -96.5v-160h164v143q0 133 -82 215t-215 82t-215 -82t-82 -215v-942q0 -133 82 -215t215 -82zM614 203v243h-61v-155q0 -68 61 -88z" />
    <glyph glyph-name="gbreve" unicode="&#x11f;" horiz-adv-x="1167" 
d="M522 -154q-152 0 -245 93t-93 245v942q0 154 92 246l123 121q19 19 27 25q-108 56 -117 202l123 123h174q9 -36 29 -45l49 45h174q-6 -102 -63 -162l-90 -98q122 -16 200 -104.5t78 -229.5v-184l-123 -123h-246v201q0 68 -61 88v-514l82 82h348v-492q0 -154 -92 -246
l-123 -122q-93 -93 -246 -93zM645 1659q63 0 107 38.5t59 104.5h-98q-23 -47 -68 -47q-44 0 -67 47h-99q15 -66 59 -104.5t107 -38.5zM645 10q133 0 215 82t82 215v451h-266v-148h102v-319q0 -60 -36.5 -96.5t-96.5 -36.5t-96.5 36.5t-36.5 96.5v975q0 60 36.5 96.5
t96.5 36.5t96.5 -36.5t36.5 -96.5v-160h164v143q0 133 -82 215t-215 82t-215 -82t-82 -215v-942q0 -133 82 -215t215 -82zM614 203v243h-61v-155q0 -68 61 -88z" />
    <glyph glyph-name="Gdotaccent" unicode="&#x120;" horiz-adv-x="1167" 
d="M522 -154q-152 0 -245 93t-93 245v942q0 154 92 246l123 123q12 11 50 39q-39 31 -39 90q0 50 30 80l123 123q33 33 82 33q51 0 82 -31t31 -82t-31 -82l-78 -78q151 -1 242.5 -94t91.5 -244v-184l-123 -123h-246v201q0 68 -61 88v-514l82 82h348v-492q0 -154 -92 -246
l-123 -122q-93 -93 -246 -93zM645 1675q33 0 52.5 19.5t19.5 52.5q0 32 -20 52t-52 20t-52 -20t-20 -52t20 -52t52 -20zM645 10q133 0 215 82t82 215v451h-266v-148h102v-319q0 -60 -36.5 -96.5t-96.5 -36.5t-96.5 36.5t-36.5 96.5v975q0 60 36.5 96.5t96.5 36.5t96.5 -36.5
t36.5 -96.5v-160h164v143q0 133 -82 215t-215 82t-215 -82t-82 -215v-942q0 -133 82 -215t215 -82zM614 203v243h-61v-155q0 -68 61 -88z" />
    <glyph glyph-name="gdotaccent" unicode="&#x121;" horiz-adv-x="1167" 
d="M522 -154q-152 0 -245 93t-93 245v942q0 154 92 246l123 123q12 11 50 39q-39 31 -39 90q0 50 30 80l123 123q33 33 82 33q51 0 82 -31t31 -82t-31 -82l-78 -78q151 -1 242.5 -94t91.5 -244v-184l-123 -123h-246v201q0 68 -61 88v-514l82 82h348v-492q0 -154 -92 -246
l-123 -122q-93 -93 -246 -93zM645 1675q33 0 52.5 19.5t19.5 52.5q0 32 -20 52t-52 20t-52 -20t-20 -52t20 -52t52 -20zM645 10q133 0 215 82t82 215v451h-266v-148h102v-319q0 -60 -36.5 -96.5t-96.5 -36.5t-96.5 36.5t-36.5 96.5v975q0 60 36.5 96.5t96.5 36.5t96.5 -36.5
t36.5 -96.5v-160h164v143q0 133 -82 215t-215 82t-215 -82t-82 -215v-942q0 -133 82 -215t215 -82zM614 203v243h-61v-155q0 -68 61 -88z" />
    <glyph glyph-name="Gcommaaccent" unicode="&#x122;" horiz-adv-x="1167" 
d="M420 -512v328l37 37q-125 19 -199 108t-74 223v942q0 154 92 246l123 123q92 92 246 92q152 0 245 -93t93 -245v-184l-123 -123h-246v201q0 68 -61 88v-514l82 82h348v-492q0 -154 -92 -246l-123 -122q-11 -11 -20 -17v-155l-60 -156l-123 -123h-145zM645 10
q133 0 215 82t82 215v451h-266v-148h102v-319q0 -60 -36.5 -96.5t-96.5 -36.5t-96.5 36.5t-36.5 96.5v975q0 60 36.5 96.5t96.5 36.5t96.5 -36.5t36.5 -96.5v-160h164v143q0 133 -82 215t-215 82t-215 -82t-82 -215v-942q0 -133 82 -215t215 -82zM614 203v243h-61v-155
q0 -68 61 -88zM584 -348h78l45 123v123h-123v-246z" />
    <glyph glyph-name="gcommaaccent" unicode="&#x123;" horiz-adv-x="1167" 
d="M420 -512v328l37 37q-125 19 -199 108t-74 223v942q0 154 92 246l123 123q92 92 246 92q152 0 245 -93t93 -245v-184l-123 -123h-246v201q0 68 -61 88v-514l82 82h348v-492q0 -154 -92 -246l-123 -122q-11 -11 -20 -17v-155l-60 -156l-123 -123h-145zM645 10
q133 0 215 82t82 215v451h-266v-148h102v-319q0 -60 -36.5 -96.5t-96.5 -36.5t-96.5 36.5t-36.5 96.5v975q0 60 36.5 96.5t96.5 36.5t96.5 -36.5t36.5 -96.5v-160h164v143q0 133 -82 215t-215 82t-215 -82t-82 -215v-942q0 -133 82 -215t215 -82zM614 203v243h-61v-155
q0 -68 61 -88zM584 -348h78l45 123v123h-123v-246z" />
    <glyph glyph-name="Hbar" unicode="&#x126;" horiz-adv-x="1290" 
d="M246 -123v1065h-133v246l123 123h10v123l123 122h245v-253h62v131l123 122h245v-245h134v-246l-123 -123h-11v-942l-122 -123h-246v664h-62v-541l-122 -123h-246zM410 41h163v664h267v-664h164v1065h133v164h-133v246h-164v-254h-267v254h-163v-246h-134v-164h134v-1065z
M573 852v262h267v-262h-267zM614 893h62v57h-62v-57z" />
    <glyph glyph-name="hbar" unicode="&#x127;" horiz-adv-x="1290" 
d="M246 -123v1065h-133v246l123 123h10v123l123 122h245v-253h62v131l123 122h245v-245h134v-246l-123 -123h-11v-942l-122 -123h-246v664h-62v-541l-122 -123h-246zM410 41h163v664h267v-664h164v1065h133v164h-133v246h-164v-254h-267v254h-163v-246h-134v-164h134v-1065z
M573 852v262h267v-262h-267zM614 893h62v57h-62v-57z" />
    <glyph glyph-name="Imacron" unicode="&#x12a;" horiz-adv-x="778" 
d="M205 -123v1557l94 94h-197v192l123 123h451v-192l-103 -103v-1548l-122 -123h-246zM266 1692h369v110h-369v-110zM369 41h163v1475h-163v-1475z" />
    <glyph glyph-name="imacron" unicode="&#x12b;" horiz-adv-x="778" 
d="M205 -123v1557l94 94h-197v192l123 123h451v-192l-103 -103v-1548l-122 -123h-246zM266 1692h369v110h-369v-110zM369 41h163v1475h-163v-1475z" />
    <glyph glyph-name="Iogonek" unicode="&#x12e;" horiz-adv-x="778" 
d="M272 -379q-57 0 -85.5 28.5t-28.5 74.5q0 19 6 40l41 160v1510l123 122h245v-1556l-63 -63h63v-193l-122 -123h-179zM391 -215h141v111h-86l37 145h49v1475h-163v-1471l-41 -166q-4 -24 -4 -33q0 -61 67 -61z" />
    <glyph glyph-name="iogonek" unicode="&#x12f;" horiz-adv-x="778" 
d="M272 -379q-57 0 -85.5 28.5t-28.5 74.5q0 19 6 40l41 160v1510l123 122h245v-1556l-63 -63h63v-193l-122 -123h-179zM391 -215h141v111h-86l37 145h49v1475h-163v-1471l-41 -166q-4 -24 -4 -33q0 -61 67 -61z" />
    <glyph glyph-name="Idotaccent" unicode="&#x130;" horiz-adv-x="778" 
d="M424 1556h149v-1556l-122 -123h-246v1557l82 82q-33 11 -52.5 40t-19.5 68q0 49 31 80l121 123q33 33 84 33t81.5 -31t30.5 -82q0 -54 -31 -82zM451 1819q-32 0 -52 -20t-20 -52t20 -52t52 -20q33 0 52 19.5t19 52.5q0 32 -19.5 52t-51.5 20zM532 41v1475h-163v-1475h163
z" />
    <glyph glyph-name="dotlessi" unicode="&#x131;" horiz-adv-x="778" 
d="M205 -123v1557l123 122h245v-1556l-122 -123h-246zM369 41h163v1475h-163v-1475z" />
    <glyph glyph-name="Kcommaaccent" unicode="&#x136;" horiz-adv-x="1130" 
d="M420 -512v328l123 123h127l-97 325v-264l-122 -123h-246v1557l123 122h245v-317l89 195l122 122h271l-273 -600l287 -956l-123 -123h-198v-110l-60 -156l-123 -123h-145zM369 41h163v461l105 229l205 -690h172l-275 917l252 558h-180l-279 -617v617h-163v-1475zM584 -348
h78l45 123v123h-123v-246z" />
    <glyph glyph-name="kcommaaccent" unicode="&#x137;" horiz-adv-x="1130" 
d="M420 -512v328l123 123h127l-97 325v-264l-122 -123h-246v1557l123 122h245v-317l89 195l122 122h271l-273 -600l287 -956l-123 -123h-198v-110l-60 -156l-123 -123h-145zM369 41h163v461l105 229l205 -690h172l-275 917l252 558h-180l-279 -617v617h-163v-1475zM584 -348
h78l45 123v123h-123v-246z" />
    <glyph glyph-name="kgreenlandic" unicode="&#x138;" horiz-adv-x="1130" 
d="M205 -123v1557l123 122h245v-317l89 195l122 122h271l-273 -600l287 -956l-123 -123h-258l-115 387v-264l-122 -123h-246zM369 41h163v461l105 229l205 -690h172l-275 917l252 558h-180l-279 -617v617h-163v-1475z" />
    <glyph glyph-name="Lacute" unicode="&#x139;" horiz-adv-x="1003" 
d="M205 -123v1557l61 61h-76l115 256l123 123h240l-166 -256l-62 -62h133v-1327h349v-229l-123 -123h-594zM377 1659h102l115 174h-139zM369 41h512v147h-349v1328h-163v-1475z" />
    <glyph glyph-name="lacute" unicode="&#x13a;" horiz-adv-x="1003" 
d="M205 -123v1557l61 61h-76l115 256l123 123h240l-166 -256l-62 -62h133v-1327h349v-229l-123 -123h-594zM377 1659h102l115 174h-139zM369 41h512v147h-349v1328h-163v-1475z" />
    <glyph glyph-name="Lcommaaccent" unicode="&#x13b;" horiz-adv-x="1003" 
d="M369 -512v328l61 61h-225v1557l123 122h245v-1327h349v-229l-123 -123h-103v-110l-59 -156l-123 -123h-145zM369 41h512v147h-349v1328h-163v-1475zM532 -348h78l45 123v123h-123v-246z" />
    <glyph glyph-name="lcommaaccent" unicode="&#x13c;" horiz-adv-x="1003" 
d="M369 -512v328l61 61h-225v1557l123 122h245v-1327h349v-229l-123 -123h-103v-110l-59 -156l-123 -123h-145zM369 41h512v147h-349v1328h-163v-1475zM532 -348h78l45 123v123h-123v-246z" />
    <glyph glyph-name="Lcaron" unicode="&#x13d;" horiz-adv-x="1003" 
d="M205 -123v1557l123 122h245v-102l103 102h205v-172l-60 -155l-123 -123h-125v-877h349v-229l-123 -123h-594zM369 41h512v147h-349v1328h-163v-1475zM717 1270h78l45 123v123h-123v-246z" />
    <glyph glyph-name="lcaron" unicode="&#x13e;" horiz-adv-x="1003" 
d="M205 -123v1557l123 122h245v-102l103 102h205v-172l-60 -155l-123 -123h-125v-877h349v-229l-123 -123h-594zM369 41h512v147h-349v1328h-163v-1475zM717 1270h78l45 123v123h-123v-246z" />
    <glyph glyph-name="Lslash" unicode="&#x141;" horiz-adv-x="1044" 
d="M246 -123v637l-133 -29v230l123 123l10 2v594l123 122h245v-636l134 28v-229l-123 -123l-11 -2v-365h349v-229l-123 -123h-594zM410 41h512v147h-349v535l134 27v147l-134 -27v646h-163v-682l-134 -27v-148l134 27v-645z" />
    <glyph glyph-name="lslash" unicode="&#x142;" horiz-adv-x="1044" 
d="M246 -123v637l-133 -29v230l123 123l10 2v594l123 122h245v-636l134 28v-229l-123 -123l-11 -2v-365h349v-229l-123 -123h-594zM410 41h512v147h-349v535l134 27v147l-134 -27v646h-163v-682l-134 -27v-148l134 27v-645z" />
    <glyph glyph-name="Nacute" unicode="&#x143;" horiz-adv-x="1249" 
d="M205 -123v1557l123 122h147l86 195l123 123h242l-166 -256l-125 -125h-82l123 -350v291l123 122h245v-1556l-122 -123h-205l-144 408v-285l-122 -123h-246zM633 1659h104l113 174h-139zM369 41h163v944l336 -944h136v1475h-164v-949l-338 949h-133v-1475z" />
    <glyph glyph-name="nacute" unicode="&#x144;" horiz-adv-x="1249" 
d="M205 -123v1557l123 122h147l86 195l123 123h242l-166 -256l-125 -125h-82l123 -350v291l123 122h245v-1556l-122 -123h-205l-144 408v-285l-122 -123h-246zM633 1659h104l113 174h-139zM369 41h163v944l336 -944h136v1475h-164v-949l-338 949h-133v-1475z" />
    <glyph glyph-name="Ncommaaccent" unicode="&#x145;" horiz-adv-x="1249" 
d="M461 -512v328l123 123h110l-121 346v-285l-122 -123h-246v1557l123 122h202l146 -413v291l123 122h245v-1556l-122 -123h-134v-110l-59 -156l-123 -123h-145zM369 41h163v944l336 -944h136v1475h-164v-949l-338 949h-133v-1475zM625 -348h77l46 123v123h-123v-246z" />
    <glyph glyph-name="ncommaaccent" unicode="&#x146;" horiz-adv-x="1249" 
d="M461 -512v328l123 123h110l-121 346v-285l-122 -123h-246v1557l123 122h202l146 -413v291l123 122h245v-1556l-122 -123h-134v-110l-59 -156l-123 -123h-145zM369 41h163v944l336 -944h136v1475h-164v-949l-338 949h-133v-1475zM625 -348h77l46 123v123h-123v-246z" />
    <glyph glyph-name="Ncaron" unicode="&#x147;" horiz-adv-x="1249" 
d="M205 -123v1557l123 122h102l-100 195l123 123h178l45 -66l65 66h179l-132 -256l-131 -131h-102l121 -344v291l123 122h245v-1556l-122 -123h-205l-144 408v-285l-122 -123h-246zM614 1659h144l94 174h-92l-72 -102l-76 102h-92zM369 41h163v944l336 -944h136v1475h-164
v-949l-338 949h-133v-1475z" />
    <glyph glyph-name="ncaron" unicode="&#x148;" horiz-adv-x="1249" 
d="M205 -123v1557l123 122h102l-100 195l123 123h178l45 -66l65 66h179l-132 -256l-131 -131h-102l121 -344v291l123 122h245v-1556l-122 -123h-205l-144 408v-285l-122 -123h-246zM614 1659h144l94 174h-92l-72 -102l-76 102h-92zM369 41h163v944l336 -944h136v1475h-164
v-949l-338 949h-133v-1475z" />
    <glyph glyph-name="Eng" unicode="&#x14a;" horiz-adv-x="1249" 
d="M492 -434v246l122 122h62v60l-103 289v-283l-122 -123h-246v1557l123 122h202l146 -413v291l123 122h245v-1529q0 -154 -92 -246l-123 -123q-92 -92 -245 -92h-92zM655 -270h52q133 0 215 82t82 215v1489h-164v-949l-338 949h-133v-1475h163v944l308 -864v-94
q0 -60 -36.5 -96.5t-96.5 -36.5h-52v-164z" />
    <glyph glyph-name="eng" unicode="&#x14b;" horiz-adv-x="1249" 
d="M492 -434v246l122 122h62v60l-103 289v-283l-122 -123h-246v1557l123 122h202l146 -413v291l123 122h245v-1529q0 -154 -92 -246l-123 -123q-92 -92 -245 -92h-92zM655 -270h52q133 0 215 82t82 215v1489h-164v-949l-338 949h-133v-1475h163v944l308 -864v-94
q0 -60 -36.5 -96.5t-96.5 -36.5h-52v-164z" />
    <glyph glyph-name="Omacron" unicode="&#x14c;" horiz-adv-x="1167" 
d="M522 -154q-152 0 -245 93t-93 245v942q0 154 92 246l125 125h-104v193l123 122h450v-192l-65 -66q84 -40 131 -119.5t47 -185.5v-942q0 -154 -92 -246l-123 -122q-93 -93 -246 -93zM461 1661h368v111h-368v-111zM645 10q133 0 215 82t82 215v942q0 133 -82 215t-215 82
t-215 -82t-82 -215v-942q0 -133 82 -215t215 -82zM645 158q-60 0 -96.5 36.5t-36.5 96.5v975q0 60 36.5 96.5t96.5 36.5t96.5 -36.5t36.5 -96.5v-975q0 -60 -36.5 -96.5t-96.5 -36.5zM614 203v940q0 68 -61 88v-940q0 -68 61 -88z" />
    <glyph glyph-name="omacron" unicode="&#x14d;" horiz-adv-x="1167" 
d="M522 -154q-152 0 -245 93t-93 245v942q0 154 92 246l125 125h-104v193l123 122h450v-192l-65 -66q84 -40 131 -119.5t47 -185.5v-942q0 -154 -92 -246l-123 -122q-93 -93 -246 -93zM461 1661h368v111h-368v-111zM645 10q133 0 215 82t82 215v942q0 133 -82 215t-215 82
t-215 -82t-82 -215v-942q0 -133 82 -215t215 -82zM645 158q-60 0 -96.5 36.5t-36.5 96.5v975q0 60 36.5 96.5t96.5 36.5t96.5 -36.5t36.5 -96.5v-975q0 -60 -36.5 -96.5t-96.5 -36.5zM614 203v940q0 68 -61 88v-940q0 -68 61 -88z" />
    <glyph glyph-name="Ohungarumlaut" unicode="&#x150;" horiz-adv-x="1167" 
d="M522 -154q-152 0 -245 93t-93 245v942q0 154 92 246l123 123h-92l115 256l123 123h428l-166 -256l-47 -47q104 -31 163.5 -116t59.5 -206v-942q0 -154 -92 -246l-123 -122q-93 -93 -246 -93zM494 1659h81l115 174h-119zM702 1659h82l115 174h-119zM645 10q133 0 215 82
t82 215v942q0 133 -82 215t-215 82t-215 -82t-82 -215v-942q0 -133 82 -215t215 -82zM645 158q-60 0 -96.5 36.5t-36.5 96.5v975q0 60 36.5 96.5t96.5 36.5t96.5 -36.5t36.5 -96.5v-975q0 -60 -36.5 -96.5t-96.5 -36.5zM614 203v940q0 68 -61 88v-940q0 -68 61 -88z" />
    <glyph glyph-name="ohungarumlaut" unicode="&#x151;" horiz-adv-x="1167" 
d="M522 -154q-152 0 -245 93t-93 245v942q0 154 92 246l123 123h-92l115 256l123 123h428l-166 -256l-47 -47q104 -31 163.5 -116t59.5 -206v-942q0 -154 -92 -246l-123 -122q-93 -93 -246 -93zM494 1659h81l115 174h-119zM702 1659h82l115 174h-119zM645 10q133 0 215 82
t82 215v942q0 133 -82 215t-215 82t-215 -82t-82 -215v-942q0 -133 82 -215t215 -82zM645 158q-60 0 -96.5 36.5t-36.5 96.5v975q0 60 36.5 96.5t96.5 36.5t96.5 -36.5t36.5 -96.5v-975q0 -60 -36.5 -96.5t-96.5 -36.5zM614 203v940q0 68 -61 88v-940q0 -68 61 -88z" />
    <glyph glyph-name="OE" unicode="&#x152;" horiz-adv-x="1556" 
d="M522 -123q-152 0 -245 93t-93 245v881q0 153 92 245l123 123q92 92 246 92h758v-229l-123 -123h-266v-311h307v-229l-123 -123h-184v-312h389v-229l-123 -123h-758zM645 41h717v147h-389v517h307v147h-307v516h389v148h-717q-133 0 -215 -82t-82 -215v-881
q0 -134 82 -215.5t215 -81.5zM645 188q-60 0 -96.5 37t-36.5 97v913q0 60 36.5 96.5t96.5 36.5h164v-1180h-164zM645 229v975h-92v-882q0 -41 25.5 -67t66.5 -26z" />
    <glyph glyph-name="oe" unicode="&#x153;" horiz-adv-x="1556" 
d="M522 -123q-152 0 -245 93t-93 245v881q0 153 92 245l123 123q92 92 246 92h758v-229l-123 -123h-266v-311h307v-229l-123 -123h-184v-312h389v-229l-123 -123h-758zM645 41h717v147h-389v517h307v147h-307v516h389v148h-717q-133 0 -215 -82t-82 -215v-881
q0 -134 82 -215.5t215 -81.5zM645 188q-60 0 -96.5 37t-36.5 97v913q0 60 36.5 96.5t96.5 36.5h164v-1180h-164zM645 229v975h-92v-882q0 -41 25.5 -67t66.5 -26z" />
    <glyph glyph-name="Racute" unicode="&#x154;" horiz-adv-x="1198" 
d="M205 -123v1557l123 122h102l86 195l123 123h242l-168 -256l-62 -62h15q152 0 245 -92.5t93 -244.5v-308q0 -97 -39.5 -171.5t-110.5 -116.5l190 -623l-122 -123h-256l-93 299v-176l-122 -123h-246zM588 1659h102l115 174h-139zM369 41h163v573h111l174 -573h172l-184 602
q74 34 116 104t42 164v308q0 133 -81.5 215t-215.5 82h-297v-1475zM532 762v606h134q60 0 96.5 -36.5t36.5 -96.5v-340q0 -60 -36.5 -96.5t-96.5 -36.5h-134zM573 803h62v309q0 68 -62 88v-397z" />
    <glyph glyph-name="racute" unicode="&#x155;" horiz-adv-x="1198" 
d="M205 -123v1557l123 122h102l86 195l123 123h242l-168 -256l-62 -62h15q152 0 245 -92.5t93 -244.5v-308q0 -97 -39.5 -171.5t-110.5 -116.5l190 -623l-122 -123h-256l-93 299v-176l-122 -123h-246zM588 1659h102l115 174h-139zM369 41h163v573h111l174 -573h172l-184 602
q74 34 116 104t42 164v308q0 133 -81.5 215t-215.5 82h-297v-1475zM532 762v606h134q60 0 96.5 -36.5t36.5 -96.5v-340q0 -60 -36.5 -96.5t-96.5 -36.5h-134zM573 803h62v309q0 68 -62 88v-397z" />
    <glyph glyph-name="Rcommaaccent" unicode="&#x156;" horiz-adv-x="1198" 
d="M428 -512v328l123 123h94l-72 237v-176l-122 -123h-246v1557l123 122h338q152 0 245 -92.5t93 -244.5v-308q0 -97 -39.5 -171.5t-110.5 -116.5l190 -623l-122 -123h-166v-110l-60 -156l-123 -123h-145zM369 41h163v573h111l174 -573h172l-184 602q74 34 116 104t42 164
v308q0 133 -81.5 215t-215.5 82h-297v-1475zM532 760v608h134q60 0 96.5 -36.5t36.5 -96.5v-342q0 -60 -36.5 -96.5t-96.5 -36.5h-134zM573 801h62v311q0 68 -62 88v-399zM592 -348h76l47 123v123h-123v-246z" />
    <glyph glyph-name="rcommaaccent" unicode="&#x157;" horiz-adv-x="1198" 
d="M428 -512v328l123 123h94l-72 237v-176l-122 -123h-246v1557l123 122h338q152 0 245 -92.5t93 -244.5v-308q0 -97 -39.5 -171.5t-110.5 -116.5l190 -623l-122 -123h-166v-110l-60 -156l-123 -123h-145zM369 41h163v573h111l174 -573h172l-184 602q74 34 116 104t42 164
v308q0 133 -81.5 215t-215.5 82h-297v-1475zM532 760v608h134q60 0 96.5 -36.5t36.5 -96.5v-342q0 -60 -36.5 -96.5t-96.5 -36.5h-134zM573 801h62v311q0 68 -62 88v-399zM592 -348h76l47 123v123h-123v-246z" />
    <glyph glyph-name="Rcaron" unicode="&#x158;" horiz-adv-x="1198" 
d="M205 -123v1557l123 122h51l-100 195l122 123h179l45 -66l65 66h178l-131 -256l-61 -62q148 -3 238 -95t90 -242v-308q0 -97 -39.5 -171.5t-110.5 -116.5l190 -623l-122 -123h-256l-93 299v-176l-122 -123h-246zM563 1659h144l94 174h-92l-72 -102l-76 102h-92zM369 41
h163v573h111l174 -573h172l-184 602q74 34 116 104t42 164v308q0 133 -81.5 215t-215.5 82h-297v-1475zM532 762v606h134q60 0 96.5 -36.5t36.5 -96.5v-340q0 -60 -36.5 -96.5t-96.5 -36.5h-134zM573 803h62v309q0 68 -62 88v-397z" />
    <glyph glyph-name="rcaron" unicode="&#x159;" horiz-adv-x="1198" 
d="M205 -123v1557l123 122h51l-100 195l122 123h179l45 -66l65 66h178l-131 -256l-61 -62q148 -3 238 -95t90 -242v-308q0 -97 -39.5 -171.5t-110.5 -116.5l190 -623l-122 -123h-256l-93 299v-176l-122 -123h-246zM563 1659h144l94 174h-92l-72 -102l-76 102h-92zM369 41
h163v573h111l174 -573h172l-184 602q74 34 116 104t42 164v308q0 133 -81.5 215t-215.5 82h-297v-1475zM532 762v606h134q60 0 96.5 -36.5t36.5 -96.5v-340q0 -60 -36.5 -96.5t-96.5 -36.5h-134zM573 803h62v309q0 68 -62 88v-397z" />
    <glyph glyph-name="Sacute" unicode="&#x15a;" 
d="M512 -154q-152 0 -245 93t-93 245v185l123 123h205q-24 25 -67.5 65.5t-74.5 69.5t-68.5 73t-61.5 85.5t-40 99t-16 119.5v122q0 154 92 246l123 123h-24l114 256l123 123h240l-166 -256l-31 -31q148 -3 238 -96t90 -242v-184l-123 -123h-205q24 -25 67.5 -65.5
t74.5 -69.5t68.5 -73t61.5 -85.5t40 -99t16 -119.5v-123q0 -152 -94 -246l-123 -122q-90 -93 -244 -93zM551 1659h102l113 174h-137zM635 10q133 0 215 82t82 215v121q0 73 -23.5 138t-61.5 113.5t-84 93t-92 86.5t-84 84t-61.5 94t-23.5 110v119q0 60 36.5 96.5t96.5 36.5
t96.5 -36.5t36.5 -96.5v-160h164v143q0 133 -82 215t-215 82t-215 -82t-82 -215v-121q0 -73 23.5 -138t61.5 -113.5t84 -93t92 -86t84 -83.5t61.5 -94t23.5 -110v-119q0 -60 -36.5 -96.5t-96.5 -36.5q-59 0 -96 43.5t-37 105.5v144h-164v-144q0 -133 82 -215t215 -82z
M604 987v156q0 68 -61 88v-84q0 -83 61 -160zM604 203v84q0 82 -61 159v-155q0 -69 61 -88z" />
    <glyph glyph-name="sacute" unicode="&#x15b;" 
d="M512 -154q-152 0 -245 93t-93 245v185l123 123h205q-24 25 -67.5 65.5t-74.5 69.5t-68.5 73t-61.5 85.5t-40 99t-16 119.5v122q0 154 92 246l123 123h-24l114 256l123 123h240l-166 -256l-31 -31q148 -3 238 -96t90 -242v-184l-123 -123h-205q24 -25 67.5 -65.5
t74.5 -69.5t68.5 -73t61.5 -85.5t40 -99t16 -119.5v-123q0 -152 -94 -246l-123 -122q-90 -93 -244 -93zM551 1659h102l113 174h-137zM635 10q133 0 215 82t82 215v121q0 73 -23.5 138t-61.5 113.5t-84 93t-92 86.5t-84 84t-61.5 94t-23.5 110v119q0 60 36.5 96.5t96.5 36.5
t96.5 -36.5t36.5 -96.5v-160h164v143q0 133 -82 215t-215 82t-215 -82t-82 -215v-121q0 -73 23.5 -138t61.5 -113.5t84 -93t92 -86t84 -83.5t61.5 -94t23.5 -110v-119q0 -60 -36.5 -96.5t-96.5 -36.5q-59 0 -96 43.5t-37 105.5v144h-164v-144q0 -133 82 -215t215 -82z
M604 987v156q0 68 -61 88v-84q0 -83 61 -160zM604 203v84q0 82 -61 159v-155q0 -69 61 -88z" />
    <glyph glyph-name="Scedilla" unicode="&#x15e;" 
d="M365 -379v193l45 45q-110 29 -173 115t-63 210v185l123 123h205q-24 25 -67.5 65.5t-74.5 69.5t-68.5 73t-61.5 85.5t-40 99t-16 119.5v122q0 154 92 246l123 123q92 92 246 92q152 0 245 -93t93 -245v-184l-123 -123h-205q24 -25 67.5 -65.5t74.5 -69.5t68.5 -73
t61.5 -85.5t40 -99t16 -119.5v-123q0 -154 -92 -246l-119 -116v-105q0 -38 -29 -67l-123 -123q-29 -29 -67 -29h-178zM528 -215h138q23 0 39 16t16 39v180q97 25 154 101.5t57 185.5v121q0 73 -23.5 138t-61.5 113.5t-84 93t-92 86.5t-84 84t-61.5 94t-23.5 110v119
q0 60 36.5 96.5t96.5 36.5t96.5 -36.5t36.5 -96.5v-160h164v143q0 133 -82 215t-215 82t-215 -82t-82 -215v-121q0 -73 23.5 -138t61.5 -113.5t84 -93t92 -86t84 -83.5t61.5 -94t23.5 -110v-119q0 -60 -36.5 -96.5t-96.5 -36.5t-96.5 36.5t-36.5 96.5v160h-164v-144
q0 -127 74.5 -208t197.5 -89v-114h-82v-111zM604 987v156q0 68 -61 88v-84q0 -83 61 -160zM604 203v84q0 82 -61 159v-155q0 -68 61 -88z" />
    <glyph glyph-name="scedilla" unicode="&#x15f;" 
d="M365 -379v193l45 45q-110 29 -173 115t-63 210v185l123 123h205q-24 25 -67.5 65.5t-74.5 69.5t-68.5 73t-61.5 85.5t-40 99t-16 119.5v122q0 154 92 246l123 123q92 92 246 92q152 0 245 -93t93 -245v-184l-123 -123h-205q24 -25 67.5 -65.5t74.5 -69.5t68.5 -73
t61.5 -85.5t40 -99t16 -119.5v-123q0 -154 -92 -246l-119 -116v-105q0 -38 -29 -67l-123 -123q-29 -29 -67 -29h-178zM528 -215h138q23 0 39 16t16 39v180q97 25 154 101.5t57 185.5v121q0 73 -23.5 138t-61.5 113.5t-84 93t-92 86.5t-84 84t-61.5 94t-23.5 110v119
q0 60 36.5 96.5t96.5 36.5t96.5 -36.5t36.5 -96.5v-160h164v143q0 133 -82 215t-215 82t-215 -82t-82 -215v-121q0 -73 23.5 -138t61.5 -113.5t84 -93t92 -86t84 -83.5t61.5 -94t23.5 -110v-119q0 -60 -36.5 -96.5t-96.5 -36.5t-96.5 36.5t-36.5 96.5v160h-164v-144
q0 -127 74.5 -208t197.5 -89v-114h-82v-111zM604 987v156q0 68 -61 88v-84q0 -83 61 -160zM604 203v84q0 82 -61 159v-155q0 -68 61 -88z" />
    <glyph glyph-name="Scaron" unicode="&#x160;" 
d="M512 -154q-152 0 -245 93t-93 245v185l123 123h205q-24 25 -67.5 65.5t-74.5 69.5t-68.5 73t-61.5 85.5t-40 99t-16 119.5v122q0 154 92 246l123 123l14 12l-124 244l122 123h177l47 -68l65 68h176l-131 -256l-35 -35q125 -20 199 -110t74 -224v-184l-123 -123h-205
q24 -25 67.5 -65.5t74.5 -69.5t68.5 -73t61.5 -85.5t40 -99t16 -119.5v-123q0 -154 -92 -246l-123 -122q-93 -93 -246 -93zM563 1659h142l94 174h-90l-74 -102l-76 102h-90zM635 10q133 0 215 82t82 215v121q0 73 -23.5 138t-61.5 113.5t-84 93t-92 86.5t-84 84t-61.5 94
t-23.5 110v119q0 60 36.5 96.5t96.5 36.5t96.5 -36.5t36.5 -96.5v-160h164v143q0 133 -82 215t-215 82t-215 -82t-82 -215v-121q0 -73 23.5 -138t61.5 -113.5t84 -93t92 -86t84 -83.5t61.5 -94t23.5 -110v-119q0 -60 -36.5 -96.5t-96.5 -36.5t-96.5 36.5t-36.5 96.5v160
h-164v-144q0 -133 82 -215t215 -82zM604 987v156q0 68 -61 88v-84q0 -83 61 -160zM604 203v84q0 82 -61 159v-155q0 -68 61 -88z" />
    <glyph glyph-name="scaron" unicode="&#x161;" 
d="M512 -154q-152 0 -245 93t-93 245v185l123 123h205q-24 25 -67.5 65.5t-74.5 69.5t-68.5 73t-61.5 85.5t-40 99t-16 119.5v122q0 154 92 246l123 123l14 12l-124 244l122 123h177l47 -68l65 68h176l-131 -256l-35 -35q125 -20 199 -110t74 -224v-184l-123 -123h-205
q24 -25 67.5 -65.5t74.5 -69.5t68.5 -73t61.5 -85.5t40 -99t16 -119.5v-123q0 -154 -92 -246l-123 -122q-93 -93 -246 -93zM563 1659h142l94 174h-90l-74 -102l-76 102h-90zM635 10q133 0 215 82t82 215v121q0 73 -23.5 138t-61.5 113.5t-84 93t-92 86.5t-84 84t-61.5 94
t-23.5 110v119q0 60 36.5 96.5t96.5 36.5t96.5 -36.5t36.5 -96.5v-160h164v143q0 133 -82 215t-215 82t-215 -82t-82 -215v-121q0 -73 23.5 -138t61.5 -113.5t84 -93t92 -86t84 -83.5t61.5 -94t23.5 -110v-119q0 -60 -36.5 -96.5t-96.5 -36.5t-96.5 36.5t-36.5 96.5v160
h-164v-144q0 -133 82 -215t215 -82zM604 987v156q0 68 -61 88v-84q0 -83 61 -160zM604 203v84q0 82 -61 159v-155q0 -68 61 -88z" />
    <glyph glyph-name="uni0162" unicode="&#x162;" horiz-adv-x="1105" 
d="M313 -379v193l64 63h-8v1327h-277v230l123 122h799v-229l-123 -123h-154v-1204l-26 -27v-133q0 -38 -27 -65l-125 -125q-29 -29 -67 -29h-179zM477 -215h137q23 0 39.5 16t16.5 39v201h26v1327h277v148h-717v-148h276v-1327h27v-145h-82v-111z" />
    <glyph glyph-name="uni0163" unicode="&#x163;" horiz-adv-x="1105" 
d="M313 -379v193l64 63h-8v1327h-277v230l123 122h799v-229l-123 -123h-154v-1204l-26 -27v-133q0 -38 -27 -65l-125 -125q-29 -29 -67 -29h-179zM477 -215h137q23 0 39.5 16t16.5 39v201h26v1327h277v148h-717v-148h276v-1327h27v-145h-82v-111z" />
    <glyph glyph-name="Tcaron" unicode="&#x164;" horiz-adv-x="1105" 
d="M369 -123v1327h-277v230l123 122h141l-98 195l123 123h176l47 -68l66 68h176l-131 -256l-62 -62h361v-229l-123 -123h-154v-1204l-123 -123h-245zM543 1659h141l94 174h-90l-74 -102l-75 102h-90zM532 41h164v1327h277v148h-717v-148h276v-1327z" />
    <glyph glyph-name="tcaron" unicode="&#x165;" horiz-adv-x="1105" 
d="M369 -123v1327h-277v230l123 122h141l-98 195l123 123h176l47 -68l66 68h176l-131 -256l-62 -62h361v-229l-123 -123h-154v-1204l-123 -123h-245zM543 1659h141l94 174h-90l-74 -102l-75 102h-90zM532 41h164v1327h277v148h-717v-148h276v-1327z" />
    <glyph glyph-name="Tbar" unicode="&#x166;" horiz-adv-x="1105" 
d="M369 -123v664h-185v229l123 123h62v311h-277v230l123 122h799v-229l-123 -123h-154v-311h185v-229l-123 -123h-62v-541l-123 -123h-245zM532 41h164v664h185v147h-185v516h277v148h-717v-148h276v-516h-184v-147h184v-664z" />
    <glyph glyph-name="tbar" unicode="&#x167;" horiz-adv-x="1105" 
d="M369 -123v664h-185v229l123 123h62v311h-277v230l123 122h799v-229l-123 -123h-154v-311h185v-229l-123 -123h-62v-541l-123 -123h-245zM532 41h164v664h185v147h-185v516h277v148h-717v-148h276v-516h-184v-147h184v-664z" />
    <glyph glyph-name="Umacron" unicode="&#x16a;" horiz-adv-x="1187" 
d="M532 -154q-152 0 -244.5 93t-92.5 245v1250l112 112v174l123 123h451v-192l-93 -95h205v-1249q0 -154 -92 -246l-123 -122q-93 -93 -246 -93zM471 1692h369v110h-369v-110zM625 203v1231l92 94h-154v-1237q0 -68 62 -88zM655 10q133 0 215 82t82 215v1209h-164v-1225
q0 -60 -36.5 -96.5t-96.5 -36.5t-96.5 36.5t-36.5 96.5v1225h-164v-1209q0 -133 82 -215t215 -82z" />
    <glyph glyph-name="umacron" unicode="&#x16b;" horiz-adv-x="1187" 
d="M532 -154q-152 0 -244.5 93t-92.5 245v1250l112 112v174l123 123h451v-192l-93 -95h205v-1249q0 -154 -92 -246l-123 -122q-93 -93 -246 -93zM471 1692h369v110h-369v-110zM625 203v1231l92 94h-154v-1237q0 -68 62 -88zM655 10q133 0 215 82t82 215v1209h-164v-1225
q0 -60 -36.5 -96.5t-96.5 -36.5t-96.5 36.5t-36.5 96.5v1225h-164v-1209q0 -133 82 -215t215 -82z" />
    <glyph glyph-name="Uring" unicode="&#x16e;" horiz-adv-x="1187" 
d="M532 -154q-152 0 -244.5 93t-92.5 245v1250l122 122h89q-27 42 -27 95q0 67 43 110l121 123q43 43 112 43t111.5 -42t42.5 -111q0 -73 -43 -113l-123 -123q-33 -33 -80 -39v-1208q0 -68 62 -88v1231l123 122h245v-1249q0 -154 -92 -246l-123 -122q-93 -93 -246 -93z
M655 1651q56 0 89.5 33t33.5 90q0 55 -33.5 88.5t-89.5 33.5t-89.5 -33.5t-33.5 -88.5q0 -56 34 -89.5t89 -33.5zM655 1720q-23 0 -37 14.5t-14 37.5t14 37t37 14q24 0 38 -13.5t14 -37.5q0 -23 -14.5 -37.5t-37.5 -14.5zM655 10q133 0 215 82t82 215v1209h-164v-1225
q0 -60 -36.5 -96.5t-96.5 -36.5t-96.5 36.5t-36.5 96.5v1225h-164v-1209q0 -133 82 -215t215 -82z" />
    <glyph glyph-name="uring" unicode="&#x16f;" horiz-adv-x="1187" 
d="M532 -154q-152 0 -244.5 93t-92.5 245v1250l122 122h89q-27 42 -27 95q0 67 43 110l121 123q43 43 112 43t111.5 -42t42.5 -111q0 -73 -43 -113l-123 -123q-33 -33 -80 -39v-1208q0 -68 62 -88v1231l123 122h245v-1249q0 -154 -92 -246l-123 -122q-93 -93 -246 -93z
M655 1651q56 0 89.5 33t33.5 90q0 55 -33.5 88.5t-89.5 33.5t-89.5 -33.5t-33.5 -88.5q0 -56 34 -89.5t89 -33.5zM655 1720q-23 0 -37 14.5t-14 37.5t14 37t37 14q24 0 38 -13.5t14 -37.5q0 -23 -14.5 -37.5t-37.5 -14.5zM655 10q133 0 215 82t82 215v1209h-164v-1225
q0 -60 -36.5 -96.5t-96.5 -36.5t-96.5 36.5t-36.5 96.5v1225h-164v-1209q0 -133 82 -215t215 -82z" />
    <glyph glyph-name="Uhungarumlaut" unicode="&#x170;" horiz-adv-x="1187" 
d="M532 -154q-152 0 -244.5 93t-92.5 245v1250l122 122h33l88 195l123 123h428l-166 -256l-61 -62h231v-1249q0 -154 -92 -246l-123 -122q-93 -93 -246 -93zM510 1659h82l115 174h-119zM719 1659h82l114 174h-118zM655 10q133 0 215 82t82 215v1209h-164v-1225
q0 -60 -36.5 -96.5t-96.5 -36.5t-96.5 36.5t-36.5 96.5v1225h-164v-1209q0 -133 82 -215t215 -82zM625 203v1231l61 61h-123v-1204q0 -68 62 -88z" />
    <glyph glyph-name="uhungarumlaut" unicode="&#x171;" horiz-adv-x="1187" 
d="M532 -154q-152 0 -244.5 93t-92.5 245v1250l122 122h33l88 195l123 123h428l-166 -256l-61 -62h231v-1249q0 -154 -92 -246l-123 -122q-93 -93 -246 -93zM510 1659h82l115 174h-119zM719 1659h82l114 174h-118zM655 10q133 0 215 82t82 215v1209h-164v-1225
q0 -60 -36.5 -96.5t-96.5 -36.5t-96.5 36.5t-36.5 96.5v1225h-164v-1209q0 -133 82 -215t215 -82zM625 203v1231l61 61h-123v-1204q0 -68 62 -88z" />
    <glyph glyph-name="Uogonek" unicode="&#x172;" horiz-adv-x="1187" 
d="M514 -379q-57 0 -86 28.5t-29 74.5q0 16 7 40l24 95q-109 28 -172 114t-63 211v1250l122 122h246v-1265q0 -33 17 -56.5t45 -31.5v1231l123 122h245v-1249q0 -154 -92 -246l-125 -124h39v-193l-123 -123h-178zM633 -215h141v111h-86l31 118q107 19 170 97.5t63 195.5
v1209h-164v-1225q0 -60 -36.5 -96.5t-96.5 -36.5t-96.5 36.5t-36.5 96.5v1225h-164v-1209q0 -120 66 -199t178 -96l-33 -133q-4 -24 -4 -33q0 -61 68 -61z" />
    <glyph glyph-name="uogonek" unicode="&#x173;" horiz-adv-x="1187" 
d="M514 -379q-57 0 -86 28.5t-29 74.5q0 16 7 40l24 95q-109 28 -172 114t-63 211v1250l122 122h246v-1265q0 -33 17 -56.5t45 -31.5v1231l123 122h245v-1249q0 -154 -92 -246l-125 -124h39v-193l-123 -123h-178zM633 -215h141v111h-86l31 118q107 19 170 97.5t63 195.5
v1209h-164v-1225q0 -60 -36.5 -96.5t-96.5 -36.5t-96.5 36.5t-36.5 96.5v1225h-164v-1209q0 -120 66 -199t178 -96l-33 -133q-4 -24 -4 -33q0 -61 68 -61z" />
    <glyph glyph-name="Wcircumflex" unicode="&#x174;" horiz-adv-x="1519" 
d="M258 -123l-176 1557l123 122h248l55 -606l67 484l62 61h-172l131 256l123 123h203l131 -256l-103 -102l78 -545l41 463l123 122h246l-176 -1556l-123 -123h-328l-59 471l-43 -348l-123 -123h-328zM655 1659h90l76 102l74 -102h90l-94 174h-141zM418 41h254l149 1145
l150 -1145h256l164 1475h-164l-129 -1311l-191 1311h-172l-190 -1311l-129 1311h-164z" />
    <glyph glyph-name="wcircumflex" unicode="&#x175;" horiz-adv-x="1519" 
d="M258 -123l-176 1557l123 122h248l55 -606l67 484l62 61h-172l131 256l123 123h203l131 -256l-103 -102l78 -545l41 463l123 122h246l-176 -1556l-123 -123h-328l-59 471l-43 -348l-123 -123h-328zM655 1659h90l76 102l74 -102h90l-94 174h-141zM418 41h254l149 1145
l150 -1145h256l164 1475h-164l-129 -1311l-191 1311h-172l-190 -1311l-129 1311h-164z" />
    <glyph glyph-name="Ycircumflex" unicode="&#x176;" horiz-adv-x="1089" 
d="M360 -123v707l-309 850l123 122h109l98 195l123 123h205l131 -256l-62 -62h260l-309 -849v-707l-123 -123h-246zM440 1659h92l76 102l72 -102h92l-94 174h-143zM567 1196l86 238l62 61h-176l-45 66l-43 -43zM524 41h164v674l291 801h-174l-199 -547l-198 547h-175
l291 -801v-674z" />
    <glyph glyph-name="ycircumflex" unicode="&#x177;" horiz-adv-x="1089" 
d="M360 -123v707l-309 850l123 122h109l98 195l123 123h205l131 -256l-62 -62h260l-309 -849v-707l-123 -123h-246zM440 1659h92l76 102l72 -102h92l-94 174h-143zM567 1196l86 238l62 61h-176l-45 66l-43 -43zM524 41h164v674l291 801h-174l-199 -547l-198 547h-175
l291 -801v-674z" />
    <glyph glyph-name="Ydieresis" unicode="&#x178;" horiz-adv-x="1089" 
d="M360 -123v707l-309 850l123 122h51q-18 27 -18 68q0 49 31 80l120 123q33 33 84 33t82 -31t31 -82q0 -54 -31 -82l-108 -109h20l131 -360l86 238l123 122h262l-309 -849v-707l-123 -123h-246zM647 1511q-51 0 -81.5 31t-30.5 82q0 50 30 80l121 123q33 33 84 33t82 -31
t31 -82q0 -54 -31 -82l-123 -123q-31 -31 -82 -31zM442 1675q33 0 52.5 19.5t19.5 52.5q0 32 -20 52t-52 20t-51.5 -20t-19.5 -52t19.5 -52t51.5 -20zM770 1675q33 0 52.5 19.5t19.5 52.5q0 32 -20 52t-52 20t-52 -20t-20 -52t20 -52t52 -20zM524 41h164v674l291 801h-174
l-199 -547l-198 547h-175l291 -801v-674z" />
    <glyph glyph-name="Zacute" unicode="&#x179;" horiz-adv-x="1105" 
d="M143 -123v143l408 1184h-387v230l123 122h151l86 195l123 123h242l-168 -256l-62 -62h304v-143l-408 -1184h387v-229l-123 -123h-676zM596 1659h104l113 174h-139zM307 41h594v147h-403l424 1231v97h-594v-148h403l-424 -1231v-96z" />
    <glyph glyph-name="zacute" unicode="&#x17a;" horiz-adv-x="1105" 
d="M143 -123v143l408 1184h-387v230l123 122h151l86 195l123 123h242l-168 -256l-62 -62h304v-143l-408 -1184h387v-229l-123 -123h-676zM596 1659h104l113 174h-139zM307 41h594v147h-403l424 1231v97h-594v-148h403l-424 -1231v-96z" />
    <glyph glyph-name="Zdotaccent" unicode="&#x17b;" horiz-adv-x="1105" 
d="M143 -123v143l408 1184h-387v230l123 122h141q-18 27 -18 68q0 50 30 80l121 123q33 33 84 33t82 -31t31 -82q0 -54 -31 -82l-109 -109h345v-143l-402 -1184h381v-229l-123 -123h-676zM645 1675q33 0 52.5 19.5t19.5 52.5q0 32 -20 52t-52 20t-52 -20t-20 -52t20 -52
t52 -20zM307 41h594v147h-397l418 1231v97h-594v-148h403l-424 -1231v-96z" />
    <glyph glyph-name="zdotaccent" unicode="&#x17c;" horiz-adv-x="1105" 
d="M143 -123v143l408 1184h-387v230l123 122h141q-18 27 -18 68q0 50 30 80l121 123q33 33 84 33t82 -31t31 -82q0 -54 -31 -82l-109 -109h345v-143l-402 -1184h381v-229l-123 -123h-676zM645 1675q33 0 52.5 19.5t19.5 52.5q0 32 -20 52t-52 20t-52 -20t-20 -52t20 -52
t52 -20zM307 41h594v147h-397l418 1231v97h-594v-148h403l-424 -1231v-96z" />
    <glyph glyph-name="Zcaron" unicode="&#x17d;" horiz-adv-x="1105" 
d="M143 -123v143l408 1186h-387v228l123 122h110l-98 195l123 123h176l47 -68l66 68h176l-131 -256l-62 -62h269v-143l-408 -1184h387v-229l-123 -123h-676zM584 1659h141l94 174h-90l-74 -102l-75 102h-91zM307 41h594v147h-403l424 1231v97h-594v-146h403l-424 -1233v-96z
" />
    <glyph glyph-name="zcaron" unicode="&#x17e;" horiz-adv-x="1105" 
d="M143 -123v143l408 1186h-387v228l123 122h110l-98 195l123 123h176l47 -68l66 68h176l-131 -256l-62 -62h269v-143l-408 -1184h387v-229l-123 -123h-676zM584 1659h141l94 174h-90l-74 -102l-75 102h-91zM307 41h594v147h-403l424 1231v97h-594v-146h403l-424 -1233v-96z
" />
    <glyph glyph-name="florin" unicode="&#x192;" horiz-adv-x="1024" 
d="M143 -270v229l123 123h62v551h-164v229l123 123h41v111q0 153 92 245l123 123q92 92 245 92h93v-229l-123 -123h-62v-219h164v-229l-123 -123h-41v-443q0 -153 -92 -245l-123 -123q-92 -92 -245 -92h-93zM307 -106h51q134 0 215.5 81.5t81.5 214.5v607h164v147h-164v291
q0 61 36.5 97t96.5 36h52v148h-52q-134 0 -215 -81t-81 -216v-275h-164v-147h164v-623q0 -60 -37 -96.5t-97 -36.5h-51v-147z" />
    <glyph glyph-name="Scommaaccent" unicode="&#x218;" 
d="M410 -512v328l36 37q-125 19 -198.5 108t-73.5 223v185l123 123h205q-24 25 -67.5 65.5t-74.5 69.5t-68.5 73t-61.5 85.5t-40 99t-16 119.5v122q0 154 92 246l123 123q92 92 246 92q152 0 245 -93t93 -245v-184l-123 -123h-205q24 -25 67.5 -65.5t74.5 -69.5t68.5 -73
t61.5 -85.5t40 -99t16 -119.5v-123q0 -154 -92 -246l-123 -122q-9 -9 -21 -17v-155l-59 -156l-123 -123h-145zM635 10q133 0 215 82t82 215v121q0 73 -23.5 138t-61.5 113.5t-84 93t-92 86.5t-84 84t-61.5 94t-23.5 110v119q0 60 36.5 96.5t96.5 36.5t96.5 -36.5t36.5 -96.5
v-160h164v143q0 133 -82 215t-215 82t-215 -82t-82 -215v-121q0 -73 23.5 -138t61.5 -113.5t84 -93t92 -86t84 -83.5t61.5 -94t23.5 -110v-119q0 -60 -36.5 -96.5t-96.5 -36.5t-96.5 36.5t-36.5 96.5v160h-164v-144q0 -133 82 -215t215 -82zM604 987v156q0 68 -61 88v-84
q0 -83 61 -160zM604 203v84q0 82 -61 159v-155q0 -68 61 -88zM573 -348h78l45 123v123h-123v-246z" />
    <glyph glyph-name="scommaaccent" unicode="&#x219;" 
d="M410 -512v328l36 37q-125 19 -198.5 108t-73.5 223v185l123 123h205q-24 25 -67.5 65.5t-74.5 69.5t-68.5 73t-61.5 85.5t-40 99t-16 119.5v122q0 154 92 246l123 123q92 92 246 92q152 0 245 -93t93 -245v-184l-123 -123h-205q24 -25 67.5 -65.5t74.5 -69.5t68.5 -73
t61.5 -85.5t40 -99t16 -119.5v-123q0 -154 -92 -246l-123 -122q-9 -9 -21 -17v-155l-59 -156l-123 -123h-145zM635 10q133 0 215 82t82 215v121q0 73 -23.5 138t-61.5 113.5t-84 93t-92 86.5t-84 84t-61.5 94t-23.5 110v119q0 60 36.5 96.5t96.5 36.5t96.5 -36.5t36.5 -96.5
v-160h164v143q0 133 -82 215t-215 82t-215 -82t-82 -215v-121q0 -73 23.5 -138t61.5 -113.5t84 -93t92 -86t84 -83.5t61.5 -94t23.5 -110v-119q0 -60 -36.5 -96.5t-96.5 -36.5t-96.5 36.5t-36.5 96.5v160h-164v-144q0 -133 82 -215t215 -82zM604 987v156q0 68 -61 88v-84
q0 -83 61 -160zM604 203v84q0 82 -61 159v-155q0 -68 61 -88zM573 -348h78l45 123v123h-123v-246z" />
    <glyph glyph-name="uni021A" unicode="&#x21a;" horiz-adv-x="1105" 
d="M389 -512v328l62 61h-82v1327h-277v230l123 122h799v-229l-123 -123h-154v-1204l-61 -61h41v-172l-60 -156l-122 -123h-146zM532 41h164v1327h277v148h-717v-148h276v-1327zM553 -348h78l45 123v123h-123v-246z" />
    <glyph glyph-name="uni021B" unicode="&#x21b;" horiz-adv-x="1105" 
d="M389 -512v328l62 61h-82v1327h-277v230l123 122h799v-229l-123 -123h-154v-1204l-61 -61h41v-172l-60 -156l-122 -123h-146zM532 41h164v1327h277v148h-717v-148h276v-1327zM553 -348h78l45 123v123h-123v-246z" />
    <glyph glyph-name="circumflex" unicode="&#x2c6;" horiz-adv-x="915" 
d="M164 1178l131 256l123 122h203l131 -256l-123 -122h-176l-47 65l-66 -65h-176zM354 1341h90l76 103l74 -103h90l-94 175h-141z" />
    <glyph glyph-name="caron" unicode="&#x2c7;" horiz-adv-x="915" 
d="M295 1178l-131 256l123 122h176l47 -65l65 65h177l-131 -256l-123 -122h-203zM449 1341h141l94 175h-90l-76 -103l-74 103h-90z" />
    <glyph glyph-name="breve" unicode="&#x2d8;" horiz-adv-x="878" 
d="M377 1188q-89 0 -147.5 61t-65.5 164l123 123h176q5 -37 26 -45l50 45h176q-6 -101 -66 -164l-123 -123q-58 -61 -149 -61zM500 1352q63 0 107 38.5t59 104.5h-99q-19 -47 -67 -47q-45 0 -68 47h-98q17 -67 61 -105t105 -38z" />
    <glyph glyph-name="dotaccent" unicode="&#x2d9;" horiz-adv-x="675" 
d="M276 1225q-51 0 -81.5 30.5t-30.5 81.5q0 48 31 82l122 123q31 31 82 31t82 -31t31 -82t-31 -82l-123 -123q-33 -30 -82 -30zM399 1389q32 0 52 19.5t20 51.5t-20 52t-52 20t-51.5 -20t-19.5 -52t19.5 -51.5t51.5 -19.5z" />
    <glyph glyph-name="ring" unicode="&#x2da;" horiz-adv-x="757" 
d="M317 1178q-69 0 -111 42t-42 111q0 68 43 111l121 123q43 43 112 43t111.5 -42.5t42.5 -111.5q0 -71 -43 -111l-123 -122q-43 -43 -111 -43zM440 1331q56 0 89.5 33.5t33.5 89.5t-33.5 89.5t-89.5 33.5t-89.5 -33.5t-33.5 -89.5t33.5 -89.5t89.5 -33.5zM440 1403
q-23 0 -37 14t-14 37t14 37t37 14t37.5 -14t14.5 -37t-14.5 -37t-37.5 -14z" />
    <glyph glyph-name="ogonek" unicode="&#x2db;" horiz-adv-x="743" 
d="M279 -379q-57 0 -86 28.5t-29 74.5q0 19 6 40l53 205l121 123h199l-39 -155h76v-193l-123 -123h-178zM397 -215h142v111h-86l39 155h-115l-43 -172q-4 -24 -4 -33q0 -61 67 -61z" />
    <glyph glyph-name="tilde" unicode="&#x2dc;" horiz-adv-x="942" 
d="M526 1225q-47 0 -119 23.5t-114 23.5q-66 0 -129 -45v176l123 123q62 51 129 51q45 0 123 -24.5t110 -24.5q66 0 129 45v-174l-123 -123q-62 -51 -129 -51zM649 1389q46 0 88 28v90q-39 -20 -88 -20q-45 0 -120 24.5t-113 24.5q-44 0 -88 -29v-92q41 21 88 21
q46 0 119.5 -23.5t113.5 -23.5z" />
    <glyph glyph-name="hungarumlaut" unicode="&#x2dd;" horiz-adv-x="995" 
d="M164 1178l115 256l122 122h428l-165 -256l-121 -122h-170l33 73l-74 -73h-168zM350 1341h84l113 175h-119zM559 1341h84l113 175h-119z" />
    <glyph glyph-name="gravecomb" unicode="&#x300;" horiz-adv-x="0" 
d="M-475 1178l-166 256l123 122h239l115 -256l-123 -122h-188zM-330 1341h105l-78 175h-139z" />
    <glyph glyph-name="acutecomb" unicode="&#x301;" horiz-adv-x="0" 
d="M-641 1178l115 256l123 122h239l-166 -256l-123 -122h-188zM-455 1341h103l114 175h-139z" />
    <glyph glyph-name="uni0302" unicode="&#x302;" horiz-adv-x="0" 
d="M-752 1178l131 256l123 122h203l131 -256l-123 -122h-176l-47 65l-65 -65h-177zM-561 1341h90l76 103l73 -103h91l-95 175h-141z" />
    <glyph glyph-name="tildecomb" unicode="&#x303;" horiz-adv-x="0" 
d="M-416 1225q-47 0 -119 23.5t-114 23.5q-66 0 -129 -45v176l123 123q62 51 129 51q45 0 123 -24.5t110 -24.5q66 0 129 45v-174l-123 -123q-62 -51 -129 -51zM-293 1389q46 0 88 28v90q-39 -20 -88 -20q-45 0 -120 24.5t-113 24.5q-44 0 -88 -29v-92q40 21 88 21
q46 0 119.5 -23.5t113.5 -23.5z" />
    <glyph glyph-name="uni0304" unicode="&#x304;" horiz-adv-x="0" 
d="M-737 1241v193l123 122h450v-192l-123 -123h-450zM-573 1405h368v111h-368v-111z" />
    <glyph glyph-name="uni0306" unicode="&#x306;" horiz-adv-x="0" 
d="M-502 1188q-89 0 -147.5 61t-65.5 164l123 123h176q5 -36 27 -45l49 45h176q-6 -102 -65 -164l-123 -123q-58 -61 -150 -61zM-379 1352q63 0 107 38.5t59 104.5h-98q-19 -47 -68 -47q-44 0 -67 47h-99q17 -67 61 -105t105 -38z" />
    <glyph glyph-name="uni0307" unicode="&#x307;" horiz-adv-x="0" 
d="M-399 1225q-51 0 -82 30.5t-31 81.5q0 48 31 82l123 123q31 31 82 31t81.5 -31t30.5 -82t-31 -82l-122 -123q-33 -30 -82 -30zM-276 1389q32 0 51.5 19.5t19.5 51.5t-19.5 52t-51.5 20t-52 -20t-20 -52t20 -51.5t52 -19.5z" />
    <glyph glyph-name="uni0308" unicode="&#x308;" horiz-adv-x="0" 
d="M-727 1225q-51 0 -82 30.5t-31 81.5q0 48 31 82l123 123q31 31 82 31t81.5 -31t30.5 -82q0 -52 -30 -82l-123 -123q-33 -30 -82 -30zM-399 1225q-51 0 -82 30.5t-31 81.5q0 48 31 82l123 123q31 31 82 31t81.5 -31t30.5 -82t-31 -82l-122 -123q-33 -30 -82 -30z
M-604 1389q32 0 52 19.5t20 51.5t-20 52t-52 20t-52 -20t-20 -52t20 -51.5t52 -19.5zM-276 1389q32 0 51.5 19.5t19.5 51.5t-19.5 52t-51.5 20t-52 -20t-20 -52t20 -51.5t52 -19.5z" />
    <glyph glyph-name="uni030A" unicode="&#x30a;" horiz-adv-x="0" 
d="M-440 1178q-69 0 -111.5 42t-42.5 111q0 68 43 111l121 123q43 43 113 43q69 0 111 -42.5t42 -111.5q0 -71 -43 -111l-123 -122q-43 -43 -110 -43zM-317 1331q55 0 88.5 33.5t33.5 89.5t-33.5 89.5t-88.5 33.5t-89 -33.5t-34 -89.5t34 -89.5t89 -33.5zM-317 1403
q-23 0 -37.5 14t-14.5 37t14.5 37t37.5 14t37 -14t14 -37t-14 -37t-37 -14z" />
    <glyph glyph-name="uni030B" unicode="&#x30b;" horiz-adv-x="0" 
d="M-831 1178l114 256l123 122h428l-166 -256l-121 -122h-170l33 73l-74 -73h-167zM-645 1341h84l112 175h-118zM-436 1341h84l112 175h-118z" />
    <glyph glyph-name="uni030C" unicode="&#x30c;" horiz-adv-x="0" 
d="M-621 1178l-131 256l123 122h176l47 -65l66 65h176l-131 -256l-123 -122h-203zM-467 1341h141l95 175h-91l-75 -103l-74 103h-90z" />
    <glyph glyph-name="uni0312" unicode="&#x312;" horiz-adv-x="0" 
d="M-492 1241v172l60 156l123 123h145v-328l-123 -123h-205zM-328 1405h123v246h-76l-47 -123v-123z" />
    <glyph glyph-name="uni0326" unicode="&#x326;" horiz-adv-x="0" 
d="M-492 -379v328l123 123h205v-172l-59 -156l-123 -123h-146zM-328 -215h78l45 123v123h-123v-246z" />
    <glyph glyph-name="uni0327" unicode="&#x327;" horiz-adv-x="0" 
d="M-561 -379v193l82 82v73l123 123h192v-252q0 -41 -29 -67l-122 -123q-26 -29 -68 -29h-178zM-397 -215h137q23 0 39 16t16 39v211h-110v-155h-82v-111z" />
    <glyph glyph-name="uni0328" unicode="&#x328;" horiz-adv-x="0" 
d="M-465 -379q-57 0 -86 28.5t-29 74.5q0 16 7 40l53 205l121 123h198l-39 -155h76v-193l-123 -123h-178zM-346 -215h141v111h-86l39 155h-115l-43 -172q-4 -24 -4 -33q0 -61 68 -61z" />
    <glyph glyph-name="uni0335" unicode="&#x335;" horiz-adv-x="0" 
d="M-799 541v229l123 123h574v-229l-123 -123h-574zM-635 705h492v147h-492v-147z" />
    <glyph glyph-name="uni0336" unicode="&#x336;" horiz-adv-x="0" 
d="M-1475 541v229l123 123h1250v-229l-123 -123h-1250zM-1311 705h1168v147h-1168v-147z" />
    <glyph glyph-name="uni0337" unicode="&#x337;" horiz-adv-x="0" 
d="M-846 -123l418 1557l123 122h254l-418 -1556l-123 -123h-254zM-670 41h170l396 1475h-170z" />
    <glyph glyph-name="uni0338" unicode="&#x338;" horiz-adv-x="0" 
d="M-846 -123l418 1557l123 122h254l-418 -1556l-123 -123h-254zM-670 41h170l396 1475h-170z" />
    <glyph glyph-name="Wgrave" unicode="&#x1e80;" horiz-adv-x="1519" 
d="M258 -123l-176 1557l123 122h248l55 -606l67 484l70 69l-162 248l123 123h240l115 -256l-62 -62h45l84 -585l41 463l123 122h246l-176 -1556l-123 -123h-328l-59 471l-43 -348l-123 -123h-328zM795 1659h102l-78 174h-137zM418 41h254l149 1145l150 -1145h256l164 1475
h-164l-129 -1311l-191 1311h-172l-190 -1311l-129 1311h-164z" />
    <glyph glyph-name="wgrave" unicode="&#x1e81;" horiz-adv-x="1519" 
d="M258 -123l-176 1557l123 122h248l55 -606l67 484l70 69l-162 248l123 123h240l115 -256l-62 -62h45l84 -585l41 463l123 122h246l-176 -1556l-123 -123h-328l-59 471l-43 -348l-123 -123h-328zM795 1659h102l-78 174h-137zM418 41h254l149 1145l150 -1145h256l164 1475
h-164l-129 -1311l-191 1311h-172l-190 -1311l-129 1311h-164z" />
    <glyph glyph-name="Wacute" unicode="&#x1e82;" horiz-adv-x="1519" 
d="M258 -123l-176 1557l123 122h248l55 -606l67 484l62 61h-64l115 256l123 123h240l-166 -256l-62 -62h121l84 -585l41 463l123 122h246l-176 -1556l-123 -123h-328l-59 471l-43 -348l-123 -123h-328zM760 1659h102l113 174h-137zM418 41h254l149 1145l150 -1145h256
l164 1475h-164l-129 -1311l-191 1311h-172l-190 -1311l-129 1311h-164z" />
    <glyph glyph-name="wacute" unicode="&#x1e83;" horiz-adv-x="1519" 
d="M258 -123l-176 1557l123 122h248l55 -606l67 484l62 61h-64l115 256l123 123h240l-166 -256l-62 -62h121l84 -585l41 463l123 122h246l-176 -1556l-123 -123h-328l-59 471l-43 -348l-123 -123h-328zM760 1659h102l113 174h-137zM418 41h254l149 1145l150 -1145h256
l164 1475h-164l-129 -1311l-191 1311h-172l-190 -1311l-129 1311h-164z" />
    <glyph glyph-name="Wdieresis" unicode="&#x1e84;" horiz-adv-x="1519" 
d="M258 -123l-176 1557l123 122h235q-18 27 -18 68q0 49 31 80l120 123q33 33 84 33t82 -31t31 -82q0 -54 -31 -82l-123 -123q-31 -31 -81 -31q-51 0 -80 29l53 -590l67 484l123 122h70q-18 27 -18 68q0 50 30 80l121 123q33 33 84 33t82 -31t31 -82q0 -54 -31 -82
l-121 -121l82 -573l41 463l123 122h246l-176 -1556l-123 -123h-328l-59 471l-43 -348l-123 -123h-328zM657 1675q33 0 52.5 19.5t19.5 52.5q0 32 -20 52t-52 20t-51.5 -20t-19.5 -52t19.5 -52t51.5 -20zM985 1675q33 0 52.5 19.5t19.5 52.5q0 32 -20 52t-52 20t-52 -20
t-20 -52t20 -52t52 -20zM418 41h254l149 1145l150 -1145h256l164 1475h-164l-129 -1311l-191 1311h-172l-190 -1311l-129 1311h-164z" />
    <glyph glyph-name="wdieresis" unicode="&#x1e85;" horiz-adv-x="1519" 
d="M258 -123l-176 1557l123 122h235q-18 27 -18 68q0 49 31 80l120 123q33 33 84 33t82 -31t31 -82q0 -54 -31 -82l-123 -123q-31 -31 -81 -31q-51 0 -80 29l53 -590l67 484l123 122h70q-18 27 -18 68q0 50 30 80l121 123q33 33 84 33t82 -31t31 -82q0 -54 -31 -82
l-121 -121l82 -573l41 463l123 122h246l-176 -1556l-123 -123h-328l-59 471l-43 -348l-123 -123h-328zM657 1675q33 0 52.5 19.5t19.5 52.5q0 32 -20 52t-52 20t-51.5 -20t-19.5 -52t19.5 -52t51.5 -20zM985 1675q33 0 52.5 19.5t19.5 52.5q0 32 -20 52t-52 20t-52 -20
t-20 -52t20 -52t52 -20zM418 41h254l149 1145l150 -1145h256l164 1475h-164l-129 -1311l-191 1311h-172l-190 -1311l-129 1311h-164z" />
    <glyph glyph-name="uni1E9E" unicode="&#x1e9e;" horiz-adv-x="1228" 
d="M195 -123v1249q0 154 92 246l123 123q92 92 245 92h338v-178l-110 -514q80 -40 126 -119t46 -182v-256q0 -152 -94 -246l-123 -123q-89 -92 -244 -92h-92v62l-62 -62h-245zM358 41h164v1225q0 60 36.5 96.5t96.5 36.5h123l-110 -535v-121h49q60 0 96.5 -36.5t36.5 -96.5
v-288q0 -60 -36.5 -97t-96.5 -37h-51v-147h51q133 0 215 81.5t82 215.5v256q0 100 -46.5 172.5t-129.5 103.5l114 539v137h-297q-133 0 -215 -82t-82 -215v-1208zM563 1018l43 217h-43v-217zM563 168l62 61h61v258q0 41 -25.5 67t-66.5 26h-31v-412z" />
    <glyph glyph-name="Ygrave" unicode="&#x1ef2;" horiz-adv-x="1089" 
d="M360 -123v707l-309 850l123 122h234l-127 195l122 123h242l115 -256l-123 -123h-178l108 -299l86 238l123 122h262l-309 -849v-707l-123 -123h-246zM592 1659h104l-78 174h-139zM524 41h164v674l291 801h-174l-199 -547l-198 547h-175l291 -801v-674z" />
    <glyph glyph-name="ygrave" unicode="&#x1ef3;" horiz-adv-x="1089" 
d="M360 -123v707l-309 850l123 122h234l-127 195l122 123h242l115 -256l-123 -123h-178l108 -299l86 238l123 122h262l-309 -849v-707l-123 -123h-246zM592 1659h104l-78 174h-139zM524 41h164v674l291 801h-174l-199 -547l-198 547h-175l291 -801v-674z" />
    <glyph glyph-name="endash" unicode="&#x2013;" 
d="M102 541v229l123 123h819v-229l-122 -123h-820zM266 705h738v147h-738v-147z" />
    <glyph glyph-name="emdash" unicode="&#x2014;" horiz-adv-x="1576" 
d="M102 541v229l123 123h1250v-229l-123 -123h-1250zM266 705h1168v147h-1168v-147z" />
    <glyph glyph-name="quoteleft" unicode="&#x2018;" horiz-adv-x="634" 
d="M133 1024v211l74 199l123 122h172v-409l-123 -123h-246zM297 1188h164v328h-103l-61 -164v-164z" />
    <glyph glyph-name="quoteright" unicode="&#x2019;" horiz-adv-x="634" 
d="M502 1556h-246l-123 -122v-410h172l123 123l74 199v210zM461 1352l-62 -164h-102v328h164v-164z" />
    <glyph glyph-name="quotesinglbase" unicode="&#x201a;" horiz-adv-x="634" 
d="M502 246h-246l-123 -123v-410h172l123 123l74 199v211zM461 41l-62 -164h-102v328h164v-164z" />
    <glyph glyph-name="quotedblleft" unicode="&#x201c;" horiz-adv-x="921" 
d="M133 1024v211l74 199l123 122h172v-114l114 114h172v-409l-122 -123h-246v41l-41 -41h-246zM297 1188h164v328h-103l-61 -164v-164zM584 1188h164v328h-103l-61 -164v-164z" />
    <glyph glyph-name="quotedblright" unicode="&#x201d;" horiz-adv-x="921" 
d="M543 1556h245v-210l-73 -199l-123 -123h-172v115l-115 -115h-172v410l123 122h246v-40zM297 1188h102l62 164v164h-164v-328zM584 1188h102l62 164v164h-164v-328z" />
    <glyph glyph-name="quotedblbase" unicode="&#x201e;" horiz-adv-x="921" 
d="M543 246h245v-211l-73 -199l-123 -123h-172v115l-115 -115h-172v410l123 123h246v-41zM297 -123h102l62 164v164h-164v-328zM584 -123h102l62 164v164h-164v-328z" />
    <glyph glyph-name="dagger" unicode="&#x2020;" horiz-adv-x="983" 
d="M307 369v663h-164v238l123 114h41v48l123 124h246v-172h164v-229l-123 -123h-41v-540l-123 -123h-246zM471 532h164v664h164v147h-164v173h-164v-173h-164v-147h164v-664z" />
    <glyph glyph-name="daggerdbl" unicode="&#x2021;" horiz-adv-x="983" 
d="M307 369v172h-164v229l123 123h41v139h-164v230l123 122h41v50l123 122h246v-172h164v-229l-123 -123h-41v-139h164v-229l-123 -123h-41v-49l-123 -123h-246zM471 532h164v173h164v147h-164v344h164v147h-164v173h-164v-173h-164v-147h164v-344h-164v-147h164v-173z" />
    <glyph glyph-name="bullet" unicode="&#x2022;" horiz-adv-x="839" 
d="M358 430q-101 0 -163 62t-62 163q0 102 62 164l122 123q62 62 164 62q101 0 163.5 -62.5t62.5 -163.5q0 -102 -62 -164l-123 -122q-62 -62 -164 -62zM481 594q83 0 134 50.5t51 133.5t-51 134t-134 51t-133.5 -51t-50.5 -134t50.5 -133.5t133.5 -50.5z" />
    <glyph glyph-name="ellipsis" unicode="&#x2026;" horiz-adv-x="1658" 
d="M502 0v246h-246l-123 -123v-246h246zM1014 0v246h-246l-123 -123v-246h246zM1526 0v246h-246l-123 -123v-246h246zM461 205v-164h-164v164h164zM973 205v-164h-164v164h164zM1485 205v-164h-164v164h164z" />
    <glyph glyph-name="perthousand" unicode="&#x2030;" horiz-adv-x="1419" 
d="M668 -133q-66 0 -108 41t-42 106v238l-72 -252l-122 -123h-156l315 1096l-104 -105q-44 -41 -107 -41q-66 0 -107.5 41.5t-41.5 106.5v321q0 63 41 107l123 123q41 41 108 41q65 0 106.5 -41.5t41.5 -106.5v-237l71 252l123 122h156l-315 -1097l106 106q41 41 107 41
q65 0 106 -40.5t41 -104.5l104 104q41 41 107 41q65 0 106 -41t41 -106v-322q0 -65 -41 -106l-122 -123q-41 -41 -107 -41q-64 0 -105.5 40t-43.5 103l-103 -102q-41 -41 -106 -41zM395 983q51 0 83 31.5t32 83.5v321q0 51 -32 83t-83 32q-52 0 -84 -32t-32 -83v-321
q0 -52 31.5 -83.5t84.5 -31.5zM334 31h88l428 1495h-86zM395 1067q-15 0 -24 8.5t-9 22.5v321q0 14 9 22.5t24 8.5q13 0 22 -9t9 -22v-321q0 -14 -9 -22.5t-22 -8.5zM791 23q51 0 82.5 31t31.5 83v322q0 51 -31.5 82.5t-82.5 31.5q-52 0 -84.5 -31.5t-32.5 -82.5v-322
q0 -52 32 -83t85 -31zM1149 23q51 0 83 31t32 83v322q0 51 -32 82.5t-83 31.5q-52 0 -84.5 -31.5t-32.5 -82.5v-322q0 -52 32 -83t85 -31zM791 106q-15 0 -24 8.5t-9 22.5v322q0 14 9 22t24 8q13 0 21.5 -8.5t8.5 -21.5v-322q0 -14 -8.5 -22.5t-21.5 -8.5zM1149 106
q-15 0 -24 8.5t-9 22.5v322q0 14 9 22t24 8q14 0 22.5 -8.5t8.5 -21.5v-322q0 -13 -9 -22t-22 -9z" />
    <glyph glyph-name="guilsinglleft" unicode="&#x2039;" horiz-adv-x="667" 
d="M221 266l-149 389l149 389l123 123h242l-148 -389l148 -389l-123 -123h-242zM373 430h153l-133 348l133 348h-153l-135 -348z" />
    <glyph glyph-name="guilsinglright" unicode="&#x203a;" horiz-adv-x="667" 
d="M82 266l149 389l-149 389l123 123h244l147 -389l-147 -389l-123 -123h-244zM264 430h156l133 348l-133 348h-156l133 -348z" />
    <glyph glyph-name="fraction" unicode="&#x2044;" horiz-adv-x="856" 
d="M113 582v149l123 123h507v-149l-122 -123h-508zM268 737h443v84h-443v-84z" />
    <glyph glyph-name="Euro" unicode="&#x20ac;" horiz-adv-x="1177" 
d="M573 -154q-152 0 -244.5 93t-92.5 245v205h-123v225l82 82h-82v226l123 122v82q0 154 92 246l123 123q92 92 245 92q152 0 245 -93t93 -245v-143l-129 -129h-65l-29 -158l-82 -82h66l-41 -225l-123 -123h-27v-98q0 -68 62 -88v125l122 123h246v-144q0 -154 -92 -246
l-123 -122q-93 -93 -246 -93zM696 10q134 0 215.5 82t81.5 215v103h-164v-119q0 -60 -36.5 -96.5t-96.5 -36.5t-96.5 36.5t-36.5 96.5v262h156l26 143h-182v164h211l29 144h-240v262q0 60 36.5 96.5t96.5 36.5t96.5 -36.5t36.5 -96.5v-119h164v102q0 133 -81.5 215
t-215.5 82t-215.5 -82t-81.5 -215v-245h-123v-144h123v-164h-123v-143h123v-246q0 -133 81.5 -215t215.5 -82zM604 1044h62v99q0 68 -62 88v-187z" />
    <glyph glyph-name="uni2116" unicode="&#x2116;" horiz-adv-x="1781" 
d="M1137 377v147l92 92q-92 50 -92 168v471q0 80 53 136l121 122q51 54 139 54q85 0 136.5 -52t51.5 -137v-471q0 -86 -53 -139l-121 -121h174v-147l-122 -123h-379zM205 -123v1557l123 122h202l146 -413v291l123 122h245v-1556l-122 -123h-205l-144 408v-285l-122 -123
h-246zM1450 750q71 0 113.5 42.5t42.5 114.5v471q0 70 -43 113t-113 43q-72 0 -115 -42.5t-43 -113.5v-471q0 -72 43 -114.5t115 -42.5zM369 41h163v944l336 -944h136v1475h-164v-949l-338 949h-133v-1475zM1450 840q-26 0 -42.5 16.5t-16.5 42.5v487q0 25 16.5 41.5
t42.5 16.5q25 0 41 -16.5t16 -41.5v-487q0 -26 -16 -42.5t-41 -16.5zM1292 532h314v82h-314v-82z" />
    <glyph glyph-name="trademark" unicode="&#x2122;" horiz-adv-x="923" 
d="M205 1016v409h-103v91h295v-91h-102v-409h-90zM442 1016v500h76l82 -213l84 213h76v-500h-92v256l-64 -158h-8l-64 158v-256h-90z" />
    <glyph glyph-name="uni2126" unicode="&#x2126;" horiz-adv-x="1187" 
d="M195 -123v229l51 52q-51 82 -51 194v805q0 154 92 246l123 123q92 92 245 92q152 0 245 -93t93 -245v-805q0 -152 -94 -246h94v-229l-123 -123h-307v62l-61 -62h-307zM358 41h226v303q-62 32 -62 115v837q0 60 36.5 97t96.5 37t96.5 -37t36.5 -97v-837q0 -84 -61 -115
v-303h225v147h-102v54q102 79 102 233v805q0 134 -82 215.5t-215 81.5t-215 -81.5t-82 -215.5v-805q0 -153 103 -233v-54h-103v-147zM625 371v803q0 68 -62 88v-803q0 -68 62 -88z" />
    <glyph glyph-name="uni2150" unicode="&#x2150;" horiz-adv-x="856" 
d="M242 -123l131 451h-158v145l107 109h-209v147l123 123h59v436h-84l53 146l123 122h180v-595l-108 -109h284v-147l-108 -109h27v-109l-142 -487l-123 -123h-155zM451 993h84v531h-123l-31 -80h70v-451zM268 737h443v82h-443v-82zM410 33h86l133 461v69h-258v-80h168z" />
    <glyph glyph-name="uni2151" unicode="&#x2151;" horiz-adv-x="856" 
d="M367 -133q-66 0 -108 41t-42 106v97l27 26q-27 42 -27 90v109q0 63 41 104l125 125q11 11 20 17h-290v147l123 123h59v436h-84l53 146l123 122h180v-595l-108 -109h284v-147l-122 -123h-46q62 -43 62 -123v-322q0 -65 -41 -106l-123 -123q-41 -41 -106 -41zM451 993h84
v531h-123l-31 -80h70v-451zM268 737h443v82h-443v-82zM489 23q51 0 83 31t32 83v322q0 51 -32 82.5t-83 31.5q-52 0 -84 -31.5t-32 -82.5v-109q0 -52 31.5 -83t84.5 -31q21 0 31 4v-107q0 -13 -9 -22t-22 -9q-15 0 -23.5 8.5t-8.5 22.5v68h-84v-64q0 -52 31.5 -83t84.5 -31z
M489 315q-15 0 -23.5 8.5t-8.5 22.5v117q0 14 8.5 22.5t23.5 8.5q13 0 22 -9t9 -22v-117q0 -14 -9 -22.5t-22 -8.5z" />
    <glyph glyph-name="uni2152" unicode="&#x2152;" horiz-adv-x="856" 
d="M481 -133q-45 0 -80 21t-53 57l-67 -68h-150v451h-84l53 149l109 105h-96v147l123 123h57v436l-84 -4l53 150l123 122h180v-595l-114 -109h292v-147l-102 -103q50 -11 80.5 -49.5t30.5 -93.5v-322q0 -65 -41 -106l-123 -123q-41 -41 -107 -41zM449 993h83v531h-122
l-31 -80h70v-451zM268 737h443v82h-443v-82zM403 471l95 94q11 11 20 17h-115v-111zM604 23q51 0 83 31t32 83v322q0 51 -32 82.5t-83 31.5q-52 0 -84.5 -31.5t-32.5 -82.5v-322q0 -52 32 -83t85 -31zM287 33h84v530h-123l-31 -80h70v-450zM604 102q-15 0 -24 8.5t-9 22.5
v330q0 14 9 22.5t24 8.5q14 0 22.5 -9t8.5 -22v-330q0 -13 -8.5 -22t-22.5 -9z" />
    <glyph glyph-name="uni2153" unicode="&#x2153;" horiz-adv-x="856" 
d="M367 -133q-66 0 -107 41t-41 106v97l76 75v54h-76v96q0 65 41 106l123 123q13 12 20 17h-290v147l123 123h59v436h-84l53 146l123 122h180v-595l-108 -109h284v-147l-122 -123h-46q60 -44 60 -123v-78q0 -43 -23 -84q23 -38 23 -82v-78q0 -65 -41 -106l-123 -123
q-38 -41 -104 -41zM451 993h84v531h-123l-31 -80h70v-451zM268 737h443v82h-443v-82zM489 23q51 0 83 31t32 83v78q0 49 -33 82q33 33 33 84v78q0 51 -32 82.5t-83 31.5q-52 0 -83 -31.5t-31 -82.5v-64h82v68q0 13 9 22t23 9q13 0 22 -9t9 -22v-94q0 -13 -9 -22t-22 -9h-38
v-80h38q13 0 22 -9t9 -22v-94q0 -13 -9 -22t-22 -9q-14 0 -23 9t-9 22v68h-82v-64q0 -53 30.5 -83.5t83.5 -30.5z" />
    <glyph glyph-name="uni2154" unicode="&#x2154;" horiz-adv-x="856" 
d="M367 -133q-66 0 -107 41t-41 106v97l76 75v54h-76v96q0 65 41 106l123 123q11 11 20 17h-290v147l108 109h-2v75q0 61 26.5 115t62 101.5t44.5 70.5h-133v96q0 66 41 107l123 123q41 41 106 41q66 0 108 -41.5t42 -106.5v-43q0 -56 -20 -104.5t-59.5 -103t-43.5 -62.5
h123v-145l-109 -109h213v-147l-122 -123h-46q62 -45 62 -123v-78q0 -43 -23 -84q23 -38 23 -82v-78q0 -63 -43 -106l-123 -123q-38 -41 -104 -41zM375 993h231v80h-139q11 40 47 89t64 101t28 113v43q0 51 -32.5 83t-84.5 32q-51 0 -82.5 -32t-31.5 -83v-63h84v67
q0 14 8.5 22.5t21.5 8.5q15 0 24 -8.5t9 -22.5v-39q0 -45 -23 -89t-50.5 -75.5t-50.5 -80.5t-23 -103v-43zM268 737h443v82h-443v-82zM489 23q51 0 83 31t32 83v78q0 49 -33 82q33 33 33 84v78q0 51 -32 82.5t-83 31.5q-52 0 -83 -31.5t-31 -82.5v-64h82v68q0 13 9 22t23 9
q13 0 22 -9t9 -22v-96q0 -13 -9 -22t-22 -9h-38v-76h38q13 0 22 -9t9 -22v-96q0 -13 -9 -22t-22 -9q-14 0 -23 9t-9 22v68h-82v-64q0 -53 30.5 -83.5t83.5 -30.5z" />
    <glyph glyph-name="uni2155" unicode="&#x2155;" horiz-adv-x="856" 
d="M367 -133q-65 0 -106.5 41.5t-41.5 105.5v97l19 18l-19 4l12 340l109 109h-227v147l123 123h59v436h-84l53 146l123 122h180v-595l-108 -109h284v-147l-112 -113v-146l-60 -61q66 -40 66 -125v-123q0 -65 -41 -106l-123 -123q-41 -41 -106 -41zM451 993h84v531h-123
l-31 -80h70v-451zM268 737h443v82h-443v-82zM489 23q53 0 84 31t31 83v123q0 51 -31.5 83t-83.5 32q-10 0 -26 -4l4 108h131v84h-213l-8 -278l84 -15q7 21 28 21q15 0 24 -8.5t9 -22.5v-127q0 -14 -9 -22.5t-24 -8.5q-13 0 -21.5 8.5t-8.5 22.5v68h-84v-64q0 -52 31.5 -83
t82.5 -31z" />
    <glyph glyph-name="uni2156" unicode="&#x2156;" horiz-adv-x="856" 
d="M367 -133q-65 0 -106.5 41.5t-41.5 105.5v97l19 18l-19 4l12 340l109 109h-227v147l108 109h-2v75q0 61 26.5 115t62 101.5t44.5 70.5h-133v96q0 66 41 107l123 123q41 41 106 41q66 0 108 -41.5t42 -106.5v-43q0 -56 -20 -104.5t-59.5 -103t-43.5 -62.5h123v-145
l-109 -109h213v-147l-112 -113v-146l-60 -61q66 -40 66 -125v-123q0 -65 -41 -106l-123 -123q-41 -41 -106 -41zM375 993h231v80h-139q11 40 47 89t64 101t28 113v43q0 51 -32.5 83t-84.5 32q-51 0 -82.5 -32t-31.5 -83v-63h84v67q0 14 8.5 22.5t21.5 8.5q15 0 24 -8.5
t9 -22.5v-39q0 -45 -23 -89t-50.5 -75.5t-50.5 -80.5t-23 -103v-43zM268 737h443v82h-443v-82zM489 23q53 0 84 31t31 83v123q0 51 -31.5 83t-83.5 32q-10 0 -26 -4l4 108h131v84h-213l-8 -278l84 -15q7 21 28 21q15 0 24 -8.5t9 -22.5v-127q0 -14 -9 -22.5t-24 -8.5
q-13 0 -21.5 8.5t-8.5 22.5v68h-84v-64q0 -52 31.5 -83t82.5 -31z" />
    <glyph glyph-name="uni2157" unicode="&#x2157;" horiz-adv-x="856" 
d="M367 -133q-65 0 -106.5 41.5t-41.5 105.5v97l19 18l-19 4l12 340l109 109h-227v147l123 123h43q-60 44 -60 123v96l76 76v53h-76v96q0 63 41 107l123 123q41 41 106 41t106.5 -41.5t41.5 -106.5v-78q0 -43 -23 -84q23 -38 23 -81v-78q0 -66 -41 -107l-123 -123
q-4 -4 -20 -16h290v-147l-112 -113v-146l-60 -61q66 -40 66 -125v-123q0 -65 -41 -106l-123 -123q-41 -41 -106 -41zM489 983q51 0 83 31.5t32 83.5v78q0 48 -33 81q33 33 33 84v78q0 51 -32 83t-83 32q-52 0 -83 -32t-31 -83v-63h82v67q0 13 9 22t23 9q13 0 22 -9t9 -22
v-94q0 -13 -9 -22t-22 -9h-38v-79h38q13 0 22 -8.5t9 -22.5v-94q0 -14 -9 -22.5t-22 -8.5q-14 0 -23 9t-9 22v67h-82v-63q0 -53 31 -84t83 -31zM268 737h443v82h-443v-82zM489 23q53 0 84 31t31 83v123q0 51 -31.5 83t-83.5 32q-10 0 -26 -4l4 108h131v84h-213l-8 -278
l84 -15q7 21 28 21q15 0 24 -8.5t9 -22.5v-127q0 -14 -9 -22.5t-24 -8.5q-13 0 -21.5 8.5t-8.5 22.5v68h-84v-64q0 -52 31.5 -83t82.5 -31z" />
    <glyph glyph-name="uni2158" unicode="&#x2158;" horiz-adv-x="856" 
d="M367 -133q-65 0 -106.5 41.5t-41.5 105.5v97l19 18l-19 4l12 340l109 109h-227v147l123 123h86v102h-152v105l186 375l123 122h115v-335h49v-144l-49 -49v-67l-107 -109h256v-147l-112 -113v-146l-60 -61q66 -40 66 -125v-123q0 -65 -41 -106l-123 -123q-41 -41 -106 -41
zM477 993h84v117h49v78h-49v336h-61l-174 -355v-59h151v-117zM428 1188l49 102v-102h-49zM268 737h443v82h-443v-82zM489 23q53 0 84 31t31 83v123q0 51 -31.5 83t-83.5 32q-10 0 -26 -4l4 108h131v84h-213l-8 -278l84 -15q7 21 28 21q15 0 24 -8.5t9 -22.5v-127
q0 -14 -9 -22.5t-24 -8.5q-13 0 -21.5 8.5t-8.5 22.5v68h-84v-64q0 -52 31.5 -83t82.5 -31z" />
    <glyph glyph-name="uni2159" unicode="&#x2159;" horiz-adv-x="856" 
d="M367 -133q-66 0 -108 41t-42 106v322q0 62 41 106l123 123q11 11 20 17h-288v147l123 123h59v436h-84l53 146l123 122h180v-595l-108 -109h284v-147l-122 -123h-46q62 -43 62 -123v-97l-27 -28q27 -39 27 -88v-109q0 -65 -41 -106l-123 -123q-41 -41 -106 -41zM451 993
h84v531h-123l-31 -80h70v-451zM268 737h443v82h-443v-82zM489 23q51 0 83 31t32 83v109q0 51 -32 82.5t-83 31.5q-12 0 -32 -4v107q0 14 8.5 22.5t23.5 8.5q13 0 22 -9t9 -22v-68h84v64q0 51 -32 82.5t-83 31.5q-52 0 -84 -31.5t-32 -82.5v-322q0 -52 31.5 -83t84.5 -31z
M489 102q-15 0 -23.5 8.5t-8.5 22.5v117q0 14 8.5 22.5t23.5 8.5q13 0 22 -8.5t9 -22.5v-117q0 -13 -9 -22t-22 -9z" />
    <glyph glyph-name="uni215A" unicode="&#x215a;" horiz-adv-x="856" 
d="M367 -133q-66 0 -108 41t-42 106v322q0 62 41 106l123 123q11 11 20 17h-288v147l123 123h45q-62 43 -62 123v96l19 19l-19 4l12 340l123 122h277v-149l-66 -57q72 -41 72 -129v-123q0 -66 -41 -107l-123 -123q-4 -4 -20 -16h290v-147l-122 -123h-46q62 -43 62 -123v-97
l-27 -28q27 -39 27 -88v-109q0 -65 -41 -106l-123 -123q-41 -41 -106 -41zM489 983q53 0 84 31.5t31 83.5v123q0 51 -31.5 82.5t-83.5 31.5q-10 0 -26 -4l4 109h131v84h-213l-8 -279l84 -14q7 20 28 20q15 0 24 -8t9 -22v-127q0 -14 -9 -22.5t-24 -8.5q-13 0 -21.5 8.5
t-8.5 22.5v67h-84v-63q0 -52 31.5 -83.5t82.5 -31.5zM268 737h443v82h-443v-82zM489 23q51 0 83 31t32 83v109q0 51 -32 82.5t-83 31.5q-12 0 -32 -4v107q0 14 8.5 22.5t23.5 8.5q13 0 22 -9t9 -22v-68h84v64q0 51 -32 82.5t-83 31.5q-52 0 -84 -31.5t-32 -82.5v-322
q0 -52 31.5 -83t84.5 -31zM489 102q-15 0 -23.5 8.5t-8.5 22.5v117q0 14 8.5 22.5t23.5 8.5q13 0 22 -8.5t9 -22.5v-117q0 -13 -9 -22t-22 -9z" />
    <glyph glyph-name="oneeighth" unicode="&#x215b;" horiz-adv-x="856" 
d="M367 -133q-66 0 -108 41t-42 106v84q0 45 25 84q-25 36 -25 84v70q0 68 41 106l125 123q11 11 20 17h-290v147l123 123h59v436h-84l53 146l123 122h180v-595l-108 -109h284v-147l-122 -123h-46q62 -43 62 -123v-70q0 -46 -23 -84q23 -41 23 -84v-84q0 -65 -41 -106
l-123 -123q-41 -41 -106 -41zM451 993h84v531h-123l-31 -80h70v-451zM268 737h443v82h-443v-82zM489 23q51 0 83 31t32 83v84q0 51 -33 84q33 33 33 84v70q0 51 -32 82.5t-83 31.5q-52 0 -84 -31.5t-32 -82.5v-70q0 -51 33 -84q-33 -33 -33 -84v-84q0 -52 31.5 -83t84.5 -31
zM489 342q-15 0 -23.5 8.5t-8.5 22.5v90q0 14 8.5 22.5t23.5 8.5q13 0 22 -9t9 -22v-90q0 -13 -9 -22t-22 -9zM489 102q-15 0 -23.5 8.5t-8.5 22.5v103q0 30 32 30q14 0 22.5 -8.5t8.5 -21.5v-103q0 -13 -9 -22t-22 -9z" />
    <glyph glyph-name="threeeighths" unicode="&#x215c;" horiz-adv-x="856" 
d="M367 -133q-66 0 -108 41t-42 106v84q0 45 25 84q-25 36 -25 84v70q0 63 41 104l125 125q11 11 20 17h-290v147l123 123h43q-60 44 -60 123v96l76 76v53h-76v96q0 63 41 107l123 123q41 41 106 41t106.5 -41.5t41.5 -106.5v-78q0 -43 -23 -84q23 -38 23 -81v-78
q0 -66 -41 -107l-123 -123q-4 -4 -20 -16h290v-147l-122 -123h-46q62 -43 62 -123v-70q0 -46 -23 -84q23 -41 23 -84v-84q0 -65 -41 -106l-123 -123q-41 -41 -106 -41zM489 983q51 0 83 31.5t32 83.5v78q0 48 -33 81q33 33 33 84v78q0 51 -32 83t-83 32q-52 0 -83 -32
t-31 -83v-63h82v67q0 13 9 22t23 9q13 0 22 -9t9 -22v-96q0 -13 -9 -22t-22 -9h-38v-75h38q13 0 22 -8.5t9 -22.5v-96q0 -14 -9 -22.5t-22 -8.5q-14 0 -23 9t-9 22v67h-82v-63q0 -53 31 -84t83 -31zM268 737h443v82h-443v-82zM489 23q51 0 83 31t32 83v84q0 51 -33 84
q33 33 33 84v70q0 51 -32 82.5t-83 31.5q-52 0 -84 -31.5t-32 -82.5v-70q0 -51 33 -84q-33 -33 -33 -84v-84q0 -52 31.5 -83t84.5 -31zM489 342q-15 0 -23.5 8.5t-8.5 22.5v90q0 14 8.5 22.5t23.5 8.5q13 0 22 -9t9 -22v-90q0 -13 -9 -22t-22 -9zM489 102q-15 0 -23.5 8.5
t-8.5 22.5v103q0 30 32 30q14 0 22.5 -8.5t8.5 -21.5v-103q0 -13 -9 -22t-22 -9z" />
    <glyph glyph-name="fiveeighths" unicode="&#x215d;" horiz-adv-x="856" 
d="M367 -133q-66 0 -108 41t-42 106v84q0 45 25 84q-25 36 -25 84v70q0 63 41 104l125 125q11 11 20 17h-290v147l123 123h45q-62 43 -62 123v96l19 19l-19 4l12 340l123 122h277v-149l-66 -57q72 -41 72 -129v-123q0 -66 -41 -107l-123 -123q-4 -4 -20 -16h290v-147
l-122 -123h-46q62 -42 62 -123v-70q0 -46 -23 -84q23 -41 23 -84v-84q0 -65 -41 -106l-123 -123q-41 -41 -106 -41zM489 983q53 0 84 31.5t31 83.5v123q0 51 -31.5 82.5t-83.5 31.5q-10 0 -26 -4l4 109h131v84h-213l-8 -279l84 -14q7 20 28 20q15 0 24 -8t9 -22v-127
q0 -14 -9 -22.5t-24 -8.5q-13 0 -21.5 8.5t-8.5 22.5v67h-84v-63q0 -52 31.5 -83.5t82.5 -31.5zM268 737h443v82h-443v-82zM489 23q51 0 83 31t32 83v84q0 51 -33 84q33 33 33 84v70q0 51 -32 82.5t-83 31.5q-52 0 -84 -31.5t-32 -82.5v-70q0 -51 33 -84q-33 -33 -33 -84
v-84q0 -52 31.5 -83t84.5 -31zM489 342q-15 0 -23.5 8.5t-8.5 22.5v90q0 14 8.5 22.5t23.5 8.5q13 0 22 -9t9 -22v-90q0 -13 -9 -22t-22 -9zM489 102q-15 0 -23.5 8.5t-8.5 22.5v103q0 30 32 30q14 0 22.5 -8.5t8.5 -21.5v-103q0 -13 -9 -22t-22 -9z" />
    <glyph glyph-name="seveneighths" unicode="&#x215e;" horiz-adv-x="856" 
d="M367 -133q-66 0 -108 41t-42 106v84q0 45 25 84q-25 36 -25 84v70q0 63 41 104l125 125q11 11 20 17h-290v147l123 123h10l129 436h-160v146l123 122h324v-108l-142 -487l-108 -109h331v-147l-122 -123h-46q62 -43 62 -123v-70q0 -46 -23 -84q23 -41 23 -84v-84
q0 -65 -41 -106l-123 -123q-41 -41 -106 -41zM410 993h86l133 461v70h-258v-80h170zM268 737h443v82h-443v-82zM489 23q51 0 83 31t32 83v84q0 51 -33 84q33 33 33 84v70q0 51 -32 82.5t-83 31.5q-52 0 -84 -31.5t-32 -82.5v-70q0 -51 33 -84q-33 -33 -33 -84v-84
q0 -52 31.5 -83t84.5 -31zM489 342q-15 0 -23.5 8.5t-8.5 22.5v90q0 14 8.5 22.5t23.5 8.5q13 0 22 -9t9 -22v-90q0 -13 -9 -22t-22 -9zM489 102q-15 0 -23.5 8.5t-8.5 22.5v103q0 30 32 30q14 0 22.5 -8.5t8.5 -21.5v-103q0 -13 -9 -22t-22 -9z" />
    <glyph glyph-name="uni215F" unicode="&#x215f;" horiz-adv-x="856" 
d="M113 582v149l123 123h59v434h-84l53 146l123 122h180v-595l-108 -107h284v-149l-122 -123h-508zM451 993h84v531h-123l-31 -80h70v-451zM268 737h443v84h-443v-84z" />
    <glyph glyph-name="uni2189" unicode="&#x2189;" horiz-adv-x="856" 
d="M367 -133q-66 0 -107 41t-41 106v97l76 75v54h-76v96q0 65 41 106l123 123q11 11 20 17h-290v147l123 123h40q-59 43 -59 123v321q0 66 41 107l123 123q41 41 108 41q65 0 106.5 -41.5t41.5 -106.5v-321q0 -64 -43 -107l-123 -123l-18 -16h290v-147l-122 -123h-46
q62 -42 62 -123v-78q0 -43 -23 -84q23 -38 23 -82v-78q0 -63 -43 -106l-123 -123q-38 -41 -104 -41zM489 983q51 0 83 31.5t32 83.5v321q0 51 -32 83t-83 32q-52 0 -84 -32t-32 -83v-321q0 -52 31.5 -83.5t84.5 -31.5zM489 1063q-15 0 -23.5 8.5t-8.5 22.5v329
q0 14 8.5 22.5t23.5 8.5q13 0 22 -9t9 -22v-329q0 -14 -9 -22.5t-22 -8.5zM268 737h443v82h-443v-82zM489 23q51 0 83 31t32 83v78q0 49 -33 82q33 33 33 84v78q0 51 -32 82.5t-83 31.5q-52 0 -83 -31.5t-31 -82.5v-64h82v68q0 13 9 22t23 9q13 0 22 -9t9 -22v-96
q0 -13 -9 -22t-22 -9h-38v-76h38q13 0 22 -9t9 -22v-96q0 -13 -9 -22t-22 -9q-14 0 -23 9t-9 22v68h-82v-64q0 -53 30.5 -83.5t83.5 -30.5z" />
    <glyph glyph-name="partialdiff" unicode="&#x2202;" horiz-adv-x="1126" 
d="M481 -154q-152 0 -245 93t-93 245v318q0 153 93 246l122 122q82 82 215 91v182q0 41 -25.5 66.5t-66.5 25.5h-41v229l123 123h41q152 0 245 -93t93 -245v-942q0 -154 -92 -246l-123 -122q-93 -93 -246 -93zM604 10q134 0 215.5 82t81.5 215v942q0 133 -81.5 215
t-215.5 82v-147q60 0 96.5 -36.5t36.5 -96.5v-375q-57 31 -133 31q-134 0 -215.5 -82t-81.5 -215v-318q0 -133 81.5 -215t215.5 -82zM604 158q-60 0 -96.5 36.5t-36.5 96.5v350q0 60 36.5 96.5t96.5 36.5t96.5 -36.5t36.5 -96.5v-350q0 -60 -36.5 -96.5t-96.5 -36.5z
M573 203v315q0 68 -61 88v-315q0 -68 61 -88z" />
    <glyph glyph-name="emptyset" unicode="&#x2205;" 
d="M201 184l-160 160l98 98q-47 92 -47 213q0 191 115 303l123 123q117 117 305 117q123 0 211 -49l100 100l160 -159l-100 -101q49 -88 49 -211q0 -188 -117 -305l-123 -123q-111 -114 -303 -114q-121 0 -213 47zM324 365l92 94q91 -60 219 -60q170 0 274.5 104.5
t104.5 274.5q0 125 -60 219l93 93l-101 100l-92 -92q-92 59 -219 59q-170 0 -274.5 -104.5t-104.5 -274.5q0 -130 59 -219l-94 -92zM414 659q-25 52 -25 119q0 110 68 178t178 68q60 0 119 -27zM635 532q-67 0 -119 25l338 340q27 -59 27 -119q0 -110 -68 -178t-178 -68z
M432 735l121 121q-24 4 -41 4q-34 0 -72 -10q-10 -38 -10 -72q0 -29 2 -43zM635 573q30 0 72 11q10 38 10 71q0 17 -4 41l-121 -121q14 -2 43 -2z" />
    <glyph glyph-name="product" unicode="&#x220f;" horiz-adv-x="1290" 
d="M246 -287v1491h-123v230l123 122h921v-229l-123 -123v-1368l-122 -123h-246v1491h-62v-1368l-122 -123h-246zM410 -123h163v1491h267v-1491h164v1491h122v148h-839v-148h123v-1491z" />
    <glyph glyph-name="summation" unicode="&#x2211;" horiz-adv-x="1085" 
d="M174 -123v141l188 637l-188 637v142l123 122h635v-229l-123 -123h-193l127 -426l-163 -549h352v-229l-123 -123h-635zM338 41h553v147h-365l174 590l-174 590h365v148h-553v-95l190 -643l-190 -643v-94z" />
    <glyph glyph-name="minus" unicode="&#x2212;" 
d="M102 541v229l123 123h819v-229l-122 -123h-820zM266 705h738v147h-738v-147z" />
    <glyph glyph-name="radical" unicode="&#x221a;" horiz-adv-x="1103" 
d="M207 -123l-125 901l123 123h235l11 -76l75 609l123 122h393v-229l-116 -117h-76l-172 -1210l-123 -123h-348zM367 41h276l186 1327h172v148h-317l-168 -1311h-22l-84 655h-158z" />
    <glyph glyph-name="infinity" unicode="&#x221e;" horiz-adv-x="1638" 
d="M426 317q-138 0 -231 95t-93 243q0 149 95 244l122 123q91 94 230 94q55 0 103 -13t88 -38t63 -44t55 -50l23 -21l22 21q32 31 55 50t63 44t88 38t103 13q138 0 231 -95t93 -243q0 -149 -94 -243l-123 -123q-92 -95 -229 -95q-55 0 -103.5 13t-88.5 38.5t-63 44.5t-55 50
l-22 20l-23 -20q-32 -31 -55 -50t-63 -44.5t-88 -38.5t-103 -13zM549 481q85 0 147 33t133 100l52 50l51 -50q71 -67 133 -100t147 -33q121 0 202 84t81 213t-81 213t-202 84q-85 0 -147 -33t-133 -100l-51 -49l-52 49q-71 67 -133 100t-147 33q-121 0 -202 -84t-81 -213
t81 -213t202 -84zM557 645q-59 0 -93 35t-34 98t34 98t93 35q35 0 70.5 -20t87.5 -68l47 -45l-47 -45q-52 -48 -87.5 -68t-70.5 -20zM1204 645q-35 0 -70 20t-87 68l-48 45l48 45q52 48 87 68t70 20q59 0 93 -35t34 -98t-34 -98t-93 -35zM1161 694q-15 51 -71 54
q46 -43 71 -54zM549 686q-43 40 -72 53q15 -50 72 -53z" />
    <glyph glyph-name="integral" unicode="&#x222b;" horiz-adv-x="942" 
d="M102 -287v230l123 123h62v1177q0 154 92 246l123 123q92 92 246 92h92v-229l-123 -123h-62v-1178q0 -154 -92 -246l-123 -123q-92 -92 -245 -92h-93zM266 -123h51q133 0 215 81.5t82 215.5v1208q0 61 37 97.5t97 36.5h51v147h-51q-134 0 -215.5 -81t-81.5 -216v-1208
q0 -60 -37 -96.5t-97 -36.5h-51v-148z" />
    <glyph glyph-name="approxequal" unicode="&#x2248;" 
d="M721 326q-75 0 -208.5 43t-209.5 43q-107 0 -201 -70v246l123 123q10 8 41 26q-90 -10 -164 -67v245l123 123q94 70 201 70q75 0 208.5 -43t209.5 -43q109 0 200 70v-246l-122 -123q-6 -5 -39 -27q85 9 161 68v-246l-122 -123q-89 -69 -201 -69zM844 817q43 0 87 14
t73 35v152q-73 -37 -160 -37q-80 0 -215.5 43t-202.5 43q-86 0 -160 -49v-152q73 37 160 37q82 0 214 -43t204 -43zM844 489q91 0 160 50v151q-73 -37 -160 -37q-80 0 -215.5 43t-202.5 43q-86 0 -160 -49v-151q71 36 160 36q82 0 214 -43t204 -43z" />
    <glyph glyph-name="notequal" unicode="&#x2260;" 
d="M414 195l-195 90l41 86h-158v245l82 82h-82v246l123 123h359l26 53l123 123l195 -90l-41 -86h157v-246l-81 -82h81v-245l-122 -123h-359l-26 -54zM518 373l76 162h410v163h-334l78 164h256v164h-181l49 107l-120 57l-76 -164h-410v-164h334l-78 -164h-256v-163h180
l-49 -107z" />
    <glyph glyph-name="lessequal" unicode="&#x2264;" 
d="M102 287v245l123 123h287l-410 103v205l123 122l819 205v-254l-81 -90l81 -16v-254l-20 -21h20v-245l-122 -123h-820zM1004 729v168l-396 86l396 84v170l-736 -182v-144zM266 451h738v163h-738v-163z" />
    <glyph glyph-name="greaterequal" unicode="&#x2265;" 
d="M102 287v245l29 29l-29 -8v254l88 88l-88 18v254l123 123l819 -205v-204l-122 -123l-412 -103h534v-245l-122 -123h-820zM266 729l735 182v144l-735 182v-170l396 -84l-396 -86v-168zM266 451h738v163h-738v-163z" />
    <glyph glyph-name="lozenge" unicode="&#x25ca;" horiz-adv-x="1089" 
d="M369 -123l-267 737v80l267 740l123 122h229l266 -739v-80l-266 -737l-123 -123h-229zM520 41h172l254 704v66l-254 705h-172l-254 -705v-66zM606 285l-178 493l178 494l178 -494zM567 514l51 141l-96 265l-51 -142z" />
    <glyph glyph-name="i.loclTRK" horiz-adv-x="778" 
d="M424 1556h149v-1556l-122 -123h-246v1557l82 82q-33 11 -52.5 40t-19.5 68q0 49 31 80l121 123q33 33 84 33t81.5 -31t30.5 -82q0 -54 -31 -82zM451 1819q-32 0 -52 -20t-20 -52t20 -52t52 -20q33 0 52 19.5t19 52.5q0 32 -19.5 52t-51.5 20zM532 41v1475h-163v-1475h163
z" />
    <glyph glyph-name="A_v_e" horiz-adv-x="1884" 
d="M82 135v148l82 82h-82l115 819l122 123h209l115 -820l-82 -81h219l-108 778l123 123h163l13 -97l96 97h166l-115 -820l-82 -81h285v778l123 123h358v-156l-123 -123h-71v-53h153v-156l-123 -123h-30v-53h194v-156l-82 -81h82v-148l-123 -123h-1597zM242 520h100l20 176
h123l21 -176h100l-106 754h-152zM936 520h154l104 754h-98l-82 -672l-84 672h-99zM1477 520h292v90h-194v242h154v90h-154v242h194v90h-292v-754zM375 786l49 416l49 -416h-98zM289 406h61l-6 55zM238 291h1531v82h-1531v-82z" />
    <glyph glyph-name="B_l_v_d" horiz-adv-x="2392" 
d="M82 135v148l82 82h-82v819l123 123h190q85 0 137 -52t52 -137v-98q0 -72 -39 -123q39 -51 39 -123v-96q0 -88 -52 -137l-124 -123l-13 -12h312v778l122 123h164v-664h174v-156l-82 -81h187l-109 778l123 123h164l12 -97l97 97h165l-114 -820l-82 -81h280v778l123 123h191
q85 0 136.5 -52t51.5 -137v-440q0 -86 -51 -137l-123 -123q-8 -8 -14 -12h188v-148l-123 -123h-2105zM238 520h157q71 0 113.5 43t42.5 115v96q0 79 -53 123q53 44 53 123v98q0 70 -42.5 113t-113.5 43h-157v-754zM862 520h273v90h-174v664h-99v-754zM1427 520h154l105 754
h-99l-82 -672l-84 672h-98zM1964 520h158q71 0 113 43t42 115v440q0 71 -42.5 113.5t-112.5 42.5h-158v-754zM336 942v242h59q25 0 41.5 -16.5t16.5 -41.5v-125q0 -26 -16.5 -42.5t-41.5 -16.5h-59zM2062 610v574h60q26 0 41.5 -16.5t15.5 -41.5v-456q0 -27 -15.5 -43.5
t-41.5 -16.5h-60zM336 610v242h59q25 0 41.5 -16t16.5 -41v-125q0 -26 -16.5 -43t-41.5 -17h-59zM238 291h2039v82h-2039v-82z" />
    <glyph glyph-name="C_O" horiz-adv-x="870" 
d="M184 -123v148l107 106q-50 22 -78.5 67t-28.5 107v260q0 84 54 135l98 101q-69 11 -110.5 61t-41.5 125v260q0 78 54 135l120 123q51 54 140 54q85 0 136.5 -52t51.5 -137v-94l-76 -74h76v-92q0 -86 -53 -139l-92 -99q64 -11 104.5 -60.5t40.5 -123.5v-260
q0 -89 -53 -139l-123 -121q-15 -15 -23 -21h199v-147l-123 -123h-379zM498 952q71 0 113 43t42 115v59h-98v-67q0 -26 -16 -43t-41 -17q-26 0 -43 17t-17 43v276q0 25 17 41.5t43 16.5q25 0 41 -16.5t16 -41.5v-69h98v61q0 71 -42.5 113.5t-112.5 42.5q-72 0 -115 -42.5
t-43 -113.5v-260q0 -72 43 -115t115 -43zM498 270q71 0 113 43t42 115v260q0 71 -42.5 113.5t-112.5 42.5q-72 0 -115 -42.5t-43 -113.5v-260q0 -72 43 -115t115 -43zM498 360q-26 0 -43 17t-17 43v276q0 25 17 41.5t43 16.5q25 0 41 -16.5t16 -41.5v-276q0 -26 -16 -43
t-41 -17zM340 33h313v82h-313v-82z" />
    <glyph glyph-name="C_i_e" horiz-adv-x="2048" 
d="M522 -154q-152 0 -245 93t-93 245v942q0 154 92 246l123 123q92 92 246 92q155 0 246.5 -94t91.5 -244v-184l-123 -123h-246v201q0 68 -61 88v-940q0 -68 61 -88v166l123 123h246v-185q0 -154 -92 -246l-123 -122q-93 -93 -246 -93zM1073 385v147l82 82h-82v820l123 122
h164v-819l-82 -82h207v779l123 122h358v-155l-123 -131h-71v-45h153v-156l-123 -123h-30v-53h194v-156l-82 -82h82v-147l-123 -123h-770zM645 10q133 0 215 82t82 215v144h-164v-160q0 -60 -36.5 -96.5t-96.5 -36.5t-96.5 36.5t-36.5 96.5v975q0 60 36.5 96.5t96.5 36.5
t96.5 -36.5t36.5 -96.5v-160h164v143q0 133 -82 215t-215 82t-215 -82t-82 -215v-942q0 -133 82 -215t215 -82zM1229 770h98v754h-98v-754zM1640 770h293v90h-194v242h153v90h-153v242h194v90h-293v-754zM1229 541h704v82h-704v-82z" />
    <glyph glyph-name="C_o" horiz-adv-x="1718" 
d="M522 -154q-152 0 -245 93t-93 245v942q0 154 92 246l123 123q92 92 246 92q152 0 245 -93t93 -245v-184l-123 -123h-246v201q0 68 -61 88v-940q0 -68 61 -88v166l123 123h246v-185q0 -154 -92 -246l-123 -122q-93 -93 -246 -93zM1073 377v147l92 92q-92 50 -92 168v471
q0 80 53 136l121 122q51 54 139 54q85 0 137 -52t52 -137v-471q0 -86 -53 -139l-121 -121h174v-147l-123 -123h-379zM645 10q133 0 215 82t82 215v144h-164v-160q0 -60 -36.5 -96.5t-96.5 -36.5t-96.5 36.5t-36.5 96.5v975q0 60 36.5 96.5t96.5 36.5t96.5 -36.5t36.5 -96.5
v-160h164v143q0 133 -82 215t-215 82t-215 -82t-82 -215v-942q0 -133 82 -215t215 -82zM1386 750q71 0 113.5 42.5t42.5 114.5v471q0 70 -43 113t-113 43q-72 0 -114.5 -42.5t-42.5 -113.5v-471q0 -72 42.5 -114.5t114.5 -42.5zM1386 840q-26 0 -42.5 16.5t-16.5 42.5v487
q0 25 16.5 41.5t42.5 16.5t42 -16.5t16 -41.5v-487q0 -26 -16 -42.5t-42 -16.5zM1229 532h313v82h-313v-82z" />
    <glyph glyph-name="E_s_t" horiz-adv-x="1832" 
d="M82 135v148l82 82h-82v819l123 123h358v-156l-123 -123h-71v-53h153v-156l-123 -123h-30v-53h194v-156l-82 -81h213q-49 52 -49 133v112l94 94q-94 94 -94 203v62q0 81 53 137l119 121q55 55 141 55q85 0 137 -52.5t52 -137.5v-113l-94 -94q94 -94 94 -203v-61
q0 -88 -53 -138l-119 -118h373v622h-140v156l123 123h441v-156l-123 -123h-15v-541l-82 -81h220v-148l-123 -123h-1567zM958 506q70 0 113 43t43 113v61q0 43 -16 80.5t-40 63t-51.5 52.5t-51.5 49t-40 51.5t-16 61.5v60q0 26 16.5 42.5t42.5 16.5q25 0 41.5 -16.5
t16.5 -42.5v-88h98v80q0 71 -43 114t-113 43q-72 0 -114.5 -43t-42.5 -114v-62q0 -50 22 -93t53.5 -73t63.5 -58t54 -62.5t22 -71.5v-60q0 -26 -16.5 -41.5t-41.5 -15.5q-26 0 -42.5 15.5t-16.5 41.5v88h-98v-79q0 -71 42.5 -113.5t114.5 -42.5zM238 520h292v90h-194v242
h153v90h-153v242h194v90h-292v-754zM1503 520h99v664h137v90h-375v-90h139v-664zM238 291h1501v82h-1501v-82z" />
    <glyph glyph-name="I_n_c" horiz-adv-x="1925" 
d="M666 377v155l82 82h-82v820l122 122h138l24 -73l74 73h164v-819l-82 -82h223q-49 52 -49 133v472q0 81 53 137l121 123q53 53 139 53q85 0 137 -53t52 -138v-112l-123 -123h-92v-174l51 51h164v-113q0 -87 -53 -137l-119 -119h172v-155l-123 -123h-993zM205 -123v1557
l123 122h245v-1556l-122 -123h-246zM1593 756q71 0 113.5 42.5t42.5 112.5v80h-98v-88q0 -26 -16.5 -41.5t-41.5 -15.5q-26 0 -42.5 15.5t-16.5 41.5v488q0 26 16.5 42.5t42.5 16.5q25 0 41.5 -16.5t16.5 -42.5v-88h98v79q0 71 -43 114.5t-113 43.5q-72 0 -114.5 -43.5
t-42.5 -114.5v-471q0 -71 42.5 -113t114.5 -42zM821 770h99v438l153 -438h82v754h-98v-441l-156 441h-80v-754zM369 41h163v1475h-163v-1475zM870 655h43l-12 31zM821 532h928v91h-928v-91z" />
    <glyph glyph-name="L_t_d" horiz-adv-x="1925" 
d="M205 -123v1557l123 122h245v-1327h349v-229l-123 -123h-594zM655 385v147l123 123h17v623h-140v156l123 122h441v-155l-123 -123h-15v-541l-82 -82h281v779l123 122h190q85 0 137 -51.5t52 -136.5v-440q0 -90 -53 -140l-123 -120l-13 -13h189v-147l-123 -123h-1004z
M950 770h99v664h137v90h-375v-90h139v-664zM1436 770h157q71 0 113.5 43t42.5 115v440q0 70 -42.5 113t-113.5 43h-157v-754zM369 41h512v147h-349v1328h-163v-1475zM1534 860v574h59q25 0 41.5 -16.5t16.5 -41.5v-456q0 -26 -16.5 -43t-41.5 -17h-59zM811 541h938v82h-938
v-82z" />
    <glyph glyph-name="M_l_l_e" horiz-adv-x="2945" 
d="M205 -123v1557l123 122h202l187 -526l141 404l123 122h203v-1556l-123 -123h-246v531l-27 -76l-122 -123h-66l-27 76v-285l-122 -123h-246zM1276 385v147l82 82h-82v820l123 122h164v-663h174v-156l-82 -82h143v779l123 122h164v-663h174v-156l-82 -82h143v779l123 122
h359v-155l-123 -123h-72v-53h154v-156l-123 -123h-31v-53h195v-156l-82 -82h82v-147l-123 -123h-1403zM1432 770h272v90h-174v664h-98v-754zM1954 770h272v90h-174v664h-98v-754zM2476 770h293v90h-195v242h154v90h-154v242h195v90h-293v-754zM369 41h163v944l218 -612h12
l217 612v-944h164v1475h-133l-254 -713l-254 713h-133v-1475zM1432 541h1337v82h-1337v-82z" />
    <glyph glyph-name="M_m_e" horiz-adv-x="2615" 
d="M205 -123v1557l123 122h202l187 -526l141 404l123 122h203v-1556l-123 -123h-246v531l-27 -76l-122 -123h-66l-27 76v-285l-122 -123h-246zM1276 385v147l82 82h-82v820l123 122h137l57 -165l15 43l123 122h137v-819l-82 -82h205v779l123 122h358v-155l-123 -123h-72v-53
h154v-156l-123 -127h-31v-49h195v-156l-82 -82h82v-147l-123 -123h-1073zM1432 770h98v438l96 -272h14l97 272v-438h98v754h-80l-123 -344l-121 344h-79v-754zM2146 770h293v90h-194v242h153v90h-153v242h194v90h-293v-754zM369 41h163v944l218 -612h12l217 612v-944h164
v1475h-133l-254 -713l-254 713h-133v-1475zM1481 655h100v164l-18 -18v-64zM1432 541h1007v82h-1007v-82z" />
    <glyph glyph-name="M_r" horiz-adv-x="1949" 
d="M205 -123v1557l123 122h202l187 -526l141 404l123 122h203v-1556l-123 -123h-246v531l-27 -76l-122 -123h-66l-27 76v-285l-122 -123h-246zM1276 385v147l82 82h-82v820l123 122h188q86 0 138.5 -51.5t52.5 -136.5v-154q0 -100 -72 -153l100 -324l-82 -82h54v-147
l-123 -123h-379zM1432 770h98v287h41l88 -287h102l-94 305q78 40 78 139v154q0 71 -43 113.5t-115 42.5h-155v-754zM369 41h163v944l218 -612h12l217 612v-944h164v1475h-133l-254 -713l-254 713h-133v-1475zM1530 1147v287h57q26 0 43 -16.5t17 -41.5v-170q0 -26 -17 -42.5
t-43 -16.5h-57zM1481 655h18l-4 15zM1432 541h313v82h-313v-82z" />
    <glyph glyph-name="M_r_s" horiz-adv-x="2514" 
d="M1276 385v147l82 82h-82v820l123 122h188q86 0 138.5 -51.5t52.5 -136.5v-154q0 -100 -72 -153l100 -324l-82 -82h193q-47 50 -47 133v113l94 94q-94 94 -94 203v62q0 86 51 137l123 123q53 53 137 53q85 0 138 -53t53 -138v-112l-97 -94q45 -45 71 -92t26 -111v-62
q0 -83 -54 -137l-118 -119h172v-147l-123 -123h-973zM205 -123v1557l123 122h202l187 -526l141 404l123 122h203v-1556l-123 -123h-246v531l-27 -76l-122 -123h-66l-27 76v-285l-122 -123h-246zM2181 756q71 0 114.5 42.5t43.5 112.5v62q0 50 -22 93t-53.5 73t-63.5 58
t-54 62.5t-22 71.5v60q0 26 15.5 42.5t41.5 16.5t43 -16.5t17 -42.5v-88h98v79q0 70 -43.5 114t-114.5 44q-70 0 -113 -43.5t-43 -114.5v-61q0 -43 16 -80.5t40 -63t52 -52.5t52 -49t40 -51.5t16 -61.5v-60q0 -26 -16.5 -41.5t-43.5 -15.5q-26 0 -41.5 15.5t-15.5 41.5v88
h-99v-80q0 -70 42.5 -112.5t113.5 -42.5zM1432 770h98v287h41l88 -287h102l-94 305q78 40 78 139v154q0 71 -43 113.5t-115 42.5h-155v-754zM369 41h163v944l218 -612h12l217 612v-944h164v1475h-133l-254 -713l-254 713h-133v-1475zM1530 1147v287h57q26 0 43 -16.5
t17 -41.5v-170q0 -26 -17 -42.5t-43 -16.5h-57zM1481 655h18l-4 15zM1432 541h907v82h-907v-82z" />
    <glyph glyph-name="M_s" horiz-adv-x="1921" 
d="M1276 385v147l90 91q-90 51 -90 165v113l94 94q-94 94 -94 203v62q0 81 53 137l121 123q53 53 137 53q86 0 138.5 -53t52.5 -138v-112l-97 -94q97 -93 97 -203v-62q0 -86 -54 -137l-118 -119h172v-147l-123 -123h-379zM205 -123v1557l123 122h202l187 -526l141 404
l123 122h203v-1556l-123 -123h-246v531l-27 -76l-122 -123h-66l-27 76v-285l-122 -123h-246zM1587 756q72 0 115 42t43 113v62q0 50 -22 93t-53.5 73t-63.5 58t-54 62.5t-22 71.5v60q0 26 16 42.5t41 16.5q26 0 43 -16.5t17 -42.5v-88h98v79q0 71 -43 114.5t-115 43.5
q-70 0 -112.5 -43.5t-42.5 -114.5v-61q0 -43 16 -80.5t40 -63t51.5 -52.5t51.5 -49t40 -51.5t16 -61.5v-60q0 -26 -16.5 -41.5t-43.5 -15.5q-25 0 -41 15.5t-16 41.5v88h-98v-80q0 -71 42 -113t113 -42zM369 41h163v944l218 -612h12l217 612v-944h164v1475h-133l-254 -713
l-254 713h-133v-1475zM1432 541h313v82h-313v-82z" />
    <glyph glyph-name="N_o" horiz-adv-x="1781" 
d="M1137 377v147l92 92q-92 50 -92 168v471q0 80 53 136l121 122q51 54 139 54q85 0 136.5 -52t51.5 -137v-471q0 -86 -53 -139l-121 -121h174v-147l-122 -123h-379zM205 -123v1557l123 122h202l146 -413v291l123 122h245v-1556l-122 -123h-205l-144 408v-285l-122 -123
h-246zM1450 750q71 0 113.5 42.5t42.5 114.5v471q0 70 -43 113t-113 43q-72 0 -115 -42.5t-43 -113.5v-471q0 -72 43 -114.5t115 -42.5zM369 41h163v944l336 -944h136v1475h-164v-949l-338 949h-133v-1475zM1450 840q-26 0 -42.5 16.5t-16.5 42.5v487q0 25 16.5 41.5
t42.5 16.5q25 0 41 -16.5t16 -41.5v-487q0 -26 -16 -42.5t-41 -16.5zM1292 532h314v82h-314v-82z" />
    <glyph glyph-name="a_n_d" horiz-adv-x="1945" 
d="M84 135v148l82 82h-84l115 819l122 123h209l115 -820l-82 -81h156v778l123 123h137l27 -76l71 76h164v-820l-82 -81h205v778l123 123h188q85 0 138 -52t53 -137v-440q0 -85 -54 -139l-122 -121q-6 -6 -15 -12h191v-148l-123 -123h-1657zM244 520h98l20 176h125l21 -176
h98l-104 754h-154zM872 520h99v438l153 -438h82v754h-98v-440l-156 440h-80v-754zM1518 520h155q71 0 114.5 43t43.5 115v440q0 70 -43.5 113t-114.5 43h-155v-754zM375 786l49 416l51 -416h-100zM1616 610v574h57q26 0 43 -16.5t17 -41.5v-456q0 -26 -17 -43t-43 -17h-57z
M289 406h61l-6 55zM922 406h43l-13 30zM240 291h1591v82h-1591v-82z" />
    <glyph glyph-name="a_t" horiz-adv-x="1296" 
d="M1077 1028v-541l-82 -81h219v-148l-122 -123h-1010v148l82 82h-82l115 819l122 123h209l115 -820l-82 -81h230v622h-140v156l123 123h440v-156l-122 -123h-15zM348 1274l-106 -754h100l20 176h123l21 -176h100l-106 754h-152zM1044 520v664h138v90h-375v-90h139v-664h98z
M424 1202l49 -416h-98zM350 406l-6 55l-55 -55h61zM1182 291v82h-944v-82h944z" />
    <glyph glyph-name="a_u" horiz-adv-x="1292" 
d="M82 135v148l82 82h-82l115 819l122 123h209l115 -820l-82 -81h195q-47 50 -47 133v645l122 123h164v-52l52 52h163v-645q0 -85 -53 -138l-119 -118h172v-148l-123 -123h-1005zM242 520h100l20 176h123l21 -176h100l-106 754h-152zM1020 506q71 0 114.5 43t43.5 113v612
h-99v-621q0 -26 -16.5 -41.5t-42.5 -15.5t-41.5 15.5t-15.5 41.5v621h-99v-612q0 -70 43 -113t113 -43zM375 786l49 416l49 -416h-98zM289 406h61l-6 55zM238 291h940v82h-940v-82z" />
    <glyph glyph-name="agrave_hyphen" horiz-adv-x="724" 
d="M82 127v156l82 82h-82l115 819l65 65l-69 107l122 123h131l62 -140l-33 -32h53l115 -820l-82 -81h82v-156l-123 -123h-438zM418 1362h55l-41 94h-76zM242 520h100l20 176h123l21 -176h100l-106 754h-152zM375 786l49 416l49 -416h-98zM289 406h61l-6 55zM238 283h372v90
h-372v-90z" />
    <glyph glyph-name="b_y" horiz-adv-x="1288" 
d="M82 135v148l82 82h-82v819l123 123h190q85 0 137 -52t52 -137v-98q0 -72 -39 -123q39 -51 39 -123v-96q0 -88 -54 -139l-122 -121l-13 -12h381v329l-162 449l123 123h174l37 -105l105 105h174l-164 -449v-371l-82 -81h176v-148l-123 -123h-952zM238 520h157
q71 0 113.5 43t42.5 115v96q0 79 -53 123q53 44 53 123v98q0 70 -42.5 113t-113.5 43h-157v-754zM932 520h98v344l150 410h-105l-94 -258l-92 258h-107l150 -410v-344zM336 942v242h59q25 0 41.5 -16.5t16.5 -41.5v-125q0 -26 -16.5 -42.5t-41.5 -16.5h-59zM336 610v242h59
q25 0 41.5 -16t16.5 -41v-125q0 -26 -16.5 -43t-41.5 -17h-59zM238 291h886v82h-886v-82z" />
    <glyph glyph-name="c_h_e_z" horiz-adv-x="2478" 
d="M82 135v148l90 90q-90 51 -90 166v471q0 87 53 137l123 123q53 53 137 53q85 0 137 -52.5t52 -137.5v-113l-123 -123h-92v-174l51 51h164v-112q0 -87 -54 -138l-118 -118h284v778l123 123h164v-52l51 52h164v-820l-82 -81h205v778l123 123h358v-156l-123 -131h-71v-45
h153v-156l-123 -123h-30v-53h194v-156l-82 -81h164v55l197 567h-187v156l123 123h379v-97l-196 -567h186v-156l-82 -81h82v-148l-123 -123h-2181zM395 506q71 0 113.5 43t42.5 113v79h-98v-88q0 -26 -16.5 -41.5t-41.5 -15.5q-26 0 -42.5 15.5t-16.5 41.5v488
q0 26 16.5 42.5t42.5 16.5q25 0 41.5 -16.5t16.5 -42.5v-88h98v80q0 71 -43 114t-113 43q-72 0 -114.5 -43t-42.5 -114v-471q0 -71 42.5 -113.5t114.5 -42.5zM852 520h98v332h117v-332h98v754h-98v-332h-117v332h-98v-754zM1477 520h292v90h-194v242h154v90h-154v242h194v90
h-292v-754zM2040 520h313v90h-199l209 607v57h-313v-90h199l-209 -606v-58zM901 406h10v10zM238 291h2115v82h-2115v-82z" />
    <glyph glyph-name="d_e" horiz-adv-x="1269" 
d="M82 135v148l82 82h-82v819l123 123h190q85 0 137 -52t52 -137v-440q0 -85 -54 -139l-122 -121l-13 -12h312v778l122 123h359v-156l-123 -123h-72v-53h154v-156l-123 -123h-31v-53h195v-156l-82 -81h82v-148l-123 -123h-983zM238 520h157q71 0 113.5 43t42.5 115v440
q0 70 -42.5 113t-113.5 43h-157v-754zM862 520h293v90h-194v242h153v90h-153v242h194v90h-293v-754zM336 610v574h59q25 0 41.5 -16.5t16.5 -41.5v-456q0 -26 -16.5 -43t-41.5 -17h-59zM238 291h917v82h-917v-82z" />
    <glyph glyph-name="d_e_p_u_i_s" horiz-adv-x="3522" 
d="M82 135v148l82 82h-82v819l123 123h190q85 0 137 -52t52 -137v-440q0 -85 -52 -137l-137 -135h312v778l122 123h359v-156l-123 -123h-72v-53h154v-156l-123 -123h-31v-53h195v-156l-82 -81h194v778l123 123h191q85 0 136.5 -52t51.5 -137v-153q0 -87 -53 -140l-123 -120
q-20 -20 -39 -31v-187l-82 -81h449q-49 52 -49 133v645l123 123h163v-52l52 52h163v-645q0 -85 -53 -138l-119 -118h295v778l123 123h164v-820l-82 -81h254q-49 52 -49 133v112l94 94q-94 94 -94 203v62q0 87 53 137l123 123q53 53 137 53q85 0 137 -52.5t52 -137.5v-113
l-97 -94q97 -93 97 -203v-61q0 -84 -54 -138l-118 -118h172v-148l-123 -123h-3236zM3252 506q70 0 113 43t43 113v61q0 43 -16 80.5t-40 63t-51.5 52.5t-51.5 49t-40 51.5t-16 61.5v60q0 26 16.5 42.5t42.5 16.5q25 0 41.5 -16.5t16.5 -42.5v-88h98v80q0 71 -43 114t-113 43
q-72 0 -114.5 -43t-42.5 -114v-62q0 -50 22 -93t53.5 -73t63.5 -58t54 -62.5t22 -71.5v-60q0 -26 -16.5 -41.5t-41.5 -15.5q-26 0 -42.5 15.5t-16.5 41.5v88h-98v-79q0 -71 42.5 -113.5t114.5 -42.5zM238 520h157q71 0 113.5 43t42.5 115v440q0 70 -42.5 113t-113.5 43h-157
v-754zM862 520h293v90h-194v242h153v90h-153v242h194v90h-293v-754zM1456 520h98v287h60q71 0 113 43t42 115v153q0 71 -42.5 113.5t-112.5 42.5h-158v-754zM2218 506q70 0 113 43t43 113v612h-99v-621q0 -26 -16 -41.5t-41 -15.5q-26 0 -42.5 15.5t-16.5 41.5v621h-99v-612
q0 -71 43 -113.5t115 -42.5zM2685 520h98v754h-98v-754zM336 610v574h59q25 0 41.5 -16.5t16.5 -41.5v-456q0 -26 -16.5 -43t-41.5 -17h-59zM1554 897v287h60q25 0 41 -16.5t16 -41.5v-170q0 -26 -16 -42.5t-41 -16.5h-60zM238 291h3170v82h-3170v-82z" />
    <glyph glyph-name="d_e_s" horiz-adv-x="1853" 
d="M82 135v148l82 82h-82v819l123 123h190q85 0 137 -52t52 -137v-440q0 -85 -54 -139l-122 -121l-13 -12h312v778l122 123h359v-156l-123 -123h-72v-53h154v-156l-123 -123h-31v-53h195v-156l-82 -81h213q-49 52 -49 133v112l94 94q-94 94 -94 203v62q0 87 53 137l123 123
q53 53 137 53q85 0 137 -52.5t52 -137.5v-113l-97 -94q97 -93 97 -203v-61q0 -87 -54 -138l-119 -118h173v-148l-123 -123h-1567zM1583 506q71 0 113.5 43t42.5 113v61q0 50 -22 93t-53.5 73t-63.5 58t-54 62.5t-22 71.5v60q0 26 16.5 42.5t42.5 16.5q25 0 41 -16.5
t16 -42.5v-88h99v80q0 71 -43 114t-113 43q-72 0 -115 -43t-43 -114v-62q0 -50 22 -93t53.5 -73t63.5 -58t54 -62.5t22 -71.5v-60q0 -26 -16 -41.5t-41 -15.5q-26 0 -42.5 15.5t-16.5 41.5v88h-99v-79q0 -71 43 -113.5t115 -42.5zM238 520h157q71 0 113.5 43t42.5 115v440
q0 70 -42.5 113t-113.5 43h-157v-754zM862 520h293v90h-194v242h153v90h-153v242h194v90h-293v-754zM336 610v574h59q25 0 41.5 -16.5t16.5 -41.5v-456q0 -26 -16.5 -43t-41.5 -17h-59zM238 291h1501v82h-1501v-82z" />
    <glyph glyph-name="d_u" horiz-adv-x="1290" 
d="M82 135v148l82 82h-82v819l123 123h190q85 0 137 -52t52 -137v-440q0 -85 -54 -139l-122 -121l-13 -12h361q-49 52 -49 133v645l122 123h164v-52l51 52h164v-645q0 -85 -53 -138l-119 -118h172v-148l-123 -123h-1003zM238 520h157q71 0 113.5 43t42.5 115v440
q0 70 -42.5 113t-113.5 43h-157v-754zM1020 506q70 0 113 43t43 113v612h-99v-621q0 -26 -16 -41.5t-41 -15.5q-26 0 -42.5 15.5t-16.5 41.5v621h-99v-612q0 -71 43 -113.5t115 -42.5zM336 610v574h59q25 0 41.5 -16.5t16.5 -41.5v-456q0 -26 -16.5 -43t-41.5 -17h-59z
M238 291h938v82h-938v-82z" />
    <glyph glyph-name="e_m_e" horiz-adv-x="1923" 
d="M82 385v147l82 82h-82v820l123 122h358v-155l-123 -123h-71v-53h153v-156l-123 -123h-30v-53h194v-156l-82 -82h164v779l123 122h137l58 -165l14 43l123 122h137v-819l-82 -82h205v779l123 122h358v-155l-123 -123h-71v-53h153v-156l-123 -123h-30v-53h194v-156l-82 -82
h82v-147l-123 -123h-1636zM238 770h292v90h-194v242h153v90h-153v242h194v90h-292v-754zM801 770h98v438l96 -272h15l96 272v-438h98v754h-80l-120 -344l-123 344h-80v-754zM1516 770h292v90h-194v242h153v90h-153v242h194v90h-292v-754zM850 655h100v164l-18 -18v-64z
M238 541h1570v82h-1570v-82z" />
    <glyph glyph-name="e_n" horiz-adv-x="1249" 
d="M82 133v148l82 81h-82v820l123 123h358v-156l-123 -123h-71v-53h153v-156l-123 -123h-30v-53h194v-156l-82 -82h164v779l123 123h137l27 -76l72 76h163v-820l-82 -82h82v-147l-123 -123h-962zM238 518h292v90h-194v242h153v90h-153v242h194v90h-292v-754zM801 518h98v438
l154 -438h82v754h-99v-441l-155 441h-80v-754zM850 403h43l-12 31zM238 289h897v82h-897v-82z" />
    <glyph glyph-name="e_r" horiz-adv-x="1228" 
d="M82 385v147l82 82h-82v820l123 122h358v-155l-123 -123h-71v-53h153v-156l-123 -123h-30v-53h194v-156l-82 -82h164v779l123 122h190q85 0 137 -51.5t52 -136.5v-154q0 -100 -72 -153l101 -324l-82 -82h53v-147l-123 -123h-942zM238 770h292v90h-194v242h153v90h-153v242
h194v90h-292v-754zM801 770h98v287h41l88 -287h102l-94 305q78 40 78 139v154q0 70 -43 113t-113 43h-157v-754zM899 1147v287h59q25 0 41.5 -16.5t16.5 -41.5v-170q0 -26 -16.5 -42.5t-41.5 -16.5h-59zM850 655h18l-4 15zM238 541h876v82h-876v-82z" />
    <glyph glyph-name="e_r_e" horiz-adv-x="1812" 
d="M82 385v147l82 82h-82v820l123 122h358v-155l-123 -123h-71v-53h153v-156l-123 -123h-30v-53h194v-156l-82 -82h164v779l123 122h190q85 0 137 -51.5t52 -136.5v-154q0 -100 -72 -153l101 -324l-82 -82h155v779l123 122h359v-155l-123 -123h-72v-53h154v-156l-123 -123
h-31v-53h195v-156l-82 -82h82v-147l-123 -123h-1526zM238 770h292v90h-194v242h153v90h-153v242h194v90h-292v-754zM801 770h98v287h41l88 -287h102l-94 305q78 40 78 139v154q0 70 -43 113t-113 43h-157v-754zM1405 770h293v90h-195v242h154v90h-154v242h195v90h-293v-754z
M899 1147v287h59q25 0 41.5 -16.5t16.5 -41.5v-170q0 -26 -16.5 -42.5t-41.5 -16.5h-59zM850 655h18l-4 15zM238 541h1460v82h-1460v-82z" />
    <glyph glyph-name="e_t" horiz-adv-x="1310" 
d="M82 135v148l82 82h-82v819l123 123h358v-156l-123 -123h-71v-53h153v-156l-123 -123h-30v-53h194v-156l-82 -81h324v622h-139v164l122 115h441v-156l-123 -123h-14v-541l-82 -81h219v-148l-123 -123h-1024zM238 520h292v90h-194v242h153v90h-153v242h194v90h-292v-754z
M961 520h98v664h137v90h-375v-90h140v-664zM238 291h958v82h-958v-82z" />
    <glyph glyph-name="egrave_m_e" horiz-adv-x="1923" 
d="M82 385v147l82 82h-82v820l111 110l-41 62l122 123h132l61 -140l-35 -33h131v-155l-123 -123h-71v-53h153v-156l-123 -123h-30v-53h194v-156l-82 -82h164v779l123 122h137l58 -165l14 43l123 122h137v-819l-82 -82h205v779l123 122h358v-155l-123 -123h-71v-49h153v-160
l-123 -123h-30v-53h194v-156l-82 -82h82v-147l-123 -123h-1636zM377 1612h55l-41 94h-76zM238 770h292v90h-194v242h153v90h-153v242h194v90h-292v-754zM801 770h98v438l96 -272h15l96 272v-438h98v754h-80l-120 -344l-123 344h-80v-754zM1516 770h292v90h-194v242h153v94
h-153v238h194v90h-292v-754zM850 655h100v164l-18 -18v-64zM238 541h1570v82h-1570v-82z" />
    <glyph glyph-name="egrave_r_e" horiz-adv-x="1812" 
d="M82 385v147l82 82h-82v820l111 110l-41 62l122 123h132l61 -140l-35 -33h131v-155l-123 -123h-71v-53h153v-156l-123 -123h-30v-53h194v-156l-82 -82h164v779l123 122h190q85 0 137 -51.5t52 -136.5v-154q0 -100 -72 -153l101 -324l-82 -82h155v779l123 122h359v-155
l-123 -123h-72v-53h154v-156l-123 -123h-31v-53h195v-156l-82 -82h82v-147l-123 -123h-1526zM377 1612h55l-41 94h-76zM238 770h292v90h-194v242h153v90h-153v242h194v90h-292v-754zM801 770h98v287h41l88 -287h102l-94 305q78 40 78 139v154q0 70 -43 113t-113 43h-157
v-754zM1405 770h293v90h-195v242h154v90h-154v242h195v90h-293v-754zM899 1147v287h59q25 0 41.5 -16.5t16.5 -41.5v-170q0 -26 -16.5 -42.5t-41.5 -16.5h-59zM850 655h18l-4 15zM238 541h1460v82h-1460v-82z" />
    <glyph glyph-name="f_o_r" horiz-adv-x="1853" 
d="M82 135v148l82 82h-82v819l123 123h358v-156l-123 -123h-71v-53h153v-156l-123 -123h-30v-209l-82 -81h424q-66 53 -66 149v471q0 78 53 135l121 123q50 53 139 53q85 0 137 -51.5t52 -136.5v-471q0 -89 -53 -139l-136 -133h312v778l123 123h190q85 0 137 -52t52 -137
v-153q0 -101 -72 -154l100 -324l-82 -81h54v-148l-123 -123h-1567zM958 520q71 0 113.5 43t42.5 115v471q0 71 -43 113.5t-113 42.5q-72 0 -114.5 -42.5t-42.5 -113.5v-471q0 -72 42.5 -115t114.5 -43zM238 520h98v332h153v90h-153v242h194v90h-292v-754zM1425 520h99v287
h41l88 -287h102l-94 305q37 19 57.5 56t20.5 84v153q0 70 -42.5 113t-113.5 43h-158v-754zM958 610q-26 0 -42.5 17t-16.5 43v487q0 25 16.5 41t42.5 16q25 0 41.5 -16t16.5 -41v-487q0 -26 -16.5 -43t-41.5 -17zM1524 897v287h59q25 0 41 -16.5t16 -41.5v-170
q0 -26 -16 -42.5t-41 -16.5h-59zM1475 406h18l-4 14zM238 291h1501v82h-1501v-82z" />
    <glyph glyph-name="f_r_o_m" horiz-adv-x="2547" 
d="M82 135v148l82 82h-82v819l123 123h358v-156l-123 -123h-71v-53h153v-156l-123 -123h-30v-209l-82 -81h358v778l123 123h190q85 0 137 -52t52 -137v-153q0 -101 -72 -154l101 -324l-82 -81h221q-66 53 -66 149v471q0 78 54 135l120 123q50 53 140 53q85 0 136.5 -51.5
t51.5 -136.5v-471q0 -86 -53 -139l-135 -133h311v778l123 123h137l57 -166l15 43l123 123h137v-820l-82 -81h82v-148l-123 -123h-2261zM1563 520q71 0 113 43t42 115v471q0 71 -42.5 113.5t-112.5 42.5q-72 0 -115 -42.5t-43 -113.5v-471q0 -72 43 -115t115 -43zM238 520h98
v332h153v90h-153v242h194v90h-292v-754zM801 520h98v287h41l88 -287h102l-94 305q37 19 57.5 56t20.5 84v153q0 70 -43 113t-113 43h-157v-754zM2030 520h98v438l96 -272h14l97 272v-438h98v754h-80l-121 -344l-123 344h-79v-754zM1563 610q-26 0 -43 17t-17 43v487
q0 25 17 41t43 16q25 0 41 -16t16 -41v-487q0 -26 -16 -43t-41 -17zM899 897v287h59q25 0 41.5 -16.5t16.5 -41.5v-170q0 -26 -16.5 -42.5t-41.5 -16.5h-59zM2079 406h100v163l-18 -18v-64zM850 406h18l-4 14zM238 291h2195v82h-2195v-82z" />
    <glyph glyph-name="i_n" horiz-adv-x="1095" 
d="M82 135v148l82 82h-82v819l123 123h164v-820l-82 -81h205v778l122 123h138l24 -74l74 74h164v-820l-82 -81h82v-148l-123 -123h-809zM238 520h98v754h-98v-754zM647 520h98v438l154 -438h82v754h-98v-440l-156 440h-80v-754zM696 406h43l-12 30zM238 291h743v82h-743v-82
z" />
    <glyph glyph-name="i_n_c" horiz-adv-x="1720" 
d="M82 135v148l82 82h-82v819l123 123h164v-820l-82 -81h205v778l122 123h138l24 -74l74 74h164v-820l-82 -81h254q-49 52 -49 133v471q0 84 53 137l123 123q53 53 137 53q85 0 136.5 -52.5t51.5 -137.5v-113l-122 -123h-93v-174l52 51h163v-112q0 -88 -53 -138l-119 -118
h172v-148l-122 -123h-1434zM1450 506q70 0 113 43t43 113v79h-99v-88q0 -26 -16 -41.5t-41 -15.5q-26 0 -42.5 15.5t-16.5 41.5v488q0 26 16.5 42.5t42.5 16.5q25 0 41 -16.5t16 -42.5v-88h99v80q0 71 -43 114t-113 43q-72 0 -115 -43t-43 -114v-471q0 -71 43 -113.5
t115 -42.5zM238 520h98v754h-98v-754zM647 520h98v438l154 -438h82v754h-98v-440l-156 440h-80v-754zM696 406h43l-12 30zM238 291h1368v82h-1368v-82z" />
    <glyph glyph-name="l_a" horiz-adv-x="1247" 
d="M82 135v148l82 82h-82v819l123 123h164v-664h174v-156l-82 -81h149l109 778l123 123h209l114 -820l-82 -81h82v-148l-123 -123h-960zM238 520h272v90h-174v664h-98v-754zM764 520h100l21 176h123l20 -176h100l-106 754h-152zM897 786l49 416l49 -416h-98zM811 406h61
l-6 55zM238 291h895v82h-895v-82z" />
    <glyph glyph-name="l_e" horiz-adv-x="1187" 
d="M82 135v148l82 82h-82v819l123 123h164v-664h174v-156l-82 -81h164v778l123 123h358v-156l-123 -123h-72v-53h154v-156l-123 -123h-31v-53h195v-156l-82 -81h82v-148l-123 -123h-901zM238 520h272v90h-174v664h-98v-754zM780 520h293v90h-194v242h153v90h-153v242h194v90
h-293v-754zM238 291h835v82h-835v-82z" />
    <glyph glyph-name="l_e_s" horiz-adv-x="1771" 
d="M82 135v148l82 82h-82v819l123 123h164v-664h174v-156l-82 -81h164v778l123 123h358v-156l-123 -123h-72v-53h154v-156l-123 -123h-31v-53h195v-156l-82 -81h213q-49 52 -49 133v112l94 94q-94 94 -94 211v54q0 87 53 137l123 123q53 53 137 53q85 0 137 -52.5t52 -137.5
v-113l-95 -94q95 -95 95 -203v-61q0 -87 -54 -138l-118 -118h172v-148l-123 -123h-1485zM1501 506q71 0 113.5 43t42.5 113v61q0 50 -22 93t-53.5 73t-63.5 58t-54 62.5t-22 71.5v60q0 26 16.5 42.5t42.5 16.5q25 0 41.5 -16.5t16.5 -42.5v-88h98v80q0 71 -43 114t-113 43
q-72 0 -115 -43t-43 -114v-62q0 -43 16 -80.5t40 -63t52 -52.5t52 -49t40 -51.5t16 -61.5v-60q0 -26 -16.5 -41.5t-41.5 -15.5q-26 0 -42.5 15.5t-16.5 41.5v88h-99v-79q0 -71 43 -113.5t115 -42.5zM238 520h272v90h-174v664h-98v-754zM780 520h293v90h-194v242h153v90h-153
v242h194v90h-293v-754zM238 291h1419v82h-1419v-82z" />
    <glyph glyph-name="l_t_d" horiz-adv-x="1675" 
d="M82 135v148l82 82h-82v819l123 123h164v-664h174v-156l-82 -81h143v620h-137v158l123 123h440v-158l-123 -123h-16v-539l-82 -81h283v778l122 123h189q85 0 137.5 -52t52.5 -137v-440q0 -86 -53 -139l-135 -133h188v-148l-123 -123h-1388zM238 520h272v90h-174v664h-98
v-754zM760 520h98v662h139v92h-374v-92h137v-662zM1247 520h156q71 0 114.5 43t43.5 115v440q0 70 -43.5 113t-114.5 43h-156v-754zM1346 610v574h57q26 0 42.5 -16.5t16.5 -41.5v-456q0 -26 -16.5 -43t-42.5 -17h-57zM238 291h1323v82h-1323v-82z" />
    <glyph glyph-name="n_d" horiz-adv-x="1310" 
d="M82 385v147l82 82h-82v820l123 122h137l27 -75l71 75h164v-819l-82 -82h205v779l123 122h190q85 0 137 -51.5t52 -136.5v-440q0 -87 -53 -140l-136 -133h189v-147l-123 -123h-1024zM238 770h98v438l153 -438h82v754h-98v-441l-156 441h-79v-754zM883 770h157
q71 0 113.5 43t42.5 115v440q0 70 -43 113t-113 43h-157v-754zM981 860v574h59q25 0 41.5 -16.5t16.5 -41.5v-456q0 -26 -16.5 -43t-41.5 -17h-59zM287 655h43l-13 31zM238 541h958v82h-958v-82z" />
    <glyph glyph-name="o_f" horiz-adv-x="1269" 
d="M82 135v148l100 100q-46 22 -73 67.5t-27 104.5v471q0 79 53 135l121 123q50 53 139 53q85 0 137 -51.5t52 -136.5v-471q0 -85 -54 -139l-135 -133h312v778l122 123h359v-156l-123 -123h-72v-53h154v-156l-123 -123h-31v-209l-82 -81h277v-148l-123 -123h-983zM395 520
q71 0 113.5 43t42.5 115v471q0 71 -42.5 113.5t-113.5 42.5q-72 0 -114.5 -42.5t-42.5 -113.5v-471q0 -72 42.5 -115t114.5 -43zM862 520h99v332h153v90h-153v242h194v90h-293v-754zM395 610q-26 0 -42.5 17t-16.5 43v487q0 25 16.5 41t42.5 16q25 0 41.5 -16t16.5 -41v-487
q0 -26 -16.5 -43t-41.5 -17zM238 291h917v82h-917v-82z" />
    <glyph glyph-name="o_r" horiz-adv-x="1290" 
d="M82 135v148l100 100q-46 22 -73 67.5t-27 104.5v471q0 79 53 135l121 123q50 53 139 53q85 0 137 -51.5t52 -136.5v-471q0 -85 -54 -139l-135 -133h312v778l122 123h191q85 0 136.5 -52t51.5 -137v-153q0 -102 -71 -154l100 -324l-82 -81h53v-148l-123 -123h-1003z
M395 520q71 0 113.5 43t42.5 115v471q0 71 -42.5 113.5t-113.5 42.5q-72 0 -114.5 -42.5t-42.5 -113.5v-471q0 -72 42.5 -115t114.5 -43zM862 520h99v287h40l89 -287h102l-94 305q37 19 57.5 56t20.5 84v153q0 70 -43 113t-113 43h-158v-754zM395 610q-26 0 -42.5 17
t-16.5 43v487q0 25 16.5 41t42.5 16q25 0 41.5 -16t16.5 -41v-487q0 -26 -16.5 -43t-41.5 -17zM961 897v287h59q25 0 41 -16.5t16 -41.5v-170q0 -26 -16 -42.5t-41 -16.5h-59zM911 406h19l-4 14zM238 291h938v82h-938v-82z" />
    <glyph glyph-name="p_o_u_r" horiz-adv-x="2545" 
d="M82 135v148l82 82h-82v819l123 123h190q85 0 137 -52t52 -137v-153q0 -86 -54 -140l-122 -120q-20 -20 -39 -31v-187l-82 -81h465q-66 53 -66 149v471q0 79 53 135l121 123q50 53 139 53q85 0 137 -51.5t52 -136.5v-471q0 -86 -53 -139l-136 -133h361q-49 52 -49 133v645
l123 123h163v-52l52 52h163v-645q0 -88 -53 -138l-119 -118h295v778l123 123h189q85 0 137.5 -52t52.5 -137v-153q0 -101 -72 -154l99 -324l-82 -81h55v-148l-123 -123h-2232zM999 520q71 0 113.5 43t42.5 115v471q0 71 -42.5 113.5t-113.5 42.5q-72 0 -114.5 -42.5
t-42.5 -113.5v-471q0 -72 42.5 -115t114.5 -43zM238 520h98v287h59q71 0 113.5 43t42.5 115v153q0 70 -42.5 113t-113.5 43h-157v-754zM1624 506q70 0 113 43t43 113v612h-99v-621q0 -26 -16 -41.5t-41 -15.5q-26 0 -42.5 15.5t-16.5 41.5v621h-99v-612q0 -71 43 -113.5
t115 -42.5zM2091 520h98v287h41l88 -287h103l-94 305q37 19 57 56t20 84v153q0 70 -43 113t-114 43h-156v-754zM999 610q-26 0 -42.5 17t-16.5 43v487q0 25 16.5 41t42.5 16q25 0 41.5 -16t16.5 -41v-487q0 -26 -16.5 -43t-41.5 -17zM336 897v287h59q25 0 41.5 -16.5
t16.5 -41.5v-170q0 -26 -16.5 -42.5t-41.5 -16.5h-59zM2189 897v287h58q26 0 42.5 -16.5t16.5 -41.5v-170q0 -26 -16.5 -42.5t-42.5 -16.5h-58zM2140 406h19l-5 14zM238 291h2166v82h-2166v-82z" />
    <glyph glyph-name="r_d" horiz-adv-x="1269" 
d="M82 385v147l82 82h-82v820l123 122h190q85 0 137 -51.5t52 -136.5v-154q0 -100 -72 -153l100 -324l-82 -82h156v779l123 122h190q85 0 137 -51.5t52 -136.5v-440q0 -87 -53 -140l-136 -133h189v-147l-123 -123h-983zM238 770h98v287h41l88 -287h102l-94 305q78 40 78 139
v154q0 70 -42.5 113t-113.5 43h-157v-754zM842 770h157q71 0 113.5 43t42.5 115v440q0 70 -42.5 113t-113.5 43h-157v-754zM336 1147v287h59q25 0 41.5 -16.5t16.5 -41.5v-170q0 -26 -16.5 -42.5t-41.5 -16.5h-59zM940 860v574h59q25 0 41.5 -16.5t16.5 -41.5v-456
q0 -26 -16.5 -43t-41.5 -17h-59zM287 655h18l-4 15zM238 541h917v82h-917v-82z" />
    <glyph glyph-name="r_u_e" horiz-adv-x="1869" 
d="M82 135v148l82 82h-82v819l123 123h190q85 0 137 -52t52 -137v-153q0 -101 -72 -154l100 -324l-82 -81h201q-49 52 -49 133v645l123 123h164v-52l51 52h164v-645q0 -87 -54 -138l-118 -118h295v778l123 123h358v-156l-123 -123h-72v-53h154v-156l-123 -123h-31v-53h195
v-156l-82 -81h82v-148l-123 -123h-1583zM238 520h98v287h41l88 -287h102l-94 305q37 19 57.5 56t20.5 84v153q0 70 -42.5 113t-113.5 43h-157v-754zM995 506q71 0 113.5 43t42.5 113v612h-98v-621q0 -26 -16.5 -41.5t-41.5 -15.5q-26 0 -42.5 15.5t-16.5 41.5v621h-98v-612
q0 -71 42.5 -113.5t114.5 -42.5zM1462 520h293v90h-194v242h153v90h-153v242h194v90h-293v-754zM336 897v287h59q25 0 41.5 -16.5t16.5 -41.5v-170q0 -26 -16.5 -42.5t-41.5 -16.5h-59zM287 406h18l-4 14zM238 291h1517v82h-1517v-82z" />
    <glyph glyph-name="s_i_n_c_e" horiz-adv-x="2918" 
d="M82 135v148l90 90q-90 51 -90 166v112l94 94q-94 94 -94 203v62q0 87 53 137l123 123q53 53 137 53q85 0 137 -52.5t52 -137.5v-113l-97 -94q97 -93 97 -203v-61q0 -87 -54 -138l-118 -118h284v778l123 123h164v-820l-82 -81h205v778l123 123h137l27 -76l71 76h164v-820
l-82 -81h254q-49 52 -49 133v471q0 87 53 137l123 123q53 53 137 53q85 0 137 -52.5t52 -137.5v-113l-123 -123h-92v-174l51 51h164v-112q0 -88 -53 -138l-119 -118h274v778l123 123h358v-156l-122 -123h-72v-53h154v-156l-123 -123h-31v-53h194v-156l-81 -81h81v-148
l-122 -123h-2632zM395 506q71 0 113.5 43t42.5 113v61q0 50 -22 93t-53.5 73t-63.5 58t-54 62.5t-22 71.5v60q0 26 16.5 42.5t42.5 16.5q25 0 41.5 -16.5t16.5 -42.5v-88h98v80q0 71 -43 114t-113 43q-72 0 -114.5 -43t-42.5 -114v-62q0 -43 16 -80.5t40 -63t51.5 -52.5
t51.5 -49t40 -51.5t16 -61.5v-60q0 -26 -16.5 -41.5t-41.5 -15.5q-26 0 -42.5 15.5t-16.5 41.5v88h-98v-79q0 -71 42.5 -113.5t114.5 -42.5zM2064 506q70 0 113 43t43 113v79h-98v-88q0 -26 -16.5 -41.5t-41.5 -15.5q-26 0 -42.5 15.5t-16.5 41.5v488q0 26 16.5 42.5
t42.5 16.5q25 0 41.5 -16.5t16.5 -42.5v-88h98v80q0 71 -43 114t-113 43q-72 0 -114.5 -43t-42.5 -114v-471q0 -71 42.5 -113.5t114.5 -42.5zM852 520h98v754h-98v-754zM1262 520h98v438l153 -438h82v754h-98v-440l-156 440h-79v-754zM2511 520h293v90h-195v242h154v90h-154
v242h195v90h-293v-754zM1311 406h43l-13 30zM238 291h2566v82h-2566v-82z" />
    <glyph glyph-name="s_t" horiz-adv-x="1259" 
d="M82 385v147l90 91q-90 51 -90 165v113l94 94q-94 94 -94 203v62q0 87 53 137l123 123q53 53 137 53q85 0 137 -53t52 -138v-112l-97 -94q97 -93 97 -203v-62q0 -86 -54 -137l-118 -119h362v623h-139v156l123 122h440v-155l-123 -123h-14v-541l-82 -82h219v-147l-123 -123
h-993zM395 756q71 0 113.5 42.5t42.5 112.5v62q0 50 -22 93t-53.5 73t-63.5 58t-54 62.5t-22 71.5v60q0 26 16.5 42.5t42.5 16.5q25 0 41.5 -16.5t16.5 -42.5v-88h98v79q0 71 -43 114.5t-113 43.5q-72 0 -114.5 -43.5t-42.5 -114.5v-61q0 -43 16 -80.5t40 -63t51.5 -52.5
t51.5 -49t40 -51.5t16 -61.5v-60q0 -26 -16.5 -41.5t-41.5 -15.5q-26 0 -42.5 15.5t-16.5 41.5v88h-98v-80q0 -71 42.5 -113t114.5 -42zM930 770h98v664h137v90h-374v-90h139v-664zM238 541h927v82h-927v-82z" />
    <glyph glyph-name="t_h" horiz-adv-x="1269" 
d="M61 385v147l123 123h17v623h-140v156l123 122h441v-155l-123 -123h-15v-541l-81 -82h280v779l123 122h164v-51l51 51h164v-819l-82 -82h82v-147l-123 -123h-1004zM356 770h99v664h137v90h-375v-90h139v-664zM842 770h98v332h117v-332h98v754h-98v-332h-117v332h-98v-754z
M891 655h10v11zM217 541h938v82h-938v-82z" />
    <glyph glyph-name="t_h_e" horiz-adv-x="1914" 
d="M82 135v148l123 123h14v622h-137v156l123 123h440v-156l-123 -123h-14v-541l-82 -81h301v778l123 123h164v-52l51 52h164v-820l-82 -81h205v778l123 123h358v-156l-123 -123h-72v-53h154v-156l-123 -123h-31v-53h195v-156l-82 -81h82v-148l-123 -123h-1628zM377 520h98
v664h137v90h-374v-90h139v-664zM883 520h98v332h117v-332h98v754h-98v-332h-117v332h-98v-754zM1507 520h293v90h-194v242h153v90h-153v242h194v90h-293v-754zM932 406h10v10zM238 291h1562v82h-1562v-82z" />
    <glyph glyph-name="t_o" horiz-adv-x="1310" 
d="M82 135v148l123 123h16v622h-139v156l123 123h440v-156l-123 -123h-14v-541l-82 -81h367q-66 53 -66 149v471q0 79 53 135l121 123q50 53 139 53q85 0 137 -51.5t52 -136.5v-471q0 -86 -53 -139l-136 -133h189v-148l-123 -123h-1024zM1040 520q71 0 113.5 43t42.5 115
v471q0 71 -43 113.5t-113 42.5q-72 0 -114.5 -42.5t-42.5 -113.5v-471q0 -72 42.5 -115t114.5 -43zM377 520h98v664h137v90h-374v-90h139v-664zM1040 610q-26 0 -42.5 17t-16.5 43v487q0 25 16.5 41t42.5 16q25 0 41.5 -16t16.5 -41v-487q0 -26 -16.5 -43t-41.5 -17z
M238 291h958v82h-958v-82z" />
    <glyph glyph-name="v_s" horiz-adv-x="1230" 
d="M1149 1133v-113l-96 -94q45 -45 70.5 -92t25.5 -111v-61q0 -85 -53 -138l-119 -118h172v-148l-123 -123h-944v148l82 82h-8l-115 819l123 123h166l12 -101l94 101h166l-115 -820l-81 -81h288q-47 50 -47 133v112l94 94q-94 94 -94 203v62q0 86 51 137l123 123
q53 53 137 53q85 0 138 -52.5t53 -137.5zM1116 1053v80q0 70 -43.5 113.5t-114.5 43.5q-70 0 -112.5 -43t-42.5 -114v-62q0 -50 22 -93t53.5 -73t63.5 -58t54 -62.5t22 -71.5v-60q0 -26 -16.5 -41.5t-43.5 -15.5q-26 0 -41.5 15.5t-15.5 41.5v88h-98v-79q0 -71 42.5 -113.5
t112.5 -42.5q71 0 114.5 43t43.5 113v61q0 43 -16 80.5t-40 63t-51.5 52.5t-51.5 49t-40 51.5t-16 61.5v60q0 26 15.5 42.5t41.5 16.5t43 -16.5t17 -42.5v-88h98zM301 1274h-100l106 -754h152l106 754h-100l-82 -672zM1116 291v82h-878v-82h878z" />
    <glyph glyph-name="w_i_t_h" horiz-adv-x="2502" 
d="M82 135v148l82 82h-31l-92 819l123 123h166l8 -88l78 88h159l13 -86l74 86h165l-94 -820l-82 -81h254v778l123 123h164v-820l-82 -81h301v622h-137v156l123 123h440v-156l-123 -123h-14v-541l-82 -81h301v778l123 123h164v-52l51 52h164v-820l-82 -81h82v-148l-123 -123
h-2216zM287 520h141l68 537l65 -537h144l83 754h-96l-57 -629l-90 629h-101l-88 -627l-57 627h-98zM1061 520h98v754h-98v-754zM1567 520h98v664h139v90h-374v-90h137v-664zM2075 520h98v332h117v-332h98v754h-98v-332h-117v332h-98v-754zM375 406h31l-5 26zM2124 406h10v10
zM238 291h2150v82h-2150v-82z" />
    <glyph glyph-name="zero.subs" horiz-adv-x="624" 
d="M252 -133q-66 0 -108 41t-42 106v322q0 62 41 106l123 123q41 41 109 41q65 0 106 -41t41 -106v-322q0 -65 -41 -106l-123 -123q-41 -41 -106 -41zM375 23q51 0 82.5 31t31.5 83v322q0 51 -31.5 82.5t-82.5 31.5q-52 0 -84.5 -31.5t-32.5 -82.5v-322q0 -52 32 -83t85 -31
zM375 102q-15 0 -24 8.5t-9 22.5v330q0 14 9 22.5t24 8.5q13 0 22 -9t9 -22v-330q0 -13 -9 -22t-22 -9z" />
    <glyph glyph-name="one.subs" horiz-adv-x="499" 
d="M125 -123v451h-84l53 145l123 123h180v-596l-123 -123h-149zM281 33h84v530h-123l-31 -80h70v-450z" />
    <glyph glyph-name="two.subs" horiz-adv-x="624" 
d="M102 -123v76q0 47 17.5 93t39 75.5t45.5 63.5t32 55h-134v96q0 62 41 106l123 123q41 41 107 41t107.5 -41t41.5 -106v-43q0 -43 -15.5 -87t-32 -70.5t-42.5 -61.5t-33 -47h123v-150l-123 -123h-297zM258 33h231v80h-139q11 40 47 89t64 101t28 113v43q0 51 -32 82.5
t-84 31.5q-51 0 -83 -31.5t-32 -82.5v-64h84v68q0 13 9 22t22 9q15 0 24 -8.5t9 -22.5v-39q0 -37 -15 -72t-37 -63.5t-44 -58.5t-37 -70t-15 -84v-43z" />
    <glyph glyph-name="three.subs" horiz-adv-x="622" 
d="M250 -133q-66 0 -107 41t-41 106v97l76 75v54h-76v96q0 62 41 106l123 123q41 41 107 41q65 0 106 -41t41 -106v-78q0 -45 -22 -84q22 -36 22 -82v-78q0 -65 -41 -106l-123 -123q-41 -41 -106 -41zM373 23q51 0 82.5 31t31.5 83v78q0 50 -32 82q32 32 32 84v78
q0 51 -31.5 82.5t-82.5 31.5q-52 0 -83.5 -31.5t-31.5 -82.5v-64h82v68q0 13 9.5 22t23.5 9q13 0 21.5 -8.5t8.5 -22.5v-94q0 -14 -8.5 -22.5t-21.5 -8.5h-39v-80h39q13 0 21.5 -8.5t8.5 -22.5v-94q0 -14 -8.5 -22.5t-21.5 -8.5q-14 0 -23.5 9t-9.5 22v68h-82v-64
q0 -52 31 -83t84 -31z" />
    <glyph glyph-name="four.subs" horiz-adv-x="575" 
d="M193 -123v117h-152v100l186 379l123 123h115v-336h49v-143l-49 -49v-68l-123 -123h-149zM348 33h84v117h49v77h-49v336h-61l-174 -354v-59h151v-117zM299 227l49 103v-103h-49z" />
    <glyph glyph-name="five.subs" horiz-adv-x="622" 
d="M250 -133q-65 0 -106.5 41.5t-41.5 105.5v97l19 18l-19 4l13 340l123 123h276v-150l-65 -57q71 -41 71 -129v-123q0 -65 -41 -106l-123 -123q-41 -41 -106 -41zM373 23q53 0 83.5 30.5t30.5 83.5v123q0 51 -31 83t-83 32q-11 0 -27 -4l4 108h131v84h-211l-10 -278l84 -15
q7 21 29 21q15 0 24 -8.5t9 -22.5v-127q0 -14 -9 -22.5t-24 -8.5q-13 0 -22 9t-9 22v68h-84v-64q0 -52 32 -83t83 -31z" />
    <glyph glyph-name="six.subs" horiz-adv-x="624" 
d="M252 -133q-66 0 -108 41t-42 106v322q0 62 41 106l123 123q41 41 109 41q65 0 106 -41t41 -106v-97l-26 -28q26 -37 26 -88v-109q0 -65 -41 -106l-123 -123q-41 -41 -106 -41zM375 23q51 0 82.5 31t31.5 83v109q0 51 -31.5 82.5t-82.5 31.5q-13 0 -33 -4v107q0 14 9 22.5
t24 8.5q13 0 22 -9t9 -22v-68h83v64q0 51 -31.5 82.5t-82.5 31.5q-52 0 -84.5 -31.5t-32.5 -82.5v-322q0 -52 32 -83t85 -31zM375 102q-15 0 -24 8.5t-9 22.5v117q0 14 9 22.5t24 8.5q13 0 22 -8.5t9 -22.5v-117q0 -13 -9 -22t-22 -9z" />
    <glyph glyph-name="seven.subs" horiz-adv-x="579" 
d="M109 -123l129 451h-156v145l123 123h323v-109l-141 -487l-123 -123h-155zM276 33h86l134 461v69h-258v-80h165z" />
    <glyph glyph-name="eight.subs" horiz-adv-x="624" 
d="M252 -133q-66 0 -108 41t-42 106v84q0 45 25 84q-25 36 -25 84v70q0 62 41 106l123 123q41 41 109 41q65 0 106 -41t41 -106v-70q0 -48 -22 -84q22 -39 22 -84v-84q0 -65 -41 -106l-123 -123q-41 -41 -106 -41zM375 23q51 0 82.5 31t31.5 83v84q0 52 -32 84q32 32 32 84
v70q0 51 -31.5 82.5t-82.5 31.5q-52 0 -84.5 -31.5t-32.5 -82.5v-70q0 -51 33 -84q-33 -33 -33 -84v-84q0 -52 32 -83t85 -31zM375 342q-15 0 -24 8.5t-9 22.5v90q0 14 9 22.5t24 8.5q13 0 22 -9t9 -22v-90q0 -13 -9 -22t-22 -9zM375 102q-15 0 -24 8.5t-9 22.5v103
q0 14 9 22t24 8q14 0 22.5 -8.5t8.5 -21.5v-103q0 -13 -9 -22t-22 -9z" />
    <glyph glyph-name="nine.subs" horiz-adv-x="624" 
d="M252 -133q-66 0 -108 41t-42 106v97l27 26q-27 42 -27 90v109q0 62 41 106l123 123q41 41 109 41q65 0 106 -41t41 -106v-322q0 -65 -41 -106l-123 -123q-41 -41 -106 -41zM375 23q51 0 82.5 31t31.5 83v322q0 51 -31.5 82.5t-82.5 31.5q-52 0 -84.5 -31.5t-32.5 -82.5
v-109q0 -52 32 -83t85 -31q21 0 31 4v-107q0 -13 -9 -22t-22 -9q-15 0 -24 8.5t-9 22.5v68h-84v-64q0 -52 32 -83t85 -31zM375 315q-15 0 -24 8.5t-9 22.5v117q0 14 9 22.5t24 8.5q13 0 22 -9t9 -22v-117q0 -14 -9 -22.5t-22 -8.5z" />
    <glyph glyph-name="zero.sups" horiz-adv-x="624" 
d="M252 827q-66 0 -108 41.5t-42 106.5v321q0 63 41 107l123 123q41 41 109 41q64 0 105.5 -41.5t41.5 -106.5v-321q0 -66 -41 -107l-123 -123q-41 -41 -106 -41zM375 983q51 0 82.5 31.5t31.5 83.5v321q0 51 -31.5 83t-82.5 32q-52 0 -84.5 -32t-32.5 -83v-321
q0 -52 32 -83.5t85 -31.5zM375 1063q-15 0 -24 8.5t-9 22.5v329q0 14 9 22.5t24 8.5q13 0 22 -9t9 -22v-329q0 -14 -9 -22.5t-22 -8.5z" />
    <glyph glyph-name="one.sups" horiz-adv-x="499" 
d="M125 838v450h-84l53 146l123 122h180v-595l-123 -123h-149zM281 993h84v531h-123l-31 -80h70v-451z" />
    </font>
</defs>
</svg>
