<?xml version="1.0" standalone="no"?>
<!DOCTYPE svg PUBLIC "-//W3C//DTD SVG 1.1//EN" "http://www.w3.org/Graphics/SVG/1.1/DTD/svg11.dtd" >
<svg xmlns="http://www.w3.org/2000/svg" xmlns:xlink="http://www.w3.org/1999/xlink" version="1.1">
<metadata>
Created by FontForge 20201107 at Fri Dec  2 17:29:53 2022
 By 
Copyright 2020 The KumbhSans Project Authors (https://github.com/xconsau/KumbhSans)
</metadata>
<defs>
<font id="KumbhSans-Black" horiz-adv-x="1219" >
  <font-face 
    font-family="Kumbh Sans Black"
    font-weight="900"
    font-stretch="normal"
    units-per-em="2048"
    panose-1="0 0 0 0 0 0 0 0 0 0"
    ascent="1638"
    descent="-410"
    x-height="1000"
    cap-height="1500"
    bbox="-250 -548 2366 2020"
    underline-thickness="120"
    underline-position="-265"
    unicode-range="U+000D-FEFF"
  />
<missing-glyph horiz-adv-x="1120" 
d="M1020 0h-920v1500h920v-1500zM883 1420h-646l323 -576zM920 203v1119l-314 -560zM200 1322v-1119l314 559zM223 80h674l-337 601z" />
    <glyph glyph-name="uniFB00" unicode="ff" horiz-adv-x="1839" 
d="M584 0h-369v671h-175v329h175v116q0 119 59 212.5t161 147.5t231 54q82 0 168.5 -24t170.5 -76l-139 -286q-31 29 -67 42.5t-71 13.5q-58 0 -101 -39.5t-43 -116.5v-44h465v116q0 119 58.5 212.5t160.5 147.5t231 54q82 0 169 -24t171 -76l-140 -286q-62 56 -137 56
q-58 0 -101 -39.5t-43 -116.5v-44h291v-329h-291v-671h-369v671h-465v-671z" />
    <glyph glyph-name="uniFB01" unicode="fi" horiz-adv-x="1426" 
d="M584 0h-369v671h-175v329h175v116q0 119 59 212.5t161 147.5t231 54q82 0 168.5 -24t170.5 -76l-139 -286q-31 29 -67 42.5t-71 13.5q-58 0 -101 -39.5t-43 -116.5v-44h742v-1000h-368v671h-374v-671z" />
    <glyph glyph-name="uniFB02" unicode="fl" horiz-adv-x="1487" 
d="M1387 0h-369v998q0 102 -58.5 162t-155.5 60t-158.5 -58.5t-61.5 -149.5v-12h292v-330h-292v-670h-369v670h-175v330h175v16q0 150 75.5 266t207.5 182t303 66q174 0 306 -68.5t206 -191t74 -284.5v-986z" />
    <glyph glyph-name="uniFB03" unicode="ffi" horiz-adv-x="2176" 
d="M1334 0h-369v671h-381v-671h-369v671h-175v329h175v116q0 119 59 212.5t161 147.5t231 54q82 0 168.5 -24t170.5 -76l-139 -286q-31 29 -67 42.5t-71 13.5q-58 0 -101 -39.5t-43 -116.5v-44h381v116q0 119 59 212.5t161 147.5t231 54q82 0 168.5 -24t170.5 -76l-139 -286
q-31 29 -67 42.5t-71 13.5q-58 0 -101 -39.5t-43 -116.5v-44h742v-1000h-368v671h-374v-671z" />
    <glyph glyph-name="uniFB04" unicode="ffl" horiz-adv-x="2247" 
d="M2147 0h-369v998q0 102 -58.5 162t-158.5 60q-95 0 -156 -58.5t-61 -149.5v-12h292v-330h-292v-670h-369v670l-391 1v-671h-369v671h-175v329h175v116q0 119 59 212.5t161 147.5t231 54q82 0 168.5 -24t170.5 -76l-139 -286q-31 29 -67 42.5t-71 13.5q-58 0 -101 -39.5
t-43 -116.5v-44h391v16q0 150 75.5 266t207.5 182t303 66q175 0 306.5 -68.5t205.5 -191t74 -284.5v-986z" />
    <glyph glyph-name="uniFB05" unicode="&#x17f;t" horiz-adv-x="1731" 
d="M584 0h-369v670h-175v330h175v16q0 150 75.5 266t207.5 182t303 66q174 0 306 -68.5t206 -191t74 -284.5v-520q0 -77 43 -116.5t101 -39.5q59 0 114 38l46 -321q-123 -47 -242 -47q-128 0 -225 54t-151.5 150t-54.5 222v592q0 102 -58.5 162t-155.5 60t-158.5 -58.5
t-61.5 -149.5v-12h292v-330h-292v-670z" />
    <glyph glyph-name=".notdef" horiz-adv-x="1120" 
d="M1020 0h-920v1500h920v-1500zM883 1420h-646l323 -576zM920 203v1119l-314 -560zM200 1322v-1119l314 559zM223 80h674l-337 601z" />
    <glyph glyph-name="glyph1" horiz-adv-x="850" 
 />
    <glyph glyph-name="glyph1" horiz-adv-x="850" 
 />
    <glyph glyph-name="uni000D" unicode="&#xd;" horiz-adv-x="842" 
 />
    <glyph glyph-name="space" unicode=" " horiz-adv-x="440" 
 />
    <glyph glyph-name="exclam" unicode="!" horiz-adv-x="498" 
d="M355 420h-211l-44 1080h299zM248 -20q-67 0 -112.5 45t-45.5 110t45.5 110t112.5 45q68 0 114 -45t46 -110t-46 -110t-114 -45z" />
    <glyph glyph-name="quotedbl" unicode="&#x22;" horiz-adv-x="808" 
d="M326 1085h-192l-34 435h260zM674 1085h-192l-34 435h260z" />
    <glyph glyph-name="numbersign" unicode="#" horiz-adv-x="1341" 
d="M1283 814h-210l-43 -242h219l-38 -240h-223l-59 -332h-289l59 332h-215l-59 -332h-288l58 332h-175l37 240h181l42 242h-189l39 240h193l79 446h288l-79 -446h215l79 446h289l-79 -446h206zM526 572h215l43 242h-215z" />
    <glyph glyph-name="dollar" unicode="$" horiz-adv-x="1106" 
d="M30 239l164 267q65 -51 121.5 -82.5t110 -46t108.5 -14.5t94 12.5t59.5 36.5t20.5 58q0 43 -30 72.5t-78.5 53t-104.5 46.5q-66 27 -133.5 59t-124 76.5t-91 110t-34.5 158.5q0 158 98 256.5t255 126.5l-9 191h230l-9 -185q83 -9 171.5 -35t178.5 -70l-136 -281
q-64 39 -140 62.5t-138 23.5q-66 0 -104.5 -26t-38.5 -70q0 -39 29.5 -68t79 -54t108.5 -51q64 -28 130.5 -61.5t123 -79.5t91 -110t34.5 -153q0 -101 -47.5 -182t-135 -135t-206.5 -74l9 -191h-230l9 184q-118 11 -229 56t-206 119z" />
    <glyph glyph-name="percent" unicode="%" horiz-adv-x="1592" 
d="M374 873q-155 0 -249.5 89t-94.5 234q0 146 94.5 235t249.5 89t250 -89t95 -235q0 -145 -95 -234t-250 -89zM467 1h-298l967 1500h298zM374 1073q42 0 68.5 34.5t26.5 89.5q0 56 -26.5 90t-68.5 34q-43 0 -68.5 -34t-25.5 -90q0 -55 25.5 -89.5t68.5 -34.5zM1218 -21
q-154 0 -249 89.5t-95 234.5q0 146 95 235t249 89q155 0 249.5 -89t94.5 -235q0 -145 -94.5 -234.5t-249.5 -89.5zM1218 180q42 0 68 34t26 89q0 56 -26 90.5t-68 34.5q-43 0 -68.5 -34.5t-25.5 -90.5q0 -55 25.5 -89t68.5 -34z" />
    <glyph glyph-name="ampersand" unicode="&#x26;" horiz-adv-x="1447" 
d="M1427 182l-142 -212q-63 38 -123 77.5t-116 78.5q-97 -75 -210.5 -115.5t-238.5 -40.5q-149 0 -268.5 55t-189 151t-69.5 218q0 97 43 167t112 122.5t147 95.5q-62 100 -95 194.5t-33 178.5q0 112 53.5 197t148 133t215.5 48q117 0 207 -43.5t141.5 -120.5t51.5 -176
q0 -110 -49 -185.5t-126 -129t-161 -97.5q55 -68 125.5 -139.5t156.5 -145.5q35 53 63 117t47 135l270 -76q-27 -100 -67 -188t-92 -162q56 -43 97 -71t102 -66zM625 925q39 29 68 62t45.5 73.5t16.5 90.5q0 62 -25 100t-69 38q-45 0 -75 -40t-30 -105q0 -46 17.5 -102
t51.5 -117zM480 629q-23 -21 -40.5 -45t-26.5 -52t-9 -62q0 -61 30 -109t82.5 -76t120.5 -28q44 0 88 12.5t86 34.5q-99 82 -182 163.5t-149 161.5z" />
    <glyph glyph-name="quotesingle" unicode="'" horiz-adv-x="460" 
d="M326 1085h-192l-34 435h260z" />
    <glyph glyph-name="parenleft" unicode="(" horiz-adv-x="672" 
d="M652 -289h-356q-133 179 -204.5 416.5t-71.5 497.5t71.5 497.5t204.5 417.5h356q-152 -198 -232 -431.5t-80 -481.5q0 -247 80 -481.5t232 -434.5z" />
    <glyph glyph-name="parenright" unicode=")" horiz-adv-x="672" 
d="M376 -289h-356q152 200 232 434.5t80 481.5q0 248 -80 481.5t-232 431.5h356q133 -180 204.5 -417.5t71.5 -497.5t-71.5 -497.5t-204.5 -416.5z" />
    <glyph glyph-name="asterisk" unicode="*" horiz-adv-x="1056" 
d="M926 733l-219 -159l-179 315l-179 -315l-219 159l244 267l-354 74l83 256l330 -149l-40 360h270l-40 -360l330 149l83 -256l-354 -74z" />
    <glyph glyph-name="plus" unicode="+" horiz-adv-x="1106" 
d="M1006 337h-293v-285h-320v285h-293v290h293v284h320v-284h293v-290z" />
    <glyph glyph-name="comma" unicode="," horiz-adv-x="490" 
d="M300 -240h-240l70 440h290z" />
    <glyph glyph-name="hyphen" unicode="-" horiz-adv-x="1000" 
d="M900 360h-800v280h800v-280z" />
    <glyph glyph-name="period" unicode="." horiz-adv-x="500" 
d="M250 -20q-72 0 -116 44t-44 116t44 116t116 44t116 -44t44 -116t-44 -116t-116 -44z" />
    <glyph glyph-name="slash" unicode="/" horiz-adv-x="1005" 
d="M356 -20h-346l639 1540h346z" />
    <glyph glyph-name="zero" unicode="0" horiz-adv-x="1274" 
d="M637 -30q-175 0 -304.5 91.5t-201 266t-71.5 423.5q0 248 71.5 422t201 265.5t304.5 91.5t304.5 -91.5t201 -265.5t71.5 -422q0 -249 -71.5 -423.5t-201 -266t-304.5 -91.5zM637 315q83 0 127.5 113t44.5 322t-44.5 322t-127.5 113q-82 0 -127 -113t-45 -322t45 -322
t127 -113z" />
    <glyph glyph-name="one" unicode="1" horiz-adv-x="892" 
d="M772 0h-396v1112l-233 -85l-123 313l440 160h312v-1500z" />
    <glyph glyph-name="two" unicode="2" horiz-adv-x="1213" 
d="M1123 0h-993v227q172 159 285.5 273t179 197.5t93 150t27.5 129.5q0 65 -23 112t-64.5 72.5t-96.5 25.5q-65 0 -127 -36.5t-108 -101.5l-196 255q95 108 231 167t278 59q137 0 253.5 -57t187 -164t70.5 -258q0 -96 -30.5 -189t-87.5 -181.5t-137 -173t-180 -162.5h438
v-345z" />
    <glyph glyph-name="three" unicode="3" horiz-adv-x="1208" 
d="M90 124l147 293q78 -50 148 -76t131 -26q55 0 98 20t67.5 55.5t24.5 81.5q0 78 -70 121.5t-195 43.5h-71v271h71q68 0 121 19.5t83 54t30 79.5q0 36 -20 64t-55 44t-80 16q-49 0 -108.5 -22t-132.5 -68l-169 275q92 77 207.5 118.5t242.5 41.5q142 0 252 -50t173 -137.5
t63 -202.5q0 -118 -66 -212t-176 -147q146 -46 229 -142.5t83 -229.5q0 -126 -73.5 -225.5t-199.5 -156.5t-286 -57q-129 0 -249.5 40t-219.5 114z" />
    <glyph glyph-name="four" unicode="4" horiz-adv-x="1319" 
d="M1116 0h-396v271h-700v300l701 929h395v-884h183v-345h-183v-271zM360 616h360v478z" />
    <glyph glyph-name="five" unicode="5" horiz-adv-x="1200" 
d="M60 151l201 323q32 -70 104 -114.5t153 -44.5q63 0 112 27.5t77 76.5t28 111q0 63 -28.5 112t-78.5 77t-114 28q-54 0 -101.5 -21.5t-85.5 -62.5l-189 107l67 730h832v-345h-471l-27 -243q56 12 116 12q138 0 248 -58.5t173.5 -160.5t63.5 -232q0 -142 -76.5 -256
t-208 -180.5t-298.5 -66.5q-136 0 -266.5 47.5t-230.5 133.5z" />
    <glyph glyph-name="six" unicode="6" horiz-adv-x="1231" 
d="M617 -30q-170 0 -295 75t-193.5 211.5t-68.5 320.5q0 145 44 277.5t130.5 249.5t213 216.5t291.5 179.5l181 -251q-110 -56 -202.5 -124t-163.5 -143.5t-118 -156.5q53 51 125.5 78t161.5 27q132 0 233 -57.5t158 -158.5t57 -233q0 -149 -71.5 -264.5t-196.5 -181
t-286 -65.5zM614 315q43 0 77 26t54.5 70t20.5 97t-19.5 94t-53 65t-76.5 24t-77.5 -24.5t-54.5 -67t-20 -96.5q0 -53 20 -95.5t54 -67.5t75 -25z" />
    <glyph glyph-name="seven" unicode="7" horiz-adv-x="1079" 
d="M545 0h-429l476 1155h-572v345h1039l-1 -254z" />
    <glyph glyph-name="eight" unicode="8" horiz-adv-x="1185" 
d="M592 -30q-163 0 -285 53t-189.5 149.5t-67.5 225.5q0 143 83 246.5t227 149.5q-121 44 -189 134t-68 214q0 118 60.5 205t170.5 135t258 48t258 -48t170.5 -135t60.5 -205q0 -123 -68.5 -213.5t-188.5 -134.5q145 -46 228 -149t83 -246q0 -128 -68 -225t-190 -150.5
t-285 -53.5zM592 968q47 0 75.5 38.5t28.5 99.5q0 62 -28.5 100.5t-75.5 38.5q-46 0 -75 -38.5t-29 -100.5q0 -61 29 -99.5t75 -38.5zM592 275q44 0 77.5 22.5t52 63.5t18.5 94q0 54 -18.5 95t-52 63.5t-77.5 22.5t-77 -22.5t-51.5 -63.5t-18.5 -95q0 -53 18.5 -94
t51.5 -63.5t77 -22.5z" />
    <glyph glyph-name="nine" unicode="9" horiz-adv-x="1231" 
d="M492 0l-180 251q111 56 203 124t163 144t117 156q-53 -51 -125.5 -78t-161.5 -27q-132 0 -233 57.5t-158 158.5t-57 233q0 149 72 264.5t197.5 181t285.5 65.5q170 0 295 -75t193 -211.5t68 -320.5q0 -145 -44 -277.5t-130.5 -249.5t-213 -216.5t-291.5 -179.5zM614 809
q44 0 78 24.5t54 67.5t20 96t-19.5 95.5t-53 67.5t-75.5 25t-76.5 -25.5t-55 -69.5t-20.5 -98q0 -52 19.5 -93.5t53 -65.5t75.5 -24z" />
    <glyph glyph-name="colon" unicode=":" horiz-adv-x="500" 
d="M249 658q-67 0 -113 47t-46 114t46 114t113 47q68 0 114.5 -47t46.5 -114t-46.5 -114t-114.5 -47zM249 -20q-67 0 -113 47t-46 114t46 114t113 47q68 0 114.5 -47t46.5 -114t-46.5 -114t-114.5 -47z" />
    <glyph glyph-name="semicolon" unicode=";" horiz-adv-x="490" 
d="M259 659q-67 0 -113 46.5t-46 113.5t46 114t113 47q68 0 114.5 -47t46.5 -114t-46.5 -113.5t-114.5 -46.5zM300 -240h-240l70 440h290z" />
    <glyph glyph-name="less" unicode="&#x3c;" horiz-adv-x="1027" 
d="M927 0l-907 431v157l907 432v-301l-515 -210l515 -209v-300z" />
    <glyph glyph-name="equal" unicode="=" horiz-adv-x="1155" 
d="M1055 608h-955v280h955v-280zM1055 121h-955v280h955v-280z" />
    <glyph glyph-name="greater" unicode="&#x3e;" horiz-adv-x="1027" 
d="M100 0v300l515 209l-515 210v301l907 -432v-157z" />
    <glyph glyph-name="question" unicode="?" horiz-adv-x="943" 
d="M183 1092l-133 298q194 140 430 140q136 0 235.5 -45t153.5 -129t54 -201q0 -75 -22 -131t-61.5 -103.5t-92.5 -97.5q-48 -47 -94 -99.5t-75.5 -125t-29.5 -178.5h-313q0 139 30 230t74 151t85 105q38 42 65.5 80.5t27.5 88.5q0 59 -39 95.5t-103 36.5q-58 0 -109.5 -31
t-82.5 -84zM392 -20q-72 0 -116 44t-44 116t44 116t116 44t116 -44t44 -116t-44 -116t-116 -44z" />
    <glyph glyph-name="at" unicode="@" horiz-adv-x="1879" 
d="M889 64q-124 0 -222 61t-154.5 167t-56.5 240q0 144 64.5 260.5t174 184.5t245.5 68q98 0 179 -37.5t136 -108.5l7 85h184q-6 -44 -14 -107t-16 -133.5t-14.5 -139t-10.5 -123.5t-4 -87q0 -64 26.5 -108t69.5 -44q45 0 83 50t60.5 132.5t22.5 181.5q0 183 -80.5 320.5
t-224 214.5t-333.5 77q-157 0 -291.5 -53t-234.5 -148.5t-155.5 -223t-55.5 -277.5q0 -173 73.5 -305t204 -206t300.5 -74q202 0 398 105l71 -193q-242 -109 -484 -109q-235 0 -415 99.5t-281 275.5t-101 407q0 194 72 359t202 287t305.5 189.5t382.5 67.5q190 0 347 -57.5
t271.5 -163.5t176.5 -251.5t62 -321.5q0 -169 -46 -295.5t-128.5 -197t-192.5 -70.5q-88 0 -155.5 45.5t-102.5 128.5q-64 -83 -153 -127.5t-192 -44.5zM939 264q69 0 128 32.5t99.5 89.5t53.5 132l6 67q0 78 -29.5 137t-82 91.5t-122.5 32.5q-80 0 -144 -42.5
t-101.5 -114.5t-37.5 -163q0 -118 63.5 -190t166.5 -72z" />
    <glyph glyph-name="A" unicode="A" horiz-adv-x="1606" 
d="M425 0h-415l586 1500h415l585 -1500h-415l-97 267h-562zM648 612h311l-156 428z" />
    <glyph glyph-name="B" unicode="B" horiz-adv-x="1340" 
d="M100 0v1500h571q259 0 400 -105t141 -297q0 -107 -48 -190.5t-130 -130.5q122 -40 189 -130t67 -221q0 -130 -63 -225.5t-179 -148t-274 -52.5h-674zM496 895h148q85 0 131.5 34.5t46.5 98.5q0 59 -47 93t-131 34h-148v-260zM496 345h175q68 0 116 15.5t73 45t25 71.5
t-22 70.5t-64.5 43t-103.5 14.5h-199v-260z" />
    <glyph glyph-name="C" unicode="C" horiz-adv-x="1481" 
d="M1421 186q-106 -102 -250.5 -159t-314.5 -57q-171 0 -316.5 58.5t-253 164t-167 247.5t-59.5 310t59.5 310t167 247.5t253 164t316.5 58.5q169 0 312.5 -57.5t249.5 -159.5l-276 -278q-52 70 -127.5 110t-164.5 40q-82 0 -152 -33t-122.5 -92t-81.5 -138t-29 -171
q0 -93 29 -172t81.5 -138.5t122.5 -92.5t152 -33q89 0 164 40t127 110z" />
    <glyph glyph-name="D" unicode="D" horiz-adv-x="1580" 
d="M100 0v1500h531q269 0 468.5 -93t310 -261.5t110.5 -395.5q0 -226 -110.5 -395t-310 -262t-468.5 -93h-531zM496 345h148q152 0 257 47t159.5 137.5t54.5 220.5q0 131 -54.5 221t-159.5 137t-257 47h-148v-810z" />
    <glyph glyph-name="E" unicode="E" horiz-adv-x="1200" 
d="M100 0v1500h1000v-345h-604v-232h564v-345h-564v-233h614v-345h-1010z" />
    <glyph glyph-name="F" unicode="F" horiz-adv-x="1150" 
d="M100 0v1500h960v-345h-564v-232h524v-345h-524v-578h-396z" />
    <glyph glyph-name="G" unicode="G" horiz-adv-x="1632" 
d="M1149 1067q-54 56 -132 87t-168 31q-87 0 -157.5 -29.5t-121 -85.5t-78 -134t-27.5 -176q0 -100 29 -182t83 -140.5t128.5 -90.5t165.5 -32q68 0 124 18t99 53t73 86.5t46 117.5h-359v300h707l11 -151q0 -171 -51.5 -312.5t-146.5 -243.5t-226.5 -157.5t-292.5 -55.5
q-168 0 -312.5 59.5t-253 166t-169 249.5t-60.5 309q0 164 59 305t165 247t247.5 165t306.5 59q155 0 302 -54t264 -154z" />
    <glyph glyph-name="H" unicode="H" horiz-adv-x="1515" 
d="M496 0h-396v1500h396v-590h523v590h396v-1500h-396v565h-523v-565z" />
    <glyph glyph-name="I" unicode="I" horiz-adv-x="596" 
d="M496 1500h-396v-1500h396v1500z" />
    <glyph glyph-name="J" unicode="J" horiz-adv-x="581" 
d="M-230 -360l-20 345q171 0 253 79t82 242v1194h396v-1194q0 -240 -71 -386.5t-227.5 -213t-412.5 -66.5z" />
    <glyph glyph-name="K" unicode="K" horiz-adv-x="1543" 
d="M496 0h-396v1500h396v-627q53 78 101 144t81 107l299 376h466l-553 -695l653 -805h-511l-395 487l-141 -178v-309z" />
    <glyph glyph-name="L" unicode="L" horiz-adv-x="1140" 
d="M1120 0h-1020v1500h396v-1155h624v-345z" />
    <glyph glyph-name="M" unicode="M" horiz-adv-x="1865" 
d="M1765 0h-396v932l-291 -680h-292l-290 678v-930h-396v1500h500l332 -802l333 802h500v-1500z" />
    <glyph glyph-name="N" unicode="N" horiz-adv-x="1602" 
d="M1502 0h-466l-540 890v-890h-396v1500h466l540 -893v893h396v-1500z" />
    <glyph glyph-name="O" unicode="O" horiz-adv-x="1710" 
d="M856 -30q-172 0 -317.5 58.5t-253 164t-166.5 247.5t-59 310t59 310t166.5 247.5t253 164t318.5 58.5q172 0 317 -58.5t251.5 -164t165.5 -247.5t59 -310t-59 -310t-165.5 -247.5t-251.5 -164t-318 -58.5zM856 315q83 0 154 33t123.5 92.5t82 138.5t29.5 171t-29.5 171
t-82 138.5t-123.5 92.5t-154 33t-154.5 -33t-124.5 -92.5t-82.5 -138.5t-29.5 -171t29.5 -171t82.5 -138.5t124.5 -92.5t154.5 -33z" />
    <glyph glyph-name="P" unicode="P" horiz-adv-x="1376" 
d="M100 0v1500h547q193 0 334.5 -64.5t218 -183t76.5 -281.5t-76.5 -282.5t-216.5 -184.5t-331 -65h-156v-439h-396zM496 784h112q128 0 195.5 48t67.5 139q0 89 -68 136.5t-195 47.5h-112v-371z" />
    <glyph glyph-name="Q" unicode="Q" horiz-adv-x="1718" 
d="M1572 -265q-141 32 -250 64.5t-207.5 73.5t-211.5 98h-47q-172 0 -317.5 58.5t-253 163.5t-166.5 247t-59 310t59 310t166.5 247.5t253 164t318.5 58.5q172 0 317 -58.5t251.5 -164t165.5 -247.5t59 -310q0 -144 -44.5 -270.5t-125.5 -227t-193 -167.5
q60 -11 118.5 -19.5t120.5 -13.5t132 -8zM856 315q83 0 154 33t123.5 92.5t82 138.5t29.5 171t-29.5 171t-82 138.5t-123.5 92.5t-154 33t-154.5 -33t-124.5 -92.5t-82.5 -138.5t-29.5 -171t29.5 -171t82.5 -138.5t124.5 -92.5t154.5 -33z" />
    <glyph glyph-name="R" unicode="R" horiz-adv-x="1448" 
d="M1428 0h-438l-286 496h-208v-496h-396v1500h634q195 0 332 -59t209.5 -171.5t72.5 -271.5q0 -149 -64 -257t-185 -170zM496 801h207q119 0 179.5 44.5t60.5 132.5t-60.5 132.5t-179.5 44.5h-207v-354z" />
    <glyph glyph-name="S" unicode="S" horiz-adv-x="1252" 
d="M30 172l186 302q73 -57 136.5 -93t124 -52.5t123.5 -16.5q62 0 106 14.5t67.5 42t23.5 65.5q0 48 -34 82t-90.5 61t-123.5 54q-72 29 -147 64.5t-138 86.5t-102 124.5t-39 179.5q0 140 70.5 239.5t193 152t277.5 52.5q113 0 239 -30t255 -94l-154 -318
q-72 44 -157.5 70.5t-156.5 26.5q-49 0 -85.5 -13t-56.5 -37.5t-20 -57.5q0 -44 34 -77.5t90 -61.5t122 -57q72 -31 147.5 -69t139 -90t102.5 -124.5t39 -173.5q0 -135 -73.5 -237.5t-205 -159.5t-305.5 -57q-162 0 -312 52t-276 150z" />
    <glyph glyph-name="T" unicode="T" horiz-adv-x="1248" 
d="M822 0h-396v1155h-416v345h1228v-345h-416v-1155z" />
    <glyph glyph-name="U" unicode="U" horiz-adv-x="1544" 
d="M1444 1500v-823q0 -220 -80.5 -378.5t-231 -243.5t-360.5 -85q-209 0 -360 85t-231.5 243.5t-80.5 378.5v823h396v-769q0 -143 29.5 -235t90.5 -136.5t156 -44.5t156 44.5t90.5 136.5t29.5 235v769h396z" />
    <glyph glyph-name="V" unicode="V" horiz-adv-x="1606" 
d="M1011 0h-415l-586 1500h415l378 -1040l378 1040h415z" />
    <glyph glyph-name="W" unicode="W" horiz-adv-x="2249" 
d="M1753 0h-371l-256 855l-257 -855h-371l-488 1500h416l257 -862l257 862h371l256 -860l256 860h416z" />
    <glyph glyph-name="X" unicode="X" horiz-adv-x="1637" 
d="M1627 0h-499l-324 471l-325 -471h-469l568 764l-523 736h499l277 -405l265 405h488l-526 -722z" />
    <glyph glyph-name="Y" unicode="Y" horiz-adv-x="1532" 
d="M964 0h-396v641l-558 859h481l273 -506l277 506h481l-558 -860v-640z" />
    <glyph glyph-name="Z" unicode="Z" horiz-adv-x="1282" 
d="M1222 0h-1162v290l629 865h-589v345h1112v-300l-622 -855h632v-345z" />
    <glyph glyph-name="bracketleft" unicode="[" horiz-adv-x="690" 
d="M670 -289h-570v1829h570v-290h-250v-1245h250v-294z" />
    <glyph glyph-name="backslash" unicode="\" horiz-adv-x="1005" 
d="M995 -20h-346l-639 1540h346z" />
    <glyph glyph-name="bracketright" unicode="]" horiz-adv-x="690" 
d="M590 -289h-570v290h250v1249h-250v290h570v-1829z" />
    <glyph glyph-name="asciicircum" unicode="^" horiz-adv-x="1089" 
d="M1069 700h-278l-246 515l-247 -515h-278l426 800h197z" />
    <glyph glyph-name="underscore" unicode="_" horiz-adv-x="1303" 
d="M1203 0h-1103v290h1103v-290z" />
    <glyph glyph-name="grave" unicode="`" horiz-adv-x="531" 
d="M491 1160h-260l-201 340h330z" />
    <glyph glyph-name="a" unicode="a" horiz-adv-x="1129" 
d="M1049 0h-323l-18 110q-55 -63 -133 -96.5t-170 -33.5q-103 0 -183 39.5t-126 109t-46 158.5q0 94 50 165t138.5 111.5t202.5 40.5q62 0 122 -12.5t117 -36.5v16q0 46 -29.5 81t-82 55t-119.5 20q-68 0 -131.5 -20t-113.5 -57l-94 271q110 49 218 74t207 25
q157 0 272.5 -60.5t178.5 -171t63 -260.5v-528zM490 249q45 0 88.5 20t71.5 51t28 63v1q-36 21 -80 32.5t-88 11.5q-63 0 -99.5 -23.5t-36.5 -64.5q0 -26 15 -47t41.5 -32.5t59.5 -11.5z" />
    <glyph glyph-name="b" unicode="b" horiz-adv-x="1265" 
d="M423 0h-323v1500h369v-600q59 57 134 88.5t163 31.5q131 0 232 -67.5t159 -185t58 -267.5t-58 -267.5t-159 -185t-232 -67.5q-98 0 -181.5 39.5t-143.5 109.5zM653 310q54 0 95.5 24.5t65 68t23.5 99.5q0 54 -23.5 96.5t-65 67t-95.5 24.5q-50 0 -90.5 -22t-65 -60
t-28.5 -88v-37q4 -51 28.5 -90t65 -61t90.5 -22z" />
    <glyph glyph-name="c" unicode="c" horiz-adv-x="1063" 
d="M1023 169q-73 -88 -183 -138.5t-245 -50.5q-157 0 -280.5 67.5t-194 185t-70.5 267.5t70.5 267.5t194 185t280.5 67.5q134 0 243.5 -50t182.5 -136l-215 -227q-31 38 -80.5 60.5t-103.5 22.5q-56 0 -100 -24t-69 -66.5t-25 -97.5q0 -56 25 -99.5t69 -68t100 -24.5
q54 0 104 22.5t80 60.5z" />
    <glyph glyph-name="d" unicode="d" horiz-adv-x="1266" 
d="M1166 0h-323l-19 130q-60 -70 -143.5 -110t-181.5 -40q-130 0 -231.5 67.5t-159.5 185t-58 267.5t58 267.5t159.5 185t231.5 67.5q88 0 164 -31.5t134 -88.5v600h369v-1500zM613 310q51 0 92.5 22t66.5 61t25 90v37q0 50 -25 88t-66.5 60t-92.5 22q-53 0 -95 -24.5
t-66 -67.5t-24 -98t24 -98t66 -67.5t95 -24.5z" />
    <glyph glyph-name="e" unicode="e" horiz-adv-x="1166" 
d="M1051 105q-187 -125 -406 -125q-169 0 -303.5 70.5t-213 192t-78.5 274.5q0 144 70 257.5t190.5 179.5t272.5 66q159 0 279 -73t187 -203t67 -302v-32h-670q18 -39 50 -70.5t80 -50.5t112 -19q141 0 267 90zM429 560h349q-5 47 -28.5 83t-62 56.5t-85.5 20.5
q-48 0 -84 -22t-58.5 -58t-30.5 -80z" />
    <glyph glyph-name="f" unicode="f" horiz-adv-x="985" 
d="M554 0h-369v671h-175v329h175v116q0 119 59 212.5t160.5 147.5t231.5 54q82 0 168.5 -24t170.5 -76l-139 -286q-31 29 -67 42.5t-71 13.5q-58 0 -101 -39.5t-43 -116.5v-44h292v-329h-292v-671z" />
    <glyph glyph-name="g" unicode="g" horiz-adv-x="1255" 
d="M499 -20q-130 0 -231.5 67.5t-159.5 185t-58 267.5q0 151 58 268t159.5 184.5t231.5 67.5q99 0 182.5 -40t143.5 -111l17 131h323v-971q0 -164 -77 -288t-215 -192.5t-322 -68.5q-251 0 -467 151l145 303q130 -124 293 -124q80 0 141.5 30t97 83.5t35.5 121.5v55
q-58 -57 -133.5 -88.5t-163.5 -31.5zM613 310q51 0 92.5 21.5t66 60.5t24.5 89v41q0 49 -25 87t-66.5 59.5t-91.5 21.5q-53 0 -95 -24.5t-66 -67.5t-24 -98t24 -98t66 -67.5t95 -24.5z" />
    <glyph glyph-name="h" unicode="h" 
d="M100 0v1500h369v-596q105 116 283 116q182 0 284.5 -115.5t102.5 -321.5v-583h-369v482q0 100 -38.5 154t-109.5 54q-73 0 -113 -54.5t-40 -153.5v-482h-369z" />
    <glyph glyph-name="i" unicode="i" horiz-adv-x="569" 
d="M284 1188q-67 0 -113 47t-46 114t46 114t113 47q68 0 114.5 -47t46.5 -114t-46.5 -114t-114.5 -47zM469 0h-369v1000h369v-1000z" />
    <glyph glyph-name="j" unicode="j" horiz-adv-x="553" 
d="M278 1188q-67 0 -113 47t-46 114t46 114t113 47q68 0 114.5 -47t46.5 -114t-46.5 -114t-114.5 -47zM-169 -499v290q16 -3 30.5 -4t25.5 -1q100 0 153.5 59.5t53.5 169.5v985h369v-1002q0 -259 -110 -388.5t-330 -129.5q-43 0 -91 5.5t-101 15.5z" />
    <glyph glyph-name="k" unicode="k" horiz-adv-x="1282" 
d="M469 0h-369v1500h369v-833l111 134l190 199h462l-433 -453l473 -547h-475l-251 328l-77 -51v-277z" />
    <glyph glyph-name="l" unicode="l" horiz-adv-x="596" 
d="M496 0h-396v1540h396v-1540z" />
    <glyph glyph-name="m" unicode="m" horiz-adv-x="1837" 
d="M1757 0h-369v482q0 100 -35 154t-100 54q-67 0 -103.5 -54.5t-36.5 -153.5v-482h-369v482q0 100 -35 154t-100 54q-67 0 -103.5 -54.5t-36.5 -153.5v-482h-369v1000h292l12 -156q51 86 133.5 131t191.5 45q110 0 192 -44t130 -127q52 84 133 127.5t189 43.5
q181 0 282.5 -115.5t101.5 -321.5v-583z" />
    <glyph glyph-name="n" unicode="n" 
d="M1139 0h-369v482q0 100 -38.5 154t-109.5 54q-48 0 -82.5 -24.5t-52.5 -71t-18 -112.5v-482h-369v1000h292l12 -159q53 88 138.5 133.5t200.5 45.5q186 0 291 -115.5t105 -321.5v-583z" />
    <glyph glyph-name="o" unicode="o" horiz-adv-x="1188" 
d="M595 -20q-157 0 -280.5 67.5t-194 185t-70.5 267.5t70.5 267.5t194 185t280.5 67.5q158 0 280.5 -67.5t192.5 -185t70 -267.5t-70 -267.5t-192.5 -185t-280.5 -67.5zM594 310q48 0 85.5 24.5t59 68t21.5 99.5q0 54 -21.5 96.5t-59 67t-85.5 24.5t-85.5 -24.5t-59 -67
t-21.5 -96.5q0 -56 21.5 -99.5t59 -68t85.5 -24.5z" />
    <glyph glyph-name="p" unicode="p" horiz-adv-x="1266" 
d="M470 -500h-370v1500h323l19 -130q60 71 143.5 110.5t181.5 39.5q131 0 232 -67.5t159 -185t58 -267.5t-58 -267.5t-159 -185t-232 -67.5q-88 0 -163 31.5t-134 88.5v-600zM654 310q54 0 95.5 24.5t65 67.5t23.5 98t-23.5 98t-65 67.5t-95.5 24.5q-50 0 -90.5 -22t-65 -61
t-28.5 -90v-37q4 -49 28.5 -87.5t65 -60.5t90.5 -22z" />
    <glyph glyph-name="q" unicode="q" horiz-adv-x="1266" 
d="M1166 -500h-369v600q-58 -57 -134 -88.5t-164 -31.5q-130 0 -231.5 67.5t-159.5 185t-58 267.5t58 267.5t159.5 185t231.5 67.5q98 0 181.5 -39.5t143.5 -110.5l19 130h323v-1500zM613 310q51 0 91 22t64.5 60.5t28.5 87.5v37q-4 51 -28.5 90t-64.5 61t-91 22
q-53 0 -95 -24.5t-66 -67.5t-24 -98t24 -98t66 -67.5t95 -24.5z" />
    <glyph glyph-name="r" unicode="r" horiz-adv-x="894" 
d="M469 0h-369v1000h320l12 -157q50 84 130 130.5t183 46.5q35 0 71 -5.5t73 -16.5l-46 -332q-73 24 -136 24q-73 0 -126.5 -30.5t-82.5 -85.5t-29 -131v-443z" />
    <glyph glyph-name="s" unicode="s" horiz-adv-x="910" 
d="M30 85l76 304q27 -32 80.5 -62t116.5 -48.5t116 -18.5q40 0 61 12t21 34q0 23 -20 39.5t-53.5 30.5t-76.5 29q-64 23 -134.5 56.5t-119.5 92t-49 156.5q0 95 50.5 164.5t143 107.5t217.5 38q209 0 421 -105l-103 -281q-32 28 -84 53t-106.5 41t-94.5 16
q-33 0 -49.5 -11.5t-16.5 -31.5q0 -22 19.5 -38.5t53 -30t73.5 -28.5q67 -23 138 -56.5t120.5 -92t49.5 -157.5q0 -97 -53.5 -168.5t-151 -110.5t-230.5 -39q-222 0 -415 105z" />
    <glyph glyph-name="t" unicode="t" horiz-adv-x="908" 
d="M878 28q-126 -48 -243 -48q-127 0 -224 53t-151.5 147.5t-54.5 218.5v272h-175v329h195v250h349v-250h263v-329h-263v-205q0 -77 43 -116.5t101 -39.5q59 0 114 38z" />
    <glyph glyph-name="u" unicode="u" 
d="M1119 0h-292l-12 159q-52 -88 -138 -133.5t-201 -45.5q-186 0 -291 116t-105 321v583h369v-482q0 -100 38.5 -154t109.5 -54q73 0 113 54.5t40 153.5v482h369v-1000z" />
    <glyph glyph-name="v" unicode="v" horiz-adv-x="1197" 
d="M1177 1000l-400 -1000h-357l-400 1000h394l185 -632l185 632h393z" />
    <glyph glyph-name="w" unicode="w" horiz-adv-x="1742" 
d="M1407 0h-420l-116 519l-116 -519h-420l-325 1000h390l139 -629l174 629h316l174 -633l139 633h390z" />
    <glyph glyph-name="x" unicode="x" horiz-adv-x="1393" 
d="M528 0h-518l428 508l-413 492h518l154 -256l153 256h518l-413 -490l428 -510h-518l-169 281z" />
    <glyph glyph-name="y" unicode="y" horiz-adv-x="1369" 
d="M737 -500h-390l206 497l-523 1003h420l277 -584l242 584h390z" />
    <glyph glyph-name="z" unicode="z" horiz-adv-x="1148" 
d="M1098 0h-1048v180l419 490h-394v330h981v-150l-444 -520h486v-330z" />
    <glyph glyph-name="braceleft" unicode="{" horiz-adv-x="684" 
d="M664 -289q-237 0 -358.5 88.5t-121.5 260.5v279q0 86 -47.5 148.5t-116.5 67.5v141q69 5 116.5 67.5t47.5 148.5v279q0 173 121.5 261t358.5 88v-291q-85 0 -122.5 -31.5t-37.5 -105.5v-210q0 -93 -46 -165.5t-126 -110.5q80 -37 126 -110.5t46 -166.5v-210
q0 -73 37.5 -105t122.5 -32v-291z" />
    <glyph glyph-name="bar" unicode="|" horiz-adv-x="520" 
d="M420 -250h-320v1790h320v-1790z" />
    <glyph glyph-name="braceright" unicode="}" horiz-adv-x="684" 
d="M20 -289v291q86 0 123 32t37 105v210q0 93 46 166.5t126 110.5q-80 38 -126 110.5t-46 165.5v210q0 74 -37 106t-123 32v290q237 0 358.5 -88t121.5 -261v-279q0 -86 47.5 -148.5t116.5 -67.5v-141q-69 -5 -116.5 -67.5t-47.5 -148.5v-279q0 -172 -121.5 -260.5
t-358.5 -88.5z" />
    <glyph glyph-name="asciitilde" unicode="~" horiz-adv-x="1242" 
d="M1142 538q-70 -75 -138.5 -111.5t-140.5 -36.5q-61 0 -119.5 21.5t-116.5 47.5t-117.5 48t-123.5 22q-142 0 -286 -144v262q147 144 288 144q64 0 123.5 -22t117.5 -48t116.5 -47.5t119.5 -21.5q141 0 277 148v-262z" />
    <glyph glyph-name="uni00A0" unicode="&#xa0;" horiz-adv-x="440" 
 />
    <glyph glyph-name="exclamdown" unicode="&#xa1;" horiz-adv-x="498" 
d="M248 710q-67 0 -112.5 45.5t-45.5 109.5q0 65 45.5 110t112.5 45q68 0 114 -45t46 -110q0 -64 -46 -109.5t-114 -45.5zM398 -500h-300l45 1080h210z" />
    <glyph glyph-name="cent" unicode="&#xa2;" horiz-adv-x="1063" 
d="M1023 309q-57 -69 -138.5 -116t-179.5 -64l10 -189h-240l10 189q-128 23 -226.5 93.5t-153.5 178t-55 239.5t55 239.5t153.5 178.5t226.5 93l-10 189h240l-10 -189q98 -17 178.5 -63t137.5 -114l-215 -227q-31 38 -80.5 60.5t-103.5 22.5q-56 0 -100 -24t-69 -66.5
t-25 -98.5q0 -55 25 -98.5t69 -68t100 -24.5q54 0 104 22.5t80 60.5z" />
    <glyph glyph-name="sterling" unicode="&#xa3;" horiz-adv-x="1253" 
d="M966 650h-369q4 -18 5 -35.5t1 -38.5q0 -70 -17 -131.5t-53 -114.5h587v-330h-1050v200q115 44 187 135.5t72 223.5q0 23 -2 46t-7 45h-250v200h191q-18 56 -32 113t-14 121q0 127 60.5 225.5t166.5 154.5t243 56q157 0 288.5 -76t209.5 -213l-241 -177q-34 65 -85.5 101
t-110.5 36q-51 0 -90.5 -26t-62 -71t-22.5 -104q0 -36 2 -71t6 -69h387v-200z" />
    <glyph glyph-name="currency" unicode="&#xa4;" horiz-adv-x="1228" 
d="M1157 379l-140 -140l-158 164q-52 -32 -114 -49.5t-132 -17.5q-69 0 -130.5 17t-113.5 49l-158 -163l-141 141l164 158q-31 52 -48.5 113.5t-17.5 131.5q0 69 17 130.5t48 113.5l-163 158l141 140l158 -162q52 32 114 49.5t131 17.5q70 0 131 -17.5t113 -49.5l159 164
l141 -141l-164 -159q32 -52 49 -113t17 -130q0 -70 -17.5 -132t-49.5 -114zM614 576q54 0 96 26.5t66 73.5t24 107t-24 107t-66 73.5t-96 26.5q-53 0 -95 -26.5t-66.5 -73.5t-24.5 -107t24 -106.5t66.5 -73.5t95.5 -27z" />
    <glyph glyph-name="yen" unicode="&#xa5;" horiz-adv-x="1364" 
d="M871 0h-376v245h-267v150h267v101h-267v150h264l-472 854h430l231 -555l233 555h430l-466 -854h257v-150h-264v-101h264v-150h-264v-245z" />
    <glyph glyph-name="brokenbar" unicode="&#xa6;" horiz-adv-x="520" 
d="M420 820h-320v720h320v-720zM420 -250h-320v720h320v-720z" />
    <glyph glyph-name="section" unicode="&#xa7;" horiz-adv-x="1077" 
d="M101 17l124 278q58 -40 135 -66.5t136 -26.5q45 0 69.5 15.5t24.5 43.5q0 27 -23 47.5t-61.5 38t-85.5 35.5q-71 28 -145 65t-124.5 96t-50.5 153q0 78 38 145.5t107 119.5q-35 26 -62 58.5t-42.5 73.5t-15.5 92q0 100 59 178t161.5 122.5t234.5 44.5q208 0 396 -107
l-124 -278q-58 40 -135 66.5t-136 26.5q-45 0 -70 -15.5t-25 -43.5q0 -27 23.5 -47.5t62.5 -37.5t85 -36q71 -28 145 -65t124.5 -96t50.5 -153q0 -78 -38.5 -145.5t-107.5 -119.5q35 -26 62.5 -58.5t43 -73.5t15.5 -92q0 -100 -59 -178t-162 -122.5t-235 -44.5
q-207 0 -395 107zM681 562q9 18 14.5 37t5.5 38q0 48 -34 90.5t-102 80.5t-170 70q-9 -18 -14 -37t-5 -38q0 -48 34 -90.5t102 -80t169 -70.5z" />
    <glyph glyph-name="dieresis" unicode="&#xa8;" horiz-adv-x="929" 
d="M699 1189q-63 0 -101.5 38.5t-38.5 101.5t38.5 101.5t101.5 38.5t101.5 -38.5t38.5 -101.5t-38.5 -101.5t-101.5 -38.5zM230 1189q-63 0 -101.5 38.5t-38.5 101.5t38.5 101.5t101.5 38.5t101.5 -38.5t38.5 -101.5t-38.5 -101.5t-101.5 -38.5z" />
    <glyph glyph-name="copyright" unicode="&#xa9;" horiz-adv-x="1239" 
d="M620 -104q-173 0 -309 77.5t-213.5 213t-77.5 308.5t77.5 308t213.5 212.5t309 77.5t308.5 -77.5t213 -212.5t77.5 -308t-77.5 -308.5t-213 -213t-308.5 -77.5zM620 67q123 0 219 55.5t151 152.5t55 219q0 123 -55.5 220t-151.5 152.5t-218 55.5t-218.5 -55.5t-152 -152
t-55.5 -220.5q0 -123 55.5 -219.5t152 -152t218.5 -55.5zM887 260q-99 -94 -250 -94q-100 0 -178 42.5t-122 117t-44 169.5t44 169.5t122 117t178 42.5q151 0 250 -94l-113 -120q-22 27 -55 41.5t-71 14.5q-72 0 -119 -48.5t-47 -122.5t47 -122.5t119 -48.5q38 0 71 14.5
t55 41.5z" />
    <glyph glyph-name="ordfeminine" unicode="&#xaa;" horiz-adv-x="803" 
d="M703 810h-190l-8 82q-34 -45 -86.5 -68.5t-117.5 -23.5q-109 0 -180 59t-71 148q0 65 38 116.5t103 81.5t146 30q40 0 80.5 -8t78.5 -23v10q0 53 -38.5 82t-106.5 29q-47 0 -93 -15t-85 -42l-86 162q128 90 291 90q151 0 238 -72.5t87 -197.5v-440zM358 964
q36 0 67.5 14.5t51 38t19.5 49.5v25q-48 32 -109 32q-55 0 -90.5 -24t-35.5 -62q0 -32 27 -52.5t70 -20.5z" />
    <glyph glyph-name="guillemotleft" unicode="&#xab;" horiz-adv-x="1246" 
d="M682 111h-339l-323 386l323 385h339l-342 -386zM1146 111h-339l-323 386l323 385h339l-342 -386z" />
    <glyph glyph-name="logicalnot" unicode="&#xac;" horiz-adv-x="1029" 
d="M929 52h-320v285h-509v290h829v-575z" />
    <glyph glyph-name="uni00AD" unicode="&#xad;" horiz-adv-x="1106" 
d="M1006 337h-906v290h906v-290z" />
    <glyph glyph-name="registered" unicode="&#xae;" horiz-adv-x="1239" 
d="M620 424q-173 0 -309 77.5t-213.5 213t-77.5 308.5t77.5 308t213.5 212.5t309 77.5t308.5 -77.5t213 -212.5t77.5 -308t-77.5 -308.5t-213 -213t-308.5 -77.5zM620 595q123 0 219 55.5t151 152t55 219.5q0 124 -55.5 220.5t-151.5 152.5t-218 56t-218.5 -55.5
t-152 -152.5t-55.5 -221q0 -123 55.5 -219.5t152 -152t218.5 -55.5zM890 700h-176l-114 239h-57v-236h-160v642h268q104 0 165.5 -55.5t61.5 -147.5q0 -65 -31.5 -112.5t-87.5 -70.5zM543 1069h69q49 0 75 19t26 56q0 35 -25.5 53t-75.5 18h-69v-146z" />
    <glyph glyph-name="macron" unicode="&#xaf;" horiz-adv-x="898" 
d="M798 1225h-698v205h698v-205z" />
    <glyph glyph-name="degree" unicode="&#xb0;" horiz-adv-x="660" 
d="M330 900q-90 0 -160 40t-110 110t-40 160t40 160t110 110t160 40q89 0 159 -40t110.5 -110t40.5 -160t-40.5 -160t-110.5 -110t-159 -40zM330 1090q47 0 78.5 34t31.5 86t-31.5 86t-78.5 34q-49 0 -79.5 -34t-30.5 -86t30.5 -86t79.5 -34z" />
    <glyph glyph-name="plusminus" unicode="&#xb1;" horiz-adv-x="1106" 
d="M713 332h-320v285h-293v290h293v284h320v-284h293v-290h-293v-285zM1006 0h-906v280h906v-280z" />
    <glyph glyph-name="uni00B2" unicode="&#xb2;" horiz-adv-x="705" 
d="M615 790h-467v107q106 98 165.5 163t84.5 111.5t25 86.5q0 46 -26 73.5t-70 27.5q-37 0 -74 -20t-61 -52l-92 120q47 52 119 82.5t146 30.5q109 0 179 -65t70 -168q0 -56 -23.5 -113t-69 -112.5t-112.5 -108.5h206v-163z" />
    <glyph glyph-name="uni00B3" unicode="&#xb3;" horiz-adv-x="671" 
d="M90 862l69 137q74 -48 135 -48q41 0 67.5 21t26.5 53q0 37 -35 57t-97 20h-35v127h35q50 0 84 21t34 51q0 26 -22 42t-56 16q-48 0 -117 -43l-79 129q89 75 214 75q102 0 168 -51.5t66 -132.5q0 -55 -30 -98t-82 -68q68 -21 106.5 -66t38.5 -107q0 -88 -76 -147.5
t-192 -59.5q-126 0 -223 72z" />
    <glyph glyph-name="acute" unicode="&#xb4;" horiz-adv-x="531" 
d="M301 1160h-261l132 340h329z" />
    <glyph glyph-name="mu" unicode="&#xb5;" horiz-adv-x="1302" 
d="M1270 -20q-120 0 -206 32t-139 97q-52 -61 -125 -95t-157 -34q-116 0 -195 67v-547h-348v1500h369v-482q0 -94 41.5 -151t109.5 -57t109 57t41 151v482h369v-617q0 -136 153 -136z" />
    <glyph glyph-name="paragraph" unicode="&#xb6;" horiz-adv-x="1339" 
d="M1239 -150h-250v1400h-130v-1400h-250v790q-155 0 -274.5 57t-187 157t-67.5 230q0 126 65 219.5t183 145t277 51.5h634v-1650z" />
    <glyph glyph-name="periodcentered" unicode="&#xb7;" horiz-adv-x="500" 
d="M250 370q-72 0 -116 44t-44 116t44 116t116 44t116 -44t44 -116t-44 -116t-116 -44z" />
    <glyph glyph-name="cedilla" unicode="&#xb8;" horiz-adv-x="513" 
d="M70 -395l48 132q35 -19 73 -19t61.5 21t23.5 55q0 32 -23 52t-75 20h-11.5t-12.5 -1l55 142h122l-51 -109q75 -8 119 -48.5t44 -104.5q0 -76 -61.5 -126.5t-155.5 -50.5q-77 0 -156 37z" />
    <glyph glyph-name="uni00B9" unicode="&#xb9;" horiz-adv-x="491" 
d="M391 780h-200v534l-112 -41l-59 150l211 77h160v-720z" />
    <glyph glyph-name="ordmasculine" unicode="&#xba;" horiz-adv-x="770" 
d="M386 800q-105 0 -188 47t-130.5 128.5t-47.5 184.5q0 104 47.5 185.5t130.5 128t189 46.5q105 0 187 -46.5t129 -127.5t47 -185q0 -105 -47 -186.5t-129.5 -128t-187.5 -46.5zM386 985q46 0 82 22.5t56.5 62.5t20.5 90q0 51 -20.5 90.5t-56.5 62t-82 22.5t-82.5 -22.5
t-57.5 -62t-21 -90.5q0 -50 21 -90t57.5 -62.5t82.5 -22.5z" />
    <glyph glyph-name="guillemotright" unicode="&#xbb;" horiz-adv-x="1246" 
d="M439 111h-339l342 385l-342 386h339l323 -385zM903 111h-339l343 385l-343 386h339l323 -385z" />
    <glyph glyph-name="onequarter" unicode="&#xbc;" horiz-adv-x="1656" 
d="M435 0h-224l1025 1540h217zM441 780h-200v534l-112 -41l-59 150l211 77h160v-720zM1498 0h-190v130h-336v144l336 446h190v-425h88v-165h-88v-130zM1135 295h173v230z" />
    <glyph glyph-name="onehalf" unicode="&#xbd;" horiz-adv-x="1698" 
d="M435 0h-224l1025 1540h217zM441 780h-200v534l-112 -41l-59 150l211 77h160v-720zM1628 0h-480v110q111 103 172.5 168t86 109.5t24.5 85.5q0 47 -24.5 74t-64.5 27q-66 0 -114 -67l-94 124q46 53 112 81t134 28q100 0 173.5 -61t73.5 -171q0 -62 -26 -121t-73 -114
t-112 -106h212v-167z" />
    <glyph glyph-name="threequarters" unicode="&#xbe;" horiz-adv-x="1648" 
d="M427 0h-224l1025 1540h217zM70 853l70 138q74 -48 132 -48q40 0 65 21t25 54q0 37 -33.5 57.5t-92.5 20.5h-33v129h33q49 0 80.5 20.5t31.5 51.5q0 26 -21 42.5t-53 16.5q-46 0 -114 -43l-80 131q92 76 213 76q101 0 166.5 -52t65.5 -133q0 -55 -31 -100.5t-84 -70.5
q69 -22 108.5 -68t39.5 -109q0 -89 -76 -148t-189 -59q-125 0 -223 73zM1490 0h-190v130h-336v144l336 446h190v-425h88v-165h-88v-130zM1127 295h173v230z" />
    <glyph glyph-name="questiondown" unicode="&#xbf;" horiz-adv-x="943" 
d="M581 1030q72 0 116 -44t44 -116t-44 -116t-116 -44t-116 44t-44 116t44 116t116 44zM790 -81l133 -299q-194 -140 -430 -140q-136 0 -235.5 45t-153.5 128.5t-54 199.5q0 83 25 141.5t65.5 104t85.5 88.5q49 47 94.5 99.5t75 125t29.5 178.5h313q0 -139 -30 -230
t-74 -151t-85 -105q-38 -42 -65.5 -80.5t-27.5 -88.5q0 -59 39 -95.5t103 -36.5q58 0 109.5 31.5t82.5 84.5z" />
    <glyph glyph-name="Agrave" unicode="&#xc0;" horiz-adv-x="1606" 
d="M934 1660h-261l-200 340h329zM425 0h-415l586 1500h415l585 -1500h-415l-97 267h-562zM648 612h311l-156 428z" />
    <glyph glyph-name="Aacute" unicode="&#xc1;" horiz-adv-x="1606" 
d="M943 1660h-260l131 340h330zM425 0h-415l586 1500h415l585 -1500h-415l-97 267h-562zM648 612h311l-156 428z" />
    <glyph glyph-name="Acircumflex" unicode="&#xc2;" horiz-adv-x="1606" 
d="M1175 1660h-271l-102 192l-101 -192h-270l225 340h294zM425 0h-415l586 1500h415l585 -1500h-415l-97 267h-562zM648 612h311l-156 428z" />
    <glyph glyph-name="Atilde" unicode="&#xc3;" horiz-adv-x="1606" 
d="M1206 1981q0 -145 -58 -219t-174 -74q-70 0 -115.5 22.5t-80.5 47.5q-31 23 -62.5 39t-72.5 16q-108 0 -114 -117h-128q0 294 237 294q74 0 122 -23t86 -49q32 -22 62.5 -37.5t67.5 -15.5q96 0 102 116h128zM425 0h-415l586 1500h415l585 -1500h-415l-97 267h-562z
M648 612h311l-156 428z" />
    <glyph glyph-name="Adieresis" unicode="&#xc4;" horiz-adv-x="1606" 
d="M425 0h-415l586 1500h415l585 -1500h-415l-97 267h-562zM648 612h311l-156 428zM1038 1689q-63 0 -101.5 38.5t-38.5 101.5t38.5 101.5t101.5 38.5t101.5 -38.5t38.5 -101.5t-38.5 -101.5t-101.5 -38.5zM569 1689q-63 0 -101.5 38.5t-38.5 101.5t38.5 101.5t101.5 38.5
t101.5 -38.5t38.5 -101.5t-38.5 -101.5t-101.5 -38.5z" />
    <glyph glyph-name="Aring" unicode="&#xc5;" horiz-adv-x="1606" 
d="M803 1570q-103 0 -166.5 60.5t-63.5 159.5t63.5 159.5t166.5 60.5q104 0 167 -60.5t63 -159.5t-63 -159.5t-167 -60.5zM803 1709q36 0 58 22.5t22 58.5t-22 58t-58 22t-58 -22t-22 -58t22 -58.5t58 -22.5zM425 0h-415l586 1500h415l585 -1500h-415l-97 267h-562zM648 612
h311l-156 428z" />
    <glyph glyph-name="AE" unicode="&#xc6;" horiz-adv-x="2276" 
d="M2226 0h-1007l-36 267h-587l-137 -267h-449l802 1500h1210l47 -345h-609l32 -233h579l47 -345h-580l32 -232h609zM774 612h362l-76 556h-5z" />
    <glyph glyph-name="Ccedilla" unicode="&#xc7;" horiz-adv-x="1481" 
d="M1421 186q-94 -90 -218 -145.5t-270 -67.5l-35 -75q75 -8 119 -48.5t44 -104.5q0 -76 -61.5 -126.5t-155.5 -50.5q-77 0 -156 37l48 132q35 -19 73 -19t61.5 21t23.5 55q0 32 -23 52t-75 20h-11.5t-12.5 -1l41 106q-163 8 -300.5 69t-239 165.5t-157.5 243.5t-56 301
q0 168 59.5 310t167 247.5t253 164t316.5 58.5q169 0 312.5 -57.5t249.5 -159.5l-276 -278q-52 70 -127.5 110t-164.5 40q-82 0 -152 -33t-122.5 -92t-81.5 -138t-29 -171q0 -93 29 -172t81.5 -138.5t122.5 -92.5t152 -33q89 0 164 40t127 110z" />
    <glyph glyph-name="Egrave" unicode="&#xc8;" horiz-adv-x="1200" 
d="M767 1660h-261l-200 340h329zM100 0v1500h1000v-345h-604v-232h564v-345h-564v-233h614v-345h-1010z" />
    <glyph glyph-name="Eacute" unicode="&#xc9;" horiz-adv-x="1200" 
d="M706 1660h-260l131 340h330zM100 0v1500h1000v-345h-604v-232h564v-345h-564v-233h614v-345h-1010z" />
    <glyph glyph-name="Ecircumflex" unicode="&#xca;" horiz-adv-x="1200" 
d="M977 1660h-270l-102 192l-101 -192h-270l225 340h293zM100 0v1500h1000v-345h-604v-232h564v-345h-564v-233h614v-345h-1010z" />
    <glyph glyph-name="Edieresis" unicode="&#xcb;" horiz-adv-x="1200" 
d="M100 0v1500h1000v-345h-604v-232h564v-345h-564v-233h614v-345h-1010zM835 1689q-63 0 -101.5 38.5t-38.5 101.5t38.5 101.5t101.5 38.5t101.5 -38.5t38.5 -101.5t-38.5 -101.5t-101.5 -38.5zM366 1689q-63 0 -101.5 38.5t-38.5 101.5t38.5 101.5t101.5 38.5t101.5 -38.5
t38.5 -101.5t-38.5 -101.5t-101.5 -38.5z" />
    <glyph glyph-name="Igrave" unicode="&#xcc;" horiz-adv-x="596" 
d="M447 1660l-131 340h-330l201 -340h260zM496 1500h-396v-1500h396v1500z" />
    <glyph glyph-name="Iacute" unicode="&#xcd;" horiz-adv-x="596" 
d="M432 1660l200 340h-329l-132 -340h261zM496 1500h-396v-1500h396v1500z" />
    <glyph glyph-name="Icircumflex" unicode="&#xce;" horiz-adv-x="597" 
d="M670 1660l-225 340h-293l-225 -340h269l102 192l102 -192h270zM497 1500h-396v-1500h396v1500z" />
    <glyph glyph-name="Idieresis" unicode="&#xcf;" horiz-adv-x="596" 
d="M496 1500h-396v-1500h396v1500zM533 1689q-63 0 -101.5 38.5t-38.5 101.5t38.5 101.5t101.5 38.5t101.5 -38.5t38.5 -101.5t-38.5 -101.5t-101.5 -38.5zM64 1689q-63 0 -101.5 38.5t-38.5 101.5t38.5 101.5t101.5 38.5t101.5 -38.5t38.5 -101.5t-38.5 -101.5
t-101.5 -38.5z" />
    <glyph glyph-name="Eth" unicode="&#xd0;" horiz-adv-x="1634" 
d="M194 0v603h-184v280h184v617h531q269 0 468.5 -93t310 -261.5t110.5 -395.5q0 -226 -110.5 -395t-310 -262t-468.5 -93h-531zM810 603h-220v-258h148q152 0 257 47t159.5 137.5t54.5 220.5q0 131 -54.5 221t-159.5 137t-257 47h-148v-272h220v-280z" />
    <glyph glyph-name="Ntilde" unicode="&#xd1;" horiz-adv-x="1602" 
d="M1217 1981q0 -145 -58 -219t-174 -74q-70 0 -115 23t-82 48q-31 21 -61.5 37.5t-71.5 16.5q-109 0 -115 -117h-128q0 294 238 294q74 0 121.5 -23.5t87.5 -49.5q32 -20 61.5 -36t66.5 -16q96 0 102 116h128zM1502 0h-466l-540 890v-890h-396v1500h466l540 -893v893h396
v-1500z" />
    <glyph glyph-name="Ograve" unicode="&#xd2;" horiz-adv-x="1710" 
d="M1007 1660h-261l-200 340h329zM856 -30q-172 0 -317.5 58.5t-253 164t-166.5 247.5t-59 310t59 310t166.5 247.5t253 164t318.5 58.5q172 0 317 -58.5t251.5 -164t165.5 -247.5t59 -310t-59 -310t-165.5 -247.5t-251.5 -164t-318 -58.5zM856 315q83 0 154 33t123.5 92.5
t82 138.5t29.5 171t-29.5 171t-82 138.5t-123.5 92.5t-154 33t-154.5 -33t-124.5 -92.5t-82.5 -138.5t-29.5 -171t29.5 -171t82.5 -138.5t124.5 -92.5t154.5 -33z" />
    <glyph glyph-name="Oacute" unicode="&#xd3;" horiz-adv-x="1710" 
d="M966 1660h-260l131 340h330zM856 -30q-172 0 -317.5 58.5t-253 164t-166.5 247.5t-59 310t59 310t166.5 247.5t253 164t317.5 58.5q173 0 318 -58.5t251.5 -164t165.5 -247.5t59 -310t-59 -310t-165.5 -247.5t-251.5 -164t-318 -58.5zM856 315q83 0 154 33t123.5 92.5
t82 138.5t29.5 171t-29.5 171t-82 138.5t-123.5 92.5t-154 33t-154.5 -33t-124.5 -92.5t-82.5 -138.5t-29.5 -171t29.5 -171t82.5 -138.5t124.5 -92.5t154.5 -33z" />
    <glyph glyph-name="Ocircumflex" unicode="&#xd4;" horiz-adv-x="1710" 
d="M1227 1660h-270l-102 192l-101 -192h-270l225 340h293zM856 -30q-172 0 -317.5 58.5t-253 164t-166.5 247.5t-59 310t59 310t166.5 247.5t253 164t317.5 58.5q173 0 318 -58.5t251.5 -164t165.5 -247.5t59 -310t-59 -310t-165.5 -247.5t-251.5 -164t-318 -58.5zM856 315
q83 0 154 33t123.5 92.5t82 138.5t29.5 171t-29.5 171t-82 138.5t-123.5 92.5t-154 33t-154.5 -33t-124.5 -92.5t-82.5 -138.5t-29.5 -171t29.5 -171t82.5 -138.5t124.5 -92.5t154.5 -33z" />
    <glyph glyph-name="Otilde" unicode="&#xd5;" horiz-adv-x="1710" 
d="M1258 1981q0 -145 -58 -219t-174 -74q-70 0 -115.5 22.5t-80.5 47.5q-31 23 -62.5 39t-72.5 16q-108 0 -114 -117h-128q0 294 237 294q74 0 122 -23t86 -49q32 -22 62.5 -37.5t67.5 -15.5q96 0 102 116h128zM856 -30q-172 0 -317.5 58.5t-253 164t-166.5 247.5t-59 310
t59 310t166.5 247.5t253 164t318.5 58.5q172 0 317 -58.5t251.5 -164t165.5 -247.5t59 -310t-59 -310t-165.5 -247.5t-251.5 -164t-318 -58.5zM856 315q83 0 154 33t123.5 92.5t82 138.5t29.5 171t-29.5 171t-82 138.5t-123.5 92.5t-154 33t-154.5 -33t-124.5 -92.5
t-82.5 -138.5t-29.5 -171t29.5 -171t82.5 -138.5t124.5 -92.5t154.5 -33z" />
    <glyph glyph-name="Odieresis" unicode="&#xd6;" horiz-adv-x="1710" 
d="M856 -30q-172 0 -317.5 58.5t-253 164t-166.5 247.5t-59 310t59 310t166.5 247.5t253 164t318.5 58.5q172 0 317 -58.5t251.5 -164t165.5 -247.5t59 -310t-59 -310t-165.5 -247.5t-251.5 -164t-318 -58.5zM856 315q83 0 154 33t123.5 92.5t82 138.5t29.5 171t-29.5 171
t-82 138.5t-123.5 92.5t-154 33t-154.5 -33t-124.5 -92.5t-82.5 -138.5t-29.5 -171t29.5 -171t82.5 -138.5t124.5 -92.5t154.5 -33zM1090 1689q-63 0 -101.5 38.5t-38.5 101.5t38.5 101.5t101.5 38.5t101.5 -38.5t38.5 -101.5t-38.5 -101.5t-101.5 -38.5zM621 1689
q-63 0 -101.5 38.5t-38.5 101.5t38.5 101.5t101.5 38.5t101.5 -38.5t38.5 -101.5t-38.5 -101.5t-101.5 -38.5z" />
    <glyph glyph-name="multiply" unicode="&#xd7;" horiz-adv-x="1126" 
d="M821 22l-258 258l-258 -258l-205 205l258 258l-258 258l205 205l257 -258l259 258l205 -205l-258 -258l258 -258z" />
    <glyph glyph-name="Oslash" unicode="&#xd8;" horiz-adv-x="1710" 
d="M600 -105l-156 70l37 89q-128 63 -222.5 166.5t-146.5 238.5t-52 291q0 168 59 310t166.5 247.5t253 164t317.5 58.5q59 0 116 -7.5t110 -21.5l40 96l156 -62l-39 -93q126 -64 218 -167.5t142.5 -236.5t50.5 -288q0 -168 -59 -310t-165.5 -247.5t-251.5 -164t-318 -58.5
q-56 0 -110 6.5t-105 19.5zM623 397l323 777q-22 5 -44.5 8t-45.5 3q-83 0 -154.5 -33t-124.5 -92.5t-82.5 -138.5t-29.5 -171q0 -73 19.5 -139t55 -120.5t83.5 -93.5zM856 315q83 0 154 33t123.5 92.5t82 138.5t29.5 171q0 72 -18 136t-51.5 117.5t-79.5 92.5l-319 -773
q20 -4 39.5 -6t39.5 -2z" />
    <glyph glyph-name="Ugrave" unicode="&#xd9;" horiz-adv-x="1544" 
d="M924 1660h-261l-200 340h329zM1444 1500v-823q0 -220 -80.5 -378.5t-231 -243.5t-360.5 -85q-209 0 -360 85t-231.5 243.5t-80.5 378.5v823h396v-769q0 -143 29.5 -235t90.5 -136.5t156 -44.5t156 44.5t90.5 136.5t29.5 235v769h396z" />
    <glyph glyph-name="Uacute" unicode="&#xda;" horiz-adv-x="1544" 
d="M883 1660h-260l131 340h330zM1444 1500v-823q0 -220 -80.5 -378.5t-231 -243.5t-360.5 -85q-209 0 -360 85t-231.5 243.5t-80.5 378.5v823h396v-769q0 -143 29.5 -235t90.5 -136.5t156 -44.5t156 44.5t90.5 136.5t29.5 235v769h396z" />
    <glyph glyph-name="Ucircumflex" unicode="&#xdb;" horiz-adv-x="1544" 
d="M1144 1660h-270l-102 192l-101 -192h-270l225 340h293zM1444 1500v-823q0 -220 -80.5 -378.5t-231 -243.5t-360.5 -85q-209 0 -360 85t-231.5 243.5t-80.5 378.5v823h396v-769q0 -143 29.5 -235t90.5 -136.5t156 -44.5t156 44.5t90.5 136.5t29.5 235v769h396z" />
    <glyph glyph-name="Udieresis" unicode="&#xdc;" horiz-adv-x="1544" 
d="M1444 1500v-823q0 -220 -80.5 -378.5t-231 -243.5t-360.5 -85q-209 0 -360 85t-231.5 243.5t-80.5 378.5v823h396v-769q0 -143 29.5 -235t90.5 -136.5t156 -44.5t156 44.5t90.5 136.5t29.5 235v769h396zM1007 1689q-63 0 -101.5 38.5t-38.5 101.5t38.5 101.5t101.5 38.5
t101.5 -38.5t38.5 -101.5t-38.5 -101.5t-101.5 -38.5zM538 1689q-63 0 -101.5 38.5t-38.5 101.5t38.5 101.5t101.5 38.5t101.5 -38.5t38.5 -101.5t-38.5 -101.5t-101.5 -38.5z" />
    <glyph glyph-name="Yacute" unicode="&#xdd;" horiz-adv-x="1532" 
d="M877 1660h-260l131 340h330zM964 0h-396v641l-558 859h481l273 -506l277 506h481l-558 -860v-640z" />
    <glyph glyph-name="Thorn" unicode="&#xde;" horiz-adv-x="1242" 
d="M470 0h-370v1500h370v-290h175q157 0 273 -56.5t180 -158.5t64 -241t-64.5 -243.5t-180.5 -162.5t-272 -58h-175v-290zM470 620h94q113 0 166.5 31.5t53.5 98.5t-54 98.5t-167 31.5h-93v-260z" />
    <glyph glyph-name="germandbls" unicode="&#xdf;" horiz-adv-x="1294" 
d="M496 0h-396v1069q0 138 67 241.5t186.5 161.5t277.5 58t278.5 -50.5t188.5 -140t68 -207.5q0 -74 -24.5 -122t-59.5 -79t-69 -54q-32 -22 -55 -42t-23 -49q0 -32 30.5 -53t75.5 -45q32 -17 67 -39t66 -54.5t50.5 -80.5t19.5 -116q0 -128 -74 -222t-210 -145t-321 -51
l-67 335q94 0 159 21t99.5 60.5t34.5 94.5q0 43 -18.5 71t-46.5 47.5t-59 35.5q-43 23 -77 50.5t-34 78.5q0 39 20.5 62t48.5 45q21 16 41.5 34.5t33.5 46t13 69.5q0 47 -17.5 81.5t-50 53.5t-76.5 19q-70 0 -108.5 -51t-38.5 -146v-988z" />
    <glyph glyph-name="agrave" unicode="&#xe0;" horiz-adv-x="1129" 
d="M725 1160h-261l-200 340h329zM1049 0h-323l-18 110q-55 -63 -133 -96.5t-170 -33.5q-103 0 -183 39.5t-126 109t-46 158.5q0 94 50 165t138.5 111.5t202.5 40.5q62 0 122 -12.5t117 -36.5v16q0 46 -29.5 81t-82 55t-121.5 20q-66 0 -129.5 -20t-113.5 -57l-94 271
q110 49 218 74t207 25q157 0 272.5 -60.5t178.5 -171t63 -260.5v-528zM490 249q45 0 88.5 20t71.5 51t28 63v1q-36 21 -80 32.5t-88 11.5q-63 0 -99.5 -23.5t-36.5 -64.5q0 -26 15 -47t41.5 -32.5t59.5 -11.5z" />
    <glyph glyph-name="aacute" unicode="&#xe1;" horiz-adv-x="1129" 
d="M694 1160h-260l131 340h330zM1049 0h-323l-18 110q-55 -63 -133 -96.5t-170 -33.5q-103 0 -183 39.5t-126 109t-46 158.5q0 94 50 165t138.5 111.5t202.5 40.5q62 0 122 -12.5t117 -36.5v16q0 46 -29.5 81t-82 55t-121.5 20q-66 0 -129.5 -20t-113.5 -57l-94 271
q110 49 218 74t207 25q157 0 272.5 -60.5t178.5 -171t63 -260.5v-528zM490 249q45 0 88.5 20t71.5 51t28 63v1q-36 21 -80 32.5t-88 11.5q-63 0 -99.5 -23.5t-36.5 -64.5q0 -26 15 -47t41.5 -32.5t59.5 -11.5z" />
    <glyph glyph-name="acircumflex" unicode="&#xe2;" horiz-adv-x="1129" 
d="M936 1160h-271l-102 192l-101 -192h-270l225 340h294zM1049 0h-323l-18 110q-55 -63 -133 -96.5t-170 -33.5q-103 0 -183 39.5t-126 109t-46 158.5q0 94 50 165t138.5 111.5t202.5 40.5q62 0 122 -12.5t117 -36.5v16q0 46 -29.5 81t-82 55t-121.5 20q-66 0 -129.5 -20
t-113.5 -57l-94 271q110 49 218 74t207 25q157 0 272.5 -60.5t178.5 -171t63 -260.5v-528zM490 249q45 0 88.5 20t71.5 51t28 63v1q-36 21 -80 32.5t-88 11.5q-63 0 -99.5 -23.5t-36.5 -64.5q0 -26 15 -47t41.5 -32.5t59.5 -11.5z" />
    <glyph glyph-name="atilde" unicode="&#xe3;" horiz-adv-x="1129" 
d="M967 1481q0 -145 -58 -219t-174 -74q-70 0 -115.5 22.5t-80.5 47.5q-31 23 -62.5 39t-72.5 16q-108 0 -114 -117h-128q0 294 237 294q74 0 122 -23t86 -49q32 -22 62.5 -37.5t67.5 -15.5q96 0 102 116h128zM1049 0h-323l-18 110q-55 -63 -133 -96.5t-170 -33.5
q-103 0 -183 39.5t-126 109t-46 158.5q0 94 50 165t138.5 111.5t202.5 40.5q62 0 122 -12.5t117 -36.5v16q0 46 -29.5 81t-82 55t-121.5 20q-66 0 -129.5 -20t-113.5 -57l-94 271q110 49 218 74t207 25q157 0 272.5 -60.5t178.5 -171t63 -260.5v-528zM490 249q45 0 88.5 20
t71.5 51t28 63v1q-36 21 -80 32.5t-88 11.5q-63 0 -99.5 -23.5t-36.5 -64.5q0 -26 15 -47t41.5 -32.5t59.5 -11.5z" />
    <glyph glyph-name="adieresis" unicode="&#xe4;" horiz-adv-x="1129" 
d="M1049 0h-323l-18 110q-55 -63 -133 -96.5t-170 -33.5q-103 0 -183 39.5t-126 109t-46 158.5q0 94 50 165t138.5 111.5t202.5 40.5q62 0 122 -12.5t117 -36.5v16q0 46 -29.5 81t-82 55t-119.5 20q-68 0 -131.5 -20t-113.5 -57l-94 271q110 49 218 74t207 25
q157 0 272.5 -60.5t178.5 -171t63 -260.5v-528zM490 249q45 0 88.5 20t71.5 51t28 63v1q-36 21 -80 32.5t-88 11.5q-63 0 -99.5 -23.5t-36.5 -64.5q0 -26 15 -47t41.5 -32.5t59.5 -11.5zM819 1189q-63 0 -101.5 38.5t-38.5 101.5t38.5 101.5t101.5 38.5t101.5 -38.5
t38.5 -101.5t-38.5 -101.5t-101.5 -38.5zM350 1189q-63 0 -101.5 38.5t-38.5 101.5t38.5 101.5t101.5 38.5t101.5 -38.5t38.5 -101.5t-38.5 -101.5t-101.5 -38.5z" />
    <glyph glyph-name="aring" unicode="&#xe5;" horiz-adv-x="1129" 
d="M564 1080q-103 0 -166.5 60.5t-63.5 159.5t63.5 159.5t166.5 60.5q104 0 167 -60.5t63 -159.5t-63 -159.5t-167 -60.5zM564 1220q36 0 58 22t22 58t-22 58t-58 22t-58 -22t-22 -58t22 -58t58 -22zM1049 0h-323l-18 110q-55 -63 -133 -96.5t-170 -33.5q-103 0 -183 39.5
t-126 109t-46 158.5q0 94 50 165t138.5 111.5t202.5 40.5q62 0 122 -12.5t117 -36.5v16q0 46 -29.5 81t-82 55t-121.5 20q-66 0 -129.5 -20t-113.5 -57l-94 271q110 49 218 74t207 25q157 0 272.5 -60.5t178.5 -171t63 -260.5v-528zM490 249q45 0 88.5 20t71.5 51t28 63v1
q-36 21 -80 32.5t-88 11.5q-63 0 -99.5 -23.5t-36.5 -64.5q0 -26 15 -47t41.5 -32.5t59.5 -11.5z" />
    <glyph glyph-name="ae" unicode="&#xe6;" horiz-adv-x="1776" 
d="M1662 105q-169 -125 -373 -125q-124 0 -234 49t-187 139q-42 -60 -104 -102t-139 -64t-165 -22q-121 0 -213.5 40t-144.5 111t-52 163q0 95 54.5 169.5t148.5 117.5t214 43q129 0 245 -52l-4 8q-24 60 -93.5 95t-164.5 35q-145 0 -273 -78l-87 289q98 49 194 74t184 25
q122 0 220.5 -46t161.5 -133q70 86 170.5 132.5t215.5 46.5q146 0 256.5 -73t172 -203t61.5 -302v-32h-667q20 -41 55 -71t82 -45.5t103 -15.5q141 0 266 91zM1042 545h344q-8 43 -32.5 75.5t-60.5 50.5t-81 18q-44 0 -79.5 -18t-59 -50t-31.5 -76zM723 394q-24 24 -75 39
t-108 15q-51 0 -88.5 -12t-57.5 -34.5t-20 -53.5q0 -29 18 -52t51 -35.5t76 -12.5q48 0 88.5 15.5t69 44t40.5 65.5z" />
    <glyph glyph-name="ccedilla" unicode="&#xe7;" horiz-adv-x="1063" 
d="M1023 169q-64 -79 -159 -127t-211 -59l-40 -85q75 -8 119 -48.5t44 -104.5q0 -76 -61.5 -126.5t-155.5 -50.5q-77 0 -156 37l48 132q35 -19 73 -19t61.5 21t23.5 55q0 32 -23 52t-75 20h-11.5t-12.5 -1l46 118q-141 14 -250 83.5t-171 181.5t-62 252q0 150 70.5 267.5
t194 185t280.5 67.5q134 0 243.5 -50t182.5 -136l-215 -227q-31 38 -80.5 60.5t-103.5 22.5q-56 0 -100 -24t-69 -66.5t-25 -97.5q0 -56 25 -99.5t69 -68t100 -24.5q54 0 104 22.5t80 60.5z" />
    <glyph glyph-name="egrave" unicode="&#xe8;" horiz-adv-x="1166" 
d="M1051 105q-187 -125 -406 -125q-169 0 -303.5 70.5t-213 192t-78.5 274.5q0 144 70 257.5t190.5 179.5t272.5 66q159 0 279 -73t187 -203t67 -302v-32h-670q18 -39 50 -70.5t80 -50.5t112 -19q141 0 267 90zM429 560h349q-5 47 -28.5 83t-62 56.5t-85.5 20.5
q-48 0 -84 -22t-58.5 -58t-30.5 -80zM744 1160h-260l-201 340h330z" />
    <glyph glyph-name="eacute" unicode="&#xe9;" horiz-adv-x="1166" 
d="M1051 105q-187 -125 -406 -125q-169 0 -303.5 70.5t-213 192t-78.5 274.5q0 144 70 257.5t190.5 179.5t272.5 66q159 0 279 -73t187 -203t67 -302v-32h-670q18 -39 50 -70.5t80 -50.5t112 -19q141 0 267 90zM429 560h349q-5 47 -28.5 83t-62 56.5t-85.5 20.5
q-48 0 -84 -22t-58.5 -58t-30.5 -80zM714 1160h-261l132 340h329z" />
    <glyph glyph-name="ecircumflex" unicode="&#xea;" horiz-adv-x="1166" 
d="M1051 105q-187 -125 -406 -125q-169 0 -303.5 70.5t-213 192t-78.5 274.5q0 144 70 257.5t190.5 179.5t272.5 66q159 0 279 -73t187 -203t67 -302v-32h-670q18 -39 50 -70.5t80 -50.5t112 -19q141 0 267 90zM429 560h349q-5 47 -28.5 83t-62 56.5t-85.5 20.5
q-48 0 -84 -22t-58.5 -58t-30.5 -80zM955 1160h-270l-102 192l-101 -192h-270l225 340h293z" />
    <glyph glyph-name="edieresis" unicode="&#xeb;" horiz-adv-x="1166" 
d="M1051 105q-187 -125 -406 -125q-169 0 -303.5 70.5t-213 192t-78.5 274.5q0 144 70 257.5t190.5 179.5t272.5 66q159 0 279 -73t187 -203t67 -302v-32h-670q18 -39 50 -70.5t80 -50.5t112 -19q141 0 267 90zM429 560h349q-5 47 -28.5 83t-62 56.5t-85.5 20.5
q-48 0 -84 -22t-58.5 -58t-30.5 -80zM818 1189q-63 0 -101.5 38.5t-38.5 101.5t38.5 101.5t101.5 38.5t101.5 -38.5t38.5 -101.5t-38.5 -101.5t-101.5 -38.5zM349 1189q-63 0 -101.5 38.5t-38.5 101.5t38.5 101.5t101.5 38.5t101.5 -38.5t38.5 -101.5t-38.5 -101.5
t-101.5 -38.5z" />
    <glyph glyph-name="igrave" unicode="&#xec;" horiz-adv-x="570" 
d="M431 1160h-260l-201 340h330zM470 0h-369v1000h369v-1000z" />
    <glyph glyph-name="iacute" unicode="&#xed;" horiz-adv-x="569" 
d="M402 1160h-261l132 340h329zM469 0h-369v1000h369v-1000z" />
    <glyph glyph-name="icircumflex" unicode="&#xee;" horiz-adv-x="569" 
d="M657 1160h-270l-102 192l-102 -192h-269l225 340h293zM469 0h-369v1000h369v-1000z" />
    <glyph glyph-name="idieresis" unicode="&#xef;" horiz-adv-x="569" 
d="M469 0h-369v1000h369v-1000zM519 1189q-63 0 -101.5 38.5t-38.5 101.5t38.5 101.5t101.5 38.5t101.5 -38.5t38.5 -101.5t-38.5 -101.5t-101.5 -38.5zM50 1189q-63 0 -101.5 38.5t-38.5 101.5t38.5 101.5t101.5 38.5t101.5 -38.5t38.5 -101.5t-38.5 -101.5t-101.5 -38.5z
" />
    <glyph glyph-name="eth" unicode="&#xf0;" horiz-adv-x="1181" 
d="M1079 1249l-161 -61q119 -131 181 -285t62 -326q0 -184 -68 -320.5t-193 -211.5t-295 -75q-160 0 -285.5 65.5t-197.5 181t-72 264.5q0 132 57 233t158 158.5t233 57.5q89 0 161.5 -27t125.5 -78q-29 67 -72.5 131.5t-107.5 119.5l-260 -103l-56 140l194 75
q-44 25 -79.5 39t-90.5 29l149 244q90 -43 174 -92t156 -104l232 85zM608 315q42 0 75.5 25t53 67.5t19.5 95.5q0 54 -20 96.5t-54 67t-78 24.5q-42 0 -75.5 -24t-53 -65t-19.5 -94t20.5 -97t55 -70t76.5 -26z" />
    <glyph glyph-name="ntilde" unicode="&#xf1;" 
d="M1034 1481q0 -145 -58 -219t-174 -74q-70 0 -115 23t-82 48q-31 21 -61.5 37.5t-71.5 16.5q-109 0 -115 -117h-128q0 294 238 294q74 0 121.5 -23.5t87.5 -49.5q32 -20 61.5 -36t66.5 -16q96 0 102 116h128zM1139 0h-369v482q0 100 -38.5 154t-109.5 54q-73 0 -113 -54.5
t-40 -153.5v-482h-369v1000h292l12 -159q53 88 138.5 133.5t200.5 45.5q186 0 291 -115.5t105 -321.5v-583z" />
    <glyph glyph-name="ograve" unicode="&#xf2;" horiz-adv-x="1188" 
d="M746 1160h-261l-200 340h329zM595 -20q-157 0 -280.5 67.5t-194 185t-70.5 267.5t70.5 267.5t194 185t280.5 67.5q158 0 280.5 -67.5t192.5 -185t70 -267.5t-70 -267.5t-192.5 -185t-280.5 -67.5zM594 310q48 0 85.5 24.5t59 68t21.5 99.5q0 54 -21.5 96.5t-59 67
t-85.5 24.5t-85.5 -24.5t-59 -67t-21.5 -96.5q0 -56 21.5 -99.5t59 -68t85.5 -24.5z" />
    <glyph glyph-name="oacute" unicode="&#xf3;" horiz-adv-x="1188" 
d="M705 1160h-260l131 340h330zM595 -20q-157 0 -280.5 67.5t-194 185t-70.5 267.5t70.5 267.5t194 185t280.5 67.5q158 0 280.5 -67.5t192.5 -185t70 -267.5t-70 -267.5t-192.5 -185t-280.5 -67.5zM594 310q48 0 85.5 24.5t59 68t21.5 99.5q0 54 -21.5 96.5t-59 67
t-85.5 24.5t-85.5 -24.5t-59 -67t-21.5 -96.5q0 -56 21.5 -99.5t59 -68t85.5 -24.5z" />
    <glyph glyph-name="ocircumflex" unicode="&#xf4;" horiz-adv-x="1188" 
d="M966 1160h-270l-102 192l-101 -192h-270l225 340h293zM595 -20q-157 0 -280.5 67.5t-194 185t-70.5 267.5t70.5 267.5t194 185t280.5 67.5q158 0 280.5 -67.5t192.5 -185t70 -267.5t-70 -267.5t-192.5 -185t-280.5 -67.5zM594 310q48 0 85.5 24.5t59 68t21.5 99.5
q0 54 -21.5 96.5t-59 67t-85.5 24.5t-85.5 -24.5t-59 -67t-21.5 -96.5q0 -56 21.5 -99.5t59 -68t85.5 -24.5z" />
    <glyph glyph-name="otilde" unicode="&#xf5;" horiz-adv-x="1188" 
d="M982 1481q0 -145 -58 -219t-174 -74q-70 0 -115 23t-82 48q-31 21 -61.5 37.5t-71.5 16.5q-109 0 -115 -117h-128q0 294 238 294q74 0 121.5 -23.5t87.5 -49.5q32 -20 61.5 -36t66.5 -16q96 0 102 116h128zM595 -20q-157 0 -280.5 67.5t-194 185t-70.5 267.5t70.5 267.5
t194 185t280.5 67.5q158 0 280.5 -67.5t192.5 -185t70 -267.5t-70 -267.5t-192.5 -185t-280.5 -67.5zM594 310q48 0 85.5 24.5t59 68t21.5 99.5q0 54 -21.5 96.5t-59 67t-85.5 24.5t-85.5 -24.5t-59 -67t-21.5 -96.5q0 -56 21.5 -99.5t59 -68t85.5 -24.5z" />
    <glyph glyph-name="odieresis" unicode="&#xf6;" horiz-adv-x="1188" 
d="M595 -20q-157 0 -280.5 67.5t-194 185t-70.5 267.5t70.5 267.5t194 185t280.5 67.5q158 0 280.5 -67.5t192.5 -185t70 -267.5t-70 -267.5t-192.5 -185t-280.5 -67.5zM594 310q48 0 85.5 24.5t59 68t21.5 99.5q0 54 -21.5 96.5t-59 67t-85.5 24.5t-85.5 -24.5t-59 -67
t-21.5 -96.5q0 -56 21.5 -99.5t59 -68t85.5 -24.5zM819 1189q-63 0 -101.5 38.5t-38.5 101.5t38.5 101.5t101.5 38.5t101.5 -38.5t38.5 -101.5t-38.5 -101.5t-101.5 -38.5zM350 1189q-63 0 -101.5 38.5t-38.5 101.5t38.5 101.5t101.5 38.5t101.5 -38.5t38.5 -101.5
t-38.5 -101.5t-101.5 -38.5z" />
    <glyph glyph-name="divide" unicode="&#xf7;" horiz-adv-x="1000" 
d="M500 658q-67 0 -113 47t-46 114t46 114t113 47q68 0 114.5 -47t46.5 -114t-46.5 -114t-114.5 -47zM900 390h-800v180h800v-180zM500 -20q-67 0 -113 47t-46 114t46 114t113 47q68 0 114.5 -47t46.5 -114t-46.5 -114t-114.5 -47z" />
    <glyph glyph-name="oslash" unicode="&#xf8;" horiz-adv-x="1188" 
d="M414 -72l-97 40l27 65q-134 62 -214 185t-80 282q0 150 70.5 267.5t194 185t280.5 67.5q39 0 76.5 -4.5t72.5 -13.5l29 70l98 -41l-26 -63q134 -61 213.5 -184.5t79.5 -283.5q0 -150 -70 -267.5t-192.5 -185t-280.5 -67.5q-40 0 -78 4.5t-74 13.5zM479 360l136 329
q-7 1 -21 1q-48 0 -85.5 -24.5t-59 -67t-21.5 -96.5q0 -43 13.5 -79.5t37.5 -62.5zM594 310q48 0 85.5 24.5t59 68t21.5 99.5q0 42 -13.5 78t-37.5 61l-136 -330q7 -1 21 -1z" />
    <glyph glyph-name="ugrave" unicode="&#xf9;" 
d="M740 1160h-261l-200 340h330zM1119 0h-292l-12 159q-52 -88 -138 -133.5t-201 -45.5q-186 0 -291 116t-105 321v583h369v-482q0 -100 38.5 -154t109.5 -54q73 0 113 54.5t40 153.5v482h369v-1000z" />
    <glyph glyph-name="uacute" unicode="&#xfa;" 
d="M681 1160h-261l132 340h329zM1119 0h-292l-12 159q-52 -88 -138 -133.5t-201 -45.5q-186 0 -291 116t-105 321v583h369v-482q0 -100 38.5 -154t109.5 -54q73 0 113 54.5t40 153.5v482h369v-1000z" />
    <glyph glyph-name="ucircumflex" unicode="&#xfb;" 
d="M883 1160h-270l-102 192l-101 -192h-270l225 340h293zM1119 0h-292l-12 159q-52 -88 -138 -133.5t-201 -45.5q-186 0 -291 116t-105 321v583h369v-482q0 -100 38.5 -154t109.5 -54q73 0 113 54.5t40 153.5v482h369v-1000z" />
    <glyph glyph-name="udieresis" unicode="&#xfc;" 
d="M1119 0h-292l-12 159q-52 -88 -138 -133.5t-201 -45.5q-186 0 -291 116t-105 321v583h369v-482q0 -100 38.5 -154t109.5 -54q73 0 113 54.5t40 153.5v482h369v-1000zM844 1189q-63 0 -101.5 38.5t-38.5 101.5t38.5 101.5t101.5 38.5t101.5 -38.5t38.5 -101.5
t-38.5 -101.5t-101.5 -38.5zM375 1189q-63 0 -101.5 38.5t-38.5 101.5t38.5 101.5t101.5 38.5t101.5 -38.5t38.5 -101.5t-38.5 -101.5t-101.5 -38.5z" />
    <glyph glyph-name="yacute" unicode="&#xfd;" horiz-adv-x="1367" 
d="M830 1160h-261l132 340h329zM735 -500h-389l206 497l-542 1003h439l277 -584l242 584h389z" />
    <glyph glyph-name="thorn" unicode="&#xfe;" horiz-adv-x="1236" 
d="M470 -500h-370v2000h370v-600q59 57 134 88.5t163 31.5q131 0 232 -67.5t159 -185t58 -267.5t-58 -267.5t-159 -185t-232 -67.5q-88 0 -163 31.5t-134 88.5v-600zM654 310q54 0 95.5 24.5t65 67.5t23.5 98t-23.5 98t-65 67.5t-95.5 24.5q-50 0 -90.5 -22t-65 -61
t-28.5 -90v-37q4 -49 28.5 -87.5t65 -60.5t90.5 -22z" />
    <glyph glyph-name="ydieresis" unicode="&#xff;" horiz-adv-x="1369" 
d="M737 -500h-390l206 497l-523 1003h420l277 -584l242 584h390zM949 1189q-63 0 -101.5 38.5t-38.5 101.5t38.5 101.5t101.5 38.5t101.5 -38.5t38.5 -101.5t-38.5 -101.5t-101.5 -38.5zM480 1189q-63 0 -101.5 38.5t-38.5 101.5t38.5 101.5t101.5 38.5t101.5 -38.5
t38.5 -101.5t-38.5 -101.5t-101.5 -38.5z" />
    <glyph glyph-name="Amacron" unicode="&#x100;" horiz-adv-x="1606" 
d="M1152 1725h-698v205h698v-205zM425 0h-415l586 1500h415l585 -1500h-415l-97 267h-562zM648 612h311l-156 428z" />
    <glyph glyph-name="amacron" unicode="&#x101;" horiz-adv-x="1129" 
d="M913 1225h-698v205h698v-205zM1049 0h-323l-18 110q-55 -63 -133 -96.5t-170 -33.5q-103 0 -183 39.5t-126 109t-46 158.5q0 94 50 165t138.5 111.5t202.5 40.5q62 0 122 -12.5t117 -36.5v16q0 46 -29.5 81t-82 55t-121.5 20q-66 0 -129.5 -20t-113.5 -57l-94 271
q110 49 218 74t207 25q157 0 272.5 -60.5t178.5 -171t63 -260.5v-528zM490 249q45 0 88.5 20t71.5 51t28 63v1q-36 21 -80 32.5t-88 11.5q-63 0 -99.5 -23.5t-36.5 -64.5q0 -26 15 -47t41.5 -32.5t59.5 -11.5z" />
    <glyph glyph-name="Abreve" unicode="&#x102;" horiz-adv-x="1606" 
d="M1127 2000q0 -98 -41 -172.5t-114 -116t-169 -41.5t-169 41.5t-114 116t-41 172.5h201q0 -76 33 -118t91 -42q59 0 91 42t32 118h200zM425 0h-415l586 1500h415l585 -1500h-415l-97 267h-562zM648 612h311l-156 428z" />
    <glyph glyph-name="abreve" unicode="&#x103;" horiz-adv-x="1129" 
d="M888 1500q0 -98 -41 -172.5t-114 -116t-169 -41.5t-169 41.5t-114 116t-41 172.5h201q0 -76 33 -118t91 -42q59 0 91 42t32 118h200zM1049 0h-323l-18 110q-55 -63 -133 -96.5t-170 -33.5q-103 0 -183 39.5t-126 109t-46 158.5q0 94 50 165t138.5 111.5t202.5 40.5
q62 0 122 -12.5t117 -36.5v16q0 46 -29.5 81t-82 55t-121.5 20q-66 0 -129.5 -20t-113.5 -57l-94 271q110 49 218 74t207 25q157 0 272.5 -60.5t178.5 -171t63 -260.5v-528zM490 249q45 0 88.5 20t71.5 51t28 63v1q-36 21 -80 32.5t-88 11.5q-63 0 -99.5 -23.5t-36.5 -64.5
q0 -26 15 -47t41.5 -32.5t59.5 -11.5z" />
    <glyph glyph-name="Aogonek" unicode="&#x104;" horiz-adv-x="1606" 
d="M425 0h-415l586 1500h415l585 -1500h-139q-58 -26 -93 -65.5t-35 -79.5t32.5 -66.5t81.5 -26.5l-29 -178q-117 0 -188.5 50.5t-71.5 133.5q0 70 50.5 132.5t135.5 99.5h-159l-97 267h-562zM648 612h311l-156 428z" />
    <glyph glyph-name="aogonek" unicode="&#x105;" horiz-adv-x="1129" 
d="M1049 0h-66q-58 -26 -93 -65.5t-35 -79.5t32.5 -66.5t81.5 -26.5l-29 -178q-117 0 -188.5 50.5t-71.5 133.5q0 70 50.5 132.5t135.5 99.5h-140l-18 110q-55 -63 -133 -96.5t-170 -33.5q-103 0 -183 39.5t-126 109t-46 158.5q0 94 50 165t138.5 111.5t202.5 40.5
q62 0 122 -12.5t117 -36.5v16q0 46 -29.5 81t-82 55t-121.5 20q-66 0 -129.5 -20t-113.5 -57l-94 271q110 49 218 74t207 25q157 0 272.5 -60.5t178.5 -171t63 -260.5v-528zM490 249q45 0 88.5 20t71.5 51t28 63v1q-36 21 -80 32.5t-88 11.5q-63 0 -99.5 -23.5t-36.5 -64.5
q0 -26 15 -47t41.5 -32.5t59.5 -11.5z" />
    <glyph glyph-name="Cacute" unicode="&#x106;" horiz-adv-x="1481" 
d="M942 1660h-261l132 340h329zM1421 186q-106 -102 -250.5 -159t-314.5 -57q-171 0 -316.5 58.5t-253 164t-167 247.5t-59.5 310t59.5 310t167 247.5t253 164t316.5 58.5q169 0 312.5 -57.5t249.5 -159.5l-276 -278q-52 70 -127.5 110t-164.5 40q-82 0 -152 -33t-122.5 -92
t-81.5 -138t-29 -171q0 -93 29 -172t81.5 -138.5t122.5 -92.5t152 -33q89 0 164 40t127 110z" />
    <glyph glyph-name="cacute" unicode="&#x107;" horiz-adv-x="1063" 
d="M688 1160h-261l132 340h329zM1023 169q-73 -88 -183 -138.5t-245 -50.5q-157 0 -280.5 67.5t-194 185t-70.5 267.5t70.5 267.5t194 185t280.5 67.5q134 0 243.5 -50t182.5 -136l-215 -227q-31 38 -80.5 60.5t-103.5 22.5q-56 0 -100 -24t-69 -66.5t-25 -97.5
q0 -56 25 -99.5t69 -68t100 -24.5q54 0 104 22.5t80 60.5z" />
    <glyph glyph-name="Ccircumflex" unicode="&#x108;" horiz-adv-x="1481" 
d="M1213 1660h-270l-102 192l-102 -192h-269l225 340h293zM1421 186q-106 -102 -250.5 -159t-314.5 -57q-171 0 -316.5 58.5t-253 164t-167 247.5t-59.5 310t59.5 310t167 247.5t253 164t316.5 58.5q169 0 312.5 -57.5t249.5 -159.5l-276 -278q-52 70 -127.5 110t-164.5 40
q-82 0 -152 -33t-122.5 -92t-81.5 -138t-29 -171q0 -93 29 -172t81.5 -138.5t122.5 -92.5t152 -33q89 0 164 40t127 110z" />
    <glyph glyph-name="ccircumflex" unicode="&#x109;" horiz-adv-x="1063" 
d="M949 1160h-270l-102 192l-102 -192h-269l225 340h293zM1023 169q-73 -88 -183 -138.5t-245 -50.5q-157 0 -280.5 67.5t-194 185t-70.5 267.5t70.5 267.5t194 185t280.5 67.5q134 0 243.5 -50t182.5 -136l-215 -227q-31 38 -80.5 60.5t-103.5 22.5q-56 0 -100 -24
t-69 -66.5t-25 -97.5q0 -56 25 -99.5t69 -68t100 -24.5q54 0 104 22.5t80 60.5z" />
    <glyph glyph-name="Cdotaccent" unicode="&#x10a;" horiz-adv-x="1481" 
d="M1421 186q-106 -102 -250.5 -159t-314.5 -57q-171 0 -316.5 58.5t-253 164t-167 247.5t-59.5 310t59.5 310t167 247.5t253 164t316.5 58.5q169 0 312.5 -57.5t249.5 -159.5l-276 -278q-52 70 -127.5 110t-164.5 40q-82 0 -152 -33t-122.5 -92t-81.5 -138t-29 -171
q0 -93 29 -172t81.5 -138.5t122.5 -92.5t152 -33q89 0 164 40t127 110zM811 1680q-63 0 -101.5 38.5t-38.5 101.5t38.5 101.5t101.5 38.5t101.5 -38.5t38.5 -101.5t-38.5 -101.5t-101.5 -38.5z" />
    <glyph glyph-name="cdotaccent" unicode="&#x10b;" horiz-adv-x="1063" 
d="M1023 169q-73 -88 -183 -138.5t-245 -50.5q-157 0 -280.5 67.5t-194 185t-70.5 267.5t70.5 267.5t194 185t280.5 67.5q134 0 243.5 -50t182.5 -136l-215 -227q-31 38 -80.5 60.5t-103.5 22.5q-56 0 -100 -24t-69 -66.5t-25 -97.5q0 -56 25 -99.5t69 -68t100 -24.5
q54 0 104 22.5t80 60.5zM615 1180q-63 0 -101.5 38.5t-38.5 101.5t38.5 101.5t101.5 38.5t101.5 -38.5t38.5 -101.5t-38.5 -101.5t-101.5 -38.5z" />
    <glyph glyph-name="Ccaron" unicode="&#x10c;" horiz-adv-x="1481" 
d="M989 1660h-292l-225 340h270l101 -191l102 191h269zM1421 186q-106 -102 -250.5 -159t-314.5 -57q-171 0 -316.5 58.5t-253 164t-167 247.5t-59.5 310t59.5 310t167 247.5t253 164t316.5 58.5q169 0 312.5 -57.5t249.5 -159.5l-276 -278q-52 70 -127.5 110t-164.5 40
q-82 0 -152 -33t-122.5 -92t-81.5 -138t-29 -171q0 -93 29 -172t81.5 -138.5t122.5 -92.5t152 -33q89 0 164 40t127 110z" />
    <glyph glyph-name="ccaron" unicode="&#x10d;" horiz-adv-x="1063" 
d="M755 1160h-292l-225 340h270l102 -191l101 191h269zM1023 169q-73 -88 -183 -138.5t-245 -50.5q-157 0 -280.5 67.5t-194 185t-70.5 267.5t70.5 267.5t194 185t280.5 67.5q134 0 243.5 -50t182.5 -136l-215 -227q-31 38 -80.5 60.5t-103.5 22.5q-56 0 -100 -24t-69 -66.5
t-25 -97.5q0 -56 25 -99.5t69 -68t100 -24.5q54 0 104 22.5t80 60.5z" />
    <glyph glyph-name="Dcaron" unicode="&#x10e;" horiz-adv-x="1580" 
d="M859 1660h-293l-225 340h271l101 -191l101 191h270zM100 0v1500h531q269 0 468.5 -93t310 -261.5t110.5 -395.5q0 -226 -110.5 -395t-310 -262t-468.5 -93h-531zM496 345h148q152 0 257 47t159.5 137.5t54.5 220.5q0 131 -54.5 221t-159.5 137t-257 47h-148v-810z" />
    <glyph glyph-name="dcaron" unicode="&#x10f;" horiz-adv-x="1789" 
d="M1574 1070h-206l101 450h250zM1166 0h-323l-19 130q-60 -70 -143.5 -110t-181.5 -40q-130 0 -231.5 67.5t-159.5 185t-58 267.5t58 267.5t159.5 185t231.5 67.5q88 0 164 -31.5t134 -88.5v600h369v-1500zM613 310q51 0 92.5 22t66.5 61t25 90v37q0 50 -25 88t-66.5 60
t-92.5 22q-53 0 -95 -24.5t-66 -67.5t-24 -98t24 -98t66 -67.5t95 -24.5z" />
    <glyph glyph-name="Dcroat" unicode="&#x110;" horiz-adv-x="1674" 
d="M194 0v603h-184v280h184v617h531q269 0 468.5 -93t310 -261.5t110.5 -395.5q0 -226 -110.5 -395t-310 -262t-468.5 -93h-531zM810 603h-220v-258h148q152 0 257 47t159.5 137.5t54.5 220.5q0 131 -54.5 221t-159.5 137t-257 47h-148v-272h220v-280z" />
    <glyph glyph-name="dcroat" unicode="&#x111;" horiz-adv-x="1267" 
d="M1166 0h-323l-19 130q-60 -70 -143.5 -110t-181.5 -40q-130 0 -231.5 67.5t-159.5 185t-58 267.5t58 267.5t159.5 185t231.5 67.5q88 0 164 -31.5t134 -88.5v234h-233v205h233v161h369v-161h96v-205h-96v-1134zM613 310q51 0 92.5 22t66.5 61t25 90v37q0 50 -25 88
t-66.5 60t-92.5 22q-53 0 -95 -24.5t-66 -67.5t-24 -98t24 -98t66 -67.5t95 -24.5z" />
    <glyph glyph-name="Emacron" unicode="&#x112;" horiz-adv-x="1210" 
d="M954 1725h-698v205h698v-205zM100 0v1500h1000v-345h-604v-232h564v-345h-564v-233h614v-345h-1010z" />
    <glyph glyph-name="emacron" unicode="&#x113;" horiz-adv-x="1166" 
d="M1051 105q-187 -125 -406 -125q-169 0 -303.5 70.5t-213 192t-78.5 274.5q0 144 70 257.5t190.5 179.5t272.5 66q159 0 279 -73t187 -203t67 -302v-32h-670q18 -39 50 -70.5t80 -50.5t112 -19q141 0 267 90zM429 560h349q-5 47 -28.5 83t-62 56.5t-85.5 20.5
q-48 0 -84 -22t-58.5 -58t-30.5 -80zM932 1225h-698v205h698v-205z" />
    <glyph glyph-name="Ebreve" unicode="&#x114;" horiz-adv-x="1210" 
d="M929 2000q0 -98 -41 -172.5t-114 -116t-169 -41.5t-169 41.5t-114 116t-41 172.5h201q0 -76 33 -118t92 -42q58 0 90 42t32 118h200zM100 0v1500h1000v-345h-604v-232h564v-345h-564v-233h614v-345h-1010z" />
    <glyph glyph-name="ebreve" unicode="&#x115;" horiz-adv-x="1166" 
d="M1051 105q-187 -125 -406 -125q-169 0 -303.5 70.5t-213 192t-78.5 274.5q0 144 70 257.5t190.5 179.5t272.5 66q159 0 279 -73t187 -203t67 -302v-32h-670q18 -39 50 -70.5t80 -50.5t112 -19q141 0 267 90zM429 560h349q-5 47 -28.5 83t-62 56.5t-85.5 20.5
q-48 0 -84 -22t-58.5 -58t-30.5 -80zM907 1500q0 -98 -40.5 -172.5t-113.5 -116t-169 -41.5t-169 41.5t-114 116t-41 172.5h200q0 -76 33 -118t91 -42q59 0 91 42t32 118h200z" />
    <glyph glyph-name="Edotaccent" unicode="&#x116;" horiz-adv-x="1200" 
d="M100 0v1500h1000v-345h-604v-232h564v-345h-564v-233h614v-345h-1010zM600 1680q-63 0 -101.5 38.5t-38.5 101.5t38.5 101.5t101.5 38.5t101.5 -38.5t38.5 -101.5t-38.5 -101.5t-101.5 -38.5z" />
    <glyph glyph-name="edotaccent" unicode="&#x117;" horiz-adv-x="1166" 
d="M1051 105q-187 -125 -406 -125q-169 0 -303.5 70.5t-213 192t-78.5 274.5q0 144 70 257.5t190.5 179.5t272.5 66q159 0 279 -73t187 -203t67 -302v-32h-670q18 -39 50 -70.5t80 -50.5t112 -19q141 0 267 90zM429 560h349q-5 47 -28.5 83t-62 56.5t-85.5 20.5
q-48 0 -84 -22t-58.5 -58t-30.5 -80zM603 1180q-63 0 -101.5 38.5t-38.5 101.5t38.5 101.5t101.5 38.5t101.5 -38.5t38.5 -101.5t-38.5 -101.5t-101.5 -38.5z" />
    <glyph glyph-name="Eogonek" unicode="&#x118;" horiz-adv-x="1200" 
d="M100 0v1500h1000v-345h-604v-232h564v-345h-564v-233h614v-345h-48q-58 -26 -92.5 -65.5t-34.5 -79.5t32 -66.5t81 -26.5l-28 -178q-117 0 -188.5 50.5t-71.5 133.5q0 70 50.5 132.5t135.5 99.5h-846z" />
    <glyph glyph-name="eogonek" unicode="&#x119;" horiz-adv-x="1166" 
d="M1051 105q-52 -35 -108.5 -58.5t-113.5 -42.5q-64 -22 -100.5 -65t-36.5 -84q0 -40 32.5 -66.5t81.5 -26.5l-29 -178q-117 0 -188.5 50.5t-71.5 133.5q0 62 39 118t107 94h-20q-168 0 -302.5 70.5t-212.5 192t-78 274.5q0 144 70 257.5t190.5 179.5t272.5 66
q159 0 279 -73t187 -203t67 -302v-32h-670q18 -39 50 -70.5t79.5 -50.5t111.5 -19q142 0 268 90zM429 560h349q-5 47 -28.5 83t-61.5 56.5t-84 20.5q-49 0 -85.5 -22t-59 -58t-30.5 -80z" />
    <glyph glyph-name="Ecaron" unicode="&#x11a;" horiz-adv-x="1200" 
d="M771 1660h-292l-225 340h270l101 -191l101 191h270zM100 0v1500h1000v-345h-604v-232h564v-345h-564v-233h614v-345h-1010z" />
    <glyph glyph-name="ecaron" unicode="&#x11b;" horiz-adv-x="1166" 
d="M1051 105q-187 -125 -406 -125q-169 0 -303.5 70.5t-213 192t-78.5 274.5q0 144 70 257.5t190.5 179.5t272.5 66q159 0 279 -73t187 -203t67 -302v-32h-670q18 -39 50 -70.5t80 -50.5t112 -19q141 0 267 90zM429 560h349q-5 47 -28.5 83t-62 56.5t-85.5 20.5
q-48 0 -84 -22t-58.5 -58t-30.5 -80zM729 1160h-292l-225 340h270l101 -191l101 191h270z" />
    <glyph glyph-name="Gcircumflex" unicode="&#x11c;" horiz-adv-x="1632" 
d="M1208 1660h-271l-102 192l-101 -192h-270l225 340h294zM1149 1067q-54 56 -132 87t-168 31q-87 0 -157.5 -29.5t-121 -85.5t-78 -134t-27.5 -176q0 -100 29 -182t83 -140.5t128.5 -90.5t165.5 -32q68 0 124 18t99 53t73 86.5t46 117.5h-359v300h707l11 -151
q0 -171 -51.5 -312.5t-146.5 -243.5t-226.5 -157.5t-292.5 -55.5q-168 0 -312.5 59.5t-253 166t-169 249.5t-60.5 309q0 164 59 305t165 247t247.5 165t306.5 59q155 0 302 -54t264 -154z" />
    <glyph glyph-name="gcircumflex" unicode="&#x11d;" horiz-adv-x="1255" 
d="M1014 1160h-271l-102 192l-101 -192h-270l225 340h294zM499 -20q-130 0 -231.5 67.5t-159.5 185t-58 267.5q0 151 58 268t159.5 184.5t231.5 67.5q99 0 182.5 -40t143.5 -111l17 131h323v-971q0 -164 -77 -288t-215 -192.5t-322 -68.5q-251 0 -467 151l145 303
q130 -124 293 -124q80 0 141.5 30t97 83.5t35.5 121.5v55q-58 -57 -133.5 -88.5t-163.5 -31.5zM613 310q51 0 92.5 21.5t66 60.5t24.5 89v41q0 49 -25 87t-66.5 59.5t-91.5 21.5q-53 0 -95 -24.5t-66 -67.5t-24 -98t24 -98t66 -67.5t95 -24.5z" />
    <glyph glyph-name="Gbreve" unicode="&#x11e;" horiz-adv-x="1632" 
d="M1150 2000q0 -98 -41 -172.5t-114 -116t-169 -41.5t-169 41.5t-114 116t-41 172.5h201q0 -76 33 -118t91 -42q59 0 91 42t32 118h200zM1149 1067q-54 56 -132 87t-168 31q-87 0 -157.5 -29.5t-121 -85.5t-78 -134t-27.5 -176q0 -100 29 -182t83 -140.5t128.5 -90.5
t165.5 -32q68 0 124 18t99 53t73 86.5t46 117.5h-359v300h707l11 -151q0 -171 -51.5 -312.5t-146.5 -243.5t-226.5 -157.5t-292.5 -55.5q-168 0 -312.5 59.5t-253 166t-169 249.5t-60.5 309q0 164 59 305t165 247t247.5 165t306.5 59q155 0 302 -54t264 -154z" />
    <glyph glyph-name="gbreve" unicode="&#x11f;" horiz-adv-x="1255" 
d="M966 1500q0 -98 -41 -172.5t-114 -116t-169 -41.5t-169 41.5t-114 116t-41 172.5h201q0 -76 33 -118t91 -42q59 0 91 42t32 118h200zM499 -20q-130 0 -231.5 67.5t-159.5 185t-58 267.5q0 151 58 268t159.5 184.5t231.5 67.5q99 0 182.5 -40t143.5 -111l17 131h323v-971
q0 -164 -77 -288t-215 -192.5t-322 -68.5q-251 0 -467 151l145 303q130 -124 293 -124q80 0 141.5 30t97 83.5t35.5 121.5v55q-58 -57 -133.5 -88.5t-163.5 -31.5zM613 310q51 0 92.5 21.5t66 60.5t24.5 89v41q0 49 -25 87t-66.5 59.5t-91.5 21.5q-53 0 -95 -24.5t-66 -67.5
t-24 -98t24 -98t66 -67.5t95 -24.5z" />
    <glyph glyph-name="Gdotaccent" unicode="&#x120;" horiz-adv-x="1632" 
d="M1149 1067q-54 56 -132 87t-168 31q-87 0 -157.5 -29.5t-121 -85.5t-78 -134t-27.5 -176q0 -100 29 -182t83 -140.5t128.5 -90.5t165.5 -32q68 0 124 18t99 53t73 86.5t46 117.5h-359v300h707l11 -151q0 -171 -51.5 -312.5t-146.5 -243.5t-226.5 -157.5t-292.5 -55.5
q-168 0 -312.5 59.5t-253 166t-169 249.5t-60.5 309q0 164 59 305t165 247t247.5 165t306.5 59q155 0 302 -54t264 -154zM836 1680q-63 0 -101.5 38.5t-38.5 101.5t38.5 101.5t101.5 38.5t101.5 -38.5t38.5 -101.5t-38.5 -101.5t-101.5 -38.5z" />
    <glyph glyph-name="gdotaccent" unicode="&#x121;" horiz-adv-x="1255" 
d="M499 -20q-130 0 -231.5 67.5t-159.5 185t-58 267.5q0 151 58 268t159.5 184.5t231.5 67.5q99 0 182.5 -40t143.5 -111l17 131h323v-971q0 -164 -77 -288t-215 -192.5t-322 -68.5q-251 0 -467 151l145 303q130 -124 293 -124q80 0 141.5 30t97 83.5t35.5 121.5v55
q-58 -57 -133.5 -88.5t-163.5 -31.5zM613 310q51 0 92.5 21.5t66 60.5t24.5 89v41q0 49 -25 87t-66.5 59.5t-91.5 21.5q-53 0 -95 -24.5t-66 -67.5t-24 -98t24 -98t66 -67.5t95 -24.5zM628 1180q-63 0 -101.5 38.5t-38.5 101.5t38.5 101.5t101.5 38.5t101.5 -38.5
t38.5 -101.5t-38.5 -101.5t-101.5 -38.5z" />
    <glyph glyph-name="uni0122" unicode="&#x122;" horiz-adv-x="1632" 
d="M1149 1067q-54 56 -132 87t-168 31q-87 0 -157.5 -29.5t-121 -85.5t-78 -134t-27.5 -176q0 -100 29 -182t83 -140.5t128.5 -90.5t165.5 -32q68 0 124 18t99 53t73 86.5t46 117.5h-359v300h707l11 -151q0 -171 -51.5 -312.5t-146.5 -243.5t-226.5 -157.5t-292.5 -55.5
q-168 0 -312.5 59.5t-253 166t-169 249.5t-60.5 309q0 164 59 305t165 247t247.5 165t306.5 59q155 0 302 -54t264 -154zM779 -548l-128 111q40 34 60 84.5t20 105.5q0 90 -49 157l272 55q27 -76 27 -155q0 -116 -54.5 -213t-147.5 -145z" />
    <glyph glyph-name="uni0123" unicode="&#x123;" horiz-adv-x="1255" 
d="M716 1170h-249l144 450h206zM499 -20q-130 0 -231.5 67.5t-159.5 185t-58 267.5q0 151 58 268t159.5 184.5t231.5 67.5q99 0 182.5 -40t143.5 -111l17 131h323v-971q0 -164 -77 -288t-215 -192.5t-322 -68.5q-251 0 -467 151l145 303q130 -124 293 -124q80 0 141.5 30
t97 83.5t35.5 121.5v55q-58 -57 -133.5 -88.5t-163.5 -31.5zM613 310q51 0 92.5 21.5t66 60.5t24.5 89v41q0 49 -25 87t-66.5 59.5t-91.5 21.5q-53 0 -95 -24.5t-66 -67.5t-24 -98t24 -98t66 -67.5t95 -24.5z" />
    <glyph glyph-name="Hcircumflex" unicode="&#x124;" horiz-adv-x="1515" 
d="M1130 1660h-270l-102 192l-102 -192h-269l225 340h293zM496 0h-396v1500h396v-590h523v590h396v-1500h-396v565h-523v-565z" />
    <glyph glyph-name="hcircumflex" unicode="&#x125;" 
d="M654 1660h-270l-102 192l-102 -192h-269l225 340h293zM100 0v1500h369v-596q105 116 283 116q182 0 284.5 -115.5t102.5 -321.5v-583h-369v482q0 100 -38.5 154t-109.5 54q-73 0 -113 -54.5t-40 -153.5v-482h-369z" />
    <glyph glyph-name="Hbar" unicode="&#x126;" horiz-adv-x="1570" 
d="M1560 1103h-118v-1103h-396v565h-523v-565h-396v1103h-117v205h117v192h396v-192h523v192h396v-192h118v-205zM523 910h523v193h-523v-193z" />
    <glyph glyph-name="hbar" unicode="&#x127;" horiz-adv-x="1261" 
d="M738 1118h-227v-214q105 116 283 116q182 0 284.5 -115.5t102.5 -321.5v-583h-369v482q0 100 -38.5 154t-109.5 54q-73 0 -113 -54.5t-40 -153.5v-482h-369v1118h-132v205h132v177h369v-177h227v-205z" />
    <glyph glyph-name="Itilde" unicode="&#x128;" horiz-adv-x="596" 
d="M701 1981h-128q-6 -116 -102 -116q-37 0 -66.5 16t-61.5 36q-40 26 -88 49.5t-122 23.5q-237 0 -237 -294h128q6 117 114 117q41 0 71.5 -16.5t61.5 -37.5q37 -25 82.5 -48t115.5 -23q116 0 174 74t58 219zM496 1500h-396v-1500h396v1500z" />
    <glyph glyph-name="itilde" unicode="&#x129;" horiz-adv-x="570" 
d="M688 1481q0 -145 -58 -219t-174 -74q-70 0 -115.5 23t-82.5 48q-31 21 -61.5 37.5t-71.5 16.5q-108 0 -114 -117h-128q0 294 237 294q74 0 122 -23.5t88 -49.5q32 -20 61.5 -36t66.5 -16q96 0 102 116h128zM470 0h-369v1000h369v-1000z" />
    <glyph glyph-name="Imacron" unicode="&#x12a;" horiz-adv-x="598" 
d="M648 1725v205h-698v-205h698zM497 1500h-396v-1500h396v1500z" />
    <glyph glyph-name="imacron" unicode="&#x12b;" horiz-adv-x="570" 
d="M634 1225h-698v205h698v-205zM470 0h-370v1000h370v-1000z" />
    <glyph glyph-name="Iogonek" unicode="&#x12e;" horiz-adv-x="596" 
d="M496 1500h-396v-1500h228q-85 -37 -135.5 -99.5t-50.5 -132.5q0 -83 71.5 -133.5t188.5 -50.5l29 178q-49 0 -81.5 26.5t-32.5 66.5t35 79.5t93 65.5h51v1500z" />
    <glyph glyph-name="iogonek" unicode="&#x12f;" horiz-adv-x="569" 
d="M284 1188q-67 0 -113 47t-46 114t46 114t113 47q68 0 114.5 -47t46.5 -114t-46.5 -114t-114.5 -47zM469 0h-38q-58 -26 -92.5 -65.5t-34.5 -79.5t32.5 -66.5t81.5 -26.5l-29 -178q-117 0 -188.5 50.5t-71.5 133.5q0 70 49.5 132.5t135.5 99.5h-214v1000h369v-1000z" />
    <glyph glyph-name="Idotaccent" unicode="&#x130;" horiz-adv-x="596" 
d="M496 1500h-396v-1500h396v1500zM298 1680q-63 0 -101.5 38.5t-38.5 101.5t38.5 101.5t101.5 38.5t101.5 -38.5t38.5 -101.5t-38.5 -101.5t-101.5 -38.5z" />
    <glyph glyph-name="dotlessi" unicode="&#x131;" horiz-adv-x="569" 
d="M469 0h-369v1000h369v-1000z" />
    <glyph glyph-name="IJ" unicode="&#x132;" horiz-adv-x="1332" 
d="M496 1500h-396v-1500h396v1500zM521 -360q256 0 412.5 66.5t227.5 213t71 386.5v1194h-396v-1194q0 -163 -82 -242t-253 -79z" />
    <glyph glyph-name="ij" unicode="&#x133;" horiz-adv-x="1122" 
d="M284 1188q-67 0 -113 47t-46 114t46 114t113 47q68 0 114.5 -47t46.5 -114t-46.5 -114t-114.5 -47zM469 0h-369v1000h369v-1000zM847 1188q-67 0 -113 47t-46 114t46 114t113 47q68 0 114.5 -47t46.5 -114t-46.5 -114t-114.5 -47zM400 -499v290q16 -3 30.5 -4t25.5 -1
q100 0 153.5 59.5t53.5 169.5v985h369v-1002q0 -259 -110 -388.5t-330 -129.5q-43 0 -91 5.5t-101 15.5z" />
    <glyph glyph-name="Jcircumflex" unicode="&#x134;" horiz-adv-x="581" 
d="M647 1660h-270l-102 192l-102 -192h-269l225 340h293zM-230 -360l-20 345q171 0 253 79t82 242v1194h396v-1194q0 -240 -71 -386.5t-227.5 -213t-412.5 -66.5z" />
    <glyph glyph-name="jcircumflex" unicode="&#x135;" horiz-adv-x="529" 
d="M607 1160h-270l-102 192l-102 -192h-269l225 340h293zM-204 -499v290q16 -3 31 -4t29 -1q96 0 149.5 59.5t53.5 169.5v985h369v-1002q0 -259 -110 -388.5t-330 -129.5q-43 0 -91 5.5t-101 15.5z" />
    <glyph glyph-name="uni0136" unicode="&#x136;" horiz-adv-x="1553" 
d="M496 0h-396v1500h396v-627q53 78 101 144t81 107l299 376h466l-553 -695l653 -805h-511l-395 487l-141 -178v-309zM685 -548l-128 111q40 34 60 84.5t20 105.5q0 90 -49 157l272 55q27 -76 27 -155q0 -116 -54.5 -213t-147.5 -145z" />
    <glyph glyph-name="uni0137" unicode="&#x137;" horiz-adv-x="1282" 
d="M469 0h-369v1500h369v-833l111 134l190 199h462l-433 -453l473 -547h-476l-251 328l-76 -51v-277zM548 -548l-128 111q40 34 60 84.5t20 105.5q0 90 -49 157l272 55q27 -76 27 -155q0 -116 -54.5 -213t-147.5 -145z" />
    <glyph glyph-name="kgreenlandic" unicode="&#x138;" horiz-adv-x="1282" 
d="M469 0h-369v1000h369v-333l111 134l190 199h462l-433 -453l473 -547h-475l-251 328l-77 -51v-277z" />
    <glyph glyph-name="Lacute" unicode="&#x139;" horiz-adv-x="1140" 
d="M432 1660h-261l132 340h329zM1120 0h-1020v1500h396v-1155h624v-345z" />
    <glyph glyph-name="lacute" unicode="&#x13a;" horiz-adv-x="596" 
d="M429 1660h-261l132 340h329zM496 0h-396v1540h396v-1540z" />
    <glyph glyph-name="uni013B" unicode="&#x13b;" horiz-adv-x="1140" 
d="M1120 0h-1020v1500h396v-1155h624v-345zM573 -548l-128 111q40 34 60 84.5t20 105.5q0 90 -49 157l272 55q27 -76 27 -155q0 -116 -54.5 -213t-147.5 -145z" />
    <glyph glyph-name="uni013C" unicode="&#x13c;" horiz-adv-x="596" 
d="M496 0h-396v1540h396v-1540zM258 -548l-128 111q40 34 60 84.5t20 105.5q0 90 -49 157l272 55q27 -76 27 -155q0 -116 -54.5 -213t-147.5 -145z" />
    <glyph glyph-name="Lcaron" unicode="&#x13d;" horiz-adv-x="1140" 
d="M909 1050h-207l101 450h250zM1120 0h-1020v1500h396v-1155h624v-345z" />
    <glyph glyph-name="lcaron" unicode="&#x13e;" horiz-adv-x="991" 
d="M496 0h-396v1540h396v-1540zM836 1050h-206l101 450h250z" />
    <glyph glyph-name="Ldot" unicode="&#x13f;" horiz-adv-x="1140" 
d="M1120 0h-1020v1500h396v-1155h624v-345zM810 610q-63 0 -101.5 38.5t-38.5 101.5t38.5 101.5t101.5 38.5t101.5 -38.5t38.5 -101.5t-38.5 -101.5t-101.5 -38.5z" />
    <glyph glyph-name="ldot" unicode="&#x140;" horiz-adv-x="947" 
d="M496 0h-396v1540h396v-1540zM797 630q-63 0 -101.5 38.5t-38.5 101.5t38.5 101.5t101.5 38.5t101.5 -38.5t38.5 -101.5t-38.5 -101.5t-101.5 -38.5z" />
    <glyph glyph-name="Lslash" unicode="&#x141;" horiz-adv-x="1140" 
d="M-28 432l-101 178l229 132v758h396v-530l169 98l101 -177l-270 -156v-390h624v-345h-1020v506z" />
    <glyph glyph-name="lslash" unicode="&#x142;" horiz-adv-x="497" 
d="M-98 452l-101 178l253 146v764h396v-536l145 84l101 -177l-246 -143v-768h-396v540z" />
    <glyph glyph-name="Nacute" unicode="&#x143;" horiz-adv-x="1602" 
d="M932 1660h-260l131 340h330zM1502 0h-466l-540 890v-890h-396v1500h466l540 -893v893h396v-1500z" />
    <glyph glyph-name="nacute" unicode="&#x144;" 
d="M719 1160h-260l131 340h330zM1139 0h-369v482q0 100 -38.5 154t-109.5 54q-73 0 -113 -54.5t-40 -153.5v-482h-369v1000h292l12 -159q53 88 138.5 133.5t200.5 45.5q186 0 291 -115.5t105 -321.5v-583z" />
    <glyph glyph-name="uni0145" unicode="&#x145;" horiz-adv-x="1602" 
d="M1502 0h-466l-540 890v-890h-396v1500h466l540 -893v893h396v-1500zM764 -548l-128 111q40 34 60 84.5t20 105.5q0 90 -49 157l272 55q27 -76 27 -155q0 -116 -54.5 -213t-147.5 -145z" />
    <glyph glyph-name="uni0146" unicode="&#x146;" 
d="M1139 0h-369v482q0 100 -38.5 154t-109.5 54q-73 0 -113 -54.5t-40 -153.5v-482h-369v1000h292l12 -159q53 88 138.5 133.5t200.5 45.5q186 0 291 -115.5t105 -321.5v-583zM572 -548l-128 111q40 34 60 84.5t20 105.5q0 90 -49 157l272 55q27 -76 27 -155
q0 -116 -54.5 -213t-147.5 -145z" />
    <glyph glyph-name="Ncaron" unicode="&#x147;" horiz-adv-x="1602" 
d="M950 1660h-293l-225 340h271l101 -191l101 191h270zM1502 0h-466l-540 890v-890h-396v1500h466l540 -893v893h396v-1500z" />
    <glyph glyph-name="ncaron" unicode="&#x148;" 
d="M775 1160h-292l-225 340h270l101 -191l102 191h269zM1139 0h-369v482q0 100 -38.5 154t-109.5 54q-73 0 -113 -54.5t-40 -153.5v-482h-369v1000h292l12 -159q53 88 138.5 133.5t200.5 45.5q186 0 291 -115.5t105 -321.5v-583z" />
    <glyph glyph-name="napostrophe" unicode="&#x149;" horiz-adv-x="1220" 
d="M228 1028l-128 111q40 34 60 84.5t20 105.5q0 90 -49 157l272 55q27 -76 27 -155q0 -116 -54.5 -213t-147.5 -145zM1140 0h-369v482q0 100 -38.5 154t-109.5 54q-73 0 -113 -54.5t-40 -153.5v-482h-369v1000h292l12 -159q53 88 138.5 133.5t200.5 45.5q186 0 291 -115.5
t105 -321.5v-583z" />
    <glyph glyph-name="Eng" unicode="&#x14a;" horiz-adv-x="1602" 
d="M791 -360l-20 345q94 -8 178.5 28t126.5 103q-38 36 -79 80t-80.5 89.5t-73 88t-57.5 77.5l-228 336l-58 114l-9 -4l5 -111v-786h-396v1500h398l407 -586q20 -28 47.5 -72t57 -93t54.5 -92.5t39 -70.5l9 2l-6 183v729h396v-1194q0 -240 -71 -386.5t-227.5 -213
t-412.5 -66.5z" />
    <glyph glyph-name="eng" unicode="&#x14b;" 
d="M507 -499v290q16 -3 31 -4t29 -1q97 0 150 59.5t53 169.5v467q0 100 -38.5 154t-109.5 54q-48 0 -82.5 -24.5t-52.5 -71t-18 -112.5v-482h-369v1000h292l12 -159q53 88 138.5 133.5t200.5 45.5q186 0 291 -115.5t105 -321.5v-585q0 -259 -110 -388.5t-330 -129.5
q-43 0 -91 5.5t-101 15.5z" />
    <glyph glyph-name="Omacron" unicode="&#x14c;" horiz-adv-x="1710" 
d="M1204 1725h-698v205h698v-205zM856 -30q-172 0 -317.5 58.5t-253 164t-166.5 247.5t-59 310t59 310t166.5 247.5t253 164t317.5 58.5q173 0 318 -58.5t251.5 -164t165.5 -247.5t59 -310t-59 -310t-165.5 -247.5t-251.5 -164t-318 -58.5zM856 315q83 0 154 33t123.5 92.5
t82 138.5t29.5 171t-29.5 171t-82 138.5t-123.5 92.5t-154 33t-154.5 -33t-124.5 -92.5t-82.5 -138.5t-29.5 -171t29.5 -171t82.5 -138.5t124.5 -92.5t154.5 -33z" />
    <glyph glyph-name="omacron" unicode="&#x14d;" horiz-adv-x="1188" 
d="M943 1225h-698v205h698v-205zM595 -20q-157 0 -280.5 67.5t-194 185t-70.5 267.5t70.5 267.5t194 185t280.5 67.5q158 0 280.5 -67.5t192.5 -185t70 -267.5t-70 -267.5t-192.5 -185t-280.5 -67.5zM594 310q48 0 85.5 24.5t59 68t21.5 99.5q0 54 -21.5 96.5t-59 67
t-85.5 24.5t-85.5 -24.5t-59 -67t-21.5 -96.5q0 -56 21.5 -99.5t59 -68t85.5 -24.5z" />
    <glyph glyph-name="Obreve" unicode="&#x14e;" horiz-adv-x="1710" 
d="M1179 2000q0 -98 -41 -172.5t-114 -116t-169 -41.5t-169 41.5t-114 116t-41 172.5h201q0 -76 33 -118t92 -42q58 0 90 42t32 118h200zM856 -30q-172 0 -317.5 58.5t-253 164t-166.5 247.5t-59 310t59 310t166.5 247.5t253 164t318.5 58.5q172 0 317 -58.5t251.5 -164
t165.5 -247.5t59 -310t-59 -310t-165.5 -247.5t-251.5 -164t-318 -58.5zM856 315q83 0 154 33t123.5 92.5t82 138.5t29.5 171t-29.5 171t-82 138.5t-123.5 92.5t-154 33t-154.5 -33t-124.5 -92.5t-82.5 -138.5t-29.5 -171t29.5 -171t82.5 -138.5t124.5 -92.5t154.5 -33z" />
    <glyph glyph-name="obreve" unicode="&#x14f;" horiz-adv-x="1188" 
d="M918 1500q0 -98 -41 -172.5t-114 -116t-169 -41.5t-169 41.5t-114 116t-41 172.5h201q0 -76 33 -118t91 -42q59 0 91 42t32 118h200zM595 -20q-157 0 -280.5 67.5t-194 185t-70.5 267.5t70.5 267.5t194 185t280.5 67.5q158 0 280.5 -67.5t192.5 -185t70 -267.5
t-70 -267.5t-192.5 -185t-280.5 -67.5zM594 310q48 0 85.5 24.5t59 68t21.5 99.5q0 54 -21.5 96.5t-59 67t-85.5 24.5t-85.5 -24.5t-59 -67t-21.5 -96.5q0 -56 21.5 -99.5t59 -68t85.5 -24.5z" />
    <glyph glyph-name="Ohungarumlaut" unicode="&#x150;" horiz-adv-x="1710" 
d="M781 1660h-261l132 340h329zM1201 1660h-260l131 340h330zM856 -30q-172 0 -317.5 58.5t-253 164t-166.5 247.5t-59 310t59 310t166.5 247.5t253 164t318.5 58.5q172 0 317 -58.5t251.5 -164t165.5 -247.5t59 -310t-59 -310t-165.5 -247.5t-251.5 -164t-318 -58.5z
M856 315q83 0 154 33t123.5 92.5t82 138.5t29.5 171t-29.5 171t-82 138.5t-123.5 92.5t-154 33t-154.5 -33t-124.5 -92.5t-82.5 -138.5t-29.5 -171t29.5 -171t82.5 -138.5t124.5 -92.5t154.5 -33z" />
    <glyph glyph-name="ohungarumlaut" unicode="&#x151;" horiz-adv-x="1188" 
d="M493 1160h-261l132 340h329zM913 1160h-260l131 340h330zM595 -20q-157 0 -280.5 67.5t-194 185t-70.5 267.5t70.5 267.5t194 185t280.5 67.5q158 0 280.5 -67.5t192.5 -185t70 -267.5t-70 -267.5t-192.5 -185t-280.5 -67.5zM594 310q48 0 85.5 24.5t59 68t21.5 99.5
q0 54 -21.5 96.5t-59 67t-85.5 24.5t-85.5 -24.5t-59 -67t-21.5 -96.5q0 -56 21.5 -99.5t59 -68t85.5 -24.5z" />
    <glyph glyph-name="OE" unicode="&#x152;" horiz-adv-x="2405" 
d="M791 -30q-158 0 -291.5 58.5t-232 164t-153 247.5t-54.5 310t54.5 310t153 247.5t232 164t291.5 58.5q103 0 196 -25.5t173.5 -73t144.5 -114.5v183h1000v-345h-604v-232h564v-345h-564v-233h614v-345h-1010v183q-64 -67 -144.5 -114.5t-173.5 -73t-196 -25.5zM886 315
q90 0 166 33t133 92.5t88.5 138.5t31.5 171t-31.5 171t-88.5 138.5t-133 92.5t-166 33t-166.5 -33t-133.5 -92.5t-89 -138.5t-32 -171t32 -171t89 -138.5t133.5 -92.5t166.5 -33z" />
    <glyph glyph-name="oe" unicode="&#x153;" horiz-adv-x="1964" 
d="M1849 105q-187 -125 -406 -125q-154 0 -280.5 59.5t-206.5 161.5q-43 -68 -105 -117.5t-139.5 -76.5t-166.5 -27q-143 0 -255 67.5t-176 185t-64 267.5t64 267.5t176 185t255 67.5q86 0 160.5 -25t135.5 -70.5t104 -109.5q71 95 184 150t252 55q159 0 279 -73t187 -203
t67 -302v-32h-667q19 -40 54 -70t82.5 -46t104.5 -16q140 0 265 91zM609 310q53 0 93.5 24.5t64 68t23.5 99.5q0 54 -23.5 96.5t-64 67t-93.5 24.5q-52 0 -93 -24.5t-64.5 -67t-23.5 -96.5q0 -56 23.5 -99.5t64.5 -68t93 -24.5zM1228 530h348q-5 47 -29 82.5t-62 56
t-86 20.5q-47 0 -83.5 -20t-59 -55.5t-28.5 -83.5z" />
    <glyph glyph-name="Racute" unicode="&#x154;" horiz-adv-x="1418" 
d="M739 1660h-260l131 340h330zM1398 0h-438l-286 496h-178v-496h-396v1500h604q195 0 332 -59t209.5 -171.5t72.5 -271.5q0 -149 -64 -257t-185 -170zM496 801h177q119 0 179.5 44.5t60.5 132.5t-60.5 132.5t-179.5 44.5h-177v-354z" />
    <glyph glyph-name="racute" unicode="&#x155;" horiz-adv-x="899" 
d="M579 1160h-260l131 340h330zM469 0h-369v1000h320l12 -157q50 84 130 130.5t183 46.5q35 0 71 -5.5t73 -16.5l-46 -332q-73 24 -136 24q-73 0 -126.5 -30.5t-82.5 -85.5t-29 -131v-443z" />
    <glyph glyph-name="uni0156" unicode="&#x156;" horiz-adv-x="1418" 
d="M1398 0h-438l-286 496h-178v-496h-396v1500h604q195 0 332 -59t209.5 -171.5t72.5 -271.5q0 -149 -64 -257t-185 -170zM496 801h177q119 0 179.5 44.5t60.5 132.5t-60.5 132.5t-179.5 44.5h-177v-354zM672 -548l-128 111q40 34 60 84.5t20 105.5q0 90 -49 157l272 55
q27 -76 27 -155q0 -116 -54.5 -213t-147.5 -145z" />
    <glyph glyph-name="uni0157" unicode="&#x157;" horiz-adv-x="899" 
d="M469 0h-369v1000h320l12 -157q50 84 130 130.5t183 46.5q35 0 71 -5.5t73 -16.5l-46 -332q-73 24 -136 24q-73 0 -126.5 -30.5t-82.5 -85.5t-29 -131v-443zM252 -548l-128 111q40 34 60 84.5t20 105.5q0 90 -49 157l272 55q27 -76 27 -155q0 -116 -54.5 -213t-147.5 -145
z" />
    <glyph glyph-name="Rcaron" unicode="&#x158;" horiz-adv-x="1418" 
d="M815 1660h-292l-225 340h270l101 -191l102 191h269zM1398 0h-438l-286 496h-178v-496h-396v1500h604q195 0 332 -59t209.5 -171.5t72.5 -271.5q0 -149 -64 -257t-185 -170zM496 801h177q119 0 179.5 44.5t60.5 132.5t-60.5 132.5t-179.5 44.5h-177v-354z" />
    <glyph glyph-name="rcaron" unicode="&#x159;" horiz-adv-x="900" 
d="M596 1160h-292l-225 340h270l101 -191l102 191h269zM470 0h-369v1000h320l12 -157q50 84 130 130.5t183 46.5q35 0 71 -5.5t73 -16.5l-46 -332q-73 24 -136 24q-73 0 -126.5 -30.5t-82.5 -85.5t-29 -131v-443z" />
    <glyph glyph-name="Sacute" unicode="&#x15a;" horiz-adv-x="1252" 
d="M751 1660h-260l131 340h330zM30 172l186 302q73 -57 136.5 -93t124 -52.5t123.5 -16.5q62 0 106 14.5t67.5 42t23.5 65.5q0 48 -34 82t-90.5 61t-123.5 54q-72 29 -147 64.5t-138 86.5t-102 124.5t-39 179.5q0 140 70.5 239.5t193 152t277.5 52.5q113 0 239 -30t255 -94
l-154 -318q-72 44 -157.5 70.5t-156.5 26.5q-49 0 -85.5 -13t-56.5 -37.5t-20 -57.5q0 -44 34 -77.5t90 -61.5t122 -57q72 -31 147.5 -69t139 -90t102.5 -124.5t39 -173.5q0 -135 -73.5 -237.5t-205 -159.5t-305.5 -57q-162 0 -312 52t-276 150z" />
    <glyph glyph-name="sacute" unicode="&#x15b;" horiz-adv-x="930" 
d="M595 1160h-260l131 340h330zM50 85l76 304q27 -32 80.5 -62t116.5 -48.5t116 -18.5q40 0 61 12t21 34q0 23 -19.5 39.5t-52.5 30.5t-74 28q-66 24 -137 57.5t-120.5 92t-49.5 156.5q0 95 50.5 164.5t143 107.5t217.5 38q209 0 421 -105l-103 -281q-32 28 -84 53
t-106.5 41t-94.5 16q-33 0 -49.5 -11.5t-16.5 -31.5q0 -22 19.5 -38.5t53 -30t73.5 -28.5q67 -23 138 -56.5t120.5 -92t49.5 -157.5q0 -97 -53.5 -168.5t-151 -110.5t-230.5 -39q-222 0 -415 105z" />
    <glyph glyph-name="Scircumflex" unicode="&#x15c;" horiz-adv-x="1252" 
d="M1033 1660h-271l-101 192l-102 -192h-270l225 340h294zM30 172l186 302q73 -57 136.5 -93t124 -52.5t123.5 -16.5q62 0 106 14.5t67.5 42t23.5 65.5q0 48 -34 82t-90.5 61t-123.5 54q-72 29 -147 64.5t-138 86.5t-102 124.5t-39 179.5q0 140 70.5 239.5t193 152
t277.5 52.5q113 0 239 -30t255 -94l-154 -318q-72 44 -157.5 70.5t-156.5 26.5q-49 0 -85.5 -13t-56.5 -37.5t-20 -57.5q0 -44 34 -77.5t90 -61.5t122 -57q72 -31 147.5 -69t139 -90t102.5 -124.5t39 -173.5q0 -135 -73.5 -237.5t-205 -159.5t-305.5 -57q-162 0 -312 52
t-276 150z" />
    <glyph glyph-name="scircumflex" unicode="&#x15d;" horiz-adv-x="930" 
d="M867 1160h-271l-102 192l-101 -192h-270l225 340h294zM50 85l76 304q27 -32 80.5 -62t116.5 -48.5t116 -18.5q40 0 61 12t21 34q0 23 -19.5 39.5t-52.5 30.5t-74 28q-66 24 -137 57.5t-120.5 92t-49.5 156.5q0 95 50.5 164.5t143 107.5t217.5 38q209 0 421 -105
l-103 -281q-32 28 -84 53t-106.5 41t-94.5 16q-33 0 -49.5 -11.5t-16.5 -31.5q0 -22 19.5 -38.5t53 -30t73.5 -28.5q67 -23 138 -56.5t120.5 -92t49.5 -157.5q0 -97 -53.5 -168.5t-151 -110.5t-230.5 -39q-222 0 -415 105z" />
    <glyph glyph-name="Scedilla" unicode="&#x15e;" horiz-adv-x="1252" 
d="M30 172l186 302q73 -57 136.5 -93t124 -52.5t123.5 -16.5q62 0 106 14.5t67.5 42t23.5 65.5q0 48 -34 82t-90.5 61t-123.5 54q-72 29 -147 64.5t-138 86.5t-102 124.5t-39 179.5q0 140 70.5 239.5t193 152t277.5 52.5q113 0 239 -30t255 -94l-154 -318
q-72 44 -157.5 70.5t-156.5 26.5q-49 0 -85.5 -13t-56.5 -37.5t-20 -57.5q0 -44 34 -77.5t90 -61.5t122 -57q72 -31 147.5 -69t139 -90t102.5 -124.5t39 -173.5q0 -127 -65.5 -225t-183 -157.5t-274.5 -69.5l-35 -74q75 -8 119 -48.5t44 -104.5q0 -76 -61 -126.5t-155 -50.5
q-77 0 -156 37l47 132q35 -19 74 -19q38 0 61 21t23 55q0 32 -23 52t-75 20h-11.5t-12.5 -1l42 107q-145 9 -280 60t-250 140z" />
    <glyph glyph-name="scedilla" unicode="&#x15f;" horiz-adv-x="930" 
d="M50 85l76 304q27 -32 80.5 -62t116.5 -48.5t116 -18.5q40 0 61 12t21 34q0 23 -19.5 39.5t-52.5 30.5t-74 28q-66 24 -137 57.5t-120.5 92t-49.5 156.5q0 95 50.5 164.5t143 107.5t217.5 38q209 0 421 -105l-103 -281q-32 28 -84 53t-106.5 41t-94.5 16
q-33 0 -49.5 -11.5t-16.5 -31.5q0 -22 19.5 -38.5t53 -30t73.5 -28.5q67 -23 138 -56.5t120.5 -92t49.5 -157.5q0 -89 -45.5 -157t-128.5 -108.5t-198 -49.5l-40 -85q75 -8 119 -48.5t44 -104.5q0 -76 -61.5 -126.5t-155.5 -50.5q-77 0 -156 37l48 132q35 -19 73 -19
t61.5 21t23.5 55q0 32 -23 52t-75 20h-11.5t-12.5 -1l45 117q-94 6 -185 32.5t-172 70.5z" />
    <glyph glyph-name="Scaron" unicode="&#x160;" horiz-adv-x="1252" 
d="M817 1660h-292l-225 340h270l101 -191l102 191h269zM30 172l186 302q73 -57 136.5 -93t124 -52.5t123.5 -16.5q62 0 106 14.5t67.5 42t23.5 65.5q0 48 -34 82t-90.5 61t-123.5 54q-72 29 -147 64.5t-138 86.5t-102 124.5t-39 179.5q0 140 70.5 239.5t193 152t277.5 52.5
q113 0 239 -30t255 -94l-154 -318q-72 44 -157.5 70.5t-156.5 26.5q-49 0 -85.5 -13t-56.5 -37.5t-20 -57.5q0 -44 34 -77.5t90 -61.5t122 -57q72 -31 147.5 -69t139 -90t102.5 -124.5t39 -173.5q0 -135 -73.5 -237.5t-205 -159.5t-305.5 -57q-162 0 -312 52t-276 150z" />
    <glyph glyph-name="scaron" unicode="&#x161;" horiz-adv-x="930" 
d="M641 1160h-292l-225 340h270l101 -191l102 191h269zM50 85l76 304q27 -32 80.5 -62t116.5 -48.5t116 -18.5q40 0 61 12t21 34q0 23 -19.5 39.5t-52.5 30.5t-74 28q-66 24 -137 57.5t-120.5 92t-49.5 156.5q0 95 50.5 164.5t143 107.5t217.5 38q209 0 421 -105l-103 -281
q-32 28 -84 53t-106.5 41t-94.5 16q-33 0 -49.5 -11t-16.5 -31q0 -23 21.5 -40.5t57 -32t78.5 -30.5q73 -27 141 -62t112 -91.5t44 -148.5q0 -97 -53.5 -168t-151 -110t-230.5 -39q-222 0 -415 105z" />
    <glyph glyph-name="uni0162" unicode="&#x162;" horiz-adv-x="1248" 
d="M822 0h-127l-48 -102q75 -8 119 -48.5t44 -104.5q0 -76 -61 -126.5t-155 -50.5q-77 0 -156 37l47 132q35 -19 74 -19q38 0 61 21t23 55q0 32 -23 52t-75 20h-11.5t-12.5 -1l53 135h-148v1155h-416v345h1228v-345h-416v-1155z" />
    <glyph glyph-name="uni0163" unicode="&#x163;" horiz-adv-x="908" 
d="M878 28q-126 -48 -241 -48q-13 0 -25.5 0.5t-24.5 1.5l-40 -84q75 -8 119.5 -48.5t44.5 -104.5q0 -76 -61.5 -126.5t-155.5 -50.5q-77 0 -156 37l48 132q35 -19 73 -19t61.5 21t23.5 55q0 32 -23 52t-75 20h-11.5t-12.5 -1l54 140q-124 42 -197.5 146t-73.5 248v272h-175
v329h195v250h349v-250h263v-329h-263v-205q0 -77 43 -116.5t101 -39.5q59 0 114 38z" />
    <glyph glyph-name="Tcaron" unicode="&#x164;" horiz-adv-x="1248" 
d="M773 1660h-293l-225 340h271l101 -191l101 191h270zM822 0h-396v1155h-416v345h1228v-345h-416v-1155z" />
    <glyph glyph-name="tcaron" unicode="&#x165;" horiz-adv-x="1215" 
d="M1060 1070h-206l101 450h250zM878 28q-126 -48 -241 -48q-128 0 -225.5 53t-152 147.5t-54.5 218.5v272h-175v329h195v250h349v-250h263v-329h-263v-205q0 -77 43 -116.5t101 -39.5q59 0 114 38z" />
    <glyph glyph-name="Tbar" unicode="&#x166;" horiz-adv-x="1248" 
d="M984 545h-162v-545h-396v545h-162v205h162v405h-416v345h1228v-345h-416v-405h162v-205z" />
    <glyph glyph-name="tbar" unicode="&#x167;" horiz-adv-x="908" 
d="M832 443h-257v-28q-1 -48 39.5 -81.5t100.5 -33.5q62 0 117 38l46 -310q-126 -48 -241 -48q-128 0 -225.5 53t-152 147.5t-54.5 218.5v44h-175v120h175v108h-175v329h195v250h349v-250h263v-330h-263v-108h258v-119z" />
    <glyph glyph-name="Utilde" unicode="&#x168;" horiz-adv-x="1544" 
d="M1175 1981q0 -145 -58 -219t-174 -74q-70 0 -115.5 22.5t-80.5 47.5q-31 23 -62.5 39t-72.5 16q-108 0 -114 -117h-128q0 294 237 294q74 0 122 -23t86 -49q32 -22 62.5 -37.5t67.5 -15.5q96 0 102 116h128zM1444 1500v-823q0 -220 -80.5 -378.5t-231 -243.5t-360.5 -85
q-209 0 -360 85t-231.5 243.5t-80.5 378.5v823h396v-769q0 -143 29.5 -235t90.5 -136.5t156 -44.5t156 44.5t90.5 136.5t29.5 235v769h396z" />
    <glyph glyph-name="utilde" unicode="&#x169;" 
d="M1012 1481q0 -145 -58 -219t-174 -74q-70 0 -115 23t-82 48q-31 21 -61.5 37.5t-71.5 16.5q-109 0 -115 -117h-128q0 294 238 294q74 0 121.5 -23.5t87.5 -49.5q32 -20 61.5 -36t66.5 -16q96 0 102 116h128zM1119 0h-292l-12 159q-52 -88 -138 -133.5t-201 -45.5
q-186 0 -291 116t-105 321v583h369v-482q0 -100 38.5 -154t109.5 -54q73 0 113 54.5t40 153.5v482h369v-1000z" />
    <glyph glyph-name="Umacron" unicode="&#x16a;" horiz-adv-x="1544" 
d="M1121 1725h-698v205h698v-205zM1444 1500v-823q0 -220 -80.5 -378.5t-231 -243.5t-360.5 -85q-209 0 -360 85t-231.5 243.5t-80.5 378.5v823h396v-769q0 -143 29.5 -235t90.5 -136.5t156 -44.5t156 44.5t90.5 136.5t29.5 235v769h396z" />
    <glyph glyph-name="umacron" unicode="&#x16b;" 
d="M959 1225h-698v205h698v-205zM1119 0h-292l-12 159q-52 -88 -138 -133.5t-201 -45.5q-186 0 -291 116t-105 321v583h369v-482q0 -100 38.5 -154t109.5 -54q73 0 113 54.5t40 153.5v482h369v-1000z" />
    <glyph glyph-name="Ubreve" unicode="&#x16c;" horiz-adv-x="1544" 
d="M1096 2000q0 -98 -41 -172.5t-114 -116t-169 -41.5t-169 41.5t-114 116t-41 172.5h201q0 -76 33 -118t91 -42q59 0 91 42t32 118h200zM1444 1500v-823q0 -220 -80.5 -378.5t-231 -243.5t-360.5 -85q-209 0 -360 85t-231.5 243.5t-80.5 378.5v823h396v-769
q0 -143 29.5 -235t90.5 -136.5t156 -44.5t156 44.5t90.5 136.5t29.5 235v769h396z" />
    <glyph glyph-name="ubreve" unicode="&#x16d;" 
d="M933 1500q0 -98 -40.5 -172.5t-113.5 -116t-169 -41.5t-169 41.5t-114 116t-41 172.5h200q0 -76 33 -118t91 -42q59 0 91 42t32 118h200zM1119 0h-292l-12 159q-52 -88 -138 -133.5t-201 -45.5q-186 0 -291 116t-105 321v583h369v-482q0 -100 38.5 -154t109.5 -54
q73 0 113 54.5t40 153.5v482h369v-1000z" />
    <glyph glyph-name="Uring" unicode="&#x16e;" horiz-adv-x="1544" 
d="M772 1580q-103 0 -166.5 60.5t-63.5 159.5t63.5 159.5t166.5 60.5q104 0 167 -60.5t63 -159.5t-63 -159.5t-167 -60.5zM772 1720q36 0 58 22t22 58t-22 58t-58 22t-58 -22t-22 -58t22 -58t58 -22zM1444 1500v-823q0 -220 -80.5 -378.5t-231 -243.5t-360.5 -85
q-209 0 -360 85t-231.5 243.5t-80.5 378.5v823h396v-769q0 -143 29.5 -235t90.5 -136.5t156 -44.5t156 44.5t90.5 136.5t29.5 235v769h396z" />
    <glyph glyph-name="uring" unicode="&#x16f;" 
d="M610 1080q-103 0 -166.5 60.5t-63.5 159.5t63.5 159.5t166.5 60.5q104 0 167 -60.5t63 -159.5t-63 -159.5t-167 -60.5zM610 1220q36 0 57.5 22t21.5 58t-21.5 58t-57.5 22t-58 -22t-22 -58t22 -58t58 -22zM1119 0h-292l-12 159q-52 -88 -138 -133.5t-201 -45.5
q-186 0 -291 116t-105 321v583h369v-482q0 -100 38.5 -154t109.5 -54q73 0 113 54.5t40 153.5v482h369v-1000z" />
    <glyph glyph-name="Uhungarumlaut" unicode="&#x170;" horiz-adv-x="1544" 
d="M662 1660h-261l132 340h329zM1082 1660h-260l131 340h330zM1444 1500v-823q0 -220 -80.5 -378.5t-231 -243.5t-360.5 -85q-209 0 -360 85t-231.5 243.5t-80.5 378.5v823h396v-769q0 -143 29.5 -235t90.5 -136.5t156 -44.5t156 44.5t90.5 136.5t29.5 235v769h396z" />
    <glyph glyph-name="uhungarumlaut" unicode="&#x171;" horiz-adv-x="1220" 
d="M499 1160h-260l131 340h330zM920 1160h-261l132 340h329zM1119 0h-292l-12 159q-52 -88 -138 -133.5t-201 -45.5q-186 0 -291 116t-105 321v583h369v-482q0 -100 38.5 -154t109.5 -54q73 0 113 54.5t40 153.5v482h369v-1000z" />
    <glyph glyph-name="Uogonek" unicode="&#x172;" horiz-adv-x="1544" 
d="M1444 1500v-823q0 -262 -113.5 -435.5t-319.5 -237.5q-61 -25 -98.5 -66.5t-37.5 -82.5q0 -40 32.5 -66.5t81.5 -26.5l-29 -178q-117 0 -188.5 50.5t-71.5 133.5q0 59 35 112.5t97 91.5q-15 -1 -30 -1.5t-30 -0.5q-209 0 -360 85t-231.5 243.5t-80.5 378.5v823h396v-769
q0 -143 29.5 -235t90.5 -136.5t156 -44.5t156 44.5t90.5 136.5t29.5 235v769h396z" />
    <glyph glyph-name="uogonek" unicode="&#x173;" 
d="M1119 0h-28q-58 -26 -93 -65.5t-35 -79.5t32.5 -66.5t81.5 -26.5l-29 -178q-117 0 -188.5 50.5t-71.5 133.5q0 70 50.5 132.5t135.5 99.5h-147l-12 159q-52 -88 -138 -133.5t-201 -45.5q-186 0 -291 116t-105 321v583h369v-482q0 -100 38.5 -154t109.5 -54q73 0 113 54.5
t40 153.5v482h369v-1000z" />
    <glyph glyph-name="Wcircumflex" unicode="&#x174;" horiz-adv-x="2249" 
d="M1496 1660h-270l-102 192l-102 -192h-269l225 340h293zM1753 0h-371l-256 855l-257 -855h-371l-488 1500h416l257 -862l257 862h371l256 -860l256 860h416z" />
    <glyph glyph-name="wcircumflex" unicode="&#x175;" horiz-adv-x="1742" 
d="M1243 1160h-271l-101 192l-102 -192h-270l225 340h294zM1407 0h-420l-116 519l-116 -519h-420l-325 1000h390l139 -629l174 629h316l174 -633l139 633h390z" />
    <glyph glyph-name="Ycircumflex" unicode="&#x176;" horiz-adv-x="1532" 
d="M1138 1660h-271l-101 192l-102 -192h-270l225 340h294zM964 0h-396v641l-558 859h481l273 -506l277 506h481l-558 -860v-640z" />
    <glyph glyph-name="ycircumflex" unicode="&#x177;" horiz-adv-x="1367" 
d="M1087 1160h-271l-101 192l-102 -192h-269l225 340h293zM735 -500h-389l206 497l-542 1003h439l277 -584l242 584h389z" />
    <glyph glyph-name="Ydieresis" unicode="&#x178;" horiz-adv-x="1532" 
d="M964 0h-396v641l-558 859h481l273 -506l277 506h481l-558 -860v-640zM1001 1689q-63 0 -101.5 38.5t-38.5 101.5t38.5 101.5t101.5 38.5t101.5 -38.5t38.5 -101.5t-38.5 -101.5t-101.5 -38.5zM532 1689q-63 0 -101.5 38.5t-38.5 101.5t38.5 101.5t101.5 38.5t101.5 -38.5
t38.5 -101.5t-38.5 -101.5t-101.5 -38.5z" />
    <glyph glyph-name="Zacute" unicode="&#x179;" horiz-adv-x="1282" 
d="M772 1660h-260l131 340h330zM1222 0h-1162v290l629 865h-589v345h1112v-300l-622 -855h632v-345z" />
    <glyph glyph-name="zacute" unicode="&#x17a;" horiz-adv-x="1147" 
d="M703 1160h-260l131 340h330zM1097 0h-1047v180l418 490h-393v330h980v-150l-444 -520h486v-330z" />
    <glyph glyph-name="Zdotaccent" unicode="&#x17b;" horiz-adv-x="1282" 
d="M1222 0h-1162v290l629 865h-589v345h1112v-300l-622 -855h632v-345zM671 1680q-63 0 -101.5 38.5t-38.5 101.5t38.5 101.5t101.5 38.5t101.5 -38.5t38.5 -101.5t-38.5 -101.5t-101.5 -38.5z" />
    <glyph glyph-name="zdotaccent" unicode="&#x17c;" horiz-adv-x="1147" 
d="M572 1180q-63 0 -101.5 38.5t-38.5 101.5t38.5 101.5t101.5 38.5t101.5 -38.5t38.5 -101.5t-38.5 -101.5t-101.5 -38.5zM1097 0h-1047v180l418 490h-393v330h980v-150l-444 -520h486v-330z" />
    <glyph glyph-name="Zcaron" unicode="&#x17d;" horiz-adv-x="1282" 
d="M810 1660h-293l-225 340h271l101 -191l101 191h270zM1222 0h-1162v290l629 865h-589v345h1112v-300l-622 -855h632v-345z" />
    <glyph glyph-name="zcaron" unicode="&#x17e;" horiz-adv-x="1147" 
d="M741 1160h-293l-225 340h271l101 -191l101 191h270zM1097 0h-1047v180l418 490h-393v330h980v-150l-444 -520h486v-330z" />
    <glyph glyph-name="longs" unicode="&#x17f;" horiz-adv-x="824" 
d="M496 0h-396v1051q0 223 122.5 351t334.5 128q119 0 257 -43l-81 -317q-43 15 -83 15q-69 0 -111.5 -46t-42.5 -123v-1016z" />
    <glyph glyph-name="florin" unicode="&#x192;" horiz-adv-x="1378" 
d="M1163 670h-300l-23 -314q-8 -114 -68 -201t-159 -136t-224 -49q-102 0 -202.5 33t-176.5 91l154 282q62 -76 152 -76q67 0 112.5 42t49.5 109l16 219h-220l24 330h220l10 144q9 114 69 201t159 136t224 49q102 0 202 -32.5t176 -90.5l-153 -284q-63 77 -152 77
q-67 0 -112 -42.5t-50 -109.5l-4 -48h300z" />
    <glyph glyph-name="uni01CD" unicode="&#x1cd;" horiz-adv-x="1606" 
d="M425 0h-415l586 1500h415l585 -1500h-415l-97 267h-562zM648 612h311l-156 428zM949 1660h-292l-225 340h270l101 -191l101 191h270z" />
    <glyph glyph-name="uni01CE" unicode="&#x1ce;" horiz-adv-x="1129" 
d="M1049 0h-323l-18 110q-55 -63 -133 -96.5t-170 -33.5q-103 0 -183 39.5t-126 109t-46 158.5q0 94 50 165t138.5 111.5t202.5 40.5q62 0 122 -12.5t117 -36.5v16q0 46 -29.5 81t-82 55t-119.5 20q-68 0 -131.5 -20t-113.5 -57l-94 271q110 49 218 74t207 25
q157 0 272.5 -60.5t178.5 -171t63 -260.5v-528zM490 249q45 0 88.5 20t71.5 51t28 63v1q-36 21 -80 32.5t-88 11.5q-63 0 -99.5 -23.5t-36.5 -64.5q0 -26 15 -47t41.5 -32.5t59.5 -11.5zM711 1160h-292l-225 340h270l101 -191l101 191h270z" />
    <glyph glyph-name="uni0218" unicode="&#x218;" horiz-adv-x="1252" 
d="M30 172l186 302q73 -57 136.5 -93t124 -52.5t123.5 -16.5q62 0 106 14.5t67.5 42t23.5 65.5q0 48 -34 82t-90.5 61t-123.5 54q-72 29 -147 64.5t-138 86.5t-102 124.5t-39 179.5q0 140 70.5 239.5t193 152t277.5 52.5q113 0 239 -30t255 -94l-154 -318
q-72 44 -157.5 70.5t-156.5 26.5q-49 0 -85.5 -13t-56.5 -37.5t-20 -57.5q0 -44 34 -77.5t90 -61.5t122 -57q72 -31 147.5 -69t139 -90t102.5 -124.5t39 -173.5q0 -135 -73.5 -237.5t-205 -159.5t-305.5 -57q-162 0 -312 52t-276 150zM584 -548l-128 111q40 34 60 84.5
t20 105.5q0 90 -49 157l272 55q27 -76 27 -156q0 -116 -54.5 -212.5t-147.5 -144.5z" />
    <glyph glyph-name="uni0219" unicode="&#x219;" horiz-adv-x="930" 
d="M50 85l76 304q27 -32 80.5 -62t116.5 -48.5t116 -18.5q40 0 61 12t21 34q0 23 -19.5 39.5t-52.5 30.5t-74 28q-66 24 -137 57.5t-120.5 92t-49.5 156.5q0 95 50.5 164.5t143 107.5t217.5 38q209 0 421 -105l-103 -281q-32 28 -84 53t-106.5 41t-94.5 16
q-33 0 -49.5 -11.5t-16.5 -31.5q0 -22 19.5 -38.5t53 -30t73.5 -28.5q67 -23 138 -56.5t120.5 -92t49.5 -157.5q0 -97 -53.5 -168.5t-151 -110.5t-230.5 -39q-222 0 -415 105zM428 -548l-128 111q40 34 60 84.5t20 105.5q0 90 -49 157l272 55q27 -76 27 -155
q0 -116 -54.5 -213t-147.5 -145z" />
    <glyph glyph-name="uni021A" unicode="&#x21a;" horiz-adv-x="1248" 
d="M822 0h-396v1155h-416v345h1228v-345h-416v-1155zM587 -548l-128 111q40 34 60 84.5t20 105.5q0 90 -49 157l272 55q27 -76 27 -155q0 -116 -54.5 -213t-147.5 -145z" />
    <glyph glyph-name="uni021B" unicode="&#x21b;" horiz-adv-x="908" 
d="M878 28q-126 -48 -241 -48q-128 0 -225.5 53t-152 147.5t-54.5 218.5v272h-175v329h195v250h349v-250h263v-329h-263v-205q0 -77 43 -116.5t101 -39.5q59 0 114 38zM417 -548l-128 111q40 34 60 84.5t20 105.5q0 90 -49 157l272 55q27 -76 27 -155q0 -116 -54.5 -213
t-147.5 -145z" />
    <glyph glyph-name="uni0237" unicode="&#x237;" horiz-adv-x="553" 
d="M-169 -499v290q16 -3 31 -4t29 -1q97 0 150 59.5t53 169.5v985h369v-1002q0 -259 -110 -388.5t-330 -129.5q-43 0 -91 5.5t-101 15.5z" />
    <glyph glyph-name="circumflex" unicode="&#x2c6;" horiz-adv-x="943" 
d="M843 1160h-270l-102 192l-101 -192h-270l225 340h293z" />
    <glyph glyph-name="caron" unicode="&#x2c7;" horiz-adv-x="942" 
d="M617 1160h-292l-225 340h270l101 -191l101 191h270z" />
    <glyph glyph-name="uni02C9" unicode="&#x2c9;" horiz-adv-x="898" 
d="M798 1206h-698v205h698v-205z" />
    <glyph glyph-name="breve" unicode="&#x2d8;" horiz-adv-x="847" 
d="M747 1500q0 -98 -40.5 -172.5t-113.5 -116t-169 -41.5t-169 41.5t-114 116t-41 172.5h200q0 -76 33 -118t91 -42q59 0 91 42t32 118h200z" />
    <glyph glyph-name="dotaccent" unicode="&#x2d9;" horiz-adv-x="480" 
d="M240 1180q-63 0 -101.5 38.5t-38.5 101.5t38.5 101.5t101.5 38.5t101.5 -38.5t38.5 -101.5t-38.5 -101.5t-101.5 -38.5z" />
    <glyph glyph-name="ring" unicode="&#x2da;" horiz-adv-x="660" 
d="M330 1080q-103 0 -166.5 60.5t-63.5 159.5t63.5 159.5t166.5 60.5q104 0 167 -60.5t63 -159.5t-63 -159.5t-167 -60.5zM330 1220q36 0 58 22t22 58t-22 58t-58 22t-58 -22t-22 -58t22 -58t58 -22z" />
    <glyph glyph-name="ogonek" unicode="&#x2db;" horiz-adv-x="512" 
d="M360 -416q-117 0 -188.5 50.5t-71.5 133.5q0 72 52.5 135.5t142.5 100.5h117q-62 -25 -99.5 -66.5t-37.5 -82.5q0 -40 32.5 -66.5t81.5 -26.5z" />
    <glyph glyph-name="tilde" unicode="&#x2dc;" horiz-adv-x="1005" 
d="M905 1481q0 -145 -58 -219t-174 -74q-70 0 -115 23t-82 48q-31 21 -61.5 37.5t-71.5 16.5q-109 0 -115 -117h-128q0 294 238 294q74 0 121.5 -23.5t87.5 -49.5q32 -20 61.5 -36t66.5 -16q96 0 102 116h128z" />
    <glyph glyph-name="hungarumlaut" unicode="&#x2dd;" horiz-adv-x="992" 
d="M323 1160h-261l132 340h329zM744 1160h-261l132 340h329z" />
    <glyph glyph-name="gravecomb" unicode="&#x300;" horiz-adv-x="531" 
d="M491 1160h-260l-201 340h330z" />
    <glyph glyph-name="acutecomb" unicode="&#x301;" horiz-adv-x="531" 
d="M301 1160h-261l132 340h329z" />
    <glyph glyph-name="uni0302" unicode="&#x302;" horiz-adv-x="943" 
d="M843 1160h-270l-102 192l-101 -192h-270l225 340h293z" />
    <glyph glyph-name="tildecomb" unicode="&#x303;" horiz-adv-x="1005" 
d="M905 1481q0 -145 -58 -219t-174 -74q-70 0 -115 23t-82 48q-31 21 -61.5 37.5t-71.5 16.5q-109 0 -115 -117h-128q0 294 238 294q74 0 121.5 -23.5t87.5 -49.5q32 -20 61.5 -36t66.5 -16q96 0 102 116h128z" />
    <glyph glyph-name="uni0304" unicode="&#x304;" horiz-adv-x="898" 
d="M798 1225h-698v205h698v-205z" />
    <glyph glyph-name="uni0306" unicode="&#x306;" horiz-adv-x="847" 
d="M747 1500q0 -98 -40.5 -172.5t-113.5 -116t-169 -41.5t-169 41.5t-114 116t-41 172.5h200q0 -76 33 -118t91 -42q59 0 91 42t32 118h200z" />
    <glyph glyph-name="uni0307" unicode="&#x307;" horiz-adv-x="480" 
d="M240 1180q-63 0 -101.5 38.5t-38.5 101.5t38.5 101.5t101.5 38.5t101.5 -38.5t38.5 -101.5t-38.5 -101.5t-101.5 -38.5z" />
    <glyph glyph-name="uni0308" unicode="&#x308;" horiz-adv-x="929" 
d="M699 1189q-63 0 -101.5 38.5t-38.5 101.5t38.5 101.5t101.5 38.5t101.5 -38.5t38.5 -101.5t-38.5 -101.5t-101.5 -38.5zM230 1189q-63 0 -101.5 38.5t-38.5 101.5t38.5 101.5t101.5 38.5t101.5 -38.5t38.5 -101.5t-38.5 -101.5t-101.5 -38.5z" />
    <glyph glyph-name="uni030A" unicode="&#x30a;" horiz-adv-x="660" 
d="M330 1080q-103 0 -166.5 60.5t-63.5 159.5t63.5 159.5t166.5 60.5q104 0 167 -60.5t63 -159.5t-63 -159.5t-167 -60.5zM330 1220q36 0 58 22t22 58t-22 58t-58 22t-58 -22t-22 -58t22 -58t58 -22z" />
    <glyph glyph-name="uni030B" unicode="&#x30b;" horiz-adv-x="992" 
d="M323 1160h-261l132 340h329zM744 1160h-261l132 340h329z" />
    <glyph glyph-name="uni030C" unicode="&#x30c;" horiz-adv-x="942" 
d="M617 1160h-292l-225 340h270l101 -191l101 191h270z" />
    <glyph glyph-name="uni0312" unicode="&#x312;" horiz-adv-x="0" 
 />
    <glyph glyph-name="uni0326" unicode="&#x326;" horiz-adv-x="530" 
d="M228 -548l-128 111q40 34 60 84.5t20 105.5q0 90 -49 157l272 55q27 -76 27 -155q0 -116 -54.5 -213t-147.5 -145z" />
    <glyph glyph-name="uni0327" unicode="&#x327;" horiz-adv-x="513" 
d="M70 -395l48 132q35 -19 73 -19t61.5 21t23.5 55q0 32 -23 52t-75 20h-11.5t-12.5 -1l55 142h122l-51 -109q75 -8 119 -48.5t44 -104.5q0 -76 -61.5 -126.5t-155.5 -50.5q-77 0 -156 37z" />
    <glyph glyph-name="uni0328" unicode="&#x328;" horiz-adv-x="512" 
d="M360 -416q-117 0 -188.5 50.5t-71.5 133.5q0 72 52.5 135.5t142.5 100.5h117q-62 -25 -99.5 -66.5t-37.5 -82.5q0 -40 32.5 -66.5t81.5 -26.5z" />
    <glyph glyph-name="uni0394" unicode="&#x394;" horiz-adv-x="1703" 
d="M1693 0h-1683l612 1500h459zM570 345h563l-281 737z" />
    <glyph glyph-name="uni03A9" unicode="&#x3a9;" horiz-adv-x="1599" 
d="M1579 0h-649v310q73 52 126 127t82 163t29 179q0 119 -47 210.5t-130 143.5t-190 52t-190 -52.5t-130.5 -144t-47.5 -210.5q0 -91 29 -179t82.5 -162.5t125.5 -126.5v-310h-649v345h222q-68 70 -116 152.5t-73.5 173.5t-25.5 188q0 196 99.5 347t274 237.5t399.5 86.5
q226 0 400 -86.5t273 -237.5t99 -347q0 -97 -25.5 -188t-73.5 -173.5t-117 -152.5h223v-345z" />
    <glyph glyph-name="pi" unicode="&#x3c0;" horiz-adv-x="1458" 
d="M1438 166q-49 -88 -127.5 -137t-172.5 -49q-91 0 -164 46t-115 125t-42 178v371h-153q5 -75 7.5 -149.5t2.5 -149.5q0 -100 -5 -200t-17 -201h-369q12 101 17 201t5 200q0 75 -2.5 149.5t-7.5 149.5h-12q-108 0 -208 -66l-65 280q130 86 273 86h1084v-300h-182v-413
q0 -48 26.5 -78.5t68.5 -30.5q56 0 103 52z" />
    <glyph glyph-name="Wgrave" unicode="&#x1e80;" horiz-adv-x="2249" 
d="M1256 1660h-260l-201 340h330zM1753 0h-371l-256 855l-257 -855h-371l-488 1500h416l257 -862l257 862h371l256 -860l256 860h416z" />
    <glyph glyph-name="wgrave" unicode="&#x1e81;" horiz-adv-x="1742" 
d="M998 1160h-261l-200 340h329zM1407 0h-420l-116 519l-116 -519h-420l-325 1000h390l139 -629l174 629h316l174 -633l139 633h390z" />
    <glyph glyph-name="Wacute" unicode="&#x1e82;" horiz-adv-x="2249" 
d="M1256 1660h-261l132 340h329zM1753 0h-371l-256 855l-257 -855h-371l-488 1500h416l257 -862l257 862h371l256 -860l256 860h416z" />
    <glyph glyph-name="wacute" unicode="&#x1e83;" horiz-adv-x="1742" 
d="M1005 1160h-260l131 340h330zM1407 0h-420l-116 519l-116 -519h-420l-325 1000h390l139 -629l174 629h316l174 -633l139 633h390z" />
    <glyph glyph-name="Wdieresis" unicode="&#x1e84;" horiz-adv-x="2249" 
d="M1753 0h-371l-256 855l-257 -855h-371l-488 1500h416l257 -862l257 862h371l256 -860l256 860h416zM1359 1689q-63 0 -101.5 38.5t-38.5 101.5t38.5 101.5t101.5 38.5t101.5 -38.5t38.5 -101.5t-38.5 -101.5t-101.5 -38.5zM890 1689q-63 0 -101.5 38.5t-38.5 101.5
t38.5 101.5t101.5 38.5t101.5 -38.5t38.5 -101.5t-38.5 -101.5t-101.5 -38.5z" />
    <glyph glyph-name="wdieresis" unicode="&#x1e85;" horiz-adv-x="1742" 
d="M1407 0h-420l-116 519l-116 -519h-420l-325 1000h390l139 -629l174 629h316l174 -633l139 633h390zM1106 1189q-63 0 -101.5 38.5t-38.5 101.5t38.5 101.5t101.5 38.5t101.5 -38.5t38.5 -101.5t-38.5 -101.5t-101.5 -38.5zM637 1189q-63 0 -101.5 38.5t-38.5 101.5
t38.5 101.5t101.5 38.5t101.5 -38.5t38.5 -101.5t-38.5 -101.5t-101.5 -38.5z" />
    <glyph glyph-name="uni1E9E" unicode="&#x1e9e;" horiz-adv-x="1357" 
d="M497 0h-396v1010q0 151 70 268.5t193.5 184.5t281.5 67q134 0 242.5 -50.5t178 -140.5t86.5 -210q8 -56 -13 -102.5t-53 -80.5l-241 -259l-30 107q157 9 266.5 -35t167 -132t57.5 -209q0 -128 -65.5 -229t-179 -160t-255.5 -59q-56 0 -126 8t-125 21l51 260
q31 -12 60.5 -18t56.5 -6q57 0 99 24.5t65 70t23 106.5q0 65 -26 110.5t-75.5 68t-119.5 19.5l-78 117l270 303q-4 32 -26 62t-60.5 49.5t-94.5 19.5q-64 0 -110 -30t-70 -84t-24 -126v-945z" />
    <glyph glyph-name="Ygrave" unicode="&#x1ef2;" horiz-adv-x="1532" 
d="M964 0h-396v641l-558 859h481l273 -506l277 506h481l-558 -860v-640zM997 1660h-260l-201 340h330z" />
    <glyph glyph-name="ygrave" unicode="&#x1ef3;" horiz-adv-x="1369" 
d="M737 -500h-390l206 497l-523 1003h420l277 -584l242 584h390zM915 1160h-260l-201 340h330z" />
    <glyph glyph-name="uni2002" unicode="&#x2002;" horiz-adv-x="1354" 
 />
    <glyph glyph-name="uni2009" unicode="&#x2009;" horiz-adv-x="670" 
 />
    <glyph glyph-name="uni200B" unicode="&#x200b;" horiz-adv-x="330" 
 />
    <glyph glyph-name="endash" unicode="&#x2013;" horiz-adv-x="1220" 
d="M1120 370h-1020v280h1020v-280z" />
    <glyph glyph-name="emdash" unicode="&#x2014;" horiz-adv-x="2240" 
d="M2140 370h-2040v280h2040v-280z" />
    <glyph glyph-name="quoteleft" unicode="&#x2018;" horiz-adv-x="551" 
d="M350 1070h-250l144 450h207z" />
    <glyph glyph-name="quoteright" unicode="&#x2019;" horiz-adv-x="551" 
d="M306 1070h-206l101 450h250z" />
    <glyph glyph-name="quotesinglbase" unicode="&#x201a;" horiz-adv-x="490" 
d="M300 -240h-240l70 440h290z" />
    <glyph glyph-name="quotedblleft" unicode="&#x201c;" horiz-adv-x="966" 
d="M350 1070h-250l145 450h206zM765 1070h-250l144 450h207z" />
    <glyph glyph-name="quotedblright" unicode="&#x201d;" horiz-adv-x="966" 
d="M722 1070h-207l101 450h250zM307 1070h-207l101 450h250z" />
    <glyph glyph-name="quotedblbase" unicode="&#x201e;" horiz-adv-x="910" 
d="M719 -240h-240l70 440h290zM300 -240h-240l70 440h290z" />
    <glyph glyph-name="dagger" unicode="&#x2020;" horiz-adv-x="1196" 
d="M796 0h-396l30 785l-330 -30v345l330 -30l-30 430h396l-30 -430l330 30v-345l-330 30z" />
    <glyph glyph-name="daggerdbl" unicode="&#x2021;" horiz-adv-x="1196" 
d="M796 0h-396l30 440l-330 -40v315l330 -40l-4 72l4 78l-330 -40v315l330 -40l-30 440h396l-30 -440l330 40v-315l-330 40l4 -78l-4 -72l330 40v-315l-330 40z" />
    <glyph glyph-name="bullet" unicode="&#x2022;" horiz-adv-x="620" 
d="M310 490q-90 0 -150 59.5t-60 150.5q0 90 60 150t150 60q92 0 151 -60t59 -150q0 -91 -59 -150.5t-151 -59.5z" />
    <glyph glyph-name="ellipsis" unicode="&#x2026;" horiz-adv-x="1360" 
d="M250 -20q-72 0 -116 44t-44 116t44 116t116 44t116 -44t44 -116t-44 -116t-116 -44zM680 -20q-72 0 -116 44t-44 116t44 116t116 44t116 -44t44 -116t-44 -116t-116 -44zM1110 -20q-72 0 -116 44t-44 116t44 116t116 44t116 -44t44 -116t-44 -116t-116 -44z" />
    <glyph glyph-name="perthousand" unicode="&#x2030;" horiz-adv-x="2396" 
d="M374 873q-155 0 -249.5 89t-94.5 234q0 146 94.5 235t249.5 89t250 -89t95 -235q0 -145 -95 -234t-250 -89zM467 1h-298l967 1500h298zM374 1073q42 0 68.5 34.5t26.5 89.5q0 56 -26.5 90t-68.5 34q-43 0 -68.5 -34t-25.5 -90q0 -55 25.5 -89.5t68.5 -34.5zM2022 -21
q-154 0 -249 89.5t-95 234.5q0 146 95 235t249 89q155 0 249.5 -89t94.5 -235q0 -145 -94.5 -234.5t-249.5 -89.5zM1218 -21q-154 0 -249 89.5t-95 234.5q0 146 95 235t249 89q155 0 249.5 -89t94.5 -235q0 -145 -94.5 -234.5t-249.5 -89.5zM2022 180q42 0 68 34t26 89
q0 56 -26 90.5t-68 34.5q-43 0 -68.5 -34.5t-25.5 -90.5q0 -55 25.5 -89t68.5 -34zM1218 180q42 0 68 34t26 89q0 56 -26 90.5t-68 34.5q-43 0 -68.5 -34.5t-25.5 -90.5q0 -55 25.5 -89t68.5 -34z" />
    <glyph glyph-name="minute" unicode="&#x2032;" horiz-adv-x="460" 
d="M326 1085h-192l-34 435h260z" />
    <glyph glyph-name="second" unicode="&#x2033;" horiz-adv-x="808" 
d="M326 1085h-192l-34 435h260zM674 1085h-192l-34 435h260z" />
    <glyph glyph-name="guilsinglleft" unicode="&#x2039;" horiz-adv-x="816" 
d="M716 116h-345l-351 408l351 408h345l-362 -408z" />
    <glyph glyph-name="guilsinglright" unicode="&#x203a;" horiz-adv-x="816" 
d="M445 116h-345l362 408l-362 408h345l351 -408z" />
    <glyph glyph-name="fraction" unicode="&#x2044;" horiz-adv-x="1262" 
d="M234 0h-224l1025 1540h217z" />
    <glyph glyph-name="uni2074" unicode="&#x2074;" horiz-adv-x="697" 
d="M583 730h-203v139h-360v154l360 477h203v-454h94v-177h-94v-139zM380 1046v219l-165 -219h165z" />
    <glyph glyph-name="franc" unicode="&#x20a3;" horiz-adv-x="1196" 
d="M840 214h-298v-214h-396v214h-126v200h126v1086h960v-345h-564v-232h524v-345h-524v-164h298v-200z" />
    <glyph glyph-name="uni20A8" unicode="&#x20a8;" horiz-adv-x="1173" 
d="M1073 1300h-234q32 -37 54 -79.5t32 -90.5h144v-141h-139q-11 -83 -55.5 -151.5t-115 -118t-162.5 -75.5l430 -644h-408l-391 619h-128v200h202q55 0 99.5 21.5t75 59.5t43.5 89h-420v141h420q-12 49 -41 87.5t-70.5 60.5t-93.5 22h-215v200h973v-200z" />
    <glyph glyph-name="Euro" unicode="&#x20ac;" horiz-adv-x="1064" 
d="M870 805h-315q-1 -16 -2 -27.5t-1 -27.5t1 -27.5t2 -27.5h304l-19 -160h-240q35 -69 94.5 -118.5t140 -75.5t179.5 -26v-345q-219 0 -392.5 69t-289 196t-160.5 300h-152l19 160h112q-2 17 -3.5 31.5t-1.5 30.5q0 11 1 24.5t2 23.5h-129l19 160h133q45 174 160.5 300.5
t289 195.5t392.5 69v-345q-99 0 -179.5 -26t-140 -75t-94.5 -119h289z" />
    <glyph glyph-name="uni2113" unicode="&#x2113;" horiz-adv-x="1197" 
d="M1107 411q-31 -207 -149 -324t-296 -117q-127 0 -222 59t-147.5 165.5t-52.5 247.5v25q-37 -13 -76.5 -23.5t-80.5 -20.5l-53 218q58 14 110 29t100 31v359q0 139 56 245t156 165.5t230 59.5q123 0 217 -52.5t147 -144t53 -210.5q0 -160 -110 -284.5t-353 -231.5v-94
q0 -90 34 -144t90 -54q50 0 85 41t45 111zM636 866q77 50 112 103t35 114q0 48 -18.5 75t-52.5 27q-35 0 -55.5 -31.5t-20.5 -85.5v-202z" />
    <glyph glyph-name="trademark" unicode="&#x2122;" horiz-adv-x="1595" 
d="M410 780h-190v554h-200v166h589v-166h-199v-554zM1495 780h-190v447l-140 -326h-140l-139 325v-446h-190v720h240l159 -385l160 385h240v-720z" />
    <glyph glyph-name="estimated" unicode="&#x212e;" horiz-adv-x="1122" 
d="M1038 140q-105 -85 -202.5 -122.5t-213.5 -37.5q-165 0 -294.5 68t-203.5 186.5t-74 270.5q0 150 66.5 266t182.5 182.5t265 66.5t263.5 -65.5t179.5 -180.5t65 -264v-38h-790v-196q0 -59 47 -109t125.5 -79.5t172.5 -29.5q198 0 369 145zM840 550v193q0 55 -38 100
t-101.5 72t-139.5 27t-139.5 -27t-101.5 -72t-38 -100v-193h558z" />
    <glyph glyph-name="arrowup" unicode="&#x2191;" horiz-adv-x="1003" 
d="M574 0h-144l13 1306l-193 -306h-150l338 500h126l339 -500h-149l-194 306z" />
    <glyph glyph-name="arrowdown" unicode="&#x2193;" horiz-adv-x="1003" 
d="M574 1500l-14 -1306l194 306h149l-339 -500h-126l-338 500h150l193 -306l-13 1306h144z" />
    <glyph glyph-name="partialdiff" unicode="&#x2202;" horiz-adv-x="1231" 
d="M329 1068l-253 120q69 162 202 252t302 90q136 0 251 -58.5t200.5 -164t132.5 -248t47 -311.5q0 -233 -78.5 -408.5t-221.5 -272.5t-336 -97q-152 0 -270.5 59.5t-186.5 165.5t-68 243q0 140 70 249.5t192.5 172t278.5 62.5q59 0 119 -9.5t118 -28.5q-18 98 -58.5 171
t-97 114t-125.5 41q-64 0 -121 -37t-97 -105zM832 605q-90 32 -163 32q-62 0 -110.5 -22t-76 -60.5t-27.5 -88.5q0 -42 20 -76.5t54 -54.5t76 -20t78.5 20.5t66.5 58.5t51 91.5t31 119.5z" />
    <glyph glyph-name="Delta" unicode="&#x2206;" horiz-adv-x="1221" 
d="M1075 0h-929l-126 219l403 911h375l403 -911zM432 330h356l-177 427z" />
    <glyph glyph-name="product" unicode="&#x220f;" horiz-adv-x="1932" 
d="M1672 -400h-396v1555h-620v-1555h-396v1555l-230 15v330h1872v-330l-230 -15v-1555z" />
    <glyph glyph-name="summation" unicode="&#x2211;" horiz-adv-x="1425" 
d="M1335 0h-1235v241l427 510l-427 508v241h1235v-345h-675l289 -405l-289 -405h675v-345z" />
    <glyph glyph-name="minus" unicode="&#x2212;" horiz-adv-x="1000" 
d="M900 360h-800v280h800v-280z" />
    <glyph glyph-name="uni2215" unicode="&#x2215;" horiz-adv-x="1005" 
d="M356 -20h-346l639 1540h346z" />
    <glyph glyph-name="uni2219" unicode="&#x2219;" horiz-adv-x="500" 
d="M250 370q-72 0 -116 44t-44 116t44 116t116 44t116 -44t44 -116t-44 -116t-116 -44z" />
    <glyph glyph-name="radical" unicode="&#x221a;" horiz-adv-x="1258" 
d="M842 0h-396l-226 546h-150v226h366l169 -455l276 1243h307z" />
    <glyph glyph-name="infinity" unicode="&#x221e;" horiz-adv-x="1852" 
d="M1393 84q-106 0 -184.5 34t-137.5 89.5t-108 119.5q-48 -63 -110.5 -118.5t-148 -90t-204.5 -34.5q-142 0 -250.5 51.5t-169 143.5t-60.5 211q0 117 57.5 208.5t157.5 144t229 52.5q117 0 203.5 -41.5t152.5 -107.5t121 -140q52 72 111.5 138t141.5 108.5t201 42.5
q128 0 226.5 -52t154.5 -143t56 -210q0 -118 -56 -209.5t-154.5 -144t-228.5 -52.5zM851 487q-40 57 -85 104.5t-100 75.5t-129 28q-65 0 -114 -22.5t-76 -62.5t-27 -94q0 -55 29 -96t81.5 -63.5t123.5 -22.5q69 0 122 20t95.5 55t79.5 78zM1329 284q60 0 105.5 23.5
t71.5 65t26 96.5q0 53 -24 92.5t-68 61.5t-104 22q-65 0 -114.5 -25.5t-89.5 -68.5t-78 -96q39 -48 80 -87t89 -61.5t106 -22.5z" />
    <glyph glyph-name="integral" unicode="&#x222b;" horiz-adv-x="826" 
d="M20 -320v345q111 0 166.5 60.5t55.5 175.5l-63 974q0 279 158.5 432t468.5 153v-345q-117 0 -174 -60t-57 -176l63 -978q0 -276 -157 -428.5t-461 -152.5z" />
    <glyph glyph-name="approxequal" unicode="&#x2248;" horiz-adv-x="1242" 
d="M1142 687q-139 -148 -279 -148q-61 0 -119.5 21.5t-116.5 47.5t-117.5 48t-123.5 22q-142 0 -286 -144v262q147 144 288 144q64 0 123.5 -22t117.5 -48t116.5 -47.5t119.5 -21.5q141 0 277 148v-262zM1142 218q-139 -148 -279 -148q-61 0 -119.5 21.5t-116.5 47.5
t-117.5 48t-123.5 22q-142 0 -286 -144v262q147 144 288 144q64 0 123.5 -22t117.5 -48t116.5 -47.5t119.5 -21.5q141 0 277 148v-262z" />
    <glyph glyph-name="notequal" unicode="&#x2260;" horiz-adv-x="1155" 
d="M445 -56h-200l74 177h-219v280h335l85 207h-420v280h536l74 176h200l-74 -176h219v-280h-335l-85 -207h420v-280h-536z" />
    <glyph glyph-name="lessequal" unicode="&#x2264;" horiz-adv-x="1107" 
d="M1007 338l-907 432v156l907 432v-301l-515 -209l515 -210v-300zM1007 0h-907v280h907v-280z" />
    <glyph glyph-name="greaterequal" unicode="&#x2265;" horiz-adv-x="1107" 
d="M100 338v300l515 210l-515 209v301l907 -432v-156zM1007 0h-907v280h907v-280z" />
    <glyph glyph-name="lozenge" unicode="&#x25ca;" horiz-adv-x="1241" 
d="M761 -20h-282l-459 680l460 681h282l459 -680zM620 324l204 337l-203 332l-205 -333z" />
    <glyph glyph-name="uniFEFF" unicode="&#xfeff;" horiz-adv-x="1354" 
 />
    </font>
</defs>
</svg>
