<?xml version="1.0" standalone="no"?>
<!DOCTYPE svg PUBLIC "-//W3C//DTD SVG 1.1//EN" "http://www.w3.org/Graphics/SVG/1.1/DTD/svg11.dtd" >
<svg xmlns="http://www.w3.org/2000/svg" xmlns:xlink="http://www.w3.org/1999/xlink" version="1.1">
<metadata>
Created by FontForge 20201107 at Fri Dec  2 17:29:53 2022
 By 
Copyright 2020 The KumbhSans Project Authors (https://github.com/xconsau/KumbhSans)
</metadata>
<defs>
<font id="KumbhSans-Medium" horiz-adv-x="1225" >
  <font-face 
    font-family="Kumbh Sans Medium"
    font-weight="500"
    font-stretch="normal"
    units-per-em="2048"
    panose-1="0 0 0 0 0 0 0 0 0 0"
    ascent="1638"
    descent="-410"
    x-height="1000"
    cap-height="1500"
    bbox="-206 -520 2401 2020"
    underline-thickness="120"
    underline-position="-265"
    unicode-range="U+000D-FEFF"
  />
<missing-glyph horiz-adv-x="1224" 
d="M1072 0h-920v1500h920v-1500zM935 1420h-646l323 -576zM972 203v1119l-314 -560zM252 1322v-1119l314 559zM275 80h674l-337 601z" />
    <glyph glyph-name="uniFB00" unicode="ff" horiz-adv-x="1577" 
d="M465 0h-206v817h-175v183h175v195q0 98 44 173.5t120.5 118.5t176.5 43q62 0 124.5 -17t123.5 -53l-77 -161q-34 24 -69.5 35.5t-70.5 11.5q-73 0 -120 -52t-47 -139v-155h479v195q0 98 44 173.5t120.5 118.5t176.5 43q62 0 125 -17t124 -53l-78 -161q-68 47 -139 47
q-74 0 -120.5 -52t-46.5 -139v-155h306v-183h-306v-817h-205v817h-479v-817z" />
    <glyph glyph-name="uniFB01" unicode="fi" horiz-adv-x="1255" 
d="M464 0h-205v817h-175v183h175v195q0 98 43.5 173.5t120.5 118.5t177 43q62 0 125 -17t123 -53l-78 -161q-33 24 -68 35.5t-69 11.5q-75 0 -122 -51.5t-47 -139.5v-155h647v-1000h-206v817h-441v-817z" />
    <glyph glyph-name="uniFB02" unicode="fl" horiz-adv-x="1333" 
d="M1189 0h-205v1102q0 114 -71.5 184t-186.5 70q-116 0 -189 -69.5t-73 -177.5v-109h306v-184h-306v-816h-205v816h-175v184h175v115q0 121 59.5 215t164.5 147t240 53q138 0 243 -54.5t164 -151.5t59 -224v-1100z" />
    <glyph glyph-name="uniFB03" unicode="ffi" horiz-adv-x="1918" 
d="M1127 0h-205v817h-458v-817h-205v817h-175v183h175v195q0 98 44 173.5t120.5 118.5t176.5 43q62 0 124.5 -17t123.5 -53l-77 -161q-34 24 -69.5 35.5t-70.5 11.5q-73 0 -119.5 -52t-46.5 -139v-155h457v195q0 98 43.5 173.5t120.5 118.5t176 43q62 0 125.5 -17t123.5 -53
l-78 -161q-33 24 -68 35.5t-69 11.5q-75 0 -122 -51.5t-47 -139.5v-155h647v-1000h-206v817h-441v-817z" />
    <glyph glyph-name="uniFB04" unicode="ffl" horiz-adv-x="1981" 
d="M1837 0h-205v1102q0 114 -72 184t-188 70q-115 0 -188 -69.5t-73 -177.5v-109h306v-184h-306v-816h-205v816l-442 1v-817h-205v817h-175v183h175v195q0 98 44 173.5t120.5 118.5t176.5 43q62 0 124.5 -17t123.5 -53l-77 -161q-34 24 -69.5 35.5t-70.5 11.5
q-73 0 -120 -52t-47 -139v-155h442v115q0 121 60 215t165 147t240 53q139 0 243.5 -54.5t163.5 -151.5t59 -224v-1100z" />
    <glyph glyph-name="uniFB05" unicode="&#x17f;t" horiz-adv-x="1542" 
d="M464 0h-205v816h-175v184h175v115q0 121 59.5 215t164.5 147t240 53q138 0 243 -54.5t164 -151.5t59 -224v-745q0 -88 47 -139.5t121 -51.5q64 0 126 38l31 -177q-101 -45 -200 -45t-173.5 43t-115.5 120t-41 178v781q0 114 -71.5 184t-186.5 70q-116 0 -189 -69.5
t-73 -177.5v-109h306v-184h-306v-816z" />
    <glyph glyph-name=".notdef" horiz-adv-x="1224" 
d="M1072 0h-920v1500h920v-1500zM935 1420h-646l323 -576zM972 203v1119l-314 -560zM252 1322v-1119l314 559zM275 80h674l-337 601z" />
    <glyph glyph-name="glyph1" horiz-adv-x="850" 
 />
    <glyph glyph-name="glyph1" horiz-adv-x="850" 
 />
    <glyph glyph-name="uni000D" unicode="&#xd;" horiz-adv-x="842" 
 />
    <glyph glyph-name="space" unicode=" " horiz-adv-x="488" 
 />
    <glyph glyph-name="exclam" unicode="!" horiz-adv-x="469" 
d="M285 405h-100l-35 1095h170zM234 -20q-47 0 -80 32.5t-33 79.5q0 46 33 78t80 32q48 0 81 -32t33 -78q0 -47 -33 -79.5t-81 -32.5z" />
    <glyph glyph-name="quotedbl" unicode="&#x22;" horiz-adv-x="789" 
d="M288 1085h-116l-20 435h157zM616 1085h-116l-20 435h157z" />
    <glyph glyph-name="numbersign" unicode="#" horiz-adv-x="1343" 
d="M1257 886h-235l-62 -345h240l-23 -141h-241l-71 -400h-167l71 400h-317l-70 -400h-167l70 400h-221l23 141h224l60 345h-227l23 141h230l83 473h167l-84 -473h317l83 473h167l-84 -473h233zM477 541h317l60 345h-316z" />
    <glyph glyph-name="dollar" unicode="$" horiz-adv-x="1077" 
d="M74 221l94 152q61 -48 118.5 -79.5t115.5 -46t117 -14.5q82 0 143.5 26.5t95.5 74t34 110.5q0 70 -40 116t-103.5 79t-133.5 62q-66 29 -130.5 60t-117.5 73t-85 102t-32 145q0 144 92 237.5t244 115.5l-2 186h133l-2 -182q79 -4 159.5 -26.5t156.5 -62.5l-78 -160
q-61 37 -132 57.5t-135 20.5q-104 0 -169 -51.5t-65 -134.5q0 -63 38 -106.5t101 -76t134 -63.5q65 -29 130 -61.5t119 -77t86.5 -106t32.5 -147.5q0 -101 -47 -180.5t-131.5 -130.5t-199.5 -66l2 -186h-133l2 182q-111 6 -216.5 46.5t-195.5 112.5z" />
    <glyph glyph-name="percent" unicode="%" horiz-adv-x="1660" 
d="M408 873q-150 0 -242 89t-92 234q0 146 92 235t242 89q151 0 242.5 -89t91.5 -235q0 -145 -91.5 -234t-242.5 -89zM437 0h-175l967 1500h175zM408 994q84 0 135.5 55.5t51.5 146.5q0 92 -51 147.5t-136 55.5q-83 0 -134.5 -55.5t-51.5 -147.5q0 -91 51.5 -146.5
t134.5 -55.5zM1252 -20q-150 0 -242 89t-92 234q0 146 92 235t242 89q151 0 242.5 -89t91.5 -235q0 -145 -92 -234t-242 -89zM1251 101q84 0 135.5 55.5t51.5 146.5q0 92 -51 147.5t-135 55.5t-135 -55.5t-51 -147.5q0 -91 51 -146.5t134 -55.5z" />
    <glyph glyph-name="ampersand" unicode="&#x26;" horiz-adv-x="1494" 
d="M1430 117l-101 -147q-69 45 -134.5 91.5t-126.5 91.5q-97 -89 -211.5 -136t-241.5 -47q-144 0 -257.5 56t-178.5 154t-65 222q0 102 42 176t109 129t144 100q-69 106 -106 202.5t-37 180.5q0 99 47 175.5t129 120.5t186 44t182.5 -42t123.5 -116.5t45 -171.5
q0 -106 -49 -181.5t-124.5 -131.5t-158.5 -106q73 -91 174 -188t228 -199q52 70 96.5 160t77.5 197l166 -60q-39 -120 -89 -221.5t-111 -183.5q58 -43 116.5 -84.5t124.5 -84.5zM564 896q63 38 115.5 78t84 90t31.5 115q0 80 -46.5 131.5t-119.5 51.5q-72 0 -118 -53
t-46 -137q0 -60 25.5 -130t73.5 -146zM496 688q-50 -34 -91 -74t-64.5 -87t-23.5 -107q0 -79 40.5 -140.5t111 -97t159.5 -35.5q80 0 155 30t142 87q-131 108 -239 215.5t-190 208.5z" />
    <glyph glyph-name="quotesingle" unicode="'" horiz-adv-x="445" 
d="M280 1085h-116l-20 435h157z" />
    <glyph glyph-name="parenleft" unicode="(" horiz-adv-x="620" 
d="M556 -289h-203q-140 189 -214.5 424.5t-74.5 489.5t74.5 489.5t214.5 425.5h203q-151 -197 -231 -431.5t-80 -482.5q0 -247 80 -482t231 -433z" />
    <glyph glyph-name="parenright" unicode=")" horiz-adv-x="621" 
d="M268 -289h-204q152 198 232 433t80 482q0 248 -80 482.5t-232 431.5h204q140 -190 214.5 -425.5t74.5 -489.5t-74.5 -489.5t-214.5 -424.5z" />
    <glyph glyph-name="asterisk" unicode="*" horiz-adv-x="1042" 
d="M856 757l-137 -101l-197 332l-199 -332l-138 101l250 294l-371 89l53 163l351 -150l-31 387h169l-32 -387l353 150l51 -163l-372 -88z" />
    <glyph glyph-name="plus" unicode="+" horiz-adv-x="1136" 
d="M992 411h-333v-334h-181v334h-334v164h334v334h181v-334h333v-164z" />
    <glyph glyph-name="comma" unicode="," horiz-adv-x="474" 
d="M249 -240h-145l78 424h178z" />
    <glyph glyph-name="hyphen" unicode="-" horiz-adv-x="1088" 
d="M944 423h-800v159h800v-159z" />
    <glyph glyph-name="period" unicode="." horiz-adv-x="470" 
d="M235 -20q-50 0 -80.5 31t-30.5 80q0 51 30.5 82t80.5 31q49 0 81 -31t32 -82q0 -49 -32 -80t-81 -31z" />
    <glyph glyph-name="slash" unicode="/" horiz-adv-x="861" 
d="M210 -20h-196l638 1540h195z" />
    <glyph glyph-name="zero" unicode="0" horiz-adv-x="1204" 
d="M602 -30q-162 0 -279 91.5t-180 266t-63 423.5q0 248 63 422t180 265.5t279 91.5t278.5 -91.5t180 -265.5t63.5 -422q0 -249 -63 -423.5t-180 -266t-279 -91.5zM602 164q140 0 218.5 154.5t78.5 432.5t-78.5 431.5t-218.5 153.5t-218.5 -153.5t-78.5 -431.5t78.5 -432.5
t218.5 -154.5z" />
    <glyph glyph-name="one" unicode="1" horiz-adv-x="794" 
d="M622 0h-220v1283l-269 -98l-69 177l381 138h177v-1500z" />
    <glyph glyph-name="two" unicode="2" horiz-adv-x="1234" 
d="M1100 0h-920v134q183 158 310 286t205.5 234t115 198.5t36.5 179.5q0 91 -34 160t-95.5 107t-141.5 38q-92 0 -176 -52.5t-139 -144.5l-117 138q81 120 205.5 186t265.5 66q131 0 234.5 -57.5t163 -159.5t59.5 -238q0 -105 -38 -214.5t-112.5 -221t-184 -223.5
t-250.5 -223h613v-193z" />
    <glyph glyph-name="three" unicode="3" horiz-adv-x="1137" 
d="M86 137l89 162q82 -67 166.5 -101.5t169.5 -34.5q87 0 153.5 34t104 94.5t37.5 138.5q0 128 -100.5 199.5t-278.5 71.5h-56v157h56q96 0 172 33.5t119.5 92t43.5 132.5q0 64 -32.5 114t-89 78.5t-129.5 28.5q-72 0 -146 -30.5t-146 -89.5l-101 153q85 77 191 118.5
t221 41.5q128 0 227 -48.5t156.5 -132.5t57.5 -193q0 -125 -76 -224t-197 -146q156 -38 246.5 -138t90.5 -246q0 -125 -66 -222.5t-180 -153.5t-260 -56q-124 0 -237 43t-206 124z" />
    <glyph glyph-name="four" unicode="4" horiz-adv-x="1275" 
d="M1028 0h-220v341h-744v171l745 988h219v-966h183v-193h-183v-341zM292 534h516v685z" />
    <glyph glyph-name="five" unicode="5" horiz-adv-x="1139" 
d="M80 160l118 176q45 -80 129 -126t185 -46q95 0 168 40t114 112t41 166t-41 166t-114 112t-168 40q-66 0 -124 -21t-105 -60l-110 67l66 714h746v-194h-544l-39 -390q79 26 169 26q143 0 253 -61t172.5 -168t62.5 -246q0 -146 -68 -258t-188 -175.5t-276 -63.5
q-133 0 -249.5 49.5t-197.5 140.5z" />
    <glyph glyph-name="six" unicode="6" horiz-adv-x="1162" 
d="M579 -30q-151 0 -263.5 69.5t-174 196t-61.5 297.5q0 143 43.5 280.5t125.5 263.5t198.5 233.5t261.5 189.5l102 -142q-123 -73 -225 -169t-176 -206.5t-116 -226.5q61 70 147.5 109t191.5 39q131 0 232.5 -58t159 -159.5t57.5 -232.5q0 -140 -65 -249.5t-178.5 -172
t-259.5 -62.5zM584 163q79 0 140.5 39t97 107t35.5 153q0 83 -34.5 146.5t-95.5 100t-140 36.5t-142 -37t-99 -101.5t-36 -148.5q0 -83 36.5 -150t98.5 -106t139 -39z" />
    <glyph glyph-name="seven" unicode="7" horiz-adv-x="1069" 
d="M447 0h-237l538 1306h-684v194h941v-148z" />
    <glyph glyph-name="eight" unicode="8" horiz-adv-x="1183" 
d="M591 -30q-149 0 -261 53t-174 149.5t-62 224.5q0 144 78 247.5t213 149.5q-112 44 -175 135t-63 215q0 118 55 204.5t155 134t234 47.5q135 0 235 -47.5t154.5 -134t54.5 -204.5q0 -124 -63 -215t-174 -135q135 -45 213 -149t78 -248q0 -128 -62 -224.5t-174 -149.5
t-262 -53zM591 879q102 0 165.5 65t63.5 169q0 105 -63.5 170t-165.5 65t-165.5 -65t-63.5 -170q0 -104 63.5 -169t165.5 -65zM591 156q83 0 146 34.5t98 97t35 144.5q0 83 -35 145.5t-98 97t-146 34.5q-82 0 -144.5 -35t-97.5 -97t-35 -145t35 -145t97.5 -96.5t144.5 -34.5
z" />
    <glyph glyph-name="nine" unicode="9" horiz-adv-x="1162" 
d="M453 0l-102 142q124 74 226 170t176 206t116 226q-60 -70 -147 -109t-192 -39q-132 0 -233 58t-159 159.5t-58 232.5q0 140 65 249.5t179 172t260 62.5q152 0 264 -69.5t173 -196t61 -297.5q0 -143 -43.5 -280.5t-125 -263.5t-198 -233.5t-262.5 -189.5zM575 755
q81 0 143 37.5t98 102.5t36 148t-35.5 149.5t-98 105.5t-140.5 39q-77 0 -139 -39t-98 -106.5t-36 -153.5q0 -82 35 -146t95.5 -100.5t139.5 -36.5z" />
    <glyph glyph-name="colon" unicode=":" horiz-adv-x="470" 
d="M235 756q-47 0 -79 32t-32 79t32 80t79 33t79 -33t32 -80t-32 -79t-79 -32zM235 -20q-47 0 -79 32.5t-32 79.5q0 46 32 79t79 33t79 -33t32 -79q0 -47 -32 -79.5t-79 -32.5z" />
    <glyph glyph-name="semicolon" unicode=";" horiz-adv-x="475" 
d="M259 756q-48 0 -79 32t-31 79t31 80t79 33q47 0 79.5 -33t32.5 -80t-32.5 -79t-79.5 -32zM250 -240h-146l78 424h179z" />
    <glyph glyph-name="less" unicode="&#x3c;" horiz-adv-x="1138" 
d="M994 0l-930 458v108l930 454v-175l-724 -333l724 -338v-174z" />
    <glyph glyph-name="equal" unicode="=" horiz-adv-x="1243" 
d="M1099 653h-955v161h955v-161zM1099 166h-955v161h955v-161z" />
    <glyph glyph-name="greater" unicode="&#x3e;" horiz-adv-x="1138" 
d="M144 0v174l724 338l-724 333v175l930 -454v-108z" />
    <glyph glyph-name="question" unicode="?" horiz-adv-x="928" 
d="M189 1227l-95 167q182 136 388 136q116 0 201.5 -43t133 -121.5t47.5 -185.5q0 -68 -21 -119t-55.5 -94.5t-76.5 -86.5q-49 -52 -96.5 -113.5t-79 -148t-31.5 -213.5h-179q0 152 32.5 251.5t81 166t94.5 117.5q47 53 80.5 102.5t33.5 120.5q0 85 -52.5 134t-143.5 49
q-70 0 -138.5 -31t-123.5 -88zM415 -20q-49 0 -80 31t-31 80q0 51 31 82t80 31q50 0 80.5 -31t30.5 -82q0 -49 -30.5 -80t-80.5 -31z" />
    <glyph glyph-name="at" unicode="@" horiz-adv-x="1926" 
d="M912 75q-128 0 -226 57t-153.5 158.5t-55.5 232.5q0 143 64 256.5t174.5 180t247.5 66.5q111 0 198 -44t141 -125l9 105h161q-7 -55 -14.5 -121.5t-14.5 -136t-12.5 -134.5t-9 -116.5t-3.5 -81.5q0 -60 30 -100.5t74 -40.5q48 0 85.5 48.5t59 131t21.5 185.5
q0 198 -83 346t-233 230t-351 82q-165 0 -305.5 -56t-244.5 -157.5t-162 -238t-58 -297.5q0 -188 78 -329t217.5 -219.5t324.5 -78.5q228 0 416 114l73 -146q-251 -127 -509 -127q-232 0 -408.5 99t-275.5 275.5t-99 408.5q0 196 71 362t200 290t302.5 192t377.5 68
q187 0 341.5 -58t267 -164.5t173.5 -252.5t61 -322q0 -158 -45.5 -280.5t-125.5 -192t-183 -69.5q-85 0 -145 48.5t-84 135.5q-63 -88 -157.5 -136t-209.5 -48zM942 235q85 0 155.5 36.5t117 100.5t59.5 145l5 60q0 87 -36 152t-99.5 101t-148.5 36q-94 0 -169.5 -45
t-119 -122t-43.5 -175q0 -130 77 -209.5t202 -79.5z" />
    <glyph glyph-name="A" unicode="A" horiz-adv-x="1531" 
d="M269 0h-231l610 1500h236l609 -1500h-231l-150 377h-693zM494 571h543l-272 685z" />
    <glyph glyph-name="B" unicode="B" horiz-adv-x="1310" 
d="M144 0v1500h540q224 0 350.5 -100t126.5 -277q0 -120 -58.5 -210t-156.5 -132q134 -35 210 -130.5t76 -233.5q0 -125 -61.5 -219t-173 -146t-260.5 -52h-593zM364 849h311q123 0 196 63t73 168t-74.5 165.5t-203.5 60.5h-302v-457zM364 194h322q97 0 169 31.5t112 88
t40 131.5q0 73 -37.5 127t-106.5 82.5t-162 28.5h-337v-489z" />
    <glyph glyph-name="C" unicode="C" horiz-adv-x="1519" 
d="M1423 191q-104 -104 -247.5 -162.5t-312.5 -58.5t-312 58t-248.5 163.5t-164 248t-58.5 310.5q0 169 58.5 311.5t164 247.5t248.5 163t312 58q168 0 311.5 -58.5t246.5 -161.5l-153 -156q-75 85 -179.5 133.5t-228.5 48.5q-120 0 -221 -43.5t-176 -123t-116.5 -186.5
t-41.5 -233t41.5 -233t116.5 -186.5t176 -123t221 -43.5q124 0 228.5 48.5t178.5 133.5z" />
    <glyph glyph-name="D" unicode="D" horiz-adv-x="1562" 
d="M144 0v1500h452q274 0 473 -90.5t306 -258.5t107 -401q0 -232 -107 -400.5t-306 -259t-473 -90.5h-452zM364 194h241q207 0 353 65.5t222.5 190t76.5 300.5q0 177 -76.5 301t-222.5 189.5t-353 65.5h-241v-1112z" />
    <glyph glyph-name="E" unicode="E" horiz-adv-x="1223" 
d="M144 0v1500h935v-194h-715v-449h674v-194h-674v-469h725v-194h-945z" />
    <glyph glyph-name="F" unicode="F" horiz-adv-x="1193" 
d="M144 0v1500h915v-194h-695v-449h654v-194h-654v-663h-220z" />
    <glyph glyph-name="G" unicode="G" horiz-adv-x="1660" 
d="M1263 1179q-78 76 -183 116.5t-223 40.5q-121 0 -222.5 -42t-175 -120t-114 -185t-40.5 -236t40 -237t113.5 -187t174 -122t220.5 -43q108 0 199 35t160 100t112 156t55 201h-511v171h706l6 -82q0 -171 -53 -313t-150.5 -245.5t-231 -160t-294.5 -56.5
q-166 0 -306.5 58.5t-245 164t-162 247.5t-57.5 308q0 168 58 310.5t162.5 248.5t245.5 164.5t307 58.5q157 0 299.5 -54t253.5 -155z" />
    <glyph glyph-name="H" unicode="H" horiz-adv-x="1502" 
d="M364 0h-220v1500h220v-664h774v664h220v-1500h-220v643h-774v-643z" />
    <glyph glyph-name="I" unicode="I" horiz-adv-x="508" 
d="M364 1500h-220v-1500h220v1500z" />
    <glyph glyph-name="J" unicode="J" horiz-adv-x="514" 
d="M-196 -360l-10 193q179 0 267.5 86.5t88.5 259.5v1321h220v-1315q0 -191 -58.5 -311.5t-183 -177t-324.5 -56.5z" />
    <glyph glyph-name="K" unicode="K" horiz-adv-x="1410" 
d="M365 0h-221v1500h220v-849q36 54 70 100t59 78l534 671h261l-548 -689l658 -811h-285l-514 634l-234 -295v-339z" />
    <glyph glyph-name="L" unicode="L" horiz-adv-x="1148" 
d="M1084 0h-940v1500h220v-1306h720v-194z" />
    <glyph glyph-name="M" unicode="M" horiz-adv-x="1830" 
d="M1686 0h-220v1189l-459 -937h-186l-457 932v-1184h-220v1500h282l488 -1011l488 1011h284v-1500z" />
    <glyph glyph-name="N" unicode="N" horiz-adv-x="1612" 
d="M1468 0h-242l-862 1158v-1158h-220v1500h242l862 -1159v1159h220v-1500z" />
    <glyph glyph-name="O" unicode="O" horiz-adv-x="1725" 
d="M863 -30q-169 0 -312.5 58t-249 163.5t-163.5 248t-58 310.5q0 169 58 311.5t163.5 247.5t249 163t312.5 58q170 0 312.5 -58t248 -163t163.5 -247.5t58 -311.5q0 -168 -58 -310.5t-163.5 -248t-248 -163.5t-312.5 -58zM863 164q120 0 222 44t177 123.5t116.5 186
t41.5 232.5t-41.5 233t-116.5 186.5t-177 123t-222 43.5t-221.5 -43.5t-177 -123t-117.5 -186.5t-42 -233t42 -233t117.5 -186.5t177 -123t221.5 -43.5z" />
    <glyph glyph-name="P" unicode="P" horiz-adv-x="1306" 
d="M144 0v1500h479q186 0 319.5 -58.5t204.5 -167t71 -259.5q0 -150 -71 -259.5t-204.5 -168.5t-318.5 -59h-260v-528h-220zM364 722h239q187 0 288.5 77.5t101.5 215.5t-101.5 214.5t-288.5 76.5h-239v-584z" />
    <glyph glyph-name="Q" unicode="Q" horiz-adv-x="1727" 
d="M1586 -234q-145 27 -256 54t-209.5 63.5t-211.5 87.5h-46q-169 0 -312.5 58t-249 163t-163.5 247.5t-58 310.5q0 169 58 311.5t163.5 247.5t249 163t312.5 58q170 0 312.5 -58t248 -163t163.5 -247.5t58 -311.5q0 -172 -61 -317t-171.5 -250t-258.5 -159q87 -23 163 -38
t152.5 -23.5t162.5 -12.5zM863 164q120 0 222 44t177 123.5t116.5 186t41.5 232.5t-41.5 233t-116.5 186.5t-177 123t-222 43.5t-221.5 -43.5t-177 -123t-117.5 -186.5t-42 -233t42 -233t117.5 -186.5t177 -123t221.5 -43.5z" />
    <glyph glyph-name="R" unicode="R" horiz-adv-x="1381" 
d="M1317 0h-245l-343 587h-365v-587h-220v1500h582q168 0 288 -55t185 -157t65 -244q0 -159 -81 -268t-229 -155zM364 773h347q154 0 241 70.5t87 196.5q0 125 -86.5 195.5t-241.5 70.5h-347v-533z" />
    <glyph glyph-name="S" unicode="S" horiz-adv-x="1207" 
d="M74 151l105 169q67 -54 131.5 -89.5t130.5 -52t135 -16.5q94 0 164 30t109 84t39 124q0 79 -45.5 131t-118.5 89.5t-156 71.5q-73 30 -145.5 65.5t-132 82.5t-95 114.5t-35.5 163.5q0 123 62 216t171.5 144t252.5 51q97 0 198.5 -25.5t198.5 -75.5l-89 -179
q-70 41 -148.5 64t-151.5 23q-80 0 -140.5 -26t-94.5 -73t-34 -110q0 -71 43 -120t112.5 -85.5t147.5 -70.5q76 -34 151.5 -71.5t137 -88.5t99 -121.5t37.5 -169.5q0 -129 -66 -225.5t-184.5 -150.5t-277.5 -54q-141 0 -269.5 45.5t-241.5 135.5z" />
    <glyph glyph-name="T" unicode="T" horiz-adv-x="1218" 
d="M719 0h-220v1306h-469v194h1158v-194h-469v-1306z" />
    <glyph glyph-name="U" unicode="U" horiz-adv-x="1564" 
d="M1420 1500v-828q0 -218 -76.5 -376t-219.5 -242t-342 -84t-342 84t-219.5 242t-76.5 376v828h220v-806q0 -170 49 -288.5t142.5 -180t226.5 -61.5t226.5 61.5t142.5 180t49 288.5v806h220z" />
    <glyph glyph-name="V" unicode="V" horiz-adv-x="1564" 
d="M901 0h-238l-609 1500h232l496 -1256l496 1256h232z" />
    <glyph glyph-name="W" unicode="W" horiz-adv-x="2165" 
d="M1633 0h-196l-353 1129l-354 -1129h-196l-488 1500h230l355 -1132l355 1132h195l354 -1130l353 1130h231z" />
    <glyph glyph-name="X" unicode="X" horiz-adv-x="1526" 
d="M1480 0h-276l-447 613l-449 -613h-262l580 776l-535 724h276l405 -555l400 555h266l-537 -722z" />
    <glyph glyph-name="Y" unicode="Y" horiz-adv-x="1419" 
d="M819 0h-220v641l-577 859h267l420 -671l422 671h266l-578 -861v-639z" />
    <glyph glyph-name="Z" unicode="Z" horiz-adv-x="1289" 
d="M1209 0h-1129v166l829 1140h-789v194h1074v-176l-821 -1130h836v-194z" />
    <glyph glyph-name="bracketleft" unicode="[" horiz-adv-x="644" 
d="M580 -289h-436v1829h436v-164h-255v-1499h255v-166z" />
    <glyph glyph-name="backslash" unicode="\" horiz-adv-x="861" 
d="M847 -20h-195l-638 1540h196z" />
    <glyph glyph-name="bracketright" unicode="]" horiz-adv-x="644" 
d="M500 -289h-436v164h256v1501h-256v164h436v-1829z" />
    <glyph glyph-name="asciicircum" unicode="^" horiz-adv-x="1063" 
d="M999 700h-162l-306 630l-305 -630h-162l408 800h118z" />
    <glyph glyph-name="underscore" unicode="_" horiz-adv-x="1349" 
d="M1205 0h-1061v164h1061v-164z" />
    <glyph glyph-name="grave" unicode="`" horiz-adv-x="501" 
d="M417 1165h-148l-195 335h191z" />
    <glyph glyph-name="a" unicode="a" horiz-adv-x="1103" 
d="M979 0h-177l-12 128q-55 -70 -139 -109t-186 -39q-107 0 -191 42t-132 115t-48 166q0 98 52 172.5t142 117t205 42.5q72 0 146.5 -17t134.5 -48v37q0 73 -37.5 125.5t-102 80.5t-142.5 28q-69 0 -140.5 -24t-134.5 -74l-62 167q91 54 189.5 82t193.5 28q136 0 234.5 -54
t152.5 -153.5t54 -234.5v-578zM505 154q71 0 131 29.5t97.5 84t40.5 127.5v14q-51 38 -114.5 59.5t-129.5 21.5q-101 0 -168 -48t-67 -123q0 -47 27.5 -84.5t75 -59t107.5 -21.5z" />
    <glyph glyph-name="b" unicode="b" horiz-adv-x="1280" 
d="M325 0h-181v1500h205v-628q68 70 159.5 109t199.5 39q145 0 258 -68t178.5 -185.5t65.5 -266.5q0 -148 -65.5 -266t-178.5 -186t-258 -68q-114 0 -209.5 43.5t-163.5 119.5zM675 164q93 0 166.5 44t116 120t42.5 172t-42.5 172t-116 120t-166.5 44q-89 0 -160.5 -40
t-115.5 -110t-50 -160v-51q6 -89 49.5 -159.5t115 -111t161.5 -40.5z" />
    <glyph glyph-name="c" unicode="c" horiz-adv-x="1061" 
d="M993 149q-73 -81 -175 -125t-221 -44q-150 0 -269.5 68t-188.5 186t-69 266q0 149 69 266.5t188.5 185.5t269.5 68q118 0 220 -43.5t175 -124.5l-121 -127q-49 52 -117.5 80.5t-145.5 28.5q-95 0 -169 -43t-116 -117.5t-42 -172.5q0 -97 42 -173t116 -119t169 -43
q77 0 146 29t117 80z" />
    <glyph glyph-name="d" unicode="d" horiz-adv-x="1282" 
d="M1138 0h-181l-11 143q-68 -76 -163.5 -119.5t-209.5 -43.5q-144 0 -258 68t-179.5 186t-65.5 266q0 149 65.5 266.5t179.5 185.5t258 68q108 0 200.5 -39t159.5 -109v628h205v-1500zM607 164q91 0 164.5 42t117.5 114t44 164v34q0 92 -44 164t-117.5 113t-164.5 41
q-93 0 -167 -44t-117 -119.5t-43 -171.5t43 -172t117 -120.5t167 -44.5z" />
    <glyph glyph-name="e" unicode="e" horiz-adv-x="1165" 
d="M1036 119q-186 -139 -409 -139q-159 0 -285 70t-199 191t-73 273q0 145 67 259.5t183 180.5t263 66q152 0 267.5 -72t180 -200.5t64.5 -297.5v-32h-803q18 -78 67.5 -136.5t124 -91t167.5 -32.5q166 0 305 108zM283 560h621q-10 84 -52 146.5t-108.5 98t-149.5 35.5
q-84 0 -151 -35.5t-108.5 -98.5t-51.5 -146z" />
    <glyph glyph-name="f" unicode="f" horiz-adv-x="856" 
d="M426 0h-205v817h-175v183h175v195q0 98 43.5 173.5t120 118.5t176.5 43q62 0 125 -17t124 -53l-78 -161q-33 24 -68.5 35.5t-70.5 11.5q-73 0 -120 -52t-47 -139v-155h306v-183h-306v-817z" />
    <glyph glyph-name="g" unicode="g" horiz-adv-x="1257" 
d="M564 -4q-141 0 -253 67t-176.5 183t-64.5 262q0 147 64.5 262.5t176.5 182.5t254 67q112 0 206.5 -43t160.5 -118l10 141h181v-973q0 -168 -68.5 -290.5t-193.5 -189.5t-296 -67q-241 0 -425 157l87 166q135 -139 326 -139q111 0 192.5 46t127 128.5t45.5 194.5v109
q-66 -68 -157 -107t-197 -39zM598 178q88 0 160.5 40t116 109.5t43.5 158.5v45q0 89 -43.5 158t-116 109t-160.5 40q-92 0 -164 -43.5t-114 -118t-42 -168.5t42 -169t114 -118t164 -43z" />
    <glyph glyph-name="h" unicode="h" 
d="M144 0v1500h205v-639q111 159 337 159q195 0 305 -118t110 -329v-573h-205v523q0 149 -71.5 231t-199.5 82q-129 0 -202.5 -83.5t-73.5 -229.5v-523h-205z" />
    <glyph glyph-name="i" unicode="i" horiz-adv-x="500" 
d="M250 1290q-47 0 -79 33t-32 80t32 79.5t79 32.5q48 0 80.5 -32.5t32.5 -79.5t-32.5 -80t-80.5 -33zM352 0h-205v1000h205v-1000z" />
    <glyph glyph-name="j" unicode="j" horiz-adv-x="508" 
d="M264 1290q-47 0 -79 33t-32 80t32 79.5t79 32.5t79.5 -32.5t32.5 -79.5t-32.5 -80t-79.5 -33zM-124 -505v162q16 -3 30.5 -4t27.5 -1q103 0 165 71.5t62 193.5v1083h206v-1092q0 -207 -93.5 -317.5t-266.5 -110.5q-30 0 -63 4t-68 11z" />
    <glyph glyph-name="k" unicode="k" horiz-adv-x="1173" 
d="M349 0h-205v1500h205v-1011l85 102l386 409h257l-413 -438l471 -562h-265l-348 422l-173 -178v-244z" />
    <glyph glyph-name="l" unicode="l" horiz-adv-x="506" 
d="M362 0h-218v1540h218v-1540z" />
    <glyph glyph-name="m" unicode="m" horiz-adv-x="1866" 
d="M1742 0h-205v523q0 149 -63.5 231t-178.5 82q-117 0 -183 -83t-66 -230v-523h-205v523q0 149 -64 231t-179 82q-117 0 -183 -83t-66 -230v-523h-205v1000h166l8 -174q50 95 135.5 144.5t201.5 49.5q123 0 211 -54t133 -155q50 103 138.5 156t210.5 53q186 0 290 -118
t104 -329v-573z" />
    <glyph glyph-name="n" unicode="n" 
d="M1101 0h-205v558q0 128 -68.5 202t-186.5 74q-84 0 -150 -38t-104 -107.5t-38 -161.5v-527h-205v1000h173l7 -161q55 88 150 134.5t215 46.5q190 0 301 -115t111 -312v-593z" />
    <glyph glyph-name="o" unicode="o" horiz-adv-x="1194" 
d="M598 -20q-150 0 -270 68t-189 185.5t-69 266.5q0 148 69 265.5t189 186t270 68.5q151 0 270 -68.5t187.5 -186t68.5 -265.5q0 -149 -68.5 -266.5t-187.5 -185.5t-270 -68zM597 164q91 0 162.5 44.5t113 120t41.5 171.5t-41.5 171.5t-113 120t-162.5 44.5
q-90 0 -162 -44.5t-113.5 -120t-41.5 -171.5t41.5 -171.5t113.5 -120t162 -44.5z" />
    <glyph glyph-name="p" unicode="p" horiz-adv-x="1281" 
d="M349 -500h-205v1500h181l11 -143q68 76 163.5 119.5t209.5 43.5q144 0 257.5 -68t179 -185.5t65.5 -266.5q0 -148 -65.5 -266t-179 -186t-257.5 -68q-108 0 -200 39t-160 109v-628zM676 166q95 0 168 43t114.5 118.5t41.5 173.5t-41.5 173.5t-114.5 118.5t-167 43
q-89 0 -160.5 -39.5t-116 -108.5t-51.5 -157v-62q7 -88 50.5 -156.5t115 -107.5t161.5 -39z" />
    <glyph glyph-name="q" unicode="q" horiz-adv-x="1281" 
d="M1137 -500h-205v628q-67 -70 -159.5 -109t-200.5 -39q-144 0 -257.5 68t-179 186t-65.5 266q0 149 65.5 266.5t179 185.5t257.5 68q114 0 210 -43.5t164 -119.5l10 143h181v-1500zM606 166q90 0 161 38.5t115 107t50 156.5v63q-6 89 -49.5 157.5t-114 107t-161.5 38.5
q-95 0 -168 -43t-115 -118t-42 -173q0 -97 41.5 -172.5t114.5 -118.5t168 -43z" />
    <glyph glyph-name="r" unicode="r" horiz-adv-x="816" 
d="M349 0h-205v1000h179l8 -190q52 99 143.5 154.5t210.5 55.5q29 0 58.5 -3.5t59.5 -10.5l-26 -185q-58 15 -114 15q-93 0 -164 -44.5t-110.5 -122.5t-39.5 -180v-489z" />
    <glyph glyph-name="s" unicode="s" horiz-adv-x="878" 
d="M74 87l50 184q34 -34 81.5 -60t101 -40.5t105.5 -14.5q82 0 132 35t50 93q0 43 -27.5 71.5t-73 49.5t-97.5 41q-67 25 -133.5 58t-111.5 88t-45 145q0 86 44 149.5t123 98.5t182 35q160 0 317 -80l-60 -175q-32 23 -76 41t-90 28.5t-85 10.5q-65 0 -104.5 -29t-39.5 -78
q0 -30 19 -54.5t60.5 -48t112.5 -52.5q68 -27 136 -62t113.5 -91t45.5 -147q0 -90 -48 -158.5t-133.5 -106.5t-198.5 -38q-187 0 -350 107z" />
    <glyph glyph-name="t" unicode="t" horiz-adv-x="822" 
d="M764 25q-105 -45 -203 -45t-171.5 42t-115 118.5t-41.5 176.5v500h-175v183h185v250h195v-250h292v-183h-292v-462q0 -88 47.5 -139.5t122.5 -51.5q63 0 125 38z" />
    <glyph glyph-name="u" unicode="u" 
d="M1081 0h-174l-7 161q-55 -88 -143.5 -134.5t-209.5 -46.5q-196 0 -309.5 119.5t-113.5 327.5v573h205v-543q0 -133 72 -212t194 -79q126 0 203.5 84.5t77.5 222.5v527h205v-1000z" />
    <glyph glyph-name="v" unicode="v" horiz-adv-x="1159" 
d="M1095 1000l-416 -1000h-199l-416 1000h220l297 -789l297 789h217z" />
    <glyph glyph-name="w" unicode="w" horiz-adv-x="1613" 
d="M1246 0h-236l-204 715l-204 -715h-236l-320 1000h217l219 -766l231 766h186l231 -767l220 767h217z" />
    <glyph glyph-name="x" unicode="x" horiz-adv-x="1155" 
d="M283 0h-269l428 515l-399 485h274l262 -334l258 334h269l-393 -481l428 -519h-275l-289 369z" />
    <glyph glyph-name="y" unicode="y" horiz-adv-x="1215" 
d="M549 -500h-221l209 506l-487 994h229l356 -759l314 759h220z" />
    <glyph glyph-name="z" unicode="z" horiz-adv-x="1064" 
d="M994 0h-924v109l579 707h-550v184h867v-93l-592 -723h620v-184z" />
    <glyph glyph-name="braceleft" unicode="{" horiz-adv-x="633" 
d="M569 -289q-168 0 -254.5 68.5t-86.5 202.5v383q0 86 -47.5 148.5t-116.5 67.5v89q69 5 116.5 67.5t47.5 148.5v383q0 134 86.5 202.5t254.5 68.5v-165q-84 0 -122 -35.5t-38 -114.5v-345q0 -86 -42 -154t-115 -101q73 -33 115 -101t42 -154v-342q0 -80 38 -116t122 -36
v-165z" />
    <glyph glyph-name="bar" unicode="|" horiz-adv-x="468" 
d="M324 -250h-180v1790h180v-1790z" />
    <glyph glyph-name="braceright" unicode="}" horiz-adv-x="633" 
d="M64 -289v165q84 0 122 36.5t38 115.5v342q0 86 42.5 154t114.5 101q-72 33 -114.5 101.5t-42.5 153.5v345q0 79 -38 115t-122 36v164q169 0 255 -68.5t86 -202.5v-383q0 -86 47.5 -148.5t116.5 -67.5v-89q-69 -5 -116.5 -67.5t-47.5 -148.5v-383q0 -134 -86 -202.5
t-255 -68.5z" />
    <glyph glyph-name="asciitilde" unicode="~" horiz-adv-x="1330" 
d="M1186 598q-72 -77 -138 -112.5t-135 -35.5q-64 0 -123.5 24t-118.5 52q-60 29 -120.5 53.5t-125.5 24.5q-137 0 -281 -144v152q147 144 285 144q50 0 105.5 -18.5t138.5 -58.5q59 -29 118.5 -53t123.5 -24q134 0 271 148v-152z" />
    <glyph glyph-name="uni00A0" unicode="&#xa0;" horiz-adv-x="488" 
 />
    <glyph glyph-name="exclamdown" unicode="&#xa1;" horiz-adv-x="468" 
d="M234 798q-48 0 -80.5 32.5t-32.5 79.5q0 46 32.5 78t80.5 32t80.5 -32t32.5 -78q0 -47 -32.5 -79.5t-80.5 -32.5zM319 -500h-171l36 1095h99z" />
    <glyph glyph-name="cent" unicode="&#xa2;" horiz-adv-x="1061" 
d="M993 289q-60 -67 -144 -110t-183 -55l2 -184h-137l2 183q-134 15 -238.5 85t-164.5 182t-60 250t60 250t164.5 182.5t238.5 84.5l-2 183h136l-2 -184q99 -11 183 -53.5t144 -110.5l-121 -127q-47 52 -114.5 81.5t-144.5 29.5q-95 0 -170 -44t-118.5 -119.5t-43.5 -171.5
t43.5 -172.5t118 -120.5t169.5 -44q78 0 146 30t114 81z" />
    <glyph glyph-name="sterling" unicode="&#xa3;" horiz-adv-x="1218" 
d="M908 682h-372q9 -36 13 -70.5t4 -69.5q0 -103 -35.5 -191.5t-109.5 -166.5h667v-184h-951v119q123 83 191 190.5t68 227.5q0 34 -6 69.5t-19 75.5h-244v136h196q-37 90 -53 154t-16 125q0 123 56 218.5t153.5 150t222.5 54.5q130 0 242.5 -61t188.5 -171l-135 -103
q-50 73 -119 112.5t-147 39.5q-77 0 -134 -36t-88.5 -99.5t-31.5 -149.5q0 -47 10.5 -96.5t41.5 -137.5h407v-136z" />
    <glyph glyph-name="currency" unicode="&#xa4;" horiz-adv-x="1270" 
d="M1155 347l-84 -85l-162 163q-56 -43 -126 -66.5t-148 -23.5t-148.5 23.5t-127.5 66.5l-160 -163l-85 85l163 161q-43 56 -65.5 126t-22.5 149q0 78 22.5 148t65.5 126l-163 161l85 85l160 -163q57 44 127 66.5t149 22.5t148 -22.5t126 -66.5l162 164l85 -85l-164 -162
q44 -56 66.5 -126t22.5 -148q0 -79 -23 -149t-67 -126zM635 474q85 0 152 40.5t105 110t38 158.5t-38.5 158.5t-105.5 109.5t-152 40q-84 0 -151 -40t-105 -109.5t-38 -158.5t38.5 -158.5t105 -110t151.5 -40.5z" />
    <glyph glyph-name="yen" unicode="&#xa5;" horiz-adv-x="1244" 
d="M728 0h-211v306h-339v94h339v158h-339v94h333l-479 848h240l349 -697l351 697h240l-476 -848h329v-94h-337v-158h337v-94h-337v-306z" />
    <glyph glyph-name="brokenbar" unicode="&#xa6;" horiz-adv-x="469" 
d="M325 820h-181v720h181v-720zM325 -250h-181v720h181v-720z" />
    <glyph glyph-name="section" unicode="&#xa7;" horiz-adv-x="1043" 
d="M172 -12l70 157q51 -31 119 -50.5t126 -19.5q80 0 128.5 37t48.5 97q0 49 -30.5 81.5t-80.5 58t-110 50.5q-68 29 -137.5 65.5t-115.5 94t-46 150.5q0 94 52.5 167t145.5 115q-46 26 -83.5 59t-59.5 77.5t-22 104.5q0 88 48 155.5t133 105t197 37.5q165 0 316 -78
l-70 -157q-51 31 -119 50.5t-126 19.5q-80 0 -129 -37t-49 -99q0 -37 21.5 -66.5t69.5 -57.5t126 -61q72 -30 141.5 -67.5t116 -95t46.5 -150.5t-52.5 -166t-145.5 -116q47 -26 84.5 -59t59 -77.5t21.5 -104.5q0 -88 -47.5 -155.5t-133 -105t-198.5 -37.5q-164 0 -315 78z
M617 492q56 29 89 78.5t33 114.5q0 58 -30.5 103.5t-99.5 84.5t-183 75q-56 -29 -89.5 -78t-33.5 -111q0 -58 32 -104.5t101.5 -86t180.5 -76.5z" />
    <glyph glyph-name="dieresis" unicode="&#xa8;" horiz-adv-x="903" 
d="M675 1236q-45 0 -72.5 28t-27.5 72q0 45 27.5 72.5t72.5 27.5t72 -27.5t27 -72.5q0 -44 -27 -72t-72 -28zM229 1236q-44 0 -72 28t-28 72q0 45 28 72.5t72 27.5q45 0 72.5 -27.5t27.5 -72.5q0 -44 -27.5 -72t-72.5 -28z" />
    <glyph glyph-name="copyright" unicode="&#xa9;" horiz-adv-x="1327" 
d="M664 -104q-173 0 -309 77.5t-213.5 213t-77.5 308.5t77.5 308t213.5 212.5t309 77.5t308.5 -77.5t213 -212.5t77.5 -308t-77.5 -308.5t-213 -213t-308.5 -77.5zM664 18q137 0 243.5 62t167.5 169.5t61 243.5q0 138 -61.5 245.5t-168 170t-242.5 62.5t-243 -62
t-168.5 -170t-61.5 -246q0 -136 61 -244t168 -169.5t244 -61.5zM926 262q-100 -92 -245 -92q-95 0 -170 42t-117.5 116t-42.5 167q0 94 42.5 167t117.5 115t170 42q143 0 245 -92l-80 -83q-28 31 -68.5 47.5t-88.5 16.5q-95 0 -154 -59t-59 -155q0 -95 59 -153.5t154 -58.5
q48 0 89 16.5t70 47.5z" />
    <glyph glyph-name="ordfeminine" unicode="&#xaa;" horiz-adv-x="831" 
d="M687 810h-112l-7 108q-35 -57 -93.5 -87.5t-131.5 -30.5q-108 0 -178.5 60t-70.5 150q0 64 37 114t101.5 79t146.5 29q51 0 97.5 -11.5t87.5 -32.5v16q0 92 -50.5 145.5t-136.5 53.5q-49 0 -98 -18t-90 -50l-56 98q115 87 260 87q135 0 214.5 -75t79.5 -202v-433z
M371 902q53 0 97 21t70 57.5t26 80.5v44q-71 52 -164 52q-79 0 -130 -38t-51 -96q0 -54 42.5 -87.5t109.5 -33.5z" />
    <glyph glyph-name="guillemotleft" unicode="&#xab;" horiz-adv-x="1163" 
d="M584 111h-197l-323 386l323 385h197l-333 -386zM1019 111h-197l-323 386l323 385h197l-333 -386z" />
    <glyph glyph-name="logicalnot" unicode="&#xac;" horiz-adv-x="1085" 
d="M941 98h-180v332h-617v164h797v-496z" />
    <glyph glyph-name="uni00AD" unicode="&#xad;" horiz-adv-x="1136" 
d="M992 411h-848v164h848v-164z" />
    <glyph glyph-name="registered" unicode="&#xae;" horiz-adv-x="1327" 
d="M664 423q-173 0 -309 77.5t-213.5 213t-77.5 308.5t77.5 308t213.5 212.5t309 77.5t308.5 -77.5t213 -212.5t77.5 -308t-77.5 -308.5t-213 -213t-308.5 -77.5zM664 546q137 0 243.5 61.5t167.5 169t61 243.5q0 138 -61.5 245.5t-168 170t-242.5 62.5t-243 -62t-169 -170
t-62 -246q0 -136 61.5 -243.5t168.5 -169t244 -61.5zM924 702h-136l-133 255h-92v-254h-120v642h226q107 0 169 -52.5t62 -142.5q0 -63 -31.5 -108.5t-89.5 -67.5zM563 1063h85q67 0 99 22t32 67t-32 66t-99 21h-85v-176z" />
    <glyph glyph-name="macron" unicode="&#xaf;" horiz-adv-x="947" 
d="M803 1279h-659v121h659v-121z" />
    <glyph glyph-name="degree" unicode="&#xb0;" horiz-adv-x="688" 
d="M344 960q-82 0 -145 36.5t-99 99.5t-36 144q0 82 36 144.5t99 99t145 36.5q81 0 144 -36.5t99.5 -99t36.5 -144.5q0 -81 -36.5 -144t-99.5 -99.5t-144 -36.5zM344 1074q68 0 113 47t45 119t-45 119t-113 47q-70 0 -114.5 -47t-44.5 -119t44.5 -119t114.5 -47z" />
    <glyph glyph-name="plusminus" unicode="&#xb1;" horiz-adv-x="1136" 
d="M659 273h-181v338h-334v164h334v330h181v-330h333v-164h-333v-338zM992 0h-847v159h847v-159z" />
    <glyph glyph-name="uni00B2" unicode="&#xb2;" horiz-adv-x="755" 
d="M621 790h-441v71q112 97 180.5 173t100.5 137.5t32 114.5q0 60 -34.5 97.5t-90.5 37.5q-47 0 -89.5 -26t-70.5 -72l-64 69q41 60 106.5 94t136.5 34q97 0 159.5 -61.5t62.5 -157.5q0 -64 -30 -131t-90.5 -136.5t-150.5 -142.5h283v-101z" />
    <glyph glyph-name="uni00B3" unicode="&#xb3;" horiz-adv-x="725" 
d="M134 872l47 83q78 -66 160 -66q58 0 95.5 35t37.5 87q0 56 -45.5 86t-128.5 30h-32v83h32q66 0 109.5 32.5t43.5 80.5q0 42 -32.5 70t-82.5 28q-72 0 -135 -59l-54 79q82 79 199 79q93 0 153.5 -50.5t60.5 -128.5q0 -57 -32.5 -101.5t-86.5 -67.5q68 -18 108 -64.5
t40 -112.5q0 -88 -68 -146.5t-172 -58.5q-124 0 -217 82z" />
    <glyph glyph-name="acute" unicode="&#xb4;" horiz-adv-x="501" 
d="M231 1165h-147l152 335h191z" />
    <glyph glyph-name="mu" unicode="&#xb5;" horiz-adv-x="1308" 
d="M1268 -20q-119 0 -197 42t-116 128q-52 -81 -135 -125.5t-191 -44.5q-187 0 -286 134v-614h-195v1500h201v-523q0 -144 72.5 -228.5t195.5 -84.5q122 0 192.5 84t70.5 229v523h205v-661q0 -206 193 -206z" />
    <glyph glyph-name="paragraph" unicode="&#xb6;" horiz-adv-x="1295" 
d="M1151 -150h-148v1504h-200v-1504h-147v797q-163 0 -282.5 53t-184.5 150.5t-65 231.5q0 130 62.5 223.5t179 144t278.5 50.5h507v-1650z" />
    <glyph glyph-name="periodcentered" unicode="&#xb7;" horiz-adv-x="470" 
d="M235 418q-50 0 -81 31t-31 81t31 81t81 31q49 0 80.5 -31t31.5 -81t-31.5 -81t-80.5 -31z" />
    <glyph glyph-name="cedilla" unicode="&#xb8;" horiz-adv-x="589" 
d="M114 -392l37 94q43 -19 88 -19q52 0 86.5 25.5t34.5 63.5q0 41 -38 67.5t-98 26.5h-11t-11 -1l55 142h88l-38 -89q74 -7 119 -49t45 -109q0 -77 -61 -127.5t-158 -50.5q-68 0 -138 26z" />
    <glyph glyph-name="uni00B9" unicode="&#xb9;" horiz-adv-x="493" 
d="M349 780h-120v605l-129 -46l-36 93l188 68h97v-720z" />
    <glyph glyph-name="ordmasculine" unicode="&#xba;" horiz-adv-x="848" 
d="M424 800q-103 0 -185 47t-128.5 128.5t-46.5 184.5q0 104 46.5 185.5t128 128t185.5 46.5q105 0 185.5 -46.5t127.5 -128t47 -185.5t-47 -185.5t-127.5 -128t-185.5 -46.5zM425 911q69 0 122 32.5t83.5 88.5t30.5 128q0 73 -30.5 129t-83.5 88t-122 32q-68 0 -122 -32.5
t-85 -88.5t-31 -128t31 -128t85 -88.5t122 -32.5z" />
    <glyph glyph-name="guillemotright" unicode="&#xbb;" horiz-adv-x="1163" 
d="M341 111h-197l332 385l-332 386h197l323 -385zM776 111h-197l333 385l-333 386h197l323 -385z" />
    <glyph glyph-name="onequarter" unicode="&#xbc;" horiz-adv-x="1630" 
d="M374 0h-137l1021 1540h130zM399 780h-120v605l-129 -46l-36 93l188 68h97v-720zM1431 0h-116v161h-349v90l354 469h111v-457h85v-102h-85v-161zM1073 263h242v321z" />
    <glyph glyph-name="onehalf" unicode="&#xbd;" horiz-adv-x="1678" 
d="M374 0h-137l1021 1540h130zM399 780h-120v605l-129 -46l-36 93l188 68h97v-720zM1564 0h-445v64q116 102 186 177.5t101 136t31 115.5q0 65 -36 105t-92 40q-85 0 -143 -91l-65 72q40 58 100.5 89.5t127.5 31.5q95 0 161 -61t66 -164q0 -67 -32 -137t-92.5 -139.5
t-145.5 -136.5h278v-102z" />
    <glyph glyph-name="threequarters" unicode="&#xbe;" horiz-adv-x="1642" 
d="M387 0h-137l1021 1540h130zM114 868l46 85q76 -63 150 -63q57 0 95 33.5t38 84.5q0 54 -46.5 86.5t-123.5 32.5h-27v84h18q68 0 113 32t45 80q0 41 -32.5 68.5t-80.5 27.5q-63 0 -128 -51l-52 78q81 74 192 74q91 0 150.5 -49t59.5 -126q0 -57 -34 -103.5t-92 -69.5
q73 -19 114.5 -66.5t41.5 -112.5q0 -87 -68.5 -145t-172.5 -58q-117 0 -206 78zM1444 0h-116v161h-350v90l355 469h111v-457h84v-102h-84v-161zM1085 263h243v321z" />
    <glyph glyph-name="questiondown" unicode="&#xbf;" horiz-adv-x="928" 
d="M543 1030q49 0 80.5 -31t31.5 -80q0 -51 -31.5 -82t-80.5 -31q-50 0 -81 31t-31 82q0 49 31 80t81 31zM768 -216l96 -168q-176 -136 -382 -136q-117 0 -204 42t-135.5 119t-48.5 180q0 71 21.5 123.5t56.5 95.5t75 85q49 53 96.5 114.5t79 148.5t31.5 217h178
q0 -152 -32.5 -252t-79.5 -165.5t-92 -116.5q-49 -55 -83.5 -105.5t-34.5 -120.5q0 -83 53 -132t143 -49q71 0 139 31.5t123 88.5z" />
    <glyph glyph-name="Agrave" unicode="&#xc0;" horiz-adv-x="1531" 
d="M829 1665h-148l-195 335h191zM269 0h-231l610 1500h236l609 -1500h-231l-150 377h-693zM494 571h543l-272 685z" />
    <glyph glyph-name="Aacute" unicode="&#xc1;" horiz-adv-x="1531" 
d="M851 1665h-147l152 335h191zM269 0h-231l610 1500h236l609 -1500h-231l-150 377h-693zM494 571h543l-272 685z" />
    <glyph glyph-name="Acircumflex" unicode="&#xc2;" horiz-adv-x="1531" 
d="M1068 1665h-153l-150 249l-150 -249h-152l215 335h175zM269 0h-231l610 1500h236l609 -1500h-231l-150 377h-693zM494 571h543l-272 685z" />
    <glyph glyph-name="Atilde" unicode="&#xc3;" horiz-adv-x="1531" 
d="M1113 1954q-6 -108 -57.5 -165.5t-140.5 -57.5q-54 0 -93 20.5t-82 52.5q-24 20 -53.5 36.5t-68.5 16.5q-101 0 -115 -116h-85q14 223 198 223q62 0 104 -22.5t75 -47.5q29 -22 58.5 -38.5t66.5 -16.5q94 0 108 115h85zM269 0h-231l610 1500h236l609 -1500h-231l-150 377
h-693zM494 571h543l-272 685z" />
    <glyph glyph-name="Adieresis" unicode="&#xc4;" horiz-adv-x="1531" 
d="M269 0h-231l610 1500h236l609 -1500h-231l-150 377h-693zM494 571h543l-272 685zM989 1736q-45 0 -72.5 28t-27.5 72q0 45 27.5 72.5t72.5 27.5t72 -27.5t27 -72.5q0 -44 -27 -72t-72 -28zM543 1736q-44 0 -72 28t-28 72q0 45 28 72.5t72 27.5q45 0 72.5 -27.5
t27.5 -72.5q0 -44 -27.5 -72t-72.5 -28z" />
    <glyph glyph-name="Aring" unicode="&#xc5;" horiz-adv-x="1532" 
d="M765 1590q-97 0 -156 57.5t-59 152.5q0 94 59 152t156 58q96 0 155 -58t59 -152q0 -95 -59 -152.5t-155 -57.5zM765 1679q53 0 85.5 33t32.5 88q0 54 -32.5 87t-85.5 33q-54 0 -86.5 -33t-32.5 -87q0 -55 32.5 -88t86.5 -33zM269 0h-231l610 1500h236l610 -1500h-232
l-150 377h-693zM494 571h543l-272 685z" />
    <glyph glyph-name="AE" unicode="&#xc6;" horiz-adv-x="2170" 
d="M2076 0h-916l-49 357h-643l-187 -357h-251l802 1500h1039l26 -193h-695l63 -451h654l26 -193h-655l65 -469h694zM569 551h516l-107 779h-4z" />
    <glyph glyph-name="Ccedilla" unicode="&#xc7;" horiz-adv-x="1519" 
d="M1423 191q-97 -96 -226 -153.5t-282 -66.5l-23 -53q74 -7 118.5 -49t44.5 -109q0 -77 -61 -127.5t-158 -50.5q-67 0 -138 26l37 94q43 -19 88 -19q53 0 87 25.5t34 63.5q0 41 -38 67.5t-98 26.5h-10.5t-11.5 -1l41 106q-162 6 -298.5 67t-237.5 165.5t-156 243.5t-55 303
q0 169 58.5 311.5t164 247.5t248.5 163t312 58q168 0 311.5 -58.5t246.5 -161.5l-153 -156q-75 85 -179.5 133.5t-228.5 48.5q-120 0 -221 -43.5t-176 -123t-116.5 -186.5t-41.5 -233t41.5 -233t116.5 -186.5t176 -123t221 -43.5q124 0 228.5 48.5t178.5 133.5z" />
    <glyph glyph-name="Egrave" unicode="&#xc8;" horiz-adv-x="1223" 
d="M713 1665h-147l-195 335h190zM144 0v1500h935v-194h-715v-449h674v-194h-674v-469h725v-194h-945z" />
    <glyph glyph-name="Eacute" unicode="&#xc9;" horiz-adv-x="1223" 
d="M668 1665h-147l151 335h192zM144 0v1500h935v-194h-715v-449h674v-194h-674v-469h725v-194h-945z" />
    <glyph glyph-name="Ecircumflex" unicode="&#xca;" horiz-adv-x="1223" 
d="M920 1665h-152l-151 249l-150 -249h-152l215 335h176zM144 0v1500h935v-194h-715v-449h674v-194h-674v-469h725v-194h-945z" />
    <glyph glyph-name="Edieresis" unicode="&#xcb;" horiz-adv-x="1223" 
d="M144 0v1500h935v-194h-715v-449h674v-194h-674v-469h725v-194h-945zM835 1736q-45 0 -72.5 28t-27.5 72q0 45 27.5 72.5t72.5 27.5t72 -27.5t27 -72.5q0 -44 -27 -72t-72 -28zM389 1736q-44 0 -72 28t-28 72q0 45 28 72.5t72 27.5q45 0 72.5 -27.5t27.5 -72.5
q0 -44 -27.5 -72t-72.5 -28z" />
    <glyph glyph-name="Igrave" unicode="&#xcc;" horiz-adv-x="509" 
d="M325 1665l-152 335h-192l196 -335h148zM365 1500h-220v-1500h220v1500z" />
    <glyph glyph-name="Iacute" unicode="&#xcd;" horiz-adv-x="508" 
d="M330 1665l196 335h-192l-152 -335h148zM364 1500h-220v-1500h220v1500z" />
    <glyph glyph-name="Icircumflex" unicode="&#xce;" horiz-adv-x="509" 
d="M557 1665l-215 335h-175l-215 -335h152l150 249l151 -249h152zM365 1500h-220v-1500h220v1500z" />
    <glyph glyph-name="Idieresis" unicode="&#xcf;" horiz-adv-x="508" 
d="M364 1500h-220v-1500h220v1500zM478 1736q-45 0 -72.5 28t-27.5 72q0 45 27.5 72.5t72.5 27.5t72 -27.5t27 -72.5q0 -44 -27 -72t-72 -28zM32 1736q-44 0 -72 28t-28 72q0 45 28 72.5t72 27.5q45 0 72.5 -27.5t27.5 -72.5q0 -44 -27.5 -72t-72.5 -28z" />
    <glyph glyph-name="Eth" unicode="&#xd0;" horiz-adv-x="1594" 
d="M192 0v667h-178v159h178v674h451q275 0 473.5 -90.5t306 -258.5t107.5 -401q0 -232 -107.5 -400.5t-306 -259t-473.5 -90.5h-451zM814 667h-402v-473h240q208 0 353.5 65.5t222.5 190t77 300.5q0 177 -77 301t-222.5 189.5t-353.5 65.5h-240v-480h402v-159z" />
    <glyph glyph-name="Ntilde" unicode="&#xd1;" horiz-adv-x="1612" 
d="M1173 1954q-6 -108 -57 -165.5t-140 -57.5q-55 0 -93.5 20t-76.5 50q-29 22 -58.5 39t-68.5 17q-101 0 -116 -116h-85q15 223 198 223q62 0 103.5 -22.5t75.5 -47.5q30 -22 59 -38.5t66 -16.5q94 0 109 115h84zM1468 0h-242l-862 1158v-1158h-220v1500h242l862 -1159
v1159h220v-1500z" />
    <glyph glyph-name="Ograve" unicode="&#xd2;" horiz-adv-x="1725" 
d="M953 1665h-147l-195 335h190zM863 -30q-169 0 -312.5 58t-249 163.5t-163.5 248t-58 310.5q0 169 58 311.5t163.5 247.5t249 163t312.5 58q170 0 312.5 -58t248 -163t163.5 -247.5t58 -311.5q0 -168 -58 -310.5t-163.5 -248t-248 -163.5t-312.5 -58zM863 164
q120 0 222 44t177 123.5t116.5 186t41.5 232.5t-41.5 233t-116.5 186.5t-177 123t-222 43.5t-221.5 -43.5t-177 -123t-117.5 -186.5t-42 -233t42 -233t117.5 -186.5t177 -123t221.5 -43.5z" />
    <glyph glyph-name="Oacute" unicode="&#xd3;" horiz-adv-x="1725" 
d="M919 1665h-147l151 335h191zM864 -30q-170 0 -313 58t-249 163.5t-164 248t-58 310.5q0 169 58 311.5t164 247.5t249 163t313 58t312.5 -58t248 -163t163 -247.5t57.5 -311.5q0 -168 -57.5 -310.5t-163 -248t-248 -163.5t-312.5 -58zM863 164q120 0 222 44t177 123.5
t116.5 186t41.5 232.5t-41.5 233t-116.5 186.5t-177 123t-222 43.5t-221.5 -43.5t-177 -123t-117.5 -186.5t-42 -233t42 -233t117.5 -186.5t177 -123t221.5 -43.5z" />
    <glyph glyph-name="Ocircumflex" unicode="&#xd4;" horiz-adv-x="1725" 
d="M1165 1665h-152l-150 249l-151 -249h-151l214 335h176zM864 -30q-170 0 -313 58t-249 163.5t-164 248t-58 310.5q0 169 58 311.5t164 247.5t249 163t313 58t312.5 -58t248 -163t163 -247.5t57.5 -311.5q0 -168 -57.5 -310.5t-163 -248t-248 -163.5t-312.5 -58zM863 164
q120 0 222 44t177 123.5t116.5 186t41.5 232.5t-41.5 233t-116.5 186.5t-177 123t-222 43.5t-221.5 -43.5t-177 -123t-117.5 -186.5t-42 -233t42 -233t117.5 -186.5t177 -123t221.5 -43.5z" />
    <glyph glyph-name="Otilde" unicode="&#xd5;" horiz-adv-x="1725" 
d="M1210 1954q-6 -108 -57.5 -165.5t-140.5 -57.5q-54 0 -93.5 20.5t-81.5 52.5q-24 20 -53.5 36.5t-68.5 16.5q-101 0 -116 -116h-84q14 223 197 223q62 0 104 -22.5t76 -47.5q29 -22 58.5 -38.5t66.5 -16.5q93 0 108 115h85zM863 -30q-169 0 -312.5 58t-249 163.5
t-163.5 248t-58 310.5q0 169 58 311.5t163.5 247.5t249 163t312.5 58q170 0 312.5 -58t248 -163t163.5 -247.5t58 -311.5q0 -168 -58 -310.5t-163.5 -248t-248 -163.5t-312.5 -58zM863 164q120 0 222 44t177 123.5t116.5 186t41.5 232.5t-41.5 233t-116.5 186.5t-177 123
t-222 43.5t-221.5 -43.5t-177 -123t-117.5 -186.5t-42 -233t42 -233t117.5 -186.5t177 -123t221.5 -43.5z" />
    <glyph glyph-name="Odieresis" unicode="&#xd6;" horiz-adv-x="1725" 
d="M863 -30q-169 0 -312.5 58t-249 163.5t-163.5 248t-58 310.5q0 169 58 311.5t163.5 247.5t249 163t312.5 58q170 0 312.5 -58t248 -163t163.5 -247.5t58 -311.5q0 -168 -58 -310.5t-163.5 -248t-248 -163.5t-312.5 -58zM863 164q120 0 222 44t177 123.5t116.5 186
t41.5 232.5t-41.5 233t-116.5 186.5t-177 123t-222 43.5t-221.5 -43.5t-177 -123t-117.5 -186.5t-42 -233t42 -233t117.5 -186.5t177 -123t221.5 -43.5zM1086 1736q-45 0 -72.5 28t-27.5 72q0 45 27.5 72.5t72.5 27.5t72 -27.5t27 -72.5q0 -44 -27 -72t-72 -28zM640 1736
q-44 0 -72 28t-28 72q0 45 28 72.5t72 27.5q45 0 72.5 -27.5t27.5 -72.5q0 -44 -27.5 -72t-72.5 -28z" />
    <glyph glyph-name="multiply" unicode="&#xd7;" horiz-adv-x="1030" 
d="M817 76l-302 303l-302 -303l-117 117l303 302l-303 302l117 117l302 -302l302 302l117 -117l-303 -302l303 -302z" />
    <glyph glyph-name="Oslash" unicode="&#xd8;" horiz-adv-x="1724" 
d="M579 -77l-97 42l33 79q-132 60 -230 164.5t-151.5 242t-53.5 299.5q0 169 58 311.5t163.5 247.5t249 163t312.5 58q67 0 131 -9.5t122 -28.5l34 82l97 -39l-34 -80q132 -61 228.5 -165.5t149.5 -241.5t53 -298q0 -168 -57.5 -310.5t-163 -248t-248 -163.5t-312.5 -58
q-66 0 -128.5 9.5t-120.5 26.5zM593 232l447 1076q-41 14 -86 21t-92 7q-119 0 -221 -43.5t-177.5 -123t-117.5 -186.5t-42 -233q0 -115 36 -215t101 -177.5t152 -125.5zM862 164q120 0 222 44t177 123.5t116.5 186t41.5 232.5q0 115 -34.5 214.5t-98.5 176.5t-151 125
l-445 -1076q41 -13 84 -19.5t88 -6.5z" />
    <glyph glyph-name="Ugrave" unicode="&#xd9;" horiz-adv-x="1564" 
d="M874 1665h-149l-195 335h192zM1420 1500v-828q0 -218 -76.5 -376t-219 -242t-342.5 -84q-198 0 -341 84t-220 242t-77 376v828h220v-806q0 -170 49 -288.5t143 -180t226 -61.5q134 0 227 61.5t142 180t49 288.5v806h220z" />
    <glyph glyph-name="Uacute" unicode="&#xda;" horiz-adv-x="1564" 
d="M838 1665h-147l151 335h192zM1420 1500v-828q0 -218 -76.5 -376t-219 -242t-342.5 -84q-198 0 -341 84t-220 242t-77 376v828h220v-806q0 -170 49 -288.5t143 -180t226 -61.5q134 0 227 61.5t142 180t49 288.5v806h220z" />
    <glyph glyph-name="Ucircumflex" unicode="&#xdb;" horiz-adv-x="1564" 
d="M1085 1665h-153l-150 249l-150 -249h-152l215 335h175zM1420 1500v-828q0 -218 -76.5 -376t-219 -242t-342.5 -84q-198 0 -341 84t-220 242t-77 376v828h220v-806q0 -170 49 -288.5t143 -180t226 -61.5q134 0 227 61.5t142 180t49 288.5v806h220z" />
    <glyph glyph-name="Udieresis" unicode="&#xdc;" horiz-adv-x="1564" 
d="M1420 1500v-828q0 -218 -76.5 -376t-219.5 -242t-342 -84t-342 84t-219.5 242t-76.5 376v828h220v-806q0 -170 49 -288.5t142.5 -180t226.5 -61.5t226.5 61.5t142.5 180t49 288.5v806h220zM1005 1736q-45 0 -72.5 28t-27.5 72q0 45 27.5 72.5t72.5 27.5t72 -27.5
t27 -72.5q0 -44 -27 -72t-72 -28zM559 1736q-44 0 -72 28t-28 72q0 45 28 72.5t72 27.5q45 0 72.5 -27.5t27.5 -72.5q0 -44 -27.5 -72t-72.5 -28z" />
    <glyph glyph-name="Yacute" unicode="&#xdd;" horiz-adv-x="1418" 
d="M765 1665h-147l152 335h191zM818 0h-220v641l-576 859h267l419 -671l422 671h266l-578 -861v-639z" />
    <glyph glyph-name="Thorn" unicode="&#xde;" horiz-adv-x="1217" 
d="M350 0h-206v1500h206v-309h249q151 0 262 -54t171.5 -152t60.5 -233t-61 -234.5t-171.5 -154t-261.5 -54.5h-249v-309zM350 493h211q155 0 238.5 67.5t83.5 189.5q0 123 -83.5 189.5t-238.5 66.5h-211v-513z" />
    <glyph glyph-name="germandbls" unicode="&#xdf;" horiz-adv-x="1192" 
d="M364 0h-220v1103q0 127 56 223t155.5 150t232.5 54q129 0 228.5 -48.5t156 -133.5t56.5 -195q0 -79 -27 -133.5t-65 -91t-74 -63.5q-28 -22 -48.5 -41.5t-20.5 -41.5q0 -19 20.5 -37t68.5 -48q44 -28 83 -58t68.5 -66t46.5 -82.5t17 -107.5q0 -119 -64 -210t-176 -142
t-257 -51l-45 189q95 0 167 32.5t113 90.5t41 132q0 59 -24 98t-60.5 66t-74.5 51q-48 29 -85 60.5t-37 84.5q0 44 26.5 72.5t62.5 55.5q30 23 58 48.5t47 62.5t19 93q0 65 -27.5 115t-76.5 77.5t-114 27.5q-104 0 -165.5 -73.5t-61.5 -200.5v-1062z" />
    <glyph glyph-name="agrave" unicode="&#xe0;" horiz-adv-x="1103" 
d="M654 1165h-148l-196 335h192zM979 0h-177l-12 128q-55 -70 -139 -109t-186 -39q-107 0 -191 42t-132 115t-48 166q0 98 52 172.5t142 117t205 42.5q72 0 146.5 -17t134.5 -48v37q0 73 -37.5 125.5t-102 80.5t-142.5 28q-69 0 -140.5 -24t-134.5 -74l-62 167
q91 54 189.5 82t193.5 28q136 0 234.5 -54t152.5 -153.5t54 -234.5v-578zM503 154q74 0 135.5 33t98.5 89.5t37 125.5v7q-47 38 -110 59.5t-131 21.5q-104 0 -171 -48t-67 -123q0 -47 27.5 -84.5t74 -59t106.5 -21.5z" />
    <glyph glyph-name="aacute" unicode="&#xe1;" horiz-adv-x="1103" 
d="M604 1165h-148l152 335h192zM979 0h-177l-12 128q-55 -70 -139 -109t-186 -39q-107 0 -191 42t-132 115t-48 166q0 98 52 172.5t142 117t205 42.5q72 0 146.5 -17t134.5 -48v37q0 73 -37.5 125.5t-102 80.5t-142.5 28q-69 0 -140.5 -24t-134.5 -74l-62 167
q91 54 189.5 82t193.5 28q136 0 234.5 -54t152.5 -153.5t54 -234.5v-578zM503 154q74 0 135.5 33t98.5 89.5t37 125.5v7q-47 38 -110 59.5t-131 21.5q-104 0 -171 -48t-67 -123q0 -47 27.5 -84.5t74 -59t106.5 -21.5z" />
    <glyph glyph-name="acircumflex" unicode="&#xe2;" horiz-adv-x="1103" 
d="M862 1165h-152l-150 249l-151 -249h-151l214 335h176zM979 0h-177l-12 128q-55 -70 -139 -109t-186 -39q-107 0 -191 42t-132 115t-48 166q0 98 52 172.5t142 117t205 42.5q72 0 146.5 -17t134.5 -48v37q0 73 -37.5 125.5t-102 80.5t-142.5 28q-69 0 -140.5 -24
t-134.5 -74l-62 167q91 54 189.5 82t193.5 28q136 0 234.5 -54t152.5 -153.5t54 -234.5v-578zM503 154q74 0 135.5 33t98.5 89.5t37 125.5v7q-47 38 -110 59.5t-131 21.5q-104 0 -171 -48t-67 -123q0 -47 27.5 -84.5t74 -59t106.5 -21.5z" />
    <glyph glyph-name="atilde" unicode="&#xe3;" horiz-adv-x="1103" 
d="M900 1454q-7 -108 -58 -165.5t-141 -57.5q-54 0 -92.5 20.5t-80.5 52.5q-26 21 -55.5 37t-67.5 16q-101 0 -116 -116h-85q15 223 198 223q62 0 103.5 -22t75.5 -48q30 -22 59.5 -38.5t66.5 -16.5q93 0 108 115h85zM979 0h-177l-12 128q-55 -70 -139 -109t-186 -39
q-107 0 -191 42t-132 115t-48 166q0 98 52 172.5t142 117t205 42.5q72 0 146.5 -17t134.5 -48v37q0 73 -37.5 125.5t-102 80.5t-142.5 28q-69 0 -140.5 -24t-134.5 -74l-62 167q91 54 189.5 82t193.5 28q136 0 234.5 -54t152.5 -153.5t54 -234.5v-578zM503 154q74 0 135 33
t97.5 89.5t38.5 125.5v7q-47 38 -110 59.5t-131 21.5q-104 0 -171 -48t-67 -123q0 -47 27.5 -84.5t74 -59t106.5 -21.5z" />
    <glyph glyph-name="adieresis" unicode="&#xe4;" horiz-adv-x="1103" 
d="M979 0h-177l-12 128q-55 -70 -139 -109t-186 -39q-107 0 -191 42t-132 115t-48 166q0 98 52 172.5t142 117t205 42.5q72 0 146.5 -17t134.5 -48v37q0 73 -37.5 125.5t-102 80.5t-142.5 28q-69 0 -140.5 -24t-134.5 -74l-62 167q91 54 189.5 82t193.5 28q136 0 234.5 -54
t152.5 -153.5t54 -234.5v-578zM505 154q71 0 131 29.5t97.5 84t40.5 127.5v14q-51 38 -114.5 59.5t-129.5 21.5q-101 0 -168 -48t-67 -123q0 -47 27.5 -84.5t75 -59t107.5 -21.5zM795 1236q-45 0 -72.5 28t-27.5 72q0 45 27.5 72.5t72.5 27.5t72 -27.5t27 -72.5
q0 -44 -27 -72t-72 -28zM349 1236q-44 0 -72 28t-28 72q0 45 28 72.5t72 27.5q45 0 72.5 -27.5t27.5 -72.5q0 -44 -27.5 -72t-72.5 -28z" />
    <glyph glyph-name="aring" unicode="&#xe5;" horiz-adv-x="1103" 
d="M560 1101q-97 0 -156 57.5t-59 151.5q0 95 59 152.5t156 57.5t156 -57.5t59 -152.5q0 -94 -59 -151.5t-156 -57.5zM560 1190q54 0 86.5 33t32.5 87q0 55 -32.5 88t-86.5 33t-86 -33t-32 -88q0 -54 32 -87t86 -33zM979 0h-177l-12 128q-55 -70 -139 -109t-186 -39
q-107 0 -191 42t-132 115t-48 166q0 98 52 172.5t142 117t205 42.5q72 0 146.5 -17t134.5 -48v37q0 73 -37.5 125.5t-102 80.5t-142.5 28q-69 0 -140.5 -24t-134.5 -74l-62 167q91 54 189.5 82t193.5 28q136 0 234.5 -54t152.5 -153.5t54 -234.5v-578zM503 154
q74 0 135.5 33t98.5 89.5t37 125.5v7q-47 38 -110 59.5t-131 21.5q-104 0 -171 -48t-67 -123q0 -47 27.5 -84.5t74 -59t106.5 -21.5z" />
    <glyph glyph-name="ae" unicode="&#xe6;" horiz-adv-x="1866" 
d="M1736 117q-180 -137 -404 -137q-141 0 -257 56.5t-189 157.5q-36 -66 -94.5 -114t-134 -74t-164.5 -26q-116 0 -206 42.5t-141.5 117t-51.5 169.5q0 97 53 171.5t146 116.5t214 42q147 0 274 -66l-1 7q-8 116 -87.5 187t-201.5 71q-148 0 -280 -99l-60 171q88 54 183 82
t187 28q124 0 218.5 -50t148.5 -143q70 92 175.5 142.5t231.5 50.5q150 0 262.5 -70t175.5 -196.5t63 -294.5v-31h-805q18 -81 68.5 -141.5t124.5 -94.5t165 -34q165 0 307 109zM983 557h623q-10 84 -51.5 146.5t-107.5 97t-151 34.5t-152.5 -35t-109.5 -97.5t-51 -145.5z
M783 411q-54 41 -116.5 62t-129.5 21q-71 0 -126 -22t-85.5 -60.5t-30.5 -89.5q0 -48 28.5 -86.5t78.5 -60t116 -21.5q71 0 129.5 25.5t95 76t39.5 123.5z" />
    <glyph glyph-name="ccedilla" unicode="&#xe7;" horiz-adv-x="1061" 
d="M993 149q-65 -74 -155.5 -117t-197.5 -51l-28 -63q74 -7 119 -49t45 -109q0 -77 -61 -127.5t-158 -50.5q-68 0 -138 26l37 94q43 -19 88 -19q52 0 86.5 25.5t34.5 63.5q0 41 -38 67.5t-98 26.5h-11t-11 -1l45 116q-139 11 -248 80.5t-171.5 183t-62.5 255.5
q0 149 69 266.5t188.5 185.5t269.5 68q118 0 220 -43.5t175 -124.5l-121 -127q-49 52 -117.5 80.5t-145.5 28.5q-95 0 -169 -43t-116 -117.5t-42 -172.5q0 -97 42 -173t116 -119t169 -43q77 0 146 29t117 80z" />
    <glyph glyph-name="egrave" unicode="&#xe8;" horiz-adv-x="1165" 
d="M1036 119q-186 -139 -409 -139q-159 0 -285 70t-199 191t-73 273q0 145 67 259.5t183 180.5t263 66q152 0 267.5 -72t180 -200.5t64.5 -297.5v-32h-803q18 -78 67.5 -136.5t124 -91t167.5 -32.5q166 0 305 108zM283 560h621q-10 84 -52 146.5t-108.5 98t-149.5 35.5
q-84 0 -151 -35.5t-108.5 -98.5t-51.5 -146zM684 1165h-148l-195 335h191z" />
    <glyph glyph-name="eacute" unicode="&#xe9;" horiz-adv-x="1165" 
d="M1036 119q-186 -139 -409 -139q-159 0 -285 70t-199 191t-73 273q0 145 67 259.5t183 180.5t263 66q152 0 267.5 -72t180 -200.5t64.5 -297.5v-32h-803q18 -78 67.5 -136.5t124 -91t167.5 -32.5q166 0 305 108zM283 560h621q-10 84 -52 146.5t-108.5 98t-149.5 35.5
q-84 0 -151 -35.5t-108.5 -98.5t-51.5 -146zM658 1165h-147l152 335h191z" />
    <glyph glyph-name="ecircumflex" unicode="&#xea;" horiz-adv-x="1165" 
d="M1036 119q-186 -139 -409 -139q-159 0 -285 70t-199 191t-73 273q0 145 67 259.5t183 180.5t263 66q152 0 267.5 -72t180 -200.5t64.5 -297.5v-32h-803q18 -78 67.5 -136.5t124 -91t167.5 -32.5q166 0 305 108zM283 560h621q-10 84 -52 146.5t-108.5 98t-149.5 35.5
q-84 0 -151 -35.5t-108.5 -98.5t-51.5 -146zM885 1165h-152l-151 249l-150 -249h-152l215 335h175z" />
    <glyph glyph-name="edieresis" unicode="&#xeb;" horiz-adv-x="1165" 
d="M1036 119q-186 -139 -409 -139q-159 0 -285 70t-199 191t-73 273q0 145 67 259.5t183 180.5t263 66q152 0 267.5 -72t180 -200.5t64.5 -297.5v-32h-803q18 -78 67.5 -136.5t124 -91t167.5 -32.5q166 0 305 108zM283 560h621q-10 84 -52 146.5t-108.5 98t-149.5 35.5
q-84 0 -151 -35.5t-108.5 -98.5t-51.5 -146zM806 1236q-45 0 -72.5 28t-27.5 72q0 45 27.5 72.5t72.5 27.5t72 -27.5t27 -72.5q0 -44 -27 -72t-72 -28zM360 1236q-44 0 -72 28t-28 72q0 45 28 72.5t72 27.5q45 0 72.5 -27.5t27.5 -72.5q0 -44 -27.5 -72t-72.5 -28z" />
    <glyph glyph-name="igrave" unicode="&#xec;" horiz-adv-x="494" 
d="M334 1165h-148l-195 335h191zM350 0h-206v1000h206v-1000z" />
    <glyph glyph-name="iacute" unicode="&#xed;" horiz-adv-x="493" 
d="M308 1165h-148l151 335h192zM348 0h-204v1000h204v-1000z" />
    <glyph glyph-name="icircumflex" unicode="&#xee;" horiz-adv-x="494" 
d="M550 1165h-153l-150 249l-150 -249h-153l216 335h175zM350 0h-205v1000h205v-1000z" />
    <glyph glyph-name="idieresis" unicode="&#xef;" horiz-adv-x="494" 
d="M350 0h-206v1000h206v-1000zM470 1236q-45 0 -72.5 28t-27.5 72q0 45 27.5 72.5t72.5 27.5t72 -27.5t27 -72.5q0 -44 -27 -72t-72 -28zM24 1236q-44 0 -72 28t-28 72q0 45 28 72.5t72 27.5q45 0 72.5 -27.5t27.5 -72.5q0 -44 -27.5 -72t-72.5 -28z" />
    <glyph glyph-name="eth" unicode="&#xf0;" horiz-adv-x="1160" 
d="M1018 1282l-186 -76q126 -147 195 -320t69 -353q0 -171 -61 -297.5t-173 -196t-264 -69.5q-146 0 -260 62.5t-179 172t-65 249.5q0 131 58 232.5t159.5 159.5t232.5 58q105 0 192 -39t147 -109q-33 101 -92 198t-139 182l-333 -137l-36 88l297 121q-49 43 -100 81
t-111 70l95 141q84 -46 158.5 -102t138.5 -118l221 89zM592 163q78 0 140.5 39t98 105.5t35.5 149.5q0 84 -36 148.5t-98 102t-143 37.5q-79 0 -139.5 -36.5t-95.5 -100t-35 -146.5q0 -85 36 -153t98 -107t139 -39z" />
    <glyph glyph-name="ntilde" unicode="&#xf1;" 
d="M960 1454q-6 -108 -57 -165.5t-139 -57.5q-56 0 -94 20t-77 50q-29 22 -58.5 39t-68.5 17q-101 0 -115 -116h-85q14 223 198 223q62 0 103 -22.5t75 -47.5q30 -22 59 -38.5t66 -16.5q95 0 109 115h84zM1101 0h-205v543q0 133 -72.5 212t-194.5 79q-126 0 -203 -84
t-77 -223v-527h-205v1000h173l7 -161q55 88 144 134.5t209 46.5q197 0 310.5 -119t113.5 -328v-573z" />
    <glyph glyph-name="ograve" unicode="&#xf2;" horiz-adv-x="1194" 
d="M688 1165h-147l-195 335h190zM598 -20q-150 0 -270 68t-189 186t-69 266q0 149 69 266.5t189 185.5t270 68q151 0 270 -68t187.5 -185.5t68.5 -266.5q0 -148 -68.5 -266t-187.5 -186t-270 -68zM597 164q91 0 162.5 44.5t113 120.5t41.5 172t-41.5 171.5t-113 119.5
t-162.5 44q-90 0 -162 -44t-113.5 -119.5t-41.5 -171.5t41.5 -172t113.5 -120.5t162 -44.5z" />
    <glyph glyph-name="oacute" unicode="&#xf3;" horiz-adv-x="1194" 
d="M653 1165h-147l152 335h191zM598 -20q-150 0 -270 68t-189 186t-69 266q0 149 69 266.5t189 185.5t270 68q151 0 270 -68t187.5 -185.5t68.5 -266.5q0 -148 -68.5 -266t-187.5 -186t-270 -68zM597 164q91 0 162.5 44.5t113 120.5t41.5 172t-41.5 171.5t-113 119.5
t-162.5 44q-90 0 -162 -44t-113.5 -119.5t-41.5 -171.5t41.5 -172t113.5 -120.5t162 -44.5z" />
    <glyph glyph-name="ocircumflex" unicode="&#xf4;" horiz-adv-x="1194" 
d="M900 1165h-152l-151 249l-150 -249h-152l215 335h175zM598 -20q-150 0 -270 68t-189 186t-69 266q0 149 69 266.5t189 185.5t270 68q151 0 270 -68t187.5 -185.5t68.5 -266.5q0 -148 -68.5 -266t-187.5 -186t-270 -68zM597 164q91 0 162.5 44.5t113 120.5t41.5 172
t-41.5 171.5t-113 119.5t-162.5 44q-90 0 -162 -44t-113.5 -119.5t-41.5 -171.5t41.5 -172t113.5 -120.5t162 -44.5z" />
    <glyph glyph-name="otilde" unicode="&#xf5;" horiz-adv-x="1194" 
d="M940 1454q-6 -108 -57 -165.5t-139 -57.5q-56 0 -94 20t-77 50q-29 22 -58.5 39t-68.5 17q-101 0 -115 -116h-85q14 223 198 223q62 0 103 -22.5t75 -47.5q30 -22 59 -38.5t66 -16.5q95 0 109 115h84zM598 -20q-150 0 -270 68t-189 186t-69 266q0 149 69 266.5t189 185.5
t270 68q151 0 270 -68t187.5 -185.5t68.5 -266.5q0 -148 -68.5 -266t-187.5 -186t-270 -68zM597 164q91 0 162.5 44.5t113 120.5t41.5 172t-41.5 171.5t-113 119.5t-162.5 44q-90 0 -162 -44t-113.5 -119.5t-41.5 -171.5t41.5 -172t113.5 -120.5t162 -44.5z" />
    <glyph glyph-name="odieresis" unicode="&#xf6;" horiz-adv-x="1194" 
d="M598 -20q-150 0 -270 68t-189 185.5t-69 266.5q0 148 69 265.5t189 186t270 68.5q151 0 270 -68.5t187.5 -186t68.5 -265.5q0 -149 -68.5 -266.5t-187.5 -185.5t-270 -68zM597 164q91 0 162.5 44.5t113 120t41.5 171.5t-41.5 171.5t-113 120t-162.5 44.5
q-90 0 -162 -44.5t-113.5 -120t-41.5 -171.5t41.5 -171.5t113.5 -120t162 -44.5zM818 1236q-45 0 -72.5 28t-27.5 72q0 45 27.5 72.5t72.5 27.5t72 -27.5t27 -72.5q0 -44 -27 -72t-72 -28zM372 1236q-44 0 -72 28t-28 72q0 45 28 72.5t72 27.5q45 0 72.5 -27.5t27.5 -72.5
q0 -44 -27.5 -72t-72.5 -28z" />
    <glyph glyph-name="divide" unicode="&#xf7;" horiz-adv-x="1088" 
d="M544 756q-48 0 -79.5 32t-31.5 79t31.5 80t79.5 33q47 0 80 -33t33 -80t-33 -79t-80 -32zM944 411h-800v138h800v-138zM544 -20q-47 0 -79 32.5t-32 79.5q0 46 32 79t79 33t79.5 -33t32.5 -79q0 -47 -32.5 -79.5t-79.5 -32.5z" />
    <glyph glyph-name="oslash" unicode="&#xf8;" horiz-adv-x="1194" 
d="M416 -75l-94 37l30 73q-128 63 -205 185.5t-77 279.5q0 149 69 266.5t189 185.5t270 68q41 0 79 -5t73 -15l28 66l94 -38l-26 -64q127 -63 202.5 -185.5t75.5 -278.5q0 -148 -68.5 -266t-187.5 -186t-270 -68q-40 0 -78 5t-74 15zM426 215l253 611q-41 10 -82 10
q-90 0 -162 -44t-113.5 -119.5t-41.5 -171.5q0 -93 39.5 -167.5t106.5 -118.5zM597 164q91 0 162.5 44.5t113 120.5t41.5 172q0 92 -39 165.5t-104 116.5l-252 -609q37 -10 78 -10z" />
    <glyph glyph-name="ugrave" unicode="&#xf9;" 
d="M715 1165h-147l-195 335h190zM1081 0h-174l-7 161q-55 -88 -143.5 -134.5t-209.5 -46.5q-196 0 -309.5 119.5t-113.5 327.5v573h205v-543q0 -133 72 -212t194 -79q126 0 203.5 84.5t77.5 222.5v527h205v-1000z" />
    <glyph glyph-name="uacute" unicode="&#xfa;" 
d="M580 1165h-147l151 335h191zM1081 0h-174l-7 161q-55 -88 -143.5 -134.5t-209.5 -46.5q-196 0 -309.5 119.5t-113.5 327.5v573h205v-543q0 -133 72 -212t194 -79q126 0 203.5 84.5t77.5 222.5v527h205v-1000z" />
    <glyph glyph-name="ucircumflex" unicode="&#xfb;" 
d="M879 1165h-152l-151 249l-150 -249h-152l215 335h175zM1081 0h-174l-7 161q-55 -88 -143.5 -134.5t-209.5 -46.5q-196 0 -309.5 119.5t-113.5 327.5v573h205v-543q0 -133 72 -212t194 -79q126 0 203.5 84.5t77.5 222.5v527h205v-1000z" />
    <glyph glyph-name="udieresis" unicode="&#xfc;" 
d="M1081 0h-174l-7 161q-55 -88 -143.5 -134.5t-209.5 -46.5q-196 0 -309.5 119.5t-113.5 327.5v573h205v-543q0 -133 72 -212t194 -79q126 0 203.5 84.5t77.5 222.5v527h205v-1000zM836 1236q-45 0 -72.5 28t-27.5 72q0 45 27.5 72.5t72.5 27.5t72 -27.5t27 -72.5
q0 -44 -27 -72t-72 -28zM390 1236q-44 0 -72 28t-28 72q0 45 28 72.5t72 27.5q45 0 72.5 -27.5t27.5 -72.5q0 -44 -27.5 -72t-72.5 -28z" />
    <glyph glyph-name="yacute" unicode="&#xfd;" horiz-adv-x="1215" 
d="M666 1165h-147l152 335h191zM549 -500h-221l210 506l-492 994h233l356 -759l315 759h219z" />
    <glyph glyph-name="thorn" unicode="&#xfe;" horiz-adv-x="1275" 
d="M349 -500h-205v2000h205v-683q63 94 162.5 148.5t221.5 54.5q137 0 245 -68t170.5 -185.5t62.5 -266.5q0 -148 -62.5 -266t-170 -186t-245.5 -68q-121 0 -220.5 55t-163.5 149v-684zM676 164q93 0 166.5 44t116 119.5t42.5 171.5q0 97 -42.5 173t-116 120t-166.5 44
q-90 0 -161.5 -40t-115 -110.5t-50.5 -160.5v-51q7 -89 50.5 -159.5t115 -110.5t161.5 -40z" />
    <glyph glyph-name="ydieresis" unicode="&#xff;" horiz-adv-x="1215" 
d="M549 -500h-221l209 506l-487 994h229l356 -759l314 759h220zM853 1236q-45 0 -72.5 28t-27.5 72q0 45 27.5 72.5t72.5 27.5t72 -27.5t27 -72.5q0 -44 -27 -72t-72 -28zM407 1236q-44 0 -72 28t-28 72q0 45 28 72.5t72 27.5q45 0 72.5 -27.5t27.5 -72.5q0 -44 -27.5 -72
t-72.5 -28z" />
    <glyph glyph-name="Amacron" unicode="&#x100;" horiz-adv-x="1532" 
d="M1091 1779h-659v121h659v-121zM269 0h-231l610 1500h236l610 -1500h-232l-150 377h-693zM494 571h543l-272 685z" />
    <glyph glyph-name="amacron" unicode="&#x101;" horiz-adv-x="1103" 
d="M882 1279h-660v121h660v-121zM979 0h-177l-12 128q-55 -70 -139 -109t-186 -39q-107 0 -191 42t-132 115t-48 166q0 98 52 172.5t142 117t205 42.5q72 0 146.5 -17t134.5 -48v37q0 73 -37.5 125.5t-102 80.5t-142.5 28q-69 0 -140.5 -24t-134.5 -74l-62 167
q91 54 189.5 82t193.5 28q136 0 234.5 -54t152.5 -153.5t54 -234.5v-578zM503 154q74 0 135.5 33t98.5 89.5t37 125.5v7q-47 38 -110 59.5t-131 21.5q-104 0 -171 -48t-67 -123q0 -47 27.5 -84.5t74 -59t106.5 -21.5z" />
    <glyph glyph-name="Abreve" unicode="&#x102;" horiz-adv-x="1531" 
d="M1077 2000q0 -92 -39.5 -164t-110 -113t-162.5 -41q-91 0 -161 41t-110.5 113t-40.5 164h123q0 -95 52.5 -154.5t137.5 -59.5q84 0 137 59.5t53 154.5h121zM269 0h-231l610 1500h236l609 -1500h-231l-150 377h-693zM494 571h543l-272 685z" />
    <glyph glyph-name="abreve" unicode="&#x103;" horiz-adv-x="1103" 
d="M864 1500q0 -92 -40 -164t-110.5 -113t-161.5 -41t-161.5 41t-110.5 113t-40 164h123q0 -95 52.5 -154.5t136.5 -59.5q85 0 137.5 59.5t52.5 154.5h122zM979 0h-177l-12 128q-55 -70 -139 -109t-186 -39q-107 0 -191 42t-132 115t-48 166q0 98 52 172.5t142 117t205 42.5
q72 0 146.5 -17t134.5 -48v37q0 73 -37.5 125.5t-102 80.5t-142.5 28q-69 0 -140.5 -24t-134.5 -74l-62 167q91 54 189.5 82t193.5 28q136 0 234.5 -54t152.5 -153.5t54 -234.5v-578zM503 154q74 0 135.5 33t98.5 89.5t37 125.5v7q-47 38 -110 59.5t-131 21.5
q-104 0 -171 -48t-67 -123q0 -47 27.5 -84.5t74 -59t106.5 -21.5z" />
    <glyph glyph-name="Aogonek" unicode="&#x104;" horiz-adv-x="1531" 
d="M269 0h-231l610 1500h236l609 -1500h-59q-69 -31 -110.5 -86t-41.5 -108q0 -45 33.5 -77.5t97.5 -36.5l-15 -108q-104 0 -164.5 51t-60.5 128q0 71 50.5 135t136.5 102h-98l-150 377h-693zM494 571h543l-272 685z" />
    <glyph glyph-name="aogonek" unicode="&#x105;" horiz-adv-x="1103" 
d="M979 0h-27q-69 -31 -111 -86t-42 -108q0 -45 33.5 -77.5t97.5 -36.5l-14 -108q-104 0 -164.5 51t-60.5 128q0 71 50 135t136 102h-75l-12 128q-55 -70 -139 -109t-186 -39q-107 0 -191 42t-132 115t-48 166q0 98 52 172.5t142 117t205 42.5q72 0 146.5 -17t134.5 -48v37
q0 73 -37.5 125.5t-102 80.5t-142.5 28q-69 0 -140.5 -24t-134.5 -74l-62 167q91 54 189.5 82t193.5 28q136 0 234.5 -54t152.5 -153.5t54 -234.5v-578zM503 154q74 0 135.5 33t98.5 89.5t37 125.5v7q-47 38 -110 59.5t-131 21.5q-104 0 -171 -48t-67 -123q0 -47 27.5 -84.5
t74 -59t106.5 -21.5z" />
    <glyph glyph-name="Cacute" unicode="&#x106;" horiz-adv-x="1519" 
d="M897 1665h-147l151 335h191zM1423 191q-103 -104 -246.5 -162.5t-312.5 -58.5t-312.5 58t-249 163.5t-164 248t-58.5 310.5q0 169 58.5 311.5t164 247.5t249 163t312.5 58q168 0 311 -58.5t247 -161.5l-154 -156q-74 85 -178.5 133.5t-229.5 48.5q-119 0 -220.5 -43.5
t-176.5 -123t-116.5 -186.5t-41.5 -233t41.5 -233t116.5 -186.5t176.5 -123t220.5 -43.5q125 0 229 48.5t178 133.5z" />
    <glyph glyph-name="cacute" unicode="&#x107;" horiz-adv-x="1061" 
d="M628 1165h-147l152 335h191zM993 149q-73 -81 -175 -125t-221 -44q-150 0 -269.5 68t-188.5 186t-69 266q0 149 69 266.5t188.5 185.5t269.5 68q118 0 220 -43.5t175 -124.5l-121 -127q-49 52 -117.5 80.5t-145.5 28.5q-95 0 -169 -43t-116 -117.5t-42 -172.5
q0 -97 42 -173t116 -119t169 -43q77 0 146 29t117 80z" />
    <glyph glyph-name="Ccircumflex" unicode="&#x108;" horiz-adv-x="1519" 
d="M1154 1665h-153l-150 249l-150 -249h-152l215 335h175zM1423 191q-103 -104 -246.5 -162.5t-312.5 -58.5t-312.5 58t-249 163.5t-164 248t-58.5 310.5q0 169 58.5 311.5t164 247.5t249 163t312.5 58q168 0 311 -58.5t247 -161.5l-154 -156q-74 85 -178.5 133.5
t-229.5 48.5q-119 0 -220.5 -43.5t-176.5 -123t-116.5 -186.5t-41.5 -233t41.5 -233t116.5 -186.5t176.5 -123t220.5 -43.5q125 0 229 48.5t178 133.5z" />
    <glyph glyph-name="ccircumflex" unicode="&#x109;" horiz-adv-x="1061" 
d="M875 1165h-152l-151 249l-150 -249h-152l215 335h175zM993 149q-73 -81 -175 -125t-221 -44q-150 0 -269.5 68t-188.5 186t-69 266q0 149 69 266.5t188.5 185.5t269.5 68q118 0 220 -43.5t175 -124.5l-121 -127q-49 52 -117.5 80.5t-145.5 28.5q-95 0 -169 -43
t-116 -117.5t-42 -172.5q0 -97 42 -173t116 -119t169 -43q77 0 146 29t117 80z" />
    <glyph glyph-name="Cdotaccent" unicode="&#x10a;" horiz-adv-x="1519" 
d="M1423 191q-104 -104 -247.5 -162.5t-312.5 -58.5t-312 58t-248.5 163.5t-164 248t-58.5 310.5q0 169 58.5 311.5t164 247.5t248.5 163t312 58q168 0 311.5 -58.5t246.5 -161.5l-153 -156q-75 85 -179.5 133.5t-228.5 48.5q-120 0 -221 -43.5t-176 -123t-116.5 -186.5
t-41.5 -233t41.5 -233t116.5 -186.5t176 -123t221 -43.5q124 0 228.5 48.5t178.5 133.5zM833 1725q-44 0 -71.5 27.5t-27.5 73.5q0 43 27.5 71t71.5 28q45 0 73 -28t28 -71q0 -46 -28 -73.5t-73 -27.5z" />
    <glyph glyph-name="cdotaccent" unicode="&#x10b;" horiz-adv-x="1061" 
d="M993 149q-73 -81 -175 -125t-221 -44q-150 0 -269.5 68t-188.5 186t-69 266q0 149 69 266.5t188.5 185.5t269.5 68q118 0 220 -43.5t175 -124.5l-121 -127q-49 52 -117.5 80.5t-145.5 28.5q-95 0 -169 -43t-116 -117.5t-42 -172.5q0 -97 42 -173t116 -119t169 -43
q77 0 146 29t117 80zM603 1225q-44 0 -71.5 27.5t-27.5 73.5q0 43 27.5 71t71.5 28q45 0 73 -28t28 -71q0 -46 -28 -73.5t-73 -27.5z" />
    <glyph glyph-name="Ccaron" unicode="&#x10c;" horiz-adv-x="1519" 
d="M939 1665h-176l-214 335h152l150 -249l151 249h151zM1423 191q-103 -104 -246.5 -162.5t-312.5 -58.5t-312.5 58t-249 163.5t-164 248t-58.5 310.5q0 169 58.5 311.5t164 247.5t249 163t312.5 58q168 0 311 -58.5t247 -161.5l-154 -156q-74 85 -178.5 133.5t-229.5 48.5
q-119 0 -220.5 -43.5t-176.5 -123t-116.5 -186.5t-41.5 -233t41.5 -233t116.5 -186.5t176.5 -123t220.5 -43.5q125 0 229 48.5t178 133.5z" />
    <glyph glyph-name="ccaron" unicode="&#x10d;" horiz-adv-x="1061" 
d="M689 1165h-174l-215 335h153l150 -249l150 249h152zM993 149q-73 -81 -175 -125t-221 -44q-150 0 -269.5 68t-188.5 186t-69 266q0 149 69 266.5t188.5 185.5t269.5 68q118 0 220 -43.5t175 -124.5l-121 -127q-49 52 -117.5 80.5t-145.5 28.5q-95 0 -169 -43t-116 -117.5
t-42 -172.5q0 -97 42 -173t116 -119t169 -43q77 0 146 29t117 80z" />
    <glyph glyph-name="Dcaron" unicode="&#x10e;" horiz-adv-x="1563" 
d="M801 1665h-175l-215 335h153l150 -249l150 249h152zM144 0v1500h453q274 0 473 -90.5t306 -258.5t107 -401q0 -232 -107 -400.5t-306 -259t-473 -90.5h-453zM364 194h242q207 0 352.5 65.5t222.5 190t77 300.5q0 177 -77 301t-222.5 189.5t-352.5 65.5h-242v-1112z" />
    <glyph glyph-name="dcaron" unicode="&#x10f;" horiz-adv-x="1680" 
d="M1457 1070h-119l101 450h147zM1138 0h-181l-11 143q-68 -76 -163.5 -119.5t-209.5 -43.5q-144 0 -258 68t-179.5 186t-65.5 266q0 149 65.5 266.5t179.5 185.5t258 68q108 0 200 -39t160 -109v628h205v-1500zM607 164q91 0 164.5 42t117 114t43.5 164v34q0 92 -43.5 164
t-117 113t-164.5 41q-93 0 -167 -44t-117 -119.5t-43 -171.5t43 -172t117 -120.5t167 -44.5z" />
    <glyph glyph-name="Dcroat" unicode="&#x110;" horiz-adv-x="1617" 
d="M199 0v667h-177v159h177v674h452q274 0 473 -90.5t306 -258.5t107 -401q0 -232 -107 -400.5t-306 -259t-473 -90.5h-452zM822 667h-403v-473h241q207 0 352.5 65.5t222.5 190t77 300.5q0 177 -77 301t-222.5 189.5t-352.5 65.5h-241v-480h403v-159z" />
    <glyph glyph-name="dcroat" unicode="&#x111;" horiz-adv-x="1281" 
d="M1138 0h-181l-11 143q-68 -76 -163.5 -119.5t-209.5 -43.5q-144 0 -258 68t-179.5 186t-65.5 266q0 149 65.5 266.5t179.5 185.5t258 68q108 0 200 -39t160 -109v308h-347v121h347v199h205v-199h106v-121h-106v-1180zM607 164q91 0 164.5 42t117 114t43.5 164v34
q0 92 -43.5 164t-117 113t-164.5 41q-93 0 -167 -44t-117 -119.5t-43 -171.5t43 -172t117 -120.5t167 -44.5z" />
    <glyph glyph-name="Emacron" unicode="&#x112;" 
d="M947 1779h-659v121h659v-121zM144 0v1500h935v-194h-715v-449h674v-194h-674v-469h725v-194h-945z" />
    <glyph glyph-name="emacron" unicode="&#x113;" horiz-adv-x="1165" 
d="M1036 119q-186 -139 -409 -139q-159 0 -285 70t-199 191t-73 273q0 145 67 259.5t183 180.5t263 66q152 0 267.5 -72t180 -200.5t64.5 -297.5v-32h-803q18 -78 67.5 -136.5t124 -91t167.5 -32.5q166 0 305 108zM283 560h621q-10 84 -52 146.5t-108.5 98t-149.5 35.5
q-84 0 -151 -35.5t-108.5 -98.5t-51.5 -146zM912 1279h-659v121h659v-121z" />
    <glyph glyph-name="Ebreve" unicode="&#x114;" 
d="M929 2000q0 -92 -40 -164t-110.5 -113t-161.5 -41t-161.5 41t-110.5 113t-40 164h122q0 -95 53 -154.5t137 -59.5q85 0 137.5 59.5t52.5 154.5h122zM144 0v1500h935v-194h-715v-449h674v-194h-674v-469h725v-194h-945z" />
    <glyph glyph-name="ebreve" unicode="&#x115;" horiz-adv-x="1165" 
d="M1036 119q-186 -139 -409 -139q-159 0 -285 70t-199 191t-73 273q0 145 67 259.5t183 180.5t263 66q152 0 267.5 -72t180 -200.5t64.5 -297.5v-32h-803q18 -78 67.5 -136.5t124 -91t167.5 -32.5q166 0 305 108zM283 560h621q-10 84 -52 146.5t-108.5 98t-149.5 35.5
q-84 0 -151 -35.5t-108.5 -98.5t-51.5 -146zM895 1500q0 -92 -40 -164t-110.5 -113t-161.5 -41t-161.5 41t-110.5 113t-40 164h122q0 -95 53 -154.5t137 -59.5q85 0 137 59.5t52 154.5h123z" />
    <glyph glyph-name="Edotaccent" unicode="&#x116;" horiz-adv-x="1223" 
d="M144 0v1500h935v-194h-715v-449h674v-194h-674v-469h725v-194h-945zM611 1725q-44 0 -71.5 27.5t-27.5 73.5q0 43 27.5 71t71.5 28q45 0 73 -28t28 -71q0 -46 -28 -73.5t-73 -27.5z" />
    <glyph glyph-name="edotaccent" unicode="&#x117;" horiz-adv-x="1165" 
d="M1036 119q-186 -139 -409 -139q-159 0 -285 70t-199 191t-73 273q0 145 67 259.5t183 180.5t263 66q152 0 267.5 -72t180 -200.5t64.5 -297.5v-32h-803q18 -78 67.5 -136.5t124 -91t167.5 -32.5q166 0 305 108zM283 560h621q-10 84 -52 146.5t-108.5 98t-149.5 35.5
q-84 0 -151 -35.5t-108.5 -98.5t-51.5 -146zM602 1225q-44 0 -71.5 27.5t-27.5 73.5q0 43 27.5 71t71.5 28q45 0 73 -28t28 -71q0 -46 -28 -73.5t-73 -27.5z" />
    <glyph glyph-name="Eogonek" unicode="&#x118;" horiz-adv-x="1223" 
d="M144 0v1500h935v-194h-715v-449h674v-194h-674v-469h725v-194h-25q-68 -31 -110 -86t-42 -108q0 -45 33.5 -77.5t96.5 -36.5l-14 -108q-104 0 -164 51t-60 128q0 71 50 135t136 102h-846z" />
    <glyph glyph-name="eogonek" unicode="&#x119;" horiz-adv-x="1165" 
d="M1036 119q-54 -40 -113.5 -67t-119.5 -48q-75 -26 -118.5 -84.5t-43.5 -113.5q0 -45 33.5 -77.5t97.5 -36.5l-14 -108q-104 0 -164.5 51t-60.5 128q0 64 40 122.5t112 97.5q-30 -3 -59 -3q-158 0 -284 70t-199 191t-73 273q0 145 67 259.5t182.5 180.5t262.5 66
q152 0 267.5 -72t180.5 -200.5t65 -297.5v-32h-803q18 -78 67.5 -136.5t123.5 -91t166 -32.5q168 0 307 108zM283 560h621q-10 84 -52 146.5t-108.5 98t-149.5 35.5q-85 0 -151.5 -35.5t-108 -98.5t-51.5 -146z" />
    <glyph glyph-name="Ecaron" unicode="&#x11a;" horiz-adv-x="1223" 
d="M719 1665h-175l-215 335h153l149 -249l150 249h153zM144 0v1500h935v-194h-715v-449h674v-194h-674v-469h725v-194h-945z" />
    <glyph glyph-name="ecaron" unicode="&#x11b;" horiz-adv-x="1165" 
d="M1036 119q-186 -139 -409 -139q-159 0 -285 70t-199 191t-73 273q0 145 67 259.5t183 180.5t263 66q152 0 267.5 -72t180 -200.5t64.5 -297.5v-32h-803q18 -78 67.5 -136.5t124 -91t167.5 -32.5q166 0 305 108zM283 560h621q-10 84 -52 146.5t-108.5 98t-149.5 35.5
q-84 0 -151 -35.5t-108.5 -98.5t-51.5 -146zM670 1165h-175l-215 335h152l150 -249l151 249h152z" />
    <glyph glyph-name="Gcircumflex" unicode="&#x11c;" horiz-adv-x="1660" 
d="M1152 1665h-153l-150 249l-150 -249h-152l215 335h175zM1263 1179q-78 76 -183 116.5t-223 40.5q-121 0 -222.5 -42t-175 -120t-114 -185t-40.5 -236t40 -237t113.5 -187t174 -122t220.5 -43q108 0 199 35t160 100t112 156t55 201h-511v171h706l6 -82q0 -171 -53 -313
t-150.5 -245.5t-231 -160t-294.5 -56.5q-166 0 -306.5 58.5t-245 164t-162 247.5t-57.5 308q0 168 58 310.5t162.5 248.5t245.5 164.5t307 58.5q157 0 299.5 -54t253.5 -155z" />
    <glyph glyph-name="gcircumflex" unicode="&#x11d;" horiz-adv-x="1257" 
d="M934 1165h-153l-150 249l-150 -249h-153l216 335h175zM564 -4q-141 0 -253 67t-176.5 183t-64.5 262q0 147 64.5 262.5t176.5 182.5t254 67q112 0 206.5 -43t160.5 -118l10 141h181v-973q0 -168 -68.5 -290.5t-193.5 -189.5t-296 -67q-241 0 -425 157l87 166
q135 -139 326 -139q111 0 192.5 46t127 128.5t45.5 194.5v109q-66 -68 -157 -107t-197 -39zM598 178q88 0 160.5 40t116 109.5t43.5 158.5v45q0 89 -43.5 158t-116 109t-160.5 40q-92 0 -164 -43.5t-114 -118t-42 -168.5t42 -169t114 -118t164 -43z" />
    <glyph glyph-name="Gbreve" unicode="&#x11e;" horiz-adv-x="1660" 
d="M1152 2000q0 -92 -40 -164t-110.5 -113t-161.5 -41q-92 0 -162 41t-110 113t-40 164h122q0 -95 52.5 -154.5t137.5 -59.5q84 0 137 59.5t53 154.5h122zM1263 1179q-78 76 -183 116.5t-223 40.5q-121 0 -222.5 -42t-175 -120t-114 -185t-40.5 -236t40 -237t113.5 -187
t174 -122t220.5 -43q108 0 199 35t160 100t112 156t55 201h-511v171h706l6 -82q0 -171 -53 -313t-150.5 -245.5t-231 -160t-294.5 -56.5q-166 0 -306.5 58.5t-245 164t-162 247.5t-57.5 308q0 168 58 310.5t162.5 248.5t245.5 164.5t307 58.5q157 0 299.5 -54t253.5 -155z
" />
    <glyph glyph-name="gbreve" unicode="&#x11f;" horiz-adv-x="1257" 
d="M943 1500q0 -92 -40 -164t-110 -113t-161 -41q-92 0 -162.5 41t-110 113t-39.5 164h121q0 -95 53 -154.5t138 -59.5q84 0 136.5 59.5t52.5 154.5h122zM564 -4q-141 0 -253 67t-176.5 183t-64.5 262q0 147 64.5 262.5t176.5 182.5t254 67q112 0 206.5 -43t160.5 -118
l10 141h181v-973q0 -168 -68.5 -290.5t-193.5 -189.5t-296 -67q-241 0 -425 157l87 166q135 -139 326 -139q111 0 192.5 46t127 128.5t45.5 194.5v109q-66 -68 -157 -107t-197 -39zM598 178q88 0 160.5 40t116 109.5t43.5 158.5v45q0 89 -43.5 158t-116 109t-160.5 40
q-92 0 -164 -43.5t-114 -118t-42 -168.5t42 -169t114 -118t164 -43z" />
    <glyph glyph-name="Gdotaccent" unicode="&#x120;" horiz-adv-x="1660" 
d="M1263 1179q-78 76 -183 116.5t-223 40.5q-121 0 -222.5 -42t-175 -120t-114 -185t-40.5 -236t40 -237t113.5 -187t174 -122t220.5 -43q108 0 199 35t160 100t112 156t55 201h-511v171h706l6 -82q0 -171 -53 -313t-150.5 -245.5t-231 -160t-294.5 -56.5
q-166 0 -306.5 58.5t-245 164t-162 247.5t-57.5 308q0 168 58 310.5t162.5 248.5t245.5 164.5t307 58.5q157 0 299.5 -54t253.5 -155zM849 1725q-44 0 -71.5 27.5t-27.5 73.5q0 43 27.5 71t71.5 28q45 0 73 -28t28 -71q0 -46 -28 -73.5t-73 -27.5z" />
    <glyph glyph-name="gdotaccent" unicode="&#x121;" horiz-adv-x="1257" 
d="M564 -4q-141 0 -253 67t-176.5 183t-64.5 262q0 147 64.5 262.5t176.5 182.5t254 67q112 0 206.5 -43t160.5 -118l10 141h181v-973q0 -168 -68.5 -290.5t-193.5 -189.5t-296 -67q-241 0 -425 157l87 166q135 -139 326 -139q111 0 192.5 46t127 128.5t45.5 194.5v109
q-66 -68 -157 -107t-197 -39zM598 178q88 0 160.5 40t116 109.5t43.5 158.5v45q0 89 -43.5 158t-116 109t-160.5 40q-92 0 -164 -43.5t-114 -118t-42 -168.5t42 -169t114 -118t164 -43zM624 1225q-44 0 -71.5 27.5t-27.5 73.5q0 43 27.5 71t71.5 28q45 0 73 -28t28 -71
q0 -46 -28 -73.5t-73 -27.5z" />
    <glyph glyph-name="uni0122" unicode="&#x122;" horiz-adv-x="1660" 
d="M1263 1179q-78 76 -183 116.5t-223 40.5q-121 0 -222.5 -42t-175 -120t-114 -185t-40.5 -236t40 -237t113.5 -187t174 -122t220.5 -43q108 0 199 35t160 100t112 156t55 201h-511v171h706l6 -82q0 -171 -53 -313t-150.5 -245.5t-231 -160t-294.5 -56.5
q-166 0 -306.5 58.5t-245 164t-162 247.5t-57.5 308q0 168 58 310.5t162.5 248.5t245.5 164.5t307 58.5q157 0 299.5 -54t253.5 -155zM777 -490l-67 63q51 37 79 96t28 122q0 70 -33 125l142 32q23 -63 23 -132q0 -99 -46.5 -182t-125.5 -124z" />
    <glyph glyph-name="uni0123" unicode="&#x123;" horiz-adv-x="1257" 
d="M658 1170h-154l129 450h126zM564 -4q-141 0 -253 67t-176.5 183t-64.5 262q0 147 64.5 262.5t176.5 182.5t254 67q112 0 206.5 -43t160.5 -118l10 141h181v-973q0 -168 -68.5 -290.5t-193.5 -189.5t-296 -67q-241 0 -425 157l87 166q135 -139 326 -139q111 0 192.5 46
t127 128.5t45.5 194.5v109q-66 -68 -157 -107t-197 -39zM598 178q88 0 160.5 40t116 109.5t43.5 158.5v45q0 89 -43.5 158t-116 109t-160.5 40q-92 0 -164 -43.5t-114 -118t-42 -168.5t42 -169t114 -118t164 -43z" />
    <glyph glyph-name="Hcircumflex" unicode="&#x124;" horiz-adv-x="1502" 
d="M1055 1665h-153l-150 249l-150 -249h-153l216 335h174zM364 0h-220v1500h220v-664h774v664h220v-1500h-220v643h-774v-643z" />
    <glyph glyph-name="hcircumflex" unicode="&#x125;" 
d="M548 1665h-152l-150 249l-151 -249h-152l215 335h176zM145 0v1500h205v-639q111 159 336 159q196 0 305.5 -118t109.5 -329v-573h-205v523q0 149 -71 231t-199 82q-129 0 -202.5 -83.5t-73.5 -229.5v-523h-205z" />
    <glyph glyph-name="Hbar" unicode="&#x126;" horiz-adv-x="1538" 
d="M1524 1107h-148v-1107h-220v643h-775v-643h-220v1107h-147v122h147v271h220v-271h775v271h220v-271h148v-122zM381 836h775v271h-775v-271z" />
    <glyph glyph-name="hbar" unicode="&#x127;" horiz-adv-x="1237" 
d="M688 1179h-327v-318q112 159 337 159q196 0 305.5 -118t109.5 -329v-573h-205v523q0 149 -71 231t-199 82q-129 0 -203 -83.5t-74 -229.5v-523h-205v1179h-142v122h142v199h205v-199h327v-122z" />
    <glyph glyph-name="Itilde" unicode="&#x128;" horiz-adv-x="509" 
d="M602 1954h-84q-15 -115 -109 -115q-37 0 -66.5 16.5t-58.5 38.5q-35 25 -76 47.5t-103 22.5q-183 0 -198 -223h85q15 116 116 116q38 0 68 -17t58 -39q39 -30 77 -50t94 -20q89 0 139.5 57.5t57.5 165.5zM364 1500h-220v-1500h220v1500z" />
    <glyph glyph-name="itilde" unicode="&#x129;" horiz-adv-x="494" 
d="M594 1454q-6 -108 -57 -165.5t-139 -57.5q-56 0 -94.5 20t-76.5 50q-29 22 -58.5 39t-68.5 17q-101 0 -115 -116h-85q14 223 198 223q62 0 103 -22.5t75 -47.5q30 -22 59 -38.5t66 -16.5q95 0 109 115h84zM350 0h-206v1000h206v-1000z" />
    <glyph glyph-name="Imacron" unicode="&#x12a;" horiz-adv-x="509" 
d="M584 1779v121h-659v-121h659zM365 1500h-220v-1500h220v1500z" />
    <glyph glyph-name="imacron" unicode="&#x12b;" horiz-adv-x="494" 
d="M576 1279h-658v121h658v-121zM350 0h-206v1000h206v-1000z" />
    <glyph glyph-name="Iogonek" unicode="&#x12e;" horiz-adv-x="509" 
d="M365 1500h-220v-1500h121q-85 -38 -135.5 -102t-50.5 -135q0 -77 60.5 -128t164.5 -51l15 108q-64 4 -97.5 36.5t-33.5 77.5q0 53 42 108t110 86h24v1500z" />
    <glyph glyph-name="iogonek" unicode="&#x12f;" horiz-adv-x="500" 
d="M250 1290q-47 0 -79 33t-32 80t32 79.5t79 32.5q48 0 80.5 -32.5t32.5 -79.5t-32.5 -80t-80.5 -33zM352 0h-32q-69 -31 -111 -85.5t-42 -108.5q0 -45 34 -77.5t97 -36.5l-14 -108q-104 0 -164.5 51t-60.5 128q0 72 50 135.5t136 101.5h-98v1000h205v-1000z" />
    <glyph glyph-name="Idotaccent" unicode="&#x130;" horiz-adv-x="508" 
d="M364 1500h-220v-1500h220v1500zM254 1725q-44 0 -71.5 27.5t-27.5 73.5q0 43 27.5 71t71.5 28q45 0 73 -28t28 -71q0 -46 -28 -73.5t-73 -27.5z" />
    <glyph glyph-name="dotlessi" unicode="&#x131;" horiz-adv-x="494" 
d="M350 0h-206v1000h206v-1000z" />
    <glyph glyph-name="IJ" unicode="&#x132;" horiz-adv-x="1035" 
d="M364 1500h-220v-1500h220v1500zM325 -378q199 0 324 56.5t183.5 177t58.5 311.5v1333h-220v-1340q0 -172 -88.5 -258.5t-267.5 -86.5z" />
    <glyph glyph-name="ij" unicode="&#x133;" horiz-adv-x="1008" 
d="M250 1290q-47 0 -79 33t-32 80t32 79.5t79 32.5q48 0 80.5 -32.5t32.5 -79.5t-32.5 -80t-80.5 -33zM352 0h-205v1000h205v-1000zM764 1290q-47 0 -79 33t-32 80t32 79.5t79 32.5t79.5 -32.5t32.5 -79.5t-32.5 -80t-79.5 -33zM376 -505v162q16 -3 30.5 -4t27.5 -1
q103 0 165 71.5t62 193.5v1083h206v-1092q0 -207 -93.5 -317.5t-266.5 -110.5q-30 0 -63 4t-68 11z" />
    <glyph glyph-name="Jcircumflex" unicode="&#x134;" horiz-adv-x="515" 
d="M564 1665h-153l-150 249l-151 -249h-152l215 335h175zM-196 -378l-10 193q179 0 268 86.5t89 258.5v1340h220v-1333q0 -191 -59 -311.5t-183.5 -177t-324.5 -56.5z" />
    <glyph glyph-name="jcircumflex" unicode="&#x135;" horiz-adv-x="476" 
d="M529 1165h-153l-151 249l-150 -249h-152l215 335h175zM-159 -505v162q16 -3 30.5 -4t28.5 -1q102 0 164 71.5t62 193.5v1083h206v-1092q0 -207 -93.5 -317.5t-266.5 -110.5q-30 0 -63 4t-68 11z" />
    <glyph glyph-name="uni0136" unicode="&#x136;" horiz-adv-x="1411" 
d="M364 0h-220v1500h220v-849q36 54 70 100t59 78l534 671h260l-547 -689l657 -811h-285l-514 634l-234 -295v-339zM617 -490l-66 63q51 37 79 96t28 122q0 69 -34 125l142 32q23 -63 23 -132q0 -99 -46.5 -182t-125.5 -124z" />
    <glyph glyph-name="uni0137" unicode="&#x137;" horiz-adv-x="1173" 
d="M349 0h-205v1500h205v-1011l85 102l386 409h257l-413 -438l471 -562h-265l-348 422l-173 -178v-244zM490 -490l-66 63q51 37 79 96t28 122q0 70 -33 125l142 32q23 -63 23 -132q0 -99 -46.5 -182t-126.5 -124z" />
    <glyph glyph-name="kgreenlandic" unicode="&#x138;" horiz-adv-x="1173" 
d="M349 0h-205v1000h205v-511l85 102l386 409h257l-413 -438l471 -562h-265l-348 422l-173 -178v-244z" />
    <glyph glyph-name="Lacute" unicode="&#x139;" horiz-adv-x="1148" 
d="M327 1665h-147l151 335h191zM1084 0h-940v1500h220v-1306h720v-194z" />
    <glyph glyph-name="lacute" unicode="&#x13a;" horiz-adv-x="506" 
d="M320 1665h-146l151 335h191zM362 0h-218v1540h218v-1540z" />
    <glyph glyph-name="uni013B" unicode="&#x13b;" horiz-adv-x="1148" 
d="M1084 0h-940v1500h220v-1306h720v-194zM560 -490l-66 63q51 37 78.5 96t27.5 122q0 70 -33 125l143 32q23 -63 23 -132q0 -99 -46.5 -182t-126.5 -124z" />
    <glyph glyph-name="uni013C" unicode="&#x13c;" horiz-adv-x="506" 
d="M362 0h-218v1540h218v-1540zM201 -490l-66 63q51 37 78.5 96t27.5 122q0 70 -33 125l143 32q23 -63 23 -132q0 -99 -46.5 -182t-126.5 -124z" />
    <glyph glyph-name="Lcaron" unicode="&#x13d;" horiz-adv-x="1148" 
d="M821 1050h-119l101 450h147zM1084 0h-940v1500h220v-1306h720v-194z" />
    <glyph glyph-name="lcaron" unicode="&#x13e;" horiz-adv-x="821" 
d="M362 0h-218v1540h218v-1540zM678 1060h-119l101 450h147z" />
    <glyph glyph-name="Ldot" unicode="&#x13f;" horiz-adv-x="1148" 
d="M1084 0h-940v1500h220v-1306h720v-194zM764 650q-45 0 -72.5 27.5t-27.5 72.5t27.5 72.5t72.5 27.5q44 0 72 -27.5t28 -72.5t-28 -72.5t-72 -27.5z" />
    <glyph glyph-name="ldot" unicode="&#x140;" horiz-adv-x="777" 
d="M362 0h-218v1540h218v-1540zM654 670q-45 0 -72.5 27.5t-27.5 72.5t27.5 72.5t72.5 27.5q44 0 72.5 -27.5t28.5 -72.5t-28.5 -72.5t-72.5 -27.5z" />
    <glyph glyph-name="Lslash" unicode="&#x141;" horiz-adv-x="1148" 
d="M-57 482l-60 108l261 150v760h220v-632l260 150l60 -108l-320 -185v-531h720v-194h-940v598z" />
    <glyph glyph-name="lslash" unicode="&#x142;" horiz-adv-x="487" 
d="M-96 502l-61 108l293 168v762h217v-635l231 133l61 -108l-292 -168v-762h-217v636z" />
    <glyph glyph-name="Nacute" unicode="&#x143;" horiz-adv-x="1612" 
d="M892 1665h-147l151 335h191zM1468 0h-242l-862 1158v-1158h-220v1500h241l863 -1159v1159h220v-1500z" />
    <glyph glyph-name="nacute" unicode="&#x144;" 
d="M660 1165h-147l151 335h191zM1101 0h-205v543q0 133 -72.5 212t-194.5 79q-126 0 -203 -84t-77 -223v-527h-205v1000h173l7 -161q55 88 144 134.5t209 46.5q197 0 310.5 -119t113.5 -328v-573z" />
    <glyph glyph-name="uni0145" unicode="&#x145;" horiz-adv-x="1608" 
d="M1456 0h-242l-862 1158v-1158h-220v1500h241l863 -1159v1159h220v-1500zM750 -490l-65 63q51 37 78.5 96t27.5 122q0 70 -33 125l142 32q24 -65 24 -132q0 -99 -47 -182t-127 -124z" />
    <glyph glyph-name="uni0146" unicode="&#x146;" 
d="M1101 0h-205v543q0 133 -72.5 212t-194.5 79q-126 0 -203 -84t-77 -223v-527h-205v1000h173l7 -161q55 88 144 134.5t209 46.5q197 0 310.5 -119t113.5 -328v-573zM558 -490l-66 63q51 37 79 96t28 122q0 70 -33 125l142 32q24 -65 24 -132q0 -99 -47 -182t-127 -124z
" />
    <glyph glyph-name="Ncaron" unicode="&#x147;" horiz-adv-x="1612" 
d="M904 1665h-175l-215 335h152l151 -249l150 249h152zM1468 0h-242l-862 1158v-1158h-220v1500h241l863 -1159v1159h220v-1500z" />
    <glyph glyph-name="ncaron" unicode="&#x148;" 
d="M719 1165h-174l-216 335h153l150 -249l150 249h152zM1101 0h-205v543q0 133 -72.5 212t-194.5 79q-126 0 -203 -84t-77 -223v-527h-205v1000h173l7 -161q55 88 144 134.5t209 46.5q197 0 310.5 -119t113.5 -328v-573z" />
    <glyph glyph-name="napostrophe" unicode="&#x149;" 
d="M210 1086l-66 63q51 37 78.5 96t27.5 122q0 70 -33 125l143 32q23 -63 23 -132q0 -99 -46.5 -182t-126.5 -124zM1101 0h-205v543q0 133 -72.5 212t-194.5 79q-125 0 -202.5 -84t-77.5 -223v-527h-205v1000h173l7 -161q55 88 144 134.5t210 46.5q196 0 309.5 -119
t113.5 -328v-573z" />
    <glyph glyph-name="Eng" unicode="&#x14a;" horiz-adv-x="1612" 
d="M903 -360l-10 193q144 -2 232 53.5t108 160.5q-30 33 -80.5 93t-108.5 130.5t-110.5 137t-85.5 110.5l-377 496l-106 153h-6l5 -200v-967h-220v1500h228l572 -754q31 -42 76 -102.5t91 -125t83.5 -117.5t54.5 -79h7l-8 208v970h220v-1315q0 -191 -58.5 -311.5
t-183.5 -177t-323 -56.5z" />
    <glyph glyph-name="eng" unicode="&#x14b;" 
d="M609 -505v162q16 -3 31 -4t29 -1q102 0 164 71.5t62 193.5v641q0 128 -68 202t-186 74q-84 0 -150 -38t-104 -107.5t-38 -161.5v-527h-205v1000h173l7 -161q55 88 150 134.5t215 46.5q190 0 301 -115t111 -312v-685q0 -207 -94 -317.5t-266 -110.5q-31 0 -63.5 4
t-68.5 11z" />
    <glyph glyph-name="Omacron" unicode="&#x14c;" horiz-adv-x="1725" 
d="M1192 1779h-659v121h659v-121zM864 -30q-170 0 -313 58t-249 163.5t-164 248t-58 310.5q0 169 58 311.5t164 247.5t249 163t313 58t312.5 -58t248 -163t163 -247.5t57.5 -311.5q0 -168 -57.5 -310.5t-163 -248t-248 -163.5t-312.5 -58zM863 164q120 0 222 44t177 123.5
t116.5 186t41.5 232.5t-41.5 233t-116.5 186.5t-177 123t-222 43.5t-221.5 -43.5t-177 -123t-117.5 -186.5t-42 -233t42 -233t117.5 -186.5t177 -123t221.5 -43.5z" />
    <glyph glyph-name="omacron" unicode="&#x14d;" horiz-adv-x="1194" 
d="M927 1279h-659v121h659v-121zM598 -20q-150 0 -270 68t-189 186t-69 266q0 149 69 266.5t189 185.5t270 68q151 0 270 -68t187.5 -185.5t68.5 -266.5q0 -148 -68.5 -266t-187.5 -186t-270 -68zM597 164q91 0 162.5 44.5t113 120.5t41.5 172t-41.5 171.5t-113 119.5
t-162.5 44q-90 0 -162 -44t-113.5 -119.5t-41.5 -171.5t41.5 -172t113.5 -120.5t162 -44.5z" />
    <glyph glyph-name="Obreve" unicode="&#x14e;" horiz-adv-x="1724" 
d="M1173 2000q0 -92 -39.5 -164t-110 -113t-162.5 -41q-91 0 -161 41t-110.5 113t-40.5 164h123q0 -95 52.5 -154.5t137.5 -59.5q84 0 137 59.5t53 154.5h121zM863 -30q-169 0 -312.5 58t-249 163.5t-163.5 248t-58 310.5q0 169 58 311.5t163.5 247.5t249 163t312.5 58
q170 0 312.5 -58t248 -163t163 -247.5t57.5 -311.5q0 -168 -57.5 -310.5t-163 -248t-248 -163.5t-312.5 -58zM862 164q120 0 222 44t177 123.5t116.5 186t41.5 232.5t-41.5 233t-116.5 186.5t-177 123t-222 43.5q-119 0 -221 -43.5t-177.5 -123t-117 -186.5t-41.5 -233
t41.5 -233t117 -186.5t177.5 -123t221 -43.5z" />
    <glyph glyph-name="obreve" unicode="&#x14f;" horiz-adv-x="1194" 
d="M908 1500q0 -92 -39.5 -164t-110 -113t-161.5 -41t-161.5 41t-110.5 113t-40 164h122q0 -95 53 -154.5t137 -59.5q85 0 137.5 59.5t52.5 154.5h121zM598 -20q-150 0 -270 68t-189 186t-69 266q0 149 69 266.5t189 185.5t270 68q151 0 270 -68t187.5 -185.5t68.5 -266.5
q0 -148 -68.5 -266t-187.5 -186t-270 -68zM597 164q91 0 162.5 44.5t113 120.5t41.5 172t-41.5 171.5t-113 119.5t-162.5 44q-90 0 -162 -44t-113.5 -119.5t-41.5 -171.5t41.5 -172t113.5 -120.5t162 -44.5z" />
    <glyph glyph-name="Ohungarumlaut" unicode="&#x150;" horiz-adv-x="1724" 
d="M723 1665h-147l151 335h192zM1109 1665h-147l151 335h191zM863 -30q-169 0 -312.5 58t-249 163.5t-163.5 248t-58 310.5q0 169 58 311.5t163.5 247.5t249 163t312.5 58q170 0 312.5 -58t248 -163t163 -247.5t57.5 -311.5q0 -168 -57.5 -310.5t-163 -248t-248 -163.5
t-312.5 -58zM862 164q120 0 222 44t177 123.5t116.5 186t41.5 232.5t-41.5 233t-116.5 186.5t-177 123t-222 43.5q-119 0 -221 -43.5t-177.5 -123t-117 -186.5t-41.5 -233t41.5 -233t117 -186.5t177.5 -123t221 -43.5z" />
    <glyph glyph-name="ohungarumlaut" unicode="&#x151;" horiz-adv-x="1194" 
d="M468 1165h-147l151 335h191zM854 1165h-147l151 335h191zM598 -20q-150 0 -270 68t-189 186t-69 266q0 149 69 266.5t189 185.5t270 68q151 0 270 -68t187.5 -185.5t68.5 -266.5q0 -148 -68.5 -266t-187.5 -186t-270 -68zM598 164q90 0 161.5 44.5t113 120.5t41.5 172
t-41.5 171.5t-113 119.5t-161.5 44t-162.5 -44t-114 -119.5t-41.5 -171.5t41.5 -172t114 -120.5t162.5 -44.5z" />
    <glyph glyph-name="OE" unicode="&#x152;" horiz-adv-x="2530" 
d="M831 -31q-163 0 -300 58t-238.5 163.5t-157 248t-55.5 310.5q0 169 55.5 311.5t157 247.5t238.5 163t300 58q134 0 250.5 -40t211 -114.5t158.5 -176.5v302h935v-194h-715v-449h674v-194h-674v-469h725v-194h-945v301q-64 -103 -158.5 -177t-211 -114.5t-250.5 -40.5z
M878 162q124 0 228 44.5t181.5 124t120.5 186.5t43 232q0 126 -43 233t-120.5 186.5t-181.5 123t-228 43.5t-228.5 -43.5t-181.5 -123t-120 -186.5t-43 -233q0 -125 43 -232t120 -186.5t181.5 -124t228.5 -44.5z" />
    <glyph glyph-name="oe" unicode="&#x153;" horiz-adv-x="2034" 
d="M1904 119q-186 -139 -409 -139q-154 0 -279 67.5t-197 182.5q-43 -76 -109 -132t-149.5 -87t-180.5 -31q-146 0 -261 68t-182 186t-67 266q0 149 67 266.5t182 185.5t261 68q94 0 176 -29t147 -82t108 -126q67 109 181.5 173t258.5 64q153 0 268 -71t180 -197.5
t65 -292.5v-31h-803q19 -80 69 -140t124.5 -94t165.5 -34q166 0 304 108zM600 164q92 0 164 44.5t114 120.5t42 172t-42 171.5t-114 119.5t-164 44q-91 0 -163.5 -44t-114.5 -119.5t-42 -171.5t42 -172t114.5 -120.5t163.5 -44.5zM1152 554h620q-9 83 -51 146t-108.5 98.5
t-150.5 35.5t-151 -35.5t-108.5 -98.5t-50.5 -146z" />
    <glyph glyph-name="Racute" unicode="&#x154;" horiz-adv-x="1335" 
d="M643 1665h-147l151 335h191zM1271 0h-245l-343 587h-319v-587h-220v1500h536q168 0 288 -55t185 -157t65 -244q0 -159 -81 -268t-229 -155zM364 773h301q154 0 241 70.5t87 196.5q0 125 -86.5 195.5t-241.5 70.5h-301v-533z" />
    <glyph glyph-name="racute" unicode="&#x155;" horiz-adv-x="817" 
d="M484 1165h-147l151 335h191zM349 0h-205v1000h179l8 -190q52 99 143.5 154.5t210.5 55.5q29 0 58.5 -3.5t59.5 -10.5l-26 -185q-58 15 -114 15q-93 0 -164 -44.5t-110.5 -122.5t-39.5 -180v-489z" />
    <glyph glyph-name="uni0156" unicode="&#x156;" horiz-adv-x="1335" 
d="M1271 0h-245l-343 587h-319v-587h-220v1500h536q168 0 288 -55t185 -157t65 -244q0 -159 -81 -268t-229 -155zM364 773h301q154 0 241 70.5t87 196.5q0 125 -86.5 195.5t-241.5 70.5h-301v-533zM614 -490l-67 63q51 37 79 96t28 122q0 70 -33 125l142 32q24 -65 24 -132
q0 -99 -47 -182t-126 -124z" />
    <glyph glyph-name="uni0157" unicode="&#x157;" horiz-adv-x="817" 
d="M350 0h-205v1000h179l8 -190q52 99 143.5 154.5t210.5 55.5q28 0 58 -3.5t59 -10.5l-25 -185q-58 15 -114 15q-93 0 -164 -44.5t-110.5 -122.5t-39.5 -180v-489zM171 -490l-66 63q51 37 79 96t28 122q0 70 -33 125l142 32q23 -65 23 -132q0 -99 -46.5 -182t-126.5 -124z
" />
    <glyph glyph-name="Rcaron" unicode="&#x158;" horiz-adv-x="1335" 
d="M714 1665h-174l-216 335h153l150 -249l150 249h153zM1271 0h-245l-343 587h-319v-587h-220v1500h536q168 0 288 -55t185 -157t65 -244q0 -159 -81 -268t-229 -155zM364 773h301q154 0 241 70.5t87 196.5q0 125 -86.5 195.5t-241.5 70.5h-301v-533z" />
    <glyph glyph-name="rcaron" unicode="&#x159;" horiz-adv-x="818" 
d="M496 1165h-174l-216 335h153l150 -249l150 249h152zM350 0h-205v1000h179l8 -190q52 99 143.5 154.5t210.5 55.5q29 0 58.5 -3.5t59.5 -10.5l-26 -185q-58 15 -114 15q-93 0 -164 -44.5t-110.5 -122.5t-39.5 -180v-489z" />
    <glyph glyph-name="Sacute" unicode="&#x15a;" horiz-adv-x="1207" 
d="M673 1665h-147l151 335h192zM74 151l105 169q67 -54 131.5 -89.5t130.5 -52t135 -16.5q94 0 164 30t109 84t39 124q0 79 -45.5 131t-118.5 89.5t-156 71.5q-73 30 -145.5 65.5t-132 82.5t-95 114.5t-35.5 163.5q0 123 62 216t171.5 144t252.5 51q97 0 198.5 -25.5
t198.5 -75.5l-89 -179q-70 41 -148.5 64t-151.5 23q-80 0 -140.5 -26t-94.5 -73t-34 -110q0 -71 43 -120t112.5 -85.5t147.5 -70.5q76 -34 151.5 -71.5t137 -88.5t99 -121.5t37.5 -169.5q0 -129 -66 -225.5t-184.5 -150.5t-277.5 -54q-141 0 -269.5 45.5t-241.5 135.5z" />
    <glyph glyph-name="sacute" unicode="&#x15b;" horiz-adv-x="898" 
d="M525 1165h-147l151 335h192zM94 87l50 184q34 -34 81.5 -60t101 -40.5t105.5 -14.5q82 0 132 35t50 93q0 43 -27.5 71.5t-72.5 49.5t-97 41q-67 25 -134 58t-112 88t-45 145q0 86 44 149.5t123 98.5t182 35q160 0 317 -80l-60 -175q-32 23 -76 41t-90 28.5t-85 10.5
q-65 0 -104.5 -29t-39.5 -78q0 -30 19 -54.5t60.5 -48t112.5 -52.5q68 -27 136 -62t113.5 -91t45.5 -147q0 -90 -48 -158.5t-133.5 -106.5t-198.5 -38q-187 0 -350 107z" />
    <glyph glyph-name="Scircumflex" unicode="&#x15c;" horiz-adv-x="1207" 
d="M933 1665h-153l-150 249l-150 -249h-153l216 335h175zM74 151l105 169q67 -54 131.5 -89.5t130.5 -52t135 -16.5q94 0 164 30t109 84t39 124q0 79 -45.5 131t-118.5 89.5t-156 71.5q-73 30 -145.5 65.5t-132 82.5t-95 114.5t-35.5 163.5q0 123 62 216t171.5 144t252.5 51
q97 0 198.5 -25.5t198.5 -75.5l-89 -179q-70 41 -148.5 64t-151.5 23q-80 0 -140.5 -26t-94.5 -73t-34 -110q0 -71 43.5 -120t113.5 -86t150 -72q75 -33 149 -70.5t136 -88t99 -121t37 -169.5q0 -129 -66 -225.5t-184.5 -150.5t-277.5 -54q-141 0 -269.5 45.5t-241.5 135.5z
" />
    <glyph glyph-name="scircumflex" unicode="&#x15d;" horiz-adv-x="898" 
d="M782 1165h-152l-151 249l-150 -249h-152l214 335h176zM94 87l50 184q34 -34 81.5 -60t101 -40.5t105.5 -14.5q82 0 132 35t50 93q0 43 -27.5 71.5t-72.5 49.5t-97 41q-67 25 -134 58t-112 88t-45 145q0 86 44 149.5t123 98.5t182 35q160 0 317 -80l-60 -175
q-32 23 -76 41t-90 28.5t-85 10.5q-65 0 -104.5 -29t-39.5 -78q0 -30 19 -54.5t60.5 -48t112.5 -52.5q68 -27 136 -62t113.5 -91t45.5 -147q0 -90 -48 -158.5t-133.5 -106.5t-198.5 -38q-187 0 -350 107z" />
    <glyph glyph-name="Scedilla" unicode="&#x15e;" horiz-adv-x="1206" 
d="M74 151l105 169q67 -54 131.5 -89.5t130.5 -52t135 -16.5q94 0 164 30t109 84t39 124q0 79 -45.5 131t-118.5 89.5t-156 71.5q-73 30 -145.5 65.5t-132 82.5t-95 114.5t-35.5 163.5q0 123 62 216t171.5 144t252.5 51q97 0 198.5 -25.5t198.5 -75.5l-89 -179
q-70 41 -148.5 64t-151.5 23q-80 0 -140.5 -26t-94.5 -73t-34 -110q0 -71 43 -120t112.5 -85.5t147.5 -70.5q76 -34 151.5 -71.5t137 -88.5t98.5 -121.5t37 -169.5q0 -122 -59 -215.5t-166 -149t-251 -64.5l-23 -53q74 -7 119 -49t45 -109q0 -77 -61 -127.5t-159 -50.5
q-67 0 -137 26l36 94q43 -19 89 -19q52 0 86.5 25.5t34.5 63.5q0 41 -38.5 67.5t-98.5 26.5h-10.5t-10.5 -1l41 105q-131 6 -250 51.5t-225 129.5z" />
    <glyph glyph-name="scedilla" unicode="&#x15f;" horiz-adv-x="898" 
d="M94 87l50 184q34 -34 81.5 -60t101 -40.5t105.5 -14.5q82 0 132 35t50 93q0 43 -27.5 71.5t-72.5 49.5t-97 41q-67 25 -134 58t-112 88t-45 145q0 86 44 149.5t123 98.5t182 35q160 0 317 -80l-60 -175q-32 23 -76 41t-90 28.5t-85 10.5q-65 0 -104.5 -29t-39.5 -78
q0 -30 19 -54.5t60.5 -48t112.5 -52.5q68 -27 136 -62t113.5 -91t45.5 -147q0 -84 -41.5 -149t-116 -104.5t-174.5 -47.5l-28 -64q74 -7 119 -49t45 -109q0 -77 -61 -127.5t-159 -50.5q-67 0 -137 26l37 94q43 -19 88 -19q52 0 86.5 25.5t34.5 63.5q0 41 -38.5 67.5
t-98.5 26.5h-10.5t-10.5 -1l45 116q-82 5 -161 32.5t-149 73.5z" />
    <glyph glyph-name="Scaron" unicode="&#x160;" horiz-adv-x="1207" 
d="M735 1665h-174l-215 335h152l151 -249l150 249h152zM74 151l105 169q67 -54 131.5 -89.5t130.5 -52t135 -16.5q94 0 164 30t109 84t39 124q0 79 -45.5 131t-118.5 89.5t-156 71.5q-73 30 -145.5 65.5t-132 82.5t-95 114.5t-35.5 163.5q0 123 62 216t171.5 144t252.5 51
q97 0 198.5 -25.5t198.5 -75.5l-89 -179q-70 41 -148.5 64t-151.5 23q-80 0 -140.5 -26t-94.5 -73t-34 -110q0 -71 43 -120t112.5 -85.5t147.5 -70.5q76 -34 151.5 -71.5t137 -88.5t99 -121.5t37.5 -169.5q0 -129 -66 -225.5t-184.5 -150.5t-277.5 -54q-141 0 -269.5 45.5
t-241.5 135.5z" />
    <glyph glyph-name="scaron" unicode="&#x161;" horiz-adv-x="898" 
d="M567 1165h-175l-215 335h152l151 -249l150 249h152zM94 87l50 184q34 -34 81.5 -60t101 -40.5t105.5 -14.5q82 0 132 35t50 93q0 43 -27.5 71.5t-72.5 49.5t-97 41q-67 25 -134 58t-112 88t-45 145q0 86 44 149.5t123 98.5t182 35q160 0 317 -80l-60 -175q-32 23 -76 41
t-90 28.5t-85 10.5q-65 0 -104.5 -29t-39.5 -78q0 -30 19 -55t61.5 -48.5t113.5 -52.5q70 -28 137 -63t111.5 -91t44.5 -145q0 -90 -48 -158.5t-133.5 -106.5t-198.5 -38q-187 0 -350 107z" />
    <glyph glyph-name="uni0162" unicode="&#x162;" horiz-adv-x="1218" 
d="M719 0h-61l-35 -82q74 -7 119 -49t45 -109q0 -77 -61 -127.5t-158 -50.5q-68 0 -138 26l37 94q43 -19 88 -19q52 0 86.5 25.5t34.5 63.5q0 41 -38.5 67.5t-98.5 26.5h-10.5t-10.5 -1l52 135h-71v1306h-469v194h1158v-194h-469v-1306z" />
    <glyph glyph-name="uni0163" unicode="&#x163;" horiz-adv-x="854" 
d="M780 25q-105 -45 -203 -45q-13 0 -26.5 1t-25.5 3l-29 -66q74 -7 119 -49t45 -109q0 -77 -61 -127.5t-159 -50.5q-67 0 -137 26l37 94q43 -19 88 -19q52 0 86.5 25.5t34.5 63.5q0 41 -38.5 67.5t-98.5 26.5h-10.5t-10.5 -1l54 139q-91 36 -143.5 118t-52.5 195v500h-175
v183h185v250h195v-250h292v-183h-292v-462q0 -88 47.5 -139.5t122.5 -51.5q63 0 125 38z" />
    <glyph glyph-name="Tcaron" unicode="&#x164;" horiz-adv-x="1218" 
d="M697 1665h-175l-215 335h153l149 -249l151 249h152zM720 0h-220v1306h-470v194h1158v-194h-468v-1306z" />
    <glyph glyph-name="tcaron" unicode="&#x165;" horiz-adv-x="1049" 
d="M906 1070h-118l101 450h146zM764 25q-105 -45 -204 -45q-97 0 -171 42t-115 118.5t-41 176.5v500h-175v183h185v250h195v-250h291v-183h-291v-462q0 -88 47 -139.5t122 -51.5q64 0 126 38z" />
    <glyph glyph-name="Tbar" unicode="&#x166;" horiz-adv-x="1218" 
d="M944 639h-225v-639h-220v639h-225v121h225v546h-469v194h1158v-194h-469v-546h225v-121z" />
    <glyph glyph-name="tbar" unicode="&#x167;" horiz-adv-x="854" 
d="M743 473h-288v-128q0 -82 46.5 -132.5t121.5 -50.5q64 0 126 38l31 -175q-104 -45 -203 -45q-98 0 -171.5 42t-114.5 118.5t-41 176.5v156h-176v104h176v240h-175v183h184v250h196v-250h291v-184h-291v-240h288v-103z" />
    <glyph glyph-name="Utilde" unicode="&#x168;" horiz-adv-x="1564" 
d="M1129 1954q-6 -108 -57 -165.5t-141 -57.5q-54 0 -92.5 20.5t-81.5 52.5q-26 21 -55 37t-68 16q-100 0 -115 -116h-85q14 223 198 223q62 0 103.5 -22t75.5 -48q30 -22 59 -38.5t66 -16.5q94 0 109 115h84zM1420 1500v-828q0 -218 -76.5 -376t-219.5 -242t-342 -84
t-342 84t-219.5 242t-76.5 376v828h220v-806q0 -170 49 -288.5t142.5 -180t226.5 -61.5t226.5 61.5t142.5 180t49 288.5v806h220z" />
    <glyph glyph-name="utilde" unicode="&#x169;" 
d="M943 1454q-6 -108 -57 -165.5t-140 -57.5q-55 0 -93.5 20t-76.5 50q-29 22 -58.5 39t-68.5 17q-101 0 -116 -116h-84q14 223 198 223q62 0 103 -22.5t75 -47.5q30 -22 59 -38.5t66 -16.5q94 0 109 115h84zM1081 0h-174l-7 161q-55 -88 -143.5 -134.5t-209.5 -46.5
q-196 0 -309.5 119.5t-113.5 327.5v573h205v-543q0 -133 72 -212t194 -79q126 0 203.5 84.5t77.5 222.5v527h205v-1000z" />
    <glyph glyph-name="Umacron" unicode="&#x16a;" horiz-adv-x="1564" 
d="M1111 1779h-659v121h659v-121zM1420 1500v-828q0 -218 -76.5 -376t-219 -242t-342.5 -84q-198 0 -341 84t-220 242t-77 376v828h220v-806q0 -170 49 -288.5t143 -180t226 -61.5q134 0 227 61.5t142 180t49 288.5v806h220z" />
    <glyph glyph-name="umacron" unicode="&#x16b;" 
d="M925 1279h-658v121h658v-121zM1081 0h-174l-7 161q-55 -88 -143.5 -134.5t-209.5 -46.5q-196 0 -309.5 119.5t-113.5 327.5v573h205v-543q0 -133 72 -212t194 -79q126 0 203.5 84.5t77.5 222.5v527h205v-1000z" />
    <glyph glyph-name="Ubreve" unicode="&#x16c;" horiz-adv-x="1564" 
d="M1094 2000q0 -92 -40 -164t-110.5 -113t-161.5 -41q-92 0 -162 41t-110 113t-40 164h122q0 -95 52.5 -154.5t137.5 -59.5q84 0 137 59.5t53 154.5h122zM1420 1500v-828q0 -218 -76.5 -376t-219 -242t-342.5 -84q-198 0 -341 84t-220 242t-77 376v828h220v-806
q0 -170 49 -288.5t143 -180t226 -61.5q134 0 227 61.5t142 180t49 288.5v806h220z" />
    <glyph glyph-name="ubreve" unicode="&#x16d;" 
d="M907 1500q0 -92 -39.5 -164t-109.5 -113t-162 -41q-91 0 -161.5 41t-110.5 113t-40 164h122q0 -95 53 -154.5t137 -59.5q85 0 137.5 59.5t52.5 154.5h121zM1081 0h-174l-7 161q-55 -88 -143.5 -134.5t-209.5 -46.5q-196 0 -309.5 119.5t-113.5 327.5v573h205v-543
q0 -133 72 -212t194 -79q126 0 203.5 84.5t77.5 222.5v527h205v-1000z" />
    <glyph glyph-name="Uring" unicode="&#x16e;" horiz-adv-x="1564" 
d="M782 1601q-97 0 -156 57.5t-59 151.5q0 95 59 152.5t156 57.5q96 0 155 -57.5t59 -152.5q0 -94 -59 -151.5t-155 -57.5zM782 1690q53 0 86 33t33 87q0 55 -33 88t-86 33q-54 0 -86.5 -33t-32.5 -88q0 -54 32.5 -87t86.5 -33zM1420 1500v-828q0 -218 -76.5 -376t-219 -242
t-342.5 -84q-198 0 -341 84t-220 242t-77 376v828h220v-806q0 -170 49 -288.5t143 -180t226 -61.5q134 0 227 61.5t142 180t49 288.5v806h220z" />
    <glyph glyph-name="uring" unicode="&#x16f;" 
d="M596 1101q-96 0 -155 57.5t-59 151.5q0 95 59 152.5t155 57.5q97 0 155.5 -57.5t58.5 -152.5q0 -94 -58.5 -151.5t-155.5 -57.5zM596 1190q54 0 86.5 33t32.5 87q0 55 -32.5 88t-86.5 33q-53 0 -86 -33t-33 -88q0 -54 33 -87t86 -33zM1081 0h-174l-7 161
q-55 -88 -143.5 -134.5t-209.5 -46.5q-196 0 -309.5 119.5t-113.5 327.5v573h205v-543q0 -133 72 -212t194 -79q126 0 203.5 84.5t77.5 222.5v527h205v-1000z" />
    <glyph glyph-name="Uhungarumlaut" unicode="&#x170;" horiz-adv-x="1564" 
d="M627 1665h-148l152 335h191zM1012 1665h-147l151 335h192zM1420 1500v-828q0 -218 -76.5 -376t-219 -242t-342.5 -84q-198 0 -341 84t-220 242t-77 376v828h220v-806q0 -170 49 -288.5t143 -180t226 -61.5q134 0 227 61.5t142 180t49 288.5v806h220z" />
    <glyph glyph-name="uhungarumlaut" unicode="&#x171;" 
d="M473 1165h-148l152 335h192zM858 1165h-147l152 335h191zM1081 0h-174l-7 161q-55 -88 -143.5 -134.5t-209.5 -46.5q-196 0 -309.5 119.5t-113.5 327.5v573h205v-543q0 -133 72 -212t194 -79q126 0 203.5 84.5t77.5 222.5v527h205v-1000z" />
    <glyph glyph-name="Uogonek" unicode="&#x172;" horiz-adv-x="1564" 
d="M1420 1500v-828q0 -259 -107.5 -432t-302.5 -236q-72 -30 -116.5 -86t-44.5 -112q0 -45 33.5 -77.5t96.5 -36.5l-13 -108q-105 0 -165 51t-60 128q0 62 37.5 117.5t103.5 95.5q-24 -3 -49 -4.5t-51 -1.5q-199 0 -342 84t-219.5 242t-76.5 376v828h220v-806
q0 -170 49 -288.5t142.5 -180t226.5 -61.5t226.5 61.5t142.5 180t49 288.5v806h220z" />
    <glyph glyph-name="uogonek" unicode="&#x173;" 
d="M1081 0h-22q-68 -31 -110 -86t-42 -108q0 -45 33.5 -77.5t97.5 -36.5l-15 -108q-104 0 -164 51t-60 128q0 71 50 135t136 102h-78l-7 161q-55 -88 -143.5 -134.5t-209.5 -46.5q-196 0 -309.5 119.5t-113.5 327.5v573h205v-543q0 -133 72 -212t194 -79q126 0 203.5 84.5
t77.5 222.5v527h205v-1000z" />
    <glyph glyph-name="Wcircumflex" unicode="&#x174;" horiz-adv-x="2166" 
d="M1386 1665h-153l-151 249l-150 -249h-152l216 335h174zM1634 0h-196l-354 1129l-354 -1129h-196l-488 1500h231l355 -1132l354 1132h196l353 -1130l354 1130h231z" />
    <glyph glyph-name="wcircumflex" unicode="&#x175;" horiz-adv-x="1612" 
d="M1109 1165h-153l-150 249l-151 -249h-151l214 335h176zM1245 0h-236l-204 715l-204 -715h-236l-319 1000h216l219 -766l231 766h187l231 -767l219 767h217z" />
    <glyph glyph-name="Ycircumflex" unicode="&#x176;" horiz-adv-x="1418" 
d="M1012 1665h-153l-150 249l-151 -249h-151l214 335h176zM818 0h-220v641l-576 859h267l419 -671l422 671h266l-578 -861v-639z" />
    <glyph glyph-name="ycircumflex" unicode="&#x177;" horiz-adv-x="1215" 
d="M937 1165h-152l-150 249l-151 -249h-152l215 335h176zM549 -500h-221l210 506l-492 994h233l356 -759l315 759h219z" />
    <glyph glyph-name="Ydieresis" unicode="&#x178;" horiz-adv-x="1419" 
d="M819 0h-220v641l-577 859h267l420 -671l422 671h266l-578 -861v-639zM933 1736q-45 0 -72.5 28t-27.5 72q0 45 27.5 72.5t72.5 27.5t72 -27.5t27 -72.5q0 -44 -27 -72t-72 -28zM487 1736q-44 0 -72 28t-28 72q0 45 28 72.5t72 27.5q45 0 72.5 -27.5t27.5 -72.5
q0 -44 -27.5 -72t-72.5 -28z" />
    <glyph glyph-name="Zacute" unicode="&#x179;" horiz-adv-x="1289" 
d="M721 1665h-147l151 335h191zM1209 0h-1129v166l830 1140h-790v194h1074v-176l-821 -1130h836v-194z" />
    <glyph glyph-name="zacute" unicode="&#x17a;" horiz-adv-x="1064" 
d="M608 1165h-147l151 335h192zM994 0h-924v109l579 707h-550v184h866v-93l-591 -723h620v-184z" />
    <glyph glyph-name="Zdotaccent" unicode="&#x17b;" horiz-adv-x="1289" 
d="M1209 0h-1129v166l829 1140h-789v194h1074v-176l-821 -1130h836v-194zM674 1725q-44 0 -71.5 27.5t-27.5 73.5q0 43 27.5 71t71.5 28q45 0 73 -28t28 -71q0 -46 -28 -73.5t-73 -27.5z" />
    <glyph glyph-name="zdotaccent" unicode="&#x17c;" horiz-adv-x="1065" 
d="M532 1235q-42 0 -68.5 26.5t-26.5 68.5q0 43 26.5 69t68.5 26q43 0 69 -26t26 -69q0 -42 -26 -68.5t-69 -26.5zM995 0h-925v109l579 707h-550v184h866v-93l-591 -723h621v-184z" />
    <glyph glyph-name="Zcaron" unicode="&#x17d;" horiz-adv-x="1289" 
d="M752 1665h-174l-216 335h153l150 -249l150 249h153zM1209 0h-1129v166l830 1140h-790v194h1074v-176l-821 -1130h836v-194z" />
    <glyph glyph-name="zcaron" unicode="&#x17e;" horiz-adv-x="1064" 
d="M639 1165h-175l-215 335h153l150 -249l150 249h152zM994 0h-924v109l578 707h-550v184h867v-93l-592 -723h621v-184z" />
    <glyph glyph-name="longs" unicode="&#x17f;" horiz-adv-x="701" 
d="M365 0h-221v1161q0 173 91.5 271t251.5 98q79 0 168 -25l-46 -180q-41 12 -76 12q-78 0 -123 -51t-45 -142v-1144z" />
    <glyph glyph-name="florin" unicode="&#x192;" horiz-adv-x="1133" 
d="M956 816h-290l-36 -517q-7 -97 -53 -171t-121.5 -116t-171.5 -42q-68 0 -136.5 22t-125.5 60l86 158q64 -56 142 -56q75 0 125.5 52.5t56.5 137.5l32 472h-218l13 184h219l14 202q7 98 52.5 171.5t121 115t171.5 41.5q69 0 138 -21.5t126 -60.5l-86 -158q-64 56 -143 56
q-75 0 -125 -52.5t-56 -138.5l-11 -155h289z" />
    <glyph glyph-name="uni01CD" unicode="&#x1cd;" horiz-adv-x="1531" 
d="M269 0h-231l610 1500h236l609 -1500h-231l-150 377h-693zM494 571h543l-272 685zM853 1665h-175l-215 335h152l150 -249l151 249h152z" />
    <glyph glyph-name="uni01CE" unicode="&#x1ce;" horiz-adv-x="1103" 
d="M979 0h-177l-12 128q-55 -70 -139 -109t-186 -39q-107 0 -191 42t-132 115t-48 166q0 98 52 172.5t142 117t205 42.5q72 0 146.5 -17t134.5 -48v37q0 73 -37.5 125.5t-102 80.5t-142.5 28q-69 0 -140.5 -24t-134.5 -74l-62 167q91 54 189.5 82t193.5 28q136 0 234.5 -54
t152.5 -153.5t54 -234.5v-578zM505 154q71 0 131 29.5t97.5 84t40.5 127.5v14q-51 38 -114.5 59.5t-129.5 21.5q-101 0 -168 -48t-67 -123q0 -47 27.5 -84.5t75 -59t107.5 -21.5zM639 1165h-175l-215 335h152l150 -249l151 249h152z" />
    <glyph glyph-name="uni0218" unicode="&#x218;" horiz-adv-x="1207" 
d="M74 151l105 169q67 -54 131.5 -89.5t130.5 -52t135 -16.5q94 0 164 30t109 84t39 124q0 79 -45.5 131t-118.5 89.5t-156 71.5q-73 30 -145.5 65.5t-132 82.5t-95 114.5t-35.5 163.5q0 123 62 216t171.5 144t252.5 51q97 0 198.5 -25.5t198.5 -75.5l-89 -179
q-70 41 -148.5 64t-151.5 23q-80 0 -140.5 -26t-94.5 -73t-34 -110q0 -71 43.5 -120t113.5 -86t150 -72q75 -33 149 -70.5t136 -88t99 -121t37 -169.5q0 -129 -66 -225.5t-184.5 -150.5t-277.5 -54q-141 0 -269.5 45.5t-241.5 135.5zM545 -490l-67 63q52 37 80 96t28 122
q0 70 -33 125l141 32q24 -65 24 -133q0 -98 -47 -181t-126 -124z" />
    <glyph glyph-name="uni0219" unicode="&#x219;" horiz-adv-x="898" 
d="M94 87l50 184q34 -34 81.5 -60t101 -40.5t105.5 -14.5q82 0 132 35t50 93q0 43 -27.5 71.5t-72.5 49.5t-97 41q-67 25 -134 58t-112 88t-45 145q0 86 44 149.5t123 98.5t182 35q160 0 317 -80l-60 -175q-32 23 -76 41t-90 28.5t-85 10.5q-65 0 -104.5 -29t-39.5 -78
q0 -30 19 -54.5t60.5 -48t112.5 -52.5q68 -27 136 -62t113.5 -91t45.5 -147q0 -90 -48 -158.5t-133.5 -106.5t-198.5 -38q-187 0 -350 107zM396 -490l-66 63q51 37 79 96t28 122q0 70 -33 125l141 32q24 -65 24 -132q0 -99 -47 -182t-126 -124z" />
    <glyph glyph-name="uni021A" unicode="&#x21a;" horiz-adv-x="1218" 
d="M719 0h-220v1306h-469v194h1158v-194h-469v-1306zM540 -490l-66 63q51 37 79 96t28 122q0 70 -33 125l142 32q23 -63 23 -132q0 -99 -47 -182t-126 -124z" />
    <glyph glyph-name="uni021B" unicode="&#x21b;" horiz-adv-x="854" 
d="M780 25q-105 -45 -204 -45q-97 0 -171 42t-115 118.5t-41 176.5v500h-175v183h185v250h195v-250h291v-183h-291v-462q0 -88 47 -139.5t122 -51.5q63 0 125 38zM381 -490l-66 63q51 37 78.5 96t27.5 122q0 70 -33 125l142 32q23 -63 23 -132q0 -99 -46.5 -182t-125.5 -124
z" />
    <glyph glyph-name="uni0237" unicode="&#x237;" horiz-adv-x="501" 
d="M-124 -505v162q16 -3 30.5 -4t28.5 -1q103 0 164.5 71.5t61.5 193.5v1083h206v-1092q0 -207 -93.5 -317.5t-266.5 -110.5q-30 0 -63 4t-68 11z" />
    <glyph glyph-name="circumflex" unicode="&#x2c6;" horiz-adv-x="893" 
d="M749 1165h-152l-151 249l-150 -249h-152l215 335h175z" />
    <glyph glyph-name="caron" unicode="&#x2c7;" horiz-adv-x="893" 
d="M534 1165h-175l-215 335h152l150 -249l151 249h152z" />
    <glyph glyph-name="uni02C9" unicode="&#x2c9;" horiz-adv-x="947" 
d="M803 1276h-659v121h659v-121z" />
    <glyph glyph-name="breve" unicode="&#x2d8;" horiz-adv-x="912" 
d="M768 1500q0 -92 -40 -164t-110.5 -113t-161.5 -41t-161.5 41t-110.5 113t-40 164h122q0 -95 53 -154.5t137 -59.5q85 0 137 59.5t52 154.5h123z" />
    <glyph glyph-name="dotaccent" unicode="&#x2d9;" horiz-adv-x="478" 
d="M238 1225q-44 0 -71.5 27.5t-27.5 73.5q0 43 27.5 71t71.5 28q45 0 73 -28t28 -71q0 -46 -28 -73.5t-73 -27.5z" />
    <glyph glyph-name="ring" unicode="&#x2da;" horiz-adv-x="718" 
d="M359 1101q-97 0 -156 57.5t-59 151.5q0 95 59 152.5t156 57.5t156 -57.5t59 -152.5q0 -94 -59 -151.5t-156 -57.5zM359 1190q53 0 86 33t33 87q0 55 -33 88t-86 33q-54 0 -86.5 -33t-32.5 -88q0 -54 32.5 -87t86.5 -33z" />
    <glyph glyph-name="ogonek" unicode="&#x2db;" horiz-adv-x="558" 
d="M369 -416q-104 0 -164.5 51t-60.5 128q0 74 52.5 139t142.5 102h75q-73 -30 -117.5 -86t-44.5 -112q0 -45 33.5 -77.5t97.5 -36.5z" />
    <glyph glyph-name="tilde" unicode="&#x2dc;" horiz-adv-x="983" 
d="M839 1454q-7 -108 -57.5 -165.5t-139.5 -57.5q-56 0 -94 20t-77 50q-28 22 -58 39t-68 17q-101 0 -116 -116h-85q14 223 198 223q62 0 103 -22.5t76 -47.5q29 -22 58 -38.5t66 -16.5q95 0 110 115h84z" />
    <glyph glyph-name="hungarumlaut" unicode="&#x2dd;" horiz-adv-x="813" 
d="M198 1165h-147l152 335h191zM584 1165h-147l152 335h191z" />
    <glyph glyph-name="gravecomb" unicode="&#x300;" horiz-adv-x="501" 
d="M417 1165h-148l-195 335h191z" />
    <glyph glyph-name="acutecomb" unicode="&#x301;" horiz-adv-x="501" 
d="M231 1165h-147l152 335h191z" />
    <glyph glyph-name="uni0302" unicode="&#x302;" horiz-adv-x="893" 
d="M749 1165h-152l-151 249l-150 -249h-152l215 335h175z" />
    <glyph glyph-name="tildecomb" unicode="&#x303;" horiz-adv-x="983" 
d="M839 1454q-7 -108 -57.5 -165.5t-139.5 -57.5q-56 0 -94 20t-77 50q-28 22 -58 39t-68 17q-101 0 -116 -116h-85q14 223 198 223q62 0 103 -22.5t76 -47.5q29 -22 58 -38.5t66 -16.5q95 0 110 115h84z" />
    <glyph glyph-name="uni0304" unicode="&#x304;" horiz-adv-x="947" 
d="M803 1279h-659v121h659v-121z" />
    <glyph glyph-name="uni0306" unicode="&#x306;" horiz-adv-x="912" 
d="M768 1500q0 -92 -40 -164t-110.5 -113t-161.5 -41t-161.5 41t-110.5 113t-40 164h122q0 -95 53 -154.5t137 -59.5q85 0 137 59.5t52 154.5h123z" />
    <glyph glyph-name="uni0307" unicode="&#x307;" horiz-adv-x="478" 
d="M238 1225q-44 0 -71.5 27.5t-27.5 73.5q0 43 27.5 71t71.5 28q45 0 73 -28t28 -71q0 -46 -28 -73.5t-73 -27.5z" />
    <glyph glyph-name="uni0308" unicode="&#x308;" horiz-adv-x="903" 
d="M675 1236q-45 0 -72.5 28t-27.5 72q0 45 27.5 72.5t72.5 27.5t72 -27.5t27 -72.5q0 -44 -27 -72t-72 -28zM229 1236q-44 0 -72 28t-28 72q0 45 28 72.5t72 27.5q45 0 72.5 -27.5t27.5 -72.5q0 -44 -27.5 -72t-72.5 -28z" />
    <glyph glyph-name="uni030A" unicode="&#x30a;" horiz-adv-x="718" 
d="M359 1101q-97 0 -156 57.5t-59 151.5q0 95 59 152.5t156 57.5t156 -57.5t59 -152.5q0 -94 -59 -151.5t-156 -57.5zM359 1190q53 0 86 33t33 87q0 55 -33 88t-86 33q-54 0 -86.5 -33t-32.5 -88q0 -54 32.5 -87t86.5 -33z" />
    <glyph glyph-name="uni030B" unicode="&#x30b;" horiz-adv-x="813" 
d="M198 1165h-147l152 335h191zM584 1165h-147l152 335h191z" />
    <glyph glyph-name="uni030C" unicode="&#x30c;" horiz-adv-x="893" 
d="M534 1165h-175l-215 335h152l150 -249l151 249h152z" />
    <glyph glyph-name="uni0312" unicode="&#x312;" horiz-adv-x="546" 
 />
    <glyph glyph-name="uni0326" unicode="&#x326;" horiz-adv-x="527" 
d="M210 -490l-66 63q51 37 78.5 96t27.5 122q0 70 -33 125l143 32q23 -63 23 -132q0 -99 -46.5 -182t-126.5 -124z" />
    <glyph glyph-name="uni0327" unicode="&#x327;" horiz-adv-x="589" 
d="M114 -392l37 94q43 -19 88 -19q52 0 86.5 25.5t34.5 63.5q0 41 -38 67.5t-98 26.5h-11t-11 -1l55 142h88l-38 -89q74 -7 119 -49t45 -109q0 -77 -61 -127.5t-158 -50.5q-68 0 -138 26z" />
    <glyph glyph-name="uni0328" unicode="&#x328;" horiz-adv-x="558" 
d="M369 -416q-104 0 -164.5 51t-60.5 128q0 74 52.5 139t142.5 102h75q-73 -30 -117.5 -86t-44.5 -112q0 -45 33.5 -77.5t97.5 -36.5z" />
    <glyph glyph-name="uni0394" unicode="&#x394;" horiz-adv-x="1561" 
d="M1523 0h-1485l612 1500h261zM351 193h859l-429 1082z" />
    <glyph glyph-name="uni03A9" unicode="&#x3a9;" horiz-adv-x="1708" 
d="M1644 0h-630v124q110 52 193 148.5t129 223.5t46 267q0 169 -67 298.5t-185.5 202t-275.5 72.5q-155 0 -274.5 -73t-186.5 -202.5t-67 -298.5q0 -140 46 -266.5t129 -223.5t193 -148v-124h-630v194h333q-92 73 -158.5 170.5t-102 213t-35.5 242.5q0 210 95.5 370
t265.5 250t392 90q223 0 392.5 -90t265 -250t95.5 -370q0 -127 -35.5 -242.5t-102 -213.5t-159.5 -171h334v-193z" />
    <glyph glyph-name="pi" unicode="&#x3c0;" horiz-adv-x="1341" 
d="M1277 117q-34 -64 -92.5 -100.5t-126.5 -36.5q-67 0 -121 34t-86 92.5t-32 132.5v592h-299q4 -87 6 -174t2 -174q0 -121 -3.5 -242t-11.5 -241h-205q8 120 11.5 239.5t3.5 239.5q0 88 -2 176t-6 176h-43q-115 0 -216 -69l-42 157q119 81 260 81h979v-169h-227v-607
q0 -55 29 -90.5t75 -35.5q61 0 102 59z" />
    <glyph glyph-name="Wgrave" unicode="&#x1e80;" horiz-adv-x="2166" 
d="M1146 1665h-148l-195 335h192zM1634 0h-196l-354 1129l-353 -1129h-197l-488 1500h231l355 -1132l354 1132h196l354 -1130l353 1130h231z" />
    <glyph glyph-name="wgrave" unicode="&#x1e81;" horiz-adv-x="1612" 
d="M868 1165h-148l-195 335h191zM1245 0h-236l-204 715l-203 -715h-236l-320 1000h216l219 -766l232 766h186l231 -767l219 767h217z" />
    <glyph glyph-name="Wacute" unicode="&#x1e82;" horiz-adv-x="2166" 
d="M1175 1665h-147l151 335h191zM1634 0h-196l-354 1129l-353 -1129h-197l-488 1500h231l355 -1132l354 1132h196l354 -1130l353 1130h231z" />
    <glyph glyph-name="wacute" unicode="&#x1e83;" horiz-adv-x="1612" 
d="M899 1165h-148l151 335h192zM1245 0h-236l-204 715l-203 -715h-236l-320 1000h216l219 -766l232 766h186l231 -767l219 767h217z" />
    <glyph glyph-name="Wdieresis" unicode="&#x1e84;" horiz-adv-x="2165" 
d="M1633 0h-196l-353 1129l-354 -1129h-196l-488 1500h230l355 -1132l355 1132h195l354 -1130l353 1130h231zM1306 1736q-45 0 -72.5 28t-27.5 72q0 45 27.5 72.5t72.5 27.5t72 -27.5t27 -72.5q0 -44 -27 -72t-72 -28zM860 1736q-44 0 -72 28t-28 72q0 45 28 72.5t72 27.5
q45 0 72.5 -27.5t27.5 -72.5q0 -44 -27.5 -72t-72.5 -28z" />
    <glyph glyph-name="wdieresis" unicode="&#x1e85;" horiz-adv-x="1613" 
d="M1246 0h-236l-204 715l-204 -715h-236l-320 1000h217l219 -766l231 766h186l231 -767l220 767h217zM1030 1236q-45 0 -72.5 28t-27.5 72q0 45 27.5 72.5t72.5 27.5t72 -27.5t27 -72.5q0 -44 -27 -72t-72 -28zM584 1236q-44 0 -72 28t-28 72q0 45 28 72.5t72 27.5
q45 0 72.5 -27.5t27.5 -72.5q0 -44 -27.5 -72t-72.5 -28z" />
    <glyph glyph-name="uni1E9E" unicode="&#x1e9e;" horiz-adv-x="1331" 
d="M364 0h-220v1010q0 153 64 270.5t177 183.5t260 66q117 0 215.5 -42.5t167.5 -118.5t95 -178q9 -35 1 -71t-29 -59l-284 -324l-8 60q130 2 232 -50.5t160 -144t58 -207.5q0 -125 -63 -221t-175 -150t-258 -54q-68 0 -139 13t-145 39l55 171q64 -24 109.5 -34.5
t91.5 -10.5q94 0 162 31t105 89t37 137q0 84 -43 146t-121 94.5t-181 27.5l-60 104l304 360q-18 59 -57 104t-95 70t-125 25q-90 0 -155.5 -43t-100.5 -122.5t-35 -190.5v-980z" />
    <glyph glyph-name="Ygrave" unicode="&#x1ef2;" horiz-adv-x="1419" 
d="M819 0h-220v641l-577 859h267l420 -671l422 671h266l-578 -861v-639zM882 1665h-148l-196 335h191z" />
    <glyph glyph-name="ygrave" unicode="&#x1ef3;" horiz-adv-x="1215" 
d="M549 -500h-221l209 506l-487 994h229l356 -759l314 759h220zM780 1165h-148l-196 335h191z" />
    <glyph glyph-name="uni2002" unicode="&#x2002;" horiz-adv-x="1354" 
 />
    <glyph glyph-name="uni2009" unicode="&#x2009;" horiz-adv-x="670" 
 />
    <glyph glyph-name="uni200B" unicode="&#x200b;" horiz-adv-x="330" 
 />
    <glyph glyph-name="endash" unicode="&#x2013;" horiz-adv-x="1308" 
d="M1164 425h-1020v159h1020v-159z" />
    <glyph glyph-name="emdash" unicode="&#x2014;" horiz-adv-x="2328" 
d="M2184 425h-2040v159h2040v-159z" />
    <glyph glyph-name="quoteleft" unicode="&#x2018;" horiz-adv-x="536" 
d="M299 1070h-155l129 450h127z" />
    <glyph glyph-name="quoteright" unicode="&#x2019;" horiz-adv-x="536" 
d="M263 1070h-119l101 450h147z" />
    <glyph glyph-name="quotesinglbase" unicode="&#x201a;" horiz-adv-x="474" 
d="M249 -240h-145l78 424h178z" />
    <glyph glyph-name="quotedblleft" unicode="&#x201c;" horiz-adv-x="908" 
d="M291 1070h-147l129 450h119zM663 1070h-147l129 450h119z" />
    <glyph glyph-name="quotedblright" unicode="&#x201d;" horiz-adv-x="907" 
d="M634 1070h-118l101 450h146zM263 1070h-119l101 450h147z" />
    <glyph glyph-name="quotedblbase" unicode="&#x201e;" horiz-adv-x="848" 
d="M623 -240h-145l78 424h178zM249 -240h-145l78 424h178z" />
    <glyph glyph-name="dagger" unicode="&#x2020;" horiz-adv-x="1156" 
d="M688 0h-220l21 887l-345 -20v194l345 -21l-21 460h220l-21 -460l345 21v-194l-345 20z" />
    <glyph glyph-name="daggerdbl" unicode="&#x2021;" horiz-adv-x="1156" 
d="M688 0h-220l20 465l-344 -26v179l344 -25l-3 153l3 161l-344 -25v179l344 -26l-20 465h220l-21 -465l345 26v-179l-345 25l3 -161l-3 -153l345 25v-179l-345 26z" />
    <glyph glyph-name="bullet" unicode="&#x2022;" horiz-adv-x="528" 
d="M264 540q-69 0 -114.5 45t-45.5 115t45.5 115t114.5 45q71 0 115.5 -45t44.5 -115t-44.5 -115t-115.5 -45z" />
    <glyph glyph-name="ellipsis" unicode="&#x2026;" horiz-adv-x="1330" 
d="M235 -20q-45 0 -73 28t-28 73t28 73t73 28t73 -28t28 -73t-28 -73t-73 -28zM665 -20q-45 0 -73 28t-28 73t28 73t73 28t73 -28t28 -73t-28 -73t-73 -28zM1095 -20q-45 0 -73 28t-28 73t28 73t73 28t73 -28t28 -73t-28 -73t-73 -28z" />
    <glyph glyph-name="perthousand" unicode="&#x2030;" horiz-adv-x="2475" 
d="M408 873q-150 0 -242 89t-92 234q0 146 92 235t242 89q151 0 242.5 -89t91.5 -235q0 -145 -91.5 -234t-242.5 -89zM437 0h-175l967 1500h175zM408 994q84 0 135.5 55.5t51.5 146.5q0 92 -51 147.5t-136 55.5q-83 0 -134.5 -55.5t-51.5 -147.5q0 -91 51.5 -146.5
t134.5 -55.5zM2068 -15q-150 0 -242.5 89t-92.5 234q0 146 92.5 235t242.5 89q151 0 242 -89t91 -235q0 -145 -91.5 -234t-241.5 -89zM1252 -20q-150 0 -242 89t-92 234q0 146 92 235t242 89q151 0 242.5 -89t91.5 -235q0 -145 -92 -234t-242 -89zM2067 106q84 0 135.5 55.5
t51.5 146.5q0 92 -51 147.5t-136 55.5q-83 0 -134.5 -55.5t-51.5 -147.5q0 -91 51.5 -146.5t134.5 -55.5zM1251 101q84 0 135.5 55.5t51.5 146.5q0 92 -51 147.5t-135 55.5t-135 -55.5t-51 -147.5q0 -91 51 -146.5t134 -55.5z" />
    <glyph glyph-name="minute" unicode="&#x2032;" horiz-adv-x="445" 
d="M280 1085h-116l-20 435h157z" />
    <glyph glyph-name="second" unicode="&#x2033;" horiz-adv-x="773" 
d="M280 1085h-116l-20 435h157zM608 1085h-116l-20 435h157z" />
    <glyph glyph-name="guilsinglleft" unicode="&#x2039;" horiz-adv-x="746" 
d="M602 113h-197l-341 399l341 399h197l-346 -399z" />
    <glyph glyph-name="guilsinglright" unicode="&#x203a;" horiz-adv-x="746" 
d="M341 113h-197l346 399l-346 399h197l341 -399z" />
    <glyph glyph-name="fraction" unicode="&#x2044;" horiz-adv-x="1179" 
d="M150 0h-136l1021 1540h130z" />
    <glyph glyph-name="uni2074" unicode="&#x2074;" horiz-adv-x="712" 
d="M558 730h-121v175h-373v94l382 501h112v-488h90v-107h-90v-175zM437 1012v328l-251 -328h251z" />
    <glyph glyph-name="franc" unicode="&#x20a3;" horiz-adv-x="1241" 
d="M834 301h-422v-301h-220v301h-168v119h168v1080h915v-194h-695v-449h655v-194h-655v-243h422v-119z" />
    <glyph glyph-name="uni20A8" unicode="&#x20a8;" horiz-adv-x="1201" 
d="M1057 1379h-327q68 -46 111 -112t53 -145h161v-92h-159q-9 -94 -62.5 -170.5t-141 -127t-201.5 -68.5l431 -664h-229l-414 654h-135v121h175q94 0 168.5 32.5t122 90t58.5 132.5h-524v92h525q-11 75 -56 133t-117.5 91t-163.5 33h-188v121h913v-121z" />
    <glyph glyph-name="Euro" unicode="&#x20ac;" horiz-adv-x="1095" 
d="M876 839h-439q-4 -22 -5.5 -44t-1.5 -45t1.5 -44.5t5.5 -44.5h419l-12 -101h-386q35 -120 110.5 -209.5t186 -138t246.5 -48.5v-194q-202 0 -363 73t-267.5 206t-144.5 311h-162l12 101h134q-3 26 -4.5 46t-1.5 48q0 23 1 41.5t5 42.5h-146l12 101h150
q38 179 144.5 311.5t267.5 205.5t363 73v-194q-136 0 -246.5 -48.5t-186 -137.5t-110.5 -210h429z" />
    <glyph glyph-name="uni2113" unicode="&#x2113;" horiz-adv-x="1080" 
d="M957 325q-15 -163 -109 -259t-236 -96q-103 0 -180 50t-119.5 140.5t-42.5 210.5v138q-47 -18 -96.5 -35.5t-102.5 -33.5l-45 159q68 21 128.5 42.5t115.5 44.5v475q0 112 42.5 195t120 128.5t181.5 45.5q101 0 175.5 -43t115 -121.5t40.5 -186.5q0 -176 -115 -321
t-349 -261v-197q0 -115 40.5 -178t112.5 -63q70 0 117 54t53 140zM481 786q137 82 204.5 177t67.5 205q0 82 -34.5 127.5t-98.5 45.5q-65 0 -102 -50.5t-37 -141.5v-363z" />
    <glyph glyph-name="trademark" unicode="&#x2122;" horiz-adv-x="1578" 
d="M368 780h-116v618h-220v102h555v-102h-219v-618zM1434 780h-115v548l-210 -427h-92l-209 425v-546h-114v720h141l228 -473l229 473h142v-720z" />
    <glyph glyph-name="estimated" unicode="&#x212e;" horiz-adv-x="1162" 
d="M1050 134q-99 -80 -198.5 -117t-215.5 -37q-164 0 -292 69t-201 188.5t-73 273.5q0 148 66.5 263t182.5 180.5t265 65.5t263.5 -65.5t179.5 -180.5t65 -264v-28h-805v-226q0 -59 47.5 -109t128 -79.5t175.5 -29.5q204 0 378 145zM875 540v223q0 55 -40 100t-107 72
t-147 27t-146.5 -27t-107 -72t-40.5 -100v-223h588z" />
    <glyph glyph-name="arrowup" unicode="&#x2191;" horiz-adv-x="1041" 
d="M832 800h-99l-196 566l-34 -1166h-95l72 1206l-173 -306l-2 -100l235 400l22 61z" />
    <glyph glyph-name="arrowdown" unicode="&#x2193;" horiz-adv-x="1041" 
d="M832 700l-270 -661l-22 61l-235 400l2 -100l173 -306l-72 1206h95l34 -1166l196 566h99z" />
    <glyph glyph-name="partialdiff" unicode="&#x2202;" horiz-adv-x="1220" 
d="M319 1158l-148 64q46 141 160 224.5t261 83.5q122 0 225 -59.5t179 -166.5t118 -252t42 -317q0 -230 -73 -402.5t-205 -267.5t-309 -95q-140 0 -246.5 57.5t-167.5 159t-61 232.5q0 148 76.5 264t208.5 182.5t299 66.5q66 0 131.5 -11t128.5 -33q-19 136 -70.5 240
t-126 162.5t-165.5 58.5q-87 0 -157 -52t-100 -139zM946 719q-122 48 -235 48q-114 0 -202.5 -43t-139.5 -117.5t-51 -170.5q0 -78 35 -140t96.5 -97t141.5 -35q101 0 168 53t108 137t59 181t20 184z" />
    <glyph glyph-name="Delta" unicode="&#x2206;" horiz-adv-x="1226" 
d="M1088 0h-951l-73 129l443 1001h212l443 -1001zM294 184h637l-318 739z" />
    <glyph glyph-name="product" unicode="&#x220f;" horiz-adv-x="1814" 
d="M1525 -400h-220v1706h-796v-1706h-220v1706l-215 12v182h1666v-182l-215 -12v-1706z" />
    <glyph glyph-name="summation" unicode="&#x2211;" horiz-adv-x="1368" 
d="M1234 0h-1090v142l469 608l-469 609v141h1090v-193h-784l397 -557l-396 -557h783v-193z" />
    <glyph glyph-name="minus" unicode="&#x2212;" horiz-adv-x="1088" 
d="M944 423h-800v159h800v-159z" />
    <glyph glyph-name="uni2215" unicode="&#x2215;" horiz-adv-x="877" 
d="M217 -20h-195l638 1540h195z" />
    <glyph glyph-name="uni2219" unicode="&#x2219;" horiz-adv-x="470" 
d="M235 429q-45 0 -73 28t-28 73t28 73t73 28t73 -28t28 -73t-28 -73t-73 -28z" />
    <glyph glyph-name="radical" unicode="&#x221a;" horiz-adv-x="1200" 
d="M740 0h-220l-263 638h-143v134h266l227 -577l304 1365h175z" />
    <glyph glyph-name="infinity" unicode="&#x221e;" horiz-adv-x="1953" 
d="M1451 84q-94 0 -171 31t-146 94.5t-140 162.5q-53 -74 -117.5 -140t-150.5 -107t-207 -41q-133 0 -236 52.5t-161 144.5t-58 210t58 209.5t159.5 143t232.5 51.5q97 0 177 -30.5t150.5 -92.5t138.5 -155q53 73 115.5 136t146.5 102.5t200 39.5q131 0 231.5 -52.5
t158 -144t57.5 -211.5q0 -117 -56 -208t-155 -143t-227 -52zM902 507q-62 91 -117.5 146.5t-112.5 81t-125 25.5q-85 0 -150 -34t-102 -94t-37 -138q0 -74 34.5 -130t95.5 -88t142 -32q89 0 154.5 37t117.5 97t100 129zM1428 219q78 0 138 33.5t94.5 92.5t34.5 135
t-34.5 133.5t-94.5 89.5t-140 32q-82 0 -144.5 -34.5t-112.5 -91.5t-97 -124q49 -71 99.5 -131.5t112.5 -97.5t144 -37z" />
    <glyph glyph-name="integral" unicode="&#x222b;" horiz-adv-x="695" 
d="M48 -320v192q121 0 175 64t54 196l-81 1234q0 226 110 340t341 114v-193q-121 0 -176 -63.5t-55 -196.5l81 -1235q0 -225 -109.5 -338.5t-339.5 -113.5z" />
    <glyph glyph-name="approxequal" unicode="&#x2248;" horiz-adv-x="1330" 
d="M1186 722q-141 -148 -277 -148q-49 0 -102.5 18t-135.5 58q-59 30 -119 54t-125 24q-139 0 -283 -144v153q146 143 286 143q51 0 105.5 -18t137.5 -59q59 -29 118 -53t121 -24q137 0 274 149v-153zM1186 248q-141 -148 -277 -148q-49 0 -102.5 18t-135.5 59
q-59 29 -119 53.5t-125 24.5q-139 0 -283 -144v151q147 144 285 144q65 0 125 -24.5t119 -53.5q82 -40 135.5 -58t102.5 -18q138 0 275 149v-153z" />
    <glyph glyph-name="notequal" unicode="&#x2260;" horiz-adv-x="1243" 
d="M451 -70h-123l98 236h-282v161h349l135 326h-484v161h550l98 236h123l-98 -236h282v-161h-349l-135 -326h484v-161h-550z" />
    <glyph glyph-name="lessequal" unicode="&#x2264;" horiz-adv-x="1219" 
d="M1074 260l-930 457v109l930 454v-176l-724 -333l724 -337v-174zM1075 0h-931v162h931v-162z" />
    <glyph glyph-name="greaterequal" unicode="&#x2265;" horiz-adv-x="1219" 
d="M145 260v174l724 337l-724 333v176l930 -454v-109zM1075 0h-931v162h931v-162z" />
    <glyph glyph-name="lozenge" unicode="&#x25ca;" horiz-adv-x="1205" 
d="M680 -20h-157l-459 680l460 681h158l459 -680zM602 174l316 487l-315 485l-317 -486z" />
    <glyph glyph-name="uniFEFF" unicode="&#xfeff;" horiz-adv-x="1354" 
 />
    </font>
</defs>
</svg>
