<?xml version="1.0" standalone="no"?>
<!DOCTYPE svg PUBLIC "-//W3C//DTD SVG 1.1//EN" "http://www.w3.org/Graphics/SVG/1.1/DTD/svg11.dtd" >
<svg xmlns="http://www.w3.org/2000/svg" xmlns:xlink="http://www.w3.org/1999/xlink" version="1.1">
<metadata>
Created by FontForge 20201107 at Fri Dec  2 17:29:53 2022
 By 
Copyright 2020 The KumbhSans Project Authors (https://github.com/xconsau/KumbhSans)
</metadata>
<defs>
<font id="KumbhSans-Regular" horiz-adv-x="1226" >
  <font-face 
    font-family="Kumbh Sans"
    font-weight="400"
    font-stretch="normal"
    units-per-em="2048"
    panose-1="0 0 0 0 0 0 0 0 0 0"
    ascent="1638"
    descent="-410"
    x-height="1000"
    cap-height="1500"
    bbox="-195 -520 2416 2020"
    underline-thickness="120"
    underline-position="-265"
    unicode-range="U+000D-FEFF"
  />
<missing-glyph horiz-adv-x="1250" 
d="M1085 0h-920v1500h920v-1500zM948 1420h-646l323 -576zM985 203v1119l-314 -560zM265 1322v-1119l314 559zM288 80h674l-337 601z" />
    <glyph glyph-name="uniFB00" unicode="ff" horiz-adv-x="1511" 
d="M435 0h-165v853h-175v147h175v215q0 93 40 164t110.5 111t162.5 40q57 0 114 -15.5t112 -47.5l-62 -129q-34 22 -69.5 33.5t-70.5 11.5q-77 0 -125 -55.5t-48 -144.5v-183h483v215q0 93 40 164t110.5 111t162.5 40q57 0 114 -15.5t112 -47.5l-62 -129q-70 45 -140 45
q-77 0 -124.5 -55.5t-47.5 -144.5v-183h309v-147h-309v-853h-164v853h-483v-853z" />
    <glyph glyph-name="uniFB01" unicode="fi" horiz-adv-x="1212" 
d="M434 0h-164v853h-175v147h175v215q0 93 39.5 164t110.5 111t163 40q57 0 114.5 -15.5t111.5 -47.5l-63 -129q-33 22 -68 33.5t-69 11.5q-79 0 -127 -55t-48 -145v-183h623v-1000h-165v853h-458v-853z" />
    <glyph glyph-name="uniFB02" unicode="fl" horiz-adv-x="1294" 
d="M1139 0h-164v1128q0 117 -74.5 189.5t-194.5 72.5t-196 -72t-76 -185v-133h309v-148h-309v-852h-164v852h-175v148h175v140q0 114 55.5 202t153.5 138t225 50q129 0 227 -51t153 -141.5t55 -209.5v-1128z" />
    <glyph glyph-name="uniFB03" unicode="ffi" horiz-adv-x="1853" 
d="M1075 0h-164v853h-477v-853h-164v853h-175v147h175v215q0 93 40 164t110.5 111t162.5 40q57 0 114 -15.5t112 -47.5l-62 -129q-34 22 -69.5 33.5t-70.5 11.5q-77 0 -124.5 -55.5t-47.5 -144.5v-183h476v215q0 93 39.5 164t110.5 111t163 40q57 0 114.5 -15.5t111.5 -47.5
l-63 -129q-33 22 -68 33.5t-69 11.5q-79 0 -127 -55t-48 -145v-183h623v-1000h-165v853h-458v-853z" />
    <glyph glyph-name="uniFB04" unicode="ffl" horiz-adv-x="1914" 
d="M1759 0h-164v1128q0 117 -75 189.5t-195 72.5t-196 -72t-76 -185v-133h309v-148h-309v-852h-164v853h-455v-853h-164v853h-175v147h175v215q0 93 40 164t110.5 111t162.5 40q57 0 114 -15.5t112 -47.5l-62 -129q-34 22 -69.5 33.5t-70.5 11.5q-77 0 -125 -55.5
t-48 -144.5v-183h455v140q0 114 56 202t154 138t225 50q129 0 227 -51t153 -141.5t55 -209.5v-1128z" />
    <glyph glyph-name="uniFB05" unicode="&#x17f;t" horiz-adv-x="1495" 
d="M434 0h-164v852h-175v148h175v140q0 114 55.5 202t153.5 138t225 50q129 0 227 -51t153 -141.5t55 -209.5v-801q0 -90 48 -145t127 -55q65 0 129 38l27 -141q-96 -44 -190 -44q-91 0 -160 40t-107 112.5t-38 167.5v828q0 117 -74.5 189.5t-194.5 72.5t-196 -72t-76 -185
v-133h309v-148h-309v-852z" />
    <glyph glyph-name=".notdef" horiz-adv-x="1250" 
d="M1085 0h-920v1500h920v-1500zM948 1420h-646l323 -576zM985 203v1119l-314 -560zM265 1322v-1119l314 559zM288 80h674l-337 601z" />
    <glyph glyph-name="glyph1" horiz-adv-x="850" 
 />
    <glyph glyph-name="glyph1" horiz-adv-x="850" 
 />
    <glyph glyph-name="uni000D" unicode="&#xd;" horiz-adv-x="842" 
 />
    <glyph glyph-name="space" unicode=" " horiz-adv-x="500" 
 />
    <glyph glyph-name="exclam" unicode="!" horiz-adv-x="462" 
d="M267 401h-72l-33 1099h138zM231 -20q-43 0 -72.5 29.5t-29.5 71.5q0 41 29.5 70t72.5 29t72.5 -29t29.5 -70q0 -42 -29.5 -71.5t-72.5 -29.5z" />
    <glyph glyph-name="quotedbl" unicode="&#x22;" horiz-adv-x="784" 
d="M279 1085h-97l-17 435h131zM602 1085h-97l-17 435h131z" />
    <glyph glyph-name="numbersign" unicode="#" horiz-adv-x="1344" 
d="M1250 904h-241l-66 -371h245l-19 -116h-246l-74 -417h-136l73 417h-342l-73 -417h-137l74 417h-233l19 116h235l65 371h-237l19 116h239l84 480h137l-85 -480h342l85 480h136l-85 -480h240zM465 533h342l65 371h-342z" />
    <glyph glyph-name="dollar" unicode="$" horiz-adv-x="1070" 
d="M85 216l76 124q60 -47 118 -78.5t117 -46.5t119 -15q89 0 156 30t104.5 83.5t37.5 123.5q0 77 -42.5 127t-109.5 85.5t-141 66.5q-66 29 -130 60t-116 72.5t-83 100t-31 141.5q0 140 90.5 232.5t240.5 112.5v185h109v-181q78 -3 156 -24.5t151 -60.5l-63 -130
q-61 37 -130.5 56.5t-134.5 19.5q-113 0 -185 -58t-72 -150q0 -70 40.5 -117t106.5 -81t140 -67q66 -29 130.5 -61.5t118 -76.5t85.5 -104.5t32 -146.5q0 -101 -47 -180t-131 -129t-197 -64v-185h-109v181q-109 5 -213 44.5t-193 110.5z" />
    <glyph glyph-name="percent" unicode="%" horiz-adv-x="1677" 
d="M417 873q-149 0 -240.5 89t-91.5 234q0 146 91.5 235t240.5 89q150 0 240.5 -89t90.5 -235q0 -145 -91 -234t-240 -89zM429 0h-144l967 1500h144zM417 974q94 0 151.5 61t57.5 161q0 101 -57 162t-152 61q-94 0 -152 -61t-58 -162q0 -100 58 -161t152 -61zM1260 -20
q-149 0 -240 89t-91 234q0 146 91 235t240 89q150 0 241 -89t91 -235q0 -145 -91.5 -234t-240.5 -89zM1260 81q94 0 152 61t58 161q0 101 -57.5 162t-152.5 61q-94 0 -151.5 -61t-57.5 -162q0 -100 57.5 -161t151.5 -61z" />
    <glyph glyph-name="ampersand" unicode="&#x26;" horiz-adv-x="1506" 
d="M1431 101l-91 -131q-70 47 -137 95t-129 95q-98 -93 -212.5 -141.5t-242.5 -48.5q-142 0 -254 56t-176 154.5t-64 223.5q0 103 41.5 178t108.5 130.5t143 101.5q-71 107 -108.5 204t-37.5 181q0 96 45 170.5t124 117.5t179 43t176 -41.5t119 -115.5t43 -170
q0 -105 -48.5 -180.5t-124 -132.5t-158.5 -108q78 -97 186.5 -200.5t245.5 -212.5q57 75 105.5 171.5t85.5 211.5l140 -55q-42 -125 -95 -230t-116 -189q59 -43 122 -88t130 -89zM549 889q69 40 127.5 82t93.5 94t35 121q0 84 -52 139t-132 55q-79 0 -129 -56t-50 -145
q0 -64 27.5 -137t79.5 -153zM500 703q-57 -38 -103.5 -81.5t-74 -95.5t-27.5 -119q0 -83 43 -148t118 -102t170 -37q89 0 171.5 34t156.5 100q-140 115 -254 228.5t-200 220.5z" />
    <glyph glyph-name="quotesingle" unicode="'" horiz-adv-x="441" 
d="M269 1085h-97l-17 435h131z" />
    <glyph glyph-name="parenleft" unicode="(" horiz-adv-x="607" 
d="M532 -289h-165q-142 191 -217 426t-75 488t75 488t217 427h165q-151 -197 -231 -431.5t-80 -482.5q0 -247 80 -482t231 -433z" />
    <glyph glyph-name="parenright" unicode=")" horiz-adv-x="608" 
d="M241 -289h-166q152 198 232 433t80 482q0 248 -80 482.5t-232 431.5h166q142 -192 217 -427t75 -488t-75 -488t-217 -426z" />
    <glyph glyph-name="asterisk" unicode="*" horiz-adv-x="1039" 
d="M839 763l-117 -87l-202 337l-203 -337l-118 87l251 301l-375 93l45 139l357 -150l-29 394h144l-30 -394l358 150l44 -139l-377 -92z" />
    <glyph glyph-name="plus" unicode="+" horiz-adv-x="1144" 
d="M989 430h-344v-347h-146v347h-344v132h344v347h146v-347h344v-132z" />
    <glyph glyph-name="comma" unicode="," horiz-adv-x="470" 
d="M236 -240h-121l80 420h150z" />
    <glyph glyph-name="hyphen" unicode="-" horiz-adv-x="1110" 
d="M955 439h-800v129h800v-129z" />
    <glyph glyph-name="period" unicode="." horiz-adv-x="463" 
d="M231 -20q-44 0 -71.5 27.5t-27.5 71.5q0 45 27.5 73t71.5 28t72.5 -28t28.5 -73q0 -44 -28.5 -71.5t-72.5 -27.5z" />
    <glyph glyph-name="slash" unicode="/" horiz-adv-x="825" 
d="M173 -20h-158l638 1540h157z" />
    <glyph glyph-name="zero" unicode="0" horiz-adv-x="1186" 
d="M593 -30q-158 0 -272 91.5t-175 266t-61 423.5q0 248 61 422t175 265.5t272 91.5q159 0 272.5 -91.5t174.5 -265.5t61 -422q0 -249 -60.5 -423.5t-174.5 -266t-273 -91.5zM593 126q155 0 241.5 165t86.5 460t-86.5 459t-241.5 164q-154 0 -241 -164t-87 -459t87 -460
t241 -165z" />
    <glyph glyph-name="one" unicode="1" horiz-adv-x="770" 
d="M585 0h-176v1326l-278 -101l-56 142l366 133h144v-1500z" />
    <glyph glyph-name="two" unicode="2" horiz-adv-x="1239" 
d="M1094 0h-901v111q185 158 315.5 289t212.5 243t120.5 211t38.5 192q0 97 -37 171.5t-103 116t-153 41.5q-99 0 -188.5 -56.5t-146.5 -155.5l-97 109q77 122 199 190t262 68q130 0 230 -57.5t157 -158.5t57 -233q0 -107 -40 -220.5t-119 -231t-195.5 -236.5t-268.5 -238
h657v-155z" />
    <glyph glyph-name="three" unicode="3" horiz-adv-x="1119" 
d="M85 140l74 130q83 -72 171.5 -108.5t179.5 -36.5q95 0 167 37.5t113 104t41 153.5q0 140 -108 218.5t-300 78.5h-52v128h52q104 0 185.5 37t128.5 101.5t47 146.5q0 71 -35.5 126.5t-97.5 87t-142 31.5q-78 0 -155.5 -32.5t-149.5 -94.5l-84 122q83 77 187 118.5
t216 41.5q124 0 220.5 -48t152.5 -131.5t56 -190.5q0 -127 -78.5 -227t-202.5 -146q159 -36 251 -137t92 -250q0 -124 -64 -221.5t-175 -153t-254 -55.5q-122 0 -233.5 43.5t-202.5 126.5z" />
    <glyph glyph-name="four" unicode="4" horiz-adv-x="1264" 
d="M1006 0h-176v358h-755v139l756 1003h175v-987h183v-155h-183v-358zM275 513h555v737z" />
    <glyph glyph-name="five" unicode="5" horiz-adv-x="1124" 
d="M85 162l97 139q48 -82 135 -128.5t193 -46.5q104 0 183 43.5t123 121t44 179.5t-44 179.5t-123 120.5t-182 43q-69 0 -129.5 -20.5t-109.5 -59.5l-90 57l66 710h724v-156h-562l-42 -427q85 29 182 29q144 0 254 -61.5t172.5 -169.5t62.5 -250q0 -146 -66 -257.5
t-183 -174.5t-270 -63q-133 0 -246 50t-189 142z" />
    <glyph glyph-name="six" unicode="6" horiz-adv-x="1145" 
d="M570 -30q-147 0 -256 68t-169 192t-60 292q0 142 43.5 281t124 267.5t194.5 238t255 191.5l82 -115q-127 -77 -231 -180t-179 -222t-115 -244q62 74 152 116t199 42q131 0 232.5 -58t159.5 -159.5t58 -232.5q0 -138 -63.5 -245.5t-174 -169.5t-252.5 -62zM577 125
q87 0 155.5 42.5t108 116.5t39.5 166q0 91 -38.5 160t-106 108.5t-155.5 39.5q-89 0 -159 -40t-110 -110t-40 -161t40.5 -164t109.5 -115.5t156 -42.5z" />
    <glyph glyph-name="seven" unicode="7" horiz-adv-x="1067" 
d="M423 0h-190l554 1344h-712v156h917v-122z" />
    <glyph glyph-name="eight" unicode="8" horiz-adv-x="1183" 
d="M591 -30q-146 0 -255.5 53t-170 149.5t-60.5 224.5q0 144 76.5 247.5t209.5 149.5q-109 44 -171 135t-62 216q0 117 53.5 203.5t151 134t228.5 47.5t228.5 -47.5t151 -134t53.5 -203.5q0 -125 -62 -216t-171 -135q133 -45 210 -149t77 -248q0 -128 -60.5 -224.5
t-170 -149.5t-256.5 -53zM591 857q116 0 188 71.5t72 186.5q0 116 -72 187.5t-188 71.5t-188 -71.5t-72 -187.5q0 -115 72 -186.5t188 -71.5zM591 126q93 0 163 37.5t109 105.5t39 157q0 90 -39 158t-109 105.5t-163 37.5q-92 0 -162 -38t-109 -105.5t-39 -157.5t39 -157.5
t109 -105t162 -37.5z" />
    <glyph glyph-name="nine" unicode="9" horiz-adv-x="1145" 
d="M443 0l-82 115q127 78 231.5 181t179.5 221.5t115 243.5q-61 -75 -151.5 -116.5t-200.5 -41.5q-131 0 -232.5 58t-159.5 159.5t-58 232.5q0 138 63.5 246t174.5 169.5t253 61.5q148 0 256.5 -68t168 -192t59.5 -292q0 -142 -43.5 -281t-124 -267.5t-194.5 -238
t-255 -191.5zM565 742q90 0 159.5 40.5t109.5 111t40 160.5q0 91 -40 163.5t-109.5 115t-156.5 42.5q-86 0 -155 -42.5t-108.5 -116t-39.5 -166.5q0 -90 38.5 -159.5t106 -109t155.5 -39.5z" />
    <glyph glyph-name="colon" unicode=":" horiz-adv-x="462" 
d="M231 780q-42 0 -70.5 28.5t-28.5 70.5t28.5 71.5t70.5 29.5t70.5 -29.5t28.5 -71.5t-28.5 -70.5t-70.5 -28.5zM231 -20q-42 0 -70.5 29t-28.5 71q0 41 28.5 70.5t70.5 29.5t70.5 -29.5t28.5 -70.5q0 -42 -28.5 -71t-70.5 -29z" />
    <glyph glyph-name="semicolon" unicode=";" horiz-adv-x="471" 
d="M259 780q-43 0 -70.5 28.5t-27.5 70.5t27.5 71.5t70.5 29.5q42 0 71 -29.5t29 -71.5t-29 -70.5t-71 -28.5zM237 -240h-122l80 420h151z" />
    <glyph glyph-name="less" unicode="&#x3c;" horiz-adv-x="1166" 
d="M1011 0l-936 465v96l936 459v-143l-777 -364l777 -370v-143z" />
    <glyph glyph-name="equal" unicode="=" horiz-adv-x="1265" 
d="M1110 664h-955v132h955v-132zM1110 177h-955v132h955v-132z" />
    <glyph glyph-name="greater" unicode="&#x3e;" horiz-adv-x="1166" 
d="M155 0v143l776 370l-776 364v143l936 -459v-96z" />
    <glyph glyph-name="question" unicode="?" horiz-adv-x="924" 
d="M191 1261l-86 134q179 135 377 135q112 0 194 -42.5t127.5 -119.5t45.5 -182q0 -66 -20.5 -116t-54 -92t-72.5 -84q-49 -53 -97 -116.5t-80 -153.5t-32 -223h-145q0 155 33 257t82.5 170t96.5 121q49 55 84 107.5t35 128.5q0 91 -55.5 143.5t-153.5 52.5
q-73 0 -145.5 -31t-133.5 -89zM421 -20q-44 0 -71.5 27.5t-27.5 71.5q0 45 27.5 73t71.5 28t71.5 -28t27.5 -73q0 -44 -27.5 -71.5t-71.5 -27.5z" />
    <glyph glyph-name="at" unicode="@" horiz-adv-x="1938" 
d="M918 78q-129 0 -227 56t-153.5 156t-55.5 231q0 142 64 255t174.5 179t248.5 66q114 0 202.5 -45.5t142.5 -128.5l9 110h156q-8 -58 -15.5 -125.5t-14 -137t-12 -133.5t-8.5 -114.5t-3 -79.5q0 -59 31 -99t75 -40q48 0 85.5 48t59 131t21.5 187q0 201 -84 351.5
t-235.5 234t-354.5 83.5q-167 0 -309 -57t-247.5 -159.5t-164 -241.5t-58.5 -303q0 -191 79 -334.5t221 -223t331 -79.5q234 0 420 116l74 -134q-253 -132 -516 -132q-231 0 -406.5 99t-274 275.5t-98.5 408.5q0 197 71 363.5t199.5 290.5t301.5 192.5t376 68.5
q186 0 340 -58t266 -165t173 -253t61 -322q0 -155 -45.5 -276.5t-125 -191t-180.5 -69.5q-84 0 -142 49.5t-80 137.5q-63 -90 -158.5 -138.5t-213.5 -48.5zM943 228q89 0 162 37.5t121 103t61 148.5l5 58q0 89 -37.5 155.5t-104 103.5t-154.5 37q-98 0 -176 -45.5t-123 -124
t-45 -177.5q0 -133 80 -214.5t211 -81.5z" />
    <glyph glyph-name="A" unicode="A" horiz-adv-x="1512" 
d="M230 0h-185l616 1500h191l615 -1500h-185l-163 405h-726zM455 561h602l-301 749z" />
    <glyph glyph-name="B" unicode="B" horiz-adv-x="1303" 
d="M155 0v1500h532q215 0 338 -99t123 -272q0 -123 -61 -214.5t-163 -132.5q137 -34 215.5 -130.5t78.5 -236.5q0 -124 -61.5 -217.5t-171.5 -145.5t-257 -52h-573zM331 838h352q132 0 211.5 70t79.5 185q0 116 -81 183.5t-221 67.5h-341v-506zM331 156h359q104 0 182 35.5
t122 99t44 146.5q0 81 -41.5 141t-117 92.5t-177.5 32.5h-371v-547z" />
    <glyph glyph-name="C" unicode="C" horiz-adv-x="1528" 
d="M1423 192q-103 -104 -246 -163t-312 -59t-311.5 58t-247.5 163.5t-163 248t-58 310.5q0 169 58 311.5t163 247.5t247.5 163t311.5 58q168 0 311 -58.5t246 -162.5l-123 -125q-80 89 -192 139.5t-245 50.5q-129 0 -238 -46.5t-189.5 -131t-125 -198.5t-44.5 -248
q0 -135 44.5 -248.5t125 -198t189.5 -131t238 -46.5q133 0 245 50.5t192 139.5z" />
    <glyph glyph-name="D" unicode="D" horiz-adv-x="1558" 
d="M155 0v1500h432q276 0 474.5 -90t305 -258t106.5 -402q0 -233 -106.5 -401.5t-305 -258.5t-474.5 -90h-432zM331 156h264q221 0 377 70t238.5 203t82.5 321t-82.5 321t-238.5 203t-377 70h-264v-1188z" />
    <glyph glyph-name="E" unicode="E" horiz-adv-x="1229" 
d="M155 0v1500h919v-156h-743v-504h702v-156h-702v-528h753v-156h-929z" />
    <glyph glyph-name="F" unicode="F" horiz-adv-x="1204" 
d="M155 0v1500h904v-156h-728v-504h687v-156h-687v-684h-176z" />
    <glyph glyph-name="G" unicode="G" horiz-adv-x="1667" 
d="M1291 1207q-83 81 -195 124t-237 43q-130 0 -239 -45.5t-188.5 -129t-123 -197.5t-43.5 -251q0 -136 43 -250.5t121 -198.5t185 -130t235 -46q118 0 217.5 39.5t175 112t122 173t57.5 221.5h-550v139h706l5 -65q0 -171 -53.5 -313t-151.5 -246t-232 -160.5t-295 -56.5
q-165 0 -304.5 58.5t-243 163.5t-160.5 246.5t-57 308.5q0 168 58 311t162 249t245 164.5t307 58.5q157 0 298.5 -54t251.5 -155z" />
    <glyph glyph-name="H" unicode="H" horiz-adv-x="1499" 
d="M331 0h-176v1500h176v-682h837v682h176v-1500h-176v662h-837v-662z" />
    <glyph glyph-name="I" unicode="I" horiz-adv-x="486" 
d="M331 1500h-176v-1500h176v1500z" />
    <glyph glyph-name="J" unicode="J" horiz-adv-x="497" 
d="M-187 -360l-8 155q181 0 271 88.5t90 263.5v1353h176v-1345q0 -179 -55.5 -293t-172 -168t-301.5 -54z" />
    <glyph glyph-name="K" unicode="K" horiz-adv-x="1377" 
d="M332 0h-177v1500h176v-904q32 47 62.5 88.5t53.5 70.5l592 745h210l-547 -687l660 -813h-229l-544 671l-257 -324v-347z" />
    <glyph glyph-name="L" unicode="L" horiz-adv-x="1150" 
d="M1075 0h-920v1500h176v-1344h744v-156z" />
    <glyph glyph-name="M" unicode="M" horiz-adv-x="1821" 
d="M1666 0h-176v1253l-501 -1001h-159l-499 995v-1247h-176v1500h227l528 -1063l526 1063h230v-1500z" />
    <glyph glyph-name="N" unicode="N" horiz-adv-x="1615" 
d="M1460 0h-186l-943 1225v-1225h-176v1500h186l943 -1225v1225h176v-1500z" />
    <glyph glyph-name="O" unicode="O" horiz-adv-x="1729" 
d="M865 -30q-169 0 -311.5 58t-247.5 163.5t-163 248t-58 310.5q0 169 58 311.5t163 247.5t247.5 163t311.5 58t311 -58t247 -163t163 -247.5t58 -311.5q0 -168 -58 -310.5t-163 -248t-247 -163.5t-311 -58zM865 126q129 0 238.5 47t190.5 131.5t125.5 198t44.5 247.5
t-44.5 248t-125.5 198.5t-190.5 131t-238.5 46.5t-238.5 -46.5t-190.5 -131t-126 -198.5t-45 -248t45 -248t126 -198.5t190.5 -131t238.5 -46.5z" />
    <glyph glyph-name="P" unicode="P" horiz-adv-x="1289" 
d="M155 0v1500h462q184 0 315.5 -57t201.5 -163t70 -254q0 -147 -70 -254t-201.5 -164.5t-315.5 -57.5h-286v-550h-176zM331 706h271q202 0 312 85t110 235t-110 234t-312 84h-271v-638z" />
    <glyph glyph-name="Q" unicode="Q" horiz-adv-x="1729" 
d="M1589 -226q-146 25 -257 51t-210 61t-211 85h-46q-169 0 -311.5 58t-247.5 163t-163 247.5t-58 310.5q0 169 58 311.5t163 247.5t247.5 163t311.5 58t311 -58t247 -163t163 -247.5t58 -311.5q0 -179 -65.5 -328.5t-183 -256t-274.5 -156.5q93 -26 173.5 -42.5t160.5 -26
t170 -14.5zM865 126q129 0 238.5 47t190.5 131.5t125.5 198t44.5 247.5t-44.5 248t-125.5 198.5t-190.5 131t-238.5 46.5t-238.5 -46.5t-190.5 -131t-126 -198.5t-45 -248t45 -248t126 -198.5t190.5 -131t238.5 -46.5z" />
    <glyph glyph-name="R" unicode="R" horiz-adv-x="1364" 
d="M1289 0h-196l-358 610h-404v-610h-176v1500h569q161 0 277 -54t179 -153.5t63 -237.5q0 -161 -85.5 -270t-239.5 -151zM331 766h382q163 0 256.5 77t93.5 212t-93 212t-257 77h-382v-578z" />
    <glyph glyph-name="S" unicode="S" horiz-adv-x="1196" 
d="M85 146l85 135q65 -53 130 -88t132.5 -52t137.5 -17q102 0 178.5 34t119.5 94.5t43 139.5q0 86 -48.5 142.5t-125.5 96.5t-164 76q-73 31 -145 66t-130.5 81.5t-93.5 112.5t-35 159q0 119 60 210t166.5 142t245.5 51q94 0 189 -24.5t184 -71.5l-72 -144q-70 41 -146.5 63
t-150.5 22q-88 0 -154.5 -29.5t-104 -82t-37.5 -122.5q0 -78 45.5 -131t118 -91.5t153.5 -74.5q77 -34 152.5 -71.5t137 -88t98.5 -120.5t37 -169q0 -127 -64 -222.5t-179.5 -148.5t-270.5 -53q-136 0 -259 44t-233 132z" />
    <glyph glyph-name="T" unicode="T" horiz-adv-x="1210" 
d="M693 0h-176v1344h-482v156h1140v-156h-482v-1344z" />
    <glyph glyph-name="U" unicode="U" horiz-adv-x="1569" 
d="M1414 1500v-829q0 -218 -75.5 -375.5t-216.5 -241.5t-338 -84q-196 0 -337 84t-216.5 241.5t-75.5 375.5v829h176v-815q0 -177 54 -302t155.5 -191t243.5 -66q143 0 244.5 66t155.5 191t54 302v815h176z" />
    <glyph glyph-name="V" unicode="V" horiz-adv-x="1553" 
d="M873 0h-193l-615 1500h186l526 -1310l525 1310h186z" />
    <glyph glyph-name="W" unicode="W" horiz-adv-x="2144" 
d="M1603 0h-152l-378 1197l-378 -1197h-152l-488 1500h184l379 -1200l379 1200h152l378 -1197l377 1197h185z" />
    <glyph glyph-name="X" unicode="X" horiz-adv-x="1498" 
d="M1443 0h-220l-478 649l-480 -649h-210l583 779l-538 721h220l437 -592l434 592h211l-540 -722z" />
    <glyph glyph-name="Y" unicode="Y" horiz-adv-x="1391" 
d="M783 0h-176v641l-582 859h214l456 -712l458 712h213l-583 -861v-639z" />
    <glyph glyph-name="Z" unicode="Z" horiz-adv-x="1291" 
d="M1206 0h-1121v135l879 1209h-839v156h1065v-145l-871 -1199h887v-156z" />
    <glyph glyph-name="bracketleft" unicode="[" horiz-adv-x="632" 
d="M557 -289h-402v1829h402v-132h-256v-1563h256v-134z" />
    <glyph glyph-name="backslash" unicode="\" horiz-adv-x="825" 
d="M810 -20h-157l-638 1540h158z" />
    <glyph glyph-name="bracketright" unicode="]" horiz-adv-x="632" 
d="M477 -289h-402v132h257v1565h-257v132h402v-1829z" />
    <glyph glyph-name="asciicircum" unicode="^" horiz-adv-x="1056" 
d="M981 700h-133l-320 659l-320 -659h-133l404 800h98z" />
    <glyph glyph-name="underscore" unicode="_" horiz-adv-x="1361" 
d="M1206 0h-1051v133h1051v-133z" />
    <glyph glyph-name="grave" unicode="`" horiz-adv-x="494" 
d="M399 1166h-120l-194 334h156z" />
    <glyph glyph-name="a" unicode="a" horiz-adv-x="1097" 
d="M962 0h-141l-11 132q-55 -71 -140 -111.5t-190 -40.5q-108 0 -193 42.5t-133.5 116.5t-48.5 168q0 99 52.5 174.5t143 118.5t205.5 43q75 0 153 -18.5t139 -50.5v42q0 80 -40 136.5t-107 87t-148 30.5q-70 0 -143 -25.5t-140 -78.5l-54 141q87 56 183 84.5t190 28.5
q130 0 224.5 -52.5t146.5 -149t52 -228.5v-590zM509 130q77 0 141 32t104 92.5t44 143.5v17q-55 43 -123.5 66.5t-139.5 23.5q-111 0 -185.5 -54t-74.5 -137q0 -52 30.5 -94t83.5 -66t120 -24z" />
    <glyph glyph-name="b" unicode="b" horiz-adv-x="1284" 
d="M301 0h-146v1500h164v-635q70 73 166 114t209 41q148 0 264 -68t183.5 -185.5t67.5 -266.5q0 -148 -67.5 -266t-183.5 -186t-264 -68q-118 0 -216.5 44.5t-168.5 121.5zM680 128q103 0 184.5 48.5t129 132.5t47.5 190q0 107 -47.5 191.5t-129 133.5t-184.5 49
q-98 0 -177.5 -45t-128 -123t-55.5 -177v-55q7 -99 55 -177t127.5 -123t178.5 -45z" />
    <glyph glyph-name="c" unicode="c" horiz-adv-x="1061" 
d="M986 144q-73 -79 -173 -121.5t-215 -42.5q-149 0 -267.5 68t-187 186t-68.5 266q0 149 68.5 266.5t187 185.5t267.5 68q114 0 214 -42t173 -121l-98 -103q-53 56 -126.5 86t-155.5 30q-105 0 -186.5 -47.5t-128 -130.5t-46.5 -191t46.5 -192t128 -131.5t186.5 -47.5
q82 0 156 30.5t126 85.5z" />
    <glyph glyph-name="d" unicode="d" horiz-adv-x="1286" 
d="M1131 0h-146l-9 146q-69 -77 -168 -121.5t-217 -44.5q-147 0 -264 68t-184.5 186t-67.5 266q0 149 67.5 266.5t184.5 185.5t264 68q114 0 210.5 -41t165.5 -114v635h164v-1500zM606 128q100 0 182 46.5t130.5 127t48.5 182.5v34q0 102 -48.5 182.5t-130.5 126.5t-182 46
q-104 0 -186 -49t-129.5 -133t-47.5 -190t47.5 -190.5t129.5 -133.5t186 -49z" />
    <glyph glyph-name="e" unicode="e" horiz-adv-x="1165" 
d="M1032 123q-186 -143 -410 -143q-156 0 -280 70t-195.5 190.5t-71.5 272.5q0 146 66 260.5t181 180.5t261 66q150 0 264.5 -72t178.5 -200t64 -296v-32h-837q18 -88 72 -153t135.5 -101t181.5 -36q172 0 314 113zM247 560h688q-11 93 -57.5 162.5t-120 108.5t-165.5 39
q-93 0 -167.5 -39t-121 -108.5t-56.5 -162.5z" />
    <glyph glyph-name="f" unicode="f" horiz-adv-x="824" 
d="M394 0h-164v853h-175v147h175v215q0 93 39.5 164t110 111t162.5 40q57 0 114.5 -15.5t112.5 -47.5l-63 -129q-34 22 -69 33.5t-70 11.5q-77 0 -125 -55.5t-48 -144.5v-183h309v-147h-309v-853z" />
    <glyph glyph-name="g" unicode="g" horiz-adv-x="1257" 
d="M580 0q-144 0 -258.5 67t-180.5 182.5t-66 260.5q0 146 66 261t180.5 182t259.5 67q116 0 213 -43.5t165 -120.5l8 144h145v-974q0 -168 -66 -290.5t-188 -189t-290 -66.5q-238 0 -414 158l72 132q137 -142 335 -142q119 0 205.5 49.5t134 139.5t47.5 213v123
q-68 -71 -162.5 -112t-205.5 -41zM594 145q98 0 178 44.5t128 122t48 175.5v46q0 99 -48 176t-128 121.5t-178 44.5q-101 0 -181 -48t-126.5 -130.5t-46.5 -186.5t46.5 -187t126.5 -130.5t181 -47.5z" />
    <glyph glyph-name="h" unicode="h" 
d="M155 0v1500h164v-650q113 170 350 170q199 0 310.5 -118.5t111.5 -330.5v-571h-164v533q0 161 -79.5 250.5t-221.5 89.5q-143 0 -225 -91t-82 -249v-533h-164z" />
    <glyph glyph-name="i" unicode="i" horiz-adv-x="483" 
d="M241 1316q-42 0 -70.5 29.5t-28.5 71.5q0 41 28.5 70t70.5 29q43 0 72 -29t29 -70q0 -42 -29 -71.5t-72 -29.5zM323 0h-164v1000h164v-1000z" />
    <glyph glyph-name="j" unicode="j" horiz-adv-x="497" 
d="M260 1316q-42 0 -70.5 29t-28.5 71t28.5 71t70.5 29t71 -29t29 -71t-29 -71t-71 -29zM-113 -507v131q16 -3 30.5 -4t28.5 -1q104 0 168 74t64 199v1108h165v-1114q0 -194 -89.5 -300t-250.5 -106q-27 0 -56 3.5t-60 9.5z" />
    <glyph glyph-name="k" unicode="k" horiz-adv-x="1146" 
d="M319 0h-164v1500h164v-1056l78 95l435 461h206l-408 -434l471 -566h-213l-372 446l-197 -210v-236z" />
    <glyph glyph-name="l" unicode="l" horiz-adv-x="484" 
d="M329 0h-174v1540h174v-1540z" />
    <glyph glyph-name="m" unicode="m" horiz-adv-x="1873" 
d="M1738 0h-164v533q0 161 -70.5 250.5t-198.5 89.5q-129 0 -202.5 -90.5t-73.5 -249.5v-533h-164v533q0 161 -71 250.5t-199 89.5q-129 0 -202.5 -90.5t-73.5 -249.5v-533h-164v1000h134l7 -179q50 98 136.5 148.5t204.5 50.5q126 0 215.5 -56.5t133.5 -161.5
q49 107 139.5 162.5t216.5 55.5q187 0 291.5 -118.5t104.5 -330.5v-571z" />
    <glyph glyph-name="n" unicode="n" 
d="M1091 0h-164v577q0 135 -75.5 214t-205.5 79q-93 0 -167 -41.5t-117 -116.5t-43 -174v-538h-164v1000h143l6 -162q55 88 152.5 135t219.5 47q191 0 303 -115t112 -310v-595z" />
    <glyph glyph-name="o" unicode="o" horiz-adv-x="1195" 
d="M599 -20q-149 0 -268 68t-187.5 185.5t-68.5 266.5q0 148 68.5 265.5t187.5 186t268 68.5t267 -68.5t186 -186t68 -265.5q0 -149 -68 -266.5t-186 -185.5t-267 -68zM598 128q101 0 181 49t126.5 133t46.5 190t-46.5 190t-126.5 133t-181 49t-181.5 -49t-127 -133
t-46.5 -190t46.5 -190t127 -133t181.5 -49z" />
    <glyph glyph-name="p" unicode="p" horiz-adv-x="1285" 
d="M319 -500h-164v1500h146l8 -146q70 77 169 121.5t217 44.5q147 0 263.5 -68t184 -185.5t67.5 -266.5q0 -148 -67.5 -266t-184 -186t-263.5 -68q-113 0 -209.5 41t-166.5 114v-635zM682 130q105 0 186 47.5t126.5 131.5t45.5 192q0 109 -46 192.5t-126.5 131.5t-184.5 48
q-99 0 -178.5 -44t-128.5 -120.5t-57 -174.5v-68q8 -98 56 -174t127.5 -119t179.5 -43z" />
    <glyph glyph-name="q" unicode="q" horiz-adv-x="1285" 
d="M1130 -500h-164v635q-70 -73 -166.5 -114t-209.5 -41q-147 0 -263.5 68t-184 186t-67.5 266q0 149 67.5 266.5t184 185.5t263.5 68q118 0 217 -44.5t169 -121.5l8 146h146v-1500zM604 130q100 0 179 42.5t127.5 118.5t55.5 174v69q-7 99 -55 175t-126.5 118.5
t-178.5 42.5q-106 0 -187 -47.5t-127.5 -130.5t-46.5 -192q0 -108 46 -191.5t127 -131t186 -47.5z" />
    <glyph glyph-name="r" unicode="r" horiz-adv-x="796" 
d="M319 0h-164v1000h144l7 -198q52 103 146.5 160.5t217.5 57.5q27 0 55 -3t56 -9l-20 -148q-55 13 -109 13q-98 0 -173.5 -48t-117.5 -132t-42 -193v-500z" />
    <glyph glyph-name="s" unicode="s" horiz-adv-x="870" 
d="M85 87l43 154q36 -34 82 -59t97 -38.5t103 -13.5q93 0 150 41t57 107q0 48 -29.5 79.5t-77.5 54.5t-103 44q-67 26 -133 59t-109.5 87t-43.5 142q0 84 42 146t117.5 96t173.5 34q148 0 291 -74l-49 -148q-32 21 -74 37.5t-86 25.5t-83 9q-73 0 -118 -33.5t-45 -89.5
q0 -32 18.5 -58.5t62.5 -52.5t122 -58q69 -28 136 -63.5t111.5 -91t44.5 -144.5q0 -88 -46.5 -155.5t-129 -105.5t-190.5 -38q-179 0 -334 107z" />
    <glyph glyph-name="t" unicode="t" horiz-adv-x="800" 
d="M735 24q-99 -44 -193 -44q-90 0 -158 39.5t-106 111t-38 166.5v556h-175v147h183v250h156v-250h299v-147h-299v-526q0 -90 48.5 -145t127.5 -55q64 0 128 38z" />
    <glyph glyph-name="u" unicode="u" 
d="M1071 0h-144l-6 162q-55 -88 -144.5 -135t-211.5 -47q-199 0 -314.5 120.5t-115.5 329.5v570h164v-558q0 -142 80.5 -227t214.5 -85q140 0 226.5 92t86.5 240v538h164v-1000z" />
    <glyph glyph-name="v" unicode="v" horiz-adv-x="1150" 
d="M1075 1000l-421 -1000h-159l-420 1000h177l324 -828l325 828h174z" />
    <glyph glyph-name="w" unicode="w" horiz-adv-x="1581" 
d="M1206 0h-190l-226 764l-226 -764h-190l-319 1000h174l239 -800l245 800h154l245 -800l240 800h174z" />
    <glyph glyph-name="x" unicode="x" horiz-adv-x="1095" 
d="M222 0h-207l428 517l-395 483h213l289 -353l284 353h207l-388 -479l427 -521h-214l-319 391z" />
    <glyph glyph-name="y" unicode="y" horiz-adv-x="1177" 
d="M502 -500h-179l210 508l-478 992h181l376 -803l332 803h178z" />
    <glyph glyph-name="z" unicode="z" horiz-adv-x="1043" 
d="M968 0h-893v91l619 761h-589v148h838v-79l-628 -773h653v-148z" />
    <glyph glyph-name="braceleft" unicode="{" horiz-adv-x="620" 
d="M545 -289q-151 0 -228.5 63.5t-77.5 188.5v409q0 86 -47.5 148.5t-116.5 67.5v75q69 5 116.5 67.5t47.5 148.5v409q0 125 77.5 188.5t228.5 63.5v-133q-84 0 -122 -36.5t-38 -117.5v-378q0 -85 -41 -151.5t-112 -98.5q71 -32 112 -98.5t41 -151.5v-375q0 -81 38 -118.5
t122 -37.5v-133z" />
    <glyph glyph-name="bar" unicode="|" horiz-adv-x="455" 
d="M300 -250h-145v1790h145v-1790z" />
    <glyph glyph-name="braceright" unicode="}" horiz-adv-x="620" 
d="M75 -289v133q84 0 122 38t38 118v375q0 85 41.5 151.5t111.5 98.5q-70 32 -111.5 99t-41.5 151v378q0 80 -38 117t-122 37v133q152 0 229 -63.5t77 -188.5v-409q0 -86 47.5 -148.5t116.5 -67.5v-75q-69 -5 -116.5 -67.5t-47.5 -148.5v-409q0 -125 -77 -188.5t-229 -63.5z
" />
    <glyph glyph-name="asciitilde" unicode="~" horiz-adv-x="1352" 
d="M1197 613q-73 -77 -138 -112.5t-134 -35.5q-64 0 -124 24.5t-119 53.5q-60 30 -121 55t-126 25q-136 0 -280 -144v124q147 144 284 144q47 0 101.5 -17.5t143.5 -61.5q59 -29 119 -54t124 -25q133 0 270 149v-125z" />
    <glyph glyph-name="uni00A0" unicode="&#xa0;" horiz-adv-x="500" 
 />
    <glyph glyph-name="exclamdown" unicode="&#xa1;" horiz-adv-x="461" 
d="M230 820q-43 0 -72 29.5t-29 71.5q0 41 29 70t72 29t72.5 -29t29.5 -70q0 -42 -29.5 -71.5t-72.5 -29.5zM299 -500h-138l33 1099h72z" />
    <glyph glyph-name="cent" unicode="&#xa2;" horiz-adv-x="1061" 
d="M986 284q-61 -67 -146 -109t-184 -52v-183h-111v182q-135 12 -241.5 82t-167.5 183t-61 253t61 253t167.5 183t241.5 82v182h110v-183q99 -9 184 -50.5t146 -109.5l-98 -103q-51 56 -123 87t-154 31q-105 0 -188 -48.5t-131 -132.5t-48 -190t48 -191t130.5 -134
t186.5 -49q84 0 156.5 32t122.5 87z" />
    <glyph glyph-name="sterling" unicode="&#xa3;" horiz-adv-x="1209" 
d="M893 690h-372q10 -41 15 -79.5t5 -77.5q0 -111 -40.5 -206t-123.5 -180h687v-147h-926v99q125 92 192 203.5t67 228.5q0 37 -7 76t-22 83h-243v120h197q-41 99 -57.5 164.5t-16.5 125.5q0 122 54.5 217t150 149t217.5 54q123 0 231 -57t183 -161l-108 -84
q-54 75 -127.5 115t-156.5 40t-144.5 -38t-95.5 -106.5t-34 -161.5q0 -49 13 -102t51 -155h411v-120z" />
    <glyph glyph-name="currency" unicode="&#xa4;" horiz-adv-x="1280" 
d="M1154 339l-70 -71l-162 163q-58 -46 -130 -71t-152 -25t-152.5 25t-130.5 71l-161 -163l-71 71l163 161q-46 58 -70 130t-24 153q0 80 24 152t70 130l-163 161l71 71l161 -163q58 47 130 71t153 24t152.5 -24t129.5 -71l162 164l71 -71l-164 -162q47 -58 71 -130t24 -152
q0 -81 -24 -153t-71 -130zM640 449q93 0 166 43.5t114.5 119t41.5 171.5t-42 171.5t-115 118.5t-166 43q-92 0 -165 -43t-114.5 -118.5t-41.5 -171.5t42 -171.5t114.5 -119t165.5 -43.5z" />
    <glyph glyph-name="yen" unicode="&#xa5;" horiz-adv-x="1214" 
d="M692 0h-169v321h-357v80h357v173h-357v79h350l-481 847h193l378 -733l380 733h193l-479 -847h348v-80h-356v-172h356v-80h-356v-321z" />
    <glyph glyph-name="brokenbar" unicode="&#xa6;" horiz-adv-x="456" 
d="M301 820h-146v720h146v-720zM301 -250h-146v720h146v-720z" />
    <glyph glyph-name="section" unicode="&#xa7;" horiz-adv-x="1034" 
d="M190 -19l56 127q50 -29 115.5 -47t123.5 -18q89 0 143.5 42.5t54.5 110.5q0 54 -32.5 90t-85.5 63.5t-116 53.5q-68 29 -136 65.5t-113 94t-45 149.5q0 98 56 172.5t155 114.5q-49 26 -89 59t-63.5 78t-23.5 108q0 85 45 149.5t126 100.5t188 36q154 0 296 -71l-57 -127
q-49 29 -115 47t-123 18q-89 0 -144 -42.5t-55 -113.5q0 -39 21 -70.5t71 -62.5t137 -68q72 -30 140.5 -67.5t113.5 -95t45 -149.5q0 -97 -55.5 -171.5t-154.5 -115.5q49 -26 89 -59t63.5 -78t23.5 -108q0 -85 -45 -149.5t-126 -100.5t-189 -36q-153 0 -295 71zM601 474
q68 32 108 89.5t40 133.5q0 61 -30 107t-99 85t-186 77q-68 -32 -108.5 -88.5t-40.5 -129.5q0 -60 31.5 -107.5t101 -87.5t183.5 -79z" />
    <glyph glyph-name="dieresis" unicode="&#xa8;" horiz-adv-x="897" 
d="M669 1248q-40 0 -65 25t-25 65t25 65t65 25t64.5 -25t24.5 -65t-24.5 -65t-64.5 -25zM229 1248q-40 0 -65 25t-25 65t25 65t65 25t65 -25t25 -65t-25 -65t-65 -25z" />
    <glyph glyph-name="copyright" unicode="&#xa9;" horiz-adv-x="1349" 
d="M675 -104q-173 0 -309 77.5t-213.5 213t-77.5 308.5t77.5 308t213.5 212.5t309 77.5t308.5 -77.5t213 -212.5t77.5 -308t-77.5 -308.5t-213 -213t-308.5 -77.5zM675 6q140 0 249.5 63.5t172 173.5t62.5 250q0 141 -63 251.5t-172.5 174.5t-248.5 64t-249 -63.5
t-173 -174.5t-63 -252q0 -140 62.5 -250.5t172.5 -173.5t250 -63zM936 263q-101 -92 -244 -92q-94 0 -168 42t-116.5 115.5t-42.5 166.5q0 94 42.5 166.5t116.5 114.5t168 42q141 0 244 -92l-72 -73q-30 32 -72 48.5t-93 16.5q-100 0 -162 -61.5t-62 -162.5
q0 -100 62 -161.5t162 -61.5q51 0 94 17t73 49z" />
    <glyph glyph-name="ordfeminine" unicode="&#xaa;" horiz-adv-x="838" 
d="M683 810h-92l-7 114q-35 -59 -95.5 -91.5t-135.5 -32.5q-107 0 -177.5 60t-70.5 151q0 64 36.5 113.5t101 78t147.5 28.5q53 0 101 -12t90 -35v18q0 101 -53.5 161t-144.5 60q-49 0 -99 -19t-91 -52l-48 82q111 86 252 86q131 0 208.5 -75.5t77.5 -203.5v-431zM374 886
q58 0 105 23t74.5 62.5t27.5 88.5v49q-77 57 -178 57q-85 0 -140 -41.5t-55 -105.5q0 -59 46.5 -96t119.5 -37z" />
    <glyph glyph-name="guillemotleft" unicode="&#xab;" horiz-adv-x="1142" 
d="M559 111h-161l-323 386l323 385h161l-330 -386zM987 111h-161l-323 386l323 385h161l-330 -386z" />
    <glyph glyph-name="logicalnot" unicode="&#xac;" horiz-adv-x="1099" 
d="M944 110h-145v343h-644v133h789v-476z" />
    <glyph glyph-name="uni00AD" unicode="&#xad;" horiz-adv-x="1143" 
d="M988 430h-833v132h833v-132z" />
    <glyph glyph-name="registered" unicode="&#xae;" horiz-adv-x="1349" 
d="M675 423q-173 0 -309 77.5t-213.5 213t-77.5 308.5t77.5 308t213.5 212.5t309 77.5t308.5 -77.5t213 -212.5t77.5 -308t-77.5 -308.5t-213 -213t-308.5 -77.5zM675 534q140 0 249.5 63t172 173t62.5 250q0 141 -63 251.5t-172.5 174.5t-248.5 64t-249 -64t-173.5 -174.5
t-63.5 -251.5q0 -140 63 -250t173 -173t250 -63zM933 703h-126l-138 258h-101v-258h-110v642h215q108 0 170.5 -52t62.5 -141q0 -63 -32 -108t-90 -66zM568 1061h89q71 0 105 23t34 70t-34 69t-105 22h-89v-184z" />
    <glyph glyph-name="macron" unicode="&#xaf;" horiz-adv-x="959" 
d="M804 1292h-649v100h649v-100z" />
    <glyph glyph-name="degree" unicode="&#xb0;" horiz-adv-x="695" 
d="M347 975q-79 0 -140.5 35.5t-96.5 97t-35 140.5t35 140t96.5 96.5t140.5 35.5t140.5 -35.5t97 -96.5t35.5 -140t-35.5 -140.5t-97 -97t-140.5 -35.5zM347 1070q74 0 122.5 50.5t48.5 127.5t-48.5 127t-122.5 50q-75 0 -123 -50t-48 -127t48 -127.5t123 -50.5z" />
    <glyph glyph-name="plusminus" unicode="&#xb1;" horiz-adv-x="1144" 
d="M645 258h-146v352h-344v132h344v342h146v-342h344v-132h-344v-352zM989 0h-833v129h833v-129z" />
    <glyph glyph-name="uni00B2" unicode="&#xb2;" horiz-adv-x="768" 
d="M623 790h-435v62q113 97 184 175.5t104.5 144t33.5 121.5q0 64 -36.5 103.5t-95.5 39.5q-49 0 -93 -27.5t-73 -76.5l-57 56q40 62 103.5 97t133.5 35q95 0 155.5 -60.5t60.5 -155.5q0 -65 -32 -134.5t-96 -143t-160 -151.5h303v-85z" />
    <glyph glyph-name="uni00B3" unicode="&#xb3;" horiz-adv-x="739" 
d="M145 874l42 70q79 -70 166 -70q62 0 102 38t40 95q0 61 -48 93.5t-136 32.5h-31v72h31q70 0 116 35.5t46 87.5q0 47 -35.5 77.5t-89.5 30.5q-77 0 -139 -62l-48 66q80 80 196 80q90 0 149 -50.5t59 -127.5q0 -57 -33 -102t-87 -67q68 -18 108.5 -64.5t40.5 -113.5
q0 -89 -66.5 -147t-167.5 -58q-123 0 -215 84z" />
    <glyph glyph-name="acute" unicode="&#xb4;" horiz-adv-x="494" 
d="M214 1166h-119l157 334h157z" />
    <glyph glyph-name="mu" unicode="&#xb5;" horiz-adv-x="1310" 
d="M1267 -20q-118 0 -194 44.5t-111 135.5q-52 -86 -137.5 -133t-198.5 -47q-205 0 -309 151v-631h-157v1500h159v-533q0 -157 80.5 -248t216.5 -91t213.5 90.5t77.5 248.5v533h164v-672q0 -224 204 -224z" />
    <glyph glyph-name="paragraph" unicode="&#xb6;" horiz-adv-x="1284" 
d="M1129 -150h-122v1530h-218v-1530h-121v799q-165 0 -284.5 52t-184 149t-64.5 231q0 131 62 225t178 144t279 50h475v-1650z" />
    <glyph glyph-name="periodcentered" unicode="&#xb7;" horiz-adv-x="462" 
d="M231 430q-44 0 -72 28t-28 72t28 72t72 28t72 -28t28 -72t-28 -72t-72 -28z" />
    <glyph glyph-name="cedilla" unicode="&#xb8;" horiz-adv-x="608" 
d="M125 -391l34 84q45 -19 92 -19q56 0 93 26.5t37 66.5q0 43 -42 71t-104 28h-10.5t-10.5 -1l55 142h80l-35 -84q74 -7 119 -49.5t45 -109.5q0 -78 -61 -128.5t-159 -50.5q-65 0 -133 24z" />
    <glyph glyph-name="uni00B9" unicode="&#xb9;" horiz-adv-x="494" 
d="M339 780h-101v623l-133 -48l-30 79l182 66h82v-720z" />
    <glyph glyph-name="ordmasculine" unicode="&#xba;" horiz-adv-x="867" 
d="M434 800q-103 0 -184.5 47t-128 128.5t-46.5 184.5q0 104 46.5 185.5t127.5 128t185 46.5t184.5 -46.5t127 -128t46.5 -185.5t-46.5 -185.5t-127 -128t-184.5 -46.5zM435 893q74 0 131.5 34.5t90.5 95t33 137.5q0 78 -33 138.5t-90.5 95t-131.5 34.5t-132.5 -35
t-92 -95.5t-33.5 -137.5t33.5 -137.5t92 -95t132.5 -34.5z" />
    <glyph glyph-name="guillemotright" unicode="&#xbb;" horiz-adv-x="1142" 
d="M316 111h-161l330 385l-330 386h161l323 -385zM744 111h-161l330 385l-330 386h161l323 -385z" />
    <glyph glyph-name="onequarter" unicode="&#xbc;" horiz-adv-x="1623" 
d="M359 0h-115l1020 1540h108zM389 780h-101v623l-133 -48l-30 79l182 66h82v-720zM1414 0h-97v169h-353v76l359 475h91v-465h84v-86h-84v-169zM1057 255h260v344z" />
    <glyph glyph-name="onehalf" unicode="&#xbd;" horiz-adv-x="1673" 
d="M359 0h-115l1020 1540h108zM389 780h-101v623l-133 -48l-30 79l182 66h82v-720zM1548 0h-436v53q117 101 189 179t104.5 142.5t32.5 123.5q0 70 -38.5 113t-98.5 43q-90 0 -151 -97l-57 59q38 59 97 91.5t126 32.5q94 0 158 -61t64 -162q0 -69 -33.5 -141.5t-97.5 -145.5
t-154 -144h295v-86z" />
    <glyph glyph-name="threequarters" unicode="&#xbe;" horiz-adv-x="1641" 
d="M377 0h-115l1020 1540h108zM125 872l40 72q76 -67 154 -67q62 0 103 36.5t41 91.5q0 59 -49.5 94.5t-131.5 35.5h-25v72h14q73 0 121 35t48 87q0 45 -35 75.5t-87 30.5q-67 0 -132 -53l-45 64q79 74 187 74q89 0 146.5 -48.5t57.5 -123.5q0 -58 -34.5 -104.5t-93.5 -69.5
q74 -18 116 -66t42 -114q0 -86 -67 -143.5t-168 -57.5q-115 0 -202 79zM1432 0h-97v169h-353v76l359 475h91v-465h84v-86h-84v-169zM1075 255h260v344z" />
    <glyph glyph-name="questiondown" unicode="&#xbf;" horiz-adv-x="924" 
d="M533 1030q44 0 72 -27.5t28 -71.5q0 -45 -28 -73t-72 -28t-72 28t-28 73q0 44 28 71.5t72 27.5zM762 -250l87 -135q-171 -135 -370 -135q-112 0 -196 41.5t-131 116.5t-47 175q0 68 20.5 119t54 93.5t72.5 84.5q49 54 97 117.5t80 154.5t32 227h144q0 -155 -33 -257.5
t-80.5 -169.5t-93.5 -119q-52 -58 -88 -111.5t-36 -128.5q0 -90 56 -142t153 -52q74 0 146 31.5t133 89.5z" />
    <glyph glyph-name="Agrave" unicode="&#xc0;" horiz-adv-x="1512" 
d="M803 1666h-120l-194 334h157zM230 0h-185l616 1500h191l615 -1500h-185l-163 405h-726zM455 561h602l-301 749z" />
    <glyph glyph-name="Aacute" unicode="&#xc1;" horiz-adv-x="1512" 
d="M828 1666h-119l157 334h157zM230 0h-185l616 1500h191l615 -1500h-185l-163 405h-726zM455 561h602l-301 749z" />
    <glyph glyph-name="Acircumflex" unicode="&#xc2;" horiz-adv-x="1512" 
d="M1041 1666h-123l-162 263l-163 -263h-122l212 334h146zM230 0h-185l616 1500h191l615 -1500h-185l-163 405h-726zM455 561h602l-301 749z" />
    <glyph glyph-name="Atilde" unicode="&#xc3;" horiz-adv-x="1512" 
d="M1090 1947q-8 -98 -57.5 -151.5t-132.5 -53.5q-50 0 -87.5 20t-81.5 54q-23 19 -52 35.5t-67 16.5q-99 0 -116 -116h-74q18 205 188 205q59 0 99.5 -22t72.5 -47q29 -22 58 -38.5t66 -16.5q93 0 110 114h74zM230 0h-185l616 1500h191l615 -1500h-185l-163 405h-726z
M455 561h602l-301 749z" />
    <glyph glyph-name="Adieresis" unicode="&#xc4;" horiz-adv-x="1512" 
d="M230 0h-185l616 1500h191l615 -1500h-185l-163 405h-726zM455 561h602l-301 749zM977 1748q-40 0 -65 25t-25 65t25 65t65 25t64.5 -25t24.5 -65t-24.5 -65t-64.5 -25zM537 1748q-40 0 -65 25t-25 65t25 65t65 25t65 -25t25 -65t-25 -65t-65 -25z" />
    <glyph glyph-name="Aring" unicode="&#xc5;" horiz-adv-x="1513" 
d="M755 1595q-95 0 -153 57t-58 150t58 150.5t153 57.5t153 -57.5t58 -150.5t-58 -150t-153 -57zM755 1671q58 0 93 36t35 95t-35 95t-93 36t-93 -36t-35 -95t35 -95t93 -36zM230 0h-185l616 1500h191l616 -1500h-186l-163 405h-726zM456 561h601l-301 749z" />
    <glyph glyph-name="AE" unicode="&#xc6;" horiz-adv-x="2143" 
d="M2038 0h-893l-52 380h-657l-200 -380h-201l802 1500h996l21 -155h-716l70 -506h673l21 -155h-674l73 -528h716zM518 536h554l-114 834h-4z" />
    <glyph glyph-name="Ccedilla" unicode="&#xc7;" horiz-adv-x="1528" 
d="M1423 192q-97 -97 -227.5 -155t-285.5 -66l-20 -48q74 -7 119 -49.5t45 -109.5q0 -78 -61 -128.5t-159 -50.5q-65 0 -133 24l34 84q45 -19 92 -19q56 0 93 26.5t37 66.5q0 43 -42 71t-104 28h-10.5t-10.5 -1l41 106q-162 6 -298.5 66.5t-237 165t-155.5 244t-55 303.5
q0 169 58 311.5t163 247.5t247.5 163t311.5 58q168 0 311 -58.5t246 -162.5l-123 -125q-80 89 -192 139.5t-245 50.5q-129 0 -238 -46.5t-189.5 -131t-125 -198.5t-44.5 -248q0 -135 44.5 -248.5t125 -198t189.5 -131t238 -46.5q133 0 245 50.5t192 139.5z" />
    <glyph glyph-name="Egrave" unicode="&#xc8;" horiz-adv-x="1229" 
d="M700 1666h-119l-194 334h156zM155 0v1500h919v-156h-743v-504h702v-156h-702v-528h753v-156h-929z" />
    <glyph glyph-name="Eacute" unicode="&#xc9;" horiz-adv-x="1229" 
d="M659 1666h-119l156 334h157zM155 0v1500h919v-156h-743v-504h702v-156h-702v-528h753v-156h-929z" />
    <glyph glyph-name="Ecircumflex" unicode="&#xca;" horiz-adv-x="1229" 
d="M906 1666h-123l-163 263l-162 -263h-123l213 334h146zM155 0v1500h919v-156h-743v-504h702v-156h-702v-528h753v-156h-929z" />
    <glyph glyph-name="Edieresis" unicode="&#xcb;" horiz-adv-x="1229" 
d="M155 0v1500h919v-156h-743v-504h702v-156h-702v-528h753v-156h-929zM835 1748q-40 0 -65 25t-25 65t25 65t65 25t64.5 -25t24.5 -65t-24.5 -65t-64.5 -25zM395 1748q-40 0 -65 25t-25 65t25 65t65 25t65 -25t25 -65t-25 -65t-65 -25z" />
    <glyph glyph-name="Igrave" unicode="&#xcc;" horiz-adv-x="487" 
d="M294 1666l-157 334h-157l194 -334h120zM332 1500h-176v-1500h176v1500z" />
    <glyph glyph-name="Iacute" unicode="&#xcd;" horiz-adv-x="486" 
d="M304 1666l195 334h-157l-157 -334h119zM331 1500h-176v-1500h176v1500z" />
    <glyph glyph-name="Icircumflex" unicode="&#xce;" horiz-adv-x="487" 
d="M529 1666l-213 334h-145l-213 -334h123l162 263l163 -263h123zM332 1500h-176v-1500h176v1500z" />
    <glyph glyph-name="Idieresis" unicode="&#xcf;" horiz-adv-x="486" 
d="M331 1500h-176v-1500h176v1500zM464 1748q-40 0 -65 25t-25 65t25 65t65 25t64.5 -25t24.5 -65t-24.5 -65t-64.5 -25zM24 1748q-40 0 -65 25t-25 65t25 65t65 25t65 -25t25 -65t-25 -65t-65 -25z" />
    <glyph glyph-name="Eth" unicode="&#xd0;" horiz-adv-x="1584" 
d="M191 0v683h-176v129h176v688h432q276 0 474.5 -90t305 -258t106.5 -402q0 -233 -106.5 -401.5t-305 -258.5t-474.5 -90h-432zM815 683h-448v-527h264q221 0 377 70t238.5 203t82.5 321t-82.5 321t-238.5 203t-377 70h-264v-532h448v-129z" />
    <glyph glyph-name="Ntilde" unicode="&#xd1;" horiz-adv-x="1615" 
d="M1162 1947q-8 -98 -57 -151.5t-131 -53.5q-52 0 -88.5 19t-75.5 50q-28 23 -57.5 40t-67.5 17q-99 0 -116 -116h-74q18 205 188 205q59 0 98.5 -22t72.5 -47q29 -22 58 -38.5t66 -16.5q94 0 111 114h73zM1460 0h-186l-943 1225v-1225h-176v1500h186l943 -1225v1225h176
v-1500z" />
    <glyph glyph-name="Ograve" unicode="&#xd2;" horiz-adv-x="1729" 
d="M940 1666h-119l-194 334h156zM865 -30q-169 0 -311.5 58t-247.5 163.5t-163 248t-58 310.5q0 169 58 311.5t163 247.5t247.5 163t311.5 58t311 -58t247 -163t163 -247.5t58 -311.5q0 -168 -58 -310.5t-163 -248t-247 -163.5t-311 -58zM865 126q129 0 238.5 47
t190.5 131.5t125.5 198t44.5 247.5t-44.5 248t-125.5 198.5t-190.5 131t-238.5 46.5t-238.5 -46.5t-190.5 -131t-126 -198.5t-45 -248t45 -248t126 -198.5t190.5 -131t238.5 -46.5z" />
    <glyph glyph-name="Oacute" unicode="&#xd3;" horiz-adv-x="1729" 
d="M907 1666h-119l156 334h157zM866 -30q-169 0 -311.5 58t-248 163.5t-163.5 248t-58 310.5q0 169 58 311.5t163.5 247.5t248 163t311.5 58t311 -58t247 -163t162.5 -247.5t57.5 -311.5q0 -168 -57.5 -310.5t-162.5 -248t-247 -163.5t-311 -58zM865 126q129 0 238.5 47
t190.5 131.5t125.5 198t44.5 247.5t-44.5 248t-125.5 198.5t-190.5 131t-238.5 46.5t-238.5 -46.5t-190.5 -131t-126 -198.5t-45 -248t45 -248t126 -198.5t190.5 -131t238.5 -46.5z" />
    <glyph glyph-name="Ocircumflex" unicode="&#xd4;" horiz-adv-x="1729" 
d="M1150 1666h-123l-162 263l-163 -263h-122l212 334h146zM866 -30q-169 0 -311.5 58t-248 163.5t-163.5 248t-58 310.5q0 169 58 311.5t163.5 247.5t248 163t311.5 58t311 -58t247 -163t162.5 -247.5t57.5 -311.5q0 -168 -57.5 -310.5t-162.5 -248t-247 -163.5t-311 -58z
M865 126q129 0 238.5 47t190.5 131.5t125.5 198t44.5 247.5t-44.5 248t-125.5 198.5t-190.5 131t-238.5 46.5t-238.5 -46.5t-190.5 -131t-126 -198.5t-45 -248t45 -248t126 -198.5t190.5 -131t238.5 -46.5z" />
    <glyph glyph-name="Otilde" unicode="&#xd5;" horiz-adv-x="1729" 
d="M1198 1947q-8 -98 -57.5 -151.5t-132.5 -53.5q-50 0 -87.5 20t-81.5 54q-23 19 -52 35.5t-67 16.5q-99 0 -116 -116h-74q18 205 188 205q59 0 99.5 -22t72.5 -47q29 -22 58 -38.5t66 -16.5q93 0 110 114h74zM865 -30q-169 0 -311.5 58t-247.5 163.5t-163 248t-58 310.5
q0 169 58 311.5t163 247.5t247.5 163t311.5 58t311 -58t247 -163t163 -247.5t58 -311.5q0 -168 -58 -310.5t-163 -248t-247 -163.5t-311 -58zM865 126q129 0 238.5 47t190.5 131.5t125.5 198t44.5 247.5t-44.5 248t-125.5 198.5t-190.5 131t-238.5 46.5t-238.5 -46.5
t-190.5 -131t-126 -198.5t-45 -248t45 -248t126 -198.5t190.5 -131t238.5 -46.5z" />
    <glyph glyph-name="Odieresis" unicode="&#xd6;" horiz-adv-x="1729" 
d="M865 -30q-169 0 -311.5 58t-247.5 163.5t-163 248t-58 310.5q0 169 58 311.5t163 247.5t247.5 163t311.5 58t311 -58t247 -163t163 -247.5t58 -311.5q0 -168 -58 -310.5t-163 -248t-247 -163.5t-311 -58zM865 126q129 0 238.5 47t190.5 131.5t125.5 198t44.5 247.5
t-44.5 248t-125.5 198.5t-190.5 131t-238.5 46.5t-238.5 -46.5t-190.5 -131t-126 -198.5t-45 -248t45 -248t126 -198.5t190.5 -131t238.5 -46.5zM1085 1748q-40 0 -65 25t-25 65t25 65t65 25t64.5 -25t24.5 -65t-24.5 -65t-64.5 -25zM645 1748q-40 0 -65 25t-25 65t25 65
t65 25t65 -25t25 -65t-25 -65t-65 -25z" />
    <glyph glyph-name="multiply" unicode="&#xd7;" horiz-adv-x="1006" 
d="M816 90l-313 314l-313 -314l-95 95l314 313l-314 313l95 95l313 -314l313 314l95 -95l-314 -313l314 -313z" />
    <glyph glyph-name="Oslash" unicode="&#xd8;" horiz-adv-x="1728" 
d="M574 -70l-82 35l32 76q-133 60 -232 164.5t-153 243t-54 301.5q0 169 58 311.5t163 247.5t247.5 163t311.5 58q69 0 134.5 -10t125.5 -30l32 78l82 -33l-32 -77q133 -60 230.5 -164.5t151.5 -242.5t54 -301q0 -168 -57.5 -310.5t-162.5 -248t-247 -163.5t-311 -58
q-69 0 -133.5 10t-124.5 29zM586 191l478 1151q-46 16 -96.5 24t-103.5 8q-129 0 -238.5 -46.5t-190.5 -131t-126 -198.5t-45 -248q0 -126 40 -234.5t112.5 -191.5t169.5 -133zM864 126q129 0 238.5 47t190.5 131.5t125.5 198t44.5 247.5q0 126 -39 234t-110.5 191
t-168.5 133l-477 -1151q46 -15 95 -23t101 -8z" />
    <glyph glyph-name="Ugrave" unicode="&#xd9;" horiz-adv-x="1569" 
d="M861 1666h-120l-194 334h157zM1414 1500v-829q0 -218 -75.5 -375.5t-216 -241.5t-337.5 -84q-196 0 -337 84t-217 241.5t-76 375.5v829h176v-815q0 -177 54 -302t156 -191t244 -66q143 0 244 66t155 191t54 302v815h176z" />
    <glyph glyph-name="Uacute" unicode="&#xda;" horiz-adv-x="1569" 
d="M827 1666h-119l156 334h157zM1414 1500v-829q0 -218 -75.5 -375.5t-216 -241.5t-337.5 -84q-196 0 -337 84t-217 241.5t-76 375.5v829h176v-815q0 -177 54 -302t156 -191t244 -66q143 0 244 66t155 191t54 302v815h176z" />
    <glyph glyph-name="Ucircumflex" unicode="&#xdb;" horiz-adv-x="1569" 
d="M1070 1666h-123l-162 263l-163 -263h-122l212 334h146zM1414 1500v-829q0 -218 -75.5 -375.5t-216 -241.5t-337.5 -84q-196 0 -337 84t-217 241.5t-76 375.5v829h176v-815q0 -177 54 -302t156 -191t244 -66q143 0 244 66t155 191t54 302v815h176z" />
    <glyph glyph-name="Udieresis" unicode="&#xdc;" horiz-adv-x="1569" 
d="M1414 1500v-829q0 -218 -75.5 -375.5t-216.5 -241.5t-338 -84q-196 0 -337 84t-216.5 241.5t-75.5 375.5v829h176v-815q0 -177 54 -302t155.5 -191t243.5 -66q143 0 244.5 66t155.5 191t54 302v815h176zM1005 1748q-40 0 -65 25t-25 65t25 65t65 25t64.5 -25t24.5 -65
t-24.5 -65t-64.5 -25zM565 1748q-40 0 -65 25t-25 65t25 65t65 25t65 -25t25 -65t-25 -65t-65 -25z" />
    <glyph glyph-name="Yacute" unicode="&#xdd;" horiz-adv-x="1390" 
d="M737 1666h-119l157 334h157zM782 0h-176v641l-581 859h213l456 -712l458 712h213l-583 -861v-639z" />
    <glyph glyph-name="Thorn" unicode="&#xde;" horiz-adv-x="1211" 
d="M320 0h-165v1500h165v-314h267q150 0 260 -53t169.5 -150.5t59.5 -231.5t-60 -232t-169.5 -151.5t-259.5 -53.5h-267v-314zM320 461h240q166 0 257 76.5t91 212.5q0 137 -91 212.5t-257 75.5h-240v-577z" />
    <glyph glyph-name="germandbls" unicode="&#xdf;" horiz-adv-x="1166" 
d="M331 0h-176v1111q0 125 53 219t148 147t221 53q122 0 216 -48t148 -132t54 -192q0 -80 -27.5 -136t-66.5 -94t-75 -66q-28 -22 -47.5 -41.5t-19.5 -39.5q0 -16 18 -33t67 -49q47 -30 87 -62t69 -69t45 -83.5t16 -105.5q0 -116 -61 -206.5t-167 -141.5t-242 -51l-39 152
q95 0 169 35.5t116.5 98t42.5 141.5q0 63 -25.5 105t-64 71t-78.5 54q-49 31 -87 63.5t-38 85.5q0 46 28.5 76t66.5 58q32 24 62 51.5t50 67t20 98.5q0 70 -30 123.5t-83 83.5t-123 30q-113 0 -180 -79.5t-67 -213.5v-1081z" />
    <glyph glyph-name="agrave" unicode="&#xe0;" horiz-adv-x="1097" 
d="M636 1166h-120l-194 334h157zM962 0h-141l-11 132q-55 -71 -140 -111.5t-190 -40.5q-108 0 -193 42.5t-133.5 116.5t-48.5 168q0 99 52.5 174.5t143 118.5t205.5 43q75 0 153 -18.5t139 -50.5v42q0 80 -40 136.5t-107 87t-148 30.5q-70 0 -143 -25.5t-140 -78.5l-54 141
q87 56 183 84.5t190 28.5q130 0 224.5 -52.5t146.5 -149t52 -228.5v-590zM506 130q81 0 147.5 36.5t105.5 99t39 141.5v8q-50 43 -117.5 66.5t-141.5 23.5q-115 0 -189.5 -54t-74.5 -137q0 -52 30.5 -94t82.5 -66t118 -24z" />
    <glyph glyph-name="aacute" unicode="&#xe1;" horiz-adv-x="1097" 
d="M581 1166h-119l157 334h157zM962 0h-141l-11 132q-55 -71 -140 -111.5t-190 -40.5q-108 0 -193 42.5t-133.5 116.5t-48.5 168q0 99 52.5 174.5t143 118.5t205.5 43q75 0 153 -18.5t139 -50.5v42q0 80 -40 136.5t-107 87t-148 30.5q-70 0 -143 -25.5t-140 -78.5l-54 141
q87 56 183 84.5t190 28.5q130 0 224.5 -52.5t146.5 -149t52 -228.5v-590zM506 130q81 0 147.5 36.5t105.5 99t39 141.5v8q-50 43 -117.5 66.5t-141.5 23.5q-115 0 -189.5 -54t-74.5 -137q0 -52 30.5 -94t82.5 -66t118 -24z" />
    <glyph glyph-name="acircumflex" unicode="&#xe2;" horiz-adv-x="1097" 
d="M844 1166h-123l-162 263l-163 -263h-122l212 334h146zM962 0h-141l-11 132q-55 -71 -140 -111.5t-190 -40.5q-108 0 -193 42.5t-133.5 116.5t-48.5 168q0 99 52.5 174.5t143 118.5t205.5 43q75 0 153 -18.5t139 -50.5v42q0 80 -40 136.5t-107 87t-148 30.5
q-70 0 -143 -25.5t-140 -78.5l-54 141q87 56 183 84.5t190 28.5q130 0 224.5 -52.5t146.5 -149t52 -228.5v-590zM506 130q81 0 147.5 36.5t105.5 99t39 141.5v8q-50 43 -117.5 66.5t-141.5 23.5q-115 0 -189.5 -54t-74.5 -137q0 -52 30.5 -94t82.5 -66t118 -24z" />
    <glyph glyph-name="atilde" unicode="&#xe3;" horiz-adv-x="1097" 
d="M883 1447q-8 -98 -57.5 -151.5t-132.5 -53.5q-50 0 -87 20t-81 54q-25 20 -53.5 36t-66.5 16q-99 0 -116 -116h-74q18 205 188 205q59 0 99 -21.5t73 -47.5q29 -22 58 -38.5t66 -16.5q93 0 110 114h74zM962 0h-141l-11 132q-55 -71 -140 -111.5t-190 -40.5
q-108 0 -193 42.5t-133.5 116.5t-48.5 168q0 99 52.5 174.5t143 118.5t205.5 43q75 0 153 -18.5t139 -50.5v42q0 80 -40 136.5t-107 87t-148 30.5q-70 0 -143 -25.5t-140 -78.5l-54 141q87 56 183 84.5t190 28.5q130 0 224.5 -52.5t146.5 -149t52 -228.5v-590zM506 130
q81 0 146.5 36.5t104.5 99t41 141.5v8q-50 43 -117.5 66.5t-141.5 23.5q-115 0 -189.5 -54t-74.5 -137q0 -52 30.5 -94t82.5 -66t118 -24z" />
    <glyph glyph-name="adieresis" unicode="&#xe4;" horiz-adv-x="1097" 
d="M962 0h-141l-11 132q-55 -71 -140 -111.5t-190 -40.5q-108 0 -193 42.5t-133.5 116.5t-48.5 168q0 99 52.5 174.5t143 118.5t205.5 43q75 0 153 -18.5t139 -50.5v42q0 80 -40 136.5t-107 87t-148 30.5q-70 0 -143 -25.5t-140 -78.5l-54 141q87 56 183 84.5t190 28.5
q130 0 224.5 -52.5t146.5 -149t52 -228.5v-590zM509 130q77 0 141 32t104 92.5t44 143.5v17q-55 43 -123.5 66.5t-139.5 23.5q-111 0 -185.5 -54t-74.5 -137q0 -52 30.5 -94t83.5 -66t120 -24zM789 1248q-40 0 -65 25t-25 65t25 65t65 25t64.5 -25t24.5 -65t-24.5 -65
t-64.5 -25zM349 1248q-40 0 -65 25t-25 65t25 65t65 25t65 -25t25 -65t-25 -65t-65 -25z" />
    <glyph glyph-name="aring" unicode="&#xe5;" horiz-adv-x="1097" 
d="M559 1106q-95 0 -153 57t-58 150t58 150t153 57t153 -57t58 -150t-58 -150t-153 -57zM559 1182q58 0 93.5 36t35.5 95t-35.5 95t-93.5 36t-93 -36t-35 -95t35 -95t93 -36zM962 0h-141l-11 132q-55 -71 -140 -111.5t-190 -40.5q-108 0 -193 42.5t-133.5 116.5t-48.5 168
q0 99 52.5 174.5t143 118.5t205.5 43q75 0 153 -18.5t139 -50.5v42q0 80 -40 136.5t-107 87t-148 30.5q-70 0 -143 -25.5t-140 -78.5l-54 141q87 56 183 84.5t190 28.5q130 0 224.5 -52.5t146.5 -149t52 -228.5v-590zM506 130q81 0 147.5 36.5t105.5 99t39 141.5v8
q-50 43 -117.5 66.5t-141.5 23.5q-115 0 -189.5 -54t-74.5 -137q0 -52 30.5 -94t82.5 -66t118 -24z" />
    <glyph glyph-name="ae" unicode="&#xe6;" horiz-adv-x="1888" 
d="M1755 120q-183 -140 -412 -140q-145 0 -263 58.5t-190 161.5q-34 -67 -91.5 -116.5t-133 -76.5t-164.5 -27q-114 0 -203.5 43t-141 118.5t-51.5 171.5q0 97 52.5 171.5t145.5 116.5t214 42q152 0 281 -70v7q-4 130 -86 210t-211 80q-149 0 -281 -104l-54 141
q86 56 180.5 84.5t187.5 28.5q125 0 218.5 -51t145.5 -146q69 94 176 145.5t236 51.5q151 0 264 -69.5t176 -195t63 -292.5v-31h-839q18 -90 72 -158.5t135 -107t181 -38.5q171 0 317 113zM968 560h693q-10 94 -56 164t-119.5 109t-168.5 39t-170.5 -39.5t-122 -109.5
t-56.5 -163zM798 415q-62 46 -127 68t-135 22q-76 0 -135 -24t-92.5 -66.5t-33.5 -98.5q0 -53 31 -95.5t85.5 -66.5t126.5 -24q76 0 139.5 28.5t102 84.5t38.5 138v34z" />
    <glyph glyph-name="ccedilla" unicode="&#xe7;" horiz-adv-x="1061" 
d="M986 144q-66 -73 -155.5 -114.5t-193.5 -48.5l-25 -58q74 -7 119 -49.5t45 -109.5q0 -78 -61 -128.5t-159 -50.5q-65 0 -133 24l34 84q45 -19 92 -19q56 0 93 26.5t37 66.5q0 43 -42 71t-104 28h-10.5t-10.5 -1l45 116q-139 10 -248 79.5t-171.5 183.5t-62.5 256
q0 149 68.5 266.5t187 185.5t267.5 68q114 0 214 -42t173 -121l-98 -103q-53 56 -126.5 86t-155.5 30q-105 0 -186.5 -47.5t-128 -130.5t-46.5 -191t46.5 -192t128 -131.5t186.5 -47.5q82 0 156 30.5t126 85.5z" />
    <glyph glyph-name="egrave" unicode="&#xe8;" horiz-adv-x="1165" 
d="M1032 123q-186 -143 -410 -143q-156 0 -280 70t-195.5 190.5t-71.5 272.5q0 146 66 260.5t181 180.5t261 66q150 0 264.5 -72t178.5 -200t64 -296v-32h-837q18 -88 72 -153t135.5 -101t181.5 -36q172 0 314 113zM247 560h688q-11 93 -57.5 162.5t-120 108.5t-165.5 39
q-93 0 -167.5 -39t-121 -108.5t-56.5 -162.5zM670 1166h-120l-194 334h156z" />
    <glyph glyph-name="eacute" unicode="&#xe9;" horiz-adv-x="1165" 
d="M1032 123q-186 -143 -410 -143q-156 0 -280 70t-195.5 190.5t-71.5 272.5q0 146 66 260.5t181 180.5t261 66q150 0 264.5 -72t178.5 -200t64 -296v-32h-837q18 -88 72 -153t135.5 -101t181.5 -36q172 0 314 113zM247 560h688q-11 93 -57.5 162.5t-120 108.5t-165.5 39
q-93 0 -167.5 -39t-121 -108.5t-56.5 -162.5zM645 1166h-119l157 334h157z" />
    <glyph glyph-name="ecircumflex" unicode="&#xea;" horiz-adv-x="1165" 
d="M1032 123q-186 -143 -410 -143q-156 0 -280 70t-195.5 190.5t-71.5 272.5q0 146 66 260.5t181 180.5t261 66q150 0 264.5 -72t178.5 -200t64 -296v-32h-837q18 -88 72 -153t135.5 -101t181.5 -36q172 0 314 113zM247 560h688q-11 93 -57.5 162.5t-120 108.5t-165.5 39
q-93 0 -167.5 -39t-121 -108.5t-56.5 -162.5zM868 1166h-123l-163 263l-162 -263h-123l212 334h146z" />
    <glyph glyph-name="edieresis" unicode="&#xeb;" horiz-adv-x="1165" 
d="M1032 123q-186 -143 -410 -143q-156 0 -280 70t-195.5 190.5t-71.5 272.5q0 146 66 260.5t181 180.5t261 66q150 0 264.5 -72t178.5 -200t64 -296v-32h-837q18 -88 72 -153t135.5 -101t181.5 -36q172 0 314 113zM247 560h688q-11 93 -57.5 162.5t-120 108.5t-165.5 39
q-93 0 -167.5 -39t-121 -108.5t-56.5 -162.5zM803 1248q-40 0 -65 25t-25 65t25 65t65 25t64.5 -25t24.5 -65t-24.5 -65t-64.5 -25zM363 1248q-40 0 -65 25t-25 65t25 65t65 25t65 -25t25 -65t-25 -65t-65 -25z" />
    <glyph glyph-name="igrave" unicode="&#xec;" horiz-adv-x="475" 
d="M310 1166h-120l-194 334h157zM320 0h-165v1000h165v-1000z" />
    <glyph glyph-name="iacute" unicode="&#xed;" horiz-adv-x="474" 
d="M284 1166h-119l156 334h157zM318 0h-163v1000h163v-1000z" />
    <glyph glyph-name="icircumflex" unicode="&#xee;" horiz-adv-x="475" 
d="M523 1166h-123l-162 263l-163 -263h-123l213 334h146zM320 0h-164v1000h164v-1000z" />
    <glyph glyph-name="idieresis" unicode="&#xef;" horiz-adv-x="475" 
d="M320 0h-165v1000h165v-1000zM458 1248q-40 0 -65 25t-25 65t25 65t65 25t64.5 -25t24.5 -65t-24.5 -65t-64.5 -25zM18 1248q-40 0 -65 25t-25 65t25 65t65 25t65 -25t25 -65t-25 -65t-65 -25z" />
    <glyph glyph-name="eth" unicode="&#xf0;" horiz-adv-x="1155" 
d="M1003 1290l-193 -79q128 -151 199 -329t71 -360q0 -168 -59.5 -292t-168 -192t-256.5 -68q-142 0 -253 62t-174.5 169.5t-63.5 245.5q0 131 58 232.5t160 159.5t233 58q109 0 199.5 -42t151.5 -116q-34 109 -96.5 214t-146.5 198l-351 -145l-31 75l322 132
q-50 48 -105 91.5t-116 80.5l82 115q82 -47 154 -104.5t134 -121.5l219 90zM588 125q87 0 156.5 42.5t109.5 115t40 163.5t-40 161t-109.5 110.5t-159.5 40.5q-88 0 -155.5 -39.5t-106 -108.5t-38.5 -160q0 -92 39.5 -166t108.5 -116.5t155 -42.5z" />
    <glyph glyph-name="ntilde" unicode="&#xf1;" 
d="M942 1447q-8 -98 -57 -151.5t-131 -53.5q-52 0 -88.5 19t-75.5 50q-28 23 -57.5 40t-67.5 17q-99 0 -116 -116h-74q18 205 188 205q59 0 98.5 -22t72.5 -47q29 -22 58 -38.5t66 -16.5q94 0 111 114h73zM1091 0h-164v558q0 142 -81 227t-215 85q-139 0 -225.5 -91.5
t-86.5 -240.5v-538h-164v1000h143l6 -162q55 88 145 135t212 47q199 0 314.5 -120t115.5 -329v-571z" />
    <glyph glyph-name="ograve" unicode="&#xf2;" horiz-adv-x="1195" 
d="M674 1166h-119l-194 334h156zM599 -20q-149 0 -268 68t-187.5 186t-68.5 266q0 149 68.5 266.5t187.5 185.5t268 68t267 -68t186 -185.5t68 -266.5q0 -148 -68 -266t-186 -186t-267 -68zM598 128q101 0 181 49t126.5 133.5t46.5 190.5t-46.5 190t-126.5 133t-181 49
t-181.5 -49t-127 -133t-46.5 -190t46.5 -190.5t127 -133.5t181.5 -49z" />
    <glyph glyph-name="oacute" unicode="&#xf3;" horiz-adv-x="1195" 
d="M640 1166h-119l157 334h157zM599 -20q-149 0 -268 68t-187.5 186t-68.5 266q0 149 68.5 266.5t187.5 185.5t268 68t267 -68t186 -185.5t68 -266.5q0 -148 -68 -266t-186 -186t-267 -68zM598 128q101 0 181 49t126.5 133.5t46.5 190.5t-46.5 190t-126.5 133t-181 49
t-181.5 -49t-127 -133t-46.5 -190t46.5 -190.5t127 -133.5t181.5 -49z" />
    <glyph glyph-name="ocircumflex" unicode="&#xf4;" horiz-adv-x="1195" 
d="M884 1166h-123l-163 263l-162 -263h-123l213 334h145zM599 -20q-149 0 -268 68t-187.5 186t-68.5 266q0 149 68.5 266.5t187.5 185.5t268 68t267 -68t186 -185.5t68 -266.5q0 -148 -68 -266t-186 -186t-267 -68zM598 128q101 0 181 49t126.5 133.5t46.5 190.5t-46.5 190
t-126.5 133t-181 49t-181.5 -49t-127 -133t-46.5 -190t46.5 -190.5t127 -133.5t181.5 -49z" />
    <glyph glyph-name="otilde" unicode="&#xf5;" horiz-adv-x="1195" 
d="M930 1447q-8 -98 -57 -151.5t-131 -53.5q-52 0 -88.5 19t-75.5 50q-28 23 -57.5 40t-67.5 17q-99 0 -116 -116h-74q18 205 188 205q59 0 98.5 -22t72.5 -47q29 -22 58 -38.5t66 -16.5q94 0 111 114h73zM599 -20q-149 0 -268 68t-187.5 186t-68.5 266q0 149 68.5 266.5
t187.5 185.5t268 68t267 -68t186 -185.5t68 -266.5q0 -148 -68 -266t-186 -186t-267 -68zM598 128q101 0 181 49t126.5 133.5t46.5 190.5t-46.5 190t-126.5 133t-181 49t-181.5 -49t-127 -133t-46.5 -190t46.5 -190.5t127 -133.5t181.5 -49z" />
    <glyph glyph-name="odieresis" unicode="&#xf6;" horiz-adv-x="1195" 
d="M599 -20q-149 0 -268 68t-187.5 185.5t-68.5 266.5q0 148 68.5 265.5t187.5 186t268 68.5t267 -68.5t186 -186t68 -265.5q0 -149 -68 -266.5t-186 -185.5t-267 -68zM598 128q101 0 181 49t126.5 133t46.5 190t-46.5 190t-126.5 133t-181 49t-181.5 -49t-127 -133
t-46.5 -190t46.5 -190t127 -133t181.5 -49zM818 1248q-40 0 -65 25t-25 65t25 65t65 25t64.5 -25t24.5 -65t-24.5 -65t-64.5 -25zM378 1248q-40 0 -65 25t-25 65t25 65t65 25t65 -25t25 -65t-25 -65t-65 -25z" />
    <glyph glyph-name="divide" unicode="&#xf7;" horiz-adv-x="1110" 
d="M555 780q-43 0 -71 28.5t-28 70.5t28 71.5t71 29.5q42 0 71.5 -29.5t29.5 -71.5t-29.5 -70.5t-71.5 -28.5zM955 416h-800v128h800v-128zM555 -20q-42 0 -70.5 29t-28.5 71q0 41 28.5 70.5t70.5 29.5t71 -29.5t29 -70.5q0 -42 -29 -71t-71 -29z" />
    <glyph glyph-name="oslash" unicode="&#xf8;" horiz-adv-x="1195" 
d="M416 -76l-93 36l31 76q-127 63 -203 185t-76 279q0 149 68.5 266.5t187.5 185.5t268 68q41 0 79 -5t74 -16l27 65l93 -37l-26 -64q125 -64 199.5 -186t74.5 -277q0 -148 -68 -266t-186 -186t-267 -68q-40 0 -78 5t-74 15zM413 179l282 681q-49 13 -97 13
q-101 0 -181.5 -49t-127 -133t-46.5 -190t46 -190t124 -132zM598 128q101 0 181.5 49t127 133.5t46.5 190.5q0 104 -45.5 187t-121.5 131l-281 -679q45 -12 93 -12z" />
    <glyph glyph-name="ugrave" unicode="&#xf9;" 
d="M709 1166h-119l-194 334h156zM1071 0h-144l-6 162q-55 -88 -144.5 -135t-211.5 -47q-199 0 -314.5 120.5t-115.5 329.5v570h164v-558q0 -142 80.5 -227t214.5 -85q140 0 226.5 92t86.5 240v538h164v-1000z" />
    <glyph glyph-name="uacute" unicode="&#xfa;" 
d="M555 1166h-119l156 334h157zM1071 0h-144l-6 162q-55 -88 -144.5 -135t-211.5 -47q-199 0 -314.5 120.5t-115.5 329.5v570h164v-558q0 -142 80.5 -227t214.5 -85q140 0 226.5 92t86.5 240v538h164v-1000z" />
    <glyph glyph-name="ucircumflex" unicode="&#xfb;" 
d="M878 1166h-123l-163 263l-162 -263h-123l213 334h145zM1071 0h-144l-6 162q-55 -88 -144.5 -135t-211.5 -47q-199 0 -314.5 120.5t-115.5 329.5v570h164v-558q0 -142 80.5 -227t214.5 -85q140 0 226.5 92t86.5 240v538h164v-1000z" />
    <glyph glyph-name="udieresis" unicode="&#xfc;" 
d="M1071 0h-144l-6 162q-55 -88 -144.5 -135t-211.5 -47q-199 0 -314.5 120.5t-115.5 329.5v570h164v-558q0 -142 80.5 -227t214.5 -85q140 0 226.5 92t86.5 240v538h164v-1000zM834 1248q-40 0 -65 25t-25 65t25 65t65 25t64.5 -25t24.5 -65t-24.5 -65t-64.5 -25zM394 1248
q-40 0 -65 25t-25 65t25 65t65 25t65 -25t25 -65t-25 -65t-65 -25z" />
    <glyph glyph-name="yacute" unicode="&#xfd;" horiz-adv-x="1177" 
d="M625 1166h-119l157 334h157zM502 -500h-178l210 508l-479 992h181l376 -803l333 803h177z" />
    <glyph glyph-name="thorn" unicode="&#xfe;" horiz-adv-x="1285" 
d="M319 -500h-164v2000h164v-704q64 104 169.5 164t235.5 60q139 0 249 -68t173.5 -185.5t63.5 -266.5q0 -148 -63.5 -266t-173 -186t-248.5 -68q-130 0 -235.5 61t-170.5 164v-705zM681 128q103 0 184.5 48.5t129 132.5t47.5 190q0 107 -47.5 191.5t-129 133.5t-184.5 49
q-99 0 -178.5 -45t-128 -123t-55.5 -178v-55q7 -99 55.5 -177t128 -122.5t178.5 -44.5z" />
    <glyph glyph-name="ydieresis" unicode="&#xff;" horiz-adv-x="1177" 
d="M502 -500h-179l210 508l-478 992h181l376 -803l332 803h178zM829 1248q-40 0 -65 25t-25 65t25 65t65 25t64.5 -25t24.5 -65t-24.5 -65t-64.5 -25zM389 1248q-40 0 -65 25t-25 65t25 65t65 25t65 -25t25 -65t-25 -65t-65 -25z" />
    <glyph glyph-name="Amacron" unicode="&#x100;" horiz-adv-x="1513" 
d="M1076 1792h-649v100h649v-100zM230 0h-185l616 1500h191l616 -1500h-186l-163 405h-726zM456 561h601l-301 749z" />
    <glyph glyph-name="amacron" unicode="&#x101;" horiz-adv-x="1097" 
d="M874 1292h-650v100h650v-100zM962 0h-141l-11 132q-55 -71 -140 -111.5t-190 -40.5q-108 0 -193 42.5t-133.5 116.5t-48.5 168q0 99 52.5 174.5t143 118.5t205.5 43q75 0 153 -18.5t139 -50.5v42q0 80 -40 136.5t-107 87t-148 30.5q-70 0 -143 -25.5t-140 -78.5l-54 141
q87 56 183 84.5t190 28.5q130 0 224.5 -52.5t146.5 -149t52 -228.5v-590zM506 130q81 0 147.5 36.5t105.5 99t39 141.5v8q-50 43 -117.5 66.5t-141.5 23.5q-115 0 -189.5 -54t-74.5 -137q0 -52 30.5 -94t82.5 -66t118 -24z" />
    <glyph glyph-name="Abreve" unicode="&#x102;" horiz-adv-x="1512" 
d="M1065 2000q0 -91 -39.5 -162t-109.5 -112t-160 -41t-159.5 41t-109.5 112t-40 162h103q0 -100 57.5 -163.5t148.5 -63.5t149 63.5t58 163.5h102zM230 0h-185l616 1500h191l615 -1500h-185l-163 405h-726zM455 561h602l-301 749z" />
    <glyph glyph-name="abreve" unicode="&#x103;" horiz-adv-x="1097" 
d="M858 1500q0 -91 -39.5 -162t-109.5 -112t-160 -41t-160 41t-109.5 112t-39.5 162h103q0 -100 57.5 -163.5t148.5 -63.5t149 63.5t58 163.5h102zM962 0h-141l-11 132q-55 -71 -140 -111.5t-190 -40.5q-108 0 -193 42.5t-133.5 116.5t-48.5 168q0 99 52.5 174.5t143 118.5
t205.5 43q75 0 153 -18.5t139 -50.5v42q0 80 -40 136.5t-107 87t-148 30.5q-70 0 -143 -25.5t-140 -78.5l-54 141q87 56 183 84.5t190 28.5q130 0 224.5 -52.5t146.5 -149t52 -228.5v-590zM506 130q81 0 147.5 36.5t105.5 99t39 141.5v8q-50 43 -117.5 66.5t-141.5 23.5
q-115 0 -189.5 -54t-74.5 -137q0 -52 30.5 -94t82.5 -66t118 -24z" />
    <glyph glyph-name="Aogonek" unicode="&#x104;" horiz-adv-x="1512" 
d="M230 0h-185l616 1500h191l615 -1500h-39q-71 -32 -114.5 -91t-43.5 -115q0 -47 34 -81t101 -39l-11 -90q-101 0 -158.5 51t-57.5 127q0 71 50.5 135.5t136.5 102.5h-83l-163 405h-726zM455 561h602l-301 749z" />
    <glyph glyph-name="aogonek" unicode="&#x105;" horiz-adv-x="1097" 
d="M962 0h-18q-71 -32 -115 -91t-44 -115q0 -47 34 -81t101 -39l-10 -90q-101 0 -158.5 51t-57.5 127q0 71 50 135.5t136 102.5h-59l-11 132q-55 -71 -140 -111.5t-190 -40.5q-108 0 -193 42.5t-133.5 116.5t-48.5 168q0 99 52.5 174.5t143 118.5t205.5 43q75 0 153 -18.5
t139 -50.5v42q0 80 -40 136.5t-107 87t-148 30.5q-70 0 -143 -25.5t-140 -78.5l-54 141q87 56 183 84.5t190 28.5q130 0 224.5 -52.5t146.5 -149t52 -228.5v-590zM506 130q81 0 147.5 36.5t105.5 99t39 141.5v8q-50 43 -117.5 66.5t-141.5 23.5q-115 0 -189.5 -54
t-74.5 -137q0 -52 30.5 -94t82.5 -66t118 -24z" />
    <glyph glyph-name="Cacute" unicode="&#x106;" horiz-adv-x="1529" 
d="M886 1666h-119l156 334h157zM1424 192q-103 -104 -246 -163t-312 -59t-311.5 58t-248 163.5t-163.5 248t-58 310.5q0 169 58 311.5t163.5 247.5t248 163t311.5 58q168 0 311 -58.5t246 -162.5l-123 -125q-80 89 -192 139.5t-245 50.5q-129 0 -238 -46.5t-190 -131
t-125.5 -198.5t-44.5 -248q0 -135 44.5 -248.5t125.5 -198t190 -131t238 -46.5q133 0 244.5 50.5t191.5 139.5z" />
    <glyph glyph-name="cacute" unicode="&#x107;" horiz-adv-x="1061" 
d="M613 1166h-119l157 334h157zM986 144q-73 -79 -173 -121.5t-215 -42.5q-149 0 -267.5 68t-187 186t-68.5 266q0 149 68.5 266.5t187 185.5t267.5 68q114 0 214 -42t173 -121l-98 -103q-53 56 -126.5 86t-155.5 30q-105 0 -186.5 -47.5t-128 -130.5t-46.5 -191t46.5 -192
t128 -131.5t186.5 -47.5q82 0 156 30.5t126 85.5z" />
    <glyph glyph-name="Ccircumflex" unicode="&#x108;" horiz-adv-x="1529" 
d="M1139 1666h-123l-162 263l-163 -263h-122l212 334h146zM1424 192q-103 -104 -246 -163t-312 -59t-311.5 58t-248 163.5t-163.5 248t-58 310.5q0 169 58 311.5t163.5 247.5t248 163t311.5 58q168 0 311 -58.5t246 -162.5l-123 -125q-80 89 -192 139.5t-245 50.5
q-129 0 -238 -46.5t-190 -131t-125.5 -198.5t-44.5 -248q0 -135 44.5 -248.5t125.5 -198t190 -131t238 -46.5q133 0 244.5 50.5t191.5 139.5z" />
    <glyph glyph-name="ccircumflex" unicode="&#x109;" horiz-adv-x="1061" 
d="M857 1166h-123l-163 263l-162 -263h-123l213 334h145zM986 144q-73 -79 -173 -121.5t-215 -42.5q-149 0 -267.5 68t-187 186t-68.5 266q0 149 68.5 266.5t187 185.5t267.5 68q114 0 214 -42t173 -121l-98 -103q-53 56 -126.5 86t-155.5 30q-105 0 -186.5 -47.5
t-128 -130.5t-46.5 -191t46.5 -192t128 -131.5t186.5 -47.5q82 0 156 30.5t126 85.5z" />
    <glyph glyph-name="Cdotaccent" unicode="&#x10a;" horiz-adv-x="1528" 
d="M1423 192q-103 -104 -246 -163t-312 -59t-311.5 58t-247.5 163.5t-163 248t-58 310.5q0 169 58 311.5t163 247.5t247.5 163t311.5 58q168 0 311 -58.5t246 -162.5l-123 -125q-80 89 -192 139.5t-245 50.5q-129 0 -238 -46.5t-189.5 -131t-125 -198.5t-44.5 -248
q0 -135 44.5 -248.5t125 -198t189.5 -131t238 -46.5q133 0 245 50.5t192 139.5zM839 1736q-40 0 -64.5 25t-24.5 66q0 39 24.5 64t64.5 25t65.5 -25t25.5 -64q0 -41 -25.5 -66t-65.5 -25z" />
    <glyph glyph-name="cdotaccent" unicode="&#x10b;" horiz-adv-x="1061" 
d="M986 144q-73 -79 -173 -121.5t-215 -42.5q-149 0 -267.5 68t-187 186t-68.5 266q0 149 68.5 266.5t187 185.5t267.5 68q114 0 214 -42t173 -121l-98 -103q-53 56 -126.5 86t-155.5 30q-105 0 -186.5 -47.5t-128 -130.5t-46.5 -191t46.5 -192t128 -131.5t186.5 -47.5
q82 0 156 30.5t126 85.5zM600 1236q-40 0 -64.5 25t-24.5 66q0 39 24.5 64t64.5 25t65.5 -25t25.5 -64q0 -41 -25.5 -66t-65.5 -25z" />
    <glyph glyph-name="Ccaron" unicode="&#x10c;" horiz-adv-x="1529" 
d="M926 1666h-146l-212 334h123l162 -263l163 263h122zM1424 192q-103 -104 -246 -163t-312 -59t-311.5 58t-248 163.5t-163.5 248t-58 310.5q0 169 58 311.5t163.5 247.5t248 163t311.5 58q168 0 311 -58.5t246 -162.5l-123 -125q-80 89 -192 139.5t-245 50.5
q-129 0 -238 -46.5t-190 -131t-125.5 -198.5t-44.5 -248q0 -135 44.5 -248.5t125.5 -198t190 -131t238 -46.5q133 0 244.5 50.5t191.5 139.5z" />
    <glyph glyph-name="ccaron" unicode="&#x10d;" horiz-adv-x="1061" 
d="M673 1166h-145l-212 334h123l162 -263l162 263h123zM986 144q-73 -79 -173 -121.5t-215 -42.5q-149 0 -267.5 68t-187 186t-68.5 266q0 149 68.5 266.5t187 185.5t267.5 68q114 0 214 -42t173 -121l-98 -103q-53 56 -126.5 86t-155.5 30q-105 0 -186.5 -47.5t-128 -130.5
t-46.5 -191t46.5 -192t128 -131.5t186.5 -47.5q82 0 156 30.5t126 85.5z" />
    <glyph glyph-name="Dcaron" unicode="&#x10e;" horiz-adv-x="1559" 
d="M787 1666h-146l-212 334h123l162 -263l163 263h122zM155 0v1500h433q276 0 474.5 -90t305 -258t106.5 -402q0 -233 -106.5 -401.5t-305 -258.5t-474.5 -90h-433zM331 156h265q221 0 377 70t238.5 203t82.5 321t-82.5 321t-238.5 203t-377 70h-265v-1188z" />
    <glyph glyph-name="dcaron" unicode="&#x10f;" horiz-adv-x="1653" 
d="M1428 1070h-97l101 450h121zM1131 0h-146l-9 146q-70 -77 -168.5 -121.5t-216.5 -44.5q-147 0 -264 68t-184.5 186t-67.5 266q0 149 67.5 266.5t184.5 185.5t264 68q113 0 209.5 -41t166.5 -114v635h164v-1500zM605 128q101 0 182.5 46.5t130 127t48.5 182.5v34
q0 102 -48.5 182.5t-130 126.5t-182.5 46q-103 0 -185 -49t-129.5 -133t-47.5 -190t47.5 -190.5t129.5 -133.5t185 -49z" />
    <glyph glyph-name="Dcroat" unicode="&#x110;" horiz-adv-x="1603" 
d="M200 0v683h-175v129h175v688h432q276 0 474.5 -90t305 -258t106.5 -402q0 -233 -106.5 -401.5t-305 -258.5t-474.5 -90h-432zM825 683h-449v-527h264q221 0 377 70t238.5 203t82.5 321t-82.5 321t-238.5 203t-377 70h-264v-532h449v-129z" />
    <glyph glyph-name="dcroat" unicode="&#x111;" horiz-adv-x="1285" 
d="M1131 0h-146l-9 146q-70 -77 -168.5 -121.5t-216.5 -44.5q-147 0 -264 68t-184.5 186t-67.5 266q0 149 67.5 266.5t184.5 185.5t264 68q113 0 209.5 -41t166.5 -114v327h-376v100h376v208h164v-208h109v-100h-109v-1192zM605 128q101 0 182.5 46.5t130 127t48.5 182.5v34
q0 102 -48.5 182.5t-130 126.5t-182.5 46q-103 0 -185 -49t-129.5 -133t-47.5 -190t47.5 -190.5t129.5 -133.5t185 -49z" />
    <glyph glyph-name="Emacron" unicode="&#x112;" horiz-adv-x="1229" 
d="M945 1792h-649v100h649v-100zM155 0v1500h919v-156h-743v-504h702v-156h-702v-528h753v-156h-929z" />
    <glyph glyph-name="emacron" unicode="&#x113;" horiz-adv-x="1165" 
d="M1032 123q-186 -143 -410 -143q-156 0 -280 70t-195.5 190.5t-71.5 272.5q0 146 66 260.5t181 180.5t261 66q150 0 264.5 -72t178.5 -200t64 -296v-32h-837q18 -88 72 -153t135.5 -101t181.5 -36q172 0 314 113zM247 560h688q-11 93 -57.5 162.5t-120 108.5t-165.5 39
q-93 0 -167.5 -39t-121 -108.5t-56.5 -162.5zM907 1292h-649v100h649v-100z" />
    <glyph glyph-name="Ebreve" unicode="&#x114;" horiz-adv-x="1229" 
d="M929 2000q0 -91 -39.5 -162t-109.5 -112t-160 -41t-160 41t-109.5 112t-39.5 162h102q0 -100 58 -163.5t149 -63.5t148.5 63.5t57.5 163.5h103zM155 0v1500h919v-156h-743v-504h702v-156h-702v-528h753v-156h-929z" />
    <glyph glyph-name="ebreve" unicode="&#x115;" horiz-adv-x="1165" 
d="M1032 123q-186 -143 -410 -143q-156 0 -280 70t-195.5 190.5t-71.5 272.5q0 146 66 260.5t181 180.5t261 66q150 0 264.5 -72t178.5 -200t64 -296v-32h-837q18 -88 72 -153t135.5 -101t181.5 -36q172 0 314 113zM247 560h688q-11 93 -57.5 162.5t-120 108.5t-165.5 39
q-93 0 -167.5 -39t-121 -108.5t-56.5 -162.5zM892 1500q0 -91 -39.5 -162t-109.5 -112t-160 -41t-159.5 41t-109.5 112t-40 162h102q0 -100 58 -163.5t149 -63.5t148.5 63.5t57.5 163.5h103z" />
    <glyph glyph-name="Edotaccent" unicode="&#x116;" horiz-adv-x="1229" 
d="M155 0v1500h919v-156h-743v-504h702v-156h-702v-528h753v-156h-929zM614 1736q-40 0 -64.5 25t-24.5 66q0 39 24.5 64t64.5 25t65.5 -25t25.5 -64q0 -41 -25.5 -66t-65.5 -25z" />
    <glyph glyph-name="edotaccent" unicode="&#x117;" horiz-adv-x="1165" 
d="M1032 123q-186 -143 -410 -143q-156 0 -280 70t-195.5 190.5t-71.5 272.5q0 146 66 260.5t181 180.5t261 66q150 0 264.5 -72t178.5 -200t64 -296v-32h-837q18 -88 72 -153t135.5 -101t181.5 -36q172 0 314 113zM247 560h688q-11 93 -57.5 162.5t-120 108.5t-165.5 39
q-93 0 -167.5 -39t-121 -108.5t-56.5 -162.5zM602 1236q-40 0 -64.5 25t-24.5 66q0 39 24.5 64t64.5 25t65.5 -25t25.5 -64q0 -41 -25.5 -66t-65.5 -25z" />
    <glyph glyph-name="Eogonek" unicode="&#x118;" horiz-adv-x="1229" 
d="M155 0v1500h919v-156h-743v-504h702v-156h-702v-528h753v-156h-19q-71 -32 -115 -91t-44 -115q0 -47 34 -81t101 -39l-11 -90q-101 0 -158 51t-57 127q0 71 50 135.5t136 102.5h-846z" />
    <glyph glyph-name="eogonek" unicode="&#x119;" horiz-adv-x="1165" 
d="M1032 123q-54 -42 -114.5 -69.5t-121.5 -49.5q-77 -27 -122.5 -89.5t-45.5 -120.5q0 -47 34 -81t101 -39l-10 -90q-101 0 -158.5 51t-57.5 127q0 64 40.5 123t112.5 99q-34 -4 -68 -4q-156 0 -280 70t-195.5 190.5t-71.5 272.5q0 146 66 260.5t180.5 180.5t260.5 66
q150 0 264.5 -72t179 -200t64.5 -296v-32h-837q18 -88 72 -153t134.5 -101t179.5 -36q175 0 317 113zM247 560h688q-11 93 -57.5 162.5t-120 108.5t-166.5 39t-167 -39t-120.5 -108.5t-56.5 -162.5z" />
    <glyph glyph-name="Ecaron" unicode="&#x11a;" horiz-adv-x="1229" 
d="M706 1666h-146l-212 334h123l162 -263l162 263h123zM155 0v1500h919v-156h-743v-504h702v-156h-702v-528h753v-156h-929z" />
    <glyph glyph-name="ecaron" unicode="&#x11b;" horiz-adv-x="1165" 
d="M1032 123q-186 -143 -410 -143q-156 0 -280 70t-195.5 190.5t-71.5 272.5q0 146 66 260.5t181 180.5t261 66q150 0 264.5 -72t178.5 -200t64 -296v-32h-837q18 -88 72 -153t135.5 -101t181.5 -36q172 0 314 113zM247 560h688q-11 93 -57.5 162.5t-120 108.5t-165.5 39
q-93 0 -167.5 -39t-121 -108.5t-56.5 -162.5zM655 1166h-145l-213 334h123l162 -263l163 263h123z" />
    <glyph glyph-name="Gcircumflex" unicode="&#x11c;" horiz-adv-x="1667" 
d="M1138 1666h-123l-162 263l-163 -263h-122l212 334h146zM1291 1207q-83 81 -195 124t-237 43q-130 0 -239 -45.5t-188.5 -129t-123 -197.5t-43.5 -251q0 -136 43 -250.5t121 -198.5t185 -130t235 -46q118 0 217.5 39.5t175 112t122 173t57.5 221.5h-550v139h706l5 -65
q0 -171 -53.5 -313t-151.5 -246t-232 -160.5t-295 -56.5q-165 0 -304.5 58.5t-243 163.5t-160.5 246.5t-57 308.5q0 168 58 311t162 249t245 164.5t307 58.5q157 0 298.5 -54t251.5 -155z" />
    <glyph glyph-name="gcircumflex" unicode="&#x11d;" horiz-adv-x="1257" 
d="M914 1166h-123l-163 263l-162 -263h-123l213 334h145zM580 0q-144 0 -258.5 67t-180.5 182.5t-66 260.5q0 146 66 261t180.5 182t259.5 67q116 0 213 -43.5t165 -120.5l8 144h145v-974q0 -168 -66 -290.5t-188 -189t-290 -66.5q-238 0 -414 158l72 132q137 -142 335 -142
q119 0 205.5 49.5t134 139.5t47.5 213v123q-68 -71 -162.5 -112t-205.5 -41zM594 145q98 0 178 44.5t128 122t48 175.5v46q0 99 -48 176t-128 121.5t-178 44.5q-101 0 -181 -48t-126.5 -130.5t-46.5 -186.5t46.5 -187t126.5 -130.5t181 -47.5z" />
    <glyph glyph-name="Gbreve" unicode="&#x11e;" horiz-adv-x="1667" 
d="M1152 2000q0 -91 -39.5 -162t-109.5 -112t-160 -41t-159.5 41t-109.5 112t-40 162h103q0 -100 57.5 -163.5t148.5 -63.5t149 63.5t58 163.5h102zM1291 1207q-83 81 -195 124t-237 43q-130 0 -239 -45.5t-188.5 -129t-123 -197.5t-43.5 -251q0 -136 43 -250.5t121 -198.5
t185 -130t235 -46q118 0 217.5 39.5t175 112t122 173t57.5 221.5h-550v139h706l5 -65q0 -171 -53.5 -313t-151.5 -246t-232 -160.5t-295 -56.5q-165 0 -304.5 58.5t-243 163.5t-160.5 246.5t-57 308.5q0 168 58 311t162 249t245 164.5t307 58.5q157 0 298.5 -54t251.5 -155z
" />
    <glyph glyph-name="gbreve" unicode="&#x11f;" horiz-adv-x="1257" 
d="M937 1500q0 -91 -39.5 -162t-109 -112t-159.5 -41t-160 41t-109.5 112t-39.5 162h102q0 -100 58 -163.5t149 -63.5t148.5 63.5t57.5 163.5h102zM580 0q-144 0 -258.5 67t-180.5 182.5t-66 260.5q0 146 66 261t180.5 182t259.5 67q116 0 213 -43.5t165 -120.5l8 144h145
v-974q0 -168 -66 -290.5t-188 -189t-290 -66.5q-238 0 -414 158l72 132q137 -142 335 -142q119 0 205.5 49.5t134 139.5t47.5 213v123q-68 -71 -162.5 -112t-205.5 -41zM594 145q98 0 178 44.5t128 122t48 175.5v46q0 99 -48 176t-128 121.5t-178 44.5q-101 0 -181 -48
t-126.5 -130.5t-46.5 -186.5t46.5 -187t126.5 -130.5t181 -47.5z" />
    <glyph glyph-name="Gdotaccent" unicode="&#x120;" horiz-adv-x="1667" 
d="M1291 1207q-83 81 -195 124t-237 43q-130 0 -239 -45.5t-188.5 -129t-123 -197.5t-43.5 -251q0 -136 43 -250.5t121 -198.5t185 -130t235 -46q118 0 217.5 39.5t175 112t122 173t57.5 221.5h-550v139h706l5 -65q0 -171 -53.5 -313t-151.5 -246t-232 -160.5t-295 -56.5
q-165 0 -304.5 58.5t-243 163.5t-160.5 246.5t-57 308.5q0 168 58 311t162 249t245 164.5t307 58.5q157 0 298.5 -54t251.5 -155zM853 1736q-40 0 -64.5 25t-24.5 66q0 39 24.5 64t64.5 25t65.5 -25t25.5 -64q0 -41 -25.5 -66t-65.5 -25z" />
    <glyph glyph-name="gdotaccent" unicode="&#x121;" horiz-adv-x="1257" 
d="M580 0q-144 0 -258.5 67t-180.5 182.5t-66 260.5q0 146 66 261t180.5 182t259.5 67q116 0 213 -43.5t165 -120.5l8 144h145v-974q0 -168 -66 -290.5t-188 -189t-290 -66.5q-238 0 -414 158l72 132q137 -142 335 -142q119 0 205.5 49.5t134 139.5t47.5 213v123
q-68 -71 -162.5 -112t-205.5 -41zM594 145q98 0 178 44.5t128 122t48 175.5v46q0 99 -48 176t-128 121.5t-178 44.5q-101 0 -181 -48t-126.5 -130.5t-46.5 -186.5t46.5 -187t126.5 -130.5t181 -47.5zM623 1236q-40 0 -64.5 25t-24.5 66q0 39 24.5 64t64.5 25t65.5 -25
t25.5 -64q0 -41 -25.5 -66t-65.5 -25z" />
    <glyph glyph-name="uni0122" unicode="&#x122;" horiz-adv-x="1667" 
d="M1291 1207q-83 81 -195 124t-237 43q-130 0 -239 -45.5t-188.5 -129t-123 -197.5t-43.5 -251q0 -136 43 -250.5t121 -198.5t185 -130t235 -46q118 0 217.5 39.5t175 112t122 173t57.5 221.5h-550v139h706l5 -65q0 -171 -53.5 -313t-151.5 -246t-232 -160.5t-295 -56.5
q-165 0 -304.5 58.5t-243 163.5t-160.5 246.5t-57 308.5q0 168 58 311t162 249t245 164.5t307 58.5q157 0 298.5 -54t251.5 -155zM776 -476l-51 51q54 38 83.5 99t29.5 126q0 66 -29 118l110 26q22 -60 22 -127q0 -94 -44.5 -173.5t-120.5 -119.5z" />
    <glyph glyph-name="uni0123" unicode="&#x123;" horiz-adv-x="1257" 
d="M643 1170h-130l125 450h106zM580 0q-144 0 -258.5 67t-180.5 182.5t-66 260.5q0 146 66 261t180.5 182t259.5 67q116 0 213 -43.5t165 -120.5l8 144h145v-974q0 -168 -66 -290.5t-188 -189t-290 -66.5q-238 0 -414 158l72 132q137 -142 335 -142q119 0 205.5 49.5
t134 139.5t47.5 213v123q-68 -71 -162.5 -112t-205.5 -41zM594 145q98 0 178 44.5t128 122t48 175.5v46q0 99 -48 176t-128 121.5t-178 44.5q-101 0 -181 -48t-126.5 -130.5t-46.5 -186.5t46.5 -187t126.5 -130.5t181 -47.5z" />
    <glyph glyph-name="Hcircumflex" unicode="&#x124;" horiz-adv-x="1499" 
d="M1036 1666h-123l-163 263l-162 -263h-123l213 334h145zM331 0h-176v1500h176v-682h837v682h176v-1500h-176v662h-837v-662z" />
    <glyph glyph-name="hcircumflex" unicode="&#x125;" horiz-adv-x="1227" 
d="M522 1666h-123l-162 263l-163 -263h-123l213 334h146zM156 0v1500h164v-650q113 170 350 170q199 0 310.5 -118.5t111.5 -330.5v-571h-164v533q0 161 -79.5 250.5t-221.5 89.5q-143 0 -225 -91t-82 -249v-533h-164z" />
    <glyph glyph-name="Hbar" unicode="&#x126;" horiz-adv-x="1530" 
d="M1515 1108h-156v-1108h-176v662h-837v-662h-176v1108h-155v101h155v291h176v-291h837v291h176v-291h156v-101zM346 818h837v290h-837v-290z" />
    <glyph glyph-name="hbar" unicode="&#x127;" horiz-adv-x="1231" 
d="M675 1194h-351v-344q113 170 350 170q199 0 310.5 -118.5t111.5 -330.5v-571h-164v533q0 161 -79 250.5t-221 89.5q-143 0 -225.5 -91t-82.5 -249v-533h-164v1194h-145v101h145v205h164v-205h351v-101z" />
    <glyph glyph-name="Itilde" unicode="&#x128;" horiz-adv-x="487" 
d="M577 1947h-73q-17 -114 -111 -114q-37 0 -66 16.5t-58 38.5q-33 25 -72.5 47t-98.5 22q-170 0 -188 -205h74q17 116 116 116q38 0 67.5 -17t57.5 -40q39 -31 75.5 -50t88.5 -19q82 0 131 53.5t57 151.5zM331 1500h-176v-1500h176v1500z" />
    <glyph glyph-name="itilde" unicode="&#x129;" horiz-adv-x="475" 
d="M571 1447q-8 -98 -57 -151.5t-131 -53.5q-52 0 -88.5 19t-75.5 50q-28 23 -57.5 40t-67.5 17q-99 0 -116 -116h-74q18 205 188 205q59 0 98.5 -22t72.5 -47q29 -22 58 -38.5t66 -16.5q94 0 111 114h73zM320 0h-165v1000h165v-1000z" />
    <glyph glyph-name="Imacron" unicode="&#x12a;" horiz-adv-x="487" 
d="M568 1792v100h-649v-100h649zM332 1500h-176v-1500h176v1500z" />
    <glyph glyph-name="imacron" unicode="&#x12b;" horiz-adv-x="475" 
d="M562 1292h-649v100h649v-100zM320 0h-165v1000h165v-1000z" />
    <glyph glyph-name="Iogonek" unicode="&#x12e;" horiz-adv-x="487" 
d="M332 1500h-176v-1500h95q-86 -38 -136 -102.5t-50 -135.5q0 -76 57.5 -127t158.5 -51l11 90q-67 5 -101 39t-34 81q0 56 43.5 115t114.5 91h17v1500z" />
    <glyph glyph-name="iogonek" unicode="&#x12f;" horiz-adv-x="483" 
d="M241 1316q-42 0 -70.5 29.5t-28.5 71.5q0 41 28.5 70t70.5 29q43 0 72 -29t29 -70q0 -42 -29 -71.5t-72 -29.5zM323 0h-31q-71 -32 -115 -90.5t-44 -115.5q0 -47 34 -81t101 -39l-10 -90q-101 0 -158.5 51t-57.5 127q0 72 50 136t136 102h-69v1000h164v-1000z" />
    <glyph glyph-name="Idotaccent" unicode="&#x130;" horiz-adv-x="486" 
d="M331 1500h-176v-1500h176v1500zM243 1736q-40 0 -64.5 25t-24.5 66q0 39 24.5 64t64.5 25t65.5 -25t25.5 -64q0 -41 -25.5 -66t-65.5 -25z" />
    <glyph glyph-name="dotlessi" unicode="&#x131;" horiz-adv-x="475" 
d="M320 0h-165v1000h165v-1000z" />
    <glyph glyph-name="IJ" unicode="&#x132;" horiz-adv-x="961" 
d="M331 1500h-176v-1500h176v1500zM276 -383q185 0 302 54t172.5 168t55.5 293v1368h-176v-1376q0 -175 -90 -263.5t-271 -88.5z" />
    <glyph glyph-name="ij" unicode="&#x133;" horiz-adv-x="980" 
d="M241 1316q-42 0 -70.5 29.5t-28.5 71.5q0 41 28.5 70t70.5 29q43 0 72 -29t29 -70q0 -42 -29 -71.5t-72 -29.5zM323 0h-164v1000h164v-1000zM743 1316q-42 0 -70.5 29t-28.5 71t28.5 71t70.5 29t71 -29t29 -71t-29 -71t-71 -29zM370 -507v131q16 -3 30.5 -4t28.5 -1
q104 0 168 74t64 199v1108h165v-1114q0 -194 -89.5 -300t-250.5 -106q-27 0 -56 3.5t-60 9.5z" />
    <glyph glyph-name="Jcircumflex" unicode="&#x134;" horiz-adv-x="498" 
d="M543 1666h-123l-163 263l-163 -263h-122l212 334h146zM-187 -383l-8 155q181 0 271.5 88.5t90.5 263.5v1376h176v-1368q0 -179 -55.5 -293t-172.5 -168t-302 -54z" />
    <glyph glyph-name="jcircumflex" unicode="&#x135;" horiz-adv-x="463" 
d="M509 1166h-123l-163 263l-163 -263h-122l212 334h146zM-148 -507v131q16 -3 30.5 -4t28.5 -1q104 0 168 74t64 199v1108h165v-1114q0 -194 -89.5 -300t-250.5 -106q-27 0 -56 3.5t-60 9.5z" />
    <glyph glyph-name="uni0136" unicode="&#x136;" horiz-adv-x="1376" 
d="M331 0h-176v1500h176v-904q32 47 62.5 88.5t53.5 70.5l592 745h209l-546 -687l659 -813h-229l-544 671l-257 -324v-347zM600 -476l-51 51q54 38 84 99t30 126q0 64 -30 118l110 26q22 -60 22 -127q0 -94 -44.5 -173.5t-120.5 -119.5z" />
    <glyph glyph-name="uni0137" unicode="&#x137;" horiz-adv-x="1146" 
d="M319 0h-164v1500h164v-1056l78 95l435 461h206l-408 -434l471 -566h-213l-372 446l-197 -210v-236zM476 -476l-51 51q54 38 84 99t30 126q0 66 -29 118l109 26q22 -60 22 -127q0 -94 -44.5 -173.5t-120.5 -119.5z" />
    <glyph glyph-name="kgreenlandic" unicode="&#x138;" horiz-adv-x="1146" 
d="M319 0h-164v1000h164v-556l78 95l435 461h206l-408 -434l471 -566h-213l-372 446l-197 -210v-236z" />
    <glyph glyph-name="Lacute" unicode="&#x139;" horiz-adv-x="1150" 
d="M301 1666h-119l156 334h157zM1075 0h-920v1500h176v-1344h744v-156z" />
    <glyph glyph-name="lacute" unicode="&#x13a;" horiz-adv-x="484" 
d="M293 1666h-118l156 334h157zM328 0h-173v1540h173v-1540z" />
    <glyph glyph-name="uni013B" unicode="&#x13b;" horiz-adv-x="1150" 
d="M1075 0h-920v1500h176v-1344h744v-156zM557 -476l-51 51q54 38 83.5 99t29.5 126q0 66 -29 118l110 26q22 -60 22 -127q0 -94 -44.5 -173.5t-120.5 -119.5z" />
    <glyph glyph-name="uni013C" unicode="&#x13c;" horiz-adv-x="483" 
d="M328 0h-173v1540h173v-1540zM187 -476l-51 51q54 38 83.5 99t29.5 126q0 66 -29 118l110 26q22 -60 22 -127q0 -94 -44.5 -173.5t-120.5 -119.5z" />
    <glyph glyph-name="Lcaron" unicode="&#x13d;" horiz-adv-x="1150" 
d="M799 1050h-97l101 450h121zM1075 0h-920v1500h176v-1344h744v-156z" />
    <glyph glyph-name="lcaron" unicode="&#x13e;" horiz-adv-x="778" 
d="M329 0h-174v1540h174v-1540zM638 1063h-97l101 450h121z" />
    <glyph glyph-name="Ldot" unicode="&#x13f;" horiz-adv-x="1150" 
d="M1075 0h-920v1500h176v-1344h744v-156zM752 660q-40 0 -65 25t-25 65t25 65t65 25t65 -25t25 -65t-25 -65t-65 -25z" />
    <glyph glyph-name="ldot" unicode="&#x140;" horiz-adv-x="734" 
d="M328 0h-173v1540h173v-1540zM618 680q-40 0 -65 25t-25 65t25 65t65 25t65.5 -25t25.5 -65t-25.5 -65t-65.5 -25z" />
    <glyph glyph-name="Lslash" unicode="&#x141;" horiz-adv-x="1150" 
d="M-64 495l-50 90l269 155v760h176v-658l283 163l50 -90l-333 -192v-567h744v-156h-920v621z" />
    <glyph glyph-name="lslash" unicode="&#x142;" horiz-adv-x="485" 
d="M-96 515l-51 90l303 174v761h173v-660l252 145l51 -90l-303 -174v-761h-173v660z" />
    <glyph glyph-name="Nacute" unicode="&#x143;" horiz-adv-x="1615" 
d="M882 1666h-119l156 334h157zM1460 0h-187l-942 1225v-1225h-176v1500h185l944 -1225v1225h176v-1500z" />
    <glyph glyph-name="nacute" unicode="&#x144;" 
d="M645 1166h-119l156 334h157zM1091 0h-164v558q0 142 -81 227t-215 85q-139 0 -225.5 -91.5t-86.5 -240.5v-538h-164v1000h143l6 -162q55 88 145 135t212 47q199 0 314.5 -120t115.5 -329v-571z" />
    <glyph glyph-name="uni0145" unicode="&#x145;" horiz-adv-x="1610" 
d="M1445 0h-186l-943 1225v-1225h-176v1500h185l944 -1225v1225h176v-1500zM747 -476l-50 51q54 38 83.5 99t29.5 126q0 66 -29 118l109 26q23 -63 23 -127q0 -94 -45 -173.5t-121 -119.5z" />
    <glyph glyph-name="uni0146" unicode="&#x146;" 
d="M1091 0h-164v558q0 142 -81 227t-215 85q-139 0 -225.5 -91.5t-86.5 -240.5v-538h-164v1000h143l6 -162q55 88 145 135t212 47q199 0 314.5 -120t115.5 -329v-571zM555 -476l-51 51q54 38 84 99t30 126q0 66 -29 118l109 26q23 -63 23 -127q0 -94 -45 -173.5t-121 -119.5
z" />
    <glyph glyph-name="Ncaron" unicode="&#x147;" horiz-adv-x="1615" 
d="M892 1666h-145l-213 334h123l163 -263l162 263h123zM1460 0h-187l-942 1225v-1225h-176v1500h185l944 -1225v1225h176v-1500z" />
    <glyph glyph-name="ncaron" unicode="&#x148;" 
d="M705 1166h-145l-213 334h123l163 -263l162 263h123zM1091 0h-164v558q0 142 -81 227t-215 85q-139 0 -225.5 -91.5t-86.5 -240.5v-538h-164v1000h143l6 -162q55 88 145 135t212 47q199 0 314.5 -120t115.5 -329v-571z" />
    <glyph glyph-name="napostrophe" unicode="&#x149;" 
d="M206 1100l-51 51q54 38 83.5 99t29.5 126q0 66 -29 118l110 26q22 -60 22 -127q0 -94 -44.5 -173.5t-120.5 -119.5zM1091 0h-164v558q0 142 -81 227t-215 85q-139 0 -225.5 -91.5t-86.5 -240.5v-538h-164v1000h143l6 -162q55 88 145 135t212 47q199 0 314.5 -120
t115.5 -329v-571z" />
    <glyph glyph-name="Eng" unicode="&#x14a;" horiz-adv-x="1615" 
d="M931 -360l-8 155q157 0 246 60t103 175q-28 32 -81 96t-115.5 141t-119.5 149t-93 119l-414 536l-118 163h-5l5 -222v-1012h-176v1500h186l613 -796q34 -45 83 -110t99.5 -133t91 -123.5t58.5 -81.5h6l-8 214v1030h176v-1345q0 -179 -55.5 -293t-172.5 -168t-301 -54z
" />
    <glyph glyph-name="eng" unicode="&#x14b;" 
d="M635 -507v131q16 -3 30.5 -4t28.5 -1q104 0 168 74t64 199v685q0 135 -75 214t-205 79q-93 0 -167 -41.5t-117 -116.5t-43 -174v-538h-164v1000h143l6 -162q55 88 152.5 135t219.5 47q191 0 303 -115t112 -310v-709q0 -194 -89.5 -300t-250.5 -106q-27 0 -56 3.5t-60 9.5
z" />
    <glyph glyph-name="Omacron" unicode="&#x14c;" horiz-adv-x="1729" 
d="M1189 1792h-649v100h649v-100zM866 -30q-169 0 -311.5 58t-248 163.5t-163.5 248t-58 310.5q0 169 58 311.5t163.5 247.5t248 163t311.5 58t311 -58t247 -163t162.5 -247.5t57.5 -311.5q0 -168 -57.5 -310.5t-162.5 -248t-247 -163.5t-311 -58zM865 126q129 0 238.5 47
t190.5 131.5t125.5 198t44.5 247.5t-44.5 248t-125.5 198.5t-190.5 131t-238.5 46.5t-238.5 -46.5t-190.5 -131t-126 -198.5t-45 -248t45 -248t126 -198.5t190.5 -131t238.5 -46.5z" />
    <glyph glyph-name="omacron" unicode="&#x14d;" horiz-adv-x="1195" 
d="M923 1292h-649v100h649v-100zM599 -20q-149 0 -268 68t-187.5 186t-68.5 266q0 149 68.5 266.5t187.5 185.5t268 68t267 -68t186 -185.5t68 -266.5q0 -148 -68 -266t-186 -186t-267 -68zM598 128q101 0 181 49t126.5 133.5t46.5 190.5t-46.5 190t-126.5 133t-181 49
t-181.5 -49t-127 -133t-46.5 -190t46.5 -190.5t127 -133.5t181.5 -49z" />
    <glyph glyph-name="Obreve" unicode="&#x14e;" horiz-adv-x="1728" 
d="M1172 2000q0 -91 -39.5 -162t-109.5 -112t-160 -41t-159.5 41t-109.5 112t-40 162h103q0 -100 57.5 -163.5t148.5 -63.5t149 63.5t58 163.5h102zM865 -30q-169 0 -311.5 58t-247.5 163.5t-163 248t-58 310.5q0 169 58 311.5t163 247.5t247.5 163t311.5 58t311 -58
t247 -163t162.5 -247.5t57.5 -311.5q0 -168 -57.5 -310.5t-162.5 -248t-247 -163.5t-311 -58zM864 126q129 0 238.5 47t190.5 131.5t125.5 198t44.5 247.5t-44.5 248t-125.5 198.5t-190.5 131t-238.5 46.5t-238.5 -46.5t-190.5 -131t-125.5 -198.5t-44.5 -248t44.5 -248
t125.5 -198.5t190.5 -131t238.5 -46.5z" />
    <glyph glyph-name="obreve" unicode="&#x14f;" horiz-adv-x="1195" 
d="M906 1500q0 -91 -39.5 -162t-109 -112t-159.5 -41t-160 41t-109.5 112t-39.5 162h102q0 -100 58 -163.5t149 -63.5t148.5 63.5t57.5 163.5h102zM599 -20q-149 0 -268 68t-187.5 186t-68.5 266q0 149 68.5 266.5t187.5 185.5t268 68t267 -68t186 -185.5t68 -266.5
q0 -148 -68 -266t-186 -186t-267 -68zM598 128q101 0 181 49t126.5 133.5t46.5 190.5t-46.5 190t-126.5 133t-181 49t-181.5 -49t-127 -133t-46.5 -190t46.5 -190.5t127 -133.5t181.5 -49z" />
    <glyph glyph-name="Ohungarumlaut" unicode="&#x150;" horiz-adv-x="1728" 
d="M709 1666h-119l156 334h157zM1086 1666h-119l156 334h157zM865 -30q-169 0 -311.5 58t-247.5 163.5t-163 248t-58 310.5q0 169 58 311.5t163 247.5t247.5 163t311.5 58t311 -58t247 -163t162.5 -247.5t57.5 -311.5q0 -168 -57.5 -310.5t-162.5 -248t-247 -163.5t-311 -58
zM864 126q129 0 238.5 47t190.5 131.5t125.5 198t44.5 247.5t-44.5 248t-125.5 198.5t-190.5 131t-238.5 46.5t-238.5 -46.5t-190.5 -131t-125.5 -198.5t-44.5 -248t44.5 -248t125.5 -198.5t190.5 -131t238.5 -46.5z" />
    <glyph glyph-name="ohungarumlaut" unicode="&#x151;" horiz-adv-x="1196" 
d="M462 1166h-119l156 334h157zM839 1166h-119l156 334h157zM599 -20q-149 0 -268 68t-187.5 186t-68.5 266q0 149 68.5 266.5t187.5 185.5t268 68t267 -68t186.5 -185.5t68.5 -266.5q0 -148 -68.5 -266t-186.5 -186t-267 -68zM599 128q101 0 181 49t126.5 133.5t46.5 190.5
t-46.5 190t-126.5 133t-181 49t-182 -49t-127.5 -133t-46.5 -190t46.5 -190.5t127.5 -133.5t182 -49z" />
    <glyph glyph-name="OE" unicode="&#x152;" horiz-adv-x="2561" 
d="M841 -31q-164 0 -302 58t-240 163.5t-158 248t-56 310.5q0 169 56 311.5t158 247.5t240 163t302 58q142 0 264.5 -44t220 -125t161.5 -192v332h919v-156h-743v-504h702v-156h-702v-528h753v-156h-929v330q-64 -111 -161.5 -192t-220 -125t-264.5 -44zM876 124
q132 0 243.5 47t194 131.5t128 198.5t45.5 248t-45.5 248t-128 198.5t-194 131t-243.5 46.5t-243.5 -46.5t-194 -131t-128 -198.5t-45.5 -248t45.5 -248t128 -198.5t194 -131.5t243.5 -47z" />
    <glyph glyph-name="oe" unicode="&#x153;" horiz-adv-x="2051" 
d="M1918 123q-186 -143 -410 -143q-154 0 -278.5 69.5t-194.5 187.5q-43 -78 -110 -135.5t-152 -89.5t-184 -32q-147 0 -263 68t-183.5 186t-67.5 266q0 149 67.5 266.5t183.5 185.5t263 68q96 0 179.5 -30t149.5 -85t110 -130q65 113 180 179t261 66q151 0 265 -70.5
t178 -196t64 -290.5v-31h-837q19 -89 73 -157t135.5 -106.5t180.5 -38.5q172 0 314 113zM598 128q101 0 181 49t126.5 133.5t46.5 190.5t-46.5 190t-126.5 133t-181 49t-181.5 -49t-127 -133t-46.5 -190t46.5 -190.5t127 -133.5t181.5 -49zM1133 560h688q-10 92 -56.5 162
t-120 109t-166.5 39q-94 0 -168.5 -39t-120.5 -109t-56 -162z" />
    <glyph glyph-name="Racute" unicode="&#x154;" horiz-adv-x="1314" 
d="M619 1666h-119l156 334h157zM1239 0h-196l-358 610h-354v-610h-176v1500h519q161 0 277 -54t179 -153.5t63 -237.5q0 -161 -85.5 -270t-239.5 -151zM331 766h332q163 0 256.5 77t93.5 212t-93 212t-257 77h-332v-578z" />
    <glyph glyph-name="racute" unicode="&#x155;" horiz-adv-x="796" 
d="M460 1166h-119l156 334h157zM319 0h-164v1000h144l7 -198q52 103 146.5 160.5t217.5 57.5q27 0 55 -3t56 -9l-20 -148q-55 13 -109 13q-98 0 -173.5 -48t-117.5 -132t-42 -193v-500z" />
    <glyph glyph-name="uni0156" unicode="&#x156;" horiz-adv-x="1314" 
d="M1239 0h-196l-358 610h-354v-610h-176v1500h519q161 0 277 -54t179 -153.5t63 -237.5q0 -161 -85.5 -270t-239.5 -151zM331 766h332q163 0 256.5 77t93.5 212t-93 212t-257 77h-332v-578zM599 -476l-51 51q54 38 84 99t30 126q0 66 -29 118l109 26q23 -63 23 -127
q0 -94 -45 -173.5t-121 -119.5z" />
    <glyph glyph-name="uni0157" unicode="&#x157;" horiz-adv-x="797" 
d="M320 0h-164v1000h144l7 -198q52 103 146.5 160.5t217.5 57.5q27 0 55 -3t56 -9l-20 -148q-55 13 -109 13q-98 0 -173.5 -48t-117.5 -132t-42 -193v-500zM151 -476l-51 51q54 38 84 99t30 126q0 66 -29 118l109 26q23 -63 23 -127q0 -94 -45 -173.5t-121 -119.5z" />
    <glyph glyph-name="Rcaron" unicode="&#x158;" horiz-adv-x="1314" 
d="M689 1666h-145l-213 334h123l163 -263l162 263h123zM1239 0h-196l-358 610h-354v-610h-176v1500h519q161 0 277 -54t179 -153.5t63 -237.5q0 -161 -85.5 -270t-239.5 -151zM331 766h332q163 0 256.5 77t93.5 212t-93 212t-257 77h-332v-578z" />
    <glyph glyph-name="rcaron" unicode="&#x159;" horiz-adv-x="797" 
d="M471 1166h-145l-213 334h123l163 -263l162 263h123zM320 0h-164v1000h144l7 -198q52 103 146.5 160.5t217.5 57.5q27 0 55 -3t56 -9l-20 -148q-55 13 -109 13q-98 0 -173.5 -48t-117.5 -132t-42 -193v-500z" />
    <glyph glyph-name="Sacute" unicode="&#x15a;" horiz-adv-x="1196" 
d="M654 1666h-119l156 334h157zM85 146l85 135q65 -53 130 -88t132.5 -52t137.5 -17q102 0 178.5 34t119.5 94.5t43 139.5q0 86 -48.5 142.5t-125.5 96.5t-164 76q-73 31 -145 66t-130.5 81.5t-93.5 112.5t-35 159q0 119 60 210t166.5 142t245.5 51q94 0 189 -24.5
t184 -71.5l-72 -144q-70 41 -146.5 63t-150.5 22q-88 0 -154.5 -29.5t-104 -82t-37.5 -122.5q0 -78 45.5 -131t118 -91.5t153.5 -74.5q77 -34 152.5 -71.5t137 -88t98.5 -120.5t37 -169q0 -127 -64 -222.5t-179.5 -148.5t-270.5 -53q-136 0 -259 44t-233 132z" />
    <glyph glyph-name="sacute" unicode="&#x15b;" horiz-adv-x="890" 
d="M508 1166h-119l156 334h157zM105 87l43 154q36 -34 82 -59t97 -38.5t103 -13.5q93 0 150 41t57 107q0 48 -29.5 79.5t-77.5 54.5t-103 44q-67 26 -133 59t-109.5 87t-43.5 142q0 84 42 146t117.5 96t173.5 34q148 0 291 -74l-49 -148q-32 21 -74 37.5t-86 25.5t-83 9
q-73 0 -118 -33.5t-45 -89.5q0 -32 18.5 -58.5t62.5 -52.5t122 -58q69 -28 136 -63.5t111.5 -91t44.5 -144.5q0 -88 -46.5 -155.5t-129 -105.5t-190.5 -38q-179 0 -334 107z" />
    <glyph glyph-name="Scircumflex" unicode="&#x15c;" horiz-adv-x="1196" 
d="M908 1666h-123l-163 263l-162 -263h-123l213 334h145zM85 146l85 135q65 -53 130 -88t132.5 -52t137.5 -17q102 0 178.5 34t119.5 94.5t43 139.5q0 86 -48.5 142.5t-125.5 96.5t-164 76q-73 31 -145 66t-130.5 81.5t-93.5 112.5t-35 159q0 119 60 210t166.5 142t245.5 51
q94 0 189 -24.5t184 -71.5l-72 -144q-70 41 -146.5 63t-150.5 22q-88 0 -154.5 -29.5t-104 -82t-37.5 -122.5q0 -78 46 -131t119.5 -92t157.5 -76q75 -33 149 -70.5t135.5 -87.5t98 -120t36.5 -169q0 -127 -64 -222.5t-179.5 -148.5t-270.5 -53q-136 0 -259 44t-233 132z
" />
    <glyph glyph-name="scircumflex" unicode="&#x15d;" horiz-adv-x="890" 
d="M761 1166h-123l-163 263l-162 -263h-123l212 334h146zM105 87l43 154q36 -34 82 -59t97 -38.5t103 -13.5q93 0 150 41t57 107q0 48 -29.5 79.5t-77.5 54.5t-103 44q-67 26 -133 59t-109.5 87t-43.5 142q0 84 42 146t117.5 96t173.5 34q148 0 291 -74l-49 -148
q-32 21 -74 37.5t-86 25.5t-83 9q-73 0 -118 -33.5t-45 -89.5q0 -32 18.5 -58.5t62.5 -52.5t122 -58q69 -28 136 -63.5t111.5 -91t44.5 -144.5q0 -88 -46.5 -155.5t-129 -105.5t-190.5 -38q-179 0 -334 107z" />
    <glyph glyph-name="Scedilla" unicode="&#x15e;" horiz-adv-x="1195" 
d="M85 146l85 135q65 -53 130 -88t132.5 -52t137.5 -17q102 0 178.5 34t119.5 94.5t43 139.5q0 86 -48.5 142.5t-125.5 96.5t-164 76q-73 31 -145 66t-130.5 81.5t-93.5 112.5t-35 159q0 119 60 210t166.5 142t245.5 51q94 0 189 -24.5t184 -71.5l-72 -144q-70 41 -146.5 63
t-150.5 22q-88 0 -154.5 -29.5t-104 -82t-37.5 -122.5q0 -78 45.5 -131t118 -91.5t153.5 -74.5q77 -34 152.5 -71.5t137 -88t98 -120.5t36.5 -169q0 -121 -57.5 -213t-162 -146.5t-245.5 -63.5l-20 -48q74 -7 119 -49.5t45 -109.5q0 -78 -61 -128.5t-159 -50.5
q-65 0 -133 24l34 84q45 -19 92 -19q56 0 93 26.5t37 66.5q0 43 -42 71t-104 28h-10.5t-10.5 -1l41 105q-127 5 -242 49t-219 127z" />
    <glyph glyph-name="scedilla" unicode="&#x15f;" horiz-adv-x="890" 
d="M105 87l43 154q36 -34 82 -59t97 -38.5t103 -13.5q93 0 150 41t57 107q0 48 -29.5 79.5t-77.5 54.5t-103 44q-67 26 -133 59t-109.5 87t-43.5 142q0 84 42 146t117.5 96t173.5 34q148 0 291 -74l-49 -148q-32 21 -74 37.5t-86 25.5t-83 9q-73 0 -118 -33.5t-45 -89.5
q0 -32 18.5 -58.5t62.5 -52.5t122 -58q69 -28 136 -63.5t111.5 -91t44.5 -144.5q0 -82 -40.5 -146.5t-113 -103.5t-168.5 -47l-25 -59q74 -7 119 -49.5t45 -109.5q0 -78 -61 -128.5t-159 -50.5q-65 0 -133 24l34 84q45 -19 92 -19q56 0 93 26.5t37 66.5q0 43 -42 71t-104 28
h-10.5t-10.5 -1l45 116q-79 5 -155 32.5t-143 73.5z" />
    <glyph glyph-name="Scaron" unicode="&#x160;" horiz-adv-x="1196" 
d="M715 1666h-145l-213 334h123l163 -263l162 263h123zM85 146l85 135q65 -53 130 -88t132.5 -52t137.5 -17q102 0 178.5 34t119.5 94.5t43 139.5q0 86 -48.5 142.5t-125.5 96.5t-164 76q-73 31 -145 66t-130.5 81.5t-93.5 112.5t-35 159q0 119 60 210t166.5 142t245.5 51
q94 0 189 -24.5t184 -71.5l-72 -144q-70 41 -146.5 63t-150.5 22q-88 0 -154.5 -29.5t-104 -82t-37.5 -122.5q0 -78 45.5 -131t118 -91.5t153.5 -74.5q77 -34 152.5 -71.5t137 -88t98.5 -120.5t37 -169q0 -127 -64 -222.5t-179.5 -148.5t-270.5 -53q-136 0 -259 44t-233 132
z" />
    <glyph glyph-name="scaron" unicode="&#x161;" horiz-adv-x="890" 
d="M548 1166h-145l-213 334h123l163 -263l162 263h123zM105 87l43 154q36 -34 82 -59t97 -38.5t103 -13.5q93 0 150 41t57 107q0 48 -29.5 79.5t-77.5 54.5t-103 44q-67 26 -133 59t-109.5 87t-43.5 142q0 84 42 146t117.5 96t173.5 34q148 0 291 -74l-49 -148
q-32 21 -74 37.5t-86 25.5t-83 9q-73 0 -118 -33.5t-45 -89.5q0 -32 18.5 -58.5t62.5 -52.5t122 -58q69 -28 136 -63.5t111.5 -91t44.5 -144.5q0 -88 -46.5 -155.5t-129 -105.5t-190.5 -38q-179 0 -334 107z" />
    <glyph glyph-name="uni0162" unicode="&#x162;" horiz-adv-x="1210" 
d="M693 0h-44l-32 -77q74 -7 119 -49.5t45 -109.5q0 -78 -61 -128.5t-159 -50.5q-65 0 -133 24l34 84q45 -19 92 -19q56 0 93 26.5t37 66.5q0 43 -42 71t-104 28h-10.5t-10.5 -1l52 135h-52v1344h-482v156h1140v-156h-482v-1344z" />
    <glyph glyph-name="uni0163" unicode="&#x163;" horiz-adv-x="840" 
d="M755 24q-99 -44 -193 -44q-13 0 -26.5 1t-26.5 3l-26 -61q74 -7 119 -49.5t45 -109.5q0 -78 -61 -128.5t-159 -50.5q-65 0 -133 24l34 84q45 -19 92 -19q56 0 93 26.5t37 66.5q0 43 -42 71t-104 28h-10.5t-10.5 -1l54 139q-82 34 -129.5 110.5t-47.5 182.5v556h-175v147
h183v250h156v-250h299v-147h-299v-526q0 -90 48.5 -145t127.5 -55q64 0 128 38z" />
    <glyph glyph-name="Tcaron" unicode="&#x164;" horiz-adv-x="1211" 
d="M678 1666h-146l-212 334h123l162 -263l163 263h122zM694 0h-176v1344h-483v156h1141v-156h-482v-1344z" />
    <glyph glyph-name="tcaron" unicode="&#x165;" horiz-adv-x="1008" 
d="M868 1070h-97l101 450h121zM735 24q-99 -44 -194 -44q-90 0 -158 39.5t-105.5 111t-37.5 166.5v556h-175v147h182v250h157v-250h298v-147h-298v-526q0 -90 48 -145t127 -55q65 0 129 38z" />
    <glyph glyph-name="Tbar" unicode="&#x166;" horiz-adv-x="1211" 
d="M934 662h-241v-662h-176v662h-241v100h241v582h-482v156h1141v-156h-483v-582h241v-100z" />
    <glyph glyph-name="tbar" unicode="&#x167;" horiz-adv-x="841" 
d="M721 480h-296v-153q0 -90 48 -145t127 -55q64 0 128 38l28 -141q-99 -44 -194 -44q-90 0 -158 39.5t-105.5 111t-37.5 166.5v183h-176v100h176v273h-175v147h182v250h157v-250h298v-147h-298v-273h296v-100z" />
    <glyph glyph-name="Utilde" unicode="&#x168;" horiz-adv-x="1569" 
d="M1118 1947q-8 -98 -57.5 -151.5t-132.5 -53.5q-50 0 -87 20t-81 54q-25 20 -53.5 36t-66.5 16q-99 0 -116 -116h-74q18 205 188 205q59 0 99 -21.5t73 -47.5q29 -22 58 -38.5t66 -16.5q93 0 110 114h74zM1414 1500v-829q0 -218 -75.5 -375.5t-216.5 -241.5t-338 -84
q-196 0 -337 84t-216.5 241.5t-75.5 375.5v829h176v-815q0 -177 54 -302t155.5 -191t243.5 -66q143 0 244.5 66t155.5 191t54 302v815h176z" />
    <glyph glyph-name="utilde" unicode="&#x169;" 
d="M926 1447q-8 -98 -57 -151.5t-131 -53.5q-52 0 -88.5 19t-75.5 50q-28 23 -57.5 40t-67.5 17q-99 0 -116 -116h-74q18 205 188 205q59 0 98.5 -22t72.5 -47q29 -22 58 -38.5t66 -16.5q94 0 111 114h73zM1071 0h-144l-6 162q-55 -88 -144.5 -135t-211.5 -47
q-199 0 -314.5 120.5t-115.5 329.5v570h164v-558q0 -142 80.5 -227t214.5 -85q140 0 226.5 92t86.5 240v538h164v-1000z" />
    <glyph glyph-name="Umacron" unicode="&#x16a;" horiz-adv-x="1569" 
d="M1109 1792h-650v100h650v-100zM1414 1500v-829q0 -218 -75.5 -375.5t-216 -241.5t-337.5 -84q-196 0 -337 84t-217 241.5t-76 375.5v829h176v-815q0 -177 54 -302t156 -191t244 -66q143 0 244 66t155 191t54 302v815h176z" />
    <glyph glyph-name="umacron" unicode="&#x16b;" 
d="M917 1292h-649v100h649v-100zM1071 0h-144l-6 162q-55 -88 -144.5 -135t-211.5 -47q-199 0 -314.5 120.5t-115.5 329.5v570h164v-558q0 -142 80.5 -227t214.5 -85q140 0 226.5 92t86.5 240v538h164v-1000z" />
    <glyph glyph-name="Ubreve" unicode="&#x16c;" horiz-adv-x="1569" 
d="M1093 2000q0 -91 -39.5 -162t-109.5 -112t-160 -41t-159.5 41t-109.5 112t-40 162h103q0 -100 57.5 -163.5t148.5 -63.5t149 63.5t58 163.5h102zM1414 1500v-829q0 -218 -75.5 -375.5t-216 -241.5t-337.5 -84q-196 0 -337 84t-217 241.5t-76 375.5v829h176v-815
q0 -177 54 -302t156 -191t244 -66q143 0 244 66t155 191t54 302v815h176z" />
    <glyph glyph-name="ubreve" unicode="&#x16d;" 
d="M901 1500q0 -91 -39.5 -162t-109 -112t-159.5 -41t-160 41t-109.5 112t-39.5 162h102q0 -100 58 -163.5t149 -63.5t148.5 63.5t57.5 163.5h102zM1071 0h-144l-6 162q-55 -88 -144.5 -135t-211.5 -47q-199 0 -314.5 120.5t-115.5 329.5v570h164v-558q0 -142 80.5 -227
t214.5 -85q140 0 226.5 92t86.5 240v538h164v-1000z" />
    <glyph glyph-name="Uring" unicode="&#x16e;" horiz-adv-x="1569" 
d="M784 1606q-95 0 -153 57t-58 150t58 150t153 57t153 -57t58 -150t-58 -150t-153 -57zM784 1682q58 0 93.5 36t35.5 95t-35.5 95t-93.5 36t-93 -36t-35 -95t35 -95t93 -36zM1414 1500v-829q0 -218 -75.5 -375.5t-216 -241.5t-337.5 -84q-196 0 -337 84t-217 241.5
t-76 375.5v829h176v-815q0 -177 54 -302t156 -191t244 -66q143 0 244 66t155 191t54 302v815h176z" />
    <glyph glyph-name="uring" unicode="&#x16f;" 
d="M593 1106q-95 0 -153 57t-58 150t58 150t153 57t152.5 -57t57.5 -150t-57.5 -150t-152.5 -57zM593 1182q58 0 93 36t35 95t-35 95t-93 36t-93.5 -36t-35.5 -95t35.5 -95t93.5 -36zM1071 0h-144l-6 162q-55 -88 -144.5 -135t-211.5 -47q-199 0 -314.5 120.5t-115.5 329.5
v570h164v-558q0 -142 80.5 -227t214.5 -85q140 0 226.5 92t86.5 240v538h164v-1000z" />
    <glyph glyph-name="Uhungarumlaut" unicode="&#x170;" horiz-adv-x="1569" 
d="M618 1666h-119l156 334h157zM995 1666h-119l156 334h157zM1414 1500v-829q0 -218 -75.5 -375.5t-216 -241.5t-337.5 -84q-196 0 -337 84t-217 241.5t-76 375.5v829h176v-815q0 -177 54 -302t156 -191t244 -66q143 0 244 66t155 191t54 302v815h176z" />
    <glyph glyph-name="uhungarumlaut" unicode="&#x171;" 
d="M466 1166h-119l157 334h157zM843 1166h-119l157 334h157zM1071 0h-144l-6 162q-55 -88 -144.5 -135t-211.5 -47q-199 0 -314.5 120.5t-115.5 329.5v570h164v-558q0 -142 80.5 -227t214.5 -85q140 0 226.5 92t86.5 240v538h164v-1000z" />
    <glyph glyph-name="Uogonek" unicode="&#x172;" horiz-adv-x="1569" 
d="M1414 1500v-829q0 -259 -106 -431.5t-298 -235.5q-75 -31 -121.5 -91t-46.5 -119q0 -47 34 -81t101 -39l-10 -90q-101 0 -158.5 51t-57.5 127q0 62 38 118.5t105 96.5q-26 -4 -53.5 -5.5t-56.5 -1.5q-196 0 -337 84t-216.5 241.5t-75.5 375.5v829h176v-815
q0 -177 54 -302t155.5 -191t243.5 -66q143 0 244.5 66t155.5 191t54 302v815h176z" />
    <glyph glyph-name="uogonek" unicode="&#x173;" 
d="M1071 0h-20q-71 -32 -114.5 -91t-43.5 -115q0 -47 34 -81t101 -39l-11 -90q-101 0 -158 51t-57 127q0 71 50 135.5t136 102.5h-61l-6 162q-55 -88 -144.5 -135t-211.5 -47q-199 0 -314.5 120.5t-115.5 329.5v570h164v-558q0 -142 80.5 -227t214.5 -85q140 0 226.5 92
t86.5 240v538h164v-1000z" />
    <glyph glyph-name="Wcircumflex" unicode="&#x174;" horiz-adv-x="2145" 
d="M1358 1666h-123l-163 263l-162 -263h-123l213 334h145zM1604 0h-152l-378 1197l-379 -1197h-152l-488 1500h185l379 -1200l379 1200h152l377 -1197l378 1197h185z" />
    <glyph glyph-name="wcircumflex" unicode="&#x175;" horiz-adv-x="1580" 
d="M1075 1166h-123l-162 263l-163 -263h-122l212 334h146zM1205 0h-190l-226 764l-226 -764h-190l-318 1000h173l239 -800l245 800h155l245 -800l239 800h174z" />
    <glyph glyph-name="Ycircumflex" unicode="&#x176;" horiz-adv-x="1390" 
d="M980 1666h-123l-162 263l-163 -263h-122l212 334h146zM782 0h-176v641l-581 859h213l456 -712l458 712h213l-583 -861v-639z" />
    <glyph glyph-name="ycircumflex" unicode="&#x177;" horiz-adv-x="1177" 
d="M900 1166h-123l-162 263l-163 -263h-123l213 334h146zM502 -500h-178l210 508l-479 992h181l376 -803l333 803h177z" />
    <glyph glyph-name="Ydieresis" unicode="&#x178;" horiz-adv-x="1391" 
d="M783 0h-176v641l-582 859h214l456 -712l458 712h213l-583 -861v-639zM916 1748q-40 0 -65 25t-25 65t25 65t65 25t64.5 -25t24.5 -65t-24.5 -65t-64.5 -25zM476 1748q-40 0 -65 25t-25 65t25 65t65 25t65 -25t25 -65t-25 -65t-65 -25z" />
    <glyph glyph-name="Zacute" unicode="&#x179;" horiz-adv-x="1291" 
d="M708 1666h-119l156 334h157zM1206 0h-1121v135l880 1209h-840v156h1065v-145l-871 -1199h887v-156z" />
    <glyph glyph-name="zacute" unicode="&#x17a;" horiz-adv-x="1043" 
d="M584 1166h-119l157 334h157zM968 0h-893v91l619 761h-589v148h838v-79l-628 -773h653v-148z" />
    <glyph glyph-name="Zdotaccent" unicode="&#x17b;" horiz-adv-x="1291" 
d="M1206 0h-1121v135l879 1209h-839v156h1065v-145l-871 -1199h887v-156zM675 1736q-40 0 -64.5 25t-24.5 66q0 39 24.5 64t64.5 25t65.5 -25t25.5 -64q0 -41 -25.5 -66t-65.5 -25z" />
    <glyph glyph-name="zdotaccent" unicode="&#x17c;" horiz-adv-x="1044" 
d="M522 1249q-37 0 -60.5 23.5t-23.5 60.5t23.5 60t60.5 23q38 0 61 -23t23 -60t-23 -60.5t-61 -23.5zM969 0h-894v91l619 761h-589v148h838v-79l-628 -773h654v-148z" />
    <glyph glyph-name="Zcaron" unicode="&#x17d;" horiz-adv-x="1291" 
d="M738 1666h-145l-213 334h123l162 -263l163 263h123zM1206 0h-1121v135l880 1209h-840v156h1065v-145l-871 -1199h887v-156z" />
    <glyph glyph-name="zcaron" unicode="&#x17e;" horiz-adv-x="1043" 
d="M614 1166h-146l-212 334h123l162 -263l163 263h122zM968 0h-893v91l618 761h-589v148h839v-79l-629 -773h654v-148z" />
    <glyph glyph-name="longs" unicode="&#x17f;" horiz-adv-x="670" 
d="M332 0h-177v1188q0 161 83.5 251.5t231.5 90.5q69 0 145 -21l-37 -145q-41 11 -74 11q-81 0 -126.5 -52.5t-45.5 -146.5v-1176z" />
    <glyph glyph-name="florin" unicode="&#x192;" horiz-adv-x="1072" 
d="M904 853h-287l-40 -568q-6 -93 -48.5 -164t-112 -111t-158.5 -40q-60 0 -120.5 19t-112.5 53l69 126q65 -51 139 -51q77 0 129 55.5t58 144.5l37 536h-218l10 147h219l15 217q7 94 48.5 164t111 109.5t158.5 39.5q61 0 122.5 -18.5t113.5 -53.5l-69 -126q-65 50 -141 50
q-77 0 -128.5 -55t-57.5 -145l-13 -182h286z" />
    <glyph glyph-name="uni01CD" unicode="&#x1cd;" horiz-adv-x="1512" 
d="M230 0h-185l616 1500h191l615 -1500h-185l-163 405h-726zM455 561h602l-301 749zM829 1666h-145l-213 334h123l162 -263l163 263h123z" />
    <glyph glyph-name="uni01CE" unicode="&#x1ce;" horiz-adv-x="1097" 
d="M962 0h-141l-11 132q-55 -71 -140 -111.5t-190 -40.5q-108 0 -193 42.5t-133.5 116.5t-48.5 168q0 99 52.5 174.5t143 118.5t205.5 43q75 0 153 -18.5t139 -50.5v42q0 80 -40 136.5t-107 87t-148 30.5q-70 0 -143 -25.5t-140 -78.5l-54 141q87 56 183 84.5t190 28.5
q130 0 224.5 -52.5t146.5 -149t52 -228.5v-590zM509 130q77 0 141 32t104 92.5t44 143.5v17q-55 43 -123.5 66.5t-139.5 23.5q-111 0 -185.5 -54t-74.5 -137q0 -52 30.5 -94t83.5 -66t120 -24zM621 1166h-145l-213 334h123l162 -263l163 263h123z" />
    <glyph glyph-name="uni0218" unicode="&#x218;" horiz-adv-x="1196" 
d="M85 146l85 135q65 -53 130 -88t132.5 -52t137.5 -17q102 0 178.5 34t119.5 94.5t43 139.5q0 86 -48.5 142.5t-125.5 96.5t-164 76q-73 31 -145 66t-130.5 81.5t-93.5 112.5t-35 159q0 119 60 210t166.5 142t245.5 51q94 0 189 -24.5t184 -71.5l-72 -144q-70 41 -146.5 63
t-150.5 22q-88 0 -154.5 -29.5t-104 -82t-37.5 -122.5q0 -78 46 -131t119.5 -92t157.5 -76q75 -33 149 -70.5t135.5 -87.5t98 -120t36.5 -169q0 -127 -64 -222.5t-179.5 -148.5t-270.5 -53q-136 0 -259 44t-233 132zM535 -476l-51 51q54 38 84 99t30 126q0 66 -29 118
l109 26q23 -63 23 -127q0 -94 -45 -173.5t-121 -119.5z" />
    <glyph glyph-name="uni0219" unicode="&#x219;" horiz-adv-x="890" 
d="M105 87l43 154q36 -34 82 -59t97 -38.5t103 -13.5q93 0 150 41t57 107q0 48 -29.5 79.5t-77.5 54.5t-103 44q-67 26 -133 59t-109.5 87t-43.5 142q0 84 42 146t117.5 96t173.5 34q148 0 291 -74l-49 -148q-32 21 -74 37.5t-86 25.5t-83 9q-73 0 -118 -33.5t-45 -89.5
q0 -32 18.5 -58.5t62.5 -52.5t122 -58q69 -28 136 -63.5t111.5 -91t44.5 -144.5q0 -88 -46.5 -155.5t-129 -105.5t-190.5 -38q-179 0 -334 107zM388 -476l-51 51q54 38 84 99t30 126q0 66 -29 118l109 26q23 -63 23 -127q0 -94 -45 -173.5t-121 -119.5z" />
    <glyph glyph-name="uni021A" unicode="&#x21a;" horiz-adv-x="1211" 
d="M693 0h-176v1344h-482v156h1141v-156h-483v-1344zM528 -476l-50 51q54 38 83.5 99t29.5 126q0 66 -29 118l110 26q22 -60 22 -127q0 -94 -45 -173.5t-121 -119.5z" />
    <glyph glyph-name="uni021B" unicode="&#x21b;" horiz-adv-x="840" 
d="M755 24q-99 -44 -194 -44q-90 0 -158 39.5t-105.5 111t-37.5 166.5v556h-175v147h182v250h157v-250h298v-147h-298v-526q0 -90 48 -145t127 -55q64 0 128 38zM372 -476l-51 51q54 38 83.5 99t29.5 126q0 66 -29 118l110 26q22 -60 22 -127q0 -94 -44.5 -173.5
t-120.5 -119.5z" />
    <glyph glyph-name="uni0237" unicode="&#x237;" horiz-adv-x="488" 
d="M-113 -507v131q16 -3 30.5 -4t28.5 -1q104 0 168 74t64 199v1108h165v-1114q0 -194 -89.5 -300t-250.5 -106q-27 0 -56 3.5t-60 9.5z" />
    <glyph glyph-name="circumflex" unicode="&#x2c6;" horiz-adv-x="881" 
d="M726 1166h-123l-163 263l-162 -263h-123l212 334h146z" />
    <glyph glyph-name="caron" unicode="&#x2c7;" horiz-adv-x="881" 
d="M513 1166h-145l-213 334h123l162 -263l163 263h123z" />
    <glyph glyph-name="uni02C9" unicode="&#x2c9;" horiz-adv-x="959" 
d="M804 1293h-649v101h649v-101z" />
    <glyph glyph-name="breve" unicode="&#x2d8;" horiz-adv-x="928" 
d="M773 1500q0 -91 -39.5 -162t-109.5 -112t-160 -41t-159.5 41t-109.5 112t-40 162h102q0 -100 58 -163.5t149 -63.5t148.5 63.5t57.5 163.5h103z" />
    <glyph glyph-name="dotaccent" unicode="&#x2d9;" horiz-adv-x="477" 
d="M238 1236q-40 0 -64.5 25t-24.5 66q0 39 24.5 64t64.5 25t65.5 -25t25.5 -64q0 -41 -25.5 -66t-65.5 -25z" />
    <glyph glyph-name="ring" unicode="&#x2da;" horiz-adv-x="732" 
d="M366 1106q-95 0 -153 57t-58 150t58 150t153 57t153 -57t58 -150t-58 -150t-153 -57zM366 1182q58 0 93.5 36t35.5 95t-35.5 95t-93.5 36t-93 -36t-35 -95t35 -95t93 -36z" />
    <glyph glyph-name="ogonek" unicode="&#x2db;" horiz-adv-x="569" 
d="M371 -416q-101 0 -158.5 51t-57.5 127q0 74 52.5 139.5t142.5 102.5h64q-75 -31 -121.5 -91t-46.5 -119q0 -47 34 -81t101 -39z" />
    <glyph glyph-name="tilde" unicode="&#x2dc;" horiz-adv-x="977" 
d="M822 1447q-8 -98 -57 -151.5t-131 -53.5q-52 0 -88.5 19t-75.5 50q-28 23 -57.5 40t-67.5 17q-99 0 -116 -116h-74q18 205 188 205q59 0 98.5 -22t72.5 -47q29 -22 58 -38.5t66 -16.5q94 0 111 114h73z" />
    <glyph glyph-name="hungarumlaut" unicode="&#x2dd;" horiz-adv-x="768" 
d="M167 1166h-119l157 334h157zM544 1166h-119l157 334h157z" />
    <glyph glyph-name="gravecomb" unicode="&#x300;" horiz-adv-x="494" 
d="M399 1166h-120l-194 334h156z" />
    <glyph glyph-name="acutecomb" unicode="&#x301;" horiz-adv-x="494" 
d="M214 1166h-119l157 334h157z" />
    <glyph glyph-name="uni0302" unicode="&#x302;" horiz-adv-x="881" 
d="M726 1166h-123l-163 263l-162 -263h-123l212 334h146z" />
    <glyph glyph-name="tildecomb" unicode="&#x303;" horiz-adv-x="977" 
d="M822 1447q-8 -98 -57 -151.5t-131 -53.5q-52 0 -88.5 19t-75.5 50q-28 23 -57.5 40t-67.5 17q-99 0 -116 -116h-74q18 205 188 205q59 0 98.5 -22t72.5 -47q29 -22 58 -38.5t66 -16.5q94 0 111 114h73z" />
    <glyph glyph-name="uni0304" unicode="&#x304;" horiz-adv-x="959" 
d="M804 1292h-649v100h649v-100z" />
    <glyph glyph-name="uni0306" unicode="&#x306;" horiz-adv-x="928" 
d="M773 1500q0 -91 -39.5 -162t-109.5 -112t-160 -41t-159.5 41t-109.5 112t-40 162h102q0 -100 58 -163.5t149 -63.5t148.5 63.5t57.5 163.5h103z" />
    <glyph glyph-name="uni0307" unicode="&#x307;" horiz-adv-x="477" 
d="M238 1236q-40 0 -64.5 25t-24.5 66q0 39 24.5 64t64.5 25t65.5 -25t25.5 -64q0 -41 -25.5 -66t-65.5 -25z" />
    <glyph glyph-name="uni0308" unicode="&#x308;" horiz-adv-x="897" 
d="M669 1248q-40 0 -65 25t-25 65t25 65t65 25t64.5 -25t24.5 -65t-24.5 -65t-64.5 -25zM229 1248q-40 0 -65 25t-25 65t25 65t65 25t65 -25t25 -65t-25 -65t-65 -25z" />
    <glyph glyph-name="uni030A" unicode="&#x30a;" horiz-adv-x="732" 
d="M366 1106q-95 0 -153 57t-58 150t58 150t153 57t153 -57t58 -150t-58 -150t-153 -57zM366 1182q58 0 93.5 36t35.5 95t-35.5 95t-93.5 36t-93 -36t-35 -95t35 -95t93 -36z" />
    <glyph glyph-name="uni030B" unicode="&#x30b;" horiz-adv-x="768" 
d="M167 1166h-119l157 334h157zM544 1166h-119l157 334h157z" />
    <glyph glyph-name="uni030C" unicode="&#x30c;" horiz-adv-x="881" 
d="M513 1166h-145l-213 334h123l162 -263l163 263h123z" />
    <glyph glyph-name="uni0312" unicode="&#x312;" horiz-adv-x="683" 
 />
    <glyph glyph-name="uni0326" unicode="&#x326;" horiz-adv-x="526" 
d="M206 -476l-51 51q54 38 83.5 99t29.5 126q0 66 -29 118l110 26q22 -60 22 -127q0 -94 -44.5 -173.5t-120.5 -119.5z" />
    <glyph glyph-name="uni0327" unicode="&#x327;" horiz-adv-x="608" 
d="M125 -391l34 84q45 -19 92 -19q56 0 93 26.5t37 66.5q0 43 -42 71t-104 28h-10.5t-10.5 -1l55 142h80l-35 -84q74 -7 119 -49.5t45 -109.5q0 -78 -61 -128.5t-159 -50.5q-65 0 -133 24z" />
    <glyph glyph-name="uni0328" unicode="&#x328;" horiz-adv-x="569" 
d="M371 -416q-101 0 -158.5 51t-57.5 127q0 74 52.5 139.5t142.5 102.5h64q-75 -31 -121.5 -91t-46.5 -119q0 -47 34 -81t101 -39z" />
    <glyph glyph-name="uni0394" unicode="&#x394;" horiz-adv-x="1526" 
d="M1481 0h-1436l612 1500h212zM296 155h933l-466 1168z" />
    <glyph glyph-name="uni03A9" unicode="&#x3a9;" horiz-adv-x="1735" 
d="M1660 0h-625v78q119 51 209.5 153t141 239t50.5 289q0 182 -72 320.5t-199.5 216.5t-296.5 78q-168 0 -296.5 -78t-200.5 -217t-72 -321q0 -152 50.5 -288.5t141 -239t209.5 -152.5v-78h-625v156h361q-98 74 -169.5 175.5t-109.5 223t-38 255.5q0 214 95 376t263.5 253
t390.5 91t390.5 -91t263 -253t94.5 -376q0 -134 -38 -256t-109 -223.5t-170 -175.5h361v-155z" />
    <glyph glyph-name="pi" unicode="&#x3c0;" horiz-adv-x="1312" 
d="M1237 105q-31 -58 -84 -91.5t-115 -33.5q-61 0 -110.5 31t-78.5 84.5t-29 120.5v648h-336q4 -90 5.5 -180.5t1.5 -180.5q0 -126 -3 -252t-10 -251h-164q7 125 10 249.5t3 248.5q0 92 -1.5 183.5t-5.5 182.5h-51q-117 0 -218 -70l-36 126q116 80 257 80h953v-136h-239
v-656q0 -57 30 -93.5t76 -36.5q63 0 102 61z" />
    <glyph glyph-name="Wgrave" unicode="&#x1e80;" horiz-adv-x="2145" 
d="M1119 1666h-120l-194 334h157zM1604 0h-152l-378 1197l-378 -1197h-153l-488 1500h185l379 -1200l379 1200h152l378 -1197l377 1197h185z" />
    <glyph glyph-name="wgrave" unicode="&#x1e81;" horiz-adv-x="1580" 
d="M836 1166h-120l-194 334h157zM1205 0h-190l-226 764l-225 -764h-190l-319 1000h173l239 -800l246 800h154l245 -800l239 800h174z" />
    <glyph glyph-name="Wacute" unicode="&#x1e82;" horiz-adv-x="2145" 
d="M1155 1666h-119l156 334h157zM1604 0h-152l-378 1197l-378 -1197h-153l-488 1500h185l379 -1200l379 1200h152l378 -1197l377 1197h185z" />
    <glyph glyph-name="wacute" unicode="&#x1e83;" horiz-adv-x="1580" 
d="M872 1166h-119l156 334h157zM1205 0h-190l-226 764l-225 -764h-190l-319 1000h173l239 -800l246 800h154l245 -800l239 800h174z" />
    <glyph glyph-name="Wdieresis" unicode="&#x1e84;" horiz-adv-x="2144" 
d="M1603 0h-152l-378 1197l-378 -1197h-152l-488 1500h184l379 -1200l379 1200h152l378 -1197l377 1197h185zM1293 1748q-40 0 -65 25t-25 65t25 65t65 25t64.5 -25t24.5 -65t-24.5 -65t-64.5 -25zM853 1748q-40 0 -65 25t-25 65t25 65t65 25t65 -25t25 -65t-25 -65t-65 -25
z" />
    <glyph glyph-name="wdieresis" unicode="&#x1e85;" horiz-adv-x="1581" 
d="M1206 0h-190l-226 764l-226 -764h-190l-319 1000h174l239 -800l245 800h154l245 -800l240 800h174zM1011 1248q-40 0 -65 25t-25 65t25 65t65 25t64.5 -25t24.5 -65t-24.5 -65t-64.5 -25zM571 1248q-40 0 -65 25t-25 65t25 65t65 25t65 -25t25 -65t-25 -65t-65 -25z" />
    <glyph glyph-name="uni1E9E" unicode="&#x1e9e;" horiz-adv-x="1325" 
d="M331 0h-176v1010q0 154 62.5 271t173 183t254.5 66q112 0 208.5 -40.5t165 -113t97.5 -169.5q9 -30 4 -63.5t-23 -53.5l-295 -341l-2 49q123 0 223 -54.5t158.5 -147t58.5 -207.5q0 -124 -62.5 -218.5t-174.5 -147.5t-258 -53q-71 0 -142.5 14t-150.5 44l56 149
q72 -28 122 -39.5t100 -11.5q103 0 177.5 33t115.5 94t41 144q0 89 -47.5 155t-132.5 101t-197 30l-55 101l312 374q-21 66 -64 114.5t-103.5 75t-132.5 26.5q-97 0 -167.5 -46.5t-108 -132.5t-37.5 -206v-989z" />
    <glyph glyph-name="Ygrave" unicode="&#x1ef2;" horiz-adv-x="1391" 
d="M783 0h-176v641l-582 859h214l456 -712l458 712h213l-583 -861v-639zM853 1666h-120l-194 334h156z" />
    <glyph glyph-name="ygrave" unicode="&#x1ef3;" horiz-adv-x="1177" 
d="M502 -500h-179l210 508l-478 992h181l376 -803l332 803h178zM746 1166h-120l-194 334h156z" />
    <glyph glyph-name="uni2002" unicode="&#x2002;" horiz-adv-x="1354" 
 />
    <glyph glyph-name="uni2009" unicode="&#x2009;" horiz-adv-x="670" 
 />
    <glyph glyph-name="uni200B" unicode="&#x200b;" horiz-adv-x="330" 
 />
    <glyph glyph-name="endash" unicode="&#x2013;" horiz-adv-x="1330" 
d="M1175 439h-1020v129h1020v-129z" />
    <glyph glyph-name="emdash" unicode="&#x2014;" horiz-adv-x="2350" 
d="M2195 439h-2040v129h2040v-129z" />
    <glyph glyph-name="quoteleft" unicode="&#x2018;" horiz-adv-x="532" 
d="M286 1070h-131l125 450h107z" />
    <glyph glyph-name="quoteright" unicode="&#x2019;" horiz-adv-x="532" 
d="M252 1070h-97l101 450h121z" />
    <glyph glyph-name="quotesinglbase" unicode="&#x201a;" horiz-adv-x="470" 
d="M236 -240h-121l80 420h150z" />
    <glyph glyph-name="quotedblleft" unicode="&#x201c;" horiz-adv-x="893" 
d="M276 1070h-121l125 450h97zM637 1070h-121l125 450h97z" />
    <glyph glyph-name="quotedblright" unicode="&#x201d;" horiz-adv-x="892" 
d="M612 1070h-96l101 450h120zM252 1070h-97l101 450h121z" />
    <glyph glyph-name="quotedblbase" unicode="&#x201e;" horiz-adv-x="833" 
d="M599 -240h-121l80 420h150zM236 -240h-121l80 420h150z" />
    <glyph glyph-name="dagger" unicode="&#x2020;" horiz-adv-x="1146" 
d="M661 0h-176l19 913l-349 -18v156l349 -18l-19 467h176l-19 -468l349 19v-156l-349 18z" />
    <glyph glyph-name="daggerdbl" unicode="&#x2021;" horiz-adv-x="1146" 
d="M661 0h-176l18 471l-348 -22v145l348 -22l-3 174l3 182l-348 -22v145l348 -22l-18 471h176l-19 -471l349 22v-145l-349 22l3 -182l-3 -174l349 22v-145l-349 22z" />
    <glyph glyph-name="bullet" unicode="&#x2022;" horiz-adv-x="505" 
d="M253 553q-64 0 -106 41t-42 106t42 106.5t106 41.5q65 0 106 -41.5t41 -106.5t-41 -106t-106 -41z" />
    <glyph glyph-name="ellipsis" unicode="&#x2026;" horiz-adv-x="1322" 
d="M231 -20q-38 0 -62 24t-24 62t24 62.5t62 24.5t62 -24.5t24 -62.5t-24 -62t-62 -24zM661 -20q-38 0 -62 24t-24 62t24 62.5t62 24.5t62 -24.5t24 -62.5t-24 -62t-62 -24zM1091 -20q-38 0 -62 24t-24 62t24 62.5t62 24.5t62 -24.5t24 -62.5t-24 -62t-62 -24z" />
    <glyph glyph-name="perthousand" unicode="&#x2030;" horiz-adv-x="2495" 
d="M417 873q-149 0 -240.5 89t-91.5 234q0 146 91.5 235t240.5 89q150 0 240.5 -89t90.5 -235q0 -145 -91 -234t-240 -89zM429 0h-144l967 1500h144zM417 974q94 0 151.5 61t57.5 161q0 101 -57 162t-152 61q-94 0 -152 -61t-58 -162q0 -100 58 -161t152 -61zM2079 -14
q-149 0 -240.5 89t-91.5 234q0 146 91.5 235t240.5 89q150 0 240.5 -89t90.5 -235q0 -145 -91 -234t-240 -89zM1260 -20q-149 0 -240 89t-91 234q0 146 91 235t240 89q150 0 241 -89t91 -235q0 -145 -91.5 -234t-240.5 -89zM2079 87q94 0 151.5 61t57.5 161q0 101 -57 162
t-152 61q-94 0 -152 -61t-58 -162q0 -100 58 -161t152 -61zM1260 81q94 0 152 61t58 161q0 101 -57.5 162t-152.5 61q-94 0 -151.5 -61t-57.5 -162q0 -100 57.5 -161t151.5 -61z" />
    <glyph glyph-name="minute" unicode="&#x2032;" horiz-adv-x="441" 
d="M269 1085h-97l-17 435h131z" />
    <glyph glyph-name="second" unicode="&#x2033;" horiz-adv-x="764" 
d="M269 1085h-97l-17 435h131zM592 1085h-97l-17 435h131z" />
    <glyph glyph-name="guilsinglleft" unicode="&#x2039;" horiz-adv-x="729" 
d="M574 112h-161l-338 397l338 397h161l-343 -397z" />
    <glyph glyph-name="guilsinglright" unicode="&#x203a;" horiz-adv-x="729" 
d="M315 112h-160l342 397l-342 397h160l339 -397z" />
    <glyph glyph-name="fraction" unicode="&#x2044;" horiz-adv-x="1158" 
d="M129 0h-114l1020 1540h108z" />
    <glyph glyph-name="uni2074" unicode="&#x2074;" horiz-adv-x="716" 
d="M552 730h-101v184h-376v79l387 507h90v-496h89v-90h-89v-184zM451 1004v355l-272 -355h272z" />
    <glyph glyph-name="franc" unicode="&#x20a3;" horiz-adv-x="1252" 
d="M833 323h-453v-323h-176v323h-179v99h179v1078h903v-156h-727v-504h687v-156h-687v-262h453v-99z" />
    <glyph glyph-name="uni20A8" unicode="&#x20a8;" horiz-adv-x="1208" 
d="M1053 1399h-350q77 -49 125 -120.5t58 -158.5h165v-80h-164q-8 -97 -63.5 -175t-147.5 -129t-212 -67l432 -669h-185l-419 663h-137v101h168q104 0 186 35t133.5 97.5t62.5 143.5h-550v80h551q-10 81 -59.5 144t-129.5 99t-181 36h-181v101h898v-101z" />
    <glyph glyph-name="Euro" unicode="&#x20ac;" horiz-adv-x="1103" 
d="M877 848h-470q-4 -24 -5.5 -48.5t-1.5 -49.5t1.5 -49t5.5 -49h448l-10 -86h-422q34 -133 114 -232t197.5 -153.5t263.5 -54.5v-156q-198 0 -356 74t-262 208.5t-141 313.5h-164l10 86h140q-3 29 -4.5 50t-1.5 53q0 26 1 45.5t5 47.5h-150l10 86h154q37 180 141 314
t262 208t356 74v-156q-145 0 -263 -54.5t-198 -153t-114 -232.5h464z" />
    <glyph glyph-name="uni2113" unicode="&#x2113;" horiz-adv-x="1051" 
d="M919 303q-11 -151 -98.5 -242t-221.5 -91q-97 0 -169 48t-112.5 134t-40.5 201v166q-49 -19 -101 -38t-108 -37l-43 144q70 23 133 46t119 48v504q0 105 39.5 182.5t111.5 119.5t169 42q96 0 165.5 -40.5t106.5 -116t37 -180.5q0 -180 -116 -330t-348 -269v-222
q0 -121 42.5 -186.5t118.5 -65.5q74 0 124.5 57.5t54.5 146.5zM442 766q152 90 228 195.5t76 227.5q0 91 -39 141t-110 50q-73 0 -114 -55.5t-41 -155.5v-403z" />
    <glyph glyph-name="trademark" unicode="&#x2122;" horiz-adv-x="1574" 
d="M357 780h-97v634h-225v86h547v-86h-225v-634zM1419 780h-97v573l-227 -452h-80l-226 450v-571h-96v720h117l245 -495l246 495h118v-720z" />
    <glyph glyph-name="estimated" unicode="&#x212e;" horiz-adv-x="1172" 
d="M1053 133q-97 -79 -197.5 -116t-215.5 -37q-164 0 -291.5 69t-200.5 189t-73 274q0 148 66.5 262.5t182.5 180t265 65.5t263.5 -65.5t179.5 -180.5t65 -264v-25h-809v-234q0 -59 48 -109t128.5 -79.5t176.5 -29.5q205 0 380 145zM884 538v230q0 55 -40.5 100t-108.5 72
t-149 27t-148.5 -27t-108.5 -72t-41 -100v-230h596z" />
    <glyph glyph-name="arrowup" unicode="&#x2191;" horiz-adv-x="1051" 
d="M896 1000h-87l-248 381l5 -1381h-81l5 1382l-247 -382h-88l332 500h76z" />
    <glyph glyph-name="arrowdown" unicode="&#x2193;" horiz-adv-x="1051" 
d="M896 500l-333 -500h-76l-332 500h88l247 -382l-5 1382h81l-5 -1381l248 381h87z" />
    <glyph glyph-name="partialdiff" unicode="&#x2202;" horiz-adv-x="1217" 
d="M316 1180l-121 50q40 136 149.5 218t250.5 82q119 0 219 -59.5t173.5 -167t114 -253t40.5 -318.5q0 -230 -71.5 -401.5t-200.5 -266t-303 -94.5q-136 0 -240 57t-163 157.5t-59 229.5q0 150 78 267.5t212.5 185t304.5 67.5q67 0 134 -11t131 -34q-19 146 -73 257.5
t-133 174.5t-176 63q-93 0 -166 -56t-101 -148zM975 748q-130 51 -254 51q-126 0 -225 -48t-155.5 -131.5t-56.5 -190.5q0 -88 38.5 -156.5t107 -107.5t157.5 -39q116 0 191 61t118.5 157t61 203.5t17.5 200.5z" />
    <glyph glyph-name="Delta" unicode="&#x2206;" horiz-adv-x="1227" 
d="M1091 0h-956l-60 106l453 1024h171l453 -1024zM259 148h708l-353 816z" />
    <glyph glyph-name="product" unicode="&#x220f;" horiz-adv-x="1784" 
d="M1488 -400h-176v1744h-840v-1744h-176v1744l-211 11v145h1614v-145l-211 -11v-1744z" />
    <glyph glyph-name="summation" unicode="&#x2211;" horiz-adv-x="1354" 
d="M1209 0h-1054v117l479 633l-479 634v116h1054v-155h-811l424 -595l-423 -595h810v-155z" />
    <glyph glyph-name="minus" unicode="&#x2212;" horiz-adv-x="1110" 
d="M955 439h-800v129h800v-129z" />
    <glyph glyph-name="uni2215" unicode="&#x2215;" horiz-adv-x="845" 
d="M182 -20h-157l638 1540h157z" />
    <glyph glyph-name="uni2219" unicode="&#x2219;" horiz-adv-x="462" 
d="M231 444q-38 0 -62 24t-24 62t24 62t62 24t62 -24t24 -62t-24 -62t-62 -24z" />
    <glyph glyph-name="radical" unicode="&#x221a;" horiz-adv-x="1186" 
d="M715 0h-176l-273 661h-141v111h241l242 -607l310 1395h143z" />
    <glyph glyph-name="infinity" unicode="&#x221e;" horiz-adv-x="1978" 
d="M1465 84q-90 0 -167 30t-148.5 95.5t-147.5 173.5q-54 -77 -119 -145.5t-151.5 -111t-207.5 -42.5q-131 0 -232.5 52.5t-159 144.5t-57.5 210q0 119 58 210t160 142.5t234 51.5q91 0 169.5 -28t150.5 -88.5t143 -158.5q53 73 116.5 135.5t148 101t199.5 38.5
q132 0 233 -52.5t158.5 -144.5t57.5 -212q0 -117 -56 -207.5t-155 -142.5t-227 -52zM915 512q-68 99 -126 156.5t-115.5 82.5t-124.5 25q-89 0 -158 -37t-108.5 -101.5t-39.5 -148.5q0 -79 35.5 -139t99 -94t146.5 -34q94 0 162.5 41t123 107t105.5 142zM1453 203
q82 0 146 36t100.5 99.5t36.5 144.5t-37 143t-101.5 97t-148.5 35q-87 0 -152.5 -37t-118 -97.5t-101.5 -131.5q51 -76 104 -142t118.5 -106.5t153.5 -40.5z" />
    <glyph glyph-name="integral" unicode="&#x222b;" horiz-adv-x="662" 
d="M55 -320v154q123 0 177 64.5t54 201.5l-86 1299q0 212 98 316.5t309 104.5v-155q-122 0 -176.5 -64.5t-54.5 -201.5l86 -1299q0 -213 -97.5 -316.5t-309.5 -103.5z" />
    <glyph glyph-name="approxequal" unicode="&#x2248;" horiz-adv-x="1352" 
d="M1197 731q-141 -148 -277 -148q-45 0 -97.5 17t-140.5 61q-59 30 -119.5 55t-125.5 25q-138 0 -282 -144v125q146 143 286 143q47 0 100.5 -17t142.5 -62q59 -29 118.5 -54t121.5 -25q136 0 273 149v-125zM1197 256q-141 -148 -277 -148q-45 0 -97.5 17t-140.5 61
q-59 30 -119.5 55t-125.5 25q-138 0 -282 -144v124q147 144 284 144q65 0 125.5 -25t119.5 -55q88 -44 140.5 -61t97.5 -17q138 0 275 149v-125z" />
    <glyph glyph-name="notequal" unicode="&#x2260;" horiz-adv-x="1265" 
d="M452 -74h-103l104 251h-298v131h353l147 356h-500v131h554l104 251h103l-104 -251h298v-131h-353l-147 -356h500v-131h-554z" />
    <glyph glyph-name="lessequal" unicode="&#x2264;" horiz-adv-x="1247" 
d="M1091 240l-936 464v97l936 459v-144l-776 -364l776 -369v-143zM1092 0h-937v132h937v-132z" />
    <glyph glyph-name="greaterequal" unicode="&#x2265;" horiz-adv-x="1247" 
d="M156 240v143l777 369l-777 364v144l936 -459v-97zM1092 0h-937v132h937v-132z" />
    <glyph glyph-name="lozenge" unicode="&#x25ca;" horiz-adv-x="1196" 
d="M660 -20h-126l-459 680l460 681h127l459 -680zM597 136l344 525l-343 523l-344 -524z" />
    <glyph glyph-name="uniFEFF" unicode="&#xfeff;" horiz-adv-x="1354" 
 />
    </font>
</defs>
</svg>
